<?xml version="1.0" encoding="utf-8" standalone="no"?>
<!DOCTYPE svg PUBLIC "-//W3C//DTD SVG 1.1//EN"
  "http://www.w3.org/Graphics/SVG/1.1/DTD/svg11.dtd">
<svg xmlns:xlink="http://www.w3.org/1999/xlink" width="518.523438pt" height="199.439688pt" viewBox="0 0 518.523438 199.439688" xmlns="http://www.w3.org/2000/svg" version="1.1">
 <metadata>
  <rdf:RDF xmlns:dc="http://purl.org/dc/elements/1.1/" xmlns:cc="http://creativecommons.org/ns#" xmlns:rdf="http://www.w3.org/1999/02/22-rdf-syntax-ns#">
   <cc:Work>
    <dc:type rdf:resource="http://purl.org/dc/dcmitype/StillImage"/>
    <dc:date>2024-04-09T10:09:56.074408</dc:date>
    <dc:format>image/svg+xml</dc:format>
    <dc:creator>
     <cc:Agent>
      <dc:title>Matplotlib v3.8.0, https://matplotlib.org/</dc:title>
     </cc:Agent>
    </dc:creator>
   </cc:Work>
  </rdf:RDF>
 </metadata>
 <defs>
  <style type="text/css">*{stroke-linejoin: round; stroke-linecap: butt}</style>
 </defs>
 <g id="figure_1">
  <g id="patch_1">
   <path d="M 0 199.439688 
L 518.523438 199.439688 
L 518.523438 0 
L 0 0 
L 0 199.439688 
z
" style="fill: none"/>
  </g>
  <g id="axes_1">
   <g id="patch_2">
    <path d="M 51.385938 148.90375 
L 497.785937 148.90375 
L 497.785937 10.30375 
L 51.385938 10.30375 
L 51.385938 148.90375 
z
" style="fill: none"/>
   </g>
   <g id="matplotlib.axis_1">
    <g id="xtick_1">
     <g id="line2d_1">
      <defs>
       <path id="md34b9f7abb" d="M 0 0 
L 0 3 
" style="stroke: #aaaaaa; stroke-width: 0.75"/>
      </defs>
      <g>
       <use xlink:href="#md34b9f7abb" x="51.385938" y="158.90375" style="fill: #aaaaaa; stroke: #aaaaaa; stroke-width: 0.75"/>
      </g>
     </g>
     <g id="text_1">
      <!-- 0 -->
      <g style="fill: #808080" transform="translate(49.129688 174.11125) scale(0.08 -0.08)">
       <defs>
        <path id="Ubuntu-30" d="M 320 2221 
Q 320 3334 713 3936 
Q 1107 4538 1805 4538 
Q 2502 4538 2896 3936 
Q 3290 3334 3290 2221 
Q 3290 1107 2896 505 
Q 2502 -96 1805 -96 
Q 1107 -96 713 505 
Q 320 1107 320 2221 
z
M 2662 2221 
Q 2662 2586 2620 2912 
Q 2579 3238 2480 3481 
Q 2381 3725 2214 3869 
Q 2048 4013 1805 4013 
Q 1562 4013 1395 3869 
Q 1229 3725 1129 3481 
Q 1030 3238 988 2912 
Q 947 2586 947 2221 
Q 947 1856 988 1529 
Q 1030 1203 1129 960 
Q 1229 717 1395 573 
Q 1562 429 1805 429 
Q 2048 429 2214 573 
Q 2381 717 2480 960 
Q 2579 1203 2620 1529 
Q 2662 1856 2662 2221 
z
" transform="scale(0.015625)"/>
       </defs>
       <use xlink:href="#Ubuntu-30"/>
      </g>
     </g>
    </g>
    <g id="xtick_2">
     <g id="line2d_2">
      <g>
       <use xlink:href="#md34b9f7abb" x="162.985938" y="158.90375" style="fill: #aaaaaa; stroke: #aaaaaa; stroke-width: 0.75"/>
      </g>
     </g>
     <g id="text_2">
      <!-- 200000 -->
      <g style="fill: #808080" transform="translate(149.448438 174.11125) scale(0.08 -0.08)">
       <defs>
        <path id="Ubuntu-32" d="M 2989 3302 
Q 2989 3072 2896 2857 
Q 2803 2643 2649 2435 
Q 2496 2227 2304 2025 
Q 2112 1824 1920 1632 
Q 1811 1523 1667 1376 
Q 1523 1229 1395 1069 
Q 1267 909 1180 761 
Q 1094 614 1094 506 
L 3136 506 
L 3136 0 
L 448 0 
Q 442 38 442 76 
Q 442 115 442 147 
Q 442 448 541 707 
Q 640 966 800 1196 
Q 960 1427 1158 1632 
Q 1357 1837 1549 2029 
Q 1709 2182 1853 2332 
Q 1997 2483 2109 2633 
Q 2221 2784 2288 2944 
Q 2355 3104 2355 3283 
Q 2355 3475 2294 3609 
Q 2234 3744 2131 3833 
Q 2029 3923 1891 3964 
Q 1754 4006 1600 4006 
Q 1414 4006 1260 3955 
Q 1107 3904 985 3837 
Q 864 3770 781 3696 
Q 698 3622 653 3584 
L 358 4006 
Q 416 4070 531 4163 
Q 646 4256 806 4339 
Q 966 4422 1164 4480 
Q 1363 4538 1594 4538 
Q 2291 4538 2640 4214 
Q 2989 3891 2989 3302 
z
" transform="scale(0.015625)"/>
       </defs>
       <use xlink:href="#Ubuntu-32"/>
       <use xlink:href="#Ubuntu-30" x="56.399994"/>
       <use xlink:href="#Ubuntu-30" x="112.799988"/>
       <use xlink:href="#Ubuntu-30" x="169.199982"/>
       <use xlink:href="#Ubuntu-30" x="225.599976"/>
       <use xlink:href="#Ubuntu-30" x="281.999969"/>
      </g>
     </g>
    </g>
    <g id="xtick_3">
     <g id="line2d_3">
      <g>
       <use xlink:href="#md34b9f7abb" x="274.585938" y="158.90375" style="fill: #aaaaaa; stroke: #aaaaaa; stroke-width: 0.75"/>
      </g>
     </g>
     <g id="text_3">
      <!-- 400000 -->
      <g style="fill: #808080" transform="translate(261.048437 174.11125) scale(0.08 -0.08)">
       <defs>
        <path id="Ubuntu-34" d="M 256 1536 
Q 378 1818 589 2192 
Q 800 2566 1065 2963 
Q 1331 3360 1635 3744 
Q 1939 4128 2246 4435 
L 2816 4435 
L 2816 1619 
L 3341 1619 
L 3341 1133 
L 2816 1133 
L 2816 0 
L 2240 0 
L 2240 1133 
L 256 1133 
L 256 1536 
z
M 2240 3731 
Q 2048 3526 1853 3273 
Q 1658 3021 1472 2745 
Q 1286 2470 1123 2182 
Q 960 1894 832 1619 
L 2240 1619 
L 2240 3731 
z
" transform="scale(0.015625)"/>
       </defs>
       <use xlink:href="#Ubuntu-34"/>
       <use xlink:href="#Ubuntu-30" x="56.399994"/>
       <use xlink:href="#Ubuntu-30" x="112.799988"/>
       <use xlink:href="#Ubuntu-30" x="169.199982"/>
       <use xlink:href="#Ubuntu-30" x="225.599976"/>
       <use xlink:href="#Ubuntu-30" x="281.999969"/>
      </g>
     </g>
    </g>
    <g id="xtick_4">
     <g id="line2d_4">
      <g>
       <use xlink:href="#md34b9f7abb" x="386.185938" y="158.90375" style="fill: #aaaaaa; stroke: #aaaaaa; stroke-width: 0.75"/>
      </g>
     </g>
     <g id="text_4">
      <!-- 600000 -->
      <g style="fill: #808080" transform="translate(372.648438 174.11125) scale(0.08 -0.08)">
       <defs>
        <path id="Ubuntu-36" d="M 403 1779 
Q 403 2426 582 2922 
Q 762 3418 1091 3757 
Q 1421 4096 1891 4272 
Q 2362 4448 2950 4454 
L 2995 3955 
Q 2618 3949 2307 3872 
Q 1997 3795 1753 3628 
Q 1510 3462 1344 3196 
Q 1178 2931 1094 2541 
Q 1261 2618 1469 2669 
Q 1677 2720 1901 2720 
Q 2278 2720 2540 2605 
Q 2803 2490 2969 2301 
Q 3136 2112 3209 1865 
Q 3283 1619 3283 1350 
Q 3283 1107 3200 851 
Q 3117 595 2947 384 
Q 2778 173 2515 38 
Q 2253 -96 1894 -96 
Q 1165 -96 784 403 
Q 403 902 403 1779 
z
M 1837 2234 
Q 1613 2234 1421 2192 
Q 1229 2150 1037 2067 
Q 1030 1997 1027 1923 
Q 1024 1850 1024 1779 
Q 1024 1498 1062 1248 
Q 1101 998 1200 809 
Q 1299 621 1465 509 
Q 1632 397 1888 397 
Q 2099 397 2246 486 
Q 2394 576 2490 717 
Q 2586 858 2627 1021 
Q 2669 1184 2669 1338 
Q 2669 1773 2461 2003 
Q 2253 2234 1837 2234 
z
" transform="scale(0.015625)"/>
       </defs>
       <use xlink:href="#Ubuntu-36"/>
       <use xlink:href="#Ubuntu-30" x="56.399994"/>
       <use xlink:href="#Ubuntu-30" x="112.799988"/>
       <use xlink:href="#Ubuntu-30" x="169.199982"/>
       <use xlink:href="#Ubuntu-30" x="225.599976"/>
       <use xlink:href="#Ubuntu-30" x="281.999969"/>
      </g>
     </g>
    </g>
    <g id="xtick_5">
     <g id="line2d_5">
      <g>
       <use xlink:href="#md34b9f7abb" x="497.785938" y="158.90375" style="fill: #aaaaaa; stroke: #aaaaaa; stroke-width: 0.75"/>
      </g>
     </g>
     <g id="text_5">
      <!-- 800000 -->
      <g style="fill: #808080" transform="translate(484.248438 174.11125) scale(0.08 -0.08)">
       <defs>
        <path id="Ubuntu-38" d="M 3258 1152 
Q 3258 883 3165 656 
Q 3072 429 2889 259 
Q 2707 90 2432 -3 
Q 2157 -96 1798 -96 
Q 1382 -96 1104 22 
Q 826 141 659 320 
Q 493 499 422 713 
Q 352 928 352 1120 
Q 352 1306 413 1475 
Q 474 1645 573 1792 
Q 672 1939 803 2057 
Q 934 2176 1082 2266 
Q 454 2624 454 3322 
Q 454 3565 550 3785 
Q 646 4006 822 4172 
Q 998 4339 1248 4438 
Q 1498 4538 1805 4538 
Q 2163 4538 2419 4429 
Q 2675 4320 2838 4150 
Q 3002 3981 3075 3776 
Q 3149 3571 3149 3379 
Q 3149 3194 3094 3030 
Q 3040 2867 2947 2726 
Q 2854 2586 2736 2477 
Q 2618 2368 2490 2285 
Q 3245 1926 3258 1152 
z
M 954 1114 
Q 954 998 995 873 
Q 1037 749 1139 643 
Q 1242 538 1402 467 
Q 1562 397 1805 397 
Q 2022 397 2185 461 
Q 2349 525 2451 624 
Q 2554 723 2605 851 
Q 2656 979 2656 1114 
Q 2656 1318 2579 1472 
Q 2502 1626 2358 1741 
Q 2214 1856 2012 1936 
Q 1811 2016 1555 2074 
Q 1267 1914 1110 1677 
Q 954 1440 954 1114 
z
M 2554 3386 
Q 2554 3482 2512 3597 
Q 2470 3712 2380 3811 
Q 2291 3910 2150 3977 
Q 2010 4045 1805 4045 
Q 1600 4045 1456 3981 
Q 1312 3917 1222 3817 
Q 1133 3718 1091 3600 
Q 1050 3482 1050 3366 
Q 1050 3226 1101 3085 
Q 1152 2944 1261 2822 
Q 1370 2701 1546 2605 
Q 1722 2509 1965 2451 
Q 2234 2611 2394 2825 
Q 2554 3040 2554 3386 
z
" transform="scale(0.015625)"/>
       </defs>
       <use xlink:href="#Ubuntu-38"/>
       <use xlink:href="#Ubuntu-30" x="56.399994"/>
       <use xlink:href="#Ubuntu-30" x="112.799988"/>
       <use xlink:href="#Ubuntu-30" x="169.199982"/>
       <use xlink:href="#Ubuntu-30" x="225.599976"/>
       <use xlink:href="#Ubuntu-30" x="281.999969"/>
      </g>
     </g>
    </g>
    <g id="text_6">
     <!-- Price -->
     <g style="fill: #505050" transform="translate(51.385938 190.574688) scale(0.09 -0.09)">
      <defs>
       <path id="Ubuntu-Bold-50" d="M 1843 4486 
Q 2835 4486 3366 4137 
Q 3898 3789 3898 2995 
Q 3898 2195 3360 1840 
Q 2822 1485 1824 1485 
L 1510 1485 
L 1510 0 
L 512 0 
L 512 4371 
Q 838 4435 1203 4460 
Q 1568 4486 1843 4486 
z
M 1907 3635 
Q 1798 3635 1692 3628 
Q 1587 3622 1510 3616 
L 1510 2336 
L 1824 2336 
Q 2342 2336 2604 2477 
Q 2867 2618 2867 3002 
Q 2867 3187 2800 3308 
Q 2733 3430 2608 3504 
Q 2483 3578 2304 3606 
Q 2125 3635 1907 3635 
z
" transform="scale(0.015625)"/>
       <path id="Ubuntu-Bold-72" d="M 2477 2522 
Q 2349 2554 2176 2589 
Q 2003 2624 1805 2624 
Q 1715 2624 1590 2608 
Q 1466 2592 1402 2573 
L 1402 0 
L 448 0 
L 448 3187 
Q 704 3277 1053 3357 
Q 1402 3437 1830 3437 
Q 1907 3437 2016 3427 
Q 2125 3418 2233 3402 
Q 2342 3386 2451 3363 
Q 2560 3341 2637 3309 
L 2477 2522 
z
" transform="scale(0.015625)"/>
       <path id="Ubuntu-Bold-69" d="M 1402 0 
L 448 0 
L 448 3366 
L 1402 3366 
L 1402 0 
z
M 1491 4339 
Q 1491 4077 1321 3926 
Q 1152 3776 922 3776 
Q 691 3776 521 3926 
Q 352 4077 352 4339 
Q 352 4602 521 4752 
Q 691 4902 922 4902 
Q 1152 4902 1321 4752 
Q 1491 4602 1491 4339 
z
" transform="scale(0.015625)"/>
       <path id="Ubuntu-Bold-63" d="M 288 1683 
Q 288 2048 406 2371 
Q 525 2694 749 2934 
Q 973 3174 1293 3315 
Q 1613 3456 2022 3456 
Q 2291 3456 2515 3408 
Q 2739 3360 2950 3270 
L 2752 2509 
Q 2618 2560 2458 2598 
Q 2298 2637 2099 2637 
Q 1677 2637 1469 2374 
Q 1261 2112 1261 1683 
Q 1261 1229 1456 979 
Q 1651 730 2138 730 
Q 2310 730 2508 762 
Q 2707 794 2874 864 
L 3008 83 
Q 2842 13 2592 -38 
Q 2342 -90 2042 -90 
Q 1581 -90 1248 48 
Q 915 186 700 422 
Q 486 659 387 982 
Q 288 1306 288 1683 
z
" transform="scale(0.015625)"/>
       <path id="Ubuntu-Bold-65" d="M 288 1658 
Q 288 2106 425 2442 
Q 563 2778 787 3002 
Q 1011 3226 1302 3341 
Q 1594 3456 1901 3456 
Q 2618 3456 3034 3017 
Q 3450 2579 3450 1728 
Q 3450 1645 3443 1545 
Q 3437 1446 3430 1370 
L 1267 1370 
Q 1299 1075 1542 902 
Q 1786 730 2195 730 
Q 2458 730 2710 778 
Q 2963 826 3123 896 
L 3251 122 
Q 3174 83 3046 44 
Q 2918 6 2761 -22 
Q 2605 -51 2425 -70 
Q 2246 -90 2067 -90 
Q 1613 -90 1277 44 
Q 941 179 720 412 
Q 499 646 393 966 
Q 288 1286 288 1658 
z
M 2528 2022 
Q 2522 2144 2486 2259 
Q 2451 2374 2377 2464 
Q 2304 2554 2192 2611 
Q 2080 2669 1914 2669 
Q 1754 2669 1638 2614 
Q 1523 2560 1446 2470 
Q 1370 2381 1328 2262 
Q 1286 2144 1267 2022 
L 2528 2022 
z
" transform="scale(0.015625)"/>
      </defs>
      <use xlink:href="#Ubuntu-Bold-50"/>
      <use xlink:href="#Ubuntu-Bold-72" x="64.399994"/>
      <use xlink:href="#Ubuntu-Bold-69" x="106.599991"/>
      <use xlink:href="#Ubuntu-Bold-63" x="135.499985"/>
      <use xlink:href="#Ubuntu-Bold-65" x="182.999969"/>
     </g>
    </g>
   </g>
   <g id="matplotlib.axis_2">
    <g id="ytick_1">
     <g id="line2d_6">
      <defs>
       <path id="m5ff9216bc9" d="M 0 0 
L -3 0 
" style="stroke: #aaaaaa; stroke-width: 0.75"/>
      </defs>
      <g>
       <use xlink:href="#m5ff9216bc9" x="46.385938" y="148.90375" style="fill: #aaaaaa; stroke: #aaaaaa; stroke-width: 0.75"/>
      </g>
     </g>
     <g id="text_7">
      <!-- 0 -->
      <g style="fill: #808080" transform="translate(32.873438 152.0075) scale(0.08 -0.08)">
       <use xlink:href="#Ubuntu-30"/>
      </g>
     </g>
    </g>
    <g id="ytick_2">
     <g id="line2d_7">
      <g>
       <use xlink:href="#m5ff9216bc9" x="46.385938" y="121.18375" style="fill: #aaaaaa; stroke: #aaaaaa; stroke-width: 0.75"/>
      </g>
     </g>
     <g id="text_8">
      <!-- 25 -->
      <g style="fill: #808080" transform="translate(28.360938 124.2875) scale(0.08 -0.08)">
       <defs>
        <path id="Ubuntu-35" d="M 1274 2726 
Q 2240 2688 2691 2304 
Q 3142 1920 3142 1261 
Q 3142 966 3043 716 
Q 2944 467 2742 288 
Q 2541 109 2233 6 
Q 1926 -96 1504 -96 
Q 1338 -96 1165 -70 
Q 992 -45 845 -6 
Q 698 32 582 70 
Q 467 109 416 134 
L 531 653 
Q 640 602 886 518 
Q 1133 435 1491 435 
Q 1779 435 1974 499 
Q 2170 563 2291 672 
Q 2413 781 2467 925 
Q 2522 1069 2522 1229 
Q 2522 1472 2438 1661 
Q 2355 1850 2144 1978 
Q 1933 2106 1581 2173 
Q 1229 2240 691 2240 
Q 730 2554 752 2829 
Q 774 3104 793 3366 
Q 813 3629 825 3888 
Q 838 4147 851 4435 
L 2989 4435 
L 2989 3930 
L 1370 3930 
Q 1363 3834 1350 3670 
Q 1338 3507 1325 3331 
Q 1312 3155 1299 2988 
Q 1286 2822 1274 2726 
z
" transform="scale(0.015625)"/>
       </defs>
       <use xlink:href="#Ubuntu-32"/>
       <use xlink:href="#Ubuntu-35" x="56.399994"/>
      </g>
     </g>
    </g>
    <g id="ytick_3">
     <g id="line2d_8">
      <g>
       <use xlink:href="#m5ff9216bc9" x="46.385938" y="93.46375" style="fill: #aaaaaa; stroke: #aaaaaa; stroke-width: 0.75"/>
      </g>
     </g>
     <g id="text_9">
      <!-- 50 -->
      <g style="fill: #808080" transform="translate(28.360938 96.5675) scale(0.08 -0.08)">
       <use xlink:href="#Ubuntu-35"/>
       <use xlink:href="#Ubuntu-30" x="56.399994"/>
      </g>
     </g>
    </g>
    <g id="ytick_4">
     <g id="line2d_9">
      <g>
       <use xlink:href="#m5ff9216bc9" x="46.385938" y="65.74375" style="fill: #aaaaaa; stroke: #aaaaaa; stroke-width: 0.75"/>
      </g>
     </g>
     <g id="text_10">
      <!-- 75 -->
      <g style="fill: #808080" transform="translate(28.360938 68.8475) scale(0.08 -0.08)">
       <defs>
        <path id="Ubuntu-37" d="M 1043 0 
Q 1082 512 1226 1078 
Q 1370 1645 1581 2179 
Q 1792 2714 2045 3171 
Q 2298 3629 2541 3917 
L 384 3917 
L 384 4435 
L 3206 4435 
L 3206 3942 
Q 2995 3699 2739 3273 
Q 2483 2848 2256 2320 
Q 2029 1792 1865 1193 
Q 1702 595 1664 0 
L 1043 0 
z
" transform="scale(0.015625)"/>
       </defs>
       <use xlink:href="#Ubuntu-37"/>
       <use xlink:href="#Ubuntu-35" x="56.399994"/>
      </g>
     </g>
    </g>
    <g id="ytick_5">
     <g id="line2d_10">
      <g>
       <use xlink:href="#m5ff9216bc9" x="46.385938" y="38.02375" style="fill: #aaaaaa; stroke: #aaaaaa; stroke-width: 0.75"/>
      </g>
     </g>
     <g id="text_11">
      <!-- 100 -->
      <g style="fill: #808080" transform="translate(23.848438 41.1275) scale(0.08 -0.08)">
       <defs>
        <path id="Ubuntu-31" d="M 595 3520 
Q 960 3661 1305 3881 
Q 1651 4102 1939 4435 
L 2362 4435 
L 2362 0 
L 1766 0 
L 1766 3610 
Q 1690 3539 1578 3462 
Q 1466 3386 1334 3315 
Q 1203 3245 1059 3181 
Q 915 3117 781 3072 
L 595 3520 
z
" transform="scale(0.015625)"/>
       </defs>
       <use xlink:href="#Ubuntu-31"/>
       <use xlink:href="#Ubuntu-30" x="56.399994"/>
       <use xlink:href="#Ubuntu-30" x="112.799988"/>
      </g>
     </g>
    </g>
    <g id="ytick_6">
     <g id="line2d_11">
      <g>
       <use xlink:href="#m5ff9216bc9" x="46.385938" y="10.30375" style="fill: #aaaaaa; stroke: #aaaaaa; stroke-width: 0.75"/>
      </g>
     </g>
     <g id="text_12">
      <!-- 125 -->
      <g style="fill: #808080" transform="translate(23.848438 13.4075) scale(0.08 -0.08)">
       <use xlink:href="#Ubuntu-31"/>
       <use xlink:href="#Ubuntu-32" x="56.399994"/>
       <use xlink:href="#Ubuntu-35" x="112.799988"/>
      </g>
     </g>
    </g>
    <g id="text_13">
     <!-- Count -->
     <g style="fill: #505050" transform="translate(14.183438 36.085938) rotate(-90) scale(0.09 -0.09)">
      <defs>
       <path id="Ubuntu-Bold-43" d="M 2534 -90 
Q 1453 -90 886 512 
Q 320 1114 320 2221 
Q 320 2771 493 3203 
Q 666 3635 966 3932 
Q 1267 4230 1683 4384 
Q 2099 4538 2586 4538 
Q 2867 4538 3097 4496 
Q 3328 4454 3501 4400 
Q 3674 4346 3789 4288 
Q 3904 4230 3955 4198 
L 3667 3392 
Q 3462 3501 3190 3577 
Q 2918 3654 2573 3654 
Q 2342 3654 2121 3577 
Q 1901 3501 1731 3331 
Q 1562 3162 1459 2893 
Q 1357 2624 1357 2240 
Q 1357 1933 1424 1667 
Q 1491 1402 1641 1210 
Q 1792 1018 2035 906 
Q 2278 794 2624 794 
Q 2842 794 3014 819 
Q 3187 845 3321 880 
Q 3456 915 3558 960 
Q 3661 1005 3744 1043 
L 4019 243 
Q 3808 115 3424 12 
Q 3040 -90 2534 -90 
z
" transform="scale(0.015625)"/>
       <path id="Ubuntu-Bold-6f" d="M 3597 1690 
Q 3597 1293 3481 963 
Q 3366 634 3148 400 
Q 2931 166 2627 38 
Q 2323 -90 1946 -90 
Q 1574 -90 1270 38 
Q 966 166 748 400 
Q 531 634 409 963 
Q 288 1293 288 1690 
Q 288 2086 413 2412 
Q 538 2739 758 2969 
Q 979 3200 1283 3328 
Q 1587 3456 1946 3456 
Q 2310 3456 2614 3328 
Q 2918 3200 3136 2969 
Q 3354 2739 3475 2412 
Q 3597 2086 3597 1690 
z
M 2624 1690 
Q 2624 2131 2448 2384 
Q 2272 2637 1946 2637 
Q 1619 2637 1440 2384 
Q 1261 2131 1261 1690 
Q 1261 1248 1440 989 
Q 1619 730 1946 730 
Q 2272 730 2448 989 
Q 2624 1248 2624 1690 
z
" transform="scale(0.015625)"/>
       <path id="Ubuntu-Bold-75" d="M 3322 115 
Q 3078 45 2694 -16 
Q 2310 -77 1888 -77 
Q 1459 -77 1174 38 
Q 890 154 723 362 
Q 557 570 486 858 
Q 416 1146 416 1491 
L 416 3366 
L 1370 3366 
L 1370 1606 
Q 1370 1146 1491 941 
Q 1613 736 1946 736 
Q 2048 736 2163 745 
Q 2278 755 2368 768 
L 2368 3366 
L 3322 3366 
L 3322 115 
z
" transform="scale(0.015625)"/>
       <path id="Ubuntu-Bold-6e" d="M 448 3251 
Q 691 3322 1075 3382 
Q 1459 3443 1882 3443 
Q 2310 3443 2595 3331 
Q 2880 3219 3046 3014 
Q 3213 2810 3283 2528 
Q 3354 2246 3354 1901 
L 3354 0 
L 2400 0 
L 2400 1786 
Q 2400 2246 2278 2438 
Q 2157 2630 1824 2630 
Q 1722 2630 1606 2620 
Q 1491 2611 1402 2598 
L 1402 0 
L 448 0 
L 448 3251 
z
" transform="scale(0.015625)"/>
       <path id="Ubuntu-Bold-74" d="M 416 4205 
L 1370 4358 
L 1370 3366 
L 2515 3366 
L 2515 2573 
L 1370 2573 
L 1370 1389 
Q 1370 1088 1475 909 
Q 1581 730 1901 730 
Q 2054 730 2217 758 
Q 2381 787 2515 838 
L 2650 96 
Q 2477 26 2265 -25 
Q 2054 -77 1747 -77 
Q 1357 -77 1101 28 
Q 845 134 691 323 
Q 538 512 477 781 
Q 416 1050 416 1376 
L 416 4205 
z
" transform="scale(0.015625)"/>
      </defs>
      <use xlink:href="#Ubuntu-Bold-43"/>
      <use xlink:href="#Ubuntu-Bold-6f" x="63.549988"/>
      <use xlink:href="#Ubuntu-Bold-75" x="124.249985"/>
      <use xlink:href="#Ubuntu-Bold-6e" x="183.149979"/>
      <use xlink:href="#Ubuntu-Bold-74" x="242.049973"/>
     </g>
    </g>
   </g>
   <g id="patch_3">
    <path d="M 70.860138 148.90375 
L 76.520649 148.90375 
L 76.520649 144.46855 
L 70.860138 144.46855 
z
" clip-path="url(#p6790597bbb)" style="fill: #5d5d5d; stroke: #fefefe; stroke-width: 0.57974; stroke-linejoin: miter"/>
   </g>
   <g id="patch_4">
    <path d="M 76.520649 148.90375 
L 82.18116 148.90375 
L 82.18116 144.46855 
L 76.520649 144.46855 
z
" clip-path="url(#p6790597bbb)" style="fill: #5d5d5d; stroke: #fefefe; stroke-width: 0.57974; stroke-linejoin: miter"/>
   </g>
   <g id="patch_5">
    <path d="M 82.18116 148.90375 
L 87.841672 148.90375 
L 87.841672 141.14215 
L 82.18116 141.14215 
z
" clip-path="url(#p6790597bbb)" style="fill: #5d5d5d; stroke: #fefefe; stroke-width: 0.57974; stroke-linejoin: miter"/>
   </g>
   <g id="patch_6">
    <path d="M 87.841672 148.90375 
L 93.502183 148.90375 
L 93.502183 142.25095 
L 87.841672 142.25095 
z
" clip-path="url(#p6790597bbb)" style="fill: #5d5d5d; stroke: #fefefe; stroke-width: 0.57974; stroke-linejoin: miter"/>
   </g>
   <g id="patch_7">
    <path d="M 93.502183 148.90375 
L 99.162695 148.90375 
L 99.162695 111.20455 
L 93.502183 111.20455 
z
" clip-path="url(#p6790597bbb)" style="fill: #5d5d5d; stroke: #fefefe; stroke-width: 0.57974; stroke-linejoin: miter"/>
   </g>
   <g id="patch_8">
    <path d="M 99.162695 148.90375 
L 104.823206 148.90375 
L 104.823206 110.09575 
L 99.162695 110.09575 
z
" clip-path="url(#p6790597bbb)" style="fill: #5d5d5d; stroke: #fefefe; stroke-width: 0.57974; stroke-linejoin: miter"/>
   </g>
   <g id="patch_9">
    <path d="M 104.823206 148.90375 
L 110.483718 148.90375 
L 110.483718 105.66055 
L 104.823206 105.66055 
z
" clip-path="url(#p6790597bbb)" style="fill: #5d5d5d; stroke: #fefefe; stroke-width: 0.57974; stroke-linejoin: miter"/>
   </g>
   <g id="patch_10">
    <path d="M 110.483718 148.90375 
L 116.144229 148.90375 
L 116.144229 67.96135 
L 110.483718 67.96135 
z
" clip-path="url(#p6790597bbb)" style="fill: #5d5d5d; stroke: #fefefe; stroke-width: 0.57974; stroke-linejoin: miter"/>
   </g>
   <g id="patch_11">
    <path d="M 116.144229 148.90375 
L 121.80474 148.90375 
L 121.80474 59.09095 
L 116.144229 59.09095 
z
" clip-path="url(#p6790597bbb)" style="fill: #5d5d5d; stroke: #fefefe; stroke-width: 0.57974; stroke-linejoin: miter"/>
   </g>
   <g id="patch_12">
    <path d="M 121.80474 148.90375 
L 127.465252 148.90375 
L 127.465252 28.04455 
L 121.80474 28.04455 
z
" clip-path="url(#p6790597bbb)" style="fill: #5d5d5d; stroke: #fefefe; stroke-width: 0.57974; stroke-linejoin: miter"/>
   </g>
   <g id="patch_13">
    <path d="M 127.465252 148.90375 
L 133.125763 148.90375 
L 133.125763 18.06535 
L 127.465252 18.06535 
z
" clip-path="url(#p6790597bbb)" style="fill: #5d5d5d; stroke: #fefefe; stroke-width: 0.57974; stroke-linejoin: miter"/>
   </g>
   <g id="patch_14">
    <path d="M 133.125763 148.90375 
L 138.786275 148.90375 
L 138.786275 55.76455 
L 133.125763 55.76455 
z
" clip-path="url(#p6790597bbb)" style="fill: #5d5d5d; stroke: #fefefe; stroke-width: 0.57974; stroke-linejoin: miter"/>
   </g>
   <g id="patch_15">
    <path d="M 138.786275 148.90375 
L 144.446786 148.90375 
L 144.446786 56.87335 
L 138.786275 56.87335 
z
" clip-path="url(#p6790597bbb)" style="fill: #5d5d5d; stroke: #fefefe; stroke-width: 0.57974; stroke-linejoin: miter"/>
   </g>
   <g id="patch_16">
    <path d="M 144.446786 148.90375 
L 150.107298 148.90375 
L 150.107298 53.54695 
L 144.446786 53.54695 
z
" clip-path="url(#p6790597bbb)" style="fill: #5d5d5d; stroke: #fefefe; stroke-width: 0.57974; stroke-linejoin: miter"/>
   </g>
   <g id="patch_17">
    <path d="M 150.107298 148.90375 
L 155.767809 148.90375 
L 155.767809 55.76455 
L 150.107298 55.76455 
z
" clip-path="url(#p6790597bbb)" style="fill: #5d5d5d; stroke: #fefefe; stroke-width: 0.57974; stroke-linejoin: miter"/>
   </g>
   <g id="patch_18">
    <path d="M 155.767809 148.90375 
L 161.42832 148.90375 
L 161.42832 73.50535 
L 155.767809 73.50535 
z
" clip-path="url(#p6790597bbb)" style="fill: #5d5d5d; stroke: #fefefe; stroke-width: 0.57974; stroke-linejoin: miter"/>
   </g>
   <g id="patch_19">
    <path d="M 161.42832 148.90375 
L 167.088832 148.90375 
L 167.088832 101.22535 
L 161.42832 101.22535 
z
" clip-path="url(#p6790597bbb)" style="fill: #5d5d5d; stroke: #fefefe; stroke-width: 0.57974; stroke-linejoin: miter"/>
   </g>
   <g id="patch_20">
    <path d="M 167.088832 148.90375 
L 172.749343 148.90375 
L 172.749343 100.11655 
L 167.088832 100.11655 
z
" clip-path="url(#p6790597bbb)" style="fill: #5d5d5d; stroke: #fefefe; stroke-width: 0.57974; stroke-linejoin: miter"/>
   </g>
   <g id="patch_21">
    <path d="M 172.749343 148.90375 
L 178.409855 148.90375 
L 178.409855 107.87815 
L 172.749343 107.87815 
z
" clip-path="url(#p6790597bbb)" style="fill: #5d5d5d; stroke: #fefefe; stroke-width: 0.57974; stroke-linejoin: miter"/>
   </g>
   <g id="patch_22">
    <path d="M 178.409855 148.90375 
L 184.070366 148.90375 
L 184.070366 102.33415 
L 178.409855 102.33415 
z
" clip-path="url(#p6790597bbb)" style="fill: #5d5d5d; stroke: #fefefe; stroke-width: 0.57974; stroke-linejoin: miter"/>
   </g>
   <g id="patch_23">
    <path d="M 184.070366 148.90375 
L 189.730878 148.90375 
L 189.730878 115.63975 
L 184.070366 115.63975 
z
" clip-path="url(#p6790597bbb)" style="fill: #5d5d5d; stroke: #fefefe; stroke-width: 0.57974; stroke-linejoin: miter"/>
   </g>
   <g id="patch_24">
    <path d="M 189.730878 148.90375 
L 195.391389 148.90375 
L 195.391389 116.74855 
L 189.730878 116.74855 
z
" clip-path="url(#p6790597bbb)" style="fill: #5d5d5d; stroke: #fefefe; stroke-width: 0.57974; stroke-linejoin: miter"/>
   </g>
   <g id="patch_25">
    <path d="M 195.391389 148.90375 
L 201.0519 148.90375 
L 201.0519 123.40135 
L 195.391389 123.40135 
z
" clip-path="url(#p6790597bbb)" style="fill: #5d5d5d; stroke: #fefefe; stroke-width: 0.57974; stroke-linejoin: miter"/>
   </g>
   <g id="patch_26">
    <path d="M 201.0519 148.90375 
L 206.712412 148.90375 
L 206.712412 120.07495 
L 201.0519 120.07495 
z
" clip-path="url(#p6790597bbb)" style="fill: #5d5d5d; stroke: #fefefe; stroke-width: 0.57974; stroke-linejoin: miter"/>
   </g>
   <g id="patch_27">
    <path d="M 206.712412 148.90375 
L 212.372923 148.90375 
L 212.372923 133.38055 
L 206.712412 133.38055 
z
" clip-path="url(#p6790597bbb)" style="fill: #5d5d5d; stroke: #fefefe; stroke-width: 0.57974; stroke-linejoin: miter"/>
   </g>
   <g id="patch_28">
    <path d="M 212.372923 148.90375 
L 218.033435 148.90375 
L 218.033435 136.70695 
L 212.372923 136.70695 
z
" clip-path="url(#p6790597bbb)" style="fill: #5d5d5d; stroke: #fefefe; stroke-width: 0.57974; stroke-linejoin: miter"/>
   </g>
   <g id="patch_29">
    <path d="M 218.033435 148.90375 
L 223.693946 148.90375 
L 223.693946 140.03335 
L 218.033435 140.03335 
z
" clip-path="url(#p6790597bbb)" style="fill: #5d5d5d; stroke: #fefefe; stroke-width: 0.57974; stroke-linejoin: miter"/>
   </g>
   <g id="patch_30">
    <path d="M 223.693946 148.90375 
L 229.354458 148.90375 
L 229.354458 132.27175 
L 223.693946 132.27175 
z
" clip-path="url(#p6790597bbb)" style="fill: #5d5d5d; stroke: #fefefe; stroke-width: 0.57974; stroke-linejoin: miter"/>
   </g>
   <g id="patch_31">
    <path d="M 229.354458 148.90375 
L 235.014969 148.90375 
L 235.014969 132.27175 
L 229.354458 132.27175 
z
" clip-path="url(#p6790597bbb)" style="fill: #5d5d5d; stroke: #fefefe; stroke-width: 0.57974; stroke-linejoin: miter"/>
   </g>
   <g id="patch_32">
    <path d="M 235.014969 148.90375 
L 240.67548 148.90375 
L 240.67548 142.25095 
L 235.014969 142.25095 
z
" clip-path="url(#p6790597bbb)" style="fill: #5d5d5d; stroke: #fefefe; stroke-width: 0.57974; stroke-linejoin: miter"/>
   </g>
   <g id="patch_33">
    <path d="M 240.67548 148.90375 
L 246.335992 148.90375 
L 246.335992 142.25095 
L 240.67548 142.25095 
z
" clip-path="url(#p6790597bbb)" style="fill: #5d5d5d; stroke: #fefefe; stroke-width: 0.57974; stroke-linejoin: miter"/>
   </g>
   <g id="patch_34">
    <path d="M 246.335992 148.90375 
L 251.996503 148.90375 
L 251.996503 144.46855 
L 246.335992 144.46855 
z
" clip-path="url(#p6790597bbb)" style="fill: #5d5d5d; stroke: #fefefe; stroke-width: 0.57974; stroke-linejoin: miter"/>
   </g>
   <g id="patch_35">
    <path d="M 251.996503 148.90375 
L 257.657015 148.90375 
L 257.657015 146.68615 
L 251.996503 146.68615 
z
" clip-path="url(#p6790597bbb)" style="fill: #5d5d5d; stroke: #fefefe; stroke-width: 0.57974; stroke-linejoin: miter"/>
   </g>
   <g id="patch_36">
    <path d="M 257.657015 148.90375 
L 263.317526 148.90375 
L 263.317526 140.03335 
L 257.657015 140.03335 
z
" clip-path="url(#p6790597bbb)" style="fill: #5d5d5d; stroke: #fefefe; stroke-width: 0.57974; stroke-linejoin: miter"/>
   </g>
   <g id="patch_37">
    <path d="M 263.317526 148.90375 
L 268.978038 148.90375 
L 268.978038 142.25095 
L 263.317526 142.25095 
z
" clip-path="url(#p6790597bbb)" style="fill: #5d5d5d; stroke: #fefefe; stroke-width: 0.57974; stroke-linejoin: miter"/>
   </g>
   <g id="patch_38">
    <path d="M 268.978038 148.90375 
L 274.638549 148.90375 
L 274.638549 142.25095 
L 268.978038 142.25095 
z
" clip-path="url(#p6790597bbb)" style="fill: #5d5d5d; stroke: #fefefe; stroke-width: 0.57974; stroke-linejoin: miter"/>
   </g>
   <g id="patch_39">
    <path d="M 274.638549 148.90375 
L 280.29906 148.90375 
L 280.29906 145.57735 
L 274.638549 145.57735 
z
" clip-path="url(#p6790597bbb)" style="fill: #5d5d5d; stroke: #fefefe; stroke-width: 0.57974; stroke-linejoin: miter"/>
   </g>
   <g id="patch_40">
    <path d="M 280.29906 148.90375 
L 285.959572 148.90375 
L 285.959572 146.68615 
L 280.29906 146.68615 
z
" clip-path="url(#p6790597bbb)" style="fill: #5d5d5d; stroke: #fefefe; stroke-width: 0.57974; stroke-linejoin: miter"/>
   </g>
   <g id="patch_41">
    <path d="M 285.959572 148.90375 
L 291.620083 148.90375 
L 291.620083 144.46855 
L 285.959572 144.46855 
z
" clip-path="url(#p6790597bbb)" style="fill: #5d5d5d; stroke: #fefefe; stroke-width: 0.57974; stroke-linejoin: miter"/>
   </g>
   <g id="patch_42">
    <path d="M 291.620083 148.90375 
L 297.280595 148.90375 
L 297.280595 145.57735 
L 291.620083 145.57735 
z
" clip-path="url(#p6790597bbb)" style="fill: #5d5d5d; stroke: #fefefe; stroke-width: 0.57974; stroke-linejoin: miter"/>
   </g>
   <g id="patch_43">
    <path d="M 297.280595 148.90375 
L 302.941106 148.90375 
L 302.941106 147.79495 
L 297.280595 147.79495 
z
" clip-path="url(#p6790597bbb)" style="fill: #5d5d5d; stroke: #fefefe; stroke-width: 0.57974; stroke-linejoin: miter"/>
   </g>
   <g id="patch_44">
    <path d="M 302.941106 148.90375 
L 308.601618 148.90375 
L 308.601618 148.90375 
L 302.941106 148.90375 
z
" clip-path="url(#p6790597bbb)" style="fill: #5d5d5d; stroke: #fefefe; stroke-width: 0.57974; stroke-linejoin: miter"/>
   </g>
   <g id="patch_45">
    <path d="M 308.601618 148.90375 
L 314.262129 148.90375 
L 314.262129 146.68615 
L 308.601618 146.68615 
z
" clip-path="url(#p6790597bbb)" style="fill: #5d5d5d; stroke: #fefefe; stroke-width: 0.57974; stroke-linejoin: miter"/>
   </g>
   <g id="patch_46">
    <path d="M 314.262129 148.90375 
L 319.92264 148.90375 
L 319.92264 147.79495 
L 314.262129 147.79495 
z
" clip-path="url(#p6790597bbb)" style="fill: #5d5d5d; stroke: #fefefe; stroke-width: 0.57974; stroke-linejoin: miter"/>
   </g>
   <g id="patch_47">
    <path d="M 319.92264 148.90375 
L 325.583152 148.90375 
L 325.583152 147.79495 
L 319.92264 147.79495 
z
" clip-path="url(#p6790597bbb)" style="fill: #5d5d5d; stroke: #fefefe; stroke-width: 0.57974; stroke-linejoin: miter"/>
   </g>
   <g id="patch_48">
    <path d="M 325.583152 148.90375 
L 331.243663 148.90375 
L 331.243663 148.90375 
L 325.583152 148.90375 
z
" clip-path="url(#p6790597bbb)" style="fill: #5d5d5d; stroke: #fefefe; stroke-width: 0.57974; stroke-linejoin: miter"/>
   </g>
   <g id="patch_49">
    <path d="M 331.243663 148.90375 
L 336.904175 148.90375 
L 336.904175 147.79495 
L 331.243663 147.79495 
z
" clip-path="url(#p6790597bbb)" style="fill: #5d5d5d; stroke: #fefefe; stroke-width: 0.57974; stroke-linejoin: miter"/>
   </g>
   <g id="patch_50">
    <path d="M 336.904175 148.90375 
L 342.564686 148.90375 
L 342.564686 148.90375 
L 336.904175 148.90375 
z
" clip-path="url(#p6790597bbb)" style="fill: #5d5d5d; stroke: #fefefe; stroke-width: 0.57974; stroke-linejoin: miter"/>
   </g>
   <g id="patch_51">
    <path d="M 342.564686 148.90375 
L 348.225197 148.90375 
L 348.225197 148.90375 
L 342.564686 148.90375 
z
" clip-path="url(#p6790597bbb)" style="fill: #5d5d5d; stroke: #fefefe; stroke-width: 0.57974; stroke-linejoin: miter"/>
   </g>
   <g id="patch_52">
    <path d="M 348.225198 148.90375 
L 353.885709 148.90375 
L 353.885709 147.79495 
L 348.225198 147.79495 
z
" clip-path="url(#p6790597bbb)" style="fill: #5d5d5d; stroke: #fefefe; stroke-width: 0.57974; stroke-linejoin: miter"/>
   </g>
   <g id="patch_53">
    <path d="M 353.885709 148.90375 
L 359.54622 148.90375 
L 359.54622 148.90375 
L 353.885709 148.90375 
z
" clip-path="url(#p6790597bbb)" style="fill: #5d5d5d; stroke: #fefefe; stroke-width: 0.57974; stroke-linejoin: miter"/>
   </g>
   <g id="patch_54">
    <path d="M 359.54622 148.90375 
L 365.206732 148.90375 
L 365.206732 146.68615 
L 359.54622 146.68615 
z
" clip-path="url(#p6790597bbb)" style="fill: #5d5d5d; stroke: #fefefe; stroke-width: 0.57974; stroke-linejoin: miter"/>
   </g>
   <g id="patch_55">
    <path d="M 365.206732 148.90375 
L 370.867243 148.90375 
L 370.867243 148.90375 
L 365.206732 148.90375 
z
" clip-path="url(#p6790597bbb)" style="fill: #5d5d5d; stroke: #fefefe; stroke-width: 0.57974; stroke-linejoin: miter"/>
   </g>
   <g id="patch_56">
    <path d="M 370.867243 148.90375 
L 376.527755 148.90375 
L 376.527755 148.90375 
L 370.867243 148.90375 
z
" clip-path="url(#p6790597bbb)" style="fill: #5d5d5d; stroke: #fefefe; stroke-width: 0.57974; stroke-linejoin: miter"/>
   </g>
   <g id="patch_57">
    <path d="M 376.527755 148.90375 
L 382.188266 148.90375 
L 382.188266 147.79495 
L 376.527755 147.79495 
z
" clip-path="url(#p6790597bbb)" style="fill: #5d5d5d; stroke: #fefefe; stroke-width: 0.57974; stroke-linejoin: miter"/>
   </g>
   <g id="patch_58">
    <path d="M 382.188266 148.90375 
L 387.848777 148.90375 
L 387.848777 148.90375 
L 382.188266 148.90375 
z
" clip-path="url(#p6790597bbb)" style="fill: #5d5d5d; stroke: #fefefe; stroke-width: 0.57974; stroke-linejoin: miter"/>
   </g>
   <g id="patch_59">
    <path d="M 387.848778 148.90375 
L 393.509289 148.90375 
L 393.509289 148.90375 
L 387.848778 148.90375 
z
" clip-path="url(#p6790597bbb)" style="fill: #5d5d5d; stroke: #fefefe; stroke-width: 0.57974; stroke-linejoin: miter"/>
   </g>
   <g id="patch_60">
    <path d="M 393.509289 148.90375 
L 399.1698 148.90375 
L 399.1698 148.90375 
L 393.509289 148.90375 
z
" clip-path="url(#p6790597bbb)" style="fill: #5d5d5d; stroke: #fefefe; stroke-width: 0.57974; stroke-linejoin: miter"/>
   </g>
   <g id="patch_61">
    <path d="M 399.1698 148.90375 
L 404.830312 148.90375 
L 404.830312 147.79495 
L 399.1698 147.79495 
z
" clip-path="url(#p6790597bbb)" style="fill: #5d5d5d; stroke: #fefefe; stroke-width: 0.57974; stroke-linejoin: miter"/>
   </g>
   <g id="patch_62">
    <path d="M 404.830312 148.90375 
L 410.490823 148.90375 
L 410.490823 148.90375 
L 404.830312 148.90375 
z
" clip-path="url(#p6790597bbb)" style="fill: #5d5d5d; stroke: #fefefe; stroke-width: 0.57974; stroke-linejoin: miter"/>
   </g>
   <g id="patch_63">
    <path d="M 410.490823 148.90375 
L 416.151335 148.90375 
L 416.151335 148.90375 
L 410.490823 148.90375 
z
" clip-path="url(#p6790597bbb)" style="fill: #5d5d5d; stroke: #fefefe; stroke-width: 0.57974; stroke-linejoin: miter"/>
   </g>
   <g id="patch_64">
    <path d="M 416.151335 148.90375 
L 421.811846 148.90375 
L 421.811846 148.90375 
L 416.151335 148.90375 
z
" clip-path="url(#p6790597bbb)" style="fill: #5d5d5d; stroke: #fefefe; stroke-width: 0.57974; stroke-linejoin: miter"/>
   </g>
   <g id="patch_65">
    <path d="M 421.811846 148.90375 
L 427.472357 148.90375 
L 427.472357 148.90375 
L 421.811846 148.90375 
z
" clip-path="url(#p6790597bbb)" style="fill: #5d5d5d; stroke: #fefefe; stroke-width: 0.57974; stroke-linejoin: miter"/>
   </g>
   <g id="patch_66">
    <path d="M 427.472358 148.90375 
L 433.132869 148.90375 
L 433.132869 148.90375 
L 427.472358 148.90375 
z
" clip-path="url(#p6790597bbb)" style="fill: #5d5d5d; stroke: #fefefe; stroke-width: 0.57974; stroke-linejoin: miter"/>
   </g>
   <g id="patch_67">
    <path d="M 433.132869 148.90375 
L 438.79338 148.90375 
L 438.79338 148.90375 
L 433.132869 148.90375 
z
" clip-path="url(#p6790597bbb)" style="fill: #5d5d5d; stroke: #fefefe; stroke-width: 0.57974; stroke-linejoin: miter"/>
   </g>
   <g id="patch_68">
    <path d="M 438.79338 148.90375 
L 444.453892 148.90375 
L 444.453892 148.90375 
L 438.79338 148.90375 
z
" clip-path="url(#p6790597bbb)" style="fill: #5d5d5d; stroke: #fefefe; stroke-width: 0.57974; stroke-linejoin: miter"/>
   </g>
   <g id="patch_69">
    <path d="M 444.453892 148.90375 
L 450.114403 148.90375 
L 450.114403 148.90375 
L 444.453892 148.90375 
z
" clip-path="url(#p6790597bbb)" style="fill: #5d5d5d; stroke: #fefefe; stroke-width: 0.57974; stroke-linejoin: miter"/>
   </g>
   <g id="patch_70">
    <path d="M 450.114403 148.90375 
L 455.774915 148.90375 
L 455.774915 148.90375 
L 450.114403 148.90375 
z
" clip-path="url(#p6790597bbb)" style="fill: #5d5d5d; stroke: #fefefe; stroke-width: 0.57974; stroke-linejoin: miter"/>
   </g>
   <g id="patch_71">
    <path d="M 455.774915 148.90375 
L 461.435426 148.90375 
L 461.435426 148.90375 
L 455.774915 148.90375 
z
" clip-path="url(#p6790597bbb)" style="fill: #5d5d5d; stroke: #fefefe; stroke-width: 0.57974; stroke-linejoin: miter"/>
   </g>
   <g id="patch_72">
    <path d="M 461.435426 148.90375 
L 467.095937 148.90375 
L 467.095937 147.79495 
L 461.435426 147.79495 
z
" clip-path="url(#p6790597bbb)" style="fill: #5d5d5d; stroke: #fefefe; stroke-width: 0.57974; stroke-linejoin: miter"/>
   </g>
   <g id="patch_73">
    <path d="M 46.385938 148.90375 
L 46.385938 10.30375 
" style="fill: none; stroke: #aaaaaa; stroke-width: 0.75; stroke-linejoin: miter; stroke-linecap: square"/>
   </g>
   <g id="patch_74">
    <path d="M 51.385938 158.90375 
L 497.785938 158.90375 
" style="fill: none; stroke: #aaaaaa; stroke-width: 0.75; stroke-linejoin: miter; stroke-linecap: square"/>
   </g>
  </g>
 </g>
 <defs>
  <clipPath id="p6790597bbb">
   <rect x="51.385938" y="10.30375" width="446.4" height="138.6"/>
  </clipPath>
 </defs>
</svg>
