<?xml version="1.0" encoding="utf-8" standalone="no"?>
<!DOCTYPE svg PUBLIC "-//W3C//DTD SVG 1.1//EN"
  "http://www.w3.org/Graphics/SVG/1.1/DTD/svg11.dtd">
<svg xmlns:xlink="http://www.w3.org/1999/xlink" width="522.503437pt" height="191.939688pt" viewBox="0 0 522.503437 191.939688" xmlns="http://www.w3.org/2000/svg" version="1.1">
 <metadata>
  <rdf:RDF xmlns:dc="http://purl.org/dc/elements/1.1/" xmlns:cc="http://creativecommons.org/ns#" xmlns:rdf="http://www.w3.org/1999/02/22-rdf-syntax-ns#">
   <cc:Work>
    <dc:type rdf:resource="http://purl.org/dc/dcmitype/StillImage"/>
    <dc:date>2024-02-20T09:34:30.173488</dc:date>
    <dc:format>image/svg+xml</dc:format>
    <dc:creator>
     <cc:Agent>
      <dc:title>Matplotlib v3.8.0, https://matplotlib.org/</dc:title>
     </cc:Agent>
    </dc:creator>
   </cc:Work>
  </rdf:RDF>
 </metadata>
 <defs>
  <style type="text/css">*{stroke-linejoin: round; stroke-linecap: butt}</style>
 </defs>
 <g id="figure_1">
  <g id="patch_1">
   <path d="M 0 191.939688 
L 522.503437 191.939688 
L 522.503437 0 
L 0 0 
L 0 191.939688 
z
" style="fill: none"/>
  </g>
  <g id="axes_1">
   <g id="patch_2">
    <path d="M 55.365938 148.90375 
L 501.765937 148.90375 
L 501.765937 10.30375 
L 55.365938 10.30375 
L 55.365938 148.90375 
z
" style="fill: none"/>
   </g>
   <g id="matplotlib.axis_1">
    <g id="xtick_1">
     <g id="line2d_1">
      <defs>
       <path id="m4746b6c25a" d="M 0 0 
L 0 3 
" style="stroke: #bbbbbb; stroke-width: 0.75"/>
      </defs>
      <g>
       <use xlink:href="#m4746b6c25a" x="59.53945" y="153.90375" style="fill: #bbbbbb; stroke: #bbbbbb; stroke-width: 0.75"/>
      </g>
     </g>
     <g id="text_1">
      <!-- 0 -->
      <g style="fill: #9f9f9f" transform="translate(57.2832 166.61125) scale(0.08 -0.08)">
       <defs>
        <path id="Ubuntu-30" d="M 320 2221 
Q 320 3334 713 3936 
Q 1107 4538 1805 4538 
Q 2502 4538 2896 3936 
Q 3290 3334 3290 2221 
Q 3290 1107 2896 505 
Q 2502 -96 1805 -96 
Q 1107 -96 713 505 
Q 320 1107 320 2221 
z
M 2662 2221 
Q 2662 2586 2620 2912 
Q 2579 3238 2480 3481 
Q 2381 3725 2214 3869 
Q 2048 4013 1805 4013 
Q 1562 4013 1395 3869 
Q 1229 3725 1129 3481 
Q 1030 3238 988 2912 
Q 947 2586 947 2221 
Q 947 1856 988 1529 
Q 1030 1203 1129 960 
Q 1229 717 1395 573 
Q 1562 429 1805 429 
Q 2048 429 2214 573 
Q 2381 717 2480 960 
Q 2579 1203 2620 1529 
Q 2662 1856 2662 2221 
z
" transform="scale(0.015625)"/>
       </defs>
       <use xlink:href="#Ubuntu-30"/>
      </g>
     </g>
    </g>
    <g id="xtick_2">
     <g id="line2d_2">
      <g>
       <use xlink:href="#m4746b6c25a" x="114.817761" y="153.90375" style="fill: #bbbbbb; stroke: #bbbbbb; stroke-width: 0.75"/>
      </g>
     </g>
     <g id="text_2">
      <!-- 100000 -->
      <g style="fill: #9f9f9f" transform="translate(101.280261 166.61125) scale(0.08 -0.08)">
       <defs>
        <path id="Ubuntu-31" d="M 595 3520 
Q 960 3661 1305 3881 
Q 1651 4102 1939 4435 
L 2362 4435 
L 2362 0 
L 1766 0 
L 1766 3610 
Q 1690 3539 1578 3462 
Q 1466 3386 1334 3315 
Q 1203 3245 1059 3181 
Q 915 3117 781 3072 
L 595 3520 
z
" transform="scale(0.015625)"/>
       </defs>
       <use xlink:href="#Ubuntu-31"/>
       <use xlink:href="#Ubuntu-30" x="56.399994"/>
       <use xlink:href="#Ubuntu-30" x="112.799988"/>
       <use xlink:href="#Ubuntu-30" x="169.199982"/>
       <use xlink:href="#Ubuntu-30" x="225.599976"/>
       <use xlink:href="#Ubuntu-30" x="281.999969"/>
      </g>
     </g>
    </g>
    <g id="xtick_3">
     <g id="line2d_3">
      <g>
       <use xlink:href="#m4746b6c25a" x="170.096072" y="153.90375" style="fill: #bbbbbb; stroke: #bbbbbb; stroke-width: 0.75"/>
      </g>
     </g>
     <g id="text_3">
      <!-- 200000 -->
      <g style="fill: #9f9f9f" transform="translate(156.558572 166.61125) scale(0.08 -0.08)">
       <defs>
        <path id="Ubuntu-32" d="M 2989 3302 
Q 2989 3072 2896 2857 
Q 2803 2643 2649 2435 
Q 2496 2227 2304 2025 
Q 2112 1824 1920 1632 
Q 1811 1523 1667 1376 
Q 1523 1229 1395 1069 
Q 1267 909 1180 761 
Q 1094 614 1094 506 
L 3136 506 
L 3136 0 
L 448 0 
Q 442 38 442 76 
Q 442 115 442 147 
Q 442 448 541 707 
Q 640 966 800 1196 
Q 960 1427 1158 1632 
Q 1357 1837 1549 2029 
Q 1709 2182 1853 2332 
Q 1997 2483 2109 2633 
Q 2221 2784 2288 2944 
Q 2355 3104 2355 3283 
Q 2355 3475 2294 3609 
Q 2234 3744 2131 3833 
Q 2029 3923 1891 3964 
Q 1754 4006 1600 4006 
Q 1414 4006 1260 3955 
Q 1107 3904 985 3837 
Q 864 3770 781 3696 
Q 698 3622 653 3584 
L 358 4006 
Q 416 4070 531 4163 
Q 646 4256 806 4339 
Q 966 4422 1164 4480 
Q 1363 4538 1594 4538 
Q 2291 4538 2640 4214 
Q 2989 3891 2989 3302 
z
" transform="scale(0.015625)"/>
       </defs>
       <use xlink:href="#Ubuntu-32"/>
       <use xlink:href="#Ubuntu-30" x="56.399994"/>
       <use xlink:href="#Ubuntu-30" x="112.799988"/>
       <use xlink:href="#Ubuntu-30" x="169.199982"/>
       <use xlink:href="#Ubuntu-30" x="225.599976"/>
       <use xlink:href="#Ubuntu-30" x="281.999969"/>
      </g>
     </g>
    </g>
    <g id="xtick_4">
     <g id="line2d_4">
      <g>
       <use xlink:href="#m4746b6c25a" x="225.374383" y="153.90375" style="fill: #bbbbbb; stroke: #bbbbbb; stroke-width: 0.75"/>
      </g>
     </g>
     <g id="text_4">
      <!-- 300000 -->
      <g style="fill: #9f9f9f" transform="translate(211.836883 166.61125) scale(0.08 -0.08)">
       <defs>
        <path id="Ubuntu-33" d="M 1446 435 
Q 2016 435 2262 659 
Q 2509 883 2509 1261 
Q 2509 1504 2406 1670 
Q 2304 1837 2137 1936 
Q 1971 2035 1750 2076 
Q 1530 2118 1299 2118 
L 1146 2118 
L 1146 2605 
L 1357 2605 
Q 1517 2605 1686 2637 
Q 1856 2669 1997 2752 
Q 2138 2835 2227 2979 
Q 2317 3123 2317 3341 
Q 2317 3520 2253 3648 
Q 2189 3776 2083 3859 
Q 1978 3942 1840 3977 
Q 1702 4013 1549 4013 
Q 1242 4013 1027 3923 
Q 813 3834 666 3738 
L 435 4192 
Q 512 4243 630 4304 
Q 749 4365 896 4416 
Q 1043 4467 1212 4502 
Q 1382 4538 1568 4538 
Q 1920 4538 2176 4451 
Q 2432 4365 2598 4208 
Q 2765 4051 2848 3836 
Q 2931 3622 2931 3373 
Q 2931 3027 2732 2780 
Q 2534 2534 2253 2406 
Q 2426 2355 2586 2259 
Q 2746 2163 2864 2016 
Q 2982 1869 3056 1677 
Q 3130 1485 3130 1248 
Q 3130 960 3030 713 
Q 2931 467 2723 288 
Q 2515 109 2201 6 
Q 1888 -96 1459 -96 
Q 1293 -96 1117 -70 
Q 941 -45 787 -6 
Q 634 32 518 70 
Q 403 109 352 134 
L 467 653 
Q 576 602 829 518 
Q 1082 435 1446 435 
z
" transform="scale(0.015625)"/>
       </defs>
       <use xlink:href="#Ubuntu-33"/>
       <use xlink:href="#Ubuntu-30" x="56.399994"/>
       <use xlink:href="#Ubuntu-30" x="112.799988"/>
       <use xlink:href="#Ubuntu-30" x="169.199982"/>
       <use xlink:href="#Ubuntu-30" x="225.599976"/>
       <use xlink:href="#Ubuntu-30" x="281.999969"/>
      </g>
     </g>
    </g>
    <g id="xtick_5">
     <g id="line2d_5">
      <g>
       <use xlink:href="#m4746b6c25a" x="280.652694" y="153.90375" style="fill: #bbbbbb; stroke: #bbbbbb; stroke-width: 0.75"/>
      </g>
     </g>
     <g id="text_5">
      <!-- 400000 -->
      <g style="fill: #9f9f9f" transform="translate(267.115194 166.61125) scale(0.08 -0.08)">
       <defs>
        <path id="Ubuntu-34" d="M 256 1536 
Q 378 1818 589 2192 
Q 800 2566 1065 2963 
Q 1331 3360 1635 3744 
Q 1939 4128 2246 4435 
L 2816 4435 
L 2816 1619 
L 3341 1619 
L 3341 1133 
L 2816 1133 
L 2816 0 
L 2240 0 
L 2240 1133 
L 256 1133 
L 256 1536 
z
M 2240 3731 
Q 2048 3526 1853 3273 
Q 1658 3021 1472 2745 
Q 1286 2470 1123 2182 
Q 960 1894 832 1619 
L 2240 1619 
L 2240 3731 
z
" transform="scale(0.015625)"/>
       </defs>
       <use xlink:href="#Ubuntu-34"/>
       <use xlink:href="#Ubuntu-30" x="56.399994"/>
       <use xlink:href="#Ubuntu-30" x="112.799988"/>
       <use xlink:href="#Ubuntu-30" x="169.199982"/>
       <use xlink:href="#Ubuntu-30" x="225.599976"/>
       <use xlink:href="#Ubuntu-30" x="281.999969"/>
      </g>
     </g>
    </g>
    <g id="xtick_6">
     <g id="line2d_6">
      <g>
       <use xlink:href="#m4746b6c25a" x="335.931005" y="153.90375" style="fill: #bbbbbb; stroke: #bbbbbb; stroke-width: 0.75"/>
      </g>
     </g>
     <g id="text_6">
      <!-- 500000 -->
      <g style="fill: #9f9f9f" transform="translate(322.393505 166.61125) scale(0.08 -0.08)">
       <defs>
        <path id="Ubuntu-35" d="M 1274 2726 
Q 2240 2688 2691 2304 
Q 3142 1920 3142 1261 
Q 3142 966 3043 716 
Q 2944 467 2742 288 
Q 2541 109 2233 6 
Q 1926 -96 1504 -96 
Q 1338 -96 1165 -70 
Q 992 -45 845 -6 
Q 698 32 582 70 
Q 467 109 416 134 
L 531 653 
Q 640 602 886 518 
Q 1133 435 1491 435 
Q 1779 435 1974 499 
Q 2170 563 2291 672 
Q 2413 781 2467 925 
Q 2522 1069 2522 1229 
Q 2522 1472 2438 1661 
Q 2355 1850 2144 1978 
Q 1933 2106 1581 2173 
Q 1229 2240 691 2240 
Q 730 2554 752 2829 
Q 774 3104 793 3366 
Q 813 3629 825 3888 
Q 838 4147 851 4435 
L 2989 4435 
L 2989 3930 
L 1370 3930 
Q 1363 3834 1350 3670 
Q 1338 3507 1325 3331 
Q 1312 3155 1299 2988 
Q 1286 2822 1274 2726 
z
" transform="scale(0.015625)"/>
       </defs>
       <use xlink:href="#Ubuntu-35"/>
       <use xlink:href="#Ubuntu-30" x="56.399994"/>
       <use xlink:href="#Ubuntu-30" x="112.799988"/>
       <use xlink:href="#Ubuntu-30" x="169.199982"/>
       <use xlink:href="#Ubuntu-30" x="225.599976"/>
       <use xlink:href="#Ubuntu-30" x="281.999969"/>
      </g>
     </g>
    </g>
    <g id="xtick_7">
     <g id="line2d_7">
      <g>
       <use xlink:href="#m4746b6c25a" x="391.209316" y="153.90375" style="fill: #bbbbbb; stroke: #bbbbbb; stroke-width: 0.75"/>
      </g>
     </g>
     <g id="text_7">
      <!-- 600000 -->
      <g style="fill: #9f9f9f" transform="translate(377.671816 166.61125) scale(0.08 -0.08)">
       <defs>
        <path id="Ubuntu-36" d="M 403 1779 
Q 403 2426 582 2922 
Q 762 3418 1091 3757 
Q 1421 4096 1891 4272 
Q 2362 4448 2950 4454 
L 2995 3955 
Q 2618 3949 2307 3872 
Q 1997 3795 1753 3628 
Q 1510 3462 1344 3196 
Q 1178 2931 1094 2541 
Q 1261 2618 1469 2669 
Q 1677 2720 1901 2720 
Q 2278 2720 2540 2605 
Q 2803 2490 2969 2301 
Q 3136 2112 3209 1865 
Q 3283 1619 3283 1350 
Q 3283 1107 3200 851 
Q 3117 595 2947 384 
Q 2778 173 2515 38 
Q 2253 -96 1894 -96 
Q 1165 -96 784 403 
Q 403 902 403 1779 
z
M 1837 2234 
Q 1613 2234 1421 2192 
Q 1229 2150 1037 2067 
Q 1030 1997 1027 1923 
Q 1024 1850 1024 1779 
Q 1024 1498 1062 1248 
Q 1101 998 1200 809 
Q 1299 621 1465 509 
Q 1632 397 1888 397 
Q 2099 397 2246 486 
Q 2394 576 2490 717 
Q 2586 858 2627 1021 
Q 2669 1184 2669 1338 
Q 2669 1773 2461 2003 
Q 2253 2234 1837 2234 
z
" transform="scale(0.015625)"/>
       </defs>
       <use xlink:href="#Ubuntu-36"/>
       <use xlink:href="#Ubuntu-30" x="56.399994"/>
       <use xlink:href="#Ubuntu-30" x="112.799988"/>
       <use xlink:href="#Ubuntu-30" x="169.199982"/>
       <use xlink:href="#Ubuntu-30" x="225.599976"/>
       <use xlink:href="#Ubuntu-30" x="281.999969"/>
      </g>
     </g>
    </g>
    <g id="xtick_8">
     <g id="line2d_8">
      <g>
       <use xlink:href="#m4746b6c25a" x="446.487627" y="153.90375" style="fill: #bbbbbb; stroke: #bbbbbb; stroke-width: 0.75"/>
      </g>
     </g>
     <g id="text_8">
      <!-- 700000 -->
      <g style="fill: #9f9f9f" transform="translate(432.950127 166.61125) scale(0.08 -0.08)">
       <defs>
        <path id="Ubuntu-37" d="M 1043 0 
Q 1082 512 1226 1078 
Q 1370 1645 1581 2179 
Q 1792 2714 2045 3171 
Q 2298 3629 2541 3917 
L 384 3917 
L 384 4435 
L 3206 4435 
L 3206 3942 
Q 2995 3699 2739 3273 
Q 2483 2848 2256 2320 
Q 2029 1792 1865 1193 
Q 1702 595 1664 0 
L 1043 0 
z
" transform="scale(0.015625)"/>
       </defs>
       <use xlink:href="#Ubuntu-37"/>
       <use xlink:href="#Ubuntu-30" x="56.399994"/>
       <use xlink:href="#Ubuntu-30" x="112.799988"/>
       <use xlink:href="#Ubuntu-30" x="169.199982"/>
       <use xlink:href="#Ubuntu-30" x="225.599976"/>
       <use xlink:href="#Ubuntu-30" x="281.999969"/>
      </g>
     </g>
    </g>
    <g id="xtick_9">
     <g id="line2d_9">
      <g>
       <use xlink:href="#m4746b6c25a" x="501.765937" y="153.90375" style="fill: #bbbbbb; stroke: #bbbbbb; stroke-width: 0.75"/>
      </g>
     </g>
     <g id="text_9">
      <!-- 800000 -->
      <g style="fill: #9f9f9f" transform="translate(488.228437 166.61125) scale(0.08 -0.08)">
       <defs>
        <path id="Ubuntu-38" d="M 3258 1152 
Q 3258 883 3165 656 
Q 3072 429 2889 259 
Q 2707 90 2432 -3 
Q 2157 -96 1798 -96 
Q 1382 -96 1104 22 
Q 826 141 659 320 
Q 493 499 422 713 
Q 352 928 352 1120 
Q 352 1306 413 1475 
Q 474 1645 573 1792 
Q 672 1939 803 2057 
Q 934 2176 1082 2266 
Q 454 2624 454 3322 
Q 454 3565 550 3785 
Q 646 4006 822 4172 
Q 998 4339 1248 4438 
Q 1498 4538 1805 4538 
Q 2163 4538 2419 4429 
Q 2675 4320 2838 4150 
Q 3002 3981 3075 3776 
Q 3149 3571 3149 3379 
Q 3149 3194 3094 3030 
Q 3040 2867 2947 2726 
Q 2854 2586 2736 2477 
Q 2618 2368 2490 2285 
Q 3245 1926 3258 1152 
z
M 954 1114 
Q 954 998 995 873 
Q 1037 749 1139 643 
Q 1242 538 1402 467 
Q 1562 397 1805 397 
Q 2022 397 2185 461 
Q 2349 525 2451 624 
Q 2554 723 2605 851 
Q 2656 979 2656 1114 
Q 2656 1318 2579 1472 
Q 2502 1626 2358 1741 
Q 2214 1856 2012 1936 
Q 1811 2016 1555 2074 
Q 1267 1914 1110 1677 
Q 954 1440 954 1114 
z
M 2554 3386 
Q 2554 3482 2512 3597 
Q 2470 3712 2380 3811 
Q 2291 3910 2150 3977 
Q 2010 4045 1805 4045 
Q 1600 4045 1456 3981 
Q 1312 3917 1222 3817 
Q 1133 3718 1091 3600 
Q 1050 3482 1050 3366 
Q 1050 3226 1101 3085 
Q 1152 2944 1261 2822 
Q 1370 2701 1546 2605 
Q 1722 2509 1965 2451 
Q 2234 2611 2394 2825 
Q 2554 3040 2554 3386 
z
" transform="scale(0.015625)"/>
       </defs>
       <use xlink:href="#Ubuntu-38"/>
       <use xlink:href="#Ubuntu-30" x="56.399994"/>
       <use xlink:href="#Ubuntu-30" x="112.799988"/>
       <use xlink:href="#Ubuntu-30" x="169.199982"/>
       <use xlink:href="#Ubuntu-30" x="225.599976"/>
       <use xlink:href="#Ubuntu-30" x="281.999969"/>
      </g>
     </g>
    </g>
    <g id="text_10">
     <!-- Actual -->
     <g style="fill: #505050" transform="translate(55.365938 183.074688) scale(0.09 -0.09)">
      <defs>
       <path id="Ubuntu-Bold-41" d="M 3482 0 
Q 3411 230 3324 473 
Q 3238 717 3155 960 
L 1427 960 
Q 1344 717 1257 473 
Q 1171 230 1101 0 
L 64 0 
Q 314 717 538 1325 
Q 762 1933 976 2470 
Q 1190 3008 1398 3491 
Q 1606 3974 1830 4435 
L 2784 4435 
Q 3002 3974 3213 3491 
Q 3424 3008 3638 2470 
Q 3853 1933 4077 1325 
Q 4301 717 4550 0 
L 3482 0 
z
M 2285 3430 
Q 2253 3334 2189 3168 
Q 2125 3002 2041 2784 
Q 1958 2566 1859 2304 
Q 1760 2042 1658 1754 
L 2918 1754 
Q 2816 2042 2720 2304 
Q 2624 2566 2537 2784 
Q 2451 3002 2387 3168 
Q 2323 3334 2285 3430 
z
" transform="scale(0.015625)"/>
       <path id="Ubuntu-Bold-63" d="M 288 1683 
Q 288 2048 406 2371 
Q 525 2694 749 2934 
Q 973 3174 1293 3315 
Q 1613 3456 2022 3456 
Q 2291 3456 2515 3408 
Q 2739 3360 2950 3270 
L 2752 2509 
Q 2618 2560 2458 2598 
Q 2298 2637 2099 2637 
Q 1677 2637 1469 2374 
Q 1261 2112 1261 1683 
Q 1261 1229 1456 979 
Q 1651 730 2138 730 
Q 2310 730 2508 762 
Q 2707 794 2874 864 
L 3008 83 
Q 2842 13 2592 -38 
Q 2342 -90 2042 -90 
Q 1581 -90 1248 48 
Q 915 186 700 422 
Q 486 659 387 982 
Q 288 1306 288 1683 
z
" transform="scale(0.015625)"/>
       <path id="Ubuntu-Bold-74" d="M 416 4205 
L 1370 4358 
L 1370 3366 
L 2515 3366 
L 2515 2573 
L 1370 2573 
L 1370 1389 
Q 1370 1088 1475 909 
Q 1581 730 1901 730 
Q 2054 730 2217 758 
Q 2381 787 2515 838 
L 2650 96 
Q 2477 26 2265 -25 
Q 2054 -77 1747 -77 
Q 1357 -77 1101 28 
Q 845 134 691 323 
Q 538 512 477 781 
Q 416 1050 416 1376 
L 416 4205 
z
" transform="scale(0.015625)"/>
       <path id="Ubuntu-Bold-75" d="M 3322 115 
Q 3078 45 2694 -16 
Q 2310 -77 1888 -77 
Q 1459 -77 1174 38 
Q 890 154 723 362 
Q 557 570 486 858 
Q 416 1146 416 1491 
L 416 3366 
L 1370 3366 
L 1370 1606 
Q 1370 1146 1491 941 
Q 1613 736 1946 736 
Q 2048 736 2163 745 
Q 2278 755 2368 768 
L 2368 3366 
L 3322 3366 
L 3322 115 
z
" transform="scale(0.015625)"/>
       <path id="Ubuntu-Bold-61" d="M 1734 666 
Q 1875 666 2003 672 
Q 2131 678 2208 691 
L 2208 1414 
Q 2150 1427 2035 1440 
Q 1920 1453 1824 1453 
Q 1690 1453 1571 1437 
Q 1453 1421 1363 1376 
Q 1274 1331 1222 1254 
Q 1171 1178 1171 1062 
Q 1171 838 1321 752 
Q 1472 666 1734 666 
z
M 1658 3456 
Q 2080 3456 2361 3360 
Q 2643 3264 2812 3085 
Q 2982 2906 3052 2650 
Q 3123 2394 3123 2080 
L 3123 96 
Q 2918 51 2553 -9 
Q 2189 -70 1670 -70 
Q 1344 -70 1078 -12 
Q 813 45 621 176 
Q 429 307 326 518 
Q 224 730 224 1037 
Q 224 1331 342 1536 
Q 461 1741 659 1862 
Q 858 1984 1114 2038 
Q 1370 2093 1645 2093 
Q 1830 2093 1974 2077 
Q 2118 2061 2208 2035 
L 2208 2125 
Q 2208 2368 2061 2515 
Q 1914 2662 1549 2662 
Q 1306 2662 1069 2627 
Q 832 2592 659 2528 
L 538 3296 
Q 621 3322 745 3350 
Q 870 3379 1017 3401 
Q 1165 3424 1328 3440 
Q 1491 3456 1658 3456 
z
" transform="scale(0.015625)"/>
       <path id="Ubuntu-Bold-6c" d="M 1792 -64 
Q 1376 -58 1117 25 
Q 858 109 707 259 
Q 557 410 502 624 
Q 448 838 448 1107 
L 448 4813 
L 1402 4966 
L 1402 1299 
Q 1402 1171 1421 1068 
Q 1440 966 1494 896 
Q 1549 826 1651 781 
Q 1754 736 1926 723 
L 1792 -64 
z
" transform="scale(0.015625)"/>
      </defs>
      <use xlink:href="#Ubuntu-Bold-41"/>
      <use xlink:href="#Ubuntu-Bold-63" x="70.974991"/>
      <use xlink:href="#Ubuntu-Bold-74" x="120.974976"/>
      <use xlink:href="#Ubuntu-Bold-75" x="165.374969"/>
      <use xlink:href="#Ubuntu-Bold-61" x="224.274963"/>
      <use xlink:href="#Ubuntu-Bold-6c" x="279.574951"/>
     </g>
    </g>
   </g>
   <g id="matplotlib.axis_2">
    <g id="ytick_1">
     <g id="line2d_10">
      <defs>
       <path id="m4735589c99" d="M 0 0 
L -3 0 
" style="stroke: #bbbbbb; stroke-width: 0.75"/>
      </defs>
      <g>
       <use xlink:href="#m4735589c99" x="50.365938" y="148.90375" style="fill: #bbbbbb; stroke: #bbbbbb; stroke-width: 0.75"/>
      </g>
     </g>
     <g id="text_11">
      <!-- −0.50 -->
      <g style="fill: #9f9f9f" transform="translate(23.848437 152.0075) scale(0.08 -0.08)">
       <defs>
        <path id="Ubuntu-2212" d="M 339 2138 
L 3270 2138 
L 3270 1632 
L 339 1632 
L 339 2138 
z
" transform="scale(0.015625)"/>
        <path id="Ubuntu-2e" d="M 1216 346 
Q 1216 173 1101 45 
Q 986 -83 787 -83 
Q 589 -83 473 45 
Q 358 173 358 346 
Q 358 518 473 646 
Q 589 774 787 774 
Q 986 774 1101 646 
Q 1216 518 1216 346 
z
" transform="scale(0.015625)"/>
       </defs>
       <use xlink:href="#Ubuntu-2212"/>
       <use xlink:href="#Ubuntu-30" x="56.399994"/>
       <use xlink:href="#Ubuntu-2e" x="112.799988"/>
       <use xlink:href="#Ubuntu-35" x="137.399979"/>
       <use xlink:href="#Ubuntu-30" x="193.799973"/>
      </g>
     </g>
    </g>
    <g id="ytick_2">
     <g id="line2d_11">
      <g>
       <use xlink:href="#m4735589c99" x="50.365938" y="114.25375" style="fill: #bbbbbb; stroke: #bbbbbb; stroke-width: 0.75"/>
      </g>
     </g>
     <g id="text_12">
      <!-- −0.25 -->
      <g style="fill: #9f9f9f" transform="translate(23.848437 117.3575) scale(0.08 -0.08)">
       <use xlink:href="#Ubuntu-2212"/>
       <use xlink:href="#Ubuntu-30" x="56.399994"/>
       <use xlink:href="#Ubuntu-2e" x="112.799988"/>
       <use xlink:href="#Ubuntu-32" x="137.399979"/>
       <use xlink:href="#Ubuntu-35" x="193.799973"/>
      </g>
     </g>
    </g>
    <g id="ytick_3">
     <g id="line2d_12">
      <g>
       <use xlink:href="#m4735589c99" x="50.365938" y="79.60375" style="fill: #bbbbbb; stroke: #bbbbbb; stroke-width: 0.75"/>
      </g>
     </g>
     <g id="text_13">
      <!-- 0.00 -->
      <g style="fill: #9f9f9f" transform="translate(28.360937 82.7075) scale(0.08 -0.08)">
       <use xlink:href="#Ubuntu-30"/>
       <use xlink:href="#Ubuntu-2e" x="56.399994"/>
       <use xlink:href="#Ubuntu-30" x="80.999985"/>
       <use xlink:href="#Ubuntu-30" x="137.399979"/>
      </g>
     </g>
    </g>
    <g id="ytick_4">
     <g id="line2d_13">
      <g>
       <use xlink:href="#m4735589c99" x="50.365938" y="44.95375" style="fill: #bbbbbb; stroke: #bbbbbb; stroke-width: 0.75"/>
      </g>
     </g>
     <g id="text_14">
      <!-- 0.25 -->
      <g style="fill: #9f9f9f" transform="translate(28.360937 48.0575) scale(0.08 -0.08)">
       <use xlink:href="#Ubuntu-30"/>
       <use xlink:href="#Ubuntu-2e" x="56.399994"/>
       <use xlink:href="#Ubuntu-32" x="80.999985"/>
       <use xlink:href="#Ubuntu-35" x="137.399979"/>
      </g>
     </g>
    </g>
    <g id="ytick_5">
     <g id="line2d_14">
      <g>
       <use xlink:href="#m4735589c99" x="50.365938" y="10.30375" style="fill: #bbbbbb; stroke: #bbbbbb; stroke-width: 0.75"/>
      </g>
     </g>
     <g id="text_15">
      <!-- 0.50 -->
      <g style="fill: #9f9f9f" transform="translate(28.360937 13.4075) scale(0.08 -0.08)">
       <use xlink:href="#Ubuntu-30"/>
       <use xlink:href="#Ubuntu-2e" x="56.399994"/>
       <use xlink:href="#Ubuntu-35" x="80.999985"/>
       <use xlink:href="#Ubuntu-30" x="137.399979"/>
      </g>
     </g>
    </g>
    <g id="text_16">
     <!-- Residuals frac -->
     <g style="fill: #505050" transform="translate(14.183437 70.371719) rotate(-90) scale(0.09 -0.09)">
      <defs>
       <path id="Ubuntu-Bold-52" d="M 1811 4486 
Q 2810 4486 3341 4131 
Q 3872 3776 3872 3027 
Q 3872 2560 3657 2269 
Q 3443 1978 3040 1811 
Q 3174 1645 3321 1430 
Q 3469 1216 3613 982 
Q 3757 749 3891 496 
Q 4026 243 4141 0 
L 3021 0 
Q 2899 218 2774 442 
Q 2650 666 2518 877 
Q 2387 1088 2259 1277 
Q 2131 1466 2003 1619 
L 1510 1619 
L 1510 0 
L 512 0 
L 512 4371 
Q 838 4435 1187 4460 
Q 1536 4486 1811 4486 
z
M 1869 3635 
Q 1760 3635 1673 3628 
Q 1587 3622 1510 3616 
L 1510 2413 
L 1792 2413 
Q 2355 2413 2598 2553 
Q 2842 2694 2842 3034 
Q 2842 3360 2595 3497 
Q 2349 3635 1869 3635 
z
" transform="scale(0.015625)"/>
       <path id="Ubuntu-Bold-65" d="M 288 1658 
Q 288 2106 425 2442 
Q 563 2778 787 3002 
Q 1011 3226 1302 3341 
Q 1594 3456 1901 3456 
Q 2618 3456 3034 3017 
Q 3450 2579 3450 1728 
Q 3450 1645 3443 1545 
Q 3437 1446 3430 1370 
L 1267 1370 
Q 1299 1075 1542 902 
Q 1786 730 2195 730 
Q 2458 730 2710 778 
Q 2963 826 3123 896 
L 3251 122 
Q 3174 83 3046 44 
Q 2918 6 2761 -22 
Q 2605 -51 2425 -70 
Q 2246 -90 2067 -90 
Q 1613 -90 1277 44 
Q 941 179 720 412 
Q 499 646 393 966 
Q 288 1286 288 1658 
z
M 2528 2022 
Q 2522 2144 2486 2259 
Q 2451 2374 2377 2464 
Q 2304 2554 2192 2611 
Q 2080 2669 1914 2669 
Q 1754 2669 1638 2614 
Q 1523 2560 1446 2470 
Q 1370 2381 1328 2262 
Q 1286 2144 1267 2022 
L 2528 2022 
z
" transform="scale(0.015625)"/>
       <path id="Ubuntu-Bold-73" d="M 1414 685 
Q 1677 685 1785 736 
Q 1894 787 1894 934 
Q 1894 1050 1753 1136 
Q 1613 1222 1325 1331 
Q 1101 1414 918 1504 
Q 736 1594 608 1718 
Q 480 1843 409 2016 
Q 339 2189 339 2432 
Q 339 2906 691 3181 
Q 1043 3456 1658 3456 
Q 1965 3456 2246 3401 
Q 2528 3347 2694 3283 
L 2528 2541 
Q 2362 2598 2166 2643 
Q 1971 2688 1728 2688 
Q 1280 2688 1280 2438 
Q 1280 2381 1299 2336 
Q 1318 2291 1376 2249 
Q 1434 2208 1533 2160 
Q 1632 2112 1786 2054 
Q 2099 1939 2304 1827 
Q 2509 1715 2627 1584 
Q 2746 1453 2794 1293 
Q 2842 1133 2842 922 
Q 2842 422 2467 166 
Q 2093 -90 1408 -90 
Q 960 -90 662 -13 
Q 365 64 250 115 
L 410 890 
Q 653 794 909 739 
Q 1165 685 1414 685 
z
" transform="scale(0.015625)"/>
       <path id="Ubuntu-Bold-69" d="M 1402 0 
L 448 0 
L 448 3366 
L 1402 3366 
L 1402 0 
z
M 1491 4339 
Q 1491 4077 1321 3926 
Q 1152 3776 922 3776 
Q 691 3776 521 3926 
Q 352 4077 352 4339 
Q 352 4602 521 4752 
Q 691 4902 922 4902 
Q 1152 4902 1321 4752 
Q 1491 4602 1491 4339 
z
" transform="scale(0.015625)"/>
       <path id="Ubuntu-Bold-64" d="M 1261 1709 
Q 1261 1267 1459 998 
Q 1658 730 2048 730 
Q 2176 730 2285 739 
Q 2394 749 2464 762 
L 2464 2496 
Q 2374 2554 2230 2592 
Q 2086 2630 1939 2630 
Q 1261 2630 1261 1709 
z
M 3418 109 
Q 3290 70 3123 35 
Q 2957 0 2774 -25 
Q 2592 -51 2403 -67 
Q 2214 -83 2042 -83 
Q 1626 -83 1299 38 
Q 973 160 749 387 
Q 525 614 406 937 
Q 288 1261 288 1664 
Q 288 2074 390 2403 
Q 493 2733 685 2963 
Q 877 3194 1155 3315 
Q 1434 3437 1792 3437 
Q 1990 3437 2147 3398 
Q 2304 3360 2464 3290 
L 2464 4813 
L 3418 4966 
L 3418 109 
z
" transform="scale(0.015625)"/>
       <path id="Ubuntu-Bold-20" transform="scale(0.015625)"/>
       <path id="Ubuntu-Bold-66" d="M 1907 4966 
Q 2176 4966 2400 4912 
Q 2624 4858 2746 4806 
L 2560 4045 
Q 2432 4102 2281 4131 
Q 2131 4160 2003 4160 
Q 1830 4160 1712 4112 
Q 1594 4064 1526 3981 
Q 1459 3898 1430 3782 
Q 1402 3667 1402 3533 
L 1402 3366 
L 2579 3366 
L 2579 2573 
L 1402 2573 
L 1402 0 
L 448 0 
L 448 3546 
Q 448 4198 816 4582 
Q 1184 4966 1907 4966 
z
" transform="scale(0.015625)"/>
       <path id="Ubuntu-Bold-72" d="M 2477 2522 
Q 2349 2554 2176 2589 
Q 2003 2624 1805 2624 
Q 1715 2624 1590 2608 
Q 1466 2592 1402 2573 
L 1402 0 
L 448 0 
L 448 3187 
Q 704 3277 1053 3357 
Q 1402 3437 1830 3437 
Q 1907 3437 2016 3427 
Q 2125 3418 2233 3402 
Q 2342 3386 2451 3363 
Q 2560 3341 2637 3309 
L 2477 2522 
z
" transform="scale(0.015625)"/>
      </defs>
      <use xlink:href="#Ubuntu-Bold-52"/>
      <use xlink:href="#Ubuntu-Bold-65" x="64.199997"/>
      <use xlink:href="#Ubuntu-Bold-73" x="122.599991"/>
      <use xlink:href="#Ubuntu-Bold-69" x="171.099976"/>
      <use xlink:href="#Ubuntu-Bold-64" x="199.999969"/>
      <use xlink:href="#Ubuntu-Bold-75" x="260.399963"/>
      <use xlink:href="#Ubuntu-Bold-61" x="319.299957"/>
      <use xlink:href="#Ubuntu-Bold-6c" x="374.599945"/>
      <use xlink:href="#Ubuntu-Bold-73" x="406.199936"/>
      <use xlink:href="#Ubuntu-Bold-20" x="454.699921"/>
      <use xlink:href="#Ubuntu-Bold-66" x="478.699905"/>
      <use xlink:href="#Ubuntu-Bold-72" x="520.899902"/>
      <use xlink:href="#Ubuntu-Bold-61" x="562.099899"/>
      <use xlink:href="#Ubuntu-Bold-63" x="617.399887"/>
     </g>
    </g>
   </g>
   <g id="PathCollection_1">
    <defs>
     <path id="m1c83b7ec9f" d="M 0 1.5 
C 0.397805 1.5 0.77937 1.341951 1.06066 1.06066 
C 1.341951 0.77937 1.5 0.397805 1.5 0 
C 1.5 -0.397805 1.341951 -0.77937 1.06066 -1.06066 
C 0.77937 -1.341951 0.397805 -1.5 0 -1.5 
C -0.397805 -1.5 -0.77937 -1.341951 -1.06066 -1.06066 
C -1.341951 -0.77937 -1.5 -0.397805 -1.5 0 
C -1.5 0.397805 -1.341951 0.77937 -1.06066 1.06066 
C -0.77937 1.341951 -0.397805 1.5 0 1.5 
z
" style="stroke: #ffffff; stroke-width: 0.24"/>
    </defs>
    <g clip-path="url(#p1ed52d96bb)">
     <use xlink:href="#m1c83b7ec9f" x="144.94444" y="73.781653" style="fill: #5d5d5d; stroke: #ffffff; stroke-width: 0.24"/>
     <use xlink:href="#m1c83b7ec9f" x="239.193961" y="81.10788" style="fill: #5d5d5d; stroke: #ffffff; stroke-width: 0.24"/>
     <use xlink:href="#m1c83b7ec9f" x="123.109508" y="71.269672" style="fill: #5d5d5d; stroke: #ffffff; stroke-width: 0.24"/>
     <use xlink:href="#m1c83b7ec9f" x="147.431964" y="76.944199" style="fill: #5d5d5d; stroke: #ffffff; stroke-width: 0.24"/>
     <use xlink:href="#m1c83b7ec9f" x="233.942521" y="91.6055" style="fill: #5d5d5d; stroke: #ffffff; stroke-width: 0.24"/>
     <use xlink:href="#m1c83b7ec9f" x="101.274575" y="81.522121" style="fill: #5d5d5d; stroke: #ffffff; stroke-width: 0.24"/>
     <use xlink:href="#m1c83b7ec9f" x="231.731389" y="53.793004" style="fill: #5d5d5d; stroke: #ffffff; stroke-width: 0.24"/>
     <use xlink:href="#m1c83b7ec9f" x="140.245784" y="73.953427" style="fill: #5d5d5d; stroke: #ffffff; stroke-width: 0.24"/>
     <use xlink:href="#m1c83b7ec9f" x="106.249623" y="68.141776" style="fill: #5d5d5d; stroke: #ffffff; stroke-width: 0.24"/>
     <use xlink:href="#m1c83b7ec9f" x="134.441561" y="90.177242" style="fill: #5d5d5d; stroke: #ffffff; stroke-width: 0.24"/>
     <use xlink:href="#m1c83b7ec9f" x="139.693001" y="78.321939" style="fill: #5d5d5d; stroke: #ffffff; stroke-width: 0.24"/>
     <use xlink:href="#m1c83b7ec9f" x="131.401254" y="65.97937" style="fill: #5d5d5d; stroke: #ffffff; stroke-width: 0.24"/>
     <use xlink:href="#m1c83b7ec9f" x="104.314882" y="71.494794" style="fill: #5d5d5d; stroke: #ffffff; stroke-width: 0.24"/>
     <use xlink:href="#m1c83b7ec9f" x="177.835035" y="73.670504" style="fill: #5d5d5d; stroke: #ffffff; stroke-width: 0.24"/>
     <use xlink:href="#m1c83b7ec9f" x="159.593193" y="67.651989" style="fill: #5d5d5d; stroke: #ffffff; stroke-width: 0.24"/>
     <use xlink:href="#m1c83b7ec9f" x="133.888778" y="78.018867" style="fill: #5d5d5d; stroke: #ffffff; stroke-width: 0.24"/>
     <use xlink:href="#m1c83b7ec9f" x="160.975151" y="87.307946" style="fill: #5d5d5d; stroke: #ffffff; stroke-width: 0.24"/>
     <use xlink:href="#m1c83b7ec9f" x="134.16517" y="72.13167" style="fill: #5d5d5d; stroke: #ffffff; stroke-width: 0.24"/>
     <use xlink:href="#m1c83b7ec9f" x="124.98897" y="67.154333" style="fill: #5d5d5d; stroke: #ffffff; stroke-width: 0.24"/>
     <use xlink:href="#m1c83b7ec9f" x="184.468433" y="72.237099" style="fill: #5d5d5d; stroke: #ffffff; stroke-width: 0.24"/>
     <use xlink:href="#m1c83b7ec9f" x="145.220832" y="60.073669" style="fill: #5d5d5d; stroke: #ffffff; stroke-width: 0.24"/>
     <use xlink:href="#m1c83b7ec9f" x="175.623903" y="79.15759" style="fill: #5d5d5d; stroke: #ffffff; stroke-width: 0.24"/>
     <use xlink:href="#m1c83b7ec9f" x="155.447319" y="79.742749" style="fill: #5d5d5d; stroke: #ffffff; stroke-width: 0.24"/>
     <use xlink:href="#m1c83b7ec9f" x="130.848471" y="77.572024" style="fill: #5d5d5d; stroke: #ffffff; stroke-width: 0.24"/>
     <use xlink:href="#m1c83b7ec9f" x="165.673807" y="85.483422" style="fill: #5d5d5d; stroke: #ffffff; stroke-width: 0.24"/>
     <use xlink:href="#m1c83b7ec9f" x="144.612771" y="91.179867" style="fill: #5d5d5d; stroke: #ffffff; stroke-width: 0.24"/>
     <use xlink:href="#m1c83b7ec9f" x="159.667266" y="86.476591" style="fill: #5d5d5d; stroke: #ffffff; stroke-width: 0.24"/>
     <use xlink:href="#m1c83b7ec9f" x="137.481868" y="49.739873" style="fill: #5d5d5d; stroke: #ffffff; stroke-width: 0.24"/>
     <use xlink:href="#m1c83b7ec9f" x="159.593193" y="72.906537" style="fill: #5d5d5d; stroke: #ffffff; stroke-width: 0.24"/>
     <use xlink:href="#m1c83b7ec9f" x="175.015842" y="75.177042" style="fill: #5d5d5d; stroke: #ffffff; stroke-width: 0.24"/>
     <use xlink:href="#m1c83b7ec9f" x="129.742905" y="70.9287" style="fill: #5d5d5d; stroke: #ffffff; stroke-width: 0.24"/>
     <use xlink:href="#m1c83b7ec9f" x="216.529853" y="70.625984" style="fill: #5d5d5d; stroke: #ffffff; stroke-width: 0.24"/>
     <use xlink:href="#m1c83b7ec9f" x="170.372463" y="84.789671" style="fill: #5d5d5d; stroke: #ffffff; stroke-width: 0.24"/>
     <use xlink:href="#m1c83b7ec9f" x="134.579757" y="64.702336" style="fill: #5d5d5d; stroke: #ffffff; stroke-width: 0.24"/>
     <use xlink:href="#m1c83b7ec9f" x="200.499143" y="81.096825" style="fill: #5d5d5d; stroke: #ffffff; stroke-width: 0.24"/>
     <use xlink:href="#m1c83b7ec9f" x="136.929085" y="90.01162" style="fill: #5d5d5d; stroke: #ffffff; stroke-width: 0.24"/>
     <use xlink:href="#m1c83b7ec9f" x="135.823519" y="83.396167" style="fill: #5d5d5d; stroke: #ffffff; stroke-width: 0.24"/>
     <use xlink:href="#m1c83b7ec9f" x="180.875342" y="69.079622" style="fill: #5d5d5d; stroke: #ffffff; stroke-width: 0.24"/>
     <use xlink:href="#m1c83b7ec9f" x="230.902214" y="86.366983" style="fill: #5d5d5d; stroke: #ffffff; stroke-width: 0.24"/>
     <use xlink:href="#m1c83b7ec9f" x="113.159412" y="81.358397" style="fill: #5d5d5d; stroke: #ffffff; stroke-width: 0.24"/>
     <use xlink:href="#m1c83b7ec9f" x="122.833116" y="76.985481" style="fill: #5d5d5d; stroke: #ffffff; stroke-width: 0.24"/>
     <use xlink:href="#m1c83b7ec9f" x="172.859987" y="99.023976" style="fill: #5d5d5d; stroke: #ffffff; stroke-width: 0.24"/>
     <use xlink:href="#m1c83b7ec9f" x="125.597032" y="80.596567" style="fill: #5d5d5d; stroke: #ffffff; stroke-width: 0.24"/>
     <use xlink:href="#m1c83b7ec9f" x="199.555542" y="126.660653" style="fill: #5d5d5d; stroke: #ffffff; stroke-width: 0.24"/>
     <use xlink:href="#m1c83b7ec9f" x="130.57208" y="77.316041" style="fill: #5d5d5d; stroke: #ffffff; stroke-width: 0.24"/>
     <use xlink:href="#m1c83b7ec9f" x="124.491465" y="85.352996" style="fill: #5d5d5d; stroke: #ffffff; stroke-width: 0.24"/>
     <use xlink:href="#m1c83b7ec9f" x="123.109508" y="70.70563" style="fill: #5d5d5d; stroke: #ffffff; stroke-width: 0.24"/>
     <use xlink:href="#m1c83b7ec9f" x="129.742905" y="82.938881" style="fill: #5d5d5d; stroke: #ffffff; stroke-width: 0.24"/>
     <use xlink:href="#m1c83b7ec9f" x="309.369776" y="76.589173" style="fill: #5d5d5d; stroke: #ffffff; stroke-width: 0.24"/>
     <use xlink:href="#m1c83b7ec9f" x="139.140218" y="69.775662" style="fill: #5d5d5d; stroke: #ffffff; stroke-width: 0.24"/>
     <use xlink:href="#m1c83b7ec9f" x="125.32064" y="84.283538" style="fill: #5d5d5d; stroke: #ffffff; stroke-width: 0.24"/>
     <use xlink:href="#m1c83b7ec9f" x="167.884939" y="83.93995" style="fill: #5d5d5d; stroke: #ffffff; stroke-width: 0.24"/>
     <use xlink:href="#m1c83b7ec9f" x="123.109508" y="73.875352" style="fill: #5d5d5d; stroke: #ffffff; stroke-width: 0.24"/>
     <use xlink:href="#m1c83b7ec9f" x="218.188202" y="115.143784" style="fill: #5d5d5d; stroke: #ffffff; stroke-width: 0.24"/>
     <use xlink:href="#m1c83b7ec9f" x="139.416609" y="80.508247" style="fill: #5d5d5d; stroke: #ffffff; stroke-width: 0.24"/>
     <use xlink:href="#m1c83b7ec9f" x="203.263058" y="69.579772" style="fill: #5d5d5d; stroke: #ffffff; stroke-width: 0.24"/>
     <use xlink:href="#m1c83b7ec9f" x="177.282252" y="73.858032" style="fill: #5d5d5d; stroke: #ffffff; stroke-width: 0.24"/>
     <use xlink:href="#m1c83b7ec9f" x="156.276494" y="61.975414" style="fill: #5d5d5d; stroke: #ffffff; stroke-width: 0.24"/>
     <use xlink:href="#m1c83b7ec9f" x="118.687243" y="114.113855" style="fill: #5d5d5d; stroke: #ffffff; stroke-width: 0.24"/>
     <use xlink:href="#m1c83b7ec9f" x="118.963634" y="57.439354" style="fill: #5d5d5d; stroke: #ffffff; stroke-width: 0.24"/>
     <use xlink:href="#m1c83b7ec9f" x="97.405093" y="59.35601" style="fill: #5d5d5d; stroke: #ffffff; stroke-width: 0.24"/>
     <use xlink:href="#m1c83b7ec9f" x="144.668049" y="80.33455" style="fill: #5d5d5d; stroke: #ffffff; stroke-width: 0.24"/>
     <use xlink:href="#m1c83b7ec9f" x="234.771696" y="72.779995" style="fill: #5d5d5d; stroke: #ffffff; stroke-width: 0.24"/>
     <use xlink:href="#m1c83b7ec9f" x="205.547158" y="88.595654" style="fill: #5d5d5d; stroke: #ffffff; stroke-width: 0.24"/>
     <use xlink:href="#m1c83b7ec9f" x="216.233009" y="89.687422" style="fill: #5d5d5d; stroke: #ffffff; stroke-width: 0.24"/>
     <use xlink:href="#m1c83b7ec9f" x="193.865746" y="61.918276" style="fill: #5d5d5d; stroke: #ffffff; stroke-width: 0.24"/>
     <use xlink:href="#m1c83b7ec9f" x="119.792809" y="80.880396" style="fill: #5d5d5d; stroke: #ffffff; stroke-width: 0.24"/>
     <use xlink:href="#m1c83b7ec9f" x="228.138298" y="84.939623" style="fill: #5d5d5d; stroke: #ffffff; stroke-width: 0.24"/>
     <use xlink:href="#m1c83b7ec9f" x="111.224671" y="111.12895" style="fill: #5d5d5d; stroke: #ffffff; stroke-width: 0.24"/>
     <use xlink:href="#m1c83b7ec9f" x="156.829277" y="71.527937" style="fill: #5d5d5d; stroke: #ffffff; stroke-width: 0.24"/>
     <use xlink:href="#m1c83b7ec9f" x="125.242145" y="77.266891" style="fill: #5d5d5d; stroke: #ffffff; stroke-width: 0.24"/>
     <use xlink:href="#m1c83b7ec9f" x="133.612387" y="74.539678" style="fill: #5d5d5d; stroke: #ffffff; stroke-width: 0.24"/>
     <use xlink:href="#m1c83b7ec9f" x="119.797231" y="84.846006" style="fill: #5d5d5d; stroke: #ffffff; stroke-width: 0.24"/>
     <use xlink:href="#m1c83b7ec9f" x="111.224671" y="72.509209" style="fill: #5d5d5d; stroke: #ffffff; stroke-width: 0.24"/>
     <use xlink:href="#m1c83b7ec9f" x="397.653108" y="50.718676" style="fill: #5d5d5d; stroke: #ffffff; stroke-width: 0.24"/>
     <use xlink:href="#m1c83b7ec9f" x="155.170928" y="81.44721" style="fill: #5d5d5d; stroke: #ffffff; stroke-width: 0.24"/>
     <use xlink:href="#m1c83b7ec9f" x="251.907972" y="62.960598" style="fill: #5d5d5d; stroke: #ffffff; stroke-width: 0.24"/>
     <use xlink:href="#m1c83b7ec9f" x="248.03849" y="65.798621" style="fill: #5d5d5d; stroke: #ffffff; stroke-width: 0.24"/>
     <use xlink:href="#m1c83b7ec9f" x="137.481868" y="78.226597" style="fill: #5d5d5d; stroke: #ffffff; stroke-width: 0.24"/>
     <use xlink:href="#m1c83b7ec9f" x="128.58206" y="76.327952" style="fill: #5d5d5d; stroke: #ffffff; stroke-width: 0.24"/>
     <use xlink:href="#m1c83b7ec9f" x="124.767857" y="69.638645" style="fill: #5d5d5d; stroke: #ffffff; stroke-width: 0.24"/>
     <use xlink:href="#m1c83b7ec9f" x="96.575918" y="81.68275" style="fill: #5d5d5d; stroke: #ffffff; stroke-width: 0.24"/>
     <use xlink:href="#m1c83b7ec9f" x="122.003941" y="86.454024" style="fill: #5d5d5d; stroke: #ffffff; stroke-width: 0.24"/>
     <use xlink:href="#m1c83b7ec9f" x="110.008548" y="81.505895" style="fill: #5d5d5d; stroke: #ffffff; stroke-width: 0.24"/>
     <use xlink:href="#m1c83b7ec9f" x="142.180525" y="84.071398" style="fill: #5d5d5d; stroke: #ffffff; stroke-width: 0.24"/>
     <use xlink:href="#m1c83b7ec9f" x="133.059604" y="77.521624" style="fill: #5d5d5d; stroke: #ffffff; stroke-width: 0.24"/>
     <use xlink:href="#m1c83b7ec9f" x="206.579757" y="77.081334" style="fill: #5d5d5d; stroke: #ffffff; stroke-width: 0.24"/>
     <use xlink:href="#m1c83b7ec9f" x="164.568241" y="93.181444" style="fill: #5d5d5d; stroke: #ffffff; stroke-width: 0.24"/>
     <use xlink:href="#m1c83b7ec9f" x="145.718337" y="69.494574" style="fill: #5d5d5d; stroke: #ffffff; stroke-width: 0.24"/>
     <use xlink:href="#m1c83b7ec9f" x="145.682406" y="105.861573" style="fill: #5d5d5d; stroke: #ffffff; stroke-width: 0.24"/>
     <use xlink:href="#m1c83b7ec9f" x="144.391657" y="69.313942" style="fill: #5d5d5d; stroke: #ffffff; stroke-width: 0.24"/>
     <use xlink:href="#m1c83b7ec9f" x="143.562483" y="74.26765" style="fill: #5d5d5d; stroke: #ffffff; stroke-width: 0.24"/>
     <use xlink:href="#m1c83b7ec9f" x="128.360947" y="81.351557" style="fill: #5d5d5d; stroke: #ffffff; stroke-width: 0.24"/>
     <use xlink:href="#m1c83b7ec9f" x="225.927166" y="61.504248" style="fill: #5d5d5d; stroke: #ffffff; stroke-width: 0.24"/>
     <use xlink:href="#m1c83b7ec9f" x="134.994344" y="66.781473" style="fill: #5d5d5d; stroke: #ffffff; stroke-width: 0.24"/>
     <use xlink:href="#m1c83b7ec9f" x="153.507051" y="98.687647" style="fill: #5d5d5d; stroke: #ffffff; stroke-width: 0.24"/>
     <use xlink:href="#m1c83b7ec9f" x="172.859987" y="54.777448" style="fill: #5d5d5d; stroke: #ffffff; stroke-width: 0.24"/>
     <use xlink:href="#m1c83b7ec9f" x="161.196264" y="74.05146" style="fill: #5d5d5d; stroke: #ffffff; stroke-width: 0.24"/>
     <use xlink:href="#m1c83b7ec9f" x="172.804709" y="81.628974" style="fill: #5d5d5d; stroke: #ffffff; stroke-width: 0.24"/>
     <use xlink:href="#m1c83b7ec9f" x="203.263058" y="85.322599" style="fill: #5d5d5d; stroke: #ffffff; stroke-width: 0.24"/>
     <use xlink:href="#m1c83b7ec9f" x="149.919488" y="90.663776" style="fill: #5d5d5d; stroke: #ffffff; stroke-width: 0.24"/>
     <use xlink:href="#m1c83b7ec9f" x="183.860371" y="70.192631" style="fill: #5d5d5d; stroke: #ffffff; stroke-width: 0.24"/>
     <use xlink:href="#m1c83b7ec9f" x="194.418529" y="96.362421" style="fill: #5d5d5d; stroke: #ffffff; stroke-width: 0.24"/>
     <use xlink:href="#m1c83b7ec9f" x="132.50682" y="69.88915" style="fill: #5d5d5d; stroke: #ffffff; stroke-width: 0.24"/>
     <use xlink:href="#m1c83b7ec9f" x="166.779373" y="92.932212" style="fill: #5d5d5d; stroke: #ffffff; stroke-width: 0.24"/>
     <use xlink:href="#m1c83b7ec9f" x="146.050007" y="77.116035" style="fill: #5d5d5d; stroke: #ffffff; stroke-width: 0.24"/>
     <use xlink:href="#m1c83b7ec9f" x="145.773615" y="80.567731" style="fill: #5d5d5d; stroke: #ffffff; stroke-width: 0.24"/>
     <use xlink:href="#m1c83b7ec9f" x="211.554805" y="69.896206" style="fill: #5d5d5d; stroke: #ffffff; stroke-width: 0.24"/>
     <use xlink:href="#m1c83b7ec9f" x="139.693001" y="78.541787" style="fill: #5d5d5d; stroke: #ffffff; stroke-width: 0.24"/>
     <use xlink:href="#m1c83b7ec9f" x="134.16517" y="122.268937" style="fill: #5d5d5d; stroke: #ffffff; stroke-width: 0.24"/>
     <use xlink:href="#m1c83b7ec9f" x="92.706437" y="49.04938" style="fill: #5d5d5d; stroke: #ffffff; stroke-width: 0.24"/>
     <use xlink:href="#m1c83b7ec9f" x="128.084556" y="81.667102" style="fill: #5d5d5d; stroke: #ffffff; stroke-width: 0.24"/>
     <use xlink:href="#m1c83b7ec9f" x="129.742905" y="94.46669" style="fill: #5d5d5d; stroke: #ffffff; stroke-width: 0.24"/>
     <use xlink:href="#m1c83b7ec9f" x="135.547128" y="73.342054" style="fill: #5d5d5d; stroke: #ffffff; stroke-width: 0.24"/>
     <use xlink:href="#m1c83b7ec9f" x="177.558644" y="72.721789" style="fill: #5d5d5d; stroke: #ffffff; stroke-width: 0.24"/>
     <use xlink:href="#m1c83b7ec9f" x="125.32064" y="65.975526" style="fill: #5d5d5d; stroke: #ffffff; stroke-width: 0.24"/>
     <use xlink:href="#m1c83b7ec9f" x="119.184747" y="75.197837" style="fill: #5d5d5d; stroke: #ffffff; stroke-width: 0.24"/>
     <use xlink:href="#m1c83b7ec9f" x="127.531772" y="68.131501" style="fill: #5d5d5d; stroke: #ffffff; stroke-width: 0.24"/>
     <use xlink:href="#m1c83b7ec9f" x="121.451158" y="102.127487" style="fill: #5d5d5d; stroke: #ffffff; stroke-width: 0.24"/>
     <use xlink:href="#m1c83b7ec9f" x="216.529853" y="69.082351" style="fill: #5d5d5d; stroke: #ffffff; stroke-width: 0.24"/>
     <use xlink:href="#m1c83b7ec9f" x="133.059604" y="71.826518" style="fill: #5d5d5d; stroke: #ffffff; stroke-width: 0.24"/>
     <use xlink:href="#m1c83b7ec9f" x="141.904133" y="75.818761" style="fill: #5d5d5d; stroke: #ffffff; stroke-width: 0.24"/>
     <use xlink:href="#m1c83b7ec9f" x="152.959795" y="82.874382" style="fill: #5d5d5d; stroke: #ffffff; stroke-width: 0.24"/>
     <use xlink:href="#m1c83b7ec9f" x="173.965554" y="61.256324" style="fill: #5d5d5d; stroke: #ffffff; stroke-width: 0.24"/>
     <use xlink:href="#m1c83b7ec9f" x="156.276494" y="91.657198" style="fill: #5d5d5d; stroke: #ffffff; stroke-width: 0.24"/>
     <use xlink:href="#m1c83b7ec9f" x="135.270736" y="70.214359" style="fill: #5d5d5d; stroke: #ffffff; stroke-width: 0.24"/>
     <use xlink:href="#m1c83b7ec9f" x="189.996264" y="76.584502" style="fill: #5d5d5d; stroke: #ffffff; stroke-width: 0.24"/>
     <use xlink:href="#m1c83b7ec9f" x="103.485707" y="107.777033" style="fill: #5d5d5d; stroke: #ffffff; stroke-width: 0.24"/>
     <use xlink:href="#m1c83b7ec9f" x="139.140218" y="83.7733" style="fill: #5d5d5d; stroke: #ffffff; stroke-width: 0.24"/>
     <use xlink:href="#m1c83b7ec9f" x="149.587818" y="94.626833" style="fill: #5d5d5d; stroke: #ffffff; stroke-width: 0.24"/>
     <use xlink:href="#m1c83b7ec9f" x="162.30183" y="83.484401" style="fill: #5d5d5d; stroke: #ffffff; stroke-width: 0.24"/>
     <use xlink:href="#m1c83b7ec9f" x="264.013922" y="80.501896" style="fill: #5d5d5d; stroke: #ffffff; stroke-width: 0.24"/>
     <use xlink:href="#m1c83b7ec9f" x="168.935227" y="76.807238" style="fill: #5d5d5d; stroke: #ffffff; stroke-width: 0.24"/>
     <use xlink:href="#m1c83b7ec9f" x="117.028893" y="99.399562" style="fill: #5d5d5d; stroke: #ffffff; stroke-width: 0.24"/>
     <use xlink:href="#m1c83b7ec9f" x="79.058774" y="127.211561" style="fill: #5d5d5d; stroke: #ffffff; stroke-width: 0.24"/>
     <use xlink:href="#m1c83b7ec9f" x="246.103749" y="90.104086" style="fill: #5d5d5d; stroke: #ffffff; stroke-width: 0.24"/>
     <use xlink:href="#m1c83b7ec9f" x="262.573369" y="80.66072" style="fill: #5d5d5d; stroke: #ffffff; stroke-width: 0.24"/>
     <use xlink:href="#m1c83b7ec9f" x="131.53945" y="86.935451" style="fill: #5d5d5d; stroke: #ffffff; stroke-width: 0.24"/>
     <use xlink:href="#m1c83b7ec9f" x="186.679565" y="82.078061" style="fill: #5d5d5d; stroke: #ffffff; stroke-width: 0.24"/>
     <use xlink:href="#m1c83b7ec9f" x="476.890698" y="58.759411" style="fill: #5d5d5d; stroke: #ffffff; stroke-width: 0.24"/>
     <use xlink:href="#m1c83b7ec9f" x="282.311043" y="61.12868" style="fill: #5d5d5d; stroke: #ffffff; stroke-width: 0.24"/>
     <use xlink:href="#m1c83b7ec9f" x="132.50682" y="82.3369" style="fill: #5d5d5d; stroke: #ffffff; stroke-width: 0.24"/>
     <use xlink:href="#m1c83b7ec9f" x="157.934843" y="74.420266" style="fill: #5d5d5d; stroke: #ffffff; stroke-width: 0.24"/>
     <use xlink:href="#m1c83b7ec9f" x="134.994344" y="101.470058" style="fill: #5d5d5d; stroke: #ffffff; stroke-width: 0.24"/>
     <use xlink:href="#m1c83b7ec9f" x="139.693001" y="80.683874" style="fill: #5d5d5d; stroke: #ffffff; stroke-width: 0.24"/>
     <use xlink:href="#m1c83b7ec9f" x="127.531772" y="78.817223" style="fill: #5d5d5d; stroke: #ffffff; stroke-width: 0.24"/>
    </g>
   </g>
   <g id="line2d_15">
    <path d="M 55.365938 79.60375 
L 501.765937 79.60375 
" clip-path="url(#p1ed52d96bb)" style="fill: none; stroke-dasharray: 3.7,1.6; stroke-dashoffset: 0; stroke: #af5a51"/>
   </g>
   <g id="patch_3">
    <path d="M 50.365938 148.90375 
L 50.365938 10.30375 
" style="fill: none; stroke: #bbbbbb; stroke-width: 0.75; stroke-linejoin: miter; stroke-linecap: square"/>
   </g>
   <g id="patch_4">
    <path d="M 59.53945 153.90375 
L 501.765937 153.90375 
" style="fill: none; stroke: #bbbbbb; stroke-width: 0.75; stroke-linejoin: miter; stroke-linecap: square"/>
   </g>
  </g>
 </g>
 <defs>
  <clipPath id="p1ed52d96bb">
   <rect x="55.365938" y="10.30375" width="446.4" height="138.6"/>
  </clipPath>
 </defs>
</svg>
