<?xml version="1.0" encoding="utf-8" standalone="no"?>
<!DOCTYPE svg PUBLIC "-//W3C//DTD SVG 1.1//EN"
  "http://www.w3.org/Graphics/SVG/1.1/DTD/svg11.dtd">
<svg xmlns:xlink="http://www.w3.org/1999/xlink" width="585.360937pt" height="188.835938pt" viewBox="0 0 585.360937 188.835938" xmlns="http://www.w3.org/2000/svg" version="1.1">
 <metadata>
  <rdf:RDF xmlns:dc="http://purl.org/dc/elements/1.1/" xmlns:cc="http://creativecommons.org/ns#" xmlns:rdf="http://www.w3.org/1999/02/22-rdf-syntax-ns#">
   <cc:Work>
    <dc:type rdf:resource="http://purl.org/dc/dcmitype/StillImage"/>
    <dc:date>2024-02-20T11:09:36.536764</dc:date>
    <dc:format>image/svg+xml</dc:format>
    <dc:creator>
     <cc:Agent>
      <dc:title>Matplotlib v3.8.0, https://matplotlib.org/</dc:title>
     </cc:Agent>
    </dc:creator>
   </cc:Work>
  </rdf:RDF>
 </metadata>
 <defs>
  <style type="text/css">*{stroke-linejoin: round; stroke-linecap: butt}</style>
 </defs>
 <g id="figure_1">
  <g id="patch_1">
   <path d="M 0 188.835938 
L 585.360937 188.835938 
L 585.360937 0 
L 0 0 
L 0 188.835938 
z
" style="fill: none"/>
  </g>
  <g id="axes_1">
   <g id="patch_2">
    <path d="M 62.423438 145.8 
L 564.623438 145.8 
L 564.623438 7.2 
L 62.423438 7.2 
L 62.423438 145.8 
z
" style="fill: none"/>
   </g>
   <g id="matplotlib.axis_1">
    <g id="xtick_1">
     <g id="line2d_1">
      <defs>
       <path id="m47337c7053" d="M 0 0 
L 0 3 
" style="stroke: #bbbbbb; stroke-width: 0.75"/>
      </defs>
      <g>
       <use xlink:href="#m47337c7053" x="62.423438" y="150.8" style="fill: #bbbbbb; stroke: #bbbbbb; stroke-width: 0.75"/>
      </g>
     </g>
     <g id="text_1">
      <!-- 0 -->
      <g style="fill: #9f9f9f" transform="translate(60.167188 163.5075) scale(0.08 -0.08)">
       <defs>
        <path id="Ubuntu-30" d="M 320 2221 
Q 320 3334 713 3936 
Q 1107 4538 1805 4538 
Q 2502 4538 2896 3936 
Q 3290 3334 3290 2221 
Q 3290 1107 2896 505 
Q 2502 -96 1805 -96 
Q 1107 -96 713 505 
Q 320 1107 320 2221 
z
M 2662 2221 
Q 2662 2586 2620 2912 
Q 2579 3238 2480 3481 
Q 2381 3725 2214 3869 
Q 2048 4013 1805 4013 
Q 1562 4013 1395 3869 
Q 1229 3725 1129 3481 
Q 1030 3238 988 2912 
Q 947 2586 947 2221 
Q 947 1856 988 1529 
Q 1030 1203 1129 960 
Q 1229 717 1395 573 
Q 1562 429 1805 429 
Q 2048 429 2214 573 
Q 2381 717 2480 960 
Q 2579 1203 2620 1529 
Q 2662 1856 2662 2221 
z
" transform="scale(0.015625)"/>
       </defs>
       <use xlink:href="#Ubuntu-30"/>
      </g>
     </g>
    </g>
    <g id="xtick_2">
     <g id="line2d_2">
      <g>
       <use xlink:href="#m47337c7053" x="125.198438" y="150.8" style="fill: #bbbbbb; stroke: #bbbbbb; stroke-width: 0.75"/>
      </g>
     </g>
     <g id="text_2">
      <!-- 100000 -->
      <g style="fill: #9f9f9f" transform="translate(111.660938 163.5075) scale(0.08 -0.08)">
       <defs>
        <path id="Ubuntu-31" d="M 595 3520 
Q 960 3661 1305 3881 
Q 1651 4102 1939 4435 
L 2362 4435 
L 2362 0 
L 1766 0 
L 1766 3610 
Q 1690 3539 1578 3462 
Q 1466 3386 1334 3315 
Q 1203 3245 1059 3181 
Q 915 3117 781 3072 
L 595 3520 
z
" transform="scale(0.015625)"/>
       </defs>
       <use xlink:href="#Ubuntu-31"/>
       <use xlink:href="#Ubuntu-30" x="56.399994"/>
       <use xlink:href="#Ubuntu-30" x="112.799988"/>
       <use xlink:href="#Ubuntu-30" x="169.199982"/>
       <use xlink:href="#Ubuntu-30" x="225.599976"/>
       <use xlink:href="#Ubuntu-30" x="281.999969"/>
      </g>
     </g>
    </g>
    <g id="xtick_3">
     <g id="line2d_3">
      <g>
       <use xlink:href="#m47337c7053" x="187.973438" y="150.8" style="fill: #bbbbbb; stroke: #bbbbbb; stroke-width: 0.75"/>
      </g>
     </g>
     <g id="text_3">
      <!-- 200000 -->
      <g style="fill: #9f9f9f" transform="translate(174.435938 163.5075) scale(0.08 -0.08)">
       <defs>
        <path id="Ubuntu-32" d="M 2989 3302 
Q 2989 3072 2896 2857 
Q 2803 2643 2649 2435 
Q 2496 2227 2304 2025 
Q 2112 1824 1920 1632 
Q 1811 1523 1667 1376 
Q 1523 1229 1395 1069 
Q 1267 909 1180 761 
Q 1094 614 1094 506 
L 3136 506 
L 3136 0 
L 448 0 
Q 442 38 442 76 
Q 442 115 442 147 
Q 442 448 541 707 
Q 640 966 800 1196 
Q 960 1427 1158 1632 
Q 1357 1837 1549 2029 
Q 1709 2182 1853 2332 
Q 1997 2483 2109 2633 
Q 2221 2784 2288 2944 
Q 2355 3104 2355 3283 
Q 2355 3475 2294 3609 
Q 2234 3744 2131 3833 
Q 2029 3923 1891 3964 
Q 1754 4006 1600 4006 
Q 1414 4006 1260 3955 
Q 1107 3904 985 3837 
Q 864 3770 781 3696 
Q 698 3622 653 3584 
L 358 4006 
Q 416 4070 531 4163 
Q 646 4256 806 4339 
Q 966 4422 1164 4480 
Q 1363 4538 1594 4538 
Q 2291 4538 2640 4214 
Q 2989 3891 2989 3302 
z
" transform="scale(0.015625)"/>
       </defs>
       <use xlink:href="#Ubuntu-32"/>
       <use xlink:href="#Ubuntu-30" x="56.399994"/>
       <use xlink:href="#Ubuntu-30" x="112.799988"/>
       <use xlink:href="#Ubuntu-30" x="169.199982"/>
       <use xlink:href="#Ubuntu-30" x="225.599976"/>
       <use xlink:href="#Ubuntu-30" x="281.999969"/>
      </g>
     </g>
    </g>
    <g id="xtick_4">
     <g id="line2d_4">
      <g>
       <use xlink:href="#m47337c7053" x="250.748438" y="150.8" style="fill: #bbbbbb; stroke: #bbbbbb; stroke-width: 0.75"/>
      </g>
     </g>
     <g id="text_4">
      <!-- 300000 -->
      <g style="fill: #9f9f9f" transform="translate(237.210938 163.5075) scale(0.08 -0.08)">
       <defs>
        <path id="Ubuntu-33" d="M 1446 435 
Q 2016 435 2262 659 
Q 2509 883 2509 1261 
Q 2509 1504 2406 1670 
Q 2304 1837 2137 1936 
Q 1971 2035 1750 2076 
Q 1530 2118 1299 2118 
L 1146 2118 
L 1146 2605 
L 1357 2605 
Q 1517 2605 1686 2637 
Q 1856 2669 1997 2752 
Q 2138 2835 2227 2979 
Q 2317 3123 2317 3341 
Q 2317 3520 2253 3648 
Q 2189 3776 2083 3859 
Q 1978 3942 1840 3977 
Q 1702 4013 1549 4013 
Q 1242 4013 1027 3923 
Q 813 3834 666 3738 
L 435 4192 
Q 512 4243 630 4304 
Q 749 4365 896 4416 
Q 1043 4467 1212 4502 
Q 1382 4538 1568 4538 
Q 1920 4538 2176 4451 
Q 2432 4365 2598 4208 
Q 2765 4051 2848 3836 
Q 2931 3622 2931 3373 
Q 2931 3027 2732 2780 
Q 2534 2534 2253 2406 
Q 2426 2355 2586 2259 
Q 2746 2163 2864 2016 
Q 2982 1869 3056 1677 
Q 3130 1485 3130 1248 
Q 3130 960 3030 713 
Q 2931 467 2723 288 
Q 2515 109 2201 6 
Q 1888 -96 1459 -96 
Q 1293 -96 1117 -70 
Q 941 -45 787 -6 
Q 634 32 518 70 
Q 403 109 352 134 
L 467 653 
Q 576 602 829 518 
Q 1082 435 1446 435 
z
" transform="scale(0.015625)"/>
       </defs>
       <use xlink:href="#Ubuntu-33"/>
       <use xlink:href="#Ubuntu-30" x="56.399994"/>
       <use xlink:href="#Ubuntu-30" x="112.799988"/>
       <use xlink:href="#Ubuntu-30" x="169.199982"/>
       <use xlink:href="#Ubuntu-30" x="225.599976"/>
       <use xlink:href="#Ubuntu-30" x="281.999969"/>
      </g>
     </g>
    </g>
    <g id="xtick_5">
     <g id="line2d_5">
      <g>
       <use xlink:href="#m47337c7053" x="313.523438" y="150.8" style="fill: #bbbbbb; stroke: #bbbbbb; stroke-width: 0.75"/>
      </g>
     </g>
     <g id="text_5">
      <!-- 400000 -->
      <g style="fill: #9f9f9f" transform="translate(299.985938 163.5075) scale(0.08 -0.08)">
       <defs>
        <path id="Ubuntu-34" d="M 256 1536 
Q 378 1818 589 2192 
Q 800 2566 1065 2963 
Q 1331 3360 1635 3744 
Q 1939 4128 2246 4435 
L 2816 4435 
L 2816 1619 
L 3341 1619 
L 3341 1133 
L 2816 1133 
L 2816 0 
L 2240 0 
L 2240 1133 
L 256 1133 
L 256 1536 
z
M 2240 3731 
Q 2048 3526 1853 3273 
Q 1658 3021 1472 2745 
Q 1286 2470 1123 2182 
Q 960 1894 832 1619 
L 2240 1619 
L 2240 3731 
z
" transform="scale(0.015625)"/>
       </defs>
       <use xlink:href="#Ubuntu-34"/>
       <use xlink:href="#Ubuntu-30" x="56.399994"/>
       <use xlink:href="#Ubuntu-30" x="112.799988"/>
       <use xlink:href="#Ubuntu-30" x="169.199982"/>
       <use xlink:href="#Ubuntu-30" x="225.599976"/>
       <use xlink:href="#Ubuntu-30" x="281.999969"/>
      </g>
     </g>
    </g>
    <g id="xtick_6">
     <g id="line2d_6">
      <g>
       <use xlink:href="#m47337c7053" x="376.298438" y="150.8" style="fill: #bbbbbb; stroke: #bbbbbb; stroke-width: 0.75"/>
      </g>
     </g>
     <g id="text_6">
      <!-- 500000 -->
      <g style="fill: #9f9f9f" transform="translate(362.760938 163.5075) scale(0.08 -0.08)">
       <defs>
        <path id="Ubuntu-35" d="M 1274 2726 
Q 2240 2688 2691 2304 
Q 3142 1920 3142 1261 
Q 3142 966 3043 716 
Q 2944 467 2742 288 
Q 2541 109 2233 6 
Q 1926 -96 1504 -96 
Q 1338 -96 1165 -70 
Q 992 -45 845 -6 
Q 698 32 582 70 
Q 467 109 416 134 
L 531 653 
Q 640 602 886 518 
Q 1133 435 1491 435 
Q 1779 435 1974 499 
Q 2170 563 2291 672 
Q 2413 781 2467 925 
Q 2522 1069 2522 1229 
Q 2522 1472 2438 1661 
Q 2355 1850 2144 1978 
Q 1933 2106 1581 2173 
Q 1229 2240 691 2240 
Q 730 2554 752 2829 
Q 774 3104 793 3366 
Q 813 3629 825 3888 
Q 838 4147 851 4435 
L 2989 4435 
L 2989 3930 
L 1370 3930 
Q 1363 3834 1350 3670 
Q 1338 3507 1325 3331 
Q 1312 3155 1299 2988 
Q 1286 2822 1274 2726 
z
" transform="scale(0.015625)"/>
       </defs>
       <use xlink:href="#Ubuntu-35"/>
       <use xlink:href="#Ubuntu-30" x="56.399994"/>
       <use xlink:href="#Ubuntu-30" x="112.799988"/>
       <use xlink:href="#Ubuntu-30" x="169.199982"/>
       <use xlink:href="#Ubuntu-30" x="225.599976"/>
       <use xlink:href="#Ubuntu-30" x="281.999969"/>
      </g>
     </g>
    </g>
    <g id="xtick_7">
     <g id="line2d_7">
      <g>
       <use xlink:href="#m47337c7053" x="439.073438" y="150.8" style="fill: #bbbbbb; stroke: #bbbbbb; stroke-width: 0.75"/>
      </g>
     </g>
     <g id="text_7">
      <!-- 600000 -->
      <g style="fill: #9f9f9f" transform="translate(425.535938 163.5075) scale(0.08 -0.08)">
       <defs>
        <path id="Ubuntu-36" d="M 403 1779 
Q 403 2426 582 2922 
Q 762 3418 1091 3757 
Q 1421 4096 1891 4272 
Q 2362 4448 2950 4454 
L 2995 3955 
Q 2618 3949 2307 3872 
Q 1997 3795 1753 3628 
Q 1510 3462 1344 3196 
Q 1178 2931 1094 2541 
Q 1261 2618 1469 2669 
Q 1677 2720 1901 2720 
Q 2278 2720 2540 2605 
Q 2803 2490 2969 2301 
Q 3136 2112 3209 1865 
Q 3283 1619 3283 1350 
Q 3283 1107 3200 851 
Q 3117 595 2947 384 
Q 2778 173 2515 38 
Q 2253 -96 1894 -96 
Q 1165 -96 784 403 
Q 403 902 403 1779 
z
M 1837 2234 
Q 1613 2234 1421 2192 
Q 1229 2150 1037 2067 
Q 1030 1997 1027 1923 
Q 1024 1850 1024 1779 
Q 1024 1498 1062 1248 
Q 1101 998 1200 809 
Q 1299 621 1465 509 
Q 1632 397 1888 397 
Q 2099 397 2246 486 
Q 2394 576 2490 717 
Q 2586 858 2627 1021 
Q 2669 1184 2669 1338 
Q 2669 1773 2461 2003 
Q 2253 2234 1837 2234 
z
" transform="scale(0.015625)"/>
       </defs>
       <use xlink:href="#Ubuntu-36"/>
       <use xlink:href="#Ubuntu-30" x="56.399994"/>
       <use xlink:href="#Ubuntu-30" x="112.799988"/>
       <use xlink:href="#Ubuntu-30" x="169.199982"/>
       <use xlink:href="#Ubuntu-30" x="225.599976"/>
       <use xlink:href="#Ubuntu-30" x="281.999969"/>
      </g>
     </g>
    </g>
    <g id="xtick_8">
     <g id="line2d_8">
      <g>
       <use xlink:href="#m47337c7053" x="501.848438" y="150.8" style="fill: #bbbbbb; stroke: #bbbbbb; stroke-width: 0.75"/>
      </g>
     </g>
     <g id="text_8">
      <!-- 700000 -->
      <g style="fill: #9f9f9f" transform="translate(488.310938 163.5075) scale(0.08 -0.08)">
       <defs>
        <path id="Ubuntu-37" d="M 1043 0 
Q 1082 512 1226 1078 
Q 1370 1645 1581 2179 
Q 1792 2714 2045 3171 
Q 2298 3629 2541 3917 
L 384 3917 
L 384 4435 
L 3206 4435 
L 3206 3942 
Q 2995 3699 2739 3273 
Q 2483 2848 2256 2320 
Q 2029 1792 1865 1193 
Q 1702 595 1664 0 
L 1043 0 
z
" transform="scale(0.015625)"/>
       </defs>
       <use xlink:href="#Ubuntu-37"/>
       <use xlink:href="#Ubuntu-30" x="56.399994"/>
       <use xlink:href="#Ubuntu-30" x="112.799988"/>
       <use xlink:href="#Ubuntu-30" x="169.199982"/>
       <use xlink:href="#Ubuntu-30" x="225.599976"/>
       <use xlink:href="#Ubuntu-30" x="281.999969"/>
      </g>
     </g>
    </g>
    <g id="xtick_9">
     <g id="line2d_9">
      <g>
       <use xlink:href="#m47337c7053" x="564.623438" y="150.8" style="fill: #bbbbbb; stroke: #bbbbbb; stroke-width: 0.75"/>
      </g>
     </g>
     <g id="text_9">
      <!-- 800000 -->
      <g style="fill: #9f9f9f" transform="translate(551.085938 163.5075) scale(0.08 -0.08)">
       <defs>
        <path id="Ubuntu-38" d="M 3258 1152 
Q 3258 883 3165 656 
Q 3072 429 2889 259 
Q 2707 90 2432 -3 
Q 2157 -96 1798 -96 
Q 1382 -96 1104 22 
Q 826 141 659 320 
Q 493 499 422 713 
Q 352 928 352 1120 
Q 352 1306 413 1475 
Q 474 1645 573 1792 
Q 672 1939 803 2057 
Q 934 2176 1082 2266 
Q 454 2624 454 3322 
Q 454 3565 550 3785 
Q 646 4006 822 4172 
Q 998 4339 1248 4438 
Q 1498 4538 1805 4538 
Q 2163 4538 2419 4429 
Q 2675 4320 2838 4150 
Q 3002 3981 3075 3776 
Q 3149 3571 3149 3379 
Q 3149 3194 3094 3030 
Q 3040 2867 2947 2726 
Q 2854 2586 2736 2477 
Q 2618 2368 2490 2285 
Q 3245 1926 3258 1152 
z
M 954 1114 
Q 954 998 995 873 
Q 1037 749 1139 643 
Q 1242 538 1402 467 
Q 1562 397 1805 397 
Q 2022 397 2185 461 
Q 2349 525 2451 624 
Q 2554 723 2605 851 
Q 2656 979 2656 1114 
Q 2656 1318 2579 1472 
Q 2502 1626 2358 1741 
Q 2214 1856 2012 1936 
Q 1811 2016 1555 2074 
Q 1267 1914 1110 1677 
Q 954 1440 954 1114 
z
M 2554 3386 
Q 2554 3482 2512 3597 
Q 2470 3712 2380 3811 
Q 2291 3910 2150 3977 
Q 2010 4045 1805 4045 
Q 1600 4045 1456 3981 
Q 1312 3917 1222 3817 
Q 1133 3718 1091 3600 
Q 1050 3482 1050 3366 
Q 1050 3226 1101 3085 
Q 1152 2944 1261 2822 
Q 1370 2701 1546 2605 
Q 1722 2509 1965 2451 
Q 2234 2611 2394 2825 
Q 2554 3040 2554 3386 
z
" transform="scale(0.015625)"/>
       </defs>
       <use xlink:href="#Ubuntu-38"/>
       <use xlink:href="#Ubuntu-30" x="56.399994"/>
       <use xlink:href="#Ubuntu-30" x="112.799988"/>
       <use xlink:href="#Ubuntu-30" x="169.199982"/>
       <use xlink:href="#Ubuntu-30" x="225.599976"/>
       <use xlink:href="#Ubuntu-30" x="281.999969"/>
      </g>
     </g>
    </g>
    <g id="text_10">
     <!-- Actual -->
     <g style="fill: #505050" transform="translate(62.423438 179.970938) scale(0.09 -0.09)">
      <defs>
       <path id="Ubuntu-Bold-41" d="M 3482 0 
Q 3411 230 3324 473 
Q 3238 717 3155 960 
L 1427 960 
Q 1344 717 1257 473 
Q 1171 230 1101 0 
L 64 0 
Q 314 717 538 1325 
Q 762 1933 976 2470 
Q 1190 3008 1398 3491 
Q 1606 3974 1830 4435 
L 2784 4435 
Q 3002 3974 3213 3491 
Q 3424 3008 3638 2470 
Q 3853 1933 4077 1325 
Q 4301 717 4550 0 
L 3482 0 
z
M 2285 3430 
Q 2253 3334 2189 3168 
Q 2125 3002 2041 2784 
Q 1958 2566 1859 2304 
Q 1760 2042 1658 1754 
L 2918 1754 
Q 2816 2042 2720 2304 
Q 2624 2566 2537 2784 
Q 2451 3002 2387 3168 
Q 2323 3334 2285 3430 
z
" transform="scale(0.015625)"/>
       <path id="Ubuntu-Bold-63" d="M 288 1683 
Q 288 2048 406 2371 
Q 525 2694 749 2934 
Q 973 3174 1293 3315 
Q 1613 3456 2022 3456 
Q 2291 3456 2515 3408 
Q 2739 3360 2950 3270 
L 2752 2509 
Q 2618 2560 2458 2598 
Q 2298 2637 2099 2637 
Q 1677 2637 1469 2374 
Q 1261 2112 1261 1683 
Q 1261 1229 1456 979 
Q 1651 730 2138 730 
Q 2310 730 2508 762 
Q 2707 794 2874 864 
L 3008 83 
Q 2842 13 2592 -38 
Q 2342 -90 2042 -90 
Q 1581 -90 1248 48 
Q 915 186 700 422 
Q 486 659 387 982 
Q 288 1306 288 1683 
z
" transform="scale(0.015625)"/>
       <path id="Ubuntu-Bold-74" d="M 416 4205 
L 1370 4358 
L 1370 3366 
L 2515 3366 
L 2515 2573 
L 1370 2573 
L 1370 1389 
Q 1370 1088 1475 909 
Q 1581 730 1901 730 
Q 2054 730 2217 758 
Q 2381 787 2515 838 
L 2650 96 
Q 2477 26 2265 -25 
Q 2054 -77 1747 -77 
Q 1357 -77 1101 28 
Q 845 134 691 323 
Q 538 512 477 781 
Q 416 1050 416 1376 
L 416 4205 
z
" transform="scale(0.015625)"/>
       <path id="Ubuntu-Bold-75" d="M 3322 115 
Q 3078 45 2694 -16 
Q 2310 -77 1888 -77 
Q 1459 -77 1174 38 
Q 890 154 723 362 
Q 557 570 486 858 
Q 416 1146 416 1491 
L 416 3366 
L 1370 3366 
L 1370 1606 
Q 1370 1146 1491 941 
Q 1613 736 1946 736 
Q 2048 736 2163 745 
Q 2278 755 2368 768 
L 2368 3366 
L 3322 3366 
L 3322 115 
z
" transform="scale(0.015625)"/>
       <path id="Ubuntu-Bold-61" d="M 1734 666 
Q 1875 666 2003 672 
Q 2131 678 2208 691 
L 2208 1414 
Q 2150 1427 2035 1440 
Q 1920 1453 1824 1453 
Q 1690 1453 1571 1437 
Q 1453 1421 1363 1376 
Q 1274 1331 1222 1254 
Q 1171 1178 1171 1062 
Q 1171 838 1321 752 
Q 1472 666 1734 666 
z
M 1658 3456 
Q 2080 3456 2361 3360 
Q 2643 3264 2812 3085 
Q 2982 2906 3052 2650 
Q 3123 2394 3123 2080 
L 3123 96 
Q 2918 51 2553 -9 
Q 2189 -70 1670 -70 
Q 1344 -70 1078 -12 
Q 813 45 621 176 
Q 429 307 326 518 
Q 224 730 224 1037 
Q 224 1331 342 1536 
Q 461 1741 659 1862 
Q 858 1984 1114 2038 
Q 1370 2093 1645 2093 
Q 1830 2093 1974 2077 
Q 2118 2061 2208 2035 
L 2208 2125 
Q 2208 2368 2061 2515 
Q 1914 2662 1549 2662 
Q 1306 2662 1069 2627 
Q 832 2592 659 2528 
L 538 3296 
Q 621 3322 745 3350 
Q 870 3379 1017 3401 
Q 1165 3424 1328 3440 
Q 1491 3456 1658 3456 
z
" transform="scale(0.015625)"/>
       <path id="Ubuntu-Bold-6c" d="M 1792 -64 
Q 1376 -58 1117 25 
Q 858 109 707 259 
Q 557 410 502 624 
Q 448 838 448 1107 
L 448 4813 
L 1402 4966 
L 1402 1299 
Q 1402 1171 1421 1068 
Q 1440 966 1494 896 
Q 1549 826 1651 781 
Q 1754 736 1926 723 
L 1792 -64 
z
" transform="scale(0.015625)"/>
      </defs>
      <use xlink:href="#Ubuntu-Bold-41"/>
      <use xlink:href="#Ubuntu-Bold-63" x="70.974991"/>
      <use xlink:href="#Ubuntu-Bold-74" x="120.974976"/>
      <use xlink:href="#Ubuntu-Bold-75" x="165.374969"/>
      <use xlink:href="#Ubuntu-Bold-61" x="224.274963"/>
      <use xlink:href="#Ubuntu-Bold-6c" x="279.574951"/>
     </g>
    </g>
   </g>
   <g id="matplotlib.axis_2">
    <g id="ytick_1">
     <g id="line2d_10">
      <defs>
       <path id="m7f95fdea39" d="M 0 0 
L -3 0 
" style="stroke: #bbbbbb; stroke-width: 0.75"/>
      </defs>
      <g>
       <use xlink:href="#m7f95fdea39" x="57.423438" y="145.8" style="fill: #bbbbbb; stroke: #bbbbbb; stroke-width: 0.75"/>
      </g>
     </g>
     <g id="text_11">
      <!-- 0 -->
      <g style="fill: #9f9f9f" transform="translate(46.410938 148.90375) scale(0.08 -0.08)">
       <use xlink:href="#Ubuntu-30"/>
      </g>
     </g>
    </g>
    <g id="ytick_2">
     <g id="line2d_11">
      <g>
       <use xlink:href="#m7f95fdea39" x="57.423438" y="127.32" style="fill: #bbbbbb; stroke: #bbbbbb; stroke-width: 0.75"/>
      </g>
     </g>
     <g id="text_12">
      <!-- 100000 -->
      <g style="fill: #9f9f9f" transform="translate(23.848438 130.42375) scale(0.08 -0.08)">
       <use xlink:href="#Ubuntu-31"/>
       <use xlink:href="#Ubuntu-30" x="56.399994"/>
       <use xlink:href="#Ubuntu-30" x="112.799988"/>
       <use xlink:href="#Ubuntu-30" x="169.199982"/>
       <use xlink:href="#Ubuntu-30" x="225.599976"/>
       <use xlink:href="#Ubuntu-30" x="281.999969"/>
      </g>
     </g>
    </g>
    <g id="ytick_3">
     <g id="line2d_12">
      <g>
       <use xlink:href="#m7f95fdea39" x="57.423438" y="108.84" style="fill: #bbbbbb; stroke: #bbbbbb; stroke-width: 0.75"/>
      </g>
     </g>
     <g id="text_13">
      <!-- 200000 -->
      <g style="fill: #9f9f9f" transform="translate(23.848438 111.94375) scale(0.08 -0.08)">
       <use xlink:href="#Ubuntu-32"/>
       <use xlink:href="#Ubuntu-30" x="56.399994"/>
       <use xlink:href="#Ubuntu-30" x="112.799988"/>
       <use xlink:href="#Ubuntu-30" x="169.199982"/>
       <use xlink:href="#Ubuntu-30" x="225.599976"/>
       <use xlink:href="#Ubuntu-30" x="281.999969"/>
      </g>
     </g>
    </g>
    <g id="ytick_4">
     <g id="line2d_13">
      <g>
       <use xlink:href="#m7f95fdea39" x="57.423438" y="90.36" style="fill: #bbbbbb; stroke: #bbbbbb; stroke-width: 0.75"/>
      </g>
     </g>
     <g id="text_14">
      <!-- 300000 -->
      <g style="fill: #9f9f9f" transform="translate(23.848438 93.46375) scale(0.08 -0.08)">
       <use xlink:href="#Ubuntu-33"/>
       <use xlink:href="#Ubuntu-30" x="56.399994"/>
       <use xlink:href="#Ubuntu-30" x="112.799988"/>
       <use xlink:href="#Ubuntu-30" x="169.199982"/>
       <use xlink:href="#Ubuntu-30" x="225.599976"/>
       <use xlink:href="#Ubuntu-30" x="281.999969"/>
      </g>
     </g>
    </g>
    <g id="ytick_5">
     <g id="line2d_14">
      <g>
       <use xlink:href="#m7f95fdea39" x="57.423438" y="71.88" style="fill: #bbbbbb; stroke: #bbbbbb; stroke-width: 0.75"/>
      </g>
     </g>
     <g id="text_15">
      <!-- 400000 -->
      <g style="fill: #9f9f9f" transform="translate(23.848438 74.98375) scale(0.08 -0.08)">
       <use xlink:href="#Ubuntu-34"/>
       <use xlink:href="#Ubuntu-30" x="56.399994"/>
       <use xlink:href="#Ubuntu-30" x="112.799988"/>
       <use xlink:href="#Ubuntu-30" x="169.199982"/>
       <use xlink:href="#Ubuntu-30" x="225.599976"/>
       <use xlink:href="#Ubuntu-30" x="281.999969"/>
      </g>
     </g>
    </g>
    <g id="ytick_6">
     <g id="line2d_15">
      <g>
       <use xlink:href="#m7f95fdea39" x="57.423438" y="53.4" style="fill: #bbbbbb; stroke: #bbbbbb; stroke-width: 0.75"/>
      </g>
     </g>
     <g id="text_16">
      <!-- 500000 -->
      <g style="fill: #9f9f9f" transform="translate(23.848438 56.50375) scale(0.08 -0.08)">
       <use xlink:href="#Ubuntu-35"/>
       <use xlink:href="#Ubuntu-30" x="56.399994"/>
       <use xlink:href="#Ubuntu-30" x="112.799988"/>
       <use xlink:href="#Ubuntu-30" x="169.199982"/>
       <use xlink:href="#Ubuntu-30" x="225.599976"/>
       <use xlink:href="#Ubuntu-30" x="281.999969"/>
      </g>
     </g>
    </g>
    <g id="ytick_7">
     <g id="line2d_16">
      <g>
       <use xlink:href="#m7f95fdea39" x="57.423438" y="34.92" style="fill: #bbbbbb; stroke: #bbbbbb; stroke-width: 0.75"/>
      </g>
     </g>
     <g id="text_17">
      <!-- 600000 -->
      <g style="fill: #9f9f9f" transform="translate(23.848438 38.02375) scale(0.08 -0.08)">
       <use xlink:href="#Ubuntu-36"/>
       <use xlink:href="#Ubuntu-30" x="56.399994"/>
       <use xlink:href="#Ubuntu-30" x="112.799988"/>
       <use xlink:href="#Ubuntu-30" x="169.199982"/>
       <use xlink:href="#Ubuntu-30" x="225.599976"/>
       <use xlink:href="#Ubuntu-30" x="281.999969"/>
      </g>
     </g>
    </g>
    <g id="ytick_8">
     <g id="line2d_17">
      <g>
       <use xlink:href="#m7f95fdea39" x="57.423438" y="16.44" style="fill: #bbbbbb; stroke: #bbbbbb; stroke-width: 0.75"/>
      </g>
     </g>
     <g id="text_18">
      <!-- 700000 -->
      <g style="fill: #9f9f9f" transform="translate(23.848438 19.54375) scale(0.08 -0.08)">
       <use xlink:href="#Ubuntu-37"/>
       <use xlink:href="#Ubuntu-30" x="56.399994"/>
       <use xlink:href="#Ubuntu-30" x="112.799988"/>
       <use xlink:href="#Ubuntu-30" x="169.199982"/>
       <use xlink:href="#Ubuntu-30" x="225.599976"/>
       <use xlink:href="#Ubuntu-30" x="281.999969"/>
      </g>
     </g>
    </g>
    <g id="text_19">
     <!-- Predicted -->
     <g style="fill: #505050" transform="translate(14.183438 49.009219) rotate(-90) scale(0.09 -0.09)">
      <defs>
       <path id="Ubuntu-Bold-50" d="M 1843 4486 
Q 2835 4486 3366 4137 
Q 3898 3789 3898 2995 
Q 3898 2195 3360 1840 
Q 2822 1485 1824 1485 
L 1510 1485 
L 1510 0 
L 512 0 
L 512 4371 
Q 838 4435 1203 4460 
Q 1568 4486 1843 4486 
z
M 1907 3635 
Q 1798 3635 1692 3628 
Q 1587 3622 1510 3616 
L 1510 2336 
L 1824 2336 
Q 2342 2336 2604 2477 
Q 2867 2618 2867 3002 
Q 2867 3187 2800 3308 
Q 2733 3430 2608 3504 
Q 2483 3578 2304 3606 
Q 2125 3635 1907 3635 
z
" transform="scale(0.015625)"/>
       <path id="Ubuntu-Bold-72" d="M 2477 2522 
Q 2349 2554 2176 2589 
Q 2003 2624 1805 2624 
Q 1715 2624 1590 2608 
Q 1466 2592 1402 2573 
L 1402 0 
L 448 0 
L 448 3187 
Q 704 3277 1053 3357 
Q 1402 3437 1830 3437 
Q 1907 3437 2016 3427 
Q 2125 3418 2233 3402 
Q 2342 3386 2451 3363 
Q 2560 3341 2637 3309 
L 2477 2522 
z
" transform="scale(0.015625)"/>
       <path id="Ubuntu-Bold-65" d="M 288 1658 
Q 288 2106 425 2442 
Q 563 2778 787 3002 
Q 1011 3226 1302 3341 
Q 1594 3456 1901 3456 
Q 2618 3456 3034 3017 
Q 3450 2579 3450 1728 
Q 3450 1645 3443 1545 
Q 3437 1446 3430 1370 
L 1267 1370 
Q 1299 1075 1542 902 
Q 1786 730 2195 730 
Q 2458 730 2710 778 
Q 2963 826 3123 896 
L 3251 122 
Q 3174 83 3046 44 
Q 2918 6 2761 -22 
Q 2605 -51 2425 -70 
Q 2246 -90 2067 -90 
Q 1613 -90 1277 44 
Q 941 179 720 412 
Q 499 646 393 966 
Q 288 1286 288 1658 
z
M 2528 2022 
Q 2522 2144 2486 2259 
Q 2451 2374 2377 2464 
Q 2304 2554 2192 2611 
Q 2080 2669 1914 2669 
Q 1754 2669 1638 2614 
Q 1523 2560 1446 2470 
Q 1370 2381 1328 2262 
Q 1286 2144 1267 2022 
L 2528 2022 
z
" transform="scale(0.015625)"/>
       <path id="Ubuntu-Bold-64" d="M 1261 1709 
Q 1261 1267 1459 998 
Q 1658 730 2048 730 
Q 2176 730 2285 739 
Q 2394 749 2464 762 
L 2464 2496 
Q 2374 2554 2230 2592 
Q 2086 2630 1939 2630 
Q 1261 2630 1261 1709 
z
M 3418 109 
Q 3290 70 3123 35 
Q 2957 0 2774 -25 
Q 2592 -51 2403 -67 
Q 2214 -83 2042 -83 
Q 1626 -83 1299 38 
Q 973 160 749 387 
Q 525 614 406 937 
Q 288 1261 288 1664 
Q 288 2074 390 2403 
Q 493 2733 685 2963 
Q 877 3194 1155 3315 
Q 1434 3437 1792 3437 
Q 1990 3437 2147 3398 
Q 2304 3360 2464 3290 
L 2464 4813 
L 3418 4966 
L 3418 109 
z
" transform="scale(0.015625)"/>
       <path id="Ubuntu-Bold-69" d="M 1402 0 
L 448 0 
L 448 3366 
L 1402 3366 
L 1402 0 
z
M 1491 4339 
Q 1491 4077 1321 3926 
Q 1152 3776 922 3776 
Q 691 3776 521 3926 
Q 352 4077 352 4339 
Q 352 4602 521 4752 
Q 691 4902 922 4902 
Q 1152 4902 1321 4752 
Q 1491 4602 1491 4339 
z
" transform="scale(0.015625)"/>
      </defs>
      <use xlink:href="#Ubuntu-Bold-50"/>
      <use xlink:href="#Ubuntu-Bold-72" x="64.399994"/>
      <use xlink:href="#Ubuntu-Bold-65" x="105.599991"/>
      <use xlink:href="#Ubuntu-Bold-64" x="163.999985"/>
      <use xlink:href="#Ubuntu-Bold-69" x="224.399979"/>
      <use xlink:href="#Ubuntu-Bold-63" x="253.299973"/>
      <use xlink:href="#Ubuntu-Bold-74" x="303.299957"/>
      <use xlink:href="#Ubuntu-Bold-65" x="345.699951"/>
      <use xlink:href="#Ubuntu-Bold-64" x="404.099945"/>
     </g>
    </g>
   </g>
   <g id="PathCollection_1">
    <defs>
     <path id="m0f163e66e2" d="M 0 1.5 
C 0.397805 1.5 0.77937 1.341951 1.06066 1.06066 
C 1.341951 0.77937 1.5 0.397805 1.5 0 
C 1.5 -0.397805 1.341951 -0.77937 1.06066 -1.06066 
C 0.77937 -1.341951 0.397805 -1.5 0 -1.5 
C -0.397805 -1.5 -0.77937 -1.341951 -1.06066 -1.06066 
C -1.341951 -0.77937 -1.5 -0.397805 -1.5 0 
C -1.5 0.397805 -1.341951 0.77937 -1.06066 1.06066 
C -0.77937 1.341951 -0.397805 1.5 0 1.5 
z
" style="stroke: #ffffff; stroke-width: 0.24"/>
    </defs>
    <g clip-path="url(#p2a0ddc7d87)">
     <use xlink:href="#m0f163e66e2" x="159.410812" y="118.447752" style="fill: #5d5d5d; stroke: #ffffff; stroke-width: 0.24"/>
     <use xlink:href="#m0f163e66e2" x="266.442187" y="85.08821" style="fill: #5d5d5d; stroke: #ffffff; stroke-width: 0.24"/>
     <use xlink:href="#m0f163e66e2" x="134.614688" y="125.825892" style="fill: #5d5d5d; stroke: #ffffff; stroke-width: 0.24"/>
     <use xlink:href="#m0f163e66e2" x="162.235688" y="116.980625" style="fill: #5d5d5d; stroke: #ffffff; stroke-width: 0.24"/>
     <use xlink:href="#m0f163e66e2" x="260.478563" y="82.446864" style="fill: #5d5d5d; stroke: #ffffff; stroke-width: 0.24"/>
     <use xlink:href="#m0f163e66e2" x="109.818563" y="131.654484" style="fill: #5d5d5d; stroke: #ffffff; stroke-width: 0.24"/>
     <use xlink:href="#m0f163e66e2" x="257.967562" y="98.954863" style="fill: #5d5d5d; stroke: #ffffff; stroke-width: 0.24"/>
     <use xlink:href="#m0f163e66e2" x="154.074937" y="119.91913" style="fill: #5d5d5d; stroke: #ffffff; stroke-width: 0.24"/>
     <use xlink:href="#m0f163e66e2" x="115.468313" y="131.475782" style="fill: #5d5d5d; stroke: #ffffff; stroke-width: 0.24"/>
     <use xlink:href="#m0f163e66e2" x="147.483563" y="118.849322" style="fill: #5d5d5d; stroke: #ffffff; stroke-width: 0.24"/>
     <use xlink:href="#m0f163e66e2" x="153.447187" y="119.251817" style="fill: #5d5d5d; stroke: #ffffff; stroke-width: 0.24"/>
     <use xlink:href="#m0f163e66e2" x="144.030938" y="124.137559" style="fill: #5d5d5d; stroke: #ffffff; stroke-width: 0.24"/>
     <use xlink:href="#m0f163e66e2" x="113.271187" y="131.706967" style="fill: #5d5d5d; stroke: #ffffff; stroke-width: 0.24"/>
     <use xlink:href="#m0f163e66e2" x="196.761938" y="107.945753" style="fill: #5d5d5d; stroke: #ffffff; stroke-width: 0.24"/>
     <use xlink:href="#m0f163e66e2" x="176.046187" y="115.235558" style="fill: #5d5d5d; stroke: #ffffff; stroke-width: 0.24"/>
     <use xlink:href="#m0f163e66e2" x="146.855813" y="121.228622" style="fill: #5d5d5d; stroke: #ffffff; stroke-width: 0.24"/>
     <use xlink:href="#m0f163e66e2" x="177.615562" y="110.00424" style="fill: #5d5d5d; stroke: #ffffff; stroke-width: 0.24"/>
     <use xlink:href="#m0f163e66e2" x="147.169688" y="122.196974" style="fill: #5d5d5d; stroke: #ffffff; stroke-width: 0.24"/>
     <use xlink:href="#m0f163e66e2" x="136.749038" y="125.885028" style="fill: #5d5d5d; stroke: #ffffff; stroke-width: 0.24"/>
     <use xlink:href="#m0f163e66e2" x="204.294938" y="106.255018" style="fill: #5d5d5d; stroke: #ffffff; stroke-width: 0.24"/>
     <use xlink:href="#m0f163e66e2" x="159.724688" y="121.192217" style="fill: #5d5d5d; stroke: #ffffff; stroke-width: 0.24"/>
     <use xlink:href="#m0f163e66e2" x="194.250938" y="107.116925" style="fill: #5d5d5d; stroke: #ffffff; stroke-width: 0.24"/>
     <use xlink:href="#m0f163e66e2" x="171.338063" y="113.705045" style="fill: #5d5d5d; stroke: #ffffff; stroke-width: 0.24"/>
     <use xlink:href="#m0f163e66e2" x="143.403188" y="122.310257" style="fill: #5d5d5d; stroke: #ffffff; stroke-width: 0.24"/>
     <use xlink:href="#m0f163e66e2" x="182.951437" y="108.813204" style="fill: #5d5d5d; stroke: #ffffff; stroke-width: 0.24"/>
     <use xlink:href="#m0f163e66e2" x="159.034162" y="114.983861" style="fill: #5d5d5d; stroke: #ffffff; stroke-width: 0.24"/>
     <use xlink:href="#m0f163e66e2" x="176.130306" y="110.666563" style="fill: #5d5d5d; stroke: #ffffff; stroke-width: 0.24"/>
     <use xlink:href="#m0f163e66e2" x="150.936188" y="125.357609" style="fill: #5d5d5d; stroke: #ffffff; stroke-width: 0.24"/>
     <use xlink:href="#m0f163e66e2" x="176.046187" y="113.967461" style="fill: #5d5d5d; stroke: #ffffff; stroke-width: 0.24"/>
     <use xlink:href="#m0f163e66e2" x="193.560412" y="108.428266" style="fill: #5d5d5d; stroke: #ffffff; stroke-width: 0.24"/>
     <use xlink:href="#m0f163e66e2" x="142.147688" y="123.799375" style="fill: #5d5d5d; stroke: #ffffff; stroke-width: 0.24"/>
     <use xlink:href="#m0f163e66e2" x="240.704438" y="96.716381" style="fill: #5d5d5d; stroke: #ffffff; stroke-width: 0.24"/>
     <use xlink:href="#m0f163e66e2" x="188.287313" y="107.36123" style="fill: #5d5d5d; stroke: #ffffff; stroke-width: 0.24"/>
     <use xlink:href="#m0f163e66e2" x="147.6405" y="123.410556" style="fill: #5d5d5d; stroke: #ffffff; stroke-width: 0.24"/>
     <use xlink:href="#m0f163e66e2" x="222.499687" y="98.168354" style="fill: #5d5d5d; stroke: #ffffff; stroke-width: 0.24"/>
     <use xlink:href="#m0f163e66e2" x="150.308437" y="117.985198" style="fill: #5d5d5d; stroke: #ffffff; stroke-width: 0.24"/>
     <use xlink:href="#m0f163e66e2" x="149.052937" y="119.599795" style="fill: #5d5d5d; stroke: #ffffff; stroke-width: 0.24"/>
     <use xlink:href="#m0f163e66e2" x="200.214563" y="108.316462" style="fill: #5d5d5d; stroke: #ffffff; stroke-width: 0.24"/>
     <use xlink:href="#m0f163e66e2" x="257.025938" y="85.71653" style="fill: #5d5d5d; stroke: #ffffff; stroke-width: 0.24"/>
     <use xlink:href="#m0f163e66e2" x="123.315188" y="127.647466" style="fill: #5d5d5d; stroke: #ffffff; stroke-width: 0.24"/>
     <use xlink:href="#m0f163e66e2" x="134.300813" y="125.040122" style="fill: #5d5d5d; stroke: #ffffff; stroke-width: 0.24"/>
     <use xlink:href="#m0f163e66e2" x="191.112188" y="102.607805" style="fill: #5d5d5d; stroke: #ffffff; stroke-width: 0.24"/>
     <use xlink:href="#m0f163e66e2" x="137.439563" y="123.558211" style="fill: #5d5d5d; stroke: #ffffff; stroke-width: 0.24"/>
     <use xlink:href="#m0f163e66e2" x="221.428118" y="83.099208" style="fill: #5d5d5d; stroke: #ffffff; stroke-width: 0.24"/>
     <use xlink:href="#m0f163e66e2" x="143.089313" y="122.445161" style="fill: #5d5d5d; stroke: #ffffff; stroke-width: 0.24"/>
     <use xlink:href="#m0f163e66e2" x="136.184062" y="123.185285" style="fill: #5d5d5d; stroke: #ffffff; stroke-width: 0.24"/>
     <use xlink:href="#m0f163e66e2" x="134.614688" y="125.912378" style="fill: #5d5d5d; stroke: #ffffff; stroke-width: 0.24"/>
     <use xlink:href="#m0f163e66e2" x="142.147688" y="121.765651" style="fill: #5d5d5d; stroke: #ffffff; stroke-width: 0.24"/>
     <use xlink:href="#m0f163e66e2" x="346.13505" y="64.096224" style="fill: #5d5d5d; stroke: #ffffff; stroke-width: 0.24"/>
     <use xlink:href="#m0f163e66e2" x="152.819438" y="121.075793" style="fill: #5d5d5d; stroke: #ffffff; stroke-width: 0.24"/>
     <use xlink:href="#m0f163e66e2" x="137.125688" y="123.066274" style="fill: #5d5d5d; stroke: #ffffff; stroke-width: 0.24"/>
     <use xlink:href="#m0f163e66e2" x="185.462438" y="108.446006" style="fill: #5d5d5d; stroke: #ffffff; stroke-width: 0.24"/>
     <use xlink:href="#m0f163e66e2" x="134.614688" y="125.426354" style="fill: #5d5d5d; stroke: #ffffff; stroke-width: 0.24"/>
     <use xlink:href="#m0f163e66e2" x="242.587687" y="79.162414" style="fill: #5d5d5d; stroke: #ffffff; stroke-width: 0.24"/>
     <use xlink:href="#m0f163e66e2" x="153.133313" y="118.922134" style="fill: #5d5d5d; stroke: #ffffff; stroke-width: 0.24"/>
     <use xlink:href="#m0f163e66e2" x="225.638438" y="101.226979" style="fill: #5d5d5d; stroke: #ffffff; stroke-width: 0.24"/>
     <use xlink:href="#m0f163e66e2" x="196.134188" y="108.069384" style="fill: #5d5d5d; stroke: #ffffff; stroke-width: 0.24"/>
     <use xlink:href="#m0f163e66e2" x="172.279688" y="117.573278" style="fill: #5d5d5d; stroke: #ffffff; stroke-width: 0.24"/>
     <use xlink:href="#m0f163e66e2" x="129.592688" y="121.102958" style="fill: #5d5d5d; stroke: #ffffff; stroke-width: 0.24"/>
     <use xlink:href="#m0f163e66e2" x="129.906563" y="129.110897" style="fill: #5d5d5d; stroke: #ffffff; stroke-width: 0.24"/>
     <use xlink:href="#m0f163e66e2" x="105.424313" y="134.990494" style="fill: #5d5d5d; stroke: #ffffff; stroke-width: 0.24"/>
     <use xlink:href="#m0f163e66e2" x="159.096938" y="117.190742" style="fill: #5d5d5d; stroke: #ffffff; stroke-width: 0.24"/>
     <use xlink:href="#m0f163e66e2" x="261.420187" y="90.102574" style="fill: #5d5d5d; stroke: #ffffff; stroke-width: 0.24"/>
     <use xlink:href="#m0f163e66e2" x="228.232301" y="93.821674" style="fill: #5d5d5d; stroke: #ffffff; stroke-width: 0.24"/>
     <use xlink:href="#m0f163e66e2" x="240.367336" y="89.604907" style="fill: #5d5d5d; stroke: #ffffff; stroke-width: 0.24"/>
     <use xlink:href="#m0f163e66e2" x="214.966688" y="106.623694" style="fill: #5d5d5d; stroke: #ffffff; stroke-width: 0.24"/>
     <use xlink:href="#m0f163e66e2" x="130.848187" y="125.471261" style="fill: #5d5d5d; stroke: #ffffff; stroke-width: 0.24"/>
     <use xlink:href="#m0f163e66e2" x="253.887188" y="87.266078" style="fill: #5d5d5d; stroke: #ffffff; stroke-width: 0.24"/>
     <use xlink:href="#m0f163e66e2" x="121.118063" y="124.591058" style="fill: #5d5d5d; stroke: #ffffff; stroke-width: 0.24"/>
     <use xlink:href="#m0f163e66e2" x="172.907438" y="115.170324" style="fill: #5d5d5d; stroke: #ffffff; stroke-width: 0.24"/>
     <use xlink:href="#m0f163e66e2" x="137.036547" y="124.205381" style="fill: #5d5d5d; stroke: #ffffff; stroke-width: 0.24"/>
     <use xlink:href="#m0f163e66e2" x="146.541938" y="121.941581" style="fill: #5d5d5d; stroke: #ffffff; stroke-width: 0.24"/>
     <use xlink:href="#m0f163e66e2" x="130.85321" y="124.893391" style="fill: #5d5d5d; stroke: #ffffff; stroke-width: 0.24"/>
     <use xlink:href="#m0f163e66e2" x="121.118063" y="129.405653" style="fill: #5d5d5d; stroke: #ffffff; stroke-width: 0.24"/>
     <use xlink:href="#m0f163e66e2" x="446.391119" y="56.322797" style="fill: #5d5d5d; stroke: #ffffff; stroke-width: 0.24"/>
     <use xlink:href="#m0f163e66e2" x="171.024187" y="113.404375" style="fill: #5d5d5d; stroke: #ffffff; stroke-width: 0.24"/>
     <use xlink:href="#m0f163e66e2" x="280.880438" y="89.212022" style="fill: #5d5d5d; stroke: #ffffff; stroke-width: 0.24"/>
     <use xlink:href="#m0f163e66e2" x="276.486188" y="89.059932" style="fill: #5d5d5d; stroke: #ffffff; stroke-width: 0.24"/>
     <use xlink:href="#m0f163e66e2" x="150.936188" y="120.002105" style="fill: #5d5d5d; stroke: #ffffff; stroke-width: 0.24"/>
     <use xlink:href="#m0f163e66e2" x="140.829413" y="123.26401" style="fill: #5d5d5d; stroke: #ffffff; stroke-width: 0.24"/>
     <use xlink:href="#m0f163e66e2" x="136.497937" y="125.561443" style="fill: #5d5d5d; stroke: #ffffff; stroke-width: 0.24"/>
     <use xlink:href="#m0f163e66e2" x="104.482688" y="133.232676" style="fill: #5d5d5d; stroke: #ffffff; stroke-width: 0.24"/>
     <use xlink:href="#m0f163e66e2" x="133.359188" y="123.885492" style="fill: #5d5d5d; stroke: #ffffff; stroke-width: 0.24"/>
     <use xlink:href="#m0f163e66e2" x="119.737012" y="128.696206" style="fill: #5d5d5d; stroke: #ffffff; stroke-width: 0.24"/>
     <use xlink:href="#m0f163e66e2" x="156.272062" y="117.281849" style="fill: #5d5d5d; stroke: #ffffff; stroke-width: 0.24"/>
     <use xlink:href="#m0f163e66e2" x="145.914188" y="121.59083" style="fill: #5d5d5d; stroke: #ffffff; stroke-width: 0.24"/>
     <use xlink:href="#m0f163e66e2" x="229.404938" y="97.537817" style="fill: #5d5d5d; stroke: #ffffff; stroke-width: 0.24"/>
     <use xlink:href="#m0f163e66e2" x="181.695938" y="107.248318" style="fill: #5d5d5d; stroke: #ffffff; stroke-width: 0.24"/>
     <use xlink:href="#m0f163e66e2" x="160.289663" y="119.091041" style="fill: #5d5d5d; stroke: #ffffff; stroke-width: 0.24"/>
     <use xlink:href="#m0f163e66e2" x="160.248859" y="111.545842" style="fill: #5d5d5d; stroke: #ffffff; stroke-width: 0.24"/>
     <use xlink:href="#m0f163e66e2" x="158.783062" y="119.539181" style="fill: #5d5d5d; stroke: #ffffff; stroke-width: 0.24"/>
     <use xlink:href="#m0f163e66e2" x="157.841438" y="118.79185" style="fill: #5d5d5d; stroke: #ffffff; stroke-width: 0.24"/>
     <use xlink:href="#m0f163e66e2" x="140.578312" y="122.502264" style="fill: #5d5d5d; stroke: #ffffff; stroke-width: 0.24"/>
     <use xlink:href="#m0f163e66e2" x="251.376187" y="97.439134" style="fill: #5d5d5d; stroke: #ffffff; stroke-width: 0.24"/>
     <use xlink:href="#m0f163e66e2" x="148.111313" y="122.908454" style="fill: #5d5d5d; stroke: #ffffff; stroke-width: 0.24"/>
     <use xlink:href="#m0f163e66e2" x="169.13466" y="110.060419" style="fill: #5d5d5d; stroke: #ffffff; stroke-width: 0.24"/>
     <use xlink:href="#m0f163e66e2" x="191.112188" y="114.701856" style="fill: #5d5d5d; stroke: #ffffff; stroke-width: 0.24"/>
     <use xlink:href="#m0f163e66e2" x="177.866662" y="113.176702" style="fill: #5d5d5d; stroke: #ffffff; stroke-width: 0.24"/>
     <use xlink:href="#m0f163e66e2" x="191.049413" y="107.381189" style="fill: #5d5d5d; stroke: #ffffff; stroke-width: 0.24"/>
     <use xlink:href="#m0f163e66e2" x="225.638438" y="95.769466" style="fill: #5d5d5d; stroke: #ffffff; stroke-width: 0.24"/>
     <use xlink:href="#m0f163e66e2" x="165.060563" y="113.174114" style="fill: #5d5d5d; stroke: #ffffff; stroke-width: 0.24"/>
     <use xlink:href="#m0f163e66e2" x="203.604412" y="107.060561" style="fill: #5d5d5d; stroke: #ffffff; stroke-width: 0.24"/>
     <use xlink:href="#m0f163e66e2" x="215.594437" y="95.256646" style="fill: #5d5d5d; stroke: #ffffff; stroke-width: 0.24"/>
     <use xlink:href="#m0f163e66e2" x="145.286437" y="123.11617" style="fill: #5d5d5d; stroke: #ffffff; stroke-width: 0.24"/>
     <use xlink:href="#m0f163e66e2" x="184.206938" y="106.501171" style="fill: #5d5d5d; stroke: #ffffff; stroke-width: 0.24"/>
     <use xlink:href="#m0f163e66e2" x="160.666313" y="117.397903" style="fill: #5d5d5d; stroke: #ffffff; stroke-width: 0.24"/>
     <use xlink:href="#m0f163e66e2" x="160.352438" y="116.770692" style="fill: #5d5d5d; stroke: #ffffff; stroke-width: 0.24"/>
     <use xlink:href="#m0f163e66e2" x="235.054688" y="98.539433" style="fill: #5d5d5d; stroke: #ffffff; stroke-width: 0.24"/>
     <use xlink:href="#m0f163e66e2" x="153.447187" y="119.209313" style="fill: #5d5d5d; stroke: #ffffff; stroke-width: 0.24"/>
     <use xlink:href="#m0f163e66e2" x="147.169688" y="113.172266" style="fill: #5d5d5d; stroke: #ffffff; stroke-width: 0.24"/>
     <use xlink:href="#m0f163e66e2" x="100.088438" y="137.15635" style="fill: #5d5d5d; stroke: #ffffff; stroke-width: 0.24"/>
     <use xlink:href="#m0f163e66e2" x="140.264438" y="122.543659" style="fill: #5d5d5d; stroke: #ffffff; stroke-width: 0.24"/>
     <use xlink:href="#m0f163e66e2" x="142.147688" y="119.813609" style="fill: #5d5d5d; stroke: #ffffff; stroke-width: 0.24"/>
     <use xlink:href="#m0f163e66e2" x="148.739063" y="121.537978" style="fill: #5d5d5d; stroke: #ffffff; stroke-width: 0.24"/>
     <use xlink:href="#m0f163e66e2" x="196.448063" y="108.304265" style="fill: #5d5d5d; stroke: #ffffff; stroke-width: 0.24"/>
     <use xlink:href="#m0f163e66e2" x="137.125688" y="125.971145" style="fill: #5d5d5d; stroke: #ffffff; stroke-width: 0.24"/>
     <use xlink:href="#m0f163e66e2" x="130.157663" y="126.493944" style="fill: #5d5d5d; stroke: #ffffff; stroke-width: 0.24"/>
     <use xlink:href="#m0f163e66e2" x="139.636688" y="124.951049" style="fill: #5d5d5d; stroke: #ffffff; stroke-width: 0.24"/>
     <use xlink:href="#m0f163e66e2" x="132.731438" y="121.738855" style="fill: #5d5d5d; stroke: #ffffff; stroke-width: 0.24"/>
     <use xlink:href="#m0f163e66e2" x="240.704438" y="97.300903" style="fill: #5d5d5d; stroke: #ffffff; stroke-width: 0.24"/>
     <use xlink:href="#m0f163e66e2" x="145.914188" y="122.600762" style="fill: #5d5d5d; stroke: #ffffff; stroke-width: 0.24"/>
     <use xlink:href="#m0f163e66e2" x="155.958188" y="119.016751" style="fill: #5d5d5d; stroke: #ffffff; stroke-width: 0.24"/>
     <use xlink:href="#m0f163e66e2" x="168.513188" y="113.831818" style="fill: #5d5d5d; stroke: #ffffff; stroke-width: 0.24"/>
     <use xlink:href="#m0f163e66e2" x="192.367688" y="112.61029" style="fill: #5d5d5d; stroke: #ffffff; stroke-width: 0.24"/>
     <use xlink:href="#m0f163e66e2" x="172.279688" y="110.647529" style="fill: #5d5d5d; stroke: #ffffff; stroke-width: 0.24"/>
     <use xlink:href="#m0f163e66e2" x="148.425188" y="122.197529" style="fill: #5d5d5d; stroke: #ffffff; stroke-width: 0.24"/>
     <use xlink:href="#m0f163e66e2" x="210.572437" y="103.137257" style="fill: #5d5d5d; stroke: #ffffff; stroke-width: 0.24"/>
     <use xlink:href="#m0f163e66e2" x="112.329563" y="128.122032" style="fill: #5d5d5d; stroke: #ffffff; stroke-width: 0.24"/>
     <use xlink:href="#m0f163e66e2" x="152.819438" y="118.388246" style="fill: #5d5d5d; stroke: #ffffff; stroke-width: 0.24"/>
     <use xlink:href="#m0f163e66e2" x="164.683913" y="112.433066" style="fill: #5d5d5d; stroke: #ffffff; stroke-width: 0.24"/>
     <use xlink:href="#m0f163e66e2" x="179.122163" y="110.483796" style="fill: #5d5d5d; stroke: #ffffff; stroke-width: 0.24"/>
     <use xlink:href="#m0f163e66e2" x="294.628163" y="76.999514" style="fill: #5d5d5d; stroke: #ffffff; stroke-width: 0.24"/>
     <use xlink:href="#m0f163e66e2" x="186.655163" y="109.965986" style="fill: #5d5d5d; stroke: #ffffff; stroke-width: 0.24"/>
     <use xlink:href="#m0f163e66e2" x="127.709437" y="123.835781" style="fill: #5d5d5d; stroke: #ffffff; stroke-width: 0.24"/>
     <use xlink:href="#m0f163e66e2" x="84.589918" y="137.033088" style="fill: #5d5d5d; stroke: #ffffff; stroke-width: 0.24"/>
     <use xlink:href="#m0f163e66e2" x="274.289063" y="78.704849" style="fill: #5d5d5d; stroke: #ffffff; stroke-width: 0.24"/>
     <use xlink:href="#m0f163e66e2" x="292.992246" y="77.406444" style="fill: #5d5d5d; stroke: #ffffff; stroke-width: 0.24"/>
     <use xlink:href="#m0f163e66e2" x="144.187875" y="120.456528" style="fill: #5d5d5d; stroke: #ffffff; stroke-width: 0.24"/>
     <use xlink:href="#m0f163e66e2" x="206.805938" y="102.537211" style="fill: #5d5d5d; stroke: #ffffff; stroke-width: 0.24"/>
     <use xlink:href="#m0f163e66e2" x="536.374688" y="27.259301" style="fill: #5d5d5d; stroke: #ffffff; stroke-width: 0.24"/>
     <use xlink:href="#m0f163e66e2" x="315.406688" y="81.252871" style="fill: #5d5d5d; stroke: #ffffff; stroke-width: 0.24"/>
     <use xlink:href="#m0f163e66e2" x="145.286437" y="120.925366" style="fill: #5d5d5d; stroke: #ffffff; stroke-width: 0.24"/>
     <use xlink:href="#m0f163e66e2" x="174.162937" y="114.135814" style="fill: #5d5d5d; stroke: #ffffff; stroke-width: 0.24"/>
     <use xlink:href="#m0f163e66e2" x="148.111313" y="116.595132" style="fill: #5d5d5d; stroke: #ffffff; stroke-width: 0.24"/>
     <use xlink:href="#m0f163e66e2" x="153.447187" y="118.795176" style="fill: #5d5d5d; stroke: #ffffff; stroke-width: 0.24"/>
     <use xlink:href="#m0f163e66e2" x="139.636688" y="123.19859" style="fill: #5d5d5d; stroke: #ffffff; stroke-width: 0.24"/>
    </g>
   </g>
   <g id="line2d_18">
    <path d="M 62.423438 145.8 
L 533.235938 7.2 
" clip-path="url(#p2a0ddc7d87)" style="fill: none; stroke-dasharray: 3.7,1.6; stroke-dashoffset: 0; stroke: #af5a51"/>
   </g>
   <g id="patch_3">
    <path d="M 57.423438 145.8 
L 57.423438 16.44 
" style="fill: none; stroke: #bbbbbb; stroke-width: 0.75; stroke-linejoin: miter; stroke-linecap: square"/>
   </g>
   <g id="patch_4">
    <path d="M 62.423438 150.8 
L 564.623438 150.8 
" style="fill: none; stroke: #bbbbbb; stroke-width: 0.75; stroke-linejoin: miter; stroke-linecap: square"/>
   </g>
  </g>
 </g>
 <defs>
  <clipPath id="p2a0ddc7d87">
   <rect x="62.423438" y="7.2" width="502.2" height="138.6"/>
  </clipPath>
 </defs>
</svg>
