<?xml version="1.0" encoding="utf-8" standalone="no"?>
<!DOCTYPE svg PUBLIC "-//W3C//DTD SVG 1.1//EN"
  "http://www.w3.org/Graphics/SVG/1.1/DTD/svg11.dtd">
<svg xmlns:xlink="http://www.w3.org/1999/xlink" width="566.265937pt" height="268.9675pt" viewBox="0 0 566.265937 268.9675" xmlns="http://www.w3.org/2000/svg" version="1.1">
 <metadata>
  <rdf:RDF xmlns:dc="http://purl.org/dc/elements/1.1/" xmlns:cc="http://creativecommons.org/ns#" xmlns:rdf="http://www.w3.org/1999/02/22-rdf-syntax-ns#">
   <cc:Work>
    <dc:type rdf:resource="http://purl.org/dc/dcmitype/StillImage"/>
    <dc:date>2024-02-20T11:05:01.099340</dc:date>
    <dc:format>image/svg+xml</dc:format>
    <dc:creator>
     <cc:Agent>
      <dc:title>Matplotlib v3.8.0, https://matplotlib.org/</dc:title>
     </cc:Agent>
    </dc:creator>
   </cc:Work>
  </rdf:RDF>
 </metadata>
 <defs>
  <style type="text/css">*{stroke-linejoin: round; stroke-linecap: butt}</style>
 </defs>
 <g id="figure_1">
  <g id="patch_1">
   <path d="M 0 268.9675 
L 566.265937 268.9675 
L 566.265937 0 
L 0 0 
L 0 268.9675 
z
" style="fill: none"/>
  </g>
  <g id="axes_1">
   <g id="patch_2">
    <path d="M 56.865938 136.22375 
L 559.065938 136.22375 
L 559.065938 35.42375 
L 56.865938 35.42375 
L 56.865938 136.22375 
z
" style="fill: none"/>
   </g>
   <g id="matplotlib.axis_1">
    <g id="xtick_1">
     <g id="text_1">
      <!-- Base -->
      <g style="fill: #5d5d5d" transform="translate(72.776985 148.207187) scale(0.09 -0.09)">
       <defs>
        <path id="Ubuntu-Bold-42" d="M 1990 -58 
Q 1626 -58 1264 -35 
Q 902 -13 512 70 
L 512 4371 
Q 819 4429 1184 4457 
Q 1549 4486 1862 4486 
Q 2285 4486 2640 4425 
Q 2995 4365 3251 4217 
Q 3507 4070 3651 3830 
Q 3795 3590 3795 3238 
Q 3795 2707 3283 2400 
Q 3706 2240 3859 1965 
Q 4013 1690 4013 1344 
Q 4013 646 3504 294 
Q 2995 -58 1990 -58 
z
M 1485 1933 
L 1485 787 
Q 1594 774 1722 768 
Q 1850 762 2003 762 
Q 2451 762 2726 890 
Q 3002 1018 3002 1363 
Q 3002 1670 2771 1801 
Q 2541 1933 2112 1933 
L 1485 1933 
z
M 1485 2694 
L 1971 2694 
Q 2432 2694 2630 2812 
Q 2829 2931 2829 3194 
Q 2829 3462 2624 3571 
Q 2419 3680 2022 3680 
Q 1894 3680 1747 3677 
Q 1600 3674 1485 3661 
L 1485 2694 
z
" transform="scale(0.015625)"/>
        <path id="Ubuntu-Bold-61" d="M 1734 666 
Q 1875 666 2003 672 
Q 2131 678 2208 691 
L 2208 1414 
Q 2150 1427 2035 1440 
Q 1920 1453 1824 1453 
Q 1690 1453 1571 1437 
Q 1453 1421 1363 1376 
Q 1274 1331 1222 1254 
Q 1171 1178 1171 1062 
Q 1171 838 1321 752 
Q 1472 666 1734 666 
z
M 1658 3456 
Q 2080 3456 2361 3360 
Q 2643 3264 2812 3085 
Q 2982 2906 3052 2650 
Q 3123 2394 3123 2080 
L 3123 96 
Q 2918 51 2553 -9 
Q 2189 -70 1670 -70 
Q 1344 -70 1078 -12 
Q 813 45 621 176 
Q 429 307 326 518 
Q 224 730 224 1037 
Q 224 1331 342 1536 
Q 461 1741 659 1862 
Q 858 1984 1114 2038 
Q 1370 2093 1645 2093 
Q 1830 2093 1974 2077 
Q 2118 2061 2208 2035 
L 2208 2125 
Q 2208 2368 2061 2515 
Q 1914 2662 1549 2662 
Q 1306 2662 1069 2627 
Q 832 2592 659 2528 
L 538 3296 
Q 621 3322 745 3350 
Q 870 3379 1017 3401 
Q 1165 3424 1328 3440 
Q 1491 3456 1658 3456 
z
" transform="scale(0.015625)"/>
        <path id="Ubuntu-Bold-73" d="M 1414 685 
Q 1677 685 1785 736 
Q 1894 787 1894 934 
Q 1894 1050 1753 1136 
Q 1613 1222 1325 1331 
Q 1101 1414 918 1504 
Q 736 1594 608 1718 
Q 480 1843 409 2016 
Q 339 2189 339 2432 
Q 339 2906 691 3181 
Q 1043 3456 1658 3456 
Q 1965 3456 2246 3401 
Q 2528 3347 2694 3283 
L 2528 2541 
Q 2362 2598 2166 2643 
Q 1971 2688 1728 2688 
Q 1280 2688 1280 2438 
Q 1280 2381 1299 2336 
Q 1318 2291 1376 2249 
Q 1434 2208 1533 2160 
Q 1632 2112 1786 2054 
Q 2099 1939 2304 1827 
Q 2509 1715 2627 1584 
Q 2746 1453 2794 1293 
Q 2842 1133 2842 922 
Q 2842 422 2467 166 
Q 2093 -90 1408 -90 
Q 960 -90 662 -13 
Q 365 64 250 115 
L 410 890 
Q 653 794 909 739 
Q 1165 685 1414 685 
z
" transform="scale(0.015625)"/>
        <path id="Ubuntu-Bold-65" d="M 288 1658 
Q 288 2106 425 2442 
Q 563 2778 787 3002 
Q 1011 3226 1302 3341 
Q 1594 3456 1901 3456 
Q 2618 3456 3034 3017 
Q 3450 2579 3450 1728 
Q 3450 1645 3443 1545 
Q 3437 1446 3430 1370 
L 1267 1370 
Q 1299 1075 1542 902 
Q 1786 730 2195 730 
Q 2458 730 2710 778 
Q 2963 826 3123 896 
L 3251 122 
Q 3174 83 3046 44 
Q 2918 6 2761 -22 
Q 2605 -51 2425 -70 
Q 2246 -90 2067 -90 
Q 1613 -90 1277 44 
Q 941 179 720 412 
Q 499 646 393 966 
Q 288 1286 288 1658 
z
M 2528 2022 
Q 2522 2144 2486 2259 
Q 2451 2374 2377 2464 
Q 2304 2554 2192 2611 
Q 2080 2669 1914 2669 
Q 1754 2669 1638 2614 
Q 1523 2560 1446 2470 
Q 1370 2381 1328 2262 
Q 1286 2144 1267 2022 
L 2528 2022 
z
" transform="scale(0.015625)"/>
       </defs>
       <use xlink:href="#Ubuntu-Bold-42"/>
       <use xlink:href="#Ubuntu-Bold-61" x="67.199997"/>
       <use xlink:href="#Ubuntu-Bold-73" x="122.499985"/>
       <use xlink:href="#Ubuntu-Bold-65" x="170.999969"/>
      </g>
     </g>
    </g>
    <g id="xtick_2">
     <g id="text_2">
      <!-- Base (Clean) -->
      <g style="fill: #5d5d5d" transform="translate(131.529396 148.270469) scale(0.09 -0.09)">
       <defs>
        <path id="Ubuntu-Bold-20" transform="scale(0.015625)"/>
        <path id="Ubuntu-Bold-28" d="M 1389 1914 
Q 1389 1158 1625 473 
Q 1862 -211 2246 -755 
L 1581 -1184 
Q 1037 -550 742 237 
Q 448 1024 448 1914 
Q 448 2803 742 3590 
Q 1037 4378 1581 5011 
L 2246 4582 
Q 1862 4038 1625 3353 
Q 1389 2669 1389 1914 
z
" transform="scale(0.015625)"/>
        <path id="Ubuntu-Bold-43" d="M 2534 -90 
Q 1453 -90 886 512 
Q 320 1114 320 2221 
Q 320 2771 493 3203 
Q 666 3635 966 3932 
Q 1267 4230 1683 4384 
Q 2099 4538 2586 4538 
Q 2867 4538 3097 4496 
Q 3328 4454 3501 4400 
Q 3674 4346 3789 4288 
Q 3904 4230 3955 4198 
L 3667 3392 
Q 3462 3501 3190 3577 
Q 2918 3654 2573 3654 
Q 2342 3654 2121 3577 
Q 1901 3501 1731 3331 
Q 1562 3162 1459 2893 
Q 1357 2624 1357 2240 
Q 1357 1933 1424 1667 
Q 1491 1402 1641 1210 
Q 1792 1018 2035 906 
Q 2278 794 2624 794 
Q 2842 794 3014 819 
Q 3187 845 3321 880 
Q 3456 915 3558 960 
Q 3661 1005 3744 1043 
L 4019 243 
Q 3808 115 3424 12 
Q 3040 -90 2534 -90 
z
" transform="scale(0.015625)"/>
        <path id="Ubuntu-Bold-6c" d="M 1792 -64 
Q 1376 -58 1117 25 
Q 858 109 707 259 
Q 557 410 502 624 
Q 448 838 448 1107 
L 448 4813 
L 1402 4966 
L 1402 1299 
Q 1402 1171 1421 1068 
Q 1440 966 1494 896 
Q 1549 826 1651 781 
Q 1754 736 1926 723 
L 1792 -64 
z
" transform="scale(0.015625)"/>
        <path id="Ubuntu-Bold-6e" d="M 448 3251 
Q 691 3322 1075 3382 
Q 1459 3443 1882 3443 
Q 2310 3443 2595 3331 
Q 2880 3219 3046 3014 
Q 3213 2810 3283 2528 
Q 3354 2246 3354 1901 
L 3354 0 
L 2400 0 
L 2400 1786 
Q 2400 2246 2278 2438 
Q 2157 2630 1824 2630 
Q 1722 2630 1606 2620 
Q 1491 2611 1402 2598 
L 1402 0 
L 448 0 
L 448 3251 
z
" transform="scale(0.015625)"/>
        <path id="Ubuntu-Bold-29" d="M 890 1914 
Q 890 2669 653 3353 
Q 416 4038 32 4582 
L 698 5011 
Q 1242 4378 1536 3590 
Q 1830 2803 1830 1914 
Q 1830 1024 1536 237 
Q 1242 -550 698 -1184 
L 32 -755 
Q 416 -211 653 473 
Q 890 1158 890 1914 
z
" transform="scale(0.015625)"/>
       </defs>
       <use xlink:href="#Ubuntu-Bold-42"/>
       <use xlink:href="#Ubuntu-Bold-61" x="67.199997"/>
       <use xlink:href="#Ubuntu-Bold-73" x="122.499985"/>
       <use xlink:href="#Ubuntu-Bold-65" x="170.999969"/>
       <use xlink:href="#Ubuntu-Bold-20" x="229.399963"/>
       <use xlink:href="#Ubuntu-Bold-28" x="253.399948"/>
       <use xlink:href="#Ubuntu-Bold-43" x="286.999939"/>
       <use xlink:href="#Ubuntu-Bold-6c" x="351.799927"/>
       <use xlink:href="#Ubuntu-Bold-65" x="383.399918"/>
       <use xlink:href="#Ubuntu-Bold-61" x="441.799911"/>
       <use xlink:href="#Ubuntu-Bold-6e" x="497.099899"/>
       <use xlink:href="#Ubuntu-Bold-29" x="553.874893"/>
      </g>
     </g>
    </g>
    <g id="xtick_3">
     <g id="text_3">
      <!-- Base (FE) -->
      <g style="fill: #5d5d5d" transform="translate(213.093995 148.270469) scale(0.09 -0.09)">
       <defs>
        <path id="Ubuntu-Bold-46" d="M 512 0 
L 512 4435 
L 3482 4435 
L 3482 3597 
L 1510 3597 
L 1510 2669 
L 3264 2669 
L 3264 1830 
L 1510 1830 
L 1510 0 
L 512 0 
z
" transform="scale(0.015625)"/>
        <path id="Ubuntu-Bold-45" d="M 512 0 
L 512 4435 
L 3507 4435 
L 3507 3597 
L 1510 3597 
L 1510 2726 
L 3283 2726 
L 3283 1907 
L 1510 1907 
L 1510 838 
L 3654 838 
L 3654 0 
L 512 0 
z
" transform="scale(0.015625)"/>
       </defs>
       <use xlink:href="#Ubuntu-Bold-42"/>
       <use xlink:href="#Ubuntu-Bold-61" x="67.199997"/>
       <use xlink:href="#Ubuntu-Bold-73" x="122.499985"/>
       <use xlink:href="#Ubuntu-Bold-65" x="170.999969"/>
       <use xlink:href="#Ubuntu-Bold-20" x="229.399963"/>
       <use xlink:href="#Ubuntu-Bold-28" x="253.399948"/>
       <use xlink:href="#Ubuntu-Bold-46" x="288.999939"/>
       <use xlink:href="#Ubuntu-Bold-45" x="346.399933"/>
       <use xlink:href="#Ubuntu-Bold-29" x="406.999924"/>
      </g>
     </g>
    </g>
    <g id="xtick_4">
     <g id="text_4">
      <!-- Elastic Net -->
      <g style="fill: #5d5d5d" transform="translate(284.421797 148.207187) scale(0.09 -0.09)">
       <defs>
        <path id="Ubuntu-Bold-74" d="M 416 4205 
L 1370 4358 
L 1370 3366 
L 2515 3366 
L 2515 2573 
L 1370 2573 
L 1370 1389 
Q 1370 1088 1475 909 
Q 1581 730 1901 730 
Q 2054 730 2217 758 
Q 2381 787 2515 838 
L 2650 96 
Q 2477 26 2265 -25 
Q 2054 -77 1747 -77 
Q 1357 -77 1101 28 
Q 845 134 691 323 
Q 538 512 477 781 
Q 416 1050 416 1376 
L 416 4205 
z
" transform="scale(0.015625)"/>
        <path id="Ubuntu-Bold-69" d="M 1402 0 
L 448 0 
L 448 3366 
L 1402 3366 
L 1402 0 
z
M 1491 4339 
Q 1491 4077 1321 3926 
Q 1152 3776 922 3776 
Q 691 3776 521 3926 
Q 352 4077 352 4339 
Q 352 4602 521 4752 
Q 691 4902 922 4902 
Q 1152 4902 1321 4752 
Q 1491 4602 1491 4339 
z
" transform="scale(0.015625)"/>
        <path id="Ubuntu-Bold-63" d="M 288 1683 
Q 288 2048 406 2371 
Q 525 2694 749 2934 
Q 973 3174 1293 3315 
Q 1613 3456 2022 3456 
Q 2291 3456 2515 3408 
Q 2739 3360 2950 3270 
L 2752 2509 
Q 2618 2560 2458 2598 
Q 2298 2637 2099 2637 
Q 1677 2637 1469 2374 
Q 1261 2112 1261 1683 
Q 1261 1229 1456 979 
Q 1651 730 2138 730 
Q 2310 730 2508 762 
Q 2707 794 2874 864 
L 3008 83 
Q 2842 13 2592 -38 
Q 2342 -90 2042 -90 
Q 1581 -90 1248 48 
Q 915 186 700 422 
Q 486 659 387 982 
Q 288 1306 288 1683 
z
" transform="scale(0.015625)"/>
        <path id="Ubuntu-Bold-4e" d="M 3488 0 
Q 3059 762 2560 1504 
Q 2061 2246 1498 2906 
L 1498 0 
L 512 0 
L 512 4435 
L 1325 4435 
Q 1536 4224 1792 3917 
Q 2048 3610 2313 3261 
Q 2579 2912 2841 2537 
Q 3104 2163 3334 1818 
L 3334 4435 
L 4326 4435 
L 4326 0 
L 3488 0 
z
" transform="scale(0.015625)"/>
       </defs>
       <use xlink:href="#Ubuntu-Bold-45"/>
       <use xlink:href="#Ubuntu-Bold-6c" x="60.599991"/>
       <use xlink:href="#Ubuntu-Bold-61" x="93.699982"/>
       <use xlink:href="#Ubuntu-Bold-73" x="148.999969"/>
       <use xlink:href="#Ubuntu-Bold-74" x="197.499954"/>
       <use xlink:href="#Ubuntu-Bold-69" x="241.899948"/>
       <use xlink:href="#Ubuntu-Bold-63" x="270.799942"/>
       <use xlink:href="#Ubuntu-Bold-20" x="320.799927"/>
       <use xlink:href="#Ubuntu-Bold-4e" x="344.799911"/>
       <use xlink:href="#Ubuntu-Bold-65" x="420.399902"/>
       <use xlink:href="#Ubuntu-Bold-74" x="478.799896"/>
      </g>
     </g>
    </g>
    <g id="xtick_5">
     <g id="text_5">
      <!-- SVM -->
      <g style="fill: #5d5d5d" transform="translate(373.10624 148.207187) scale(0.09 -0.09)">
       <defs>
        <path id="Ubuntu-Bold-53" d="M 1722 762 
Q 1933 762 2070 797 
Q 2208 832 2291 893 
Q 2374 954 2406 1037 
Q 2438 1120 2438 1222 
Q 2438 1440 2233 1584 
Q 2029 1728 1530 1894 
Q 1312 1971 1094 2070 
Q 877 2170 704 2320 
Q 531 2470 422 2684 
Q 314 2899 314 3206 
Q 314 3514 429 3760 
Q 544 4006 755 4179 
Q 966 4352 1267 4445 
Q 1568 4538 1946 4538 
Q 2394 4538 2720 4442 
Q 3046 4346 3258 4230 
L 2970 3443 
Q 2784 3539 2557 3612 
Q 2330 3686 2010 3686 
Q 1651 3686 1494 3587 
Q 1338 3488 1338 3283 
Q 1338 3162 1395 3078 
Q 1453 2995 1558 2928 
Q 1664 2861 1801 2806 
Q 1939 2752 2106 2694 
Q 2451 2566 2707 2441 
Q 2963 2317 3132 2150 
Q 3302 1984 3385 1760 
Q 3469 1536 3469 1216 
Q 3469 595 3033 252 
Q 2598 -90 1722 -90 
Q 1427 -90 1190 -54 
Q 954 -19 771 32 
Q 589 83 457 140 
Q 326 198 237 250 
L 518 1043 
Q 717 934 1008 848 
Q 1299 762 1722 762 
z
" transform="scale(0.015625)"/>
        <path id="Ubuntu-Bold-56" d="M 1830 0 
Q 1568 557 1312 1158 
Q 1056 1760 825 2349 
Q 595 2938 400 3475 
Q 205 4013 64 4435 
L 1165 4435 
Q 1293 4051 1443 3606 
Q 1594 3162 1750 2720 
Q 1907 2278 2054 1875 
Q 2202 1472 2330 1178 
Q 2451 1472 2601 1875 
Q 2752 2278 2909 2720 
Q 3066 3162 3216 3606 
Q 3366 4051 3494 4435 
L 4557 4435 
Q 4410 4013 4218 3475 
Q 4026 2938 3795 2349 
Q 3565 1760 3309 1158 
Q 3053 557 2790 0 
L 1830 0 
z
" transform="scale(0.015625)"/>
        <path id="Ubuntu-Bold-4d" d="M 1690 4435 
Q 1805 4224 1955 3913 
Q 2106 3603 2269 3241 
Q 2432 2880 2592 2502 
Q 2752 2125 2893 1792 
Q 3034 2125 3194 2502 
Q 3354 2880 3517 3241 
Q 3680 3603 3830 3913 
Q 3981 4224 4096 4435 
L 5005 4435 
Q 5069 3994 5123 3446 
Q 5178 2899 5219 2307 
Q 5261 1715 5296 1120 
Q 5331 525 5357 0 
L 4384 0 
Q 4365 646 4333 1408 
Q 4301 2170 4237 2944 
Q 4122 2675 3981 2348 
Q 3840 2022 3702 1696 
Q 3565 1370 3437 1072 
Q 3309 774 3219 563 
L 2522 563 
Q 2432 774 2304 1072 
Q 2176 1370 2038 1696 
Q 1901 2022 1760 2348 
Q 1619 2675 1504 2944 
Q 1440 2170 1408 1408 
Q 1376 646 1357 0 
L 384 0 
Q 410 525 445 1120 
Q 480 1715 521 2307 
Q 563 2899 617 3446 
Q 672 3994 736 4435 
L 1690 4435 
z
" transform="scale(0.015625)"/>
       </defs>
       <use xlink:href="#Ubuntu-Bold-53"/>
       <use xlink:href="#Ubuntu-Bold-56" x="57.199997"/>
       <use xlink:href="#Ubuntu-Bold-4d" x="128.399979"/>
      </g>
     </g>
    </g>
    <g id="xtick_6">
     <g id="text_6">
      <!-- Stacking -->
      <g style="fill: #5d5d5d" transform="translate(439.379979 148.207187) scale(0.09 -0.09)">
       <defs>
        <path id="Ubuntu-Bold-6b" d="M 1402 2150 
Q 1542 2304 1692 2470 
Q 1843 2637 1984 2800 
Q 2125 2963 2249 3110 
Q 2374 3258 2464 3366 
L 3597 3366 
Q 3258 2976 2934 2621 
Q 2611 2266 2227 1888 
Q 2419 1715 2624 1475 
Q 2829 1235 3021 979 
Q 3213 723 3373 467 
Q 3533 211 3642 0 
L 2547 0 
Q 2445 166 2313 368 
Q 2182 570 2035 771 
Q 1888 973 1725 1158 
Q 1562 1344 1402 1472 
L 1402 0 
L 448 0 
L 448 4813 
L 1402 4966 
L 1402 2150 
z
" transform="scale(0.015625)"/>
        <path id="Ubuntu-Bold-67" d="M 1261 1792 
Q 1261 992 1907 992 
Q 2054 992 2182 1030 
Q 2310 1069 2400 1120 
L 2400 2643 
Q 2330 2656 2234 2665 
Q 2138 2675 2010 2675 
Q 1632 2675 1446 2425 
Q 1261 2176 1261 1792 
z
M 3354 422 
Q 3354 -403 2934 -803 
Q 2515 -1203 1638 -1203 
Q 1331 -1203 1024 -1148 
Q 717 -1094 454 -1005 
L 621 -205 
Q 845 -294 1091 -345 
Q 1338 -397 1651 -397 
Q 2061 -397 2230 -217 
Q 2400 -38 2400 243 
L 2400 365 
Q 2246 294 2083 259 
Q 1920 224 1728 224 
Q 1030 224 659 637 
Q 288 1050 288 1792 
Q 288 2163 403 2467 
Q 518 2771 739 2988 
Q 960 3206 1280 3324 
Q 1600 3443 2003 3443 
Q 2176 3443 2358 3427 
Q 2541 3411 2720 3385 
Q 2899 3360 3062 3325 
Q 3226 3290 3354 3251 
L 3354 422 
z
" transform="scale(0.015625)"/>
       </defs>
       <use xlink:href="#Ubuntu-Bold-53"/>
       <use xlink:href="#Ubuntu-Bold-74" x="58.199997"/>
       <use xlink:href="#Ubuntu-Bold-61" x="100.599991"/>
       <use xlink:href="#Ubuntu-Bold-63" x="155.899979"/>
       <use xlink:href="#Ubuntu-Bold-6b" x="205.899963"/>
       <use xlink:href="#Ubuntu-Bold-69" x="263.799957"/>
       <use xlink:href="#Ubuntu-Bold-6e" x="292.699951"/>
       <use xlink:href="#Ubuntu-Bold-67" x="351.599945"/>
      </g>
     </g>
    </g>
    <g id="xtick_7">
     <g id="text_7">
      <!-- HPP -->
      <g style="fill: #5d5d5d" transform="translate(523.731765 148.207187) scale(0.09 -0.09)">
       <defs>
        <path id="Ubuntu-Bold-48" d="M 3187 4435 
L 4186 4435 
L 4186 0 
L 3187 0 
L 3187 1882 
L 1510 1882 
L 1510 0 
L 512 0 
L 512 4435 
L 1510 4435 
L 1510 2739 
L 3187 2739 
L 3187 4435 
z
" transform="scale(0.015625)"/>
        <path id="Ubuntu-Bold-50" d="M 1843 4486 
Q 2835 4486 3366 4137 
Q 3898 3789 3898 2995 
Q 3898 2195 3360 1840 
Q 2822 1485 1824 1485 
L 1510 1485 
L 1510 0 
L 512 0 
L 512 4371 
Q 838 4435 1203 4460 
Q 1568 4486 1843 4486 
z
M 1907 3635 
Q 1798 3635 1692 3628 
Q 1587 3622 1510 3616 
L 1510 2336 
L 1824 2336 
Q 2342 2336 2604 2477 
Q 2867 2618 2867 3002 
Q 2867 3187 2800 3308 
Q 2733 3430 2608 3504 
Q 2483 3578 2304 3606 
Q 2125 3635 1907 3635 
z
" transform="scale(0.015625)"/>
       </defs>
       <use xlink:href="#Ubuntu-Bold-48"/>
       <use xlink:href="#Ubuntu-Bold-50" x="73.399994"/>
       <use xlink:href="#Ubuntu-Bold-50" x="137.799988"/>
      </g>
     </g>
    </g>
   </g>
   <g id="matplotlib.axis_2">
    <g id="ytick_1">
     <g id="line2d_1">
      <defs>
       <path id="md91f362e36" d="M 0 0 
L -3 0 
" style="stroke: #bbbbbb; stroke-width: 0.75"/>
      </defs>
      <g>
       <use xlink:href="#md91f362e36" x="51.865938" y="136.22375" style="fill: #bbbbbb; stroke: #bbbbbb; stroke-width: 0.75"/>
      </g>
     </g>
     <g id="text_8">
      <!-- −0.20 -->
      <g style="fill: #9f9f9f" transform="translate(25.348437 139.3275) scale(0.08 -0.08)">
       <defs>
        <path id="Ubuntu-2212" d="M 339 2138 
L 3270 2138 
L 3270 1632 
L 339 1632 
L 339 2138 
z
" transform="scale(0.015625)"/>
        <path id="Ubuntu-30" d="M 320 2221 
Q 320 3334 713 3936 
Q 1107 4538 1805 4538 
Q 2502 4538 2896 3936 
Q 3290 3334 3290 2221 
Q 3290 1107 2896 505 
Q 2502 -96 1805 -96 
Q 1107 -96 713 505 
Q 320 1107 320 2221 
z
M 2662 2221 
Q 2662 2586 2620 2912 
Q 2579 3238 2480 3481 
Q 2381 3725 2214 3869 
Q 2048 4013 1805 4013 
Q 1562 4013 1395 3869 
Q 1229 3725 1129 3481 
Q 1030 3238 988 2912 
Q 947 2586 947 2221 
Q 947 1856 988 1529 
Q 1030 1203 1129 960 
Q 1229 717 1395 573 
Q 1562 429 1805 429 
Q 2048 429 2214 573 
Q 2381 717 2480 960 
Q 2579 1203 2620 1529 
Q 2662 1856 2662 2221 
z
" transform="scale(0.015625)"/>
        <path id="Ubuntu-2e" d="M 1216 346 
Q 1216 173 1101 45 
Q 986 -83 787 -83 
Q 589 -83 473 45 
Q 358 173 358 346 
Q 358 518 473 646 
Q 589 774 787 774 
Q 986 774 1101 646 
Q 1216 518 1216 346 
z
" transform="scale(0.015625)"/>
        <path id="Ubuntu-32" d="M 2989 3302 
Q 2989 3072 2896 2857 
Q 2803 2643 2649 2435 
Q 2496 2227 2304 2025 
Q 2112 1824 1920 1632 
Q 1811 1523 1667 1376 
Q 1523 1229 1395 1069 
Q 1267 909 1180 761 
Q 1094 614 1094 506 
L 3136 506 
L 3136 0 
L 448 0 
Q 442 38 442 76 
Q 442 115 442 147 
Q 442 448 541 707 
Q 640 966 800 1196 
Q 960 1427 1158 1632 
Q 1357 1837 1549 2029 
Q 1709 2182 1853 2332 
Q 1997 2483 2109 2633 
Q 2221 2784 2288 2944 
Q 2355 3104 2355 3283 
Q 2355 3475 2294 3609 
Q 2234 3744 2131 3833 
Q 2029 3923 1891 3964 
Q 1754 4006 1600 4006 
Q 1414 4006 1260 3955 
Q 1107 3904 985 3837 
Q 864 3770 781 3696 
Q 698 3622 653 3584 
L 358 4006 
Q 416 4070 531 4163 
Q 646 4256 806 4339 
Q 966 4422 1164 4480 
Q 1363 4538 1594 4538 
Q 2291 4538 2640 4214 
Q 2989 3891 2989 3302 
z
" transform="scale(0.015625)"/>
       </defs>
       <use xlink:href="#Ubuntu-2212"/>
       <use xlink:href="#Ubuntu-30" x="56.399994"/>
       <use xlink:href="#Ubuntu-2e" x="112.799988"/>
       <use xlink:href="#Ubuntu-32" x="137.399979"/>
       <use xlink:href="#Ubuntu-30" x="193.799973"/>
      </g>
     </g>
    </g>
    <g id="ytick_2">
     <g id="line2d_2">
      <g>
       <use xlink:href="#md91f362e36" x="51.865938" y="102.62375" style="fill: #bbbbbb; stroke: #bbbbbb; stroke-width: 0.75"/>
      </g>
     </g>
     <g id="text_9">
      <!-- −0.15 -->
      <g style="fill: #9f9f9f" transform="translate(25.348437 105.7275) scale(0.08 -0.08)">
       <defs>
        <path id="Ubuntu-31" d="M 595 3520 
Q 960 3661 1305 3881 
Q 1651 4102 1939 4435 
L 2362 4435 
L 2362 0 
L 1766 0 
L 1766 3610 
Q 1690 3539 1578 3462 
Q 1466 3386 1334 3315 
Q 1203 3245 1059 3181 
Q 915 3117 781 3072 
L 595 3520 
z
" transform="scale(0.015625)"/>
        <path id="Ubuntu-35" d="M 1274 2726 
Q 2240 2688 2691 2304 
Q 3142 1920 3142 1261 
Q 3142 966 3043 716 
Q 2944 467 2742 288 
Q 2541 109 2233 6 
Q 1926 -96 1504 -96 
Q 1338 -96 1165 -70 
Q 992 -45 845 -6 
Q 698 32 582 70 
Q 467 109 416 134 
L 531 653 
Q 640 602 886 518 
Q 1133 435 1491 435 
Q 1779 435 1974 499 
Q 2170 563 2291 672 
Q 2413 781 2467 925 
Q 2522 1069 2522 1229 
Q 2522 1472 2438 1661 
Q 2355 1850 2144 1978 
Q 1933 2106 1581 2173 
Q 1229 2240 691 2240 
Q 730 2554 752 2829 
Q 774 3104 793 3366 
Q 813 3629 825 3888 
Q 838 4147 851 4435 
L 2989 4435 
L 2989 3930 
L 1370 3930 
Q 1363 3834 1350 3670 
Q 1338 3507 1325 3331 
Q 1312 3155 1299 2988 
Q 1286 2822 1274 2726 
z
" transform="scale(0.015625)"/>
       </defs>
       <use xlink:href="#Ubuntu-2212"/>
       <use xlink:href="#Ubuntu-30" x="56.399994"/>
       <use xlink:href="#Ubuntu-2e" x="112.799988"/>
       <use xlink:href="#Ubuntu-31" x="137.399979"/>
       <use xlink:href="#Ubuntu-35" x="193.799973"/>
      </g>
     </g>
    </g>
    <g id="ytick_3">
     <g id="line2d_3">
      <g>
       <use xlink:href="#md91f362e36" x="51.865938" y="69.02375" style="fill: #bbbbbb; stroke: #bbbbbb; stroke-width: 0.75"/>
      </g>
     </g>
     <g id="text_10">
      <!-- −0.10 -->
      <g style="fill: #9f9f9f" transform="translate(25.348437 72.1275) scale(0.08 -0.08)">
       <use xlink:href="#Ubuntu-2212"/>
       <use xlink:href="#Ubuntu-30" x="56.399994"/>
       <use xlink:href="#Ubuntu-2e" x="112.799988"/>
       <use xlink:href="#Ubuntu-31" x="137.399979"/>
       <use xlink:href="#Ubuntu-30" x="193.799973"/>
      </g>
     </g>
    </g>
    <g id="ytick_4">
     <g id="line2d_4">
      <g>
       <use xlink:href="#md91f362e36" x="51.865938" y="35.42375" style="fill: #bbbbbb; stroke: #bbbbbb; stroke-width: 0.75"/>
      </g>
     </g>
     <g id="text_11">
      <!-- −0.05 -->
      <g style="fill: #9f9f9f" transform="translate(25.348437 38.5275) scale(0.08 -0.08)">
       <use xlink:href="#Ubuntu-2212"/>
       <use xlink:href="#Ubuntu-30" x="56.399994"/>
       <use xlink:href="#Ubuntu-2e" x="112.799988"/>
       <use xlink:href="#Ubuntu-30" x="137.399979"/>
       <use xlink:href="#Ubuntu-35" x="193.799973"/>
      </g>
     </g>
    </g>
    <g id="text_12">
     <!-- RMSE -->
     <g style="fill: #505050" transform="translate(15.683437 60.192031) rotate(-90) scale(0.09 -0.09)">
      <defs>
       <path id="Ubuntu-Bold-52" d="M 1811 4486 
Q 2810 4486 3341 4131 
Q 3872 3776 3872 3027 
Q 3872 2560 3657 2269 
Q 3443 1978 3040 1811 
Q 3174 1645 3321 1430 
Q 3469 1216 3613 982 
Q 3757 749 3891 496 
Q 4026 243 4141 0 
L 3021 0 
Q 2899 218 2774 442 
Q 2650 666 2518 877 
Q 2387 1088 2259 1277 
Q 2131 1466 2003 1619 
L 1510 1619 
L 1510 0 
L 512 0 
L 512 4371 
Q 838 4435 1187 4460 
Q 1536 4486 1811 4486 
z
M 1869 3635 
Q 1760 3635 1673 3628 
Q 1587 3622 1510 3616 
L 1510 2413 
L 1792 2413 
Q 2355 2413 2598 2553 
Q 2842 2694 2842 3034 
Q 2842 3360 2595 3497 
Q 2349 3635 1869 3635 
z
" transform="scale(0.015625)"/>
      </defs>
      <use xlink:href="#Ubuntu-Bold-52"/>
      <use xlink:href="#Ubuntu-Bold-4d" x="66.699997"/>
      <use xlink:href="#Ubuntu-Bold-53" x="156.399979"/>
      <use xlink:href="#Ubuntu-Bold-45" x="214.599976"/>
     </g>
    </g>
   </g>
   <g id="PathCollection_1">
    <defs>
     <path id="m8348c4a31e" d="M 0 1.118034 
C 0.296506 1.118034 0.580908 1.000231 0.790569 0.790569 
C 1.000231 0.580908 1.118034 0.296506 1.118034 0 
C 1.118034 -0.296506 1.000231 -0.580908 0.790569 -0.790569 
C 0.580908 -1.000231 0.296506 -1.118034 0 -1.118034 
C -0.296506 -1.118034 -0.580908 -1.000231 -0.790569 -0.790569 
C -1.000231 -0.580908 -1.118034 -0.296506 -1.118034 0 
C -1.118034 0.296506 -1.000231 0.580908 -0.790569 0.790569 
C -0.580908 1.000231 -0.296506 1.118034 0 1.118034 
z
" style="stroke: #5d5d5d"/>
    </defs>
    <g clip-path="url(#p4b32183cae)">
     <use xlink:href="#m8348c4a31e" x="83.100266" y="87.580887" style="fill: #5d5d5d; stroke: #5d5d5d"/>
     <use xlink:href="#m8348c4a31e" x="158.05549" y="84.714823" style="fill: #5d5d5d; stroke: #5d5d5d"/>
     <use xlink:href="#m8348c4a31e" x="233.010714" y="84.472788" style="fill: #5d5d5d; stroke: #5d5d5d"/>
     <use xlink:href="#m8348c4a31e" x="307.965938" y="91.664334" style="fill: #5d5d5d; stroke: #5d5d5d"/>
     <use xlink:href="#m8348c4a31e" x="382.921161" y="78.873123" style="fill: #5d5d5d; stroke: #5d5d5d"/>
     <use xlink:href="#m8348c4a31e" x="457.876385" y="76.73565" style="fill: #5d5d5d; stroke: #5d5d5d"/>
     <use xlink:href="#m8348c4a31e" x="532.831609" y="75.790508" style="fill: #5d5d5d; stroke: #5d5d5d"/>
    </g>
   </g>
   <g id="PathCollection_2">
    <defs>
     <path id="C0_0_7c74af72af" d="M 0 1.870829 
C 0.49615 1.870829 0.972045 1.673706 1.322876 1.322876 
C 1.673706 0.972045 1.870829 0.49615 1.870829 -0 
C 1.870829 -0.49615 1.673706 -0.972045 1.322876 -1.322876 
C 0.972045 -1.673706 0.49615 -1.870829 0 -1.870829 
C -0.49615 -1.870829 -0.972045 -1.673706 -1.322876 -1.322876 
C -1.673706 -0.972045 -1.870829 -0.49615 -1.870829 0 
C -1.870829 0.49615 -1.673706 0.972045 -1.322876 1.322876 
C -0.972045 1.673706 -0.49615 1.870829 0 1.870829 
z
"/>
    </defs>
    <g clip-path="url(#p4b32183cae)">
     <use xlink:href="#C0_0_7c74af72af" x="90.595788" y="83.599843" style="fill: #af5a51"/>
    </g>
    <g clip-path="url(#p4b32183cae)">
     <use xlink:href="#C0_0_7c74af72af" x="165.551012" y="76.459532" style="fill: #af5a51"/>
    </g>
    <g clip-path="url(#p4b32183cae)">
     <use xlink:href="#C0_0_7c74af72af" x="240.506236" y="81.999233" style="fill: #af5a51"/>
    </g>
    <g clip-path="url(#p4b32183cae)">
     <use xlink:href="#C0_0_7c74af72af" x="315.46146" y="84.467569" style="fill: #af5a51"/>
    </g>
    <g clip-path="url(#p4b32183cae)">
     <use xlink:href="#C0_0_7c74af72af" x="390.416684" y="73.036777" style="fill: #af5a51"/>
    </g>
    <g clip-path="url(#p4b32183cae)">
     <use xlink:href="#C0_0_7c74af72af" x="465.371908" y="70.827965" style="fill: #af5a51"/>
    </g>
    <g clip-path="url(#p4b32183cae)">
     <use xlink:href="#C0_0_7c74af72af" x="540.327132" y="67.011917" style="fill: #af5a51"/>
    </g>
   </g>
   <g id="LineCollection_1">
    <path d="M 83.100266 122.236384 
L 83.100266 52.925389 
" clip-path="url(#p4b32183cae)" style="fill: none; stroke: #5d5d5d; stroke-width: 0.5"/>
    <path d="M 158.05549 114.836825 
L 158.05549 54.592821 
" clip-path="url(#p4b32183cae)" style="fill: none; stroke: #5d5d5d; stroke-width: 0.5"/>
    <path d="M 233.010714 118.141043 
L 233.010714 50.804534 
" clip-path="url(#p4b32183cae)" style="fill: none; stroke: #5d5d5d; stroke-width: 0.5"/>
    <path d="M 307.965938 126.717945 
L 307.965938 56.610723 
" clip-path="url(#p4b32183cae)" style="fill: none; stroke: #5d5d5d; stroke-width: 0.5"/>
    <path d="M 382.921161 105.070677 
L 382.921161 52.67557 
" clip-path="url(#p4b32183cae)" style="fill: none; stroke: #5d5d5d; stroke-width: 0.5"/>
    <path d="M 457.876385 105.15415 
L 457.876385 48.317149 
" clip-path="url(#p4b32183cae)" style="fill: none; stroke: #5d5d5d; stroke-width: 0.5"/>
    <path d="M 532.831609 106.017018 
L 532.831609 45.563999 
" clip-path="url(#p4b32183cae)" style="fill: none; stroke: #5d5d5d; stroke-width: 0.5"/>
   </g>
   <g id="line2d_5">
    <defs>
     <path id="m2e2e41f224" d="M 1.5 0 
L -1.5 -0 
" style="stroke: #5d5d5d"/>
    </defs>
    <g clip-path="url(#p4b32183cae)">
     <use xlink:href="#m2e2e41f224" x="83.100266" y="122.236384" style="fill: #5d5d5d; stroke: #5d5d5d"/>
     <use xlink:href="#m2e2e41f224" x="158.05549" y="114.836825" style="fill: #5d5d5d; stroke: #5d5d5d"/>
     <use xlink:href="#m2e2e41f224" x="233.010714" y="118.141043" style="fill: #5d5d5d; stroke: #5d5d5d"/>
     <use xlink:href="#m2e2e41f224" x="307.965938" y="126.717945" style="fill: #5d5d5d; stroke: #5d5d5d"/>
     <use xlink:href="#m2e2e41f224" x="382.921161" y="105.070677" style="fill: #5d5d5d; stroke: #5d5d5d"/>
     <use xlink:href="#m2e2e41f224" x="457.876385" y="105.15415" style="fill: #5d5d5d; stroke: #5d5d5d"/>
     <use xlink:href="#m2e2e41f224" x="532.831609" y="106.017018" style="fill: #5d5d5d; stroke: #5d5d5d"/>
    </g>
   </g>
   <g id="line2d_6">
    <g clip-path="url(#p4b32183cae)">
     <use xlink:href="#m2e2e41f224" x="83.100266" y="52.925389" style="fill: #5d5d5d; stroke: #5d5d5d"/>
     <use xlink:href="#m2e2e41f224" x="158.05549" y="54.592821" style="fill: #5d5d5d; stroke: #5d5d5d"/>
     <use xlink:href="#m2e2e41f224" x="233.010714" y="50.804534" style="fill: #5d5d5d; stroke: #5d5d5d"/>
     <use xlink:href="#m2e2e41f224" x="307.965938" y="56.610723" style="fill: #5d5d5d; stroke: #5d5d5d"/>
     <use xlink:href="#m2e2e41f224" x="382.921161" y="52.67557" style="fill: #5d5d5d; stroke: #5d5d5d"/>
     <use xlink:href="#m2e2e41f224" x="457.876385" y="48.317149" style="fill: #5d5d5d; stroke: #5d5d5d"/>
     <use xlink:href="#m2e2e41f224" x="532.831609" y="45.563999" style="fill: #5d5d5d; stroke: #5d5d5d"/>
    </g>
   </g>
   <g id="LineCollection_2">
    <path d="M 83.100266 95.295558 
L 83.100266 79.866215 
" clip-path="url(#p4b32183cae)" style="fill: none; stroke: #5d5d5d; stroke-width: 2"/>
    <path d="M 158.05549 91.325883 
L 158.05549 78.103764 
" clip-path="url(#p4b32183cae)" style="fill: none; stroke: #5d5d5d; stroke-width: 2"/>
    <path d="M 233.010714 92.001893 
L 233.010714 76.943684 
" clip-path="url(#p4b32183cae)" style="fill: none; stroke: #5d5d5d; stroke-width: 2"/>
    <path d="M 307.965938 99.502194 
L 307.965938 83.826474 
" clip-path="url(#p4b32183cae)" style="fill: none; stroke: #5d5d5d; stroke-width: 2"/>
    <path d="M 382.921161 84.668364 
L 382.921161 73.077883 
" clip-path="url(#p4b32183cae)" style="fill: none; stroke: #5d5d5d; stroke-width: 2"/>
    <path d="M 457.876385 82.839839 
L 457.876385 70.63146 
" clip-path="url(#p4b32183cae)" style="fill: none; stroke: #5d5d5d; stroke-width: 2"/>
    <path d="M 532.831609 82.350859 
L 532.831609 69.230158 
" clip-path="url(#p4b32183cae)" style="fill: none; stroke: #5d5d5d; stroke-width: 2"/>
   </g>
   <g id="line2d_7">
    <path d="M 69.420938 87.580887 
L 546.510938 87.580887 
" clip-path="url(#p4b32183cae)" style="fill: none; stroke-dasharray: 0.5,0.825; stroke-dashoffset: 0; stroke: #608eb4; stroke-width: 0.5"/>
   </g>
   <g id="line2d_8"/>
   <g id="line2d_9"/>
   <g id="patch_3">
    <path d="M 51.865938 136.22375 
L 51.865938 35.42375 
" style="fill: none; stroke: #bbbbbb; stroke-width: 0.75; stroke-linejoin: miter; stroke-linecap: square"/>
   </g>
   <g id="legend_1">
    <g id="line2d_10">
     <defs>
      <path id="m19752ad306" d="M 0 1.5 
C 0.397805 1.5 0.77937 1.341951 1.06066 1.06066 
C 1.341951 0.77937 1.5 0.397805 1.5 0 
C 1.5 -0.397805 1.341951 -0.77937 1.06066 -1.06066 
C 0.77937 -1.341951 0.397805 -1.5 0 -1.5 
C -0.397805 -1.5 -0.77937 -1.341951 -1.06066 -1.06066 
C -1.341951 -0.77937 -1.5 -0.397805 -1.5 0 
C -1.5 0.397805 -1.341951 0.77937 -1.06066 1.06066 
C -0.77937 1.341951 -0.397805 1.5 0 1.5 
z
" style="stroke: #5d5d5d"/>
     </defs>
     <g>
      <use xlink:href="#m19752ad306" x="54.510938" y="13.86375" style="fill: #5d5d5d; stroke: #5d5d5d"/>
     </g>
    </g>
    <g id="text_13">
     <!-- Train RMSE (20-fold CV) -->
     <g style="fill: #4b4b4b" transform="translate(63.510938 16.66375) scale(0.08 -0.08)">
      <defs>
       <path id="Ubuntu-54" d="M 3514 4435 
L 3514 3898 
L 2118 3898 
L 2118 0 
L 1498 0 
L 1498 3898 
L 102 3898 
L 102 4435 
L 3514 4435 
z
" transform="scale(0.015625)"/>
       <path id="Ubuntu-72" d="M 1741 3398 
Q 1818 3398 1917 3388 
Q 2016 3379 2112 3363 
Q 2208 3347 2288 3331 
Q 2368 3315 2406 3302 
L 2304 2784 
Q 2234 2810 2070 2845 
Q 1907 2880 1651 2880 
Q 1485 2880 1321 2845 
Q 1158 2810 1107 2797 
L 1107 0 
L 512 0 
L 512 3187 
Q 723 3264 1036 3331 
Q 1350 3398 1741 3398 
z
" transform="scale(0.015625)"/>
       <path id="Ubuntu-61" d="M 1638 429 
Q 1850 429 2013 438 
Q 2176 448 2285 474 
L 2285 1466 
Q 2221 1498 2077 1520 
Q 1933 1542 1728 1542 
Q 1594 1542 1443 1523 
Q 1293 1504 1168 1443 
Q 1043 1382 960 1276 
Q 877 1171 877 998 
Q 877 678 1081 553 
Q 1286 429 1638 429 
z
M 1587 3411 
Q 1946 3411 2192 3318 
Q 2438 3226 2588 3056 
Q 2739 2886 2803 2652 
Q 2867 2419 2867 2138 
L 2867 58 
Q 2790 45 2652 22 
Q 2515 0 2342 -19 
Q 2170 -38 1968 -54 
Q 1766 -70 1568 -70 
Q 1286 -70 1049 -12 
Q 813 45 640 169 
Q 467 294 371 499 
Q 275 704 275 992 
Q 275 1267 387 1465 
Q 499 1664 691 1785 
Q 883 1907 1139 1964 
Q 1395 2022 1677 2022 
Q 1766 2022 1862 2012 
Q 1958 2003 2044 1987 
Q 2131 1971 2195 1958 
Q 2259 1946 2285 1939 
L 2285 2106 
Q 2285 2253 2253 2397 
Q 2221 2541 2137 2653 
Q 2054 2765 1910 2832 
Q 1766 2899 1536 2899 
Q 1242 2899 1021 2857 
Q 800 2816 691 2771 
L 621 3264 
Q 736 3315 1005 3363 
Q 1274 3411 1587 3411 
z
" transform="scale(0.015625)"/>
       <path id="Ubuntu-69" d="M 1107 0 
L 512 0 
L 512 3328 
L 1107 3328 
L 1107 0 
z
M 806 3930 
Q 646 3930 534 4035 
Q 422 4141 422 4320 
Q 422 4499 534 4604 
Q 646 4710 806 4710 
Q 966 4710 1078 4604 
Q 1190 4499 1190 4320 
Q 1190 4141 1078 4035 
Q 966 3930 806 3930 
z
" transform="scale(0.015625)"/>
       <path id="Ubuntu-6e" d="M 512 3232 
Q 717 3283 1056 3340 
Q 1395 3398 1837 3398 
Q 2234 3398 2496 3286 
Q 2758 3174 2915 2972 
Q 3072 2771 3136 2489 
Q 3200 2208 3200 1869 
L 3200 0 
L 2605 0 
L 2605 1741 
Q 2605 2048 2563 2265 
Q 2522 2483 2426 2617 
Q 2330 2752 2170 2813 
Q 2010 2874 1773 2874 
Q 1677 2874 1574 2867 
Q 1472 2861 1379 2851 
Q 1286 2842 1212 2829 
Q 1139 2816 1107 2810 
L 1107 0 
L 512 0 
L 512 3232 
z
" transform="scale(0.015625)"/>
       <path id="Ubuntu-20" transform="scale(0.015625)"/>
       <path id="Ubuntu-52" d="M 2720 1856 
Q 2822 1728 2979 1520 
Q 3136 1312 3302 1059 
Q 3469 806 3632 531 
Q 3795 256 3910 0 
L 3232 0 
Q 3104 243 2953 492 
Q 2803 742 2649 969 
Q 2496 1197 2345 1395 
Q 2195 1594 2074 1741 
Q 1990 1734 1904 1734 
Q 1818 1734 1728 1734 
L 1171 1734 
L 1171 0 
L 550 0 
L 550 4371 
Q 813 4435 1136 4457 
Q 1459 4480 1728 4480 
Q 2662 4480 3152 4128 
Q 3642 3776 3642 3078 
Q 3642 2637 3408 2323 
Q 3174 2010 2720 1856 
z
M 1779 3936 
Q 1382 3936 1171 3917 
L 1171 2246 
L 1613 2246 
Q 1933 2246 2189 2278 
Q 2445 2310 2621 2400 
Q 2797 2490 2893 2653 
Q 2989 2816 2989 3085 
Q 2989 3334 2893 3500 
Q 2797 3667 2633 3763 
Q 2470 3859 2249 3897 
Q 2029 3936 1779 3936 
z
" transform="scale(0.015625)"/>
       <path id="Ubuntu-4d" d="M 2541 614 
Q 2477 768 2371 1005 
Q 2266 1242 2144 1517 
Q 2022 1792 1884 2083 
Q 1747 2374 1625 2633 
Q 1504 2893 1398 3097 
Q 1293 3302 1229 3411 
Q 1158 2656 1113 1776 
Q 1069 896 1037 0 
L 429 0 
Q 454 576 486 1161 
Q 518 1747 560 2313 
Q 602 2880 650 3417 
Q 698 3955 755 4435 
L 1299 4435 
Q 1472 4154 1670 3770 
Q 1869 3386 2067 2966 
Q 2266 2547 2451 2128 
Q 2637 1709 2790 1363 
Q 2944 1709 3129 2128 
Q 3315 2547 3513 2966 
Q 3712 3386 3910 3770 
Q 4109 4154 4282 4435 
L 4826 4435 
Q 5043 2291 5152 0 
L 4544 0 
Q 4512 896 4467 1776 
Q 4422 2656 4352 3411 
Q 4288 3302 4182 3097 
Q 4077 2893 3955 2633 
Q 3834 2374 3696 2083 
Q 3558 1792 3436 1517 
Q 3315 1242 3209 1005 
Q 3104 768 3040 614 
L 2541 614 
z
" transform="scale(0.015625)"/>
       <path id="Ubuntu-53" d="M 1581 442 
Q 2554 442 2554 1107 
Q 2554 1312 2467 1456 
Q 2381 1600 2233 1705 
Q 2086 1811 1897 1888 
Q 1709 1965 1498 2042 
Q 1254 2125 1036 2230 
Q 819 2336 659 2480 
Q 499 2624 406 2822 
Q 314 3021 314 3302 
Q 314 3885 710 4211 
Q 1107 4538 1805 4538 
Q 2208 4538 2537 4451 
Q 2867 4365 3021 4262 
L 2822 3757 
Q 2688 3840 2422 3920 
Q 2157 4000 1805 4000 
Q 1626 4000 1472 3961 
Q 1318 3923 1203 3846 
Q 1088 3770 1021 3651 
Q 954 3533 954 3373 
Q 954 3194 1024 3072 
Q 1094 2950 1222 2857 
Q 1350 2765 1520 2688 
Q 1690 2611 1894 2534 
Q 2182 2419 2422 2304 
Q 2662 2189 2838 2029 
Q 3014 1869 3110 1648 
Q 3206 1427 3206 1114 
Q 3206 531 2780 217 
Q 2355 -96 1581 -96 
Q 1318 -96 1097 -61 
Q 877 -26 704 22 
Q 531 70 406 124 
Q 282 179 211 218 
L 397 730 
Q 544 646 845 544 
Q 1146 442 1581 442 
z
" transform="scale(0.015625)"/>
       <path id="Ubuntu-45" d="M 550 0 
L 550 4435 
L 3258 4435 
L 3258 3904 
L 1171 3904 
L 1171 2586 
L 3027 2586 
L 3027 2067 
L 1171 2067 
L 1171 531 
L 3418 531 
L 3418 0 
L 550 0 
z
" transform="scale(0.015625)"/>
       <path id="Ubuntu-28" d="M 1094 1914 
Q 1094 1094 1331 396 
Q 1568 -301 2029 -896 
L 1606 -1184 
Q 1107 -576 803 214 
Q 499 1005 499 1914 
Q 499 2822 803 3612 
Q 1107 4403 1606 5011 
L 2029 4723 
Q 1568 4128 1331 3430 
Q 1094 2733 1094 1914 
z
" transform="scale(0.015625)"/>
       <path id="Ubuntu-2d" d="M 166 2195 
L 1747 2195 
L 1747 1638 
L 166 1638 
L 166 2195 
z
" transform="scale(0.015625)"/>
       <path id="Ubuntu-66" d="M 1811 4966 
Q 2074 4966 2262 4928 
Q 2451 4890 2528 4858 
L 2419 4346 
Q 2342 4384 2201 4419 
Q 2061 4454 1856 4454 
Q 1440 4454 1273 4227 
Q 1107 4000 1107 3616 
L 1107 3328 
L 2387 3328 
L 2387 2829 
L 1107 2829 
L 1107 0 
L 512 0 
L 512 3629 
Q 512 4269 825 4617 
Q 1139 4966 1811 4966 
z
" transform="scale(0.015625)"/>
       <path id="Ubuntu-6f" d="M 3450 1664 
Q 3450 1267 3334 947 
Q 3219 627 3011 396 
Q 2803 166 2515 41 
Q 2227 -83 1888 -83 
Q 1549 -83 1261 41 
Q 973 166 765 396 
Q 557 627 441 947 
Q 326 1267 326 1664 
Q 326 2054 441 2377 
Q 557 2701 765 2931 
Q 973 3162 1261 3286 
Q 1549 3411 1888 3411 
Q 2227 3411 2515 3286 
Q 2803 3162 3011 2931 
Q 3219 2701 3334 2377 
Q 3450 2054 3450 1664 
z
M 2829 1664 
Q 2829 2227 2576 2556 
Q 2323 2886 1888 2886 
Q 1453 2886 1200 2556 
Q 947 2227 947 1664 
Q 947 1101 1200 771 
Q 1453 442 1888 442 
Q 2323 442 2576 771 
Q 2829 1101 2829 1664 
z
" transform="scale(0.015625)"/>
       <path id="Ubuntu-6c" d="M 1510 -64 
Q 960 -51 729 173 
Q 499 397 499 870 
L 499 4864 
L 1094 4966 
L 1094 966 
Q 1094 819 1120 723 
Q 1146 627 1203 569 
Q 1261 512 1357 483 
Q 1453 454 1594 435 
L 1510 -64 
z
" transform="scale(0.015625)"/>
       <path id="Ubuntu-64" d="M 2662 2624 
Q 2554 2714 2349 2797 
Q 2144 2880 1901 2880 
Q 1645 2880 1462 2787 
Q 1280 2694 1165 2531 
Q 1050 2368 998 2144 
Q 947 1920 947 1664 
Q 947 1082 1235 765 
Q 1523 448 2003 448 
Q 2246 448 2409 470 
Q 2573 493 2662 518 
L 2662 2624 
z
M 2662 4864 
L 3258 4966 
L 3258 96 
Q 3053 38 2733 -19 
Q 2413 -77 1997 -77 
Q 1613 -77 1305 44 
Q 998 166 780 390 
Q 563 614 444 937 
Q 326 1261 326 1664 
Q 326 2048 425 2368 
Q 525 2688 717 2918 
Q 909 3149 1187 3277 
Q 1466 3405 1824 3405 
Q 2112 3405 2333 3328 
Q 2554 3251 2662 3181 
L 2662 4864 
z
" transform="scale(0.015625)"/>
       <path id="Ubuntu-43" d="M 2458 -96 
Q 1990 -96 1606 57 
Q 1222 211 947 505 
Q 672 800 521 1232 
Q 371 1664 371 2221 
Q 371 2778 540 3210 
Q 710 3642 998 3936 
Q 1286 4230 1670 4384 
Q 2054 4538 2490 4538 
Q 2765 4538 2985 4499 
Q 3206 4461 3369 4409 
Q 3533 4358 3635 4307 
Q 3738 4256 3776 4230 
L 3597 3718 
Q 3539 3757 3430 3801 
Q 3322 3846 3184 3891 
Q 3046 3936 2883 3965 
Q 2720 3994 2554 3994 
Q 2202 3994 1920 3872 
Q 1638 3750 1440 3520 
Q 1242 3290 1136 2960 
Q 1030 2630 1030 2221 
Q 1030 1824 1123 1497 
Q 1216 1171 1401 937 
Q 1587 704 1865 576 
Q 2144 448 2515 448 
Q 2944 448 3225 537 
Q 3507 627 3648 698 
L 3808 186 
Q 3763 154 3648 106 
Q 3533 58 3360 13 
Q 3187 -32 2956 -64 
Q 2726 -96 2458 -96 
z
" transform="scale(0.015625)"/>
       <path id="Ubuntu-56" d="M 4134 4435 
Q 3891 3731 3670 3132 
Q 3450 2534 3238 1996 
Q 3027 1459 2819 969 
Q 2611 480 2394 0 
L 1811 0 
Q 1594 480 1386 969 
Q 1178 1459 963 1996 
Q 749 2534 525 3132 
Q 301 3731 64 4435 
L 749 4435 
Q 1094 3424 1427 2489 
Q 1760 1555 2112 736 
Q 2464 1549 2797 2486 
Q 3130 3424 3469 4435 
L 4134 4435 
z
" transform="scale(0.015625)"/>
       <path id="Ubuntu-29" d="M 979 1914 
Q 979 2733 742 3430 
Q 506 4128 45 4723 
L 467 5011 
Q 966 4403 1270 3612 
Q 1574 2822 1574 1914 
Q 1574 1005 1270 214 
Q 966 -576 467 -1184 
L 45 -896 
Q 506 -301 742 396 
Q 979 1094 979 1914 
z
" transform="scale(0.015625)"/>
      </defs>
      <use xlink:href="#Ubuntu-54"/>
      <use xlink:href="#Ubuntu-72" x="52.499985"/>
      <use xlink:href="#Ubuntu-61" x="91.099976"/>
      <use xlink:href="#Ubuntu-69" x="143.299973"/>
      <use xlink:href="#Ubuntu-6e" x="168.59996"/>
      <use xlink:href="#Ubuntu-20" x="225.999954"/>
      <use xlink:href="#Ubuntu-52" x="249.099945"/>
      <use xlink:href="#Ubuntu-4d" x="311.999939"/>
      <use xlink:href="#Ubuntu-53" x="399.09993"/>
      <use xlink:href="#Ubuntu-45" x="452.299927"/>
      <use xlink:href="#Ubuntu-20" x="509.399918"/>
      <use xlink:href="#Ubuntu-28" x="532.499908"/>
      <use xlink:href="#Ubuntu-32" x="564.899902"/>
      <use xlink:href="#Ubuntu-30" x="621.299896"/>
      <use xlink:href="#Ubuntu-2d" x="677.69989"/>
      <use xlink:href="#Ubuntu-66" x="707.599884"/>
      <use xlink:href="#Ubuntu-6f" x="746.199875"/>
      <use xlink:href="#Ubuntu-6c" x="805.19986"/>
      <use xlink:href="#Ubuntu-64" x="832.499847"/>
      <use xlink:href="#Ubuntu-20" x="891.399841"/>
      <use xlink:href="#Ubuntu-43" x="914.499832"/>
      <use xlink:href="#Ubuntu-56" x="978.249817"/>
      <use xlink:href="#Ubuntu-29" x="1045.474808"/>
     </g>
    </g>
    <g id="line2d_11">
     <defs>
      <path id="m1296e06e3c" d="M 0 1.5 
C 0.397805 1.5 0.77937 1.341951 1.06066 1.06066 
C 1.341951 0.77937 1.5 0.397805 1.5 0 
C 1.5 -0.397805 1.341951 -0.77937 1.06066 -1.06066 
C 0.77937 -1.341951 0.397805 -1.5 0 -1.5 
C -0.397805 -1.5 -0.77937 -1.341951 -1.06066 -1.06066 
C -1.341951 -0.77937 -1.5 -0.397805 -1.5 0 
C -1.5 0.397805 -1.341951 0.77937 -1.06066 1.06066 
C -0.77937 1.341951 -0.397805 1.5 0 1.5 
z
" style="stroke: #af5a51"/>
     </defs>
     <g>
      <use xlink:href="#m1296e06e3c" x="168.740938" y="13.86375" style="fill: #af5a51; stroke: #af5a51"/>
     </g>
    </g>
    <g id="text_14">
     <!-- Test RMSE -->
     <g style="fill: #4b4b4b" transform="translate(177.740938 16.66375) scale(0.08 -0.08)">
      <defs>
       <path id="Ubuntu-65" d="M 326 1658 
Q 326 2099 454 2428 
Q 582 2758 793 2976 
Q 1005 3194 1280 3302 
Q 1555 3411 1843 3411 
Q 2515 3411 2873 2992 
Q 3232 2573 3232 1715 
Q 3232 1677 3232 1616 
Q 3232 1555 3226 1504 
L 947 1504 
Q 986 986 1248 717 
Q 1510 448 2067 448 
Q 2381 448 2595 502 
Q 2810 557 2918 608 
L 3002 109 
Q 2893 51 2621 -13 
Q 2349 -77 2003 -77 
Q 1568 -77 1251 54 
Q 934 186 729 416 
Q 525 646 425 963 
Q 326 1280 326 1658 
z
M 2611 1984 
Q 2618 2387 2410 2646 
Q 2202 2906 1837 2906 
Q 1632 2906 1475 2826 
Q 1318 2746 1209 2618 
Q 1101 2490 1040 2323 
Q 979 2157 960 1984 
L 2611 1984 
z
" transform="scale(0.015625)"/>
       <path id="Ubuntu-73" d="M 1286 429 
Q 1651 429 1827 525 
Q 2003 621 2003 832 
Q 2003 1050 1830 1178 
Q 1658 1306 1261 1466 
Q 1069 1542 893 1622 
Q 717 1702 589 1811 
Q 461 1920 384 2073 
Q 307 2227 307 2451 
Q 307 2893 633 3152 
Q 960 3411 1523 3411 
Q 1664 3411 1805 3395 
Q 1946 3379 2067 3356 
Q 2189 3334 2281 3308 
Q 2374 3283 2426 3264 
L 2317 2752 
Q 2221 2803 2016 2857 
Q 1811 2912 1523 2912 
Q 1274 2912 1088 2813 
Q 902 2714 902 2502 
Q 902 2394 944 2310 
Q 986 2227 1072 2160 
Q 1158 2093 1286 2035 
Q 1414 1978 1594 1914 
Q 1830 1824 2016 1737 
Q 2202 1651 2333 1536 
Q 2464 1421 2534 1257 
Q 2605 1094 2605 858 
Q 2605 397 2262 160 
Q 1920 -77 1286 -77 
Q 845 -77 595 -3 
Q 346 70 256 109 
L 365 621 
Q 467 582 691 505 
Q 915 429 1286 429 
z
" transform="scale(0.015625)"/>
       <path id="Ubuntu-74" d="M 1069 3328 
L 2330 3328 
L 2330 2829 
L 1069 2829 
L 1069 1293 
Q 1069 1043 1107 880 
Q 1146 717 1222 624 
Q 1299 531 1414 492 
Q 1530 454 1683 454 
Q 1952 454 2115 515 
Q 2278 576 2342 602 
L 2458 109 
Q 2368 64 2144 -3 
Q 1920 -70 1632 -70 
Q 1293 -70 1072 16 
Q 851 102 716 275 
Q 582 448 528 701 
Q 474 954 474 1286 
L 474 4256 
L 1069 4358 
L 1069 3328 
z
" transform="scale(0.015625)"/>
      </defs>
      <use xlink:href="#Ubuntu-54"/>
      <use xlink:href="#Ubuntu-65" x="50.999985"/>
      <use xlink:href="#Ubuntu-73" x="106.899979"/>
      <use xlink:href="#Ubuntu-74" x="151.499969"/>
      <use xlink:href="#Ubuntu-20" x="191.699966"/>
      <use xlink:href="#Ubuntu-52" x="214.799957"/>
      <use xlink:href="#Ubuntu-4d" x="277.699951"/>
      <use xlink:href="#Ubuntu-53" x="364.799942"/>
      <use xlink:href="#Ubuntu-45" x="417.999939"/>
     </g>
    </g>
    <g id="line2d_12">
     <path d="M 231.748438 13.86375 
L 234.748438 13.86375 
L 237.748438 13.86375 
" style="fill: none; stroke: #5d5d5d; stroke-opacity: 0.95; stroke-width: 1.75; stroke-linecap: square"/>
    </g>
    <g id="text_15">
     <!-- Confidence intervals (95%) -->
     <g style="fill: #4b4b4b" transform="translate(243.748438 16.66375) scale(0.08 -0.08)">
      <defs>
       <path id="Ubuntu-63" d="M 1958 -77 
Q 1555 -77 1251 51 
Q 947 179 739 409 
Q 531 640 428 957 
Q 326 1274 326 1658 
Q 326 2042 438 2362 
Q 550 2682 755 2915 
Q 960 3149 1257 3280 
Q 1555 3411 1920 3411 
Q 2144 3411 2368 3372 
Q 2592 3334 2797 3251 
L 2662 2746 
Q 2528 2810 2352 2848 
Q 2176 2886 1978 2886 
Q 1478 2886 1212 2572 
Q 947 2259 947 1658 
Q 947 1389 1008 1165 
Q 1069 941 1200 781 
Q 1331 621 1536 534 
Q 1741 448 2035 448 
Q 2272 448 2464 493 
Q 2656 538 2765 589 
L 2848 90 
Q 2797 58 2701 29 
Q 2605 0 2483 -22 
Q 2362 -45 2224 -61 
Q 2086 -77 1958 -77 
z
" transform="scale(0.015625)"/>
       <path id="Ubuntu-76" d="M 3110 3328 
Q 2861 2394 2525 1536 
Q 2189 678 1875 0 
L 1338 0 
Q 1024 678 688 1536 
Q 352 2394 102 3328 
L 742 3328 
Q 819 3014 924 2659 
Q 1030 2304 1148 1955 
Q 1267 1606 1388 1280 
Q 1510 954 1619 698 
Q 1728 954 1849 1280 
Q 1971 1606 2089 1955 
Q 2208 2304 2313 2659 
Q 2419 3014 2496 3328 
L 3110 3328 
z
" transform="scale(0.015625)"/>
       <path id="Ubuntu-39" d="M 3206 2662 
Q 3206 1344 2550 669 
Q 1894 -6 602 -13 
L 582 486 
Q 986 486 1309 563 
Q 1632 640 1875 809 
Q 2118 979 2281 1248 
Q 2445 1517 2522 1907 
Q 2355 1830 2144 1782 
Q 1933 1734 1709 1734 
Q 1331 1734 1068 1846 
Q 806 1958 640 2147 
Q 474 2336 400 2582 
Q 326 2829 326 3098 
Q 326 3334 409 3590 
Q 493 3846 662 4057 
Q 832 4269 1094 4403 
Q 1357 4538 1715 4538 
Q 2080 4538 2358 4410 
Q 2637 4282 2825 4038 
Q 3014 3795 3110 3446 
Q 3206 3098 3206 2662 
z
M 1773 2221 
Q 1997 2221 2195 2262 
Q 2394 2304 2579 2387 
Q 2586 2458 2586 2525 
Q 2586 2592 2586 2662 
Q 2586 2938 2547 3190 
Q 2509 3443 2409 3632 
Q 2310 3821 2144 3933 
Q 1978 4045 1722 4045 
Q 1510 4045 1363 3955 
Q 1216 3866 1120 3728 
Q 1024 3590 982 3427 
Q 941 3264 941 3110 
Q 941 2675 1149 2448 
Q 1357 2221 1773 2221 
z
" transform="scale(0.015625)"/>
       <path id="Ubuntu-25" d="M 320 3354 
Q 320 3642 397 3859 
Q 474 4077 611 4227 
Q 749 4378 934 4454 
Q 1120 4531 1338 4531 
Q 1555 4531 1740 4454 
Q 1926 4378 2064 4227 
Q 2202 4077 2278 3859 
Q 2355 3642 2355 3354 
Q 2355 3066 2278 2848 
Q 2202 2630 2064 2480 
Q 1926 2330 1740 2253 
Q 1555 2176 1338 2176 
Q 1120 2176 934 2253 
Q 749 2330 611 2480 
Q 474 2630 397 2848 
Q 320 3066 320 3354 
z
M 1856 3354 
Q 1856 3699 1721 3894 
Q 1587 4090 1338 4090 
Q 1088 4090 953 3894 
Q 819 3699 819 3354 
Q 819 3008 953 2813 
Q 1088 2618 1338 2618 
Q 1587 2618 1721 2813 
Q 1856 3008 1856 3354 
z
M 3136 1082 
Q 3136 1370 3213 1587 
Q 3290 1805 3427 1955 
Q 3565 2106 3750 2182 
Q 3936 2259 4154 2259 
Q 4371 2259 4556 2182 
Q 4742 2106 4880 1955 
Q 5018 1805 5094 1587 
Q 5171 1370 5171 1082 
Q 5171 794 5094 576 
Q 5018 358 4880 208 
Q 4742 58 4556 -19 
Q 4371 -96 4154 -96 
Q 3936 -96 3750 -19 
Q 3565 58 3427 208 
Q 3290 358 3213 576 
Q 3136 794 3136 1082 
z
M 4672 1082 
Q 4672 1427 4537 1622 
Q 4403 1818 4154 1818 
Q 3904 1818 3769 1622 
Q 3635 1427 3635 1082 
Q 3635 736 3769 541 
Q 3904 346 4154 346 
Q 4403 346 4537 541 
Q 4672 736 4672 1082 
z
M 4288 4435 
L 1786 0 
L 1203 0 
L 3706 4435 
L 4288 4435 
z
" transform="scale(0.015625)"/>
      </defs>
      <use xlink:href="#Ubuntu-43"/>
      <use xlink:href="#Ubuntu-6f" x="60.499985"/>
      <use xlink:href="#Ubuntu-6e" x="119.499969"/>
      <use xlink:href="#Ubuntu-66" x="176.899963"/>
      <use xlink:href="#Ubuntu-69" x="215.499954"/>
      <use xlink:href="#Ubuntu-64" x="240.799942"/>
      <use xlink:href="#Ubuntu-65" x="299.699936"/>
      <use xlink:href="#Ubuntu-6e" x="355.59993"/>
      <use xlink:href="#Ubuntu-63" x="412.999924"/>
      <use xlink:href="#Ubuntu-65" x="459.499908"/>
      <use xlink:href="#Ubuntu-20" x="515.399902"/>
      <use xlink:href="#Ubuntu-69" x="538.499893"/>
      <use xlink:href="#Ubuntu-6e" x="563.799881"/>
      <use xlink:href="#Ubuntu-74" x="621.199875"/>
      <use xlink:href="#Ubuntu-65" x="660.399872"/>
      <use xlink:href="#Ubuntu-72" x="716.299866"/>
      <use xlink:href="#Ubuntu-76" x="757.024857"/>
      <use xlink:href="#Ubuntu-61" x="807.224854"/>
      <use xlink:href="#Ubuntu-6c" x="859.42485"/>
      <use xlink:href="#Ubuntu-73" x="886.724838"/>
      <use xlink:href="#Ubuntu-20" x="931.324829"/>
      <use xlink:href="#Ubuntu-28" x="954.42482"/>
      <use xlink:href="#Ubuntu-39" x="986.824814"/>
      <use xlink:href="#Ubuntu-35" x="1043.224808"/>
      <use xlink:href="#Ubuntu-25" x="1099.624802"/>
      <use xlink:href="#Ubuntu-29" x="1185.424789"/>
     </g>
    </g>
    <g id="line2d_13">
     <path d="M 357.177188 13.86375 
L 360.177188 13.86375 
L 363.177188 13.86375 
" style="fill: none; stroke: #5d5d5d; stroke-opacity: 0.75; stroke-linecap: square"/>
    </g>
    <g id="text_16">
     <!-- Prediction intervals (95%) -->
     <g style="fill: #4b4b4b" transform="translate(369.177188 16.66375) scale(0.08 -0.08)">
      <defs>
       <path id="Ubuntu-50" d="M 1728 4480 
Q 2662 4480 3164 4125 
Q 3667 3770 3667 3066 
Q 3667 2682 3529 2410 
Q 3392 2138 3133 1968 
Q 2874 1798 2502 1721 
Q 2131 1645 1664 1645 
L 1171 1645 
L 1171 0 
L 550 0 
L 550 4371 
Q 813 4435 1136 4457 
Q 1459 4480 1728 4480 
z
M 1779 3936 
Q 1382 3936 1171 3917 
L 1171 2176 
L 1638 2176 
Q 1958 2176 2214 2217 
Q 2470 2259 2646 2358 
Q 2822 2458 2918 2630 
Q 3014 2803 3014 3072 
Q 3014 3328 2915 3494 
Q 2816 3661 2646 3760 
Q 2477 3859 2253 3897 
Q 2029 3936 1779 3936 
z
" transform="scale(0.015625)"/>
      </defs>
      <use xlink:href="#Ubuntu-50"/>
      <use xlink:href="#Ubuntu-72" x="60.799988"/>
      <use xlink:href="#Ubuntu-65" x="99.399979"/>
      <use xlink:href="#Ubuntu-64" x="155.299973"/>
      <use xlink:href="#Ubuntu-69" x="214.199966"/>
      <use xlink:href="#Ubuntu-63" x="239.499954"/>
      <use xlink:href="#Ubuntu-74" x="285.999939"/>
      <use xlink:href="#Ubuntu-69" x="326.199936"/>
      <use xlink:href="#Ubuntu-6f" x="351.499924"/>
      <use xlink:href="#Ubuntu-6e" x="410.499908"/>
      <use xlink:href="#Ubuntu-20" x="467.899902"/>
      <use xlink:href="#Ubuntu-69" x="490.999893"/>
      <use xlink:href="#Ubuntu-6e" x="516.299881"/>
      <use xlink:href="#Ubuntu-74" x="573.699875"/>
      <use xlink:href="#Ubuntu-65" x="612.899872"/>
      <use xlink:href="#Ubuntu-72" x="668.799866"/>
      <use xlink:href="#Ubuntu-76" x="709.524857"/>
      <use xlink:href="#Ubuntu-61" x="759.724854"/>
      <use xlink:href="#Ubuntu-6c" x="811.92485"/>
      <use xlink:href="#Ubuntu-73" x="839.224838"/>
      <use xlink:href="#Ubuntu-20" x="883.824829"/>
      <use xlink:href="#Ubuntu-28" x="906.92482"/>
      <use xlink:href="#Ubuntu-39" x="939.324814"/>
      <use xlink:href="#Ubuntu-35" x="995.724808"/>
      <use xlink:href="#Ubuntu-25" x="1052.124802"/>
      <use xlink:href="#Ubuntu-29" x="1137.924789"/>
     </g>
    </g>
    <g id="line2d_14">
     <path d="M 478.804688 13.86375 
L 481.804688 13.86375 
L 484.804688 13.86375 
" style="fill: none; stroke-dasharray: 0.5,0.825; stroke-dashoffset: 0; stroke: #608eb4; stroke-width: 0.5"/>
    </g>
    <g id="text_17">
     <!-- Base model mean -->
     <g style="fill: #4b4b4b" transform="translate(490.804688 16.66375) scale(0.08 -0.08)">
      <defs>
       <path id="Ubuntu-42" d="M 1747 -38 
Q 1613 -38 1456 -32 
Q 1299 -26 1142 -13 
Q 986 0 832 19 
Q 678 38 550 70 
L 550 4371 
Q 678 4403 832 4422 
Q 986 4442 1142 4454 
Q 1299 4467 1452 4473 
Q 1606 4480 1741 4480 
Q 2125 4480 2461 4422 
Q 2797 4365 3043 4227 
Q 3290 4090 3430 3866 
Q 3571 3642 3571 3315 
Q 3571 2950 3398 2716 
Q 3226 2483 2938 2368 
Q 3328 2253 3558 2003 
Q 3789 1754 3789 1299 
Q 3789 634 3299 298 
Q 2810 -38 1747 -38 
z
M 1165 2067 
L 1165 506 
Q 1235 499 1331 493 
Q 1414 486 1526 483 
Q 1638 480 1786 480 
Q 2061 480 2307 515 
Q 2554 550 2739 640 
Q 2925 730 3037 890 
Q 3149 1050 3149 1293 
Q 3149 1510 3065 1660 
Q 2982 1811 2825 1900 
Q 2669 1990 2451 2028 
Q 2234 2067 1965 2067 
L 1165 2067 
z
M 1165 2566 
L 1818 2566 
Q 2048 2566 2253 2598 
Q 2458 2630 2608 2713 
Q 2758 2797 2844 2931 
Q 2931 3066 2931 3270 
Q 2931 3462 2841 3593 
Q 2752 3725 2595 3805 
Q 2438 3885 2227 3923 
Q 2016 3962 1779 3962 
Q 1542 3962 1408 3955 
Q 1274 3949 1165 3936 
L 1165 2566 
z
" transform="scale(0.015625)"/>
       <path id="Ubuntu-6d" d="M 512 3232 
Q 717 3283 1053 3340 
Q 1389 3398 1830 3398 
Q 2150 3398 2368 3312 
Q 2586 3226 2733 3059 
Q 2778 3091 2874 3148 
Q 2970 3206 3110 3260 
Q 3251 3315 3424 3356 
Q 3597 3398 3795 3398 
Q 4179 3398 4422 3286 
Q 4666 3174 4803 2969 
Q 4941 2765 4989 2483 
Q 5037 2202 5037 1869 
L 5037 0 
L 4442 0 
L 4442 1741 
Q 4442 2035 4413 2246 
Q 4384 2458 4304 2598 
Q 4224 2739 4086 2806 
Q 3949 2874 3731 2874 
Q 3430 2874 3235 2794 
Q 3040 2714 2970 2650 
Q 3021 2483 3046 2284 
Q 3072 2086 3072 1869 
L 3072 0 
L 2477 0 
L 2477 1741 
Q 2477 2035 2445 2246 
Q 2413 2458 2333 2598 
Q 2253 2739 2115 2806 
Q 1978 2874 1766 2874 
Q 1677 2874 1574 2867 
Q 1472 2861 1379 2851 
Q 1286 2842 1209 2829 
Q 1133 2816 1107 2810 
L 1107 0 
L 512 0 
L 512 3232 
z
" transform="scale(0.015625)"/>
      </defs>
      <use xlink:href="#Ubuntu-42"/>
      <use xlink:href="#Ubuntu-61" x="64.299988"/>
      <use xlink:href="#Ubuntu-73" x="116.499985"/>
      <use xlink:href="#Ubuntu-65" x="161.099976"/>
      <use xlink:href="#Ubuntu-20" x="216.999969"/>
      <use xlink:href="#Ubuntu-6d" x="240.09996"/>
      <use xlink:href="#Ubuntu-6f" x="326.199951"/>
      <use xlink:href="#Ubuntu-64" x="385.199936"/>
      <use xlink:href="#Ubuntu-65" x="444.09993"/>
      <use xlink:href="#Ubuntu-6c" x="499.999924"/>
      <use xlink:href="#Ubuntu-20" x="527.299911"/>
      <use xlink:href="#Ubuntu-6d" x="550.399902"/>
      <use xlink:href="#Ubuntu-65" x="636.499893"/>
      <use xlink:href="#Ubuntu-61" x="692.399887"/>
      <use xlink:href="#Ubuntu-6e" x="744.599884"/>
     </g>
    </g>
   </g>
  </g>
  <g id="axes_2">
   <g id="patch_4">
    <path d="M 56.865938 257.18375 
L 559.065938 257.18375 
L 559.065938 156.38375 
L 56.865938 156.38375 
L 56.865938 257.18375 
z
" style="fill: none"/>
   </g>
   <g id="matplotlib.axis_3">
    <g id="xtick_8"/>
    <g id="xtick_9"/>
    <g id="xtick_10"/>
    <g id="xtick_11"/>
    <g id="xtick_12"/>
    <g id="xtick_13"/>
    <g id="xtick_14"/>
   </g>
   <g id="matplotlib.axis_4">
    <g id="ytick_5">
     <g id="line2d_15">
      <g>
       <use xlink:href="#md91f362e36" x="51.865938" y="257.18375" style="fill: #bbbbbb; stroke: #bbbbbb; stroke-width: 0.75"/>
      </g>
     </g>
     <g id="text_18">
      <!-- −0.20 -->
      <g style="fill: #9f9f9f" transform="translate(23.848437 260.2875) scale(0.08 -0.08)">
       <use xlink:href="#Ubuntu-2212"/>
       <use xlink:href="#Ubuntu-30" x="56.399994"/>
       <use xlink:href="#Ubuntu-2e" x="112.799988"/>
       <use xlink:href="#Ubuntu-32" x="137.399979"/>
       <use xlink:href="#Ubuntu-30" x="193.799973"/>
      </g>
     </g>
    </g>
    <g id="ytick_6">
     <g id="line2d_16">
      <g>
       <use xlink:href="#md91f362e36" x="51.865938" y="223.58375" style="fill: #bbbbbb; stroke: #bbbbbb; stroke-width: 0.75"/>
      </g>
     </g>
     <g id="text_19">
      <!-- −0.15 -->
      <g style="fill: #9f9f9f" transform="translate(23.848437 226.6875) scale(0.08 -0.08)">
       <use xlink:href="#Ubuntu-2212"/>
       <use xlink:href="#Ubuntu-30" x="56.399994"/>
       <use xlink:href="#Ubuntu-2e" x="112.799988"/>
       <use xlink:href="#Ubuntu-31" x="137.399979"/>
       <use xlink:href="#Ubuntu-35" x="193.799973"/>
      </g>
     </g>
    </g>
    <g id="ytick_7">
     <g id="line2d_17">
      <g>
       <use xlink:href="#md91f362e36" x="51.865938" y="189.98375" style="fill: #bbbbbb; stroke: #bbbbbb; stroke-width: 0.75"/>
      </g>
     </g>
     <g id="text_20">
      <!-- −0.10 -->
      <g style="fill: #9f9f9f" transform="translate(23.848437 193.0875) scale(0.08 -0.08)">
       <use xlink:href="#Ubuntu-2212"/>
       <use xlink:href="#Ubuntu-30" x="56.399994"/>
       <use xlink:href="#Ubuntu-2e" x="112.799988"/>
       <use xlink:href="#Ubuntu-31" x="137.399979"/>
       <use xlink:href="#Ubuntu-30" x="193.799973"/>
      </g>
     </g>
    </g>
    <g id="ytick_8">
     <g id="line2d_18">
      <g>
       <use xlink:href="#md91f362e36" x="51.865938" y="156.38375" style="fill: #bbbbbb; stroke: #bbbbbb; stroke-width: 0.75"/>
      </g>
     </g>
     <g id="text_21">
      <!-- −0.05 -->
      <g style="fill: #9f9f9f" transform="translate(23.848437 159.4875) scale(0.08 -0.08)">
       <use xlink:href="#Ubuntu-2212"/>
       <use xlink:href="#Ubuntu-30" x="56.399994"/>
       <use xlink:href="#Ubuntu-2e" x="112.799988"/>
       <use xlink:href="#Ubuntu-30" x="137.399979"/>
       <use xlink:href="#Ubuntu-35" x="193.799973"/>
      </g>
     </g>
    </g>
    <g id="text_22">
     <!-- RMSE -->
     <g style="fill: #505050" transform="translate(14.183437 181.152031) rotate(-90) scale(0.09 -0.09)">
      <use xlink:href="#Ubuntu-Bold-52"/>
      <use xlink:href="#Ubuntu-Bold-4d" x="66.699997"/>
      <use xlink:href="#Ubuntu-Bold-53" x="156.399979"/>
      <use xlink:href="#Ubuntu-Bold-45" x="214.599976"/>
     </g>
    </g>
   </g>
   <g id="PathCollection_3">
    <defs>
     <path id="C1_0_cd69a7f5cd" d="M 0 1.5 
C 0.397805 1.5 0.77937 1.341951 1.06066 1.06066 
C 1.341951 0.77937 1.5 0.397805 1.5 -0 
C 1.5 -0.397805 1.341951 -0.77937 1.06066 -1.06066 
C 0.77937 -1.341951 0.397805 -1.5 0 -1.5 
C -0.397805 -1.5 -0.77937 -1.341951 -1.06066 -1.06066 
C -1.341951 -0.77937 -1.5 -0.397805 -1.5 0 
C -1.5 0.397805 -1.341951 0.77937 -1.06066 1.06066 
C -0.77937 1.341951 -0.397805 1.5 0 1.5 
z
"/>
    </defs>
    <g clip-path="url(#p7db15aeeb0)">
     <use xlink:href="#C1_0_cd69a7f5cd" x="83.100266" y="233.191437" style="fill: #5d5d5d; fill-opacity: 0.75"/>
    </g>
    <g clip-path="url(#p7db15aeeb0)">
     <use xlink:href="#C1_0_cd69a7f5cd" x="81.183135" y="206.487729" style="fill: #5d5d5d; fill-opacity: 0.75"/>
    </g>
    <g clip-path="url(#p7db15aeeb0)">
     <use xlink:href="#C1_0_cd69a7f5cd" x="83.100266" y="200.4103" style="fill: #5d5d5d; fill-opacity: 0.75"/>
    </g>
    <g clip-path="url(#p7db15aeeb0)">
     <use xlink:href="#C1_0_cd69a7f5cd" x="83.100266" y="181.843696" style="fill: #5d5d5d; fill-opacity: 0.75"/>
    </g>
    <g clip-path="url(#p7db15aeeb0)">
     <use xlink:href="#C1_0_cd69a7f5cd" x="86.089631" y="223.82629" style="fill: #5d5d5d; fill-opacity: 0.75"/>
    </g>
    <g clip-path="url(#p7db15aeeb0)">
     <use xlink:href="#C1_0_cd69a7f5cd" x="80.656766" y="198.517047" style="fill: #5d5d5d; fill-opacity: 0.75"/>
    </g>
    <g clip-path="url(#p7db15aeeb0)">
     <use xlink:href="#C1_0_cd69a7f5cd" x="86.104212" y="202.934804" style="fill: #5d5d5d; fill-opacity: 0.75"/>
    </g>
    <g clip-path="url(#p7db15aeeb0)">
     <use xlink:href="#C1_0_cd69a7f5cd" x="83.100266" y="228.966002" style="fill: #5d5d5d; fill-opacity: 0.75"/>
    </g>
    <g clip-path="url(#p7db15aeeb0)">
     <use xlink:href="#C1_0_cd69a7f5cd" x="83.100266" y="217.897038" style="fill: #5d5d5d; fill-opacity: 0.75"/>
    </g>
    <g clip-path="url(#p7db15aeeb0)">
     <use xlink:href="#C1_0_cd69a7f5cd" x="83.100266" y="224.772075" style="fill: #5d5d5d; fill-opacity: 0.75"/>
    </g>
    <g clip-path="url(#p7db15aeeb0)">
     <use xlink:href="#C1_0_cd69a7f5cd" x="83.100266" y="208.868131" style="fill: #5d5d5d; fill-opacity: 0.75"/>
    </g>
    <g clip-path="url(#p7db15aeeb0)">
     <use xlink:href="#C1_0_cd69a7f5cd" x="83.100266" y="244.844215" style="fill: #5d5d5d; fill-opacity: 0.75"/>
    </g>
    <g clip-path="url(#p7db15aeeb0)">
     <use xlink:href="#C1_0_cd69a7f5cd" x="83.100266" y="211.966152" style="fill: #5d5d5d; fill-opacity: 0.75"/>
    </g>
    <g clip-path="url(#p7db15aeeb0)">
     <use xlink:href="#C1_0_cd69a7f5cd" x="85.365926" y="198.326067" style="fill: #5d5d5d; fill-opacity: 0.75"/>
    </g>
    <g clip-path="url(#p7db15aeeb0)">
     <use xlink:href="#C1_0_cd69a7f5cd" x="83.100266" y="203.837713" style="fill: #5d5d5d; fill-opacity: 0.75"/>
    </g>
    <g clip-path="url(#p7db15aeeb0)">
     <use xlink:href="#C1_0_cd69a7f5cd" x="80.047157" y="203.099372" style="fill: #5d5d5d; fill-opacity: 0.75"/>
    </g>
    <g clip-path="url(#p7db15aeeb0)">
     <use xlink:href="#C1_0_cd69a7f5cd" x="83.100266" y="195.144714" style="fill: #5d5d5d; fill-opacity: 0.75"/>
    </g>
    <g clip-path="url(#p7db15aeeb0)">
     <use xlink:href="#C1_0_cd69a7f5cd" x="79.956929" y="224.577053" style="fill: #5d5d5d; fill-opacity: 0.75"/>
    </g>
    <g clip-path="url(#p7db15aeeb0)">
     <use xlink:href="#C1_0_cd69a7f5cd" x="85.03891" y="179.479151" style="fill: #5d5d5d; fill-opacity: 0.75"/>
    </g>
    <g clip-path="url(#p7db15aeeb0)">
     <use xlink:href="#C1_0_cd69a7f5cd" x="79.950305" y="181.828747" style="fill: #5d5d5d; fill-opacity: 0.75"/>
    </g>
   </g>
   <g id="PathCollection_4">
    <defs>
     <path id="C2_0_e3f2fdc588" d="M 0 1.5 
C 0.397805 1.5 0.77937 1.341951 1.06066 1.06066 
C 1.341951 0.77937 1.5 0.397805 1.5 -0 
C 1.5 -0.397805 1.341951 -0.77937 1.06066 -1.06066 
C 0.77937 -1.341951 0.397805 -1.5 0 -1.5 
C -0.397805 -1.5 -0.77937 -1.341951 -1.06066 -1.06066 
C -1.341951 -0.77937 -1.5 -0.397805 -1.5 0 
C -1.5 0.397805 -1.341951 0.77937 -1.06066 1.06066 
C -0.77937 1.341951 -0.397805 1.5 0 1.5 
z
"/>
    </defs>
    <g clip-path="url(#p7db15aeeb0)">
     <use xlink:href="#C2_0_e3f2fdc588" x="158.05549" y="228.429431" style="fill: #5d5d5d; fill-opacity: 0.75"/>
    </g>
    <g clip-path="url(#p7db15aeeb0)">
     <use xlink:href="#C2_0_e3f2fdc588" x="158.05549" y="200.941911" style="fill: #5d5d5d; fill-opacity: 0.75"/>
    </g>
    <g clip-path="url(#p7db15aeeb0)">
     <use xlink:href="#C2_0_e3f2fdc588" x="158.05549" y="197.456112" style="fill: #5d5d5d; fill-opacity: 0.75"/>
    </g>
    <g clip-path="url(#p7db15aeeb0)">
     <use xlink:href="#C2_0_e3f2fdc588" x="158.05549" y="172.23634" style="fill: #5d5d5d; fill-opacity: 0.75"/>
    </g>
    <g clip-path="url(#p7db15aeeb0)">
     <use xlink:href="#C2_0_e3f2fdc588" x="158.984563" y="219.111627" style="fill: #5d5d5d; fill-opacity: 0.75"/>
    </g>
    <g clip-path="url(#p7db15aeeb0)">
     <use xlink:href="#C2_0_e3f2fdc588" x="155.145245" y="196.308117" style="fill: #5d5d5d; fill-opacity: 0.75"/>
    </g>
    <g clip-path="url(#p7db15aeeb0)">
     <use xlink:href="#C2_0_e3f2fdc588" x="154.916392" y="203.788277" style="fill: #5d5d5d; fill-opacity: 0.75"/>
    </g>
    <g clip-path="url(#p7db15aeeb0)">
     <use xlink:href="#C2_0_e3f2fdc588" x="163.702678" y="201.829432" style="fill: #5d5d5d; fill-opacity: 0.75"/>
    </g>
    <g clip-path="url(#p7db15aeeb0)">
     <use xlink:href="#C2_0_e3f2fdc588" x="155.833567" y="212.571996" style="fill: #5d5d5d; fill-opacity: 0.75"/>
    </g>
    <g clip-path="url(#p7db15aeeb0)">
     <use xlink:href="#C2_0_e3f2fdc588" x="155.697685" y="219.988798" style="fill: #5d5d5d; fill-opacity: 0.75"/>
    </g>
    <g clip-path="url(#p7db15aeeb0)">
     <use xlink:href="#C2_0_e3f2fdc588" x="158.05549" y="193.326451" style="fill: #5d5d5d; fill-opacity: 0.75"/>
    </g>
    <g clip-path="url(#p7db15aeeb0)">
     <use xlink:href="#C2_0_e3f2fdc588" x="158.05549" y="236.509622" style="fill: #5d5d5d; fill-opacity: 0.75"/>
    </g>
    <g clip-path="url(#p7db15aeeb0)">
     <use xlink:href="#C2_0_e3f2fdc588" x="158.848243" y="211.702127" style="fill: #5d5d5d; fill-opacity: 0.75"/>
    </g>
    <g clip-path="url(#p7db15aeeb0)">
     <use xlink:href="#C2_0_e3f2fdc588" x="151.924416" y="202.85001" style="fill: #5d5d5d; fill-opacity: 0.75"/>
    </g>
    <g clip-path="url(#p7db15aeeb0)">
     <use xlink:href="#C2_0_e3f2fdc588" x="158.05549" y="204.037654" style="fill: #5d5d5d; fill-opacity: 0.75"/>
    </g>
    <g clip-path="url(#p7db15aeeb0)">
     <use xlink:href="#C2_0_e3f2fdc588" x="158.05549" y="214.698507" style="fill: #5d5d5d; fill-opacity: 0.75"/>
    </g>
    <g clip-path="url(#p7db15aeeb0)">
     <use xlink:href="#C2_0_e3f2fdc588" x="161.174705" y="203.619263" style="fill: #5d5d5d; fill-opacity: 0.75"/>
    </g>
    <g clip-path="url(#p7db15aeeb0)">
     <use xlink:href="#C2_0_e3f2fdc588" x="158.05549" y="221.97817" style="fill: #5d5d5d; fill-opacity: 0.75"/>
    </g>
    <g clip-path="url(#p7db15aeeb0)">
     <use xlink:href="#C2_0_e3f2fdc588" x="154.995797" y="185.699713" style="fill: #5d5d5d; fill-opacity: 0.75"/>
    </g>
    <g clip-path="url(#p7db15aeeb0)">
     <use xlink:href="#C2_0_e3f2fdc588" x="158.05549" y="186.412906" style="fill: #5d5d5d; fill-opacity: 0.75"/>
    </g>
   </g>
   <g id="PathCollection_5">
    <defs>
     <path id="C3_0_b90e69f515" d="M 0 1.5 
C 0.397805 1.5 0.77937 1.341951 1.06066 1.06066 
C 1.341951 0.77937 1.5 0.397805 1.5 -0 
C 1.5 -0.397805 1.341951 -0.77937 1.06066 -1.06066 
C 0.77937 -1.341951 0.397805 -1.5 0 -1.5 
C -0.397805 -1.5 -0.77937 -1.341951 -1.06066 -1.06066 
C -1.341951 -0.77937 -1.5 -0.397805 -1.5 0 
C -1.5 0.397805 -1.341951 0.77937 -1.06066 1.06066 
C -0.77937 1.341951 -0.397805 1.5 0 1.5 
z
"/>
    </defs>
    <g clip-path="url(#p7db15aeeb0)">
     <use xlink:href="#C3_0_b90e69f515" x="233.010714" y="234.154118" style="fill: #5d5d5d; fill-opacity: 0.75"/>
    </g>
    <g clip-path="url(#p7db15aeeb0)">
     <use xlink:href="#C3_0_b90e69f515" x="233.010714" y="205.057377" style="fill: #5d5d5d; fill-opacity: 0.75"/>
    </g>
    <g clip-path="url(#p7db15aeeb0)">
     <use xlink:href="#C3_0_b90e69f515" x="233.010714" y="195.985181" style="fill: #5d5d5d; fill-opacity: 0.75"/>
    </g>
    <g clip-path="url(#p7db15aeeb0)">
     <use xlink:href="#C3_0_b90e69f515" x="231.128111" y="177.634686" style="fill: #5d5d5d; fill-opacity: 0.75"/>
    </g>
    <g clip-path="url(#p7db15aeeb0)">
     <use xlink:href="#C3_0_b90e69f515" x="230.38927" y="220.716194" style="fill: #5d5d5d; fill-opacity: 0.75"/>
    </g>
    <g clip-path="url(#p7db15aeeb0)">
     <use xlink:href="#C3_0_b90e69f515" x="234.601272" y="189.593793" style="fill: #5d5d5d; fill-opacity: 0.75"/>
    </g>
    <g clip-path="url(#p7db15aeeb0)">
     <use xlink:href="#C3_0_b90e69f515" x="230.745247" y="202.972955" style="fill: #5d5d5d; fill-opacity: 0.75"/>
    </g>
    <g clip-path="url(#p7db15aeeb0)">
     <use xlink:href="#C3_0_b90e69f515" x="230.049208" y="209.666513" style="fill: #5d5d5d; fill-opacity: 0.75"/>
    </g>
    <g clip-path="url(#p7db15aeeb0)">
     <use xlink:href="#C3_0_b90e69f515" x="233.010714" y="222.379601" style="fill: #5d5d5d; fill-opacity: 0.75"/>
    </g>
    <g clip-path="url(#p7db15aeeb0)">
     <use xlink:href="#C3_0_b90e69f515" x="233.010714" y="216.194663" style="fill: #5d5d5d; fill-opacity: 0.75"/>
    </g>
    <g clip-path="url(#p7db15aeeb0)">
     <use xlink:href="#C3_0_b90e69f515" x="233.010714" y="192.183258" style="fill: #5d5d5d; fill-opacity: 0.75"/>
    </g>
    <g clip-path="url(#p7db15aeeb0)">
     <use xlink:href="#C3_0_b90e69f515" x="233.010714" y="239.600503" style="fill: #5d5d5d; fill-opacity: 0.75"/>
    </g>
    <g clip-path="url(#p7db15aeeb0)">
     <use xlink:href="#C3_0_b90e69f515" x="233.010714" y="210.688707" style="fill: #5d5d5d; fill-opacity: 0.75"/>
    </g>
    <g clip-path="url(#p7db15aeeb0)">
     <use xlink:href="#C3_0_b90e69f515" x="229.867159" y="191.991439" style="fill: #5d5d5d; fill-opacity: 0.75"/>
    </g>
    <g clip-path="url(#p7db15aeeb0)">
     <use xlink:href="#C3_0_b90e69f515" x="228.415635" y="200.953681" style="fill: #5d5d5d; fill-opacity: 0.75"/>
    </g>
    <g clip-path="url(#p7db15aeeb0)">
     <use xlink:href="#C3_0_b90e69f515" x="235.21978" y="202.918752" style="fill: #5d5d5d; fill-opacity: 0.75"/>
    </g>
    <g clip-path="url(#p7db15aeeb0)">
     <use xlink:href="#C3_0_b90e69f515" x="238.349245" y="202.576753" style="fill: #5d5d5d; fill-opacity: 0.75"/>
    </g>
    <g clip-path="url(#p7db15aeeb0)">
     <use xlink:href="#C3_0_b90e69f515" x="233.010714" y="227.113633" style="fill: #5d5d5d; fill-opacity: 0.75"/>
    </g>
    <g clip-path="url(#p7db15aeeb0)">
     <use xlink:href="#C3_0_b90e69f515" x="233.010714" y="180.039954" style="fill: #5d5d5d; fill-opacity: 0.75"/>
    </g>
    <g clip-path="url(#p7db15aeeb0)">
     <use xlink:href="#C3_0_b90e69f515" x="233.010714" y="186.234007" style="fill: #5d5d5d; fill-opacity: 0.75"/>
    </g>
   </g>
   <g id="PathCollection_6">
    <defs>
     <path id="C4_0_2e8a85c512" d="M 0 1.5 
C 0.397805 1.5 0.77937 1.341951 1.06066 1.06066 
C 1.341951 0.77937 1.5 0.397805 1.5 -0 
C 1.5 -0.397805 1.341951 -0.77937 1.06066 -1.06066 
C 0.77937 -1.341951 0.397805 -1.5 0 -1.5 
C -0.397805 -1.5 -0.77937 -1.341951 -1.06066 -1.06066 
C -1.341951 -0.77937 -1.5 -0.397805 -1.5 0 
C -1.5 0.397805 -1.341951 0.77937 -1.06066 1.06066 
C -0.77937 1.341951 -0.397805 1.5 0 1.5 
z
"/>
    </defs>
    <g clip-path="url(#p7db15aeeb0)">
     <use xlink:href="#C4_0_2e8a85c512" x="307.965938" y="247.109555" style="fill: #5d5d5d; fill-opacity: 0.75"/>
    </g>
    <g clip-path="url(#p7db15aeeb0)">
     <use xlink:href="#C4_0_2e8a85c512" x="304.970978" y="223.375113" style="fill: #5d5d5d; fill-opacity: 0.75"/>
    </g>
    <g clip-path="url(#p7db15aeeb0)">
     <use xlink:href="#C4_0_2e8a85c512" x="304.830046" y="201.448241" style="fill: #5d5d5d; fill-opacity: 0.75"/>
    </g>
    <g clip-path="url(#p7db15aeeb0)">
     <use xlink:href="#C4_0_2e8a85c512" x="305.034791" y="192.095022" style="fill: #5d5d5d; fill-opacity: 0.75"/>
    </g>
    <g clip-path="url(#p7db15aeeb0)">
     <use xlink:href="#C4_0_2e8a85c512" x="307.965938" y="229.907809" style="fill: #5d5d5d; fill-opacity: 0.75"/>
    </g>
    <g clip-path="url(#p7db15aeeb0)">
     <use xlink:href="#C4_0_2e8a85c512" x="302.64003" y="199.291918" style="fill: #5d5d5d; fill-opacity: 0.75"/>
    </g>
    <g clip-path="url(#p7db15aeeb0)">
     <use xlink:href="#C4_0_2e8a85c512" x="305.074148" y="209.50558" style="fill: #5d5d5d; fill-opacity: 0.75"/>
    </g>
    <g clip-path="url(#p7db15aeeb0)">
     <use xlink:href="#C4_0_2e8a85c512" x="307.965938" y="224.304707" style="fill: #5d5d5d; fill-opacity: 0.75"/>
    </g>
    <g clip-path="url(#p7db15aeeb0)">
     <use xlink:href="#C4_0_2e8a85c512" x="310.590662" y="218.242638" style="fill: #5d5d5d; fill-opacity: 0.75"/>
    </g>
    <g clip-path="url(#p7db15aeeb0)">
     <use xlink:href="#C4_0_2e8a85c512" x="305.307754" y="218.291692" style="fill: #5d5d5d; fill-opacity: 0.75"/>
    </g>
    <g clip-path="url(#p7db15aeeb0)">
     <use xlink:href="#C4_0_2e8a85c512" x="307.965938" y="207.355871" style="fill: #5d5d5d; fill-opacity: 0.75"/>
    </g>
    <g clip-path="url(#p7db15aeeb0)">
     <use xlink:href="#C4_0_2e8a85c512" x="307.965938" y="255.569947" style="fill: #5d5d5d; fill-opacity: 0.75"/>
    </g>
    <g clip-path="url(#p7db15aeeb0)">
     <use xlink:href="#C4_0_2e8a85c512" x="307.965938" y="210.695124" style="fill: #5d5d5d; fill-opacity: 0.75"/>
    </g>
    <g clip-path="url(#p7db15aeeb0)">
     <use xlink:href="#C4_0_2e8a85c512" x="307.965938" y="201.731863" style="fill: #5d5d5d; fill-opacity: 0.75"/>
    </g>
    <g clip-path="url(#p7db15aeeb0)">
     <use xlink:href="#C4_0_2e8a85c512" x="313.738237" y="218.12493" style="fill: #5d5d5d; fill-opacity: 0.75"/>
    </g>
    <g clip-path="url(#p7db15aeeb0)">
     <use xlink:href="#C4_0_2e8a85c512" x="310.38718" y="199.812849" style="fill: #5d5d5d; fill-opacity: 0.75"/>
    </g>
    <g clip-path="url(#p7db15aeeb0)">
     <use xlink:href="#C4_0_2e8a85c512" x="307.965938" y="197.36589" style="fill: #5d5d5d; fill-opacity: 0.75"/>
    </g>
    <g clip-path="url(#p7db15aeeb0)">
     <use xlink:href="#C4_0_2e8a85c512" x="307.965938" y="219.901346" style="fill: #5d5d5d; fill-opacity: 0.75"/>
    </g>
    <g clip-path="url(#p7db15aeeb0)">
     <use xlink:href="#C4_0_2e8a85c512" x="307.965938" y="185.162859" style="fill: #5d5d5d; fill-opacity: 0.75"/>
    </g>
    <g clip-path="url(#p7db15aeeb0)">
     <use xlink:href="#C4_0_2e8a85c512" x="307.965938" y="193.193724" style="fill: #5d5d5d; fill-opacity: 0.75"/>
    </g>
   </g>
   <g id="PathCollection_7">
    <defs>
     <path id="C5_0_aa4f255397" d="M 0 1.5 
C 0.397805 1.5 0.77937 1.341951 1.06066 1.06066 
C 1.341951 0.77937 1.5 0.397805 1.5 -0 
C 1.5 -0.397805 1.341951 -0.77937 1.06066 -1.06066 
C 0.77937 -1.341951 0.397805 -1.5 0 -1.5 
C -0.397805 -1.5 -0.77937 -1.341951 -1.06066 -1.06066 
C -1.341951 -0.77937 -1.5 -0.397805 -1.5 0 
C -1.5 0.397805 -1.341951 0.77937 -1.06066 1.06066 
C -0.77937 1.341951 -0.397805 1.5 0 1.5 
z
"/>
    </defs>
    <g clip-path="url(#p7db15aeeb0)">
     <use xlink:href="#C5_0_aa4f255397" x="382.921161" y="222.172353" style="fill: #5d5d5d; fill-opacity: 0.75"/>
    </g>
    <g clip-path="url(#p7db15aeeb0)">
     <use xlink:href="#C5_0_aa4f255397" x="382.921161" y="208.101625" style="fill: #5d5d5d; fill-opacity: 0.75"/>
    </g>
    <g clip-path="url(#p7db15aeeb0)">
     <use xlink:href="#C5_0_aa4f255397" x="382.921161" y="199.006663" style="fill: #5d5d5d; fill-opacity: 0.75"/>
    </g>
    <g clip-path="url(#p7db15aeeb0)">
     <use xlink:href="#C5_0_aa4f255397" x="378.596342" y="186.697501" style="fill: #5d5d5d; fill-opacity: 0.75"/>
    </g>
    <g clip-path="url(#p7db15aeeb0)">
     <use xlink:href="#C5_0_aa4f255397" x="382.921161" y="213.209222" style="fill: #5d5d5d; fill-opacity: 0.75"/>
    </g>
    <g clip-path="url(#p7db15aeeb0)">
     <use xlink:href="#C5_0_aa4f255397" x="379.960293" y="189.401682" style="fill: #5d5d5d; fill-opacity: 0.75"/>
    </g>
    <g clip-path="url(#p7db15aeeb0)">
     <use xlink:href="#C5_0_aa4f255397" x="379.778439" y="202.207613" style="fill: #5d5d5d; fill-opacity: 0.75"/>
    </g>
    <g clip-path="url(#p7db15aeeb0)">
     <use xlink:href="#C5_0_aa4f255397" x="385.342632" y="197.087909" style="fill: #5d5d5d; fill-opacity: 0.75"/>
    </g>
    <g clip-path="url(#p7db15aeeb0)">
     <use xlink:href="#C5_0_aa4f255397" x="377.931322" y="199.777518" style="fill: #5d5d5d; fill-opacity: 0.75"/>
    </g>
    <g clip-path="url(#p7db15aeeb0)">
     <use xlink:href="#C5_0_aa4f255397" x="380.632829" y="196.94502" style="fill: #5d5d5d; fill-opacity: 0.75"/>
    </g>
    <g clip-path="url(#p7db15aeeb0)">
     <use xlink:href="#C5_0_aa4f255397" x="381.995871" y="186.765452" style="fill: #5d5d5d; fill-opacity: 0.75"/>
    </g>
    <g clip-path="url(#p7db15aeeb0)">
     <use xlink:href="#C5_0_aa4f255397" x="382.921161" y="233.168154" style="fill: #5d5d5d; fill-opacity: 0.75"/>
    </g>
    <g clip-path="url(#p7db15aeeb0)">
     <use xlink:href="#C5_0_aa4f255397" x="382.921161" y="190.425551" style="fill: #5d5d5d; fill-opacity: 0.75"/>
    </g>
    <g clip-path="url(#p7db15aeeb0)">
     <use xlink:href="#C5_0_aa4f255397" x="384.843147" y="188.048702" style="fill: #5d5d5d; fill-opacity: 0.75"/>
    </g>
    <g clip-path="url(#p7db15aeeb0)">
     <use xlink:href="#C5_0_aa4f255397" x="385.643964" y="200.902919" style="fill: #5d5d5d; fill-opacity: 0.75"/>
    </g>
    <g clip-path="url(#p7db15aeeb0)">
     <use xlink:href="#C5_0_aa4f255397" x="377.618711" y="196.792328" style="fill: #5d5d5d; fill-opacity: 0.75"/>
    </g>
    <g clip-path="url(#p7db15aeeb0)">
     <use xlink:href="#C5_0_aa4f255397" x="382.921161" y="202.411426" style="fill: #5d5d5d; fill-opacity: 0.75"/>
    </g>
    <g clip-path="url(#p7db15aeeb0)">
     <use xlink:href="#C5_0_aa4f255397" x="382.921161" y="217.170097" style="fill: #5d5d5d; fill-opacity: 0.75"/>
    </g>
    <g clip-path="url(#p7db15aeeb0)">
     <use xlink:href="#C5_0_aa4f255397" x="379.914532" y="182.73798" style="fill: #5d5d5d; fill-opacity: 0.75"/>
    </g>
    <g clip-path="url(#p7db15aeeb0)">
     <use xlink:href="#C5_0_aa4f255397" x="382.921161" y="183.632751" style="fill: #5d5d5d; fill-opacity: 0.75"/>
    </g>
   </g>
   <g id="PathCollection_8">
    <defs>
     <path id="C6_0_0ce18f7c46" d="M 0 1.5 
C 0.397805 1.5 0.77937 1.341951 1.06066 1.06066 
C 1.341951 0.77937 1.5 0.397805 1.5 -0 
C 1.5 -0.397805 1.341951 -0.77937 1.06066 -1.06066 
C 0.77937 -1.341951 0.397805 -1.5 0 -1.5 
C -0.397805 -1.5 -0.77937 -1.341951 -1.06066 -1.06066 
C -1.341951 -0.77937 -1.5 -0.397805 -1.5 0 
C -1.5 0.397805 -1.341951 0.77937 -1.06066 1.06066 
C -0.77937 1.341951 -0.397805 1.5 0 1.5 
z
"/>
    </defs>
    <g clip-path="url(#p7db15aeeb0)">
     <use xlink:href="#C6_0_0ce18f7c46" x="457.876385" y="221.642294" style="fill: #5d5d5d; fill-opacity: 0.75"/>
    </g>
    <g clip-path="url(#p7db15aeeb0)">
     <use xlink:href="#C6_0_0ce18f7c46" x="455.292082" y="201.491693" style="fill: #5d5d5d; fill-opacity: 0.75"/>
    </g>
    <g clip-path="url(#p7db15aeeb0)">
     <use xlink:href="#C6_0_0ce18f7c46" x="464.293245" y="195.468969" style="fill: #5d5d5d; fill-opacity: 0.75"/>
    </g>
    <g clip-path="url(#p7db15aeeb0)">
     <use xlink:href="#C6_0_0ce18f7c46" x="457.876385" y="172.543512" style="fill: #5d5d5d; fill-opacity: 0.75"/>
    </g>
    <g clip-path="url(#p7db15aeeb0)">
     <use xlink:href="#C6_0_0ce18f7c46" x="457.876385" y="211.327238" style="fill: #5d5d5d; fill-opacity: 0.75"/>
    </g>
    <g clip-path="url(#p7db15aeeb0)">
     <use xlink:href="#C6_0_0ce18f7c46" x="460.383881" y="188.253879" style="fill: #5d5d5d; fill-opacity: 0.75"/>
    </g>
    <g clip-path="url(#p7db15aeeb0)">
     <use xlink:href="#C6_0_0ce18f7c46" x="452.940703" y="195.673863" style="fill: #5d5d5d; fill-opacity: 0.75"/>
    </g>
    <g clip-path="url(#p7db15aeeb0)">
     <use xlink:href="#C6_0_0ce18f7c46" x="456.015601" y="193.988577" style="fill: #5d5d5d; fill-opacity: 0.75"/>
    </g>
    <g clip-path="url(#p7db15aeeb0)">
     <use xlink:href="#C6_0_0ce18f7c46" x="457.876385" y="203.207004" style="fill: #5d5d5d; fill-opacity: 0.75"/>
    </g>
    <g clip-path="url(#p7db15aeeb0)">
     <use xlink:href="#C6_0_0ce18f7c46" x="457.876385" y="199.391147" style="fill: #5d5d5d; fill-opacity: 0.75"/>
    </g>
    <g clip-path="url(#p7db15aeeb0)">
     <use xlink:href="#C6_0_0ce18f7c46" x="457.876385" y="190.069649" style="fill: #5d5d5d; fill-opacity: 0.75"/>
    </g>
    <g clip-path="url(#p7db15aeeb0)">
     <use xlink:href="#C6_0_0ce18f7c46" x="457.876385" y="230.118604" style="fill: #5d5d5d; fill-opacity: 0.75"/>
    </g>
    <g clip-path="url(#p7db15aeeb0)">
     <use xlink:href="#C6_0_0ce18f7c46" x="458.095856" y="196.241324" style="fill: #5d5d5d; fill-opacity: 0.75"/>
    </g>
    <g clip-path="url(#p7db15aeeb0)">
     <use xlink:href="#C6_0_0ce18f7c46" x="454.772575" y="189.557781" style="fill: #5d5d5d; fill-opacity: 0.75"/>
    </g>
    <g clip-path="url(#p7db15aeeb0)">
     <use xlink:href="#C6_0_0ce18f7c46" x="461.245826" y="196.228333" style="fill: #5d5d5d; fill-opacity: 0.75"/>
    </g>
    <g clip-path="url(#p7db15aeeb0)">
     <use xlink:href="#C6_0_0ce18f7c46" x="455.313217" y="197.64731" style="fill: #5d5d5d; fill-opacity: 0.75"/>
    </g>
    <g clip-path="url(#p7db15aeeb0)">
     <use xlink:href="#C6_0_0ce18f7c46" x="450.420848" y="193.873679" style="fill: #5d5d5d; fill-opacity: 0.75"/>
    </g>
    <g clip-path="url(#p7db15aeeb0)">
     <use xlink:href="#C6_0_0ce18f7c46" x="457.876385" y="218.29196" style="fill: #5d5d5d; fill-opacity: 0.75"/>
    </g>
    <g clip-path="url(#p7db15aeeb0)">
     <use xlink:href="#C6_0_0ce18f7c46" x="457.876385" y="179.494719" style="fill: #5d5d5d; fill-opacity: 0.75"/>
    </g>
    <g clip-path="url(#p7db15aeeb0)">
     <use xlink:href="#C6_0_0ce18f7c46" x="454.727908" y="179.401454" style="fill: #5d5d5d; fill-opacity: 0.75"/>
    </g>
   </g>
   <g id="PathCollection_9">
    <defs>
     <path id="C7_0_c17bba014f" d="M 0 1.5 
C 0.397805 1.5 0.77937 1.341951 1.06066 1.06066 
C 1.341951 0.77937 1.5 0.397805 1.5 -0 
C 1.5 -0.397805 1.341951 -0.77937 1.06066 -1.06066 
C 0.77937 -1.341951 0.397805 -1.5 0 -1.5 
C -0.397805 -1.5 -0.77937 -1.341951 -1.06066 -1.06066 
C -1.341951 -0.77937 -1.5 -0.397805 -1.5 0 
C -1.5 0.397805 -1.341951 0.77937 -1.06066 1.06066 
C -0.77937 1.341951 -0.397805 1.5 0 1.5 
z
"/>
    </defs>
    <g clip-path="url(#p7db15aeeb0)">
     <use xlink:href="#C7_0_c17bba014f" x="532.831609" y="225.355242" style="fill: #5d5d5d; fill-opacity: 0.75"/>
    </g>
    <g clip-path="url(#p7db15aeeb0)">
     <use xlink:href="#C7_0_c17bba014f" x="532.831609" y="207.653037" style="fill: #5d5d5d; fill-opacity: 0.75"/>
    </g>
    <g clip-path="url(#p7db15aeeb0)">
     <use xlink:href="#C7_0_c17bba014f" x="539.113896" y="193.218604" style="fill: #5d5d5d; fill-opacity: 0.75"/>
    </g>
    <g clip-path="url(#p7db15aeeb0)">
     <use xlink:href="#C7_0_c17bba014f" x="532.831609" y="175.396812" style="fill: #5d5d5d; fill-opacity: 0.75"/>
    </g>
    <g clip-path="url(#p7db15aeeb0)">
     <use xlink:href="#C7_0_c17bba014f" x="532.831609" y="211.948846" style="fill: #5d5d5d; fill-opacity: 0.75"/>
    </g>
    <g clip-path="url(#p7db15aeeb0)">
     <use xlink:href="#C7_0_c17bba014f" x="535.315381" y="193.484167" style="fill: #5d5d5d; fill-opacity: 0.75"/>
    </g>
    <g clip-path="url(#p7db15aeeb0)">
     <use xlink:href="#C7_0_c17bba014f" x="531.610301" y="195.132902" style="fill: #5d5d5d; fill-opacity: 0.75"/>
    </g>
    <g clip-path="url(#p7db15aeeb0)">
     <use xlink:href="#C7_0_c17bba014f" x="534.407935" y="196.356987" style="fill: #5d5d5d; fill-opacity: 0.75"/>
    </g>
    <g clip-path="url(#p7db15aeeb0)">
     <use xlink:href="#C7_0_c17bba014f" x="532.831609" y="198.954334" style="fill: #5d5d5d; fill-opacity: 0.75"/>
    </g>
    <g clip-path="url(#p7db15aeeb0)">
     <use xlink:href="#C7_0_c17bba014f" x="529.97237" y="197.695441" style="fill: #5d5d5d; fill-opacity: 0.75"/>
    </g>
    <g clip-path="url(#p7db15aeeb0)">
     <use xlink:href="#C7_0_c17bba014f" x="530.008477" y="183.538182" style="fill: #5d5d5d; fill-opacity: 0.75"/>
    </g>
    <g clip-path="url(#p7db15aeeb0)">
     <use xlink:href="#C7_0_c17bba014f" x="532.831609" y="230.678103" style="fill: #5d5d5d; fill-opacity: 0.75"/>
    </g>
    <g clip-path="url(#p7db15aeeb0)">
     <use xlink:href="#C7_0_c17bba014f" x="532.831609" y="190.706893" style="fill: #5d5d5d; fill-opacity: 0.75"/>
    </g>
    <g clip-path="url(#p7db15aeeb0)">
     <use xlink:href="#C7_0_c17bba014f" x="532.831609" y="184.868936" style="fill: #5d5d5d; fill-opacity: 0.75"/>
    </g>
    <g clip-path="url(#p7db15aeeb0)">
     <use xlink:href="#C7_0_c17bba014f" x="537.502435" y="195.79632" style="fill: #5d5d5d; fill-opacity: 0.75"/>
    </g>
    <g clip-path="url(#p7db15aeeb0)">
     <use xlink:href="#C7_0_c17bba014f" x="528.498845" y="194.665031" style="fill: #5d5d5d; fill-opacity: 0.75"/>
    </g>
    <g clip-path="url(#p7db15aeeb0)">
     <use xlink:href="#C7_0_c17bba014f" x="529.730274" y="190.181593" style="fill: #5d5d5d; fill-opacity: 0.75"/>
    </g>
    <g clip-path="url(#p7db15aeeb0)">
     <use xlink:href="#C7_0_c17bba014f" x="532.831609" y="215.368246" style="fill: #5d5d5d; fill-opacity: 0.75"/>
    </g>
    <g clip-path="url(#p7db15aeeb0)">
     <use xlink:href="#C7_0_c17bba014f" x="529.68394" y="175.281418" style="fill: #5d5d5d; fill-opacity: 0.75"/>
    </g>
    <g clip-path="url(#p7db15aeeb0)">
     <use xlink:href="#C7_0_c17bba014f" x="532.831609" y="178.729075" style="fill: #5d5d5d; fill-opacity: 0.75"/>
    </g>
   </g>
   <g id="line2d_19">
    <path d="M 69.420938 208.540887 
L 546.510938 208.540887 
" clip-path="url(#p7db15aeeb0)" style="fill: none; stroke-dasharray: 0.5,0.825; stroke-dashoffset: 0; stroke: #608eb4; stroke-width: 0.5"/>
   </g>
   <g id="patch_5">
    <path d="M 51.865938 257.18375 
L 51.865938 156.38375 
" style="fill: none; stroke: #bbbbbb; stroke-width: 0.75; stroke-linejoin: miter; stroke-linecap: square"/>
   </g>
   <g id="PathCollection_10">
    <defs>
     <path id="C8_0_1d938e569a" d="M 0 1.870829 
C 0.49615 1.870829 0.972045 1.673706 1.322876 1.322876 
C 1.673706 0.972045 1.870829 0.49615 1.870829 -0 
C 1.870829 -0.49615 1.673706 -0.972045 1.322876 -1.322876 
C 0.972045 -1.673706 0.49615 -1.870829 0 -1.870829 
C -0.49615 -1.870829 -0.972045 -1.673706 -1.322876 -1.322876 
C -1.673706 -0.972045 -1.870829 -0.49615 -1.870829 0 
C -1.870829 0.49615 -1.673706 0.972045 -1.322876 1.322876 
C -0.972045 1.673706 -0.49615 1.870829 0 1.870829 
z
"/>
    </defs>
    <g clip-path="url(#p7db15aeeb0)">
     <use xlink:href="#C8_0_1d938e569a" x="90.595788" y="204.559843" style="fill: #af5a51"/>
    </g>
    <g clip-path="url(#p7db15aeeb0)">
     <use xlink:href="#C8_0_1d938e569a" x="165.551012" y="197.419532" style="fill: #af5a51"/>
    </g>
    <g clip-path="url(#p7db15aeeb0)">
     <use xlink:href="#C8_0_1d938e569a" x="240.506236" y="202.959233" style="fill: #af5a51"/>
    </g>
    <g clip-path="url(#p7db15aeeb0)">
     <use xlink:href="#C8_0_1d938e569a" x="315.46146" y="205.427569" style="fill: #af5a51"/>
    </g>
    <g clip-path="url(#p7db15aeeb0)">
     <use xlink:href="#C8_0_1d938e569a" x="390.416684" y="193.996777" style="fill: #af5a51"/>
    </g>
    <g clip-path="url(#p7db15aeeb0)">
     <use xlink:href="#C8_0_1d938e569a" x="465.371908" y="191.787965" style="fill: #af5a51"/>
    </g>
    <g clip-path="url(#p7db15aeeb0)">
     <use xlink:href="#C8_0_1d938e569a" x="540.327132" y="187.971917" style="fill: #af5a51"/>
    </g>
   </g>
  </g>
 </g>
 <defs>
  <clipPath id="p4b32183cae">
   <rect x="56.865938" y="35.42375" width="502.2" height="100.8"/>
  </clipPath>
  <clipPath id="p7db15aeeb0">
   <rect x="56.865938" y="156.38375" width="502.2" height="100.8"/>
  </clipPath>
 </defs>
</svg>
