<?xml version="1.0" encoding="utf-8" standalone="no"?>
<!DOCTYPE svg PUBLIC "-//W3C//DTD SVG 1.1//EN"
  "http://www.w3.org/Graphics/SVG/1.1/DTD/svg11.dtd">
<svg xmlns:xlink="http://www.w3.org/1999/xlink" width="448.653437pt" height="197.471094pt" viewBox="0 0 448.653437 197.471094" xmlns="http://www.w3.org/2000/svg" version="1.1">
 <metadata>
  <rdf:RDF xmlns:dc="http://purl.org/dc/elements/1.1/" xmlns:cc="http://creativecommons.org/ns#" xmlns:rdf="http://www.w3.org/1999/02/22-rdf-syntax-ns#">
   <cc:Work>
    <dc:type rdf:resource="http://purl.org/dc/dcmitype/StillImage"/>
    <dc:date>2024-02-21T19:42:45.890517</dc:date>
    <dc:format>image/svg+xml</dc:format>
    <dc:creator>
     <cc:Agent>
      <dc:title>Matplotlib v3.8.0, https://matplotlib.org/</dc:title>
     </cc:Agent>
    </dc:creator>
   </cc:Work>
  </rdf:RDF>
 </metadata>
 <defs>
  <style type="text/css">*{stroke-linejoin: round; stroke-linecap: butt}</style>
 </defs>
 <g id="figure_1">
  <g id="patch_1">
   <path d="M 0 197.471094 
L 448.653437 197.471094 
L 448.653437 -0 
L 0 -0 
L 0 197.471094 
z
" style="fill: none"/>
  </g>
  <g id="axes_1">
   <g id="patch_2">
    <path d="M 50.853438 168.559375 
L 441.453438 168.559375 
L 441.453438 29.959375 
L 50.853438 29.959375 
L 50.853438 168.559375 
z
" style="fill: none"/>
   </g>
   <g id="matplotlib.axis_1">
    <g id="xtick_1">
     <g id="text_1">
      <!-- Base -->
      <g style="fill: #4c4c4c" transform="translate(68.430156 188.542813) scale(0.09 -0.09)">
       <defs>
        <path id="Ubuntu-Bold-42" d="M 1990 -58 
Q 1626 -58 1264 -35 
Q 902 -13 512 70 
L 512 4371 
Q 819 4429 1184 4457 
Q 1549 4486 1862 4486 
Q 2285 4486 2640 4425 
Q 2995 4365 3251 4217 
Q 3507 4070 3651 3830 
Q 3795 3590 3795 3238 
Q 3795 2707 3283 2400 
Q 3706 2240 3859 1965 
Q 4013 1690 4013 1344 
Q 4013 646 3504 294 
Q 2995 -58 1990 -58 
z
M 1485 1933 
L 1485 787 
Q 1594 774 1722 768 
Q 1850 762 2003 762 
Q 2451 762 2726 890 
Q 3002 1018 3002 1363 
Q 3002 1670 2771 1801 
Q 2541 1933 2112 1933 
L 1485 1933 
z
M 1485 2694 
L 1971 2694 
Q 2432 2694 2630 2812 
Q 2829 2931 2829 3194 
Q 2829 3462 2624 3571 
Q 2419 3680 2022 3680 
Q 1894 3680 1747 3677 
Q 1600 3674 1485 3661 
L 1485 2694 
z
" transform="scale(0.015625)"/>
        <path id="Ubuntu-Bold-61" d="M 1734 666 
Q 1875 666 2003 672 
Q 2131 678 2208 691 
L 2208 1414 
Q 2150 1427 2035 1440 
Q 1920 1453 1824 1453 
Q 1690 1453 1571 1437 
Q 1453 1421 1363 1376 
Q 1274 1331 1222 1254 
Q 1171 1178 1171 1062 
Q 1171 838 1321 752 
Q 1472 666 1734 666 
z
M 1658 3456 
Q 2080 3456 2361 3360 
Q 2643 3264 2812 3085 
Q 2982 2906 3052 2650 
Q 3123 2394 3123 2080 
L 3123 96 
Q 2918 51 2553 -9 
Q 2189 -70 1670 -70 
Q 1344 -70 1078 -12 
Q 813 45 621 176 
Q 429 307 326 518 
Q 224 730 224 1037 
Q 224 1331 342 1536 
Q 461 1741 659 1862 
Q 858 1984 1114 2038 
Q 1370 2093 1645 2093 
Q 1830 2093 1974 2077 
Q 2118 2061 2208 2035 
L 2208 2125 
Q 2208 2368 2061 2515 
Q 1914 2662 1549 2662 
Q 1306 2662 1069 2627 
Q 832 2592 659 2528 
L 538 3296 
Q 621 3322 745 3350 
Q 870 3379 1017 3401 
Q 1165 3424 1328 3440 
Q 1491 3456 1658 3456 
z
" transform="scale(0.015625)"/>
        <path id="Ubuntu-Bold-73" d="M 1414 685 
Q 1677 685 1785 736 
Q 1894 787 1894 934 
Q 1894 1050 1753 1136 
Q 1613 1222 1325 1331 
Q 1101 1414 918 1504 
Q 736 1594 608 1718 
Q 480 1843 409 2016 
Q 339 2189 339 2432 
Q 339 2906 691 3181 
Q 1043 3456 1658 3456 
Q 1965 3456 2246 3401 
Q 2528 3347 2694 3283 
L 2528 2541 
Q 2362 2598 2166 2643 
Q 1971 2688 1728 2688 
Q 1280 2688 1280 2438 
Q 1280 2381 1299 2336 
Q 1318 2291 1376 2249 
Q 1434 2208 1533 2160 
Q 1632 2112 1786 2054 
Q 2099 1939 2304 1827 
Q 2509 1715 2627 1584 
Q 2746 1453 2794 1293 
Q 2842 1133 2842 922 
Q 2842 422 2467 166 
Q 2093 -90 1408 -90 
Q 960 -90 662 -13 
Q 365 64 250 115 
L 410 890 
Q 653 794 909 739 
Q 1165 685 1414 685 
z
" transform="scale(0.015625)"/>
        <path id="Ubuntu-Bold-65" d="M 288 1658 
Q 288 2106 425 2442 
Q 563 2778 787 3002 
Q 1011 3226 1302 3341 
Q 1594 3456 1901 3456 
Q 2618 3456 3034 3017 
Q 3450 2579 3450 1728 
Q 3450 1645 3443 1545 
Q 3437 1446 3430 1370 
L 1267 1370 
Q 1299 1075 1542 902 
Q 1786 730 2195 730 
Q 2458 730 2710 778 
Q 2963 826 3123 896 
L 3251 122 
Q 3174 83 3046 44 
Q 2918 6 2761 -22 
Q 2605 -51 2425 -70 
Q 2246 -90 2067 -90 
Q 1613 -90 1277 44 
Q 941 179 720 412 
Q 499 646 393 966 
Q 288 1286 288 1658 
z
M 2528 2022 
Q 2522 2144 2486 2259 
Q 2451 2374 2377 2464 
Q 2304 2554 2192 2611 
Q 2080 2669 1914 2669 
Q 1754 2669 1638 2614 
Q 1523 2560 1446 2470 
Q 1370 2381 1328 2262 
Q 1286 2144 1267 2022 
L 2528 2022 
z
" transform="scale(0.015625)"/>
       </defs>
       <use xlink:href="#Ubuntu-Bold-42"/>
       <use xlink:href="#Ubuntu-Bold-61" x="67.199997"/>
       <use xlink:href="#Ubuntu-Bold-73" x="122.499985"/>
       <use xlink:href="#Ubuntu-Bold-65" x="170.999969"/>
      </g>
     </g>
    </g>
    <g id="xtick_2">
     <g id="text_2">
      <!-- Base (Clean) -->
      <g style="fill: #4c4c4c" transform="translate(108.027344 188.606094) scale(0.09 -0.09)">
       <defs>
        <path id="Ubuntu-Bold-20" transform="scale(0.015625)"/>
        <path id="Ubuntu-Bold-28" d="M 1389 1914 
Q 1389 1158 1625 473 
Q 1862 -211 2246 -755 
L 1581 -1184 
Q 1037 -550 742 237 
Q 448 1024 448 1914 
Q 448 2803 742 3590 
Q 1037 4378 1581 5011 
L 2246 4582 
Q 1862 4038 1625 3353 
Q 1389 2669 1389 1914 
z
" transform="scale(0.015625)"/>
        <path id="Ubuntu-Bold-43" d="M 2534 -90 
Q 1453 -90 886 512 
Q 320 1114 320 2221 
Q 320 2771 493 3203 
Q 666 3635 966 3932 
Q 1267 4230 1683 4384 
Q 2099 4538 2586 4538 
Q 2867 4538 3097 4496 
Q 3328 4454 3501 4400 
Q 3674 4346 3789 4288 
Q 3904 4230 3955 4198 
L 3667 3392 
Q 3462 3501 3190 3577 
Q 2918 3654 2573 3654 
Q 2342 3654 2121 3577 
Q 1901 3501 1731 3331 
Q 1562 3162 1459 2893 
Q 1357 2624 1357 2240 
Q 1357 1933 1424 1667 
Q 1491 1402 1641 1210 
Q 1792 1018 2035 906 
Q 2278 794 2624 794 
Q 2842 794 3014 819 
Q 3187 845 3321 880 
Q 3456 915 3558 960 
Q 3661 1005 3744 1043 
L 4019 243 
Q 3808 115 3424 12 
Q 3040 -90 2534 -90 
z
" transform="scale(0.015625)"/>
        <path id="Ubuntu-Bold-6c" d="M 1792 -64 
Q 1376 -58 1117 25 
Q 858 109 707 259 
Q 557 410 502 624 
Q 448 838 448 1107 
L 448 4813 
L 1402 4966 
L 1402 1299 
Q 1402 1171 1421 1068 
Q 1440 966 1494 896 
Q 1549 826 1651 781 
Q 1754 736 1926 723 
L 1792 -64 
z
" transform="scale(0.015625)"/>
        <path id="Ubuntu-Bold-6e" d="M 448 3251 
Q 691 3322 1075 3382 
Q 1459 3443 1882 3443 
Q 2310 3443 2595 3331 
Q 2880 3219 3046 3014 
Q 3213 2810 3283 2528 
Q 3354 2246 3354 1901 
L 3354 0 
L 2400 0 
L 2400 1786 
Q 2400 2246 2278 2438 
Q 2157 2630 1824 2630 
Q 1722 2630 1606 2620 
Q 1491 2611 1402 2598 
L 1402 0 
L 448 0 
L 448 3251 
z
" transform="scale(0.015625)"/>
        <path id="Ubuntu-Bold-29" d="M 890 1914 
Q 890 2669 653 3353 
Q 416 4038 32 4582 
L 698 5011 
Q 1242 4378 1536 3590 
Q 1830 2803 1830 1914 
Q 1830 1024 1536 237 
Q 1242 -550 698 -1184 
L 32 -755 
Q 416 -211 653 473 
Q 890 1158 890 1914 
z
" transform="scale(0.015625)"/>
       </defs>
       <use xlink:href="#Ubuntu-Bold-42"/>
       <use xlink:href="#Ubuntu-Bold-61" x="67.199997"/>
       <use xlink:href="#Ubuntu-Bold-73" x="122.499985"/>
       <use xlink:href="#Ubuntu-Bold-65" x="170.999969"/>
       <use xlink:href="#Ubuntu-Bold-20" x="229.399963"/>
       <use xlink:href="#Ubuntu-Bold-28" x="253.399948"/>
       <use xlink:href="#Ubuntu-Bold-43" x="286.999939"/>
       <use xlink:href="#Ubuntu-Bold-6c" x="351.799927"/>
       <use xlink:href="#Ubuntu-Bold-65" x="383.399918"/>
       <use xlink:href="#Ubuntu-Bold-61" x="441.799911"/>
       <use xlink:href="#Ubuntu-Bold-6e" x="497.099899"/>
       <use xlink:href="#Ubuntu-Bold-29" x="553.874893"/>
      </g>
     </g>
    </g>
    <g id="xtick_3">
     <g id="text_3">
      <!-- Base (FE) -->
      <g style="fill: #4c4c4c" transform="translate(170.436719 188.606094) scale(0.09 -0.09)">
       <defs>
        <path id="Ubuntu-Bold-46" d="M 512 0 
L 512 4435 
L 3482 4435 
L 3482 3597 
L 1510 3597 
L 1510 2669 
L 3264 2669 
L 3264 1830 
L 1510 1830 
L 1510 0 
L 512 0 
z
" transform="scale(0.015625)"/>
        <path id="Ubuntu-Bold-45" d="M 512 0 
L 512 4435 
L 3507 4435 
L 3507 3597 
L 1510 3597 
L 1510 2726 
L 3283 2726 
L 3283 1907 
L 1510 1907 
L 1510 838 
L 3654 838 
L 3654 0 
L 512 0 
z
" transform="scale(0.015625)"/>
       </defs>
       <use xlink:href="#Ubuntu-Bold-42"/>
       <use xlink:href="#Ubuntu-Bold-61" x="67.199997"/>
       <use xlink:href="#Ubuntu-Bold-73" x="122.499985"/>
       <use xlink:href="#Ubuntu-Bold-65" x="170.999969"/>
       <use xlink:href="#Ubuntu-Bold-20" x="229.399963"/>
       <use xlink:href="#Ubuntu-Bold-28" x="253.399948"/>
       <use xlink:href="#Ubuntu-Bold-46" x="288.999939"/>
       <use xlink:href="#Ubuntu-Bold-45" x="346.399933"/>
       <use xlink:href="#Ubuntu-Bold-29" x="406.999924"/>
      </g>
     </g>
    </g>
    <g id="xtick_4">
     <g id="text_4">
      <!-- Elastic Net -->
      <g style="fill: #4c4c4c" transform="translate(222.609297 188.542813) scale(0.09 -0.09)">
       <defs>
        <path id="Ubuntu-Bold-74" d="M 416 4205 
L 1370 4358 
L 1370 3366 
L 2515 3366 
L 2515 2573 
L 1370 2573 
L 1370 1389 
Q 1370 1088 1475 909 
Q 1581 730 1901 730 
Q 2054 730 2217 758 
Q 2381 787 2515 838 
L 2650 96 
Q 2477 26 2265 -25 
Q 2054 -77 1747 -77 
Q 1357 -77 1101 28 
Q 845 134 691 323 
Q 538 512 477 781 
Q 416 1050 416 1376 
L 416 4205 
z
" transform="scale(0.015625)"/>
        <path id="Ubuntu-Bold-69" d="M 1402 0 
L 448 0 
L 448 3366 
L 1402 3366 
L 1402 0 
z
M 1491 4339 
Q 1491 4077 1321 3926 
Q 1152 3776 922 3776 
Q 691 3776 521 3926 
Q 352 4077 352 4339 
Q 352 4602 521 4752 
Q 691 4902 922 4902 
Q 1152 4902 1321 4752 
Q 1491 4602 1491 4339 
z
" transform="scale(0.015625)"/>
        <path id="Ubuntu-Bold-63" d="M 288 1683 
Q 288 2048 406 2371 
Q 525 2694 749 2934 
Q 973 3174 1293 3315 
Q 1613 3456 2022 3456 
Q 2291 3456 2515 3408 
Q 2739 3360 2950 3270 
L 2752 2509 
Q 2618 2560 2458 2598 
Q 2298 2637 2099 2637 
Q 1677 2637 1469 2374 
Q 1261 2112 1261 1683 
Q 1261 1229 1456 979 
Q 1651 730 2138 730 
Q 2310 730 2508 762 
Q 2707 794 2874 864 
L 3008 83 
Q 2842 13 2592 -38 
Q 2342 -90 2042 -90 
Q 1581 -90 1248 48 
Q 915 186 700 422 
Q 486 659 387 982 
Q 288 1306 288 1683 
z
" transform="scale(0.015625)"/>
        <path id="Ubuntu-Bold-4e" d="M 3488 0 
Q 3059 762 2560 1504 
Q 2061 2246 1498 2906 
L 1498 0 
L 512 0 
L 512 4435 
L 1325 4435 
Q 1536 4224 1792 3917 
Q 2048 3610 2313 3261 
Q 2579 2912 2841 2537 
Q 3104 2163 3334 1818 
L 3334 4435 
L 4326 4435 
L 4326 0 
L 3488 0 
z
" transform="scale(0.015625)"/>
       </defs>
       <use xlink:href="#Ubuntu-Bold-45"/>
       <use xlink:href="#Ubuntu-Bold-6c" x="60.599991"/>
       <use xlink:href="#Ubuntu-Bold-61" x="93.699982"/>
       <use xlink:href="#Ubuntu-Bold-73" x="148.999969"/>
       <use xlink:href="#Ubuntu-Bold-74" x="197.499954"/>
       <use xlink:href="#Ubuntu-Bold-69" x="241.899948"/>
       <use xlink:href="#Ubuntu-Bold-63" x="270.799942"/>
       <use xlink:href="#Ubuntu-Bold-20" x="320.799927"/>
       <use xlink:href="#Ubuntu-Bold-4e" x="344.799911"/>
       <use xlink:href="#Ubuntu-Bold-65" x="420.399902"/>
       <use xlink:href="#Ubuntu-Bold-74" x="478.799896"/>
      </g>
     </g>
    </g>
    <g id="xtick_5">
     <g id="text_5">
      <!-- SVM -->
      <g style="fill: #4c4c4c" transform="translate(292.138516 188.542813) scale(0.09 -0.09)">
       <defs>
        <path id="Ubuntu-Bold-53" d="M 1722 762 
Q 1933 762 2070 797 
Q 2208 832 2291 893 
Q 2374 954 2406 1037 
Q 2438 1120 2438 1222 
Q 2438 1440 2233 1584 
Q 2029 1728 1530 1894 
Q 1312 1971 1094 2070 
Q 877 2170 704 2320 
Q 531 2470 422 2684 
Q 314 2899 314 3206 
Q 314 3514 429 3760 
Q 544 4006 755 4179 
Q 966 4352 1267 4445 
Q 1568 4538 1946 4538 
Q 2394 4538 2720 4442 
Q 3046 4346 3258 4230 
L 2970 3443 
Q 2784 3539 2557 3612 
Q 2330 3686 2010 3686 
Q 1651 3686 1494 3587 
Q 1338 3488 1338 3283 
Q 1338 3162 1395 3078 
Q 1453 2995 1558 2928 
Q 1664 2861 1801 2806 
Q 1939 2752 2106 2694 
Q 2451 2566 2707 2441 
Q 2963 2317 3132 2150 
Q 3302 1984 3385 1760 
Q 3469 1536 3469 1216 
Q 3469 595 3033 252 
Q 2598 -90 1722 -90 
Q 1427 -90 1190 -54 
Q 954 -19 771 32 
Q 589 83 457 140 
Q 326 198 237 250 
L 518 1043 
Q 717 934 1008 848 
Q 1299 762 1722 762 
z
" transform="scale(0.015625)"/>
        <path id="Ubuntu-Bold-56" d="M 1830 0 
Q 1568 557 1312 1158 
Q 1056 1760 825 2349 
Q 595 2938 400 3475 
Q 205 4013 64 4435 
L 1165 4435 
Q 1293 4051 1443 3606 
Q 1594 3162 1750 2720 
Q 1907 2278 2054 1875 
Q 2202 1472 2330 1178 
Q 2451 1472 2601 1875 
Q 2752 2278 2909 2720 
Q 3066 3162 3216 3606 
Q 3366 4051 3494 4435 
L 4557 4435 
Q 4410 4013 4218 3475 
Q 4026 2938 3795 2349 
Q 3565 1760 3309 1158 
Q 3053 557 2790 0 
L 1830 0 
z
" transform="scale(0.015625)"/>
        <path id="Ubuntu-Bold-4d" d="M 1690 4435 
Q 1805 4224 1955 3913 
Q 2106 3603 2269 3241 
Q 2432 2880 2592 2502 
Q 2752 2125 2893 1792 
Q 3034 2125 3194 2502 
Q 3354 2880 3517 3241 
Q 3680 3603 3830 3913 
Q 3981 4224 4096 4435 
L 5005 4435 
Q 5069 3994 5123 3446 
Q 5178 2899 5219 2307 
Q 5261 1715 5296 1120 
Q 5331 525 5357 0 
L 4384 0 
Q 4365 646 4333 1408 
Q 4301 2170 4237 2944 
Q 4122 2675 3981 2348 
Q 3840 2022 3702 1696 
Q 3565 1370 3437 1072 
Q 3309 774 3219 563 
L 2522 563 
Q 2432 774 2304 1072 
Q 2176 1370 2038 1696 
Q 1901 2022 1760 2348 
Q 1619 2675 1504 2944 
Q 1440 2170 1408 1408 
Q 1376 646 1357 0 
L 384 0 
Q 410 525 445 1120 
Q 480 1715 521 2307 
Q 563 2899 617 3446 
Q 672 3994 736 4435 
L 1690 4435 
z
" transform="scale(0.015625)"/>
       </defs>
       <use xlink:href="#Ubuntu-Bold-53"/>
       <use xlink:href="#Ubuntu-Bold-56" x="57.199997"/>
       <use xlink:href="#Ubuntu-Bold-4d" x="128.399979"/>
      </g>
     </g>
    </g>
    <g id="xtick_6">
     <g id="text_6">
      <!-- Stacking -->
      <g style="fill: #4c4c4c" transform="translate(339.257031 188.542813) scale(0.09 -0.09)">
       <defs>
        <path id="Ubuntu-Bold-6b" d="M 1402 2150 
Q 1542 2304 1692 2470 
Q 1843 2637 1984 2800 
Q 2125 2963 2249 3110 
Q 2374 3258 2464 3366 
L 3597 3366 
Q 3258 2976 2934 2621 
Q 2611 2266 2227 1888 
Q 2419 1715 2624 1475 
Q 2829 1235 3021 979 
Q 3213 723 3373 467 
Q 3533 211 3642 0 
L 2547 0 
Q 2445 166 2313 368 
Q 2182 570 2035 771 
Q 1888 973 1725 1158 
Q 1562 1344 1402 1472 
L 1402 0 
L 448 0 
L 448 4813 
L 1402 4966 
L 1402 2150 
z
" transform="scale(0.015625)"/>
        <path id="Ubuntu-Bold-67" d="M 1261 1792 
Q 1261 992 1907 992 
Q 2054 992 2182 1030 
Q 2310 1069 2400 1120 
L 2400 2643 
Q 2330 2656 2234 2665 
Q 2138 2675 2010 2675 
Q 1632 2675 1446 2425 
Q 1261 2176 1261 1792 
z
M 3354 422 
Q 3354 -403 2934 -803 
Q 2515 -1203 1638 -1203 
Q 1331 -1203 1024 -1148 
Q 717 -1094 454 -1005 
L 621 -205 
Q 845 -294 1091 -345 
Q 1338 -397 1651 -397 
Q 2061 -397 2230 -217 
Q 2400 -38 2400 243 
L 2400 365 
Q 2246 294 2083 259 
Q 1920 224 1728 224 
Q 1030 224 659 637 
Q 288 1050 288 1792 
Q 288 2163 403 2467 
Q 518 2771 739 2988 
Q 960 3206 1280 3324 
Q 1600 3443 2003 3443 
Q 2176 3443 2358 3427 
Q 2541 3411 2720 3385 
Q 2899 3360 3062 3325 
Q 3226 3290 3354 3251 
L 3354 422 
z
" transform="scale(0.015625)"/>
       </defs>
       <use xlink:href="#Ubuntu-Bold-53"/>
       <use xlink:href="#Ubuntu-Bold-74" x="58.199997"/>
       <use xlink:href="#Ubuntu-Bold-61" x="100.599991"/>
       <use xlink:href="#Ubuntu-Bold-63" x="155.899979"/>
       <use xlink:href="#Ubuntu-Bold-6b" x="205.899963"/>
       <use xlink:href="#Ubuntu-Bold-69" x="263.799957"/>
       <use xlink:href="#Ubuntu-Bold-6e" x="292.699951"/>
       <use xlink:href="#Ubuntu-Bold-67" x="351.599945"/>
      </g>
     </g>
    </g>
    <g id="xtick_7">
     <g id="text_7">
      <!-- HPP -->
      <g style="fill: #4c4c4c" transform="translate(404.453594 188.542813) scale(0.09 -0.09)">
       <defs>
        <path id="Ubuntu-Bold-48" d="M 3187 4435 
L 4186 4435 
L 4186 0 
L 3187 0 
L 3187 1882 
L 1510 1882 
L 1510 0 
L 512 0 
L 512 4435 
L 1510 4435 
L 1510 2739 
L 3187 2739 
L 3187 4435 
z
" transform="scale(0.015625)"/>
        <path id="Ubuntu-Bold-50" d="M 1843 4486 
Q 2835 4486 3366 4137 
Q 3898 3789 3898 2995 
Q 3898 2195 3360 1840 
Q 2822 1485 1824 1485 
L 1510 1485 
L 1510 0 
L 512 0 
L 512 4371 
Q 838 4435 1203 4460 
Q 1568 4486 1843 4486 
z
M 1907 3635 
Q 1798 3635 1692 3628 
Q 1587 3622 1510 3616 
L 1510 2336 
L 1824 2336 
Q 2342 2336 2604 2477 
Q 2867 2618 2867 3002 
Q 2867 3187 2800 3308 
Q 2733 3430 2608 3504 
Q 2483 3578 2304 3606 
Q 2125 3635 1907 3635 
z
" transform="scale(0.015625)"/>
       </defs>
       <use xlink:href="#Ubuntu-Bold-48"/>
       <use xlink:href="#Ubuntu-Bold-50" x="73.399994"/>
       <use xlink:href="#Ubuntu-Bold-50" x="137.799988"/>
      </g>
     </g>
    </g>
   </g>
   <g id="matplotlib.axis_2">
    <g id="ytick_1">
     <g id="line2d_1">
      <defs>
       <path id="mbde95400cd" d="M 0 0 
L -3 0 
" style="stroke: #bbbbbb; stroke-width: 0.75"/>
      </defs>
      <g>
       <use xlink:href="#mbde95400cd" x="45.853438" y="168.559375" style="fill: #bbbbbb; stroke: #bbbbbb; stroke-width: 0.75"/>
      </g>
     </g>
     <g id="text_8">
      <!-- 0.08 -->
      <g style="fill: #9f9f9f" transform="translate(23.848438 171.663125) scale(0.08 -0.08)">
       <defs>
        <path id="Ubuntu-30" d="M 320 2221 
Q 320 3334 713 3936 
Q 1107 4538 1805 4538 
Q 2502 4538 2896 3936 
Q 3290 3334 3290 2221 
Q 3290 1107 2896 505 
Q 2502 -96 1805 -96 
Q 1107 -96 713 505 
Q 320 1107 320 2221 
z
M 2662 2221 
Q 2662 2586 2620 2912 
Q 2579 3238 2480 3481 
Q 2381 3725 2214 3869 
Q 2048 4013 1805 4013 
Q 1562 4013 1395 3869 
Q 1229 3725 1129 3481 
Q 1030 3238 988 2912 
Q 947 2586 947 2221 
Q 947 1856 988 1529 
Q 1030 1203 1129 960 
Q 1229 717 1395 573 
Q 1562 429 1805 429 
Q 2048 429 2214 573 
Q 2381 717 2480 960 
Q 2579 1203 2620 1529 
Q 2662 1856 2662 2221 
z
" transform="scale(0.015625)"/>
        <path id="Ubuntu-2e" d="M 1216 346 
Q 1216 173 1101 45 
Q 986 -83 787 -83 
Q 589 -83 473 45 
Q 358 173 358 346 
Q 358 518 473 646 
Q 589 774 787 774 
Q 986 774 1101 646 
Q 1216 518 1216 346 
z
" transform="scale(0.015625)"/>
        <path id="Ubuntu-38" d="M 3258 1152 
Q 3258 883 3165 656 
Q 3072 429 2889 259 
Q 2707 90 2432 -3 
Q 2157 -96 1798 -96 
Q 1382 -96 1104 22 
Q 826 141 659 320 
Q 493 499 422 713 
Q 352 928 352 1120 
Q 352 1306 413 1475 
Q 474 1645 573 1792 
Q 672 1939 803 2057 
Q 934 2176 1082 2266 
Q 454 2624 454 3322 
Q 454 3565 550 3785 
Q 646 4006 822 4172 
Q 998 4339 1248 4438 
Q 1498 4538 1805 4538 
Q 2163 4538 2419 4429 
Q 2675 4320 2838 4150 
Q 3002 3981 3075 3776 
Q 3149 3571 3149 3379 
Q 3149 3194 3094 3030 
Q 3040 2867 2947 2726 
Q 2854 2586 2736 2477 
Q 2618 2368 2490 2285 
Q 3245 1926 3258 1152 
z
M 954 1114 
Q 954 998 995 873 
Q 1037 749 1139 643 
Q 1242 538 1402 467 
Q 1562 397 1805 397 
Q 2022 397 2185 461 
Q 2349 525 2451 624 
Q 2554 723 2605 851 
Q 2656 979 2656 1114 
Q 2656 1318 2579 1472 
Q 2502 1626 2358 1741 
Q 2214 1856 2012 1936 
Q 1811 2016 1555 2074 
Q 1267 1914 1110 1677 
Q 954 1440 954 1114 
z
M 2554 3386 
Q 2554 3482 2512 3597 
Q 2470 3712 2380 3811 
Q 2291 3910 2150 3977 
Q 2010 4045 1805 4045 
Q 1600 4045 1456 3981 
Q 1312 3917 1222 3817 
Q 1133 3718 1091 3600 
Q 1050 3482 1050 3366 
Q 1050 3226 1101 3085 
Q 1152 2944 1261 2822 
Q 1370 2701 1546 2605 
Q 1722 2509 1965 2451 
Q 2234 2611 2394 2825 
Q 2554 3040 2554 3386 
z
" transform="scale(0.015625)"/>
       </defs>
       <use xlink:href="#Ubuntu-30"/>
       <use xlink:href="#Ubuntu-2e" x="56.399994"/>
       <use xlink:href="#Ubuntu-30" x="80.999985"/>
       <use xlink:href="#Ubuntu-38" x="137.399979"/>
      </g>
     </g>
    </g>
    <g id="ytick_2">
     <g id="line2d_2">
      <g>
       <use xlink:href="#mbde95400cd" x="45.853438" y="122.359375" style="fill: #bbbbbb; stroke: #bbbbbb; stroke-width: 0.75"/>
      </g>
     </g>
     <g id="text_9">
      <!-- 0.10 -->
      <g style="fill: #9f9f9f" transform="translate(23.848438 125.463125) scale(0.08 -0.08)">
       <defs>
        <path id="Ubuntu-31" d="M 595 3520 
Q 960 3661 1305 3881 
Q 1651 4102 1939 4435 
L 2362 4435 
L 2362 0 
L 1766 0 
L 1766 3610 
Q 1690 3539 1578 3462 
Q 1466 3386 1334 3315 
Q 1203 3245 1059 3181 
Q 915 3117 781 3072 
L 595 3520 
z
" transform="scale(0.015625)"/>
       </defs>
       <use xlink:href="#Ubuntu-30"/>
       <use xlink:href="#Ubuntu-2e" x="56.399994"/>
       <use xlink:href="#Ubuntu-31" x="80.999985"/>
       <use xlink:href="#Ubuntu-30" x="137.399979"/>
      </g>
     </g>
    </g>
    <g id="ytick_3">
     <g id="line2d_3">
      <g>
       <use xlink:href="#mbde95400cd" x="45.853438" y="76.159375" style="fill: #bbbbbb; stroke: #bbbbbb; stroke-width: 0.75"/>
      </g>
     </g>
     <g id="text_10">
      <!-- 0.12 -->
      <g style="fill: #9f9f9f" transform="translate(23.848438 79.263125) scale(0.08 -0.08)">
       <defs>
        <path id="Ubuntu-32" d="M 2989 3302 
Q 2989 3072 2896 2857 
Q 2803 2643 2649 2435 
Q 2496 2227 2304 2025 
Q 2112 1824 1920 1632 
Q 1811 1523 1667 1376 
Q 1523 1229 1395 1069 
Q 1267 909 1180 761 
Q 1094 614 1094 506 
L 3136 506 
L 3136 0 
L 448 0 
Q 442 38 442 76 
Q 442 115 442 147 
Q 442 448 541 707 
Q 640 966 800 1196 
Q 960 1427 1158 1632 
Q 1357 1837 1549 2029 
Q 1709 2182 1853 2332 
Q 1997 2483 2109 2633 
Q 2221 2784 2288 2944 
Q 2355 3104 2355 3283 
Q 2355 3475 2294 3609 
Q 2234 3744 2131 3833 
Q 2029 3923 1891 3964 
Q 1754 4006 1600 4006 
Q 1414 4006 1260 3955 
Q 1107 3904 985 3837 
Q 864 3770 781 3696 
Q 698 3622 653 3584 
L 358 4006 
Q 416 4070 531 4163 
Q 646 4256 806 4339 
Q 966 4422 1164 4480 
Q 1363 4538 1594 4538 
Q 2291 4538 2640 4214 
Q 2989 3891 2989 3302 
z
" transform="scale(0.015625)"/>
       </defs>
       <use xlink:href="#Ubuntu-30"/>
       <use xlink:href="#Ubuntu-2e" x="56.399994"/>
       <use xlink:href="#Ubuntu-31" x="80.999985"/>
       <use xlink:href="#Ubuntu-32" x="137.399979"/>
      </g>
     </g>
    </g>
    <g id="ytick_4">
     <g id="line2d_4">
      <g>
       <use xlink:href="#mbde95400cd" x="45.853438" y="29.959375" style="fill: #bbbbbb; stroke: #bbbbbb; stroke-width: 0.75"/>
      </g>
     </g>
     <g id="text_11">
      <!-- 0.14 -->
      <g style="fill: #9f9f9f" transform="translate(23.848438 33.063125) scale(0.08 -0.08)">
       <defs>
        <path id="Ubuntu-34" d="M 256 1536 
Q 378 1818 589 2192 
Q 800 2566 1065 2963 
Q 1331 3360 1635 3744 
Q 1939 4128 2246 4435 
L 2816 4435 
L 2816 1619 
L 3341 1619 
L 3341 1133 
L 2816 1133 
L 2816 0 
L 2240 0 
L 2240 1133 
L 256 1133 
L 256 1536 
z
M 2240 3731 
Q 2048 3526 1853 3273 
Q 1658 3021 1472 2745 
Q 1286 2470 1123 2182 
Q 960 1894 832 1619 
L 2240 1619 
L 2240 3731 
z
" transform="scale(0.015625)"/>
       </defs>
       <use xlink:href="#Ubuntu-30"/>
       <use xlink:href="#Ubuntu-2e" x="56.399994"/>
       <use xlink:href="#Ubuntu-31" x="80.999985"/>
       <use xlink:href="#Ubuntu-34" x="137.399979"/>
      </g>
     </g>
    </g>
    <g id="text_12">
     <!-- RMSE -->
     <g style="fill: #505050" transform="translate(14.183438 54.727656) rotate(-90) scale(0.09 -0.09)">
      <defs>
       <path id="Ubuntu-Bold-52" d="M 1811 4486 
Q 2810 4486 3341 4131 
Q 3872 3776 3872 3027 
Q 3872 2560 3657 2269 
Q 3443 1978 3040 1811 
Q 3174 1645 3321 1430 
Q 3469 1216 3613 982 
Q 3757 749 3891 496 
Q 4026 243 4141 0 
L 3021 0 
Q 2899 218 2774 442 
Q 2650 666 2518 877 
Q 2387 1088 2259 1277 
Q 2131 1466 2003 1619 
L 1510 1619 
L 1510 0 
L 512 0 
L 512 4371 
Q 838 4435 1187 4460 
Q 1536 4486 1811 4486 
z
M 1869 3635 
Q 1760 3635 1673 3628 
Q 1587 3622 1510 3616 
L 1510 2413 
L 1792 2413 
Q 2355 2413 2598 2553 
Q 2842 2694 2842 3034 
Q 2842 3360 2595 3497 
Q 2349 3635 1869 3635 
z
" transform="scale(0.015625)"/>
      </defs>
      <use xlink:href="#Ubuntu-Bold-52"/>
      <use xlink:href="#Ubuntu-Bold-4d" x="66.699997"/>
      <use xlink:href="#Ubuntu-Bold-53" x="156.399979"/>
      <use xlink:href="#Ubuntu-Bold-45" x="214.599976"/>
     </g>
    </g>
   </g>
   <g id="patch_3">
    <path d="M 67.593438 353.359375 
L 89.913438 353.359375 
L 89.913438 72.254055 
L 67.593438 72.254055 
z
" clip-path="url(#pe0fb1f39f2)" style="fill: #5d5d5d; stroke: #fefefe; stroke-linejoin: miter"/>
   </g>
   <g id="patch_4">
    <path d="M 123.393438 353.359375 
L 145.713437 353.359375 
L 145.713437 96.798873 
L 123.393438 96.798873 
z
" clip-path="url(#pe0fb1f39f2)" style="fill: #5d5d5d; stroke: #fefefe; stroke-linejoin: miter"/>
   </g>
   <g id="patch_5">
    <path d="M 179.193438 353.359375 
L 201.513438 353.359375 
L 201.513438 77.756153 
L 179.193438 77.756153 
z
" clip-path="url(#pe0fb1f39f2)" style="fill: #5d5d5d; stroke: #fefefe; stroke-linejoin: miter"/>
   </g>
   <g id="patch_6">
    <path d="M 234.993437 353.359375 
L 257.313437 353.359375 
L 257.313437 69.271249 
L 234.993437 69.271249 
z
" clip-path="url(#pe0fb1f39f2)" style="fill: #5d5d5d; stroke: #fefefe; stroke-linejoin: miter"/>
   </g>
   <g id="patch_7">
    <path d="M 290.793437 353.359375 
L 313.113437 353.359375 
L 313.113437 108.564596 
L 290.793437 108.564596 
z
" clip-path="url(#pe0fb1f39f2)" style="fill: #5d5d5d; stroke: #fefefe; stroke-linejoin: miter"/>
   </g>
   <g id="patch_8">
    <path d="M 346.593437 353.359375 
L 368.913437 353.359375 
L 368.913437 116.157387 
L 346.593437 116.157387 
z
" clip-path="url(#pe0fb1f39f2)" style="fill: #5d5d5d; stroke: #fefefe; stroke-linejoin: miter"/>
   </g>
   <g id="patch_9">
    <path d="M 402.393438 353.359375 
L 424.713437 353.359375 
L 424.713437 129.275052 
L 402.393438 129.275052 
z
" clip-path="url(#pe0fb1f39f2)" style="fill: #5d5d5d; stroke: #fefefe; stroke-linejoin: miter"/>
   </g>
   <g id="line2d_5">
    <path clip-path="url(#pe0fb1f39f2)" style="fill: none; stroke: #dddddd; stroke-width: 1.8; stroke-linecap: square"/>
   </g>
   <g id="line2d_6">
    <path clip-path="url(#pe0fb1f39f2)" style="fill: none; stroke: #dddddd; stroke-width: 1.8; stroke-linecap: square"/>
   </g>
   <g id="line2d_7">
    <path clip-path="url(#pe0fb1f39f2)" style="fill: none; stroke: #dddddd; stroke-width: 1.8; stroke-linecap: square"/>
   </g>
   <g id="line2d_8">
    <path clip-path="url(#pe0fb1f39f2)" style="fill: none; stroke: #dddddd; stroke-width: 1.8; stroke-linecap: square"/>
   </g>
   <g id="line2d_9">
    <path clip-path="url(#pe0fb1f39f2)" style="fill: none; stroke: #dddddd; stroke-width: 1.8; stroke-linecap: square"/>
   </g>
   <g id="line2d_10">
    <path clip-path="url(#pe0fb1f39f2)" style="fill: none; stroke: #dddddd; stroke-width: 1.8; stroke-linecap: square"/>
   </g>
   <g id="line2d_11">
    <path clip-path="url(#pe0fb1f39f2)" style="fill: none; stroke: #dddddd; stroke-width: 1.8; stroke-linecap: square"/>
   </g>
   <g id="line2d_12">
    <path d="M 58.665438 122.359375 
L 433.641437 122.359375 
" clip-path="url(#pe0fb1f39f2)" style="fill: none; stroke-dasharray: 0.75,1.2375; stroke-dashoffset: 0; stroke: #dddddd; stroke-width: 0.75"/>
   </g>
   <g id="patch_10">
    <path d="M 45.853438 168.559375 
L 45.853438 29.959375 
" style="fill: none; stroke: #bbbbbb; stroke-width: 0.75; stroke-linejoin: miter; stroke-linecap: square"/>
   </g>
   <g id="text_13">
    <!-- RMSE on Test Dataset -->
    <g style="fill: #303030" transform="translate(50.853438 14.959375) scale(0.1 -0.1)">
     <defs>
      <path id="Ubuntu-Medium-52" d="M 1754 4480 
Q 2714 4480 3222 4128 
Q 3731 3776 3731 3053 
Q 3731 2150 2842 1830 
Q 2963 1683 3116 1472 
Q 3270 1261 3430 1014 
Q 3590 768 3737 509 
Q 3885 250 4000 0 
L 3098 0 
Q 2976 230 2835 464 
Q 2694 698 2550 918 
Q 2406 1139 2265 1334 
Q 2125 1530 2003 1683 
Q 1914 1677 1850 1677 
Q 1786 1677 1728 1677 
L 1338 1677 
L 1338 0 
L 531 0 
L 531 4371 
Q 826 4435 1158 4457 
Q 1491 4480 1754 4480 
z
M 1811 3782 
Q 1555 3782 1338 3763 
L 1338 2330 
L 1690 2330 
Q 1984 2330 2208 2362 
Q 2432 2394 2582 2477 
Q 2733 2560 2809 2701 
Q 2886 2842 2886 3059 
Q 2886 3264 2809 3405 
Q 2733 3546 2589 3629 
Q 2445 3712 2246 3747 
Q 2048 3782 1811 3782 
z
" transform="scale(0.015625)"/>
      <path id="Ubuntu-Medium-4d" d="M 1498 4435 
Q 1638 4192 1811 3840 
Q 1984 3488 2163 3101 
Q 2342 2714 2518 2314 
Q 2694 1914 2842 1574 
Q 2989 1914 3161 2314 
Q 3334 2714 3513 3101 
Q 3693 3488 3865 3840 
Q 4038 4192 4179 4435 
L 4909 4435 
Q 4966 3949 5017 3401 
Q 5069 2854 5110 2281 
Q 5152 1709 5187 1129 
Q 5222 550 5248 0 
L 4454 0 
Q 4429 774 4393 1593 
Q 4358 2413 4288 3181 
Q 4218 3034 4122 2829 
Q 4026 2624 3917 2384 
Q 3808 2144 3696 1888 
Q 3584 1632 3478 1392 
Q 3373 1152 3283 944 
Q 3194 736 3130 589 
L 2528 589 
Q 2464 736 2374 947 
Q 2285 1158 2179 1398 
Q 2074 1638 1962 1894 
Q 1850 2150 1741 2387 
Q 1632 2624 1536 2832 
Q 1440 3040 1370 3181 
Q 1299 2413 1264 1593 
Q 1229 774 1203 0 
L 410 0 
Q 435 550 470 1139 
Q 506 1728 547 2307 
Q 589 2886 640 3430 
Q 691 3974 749 4435 
L 1498 4435 
z
" transform="scale(0.015625)"/>
      <path id="Ubuntu-Medium-53" d="M 1606 602 
Q 2042 602 2240 749 
Q 2438 896 2438 1165 
Q 2438 1325 2371 1440 
Q 2304 1555 2179 1648 
Q 2054 1741 1875 1821 
Q 1696 1901 1466 1978 
Q 1235 2061 1020 2160 
Q 806 2259 643 2406 
Q 480 2554 381 2758 
Q 282 2963 282 3251 
Q 282 3853 698 4195 
Q 1114 4538 1830 4538 
Q 2246 4538 2569 4445 
Q 2893 4352 3078 4243 
L 2829 3590 
Q 2611 3712 2352 3776 
Q 2093 3840 1818 3840 
Q 1491 3840 1308 3705 
Q 1126 3571 1126 3328 
Q 1126 3181 1187 3075 
Q 1248 2970 1360 2886 
Q 1472 2803 1622 2732 
Q 1773 2662 1952 2598 
Q 2266 2483 2512 2364 
Q 2758 2246 2928 2083 
Q 3098 1920 3187 1699 
Q 3277 1478 3277 1165 
Q 3277 563 2851 233 
Q 2426 -96 1606 -96 
Q 1331 -96 1104 -61 
Q 877 -26 701 25 
Q 525 77 397 131 
Q 269 186 192 230 
L 429 890 
Q 602 794 896 698 
Q 1190 602 1606 602 
z
" transform="scale(0.015625)"/>
      <path id="Ubuntu-Medium-45" d="M 531 0 
L 531 4435 
L 3379 4435 
L 3379 3750 
L 1338 3750 
L 1338 2656 
L 3155 2656 
L 3155 1984 
L 1338 1984 
L 1338 685 
L 3533 685 
L 3533 0 
L 531 0 
z
" transform="scale(0.015625)"/>
      <path id="Ubuntu-Medium-20" transform="scale(0.015625)"/>
      <path id="Ubuntu-Medium-6f" d="M 3520 1677 
Q 3520 1280 3405 953 
Q 3290 627 3078 396 
Q 2867 166 2569 38 
Q 2272 -90 1914 -90 
Q 1555 -90 1260 38 
Q 966 166 755 396 
Q 544 627 425 953 
Q 307 1280 307 1677 
Q 307 2074 425 2397 
Q 544 2720 758 2950 
Q 973 3181 1267 3305 
Q 1562 3430 1914 3430 
Q 2266 3430 2563 3305 
Q 2861 3181 3072 2950 
Q 3283 2720 3401 2397 
Q 3520 2074 3520 1677 
z
M 2726 1677 
Q 2726 2176 2512 2467 
Q 2298 2758 1914 2758 
Q 1530 2758 1315 2467 
Q 1101 2176 1101 1677 
Q 1101 1171 1315 876 
Q 1530 582 1914 582 
Q 2298 582 2512 876 
Q 2726 1171 2726 1677 
z
" transform="scale(0.015625)"/>
      <path id="Ubuntu-Medium-6e" d="M 493 3238 
Q 717 3302 1075 3360 
Q 1434 3418 1869 3418 
Q 2278 3418 2553 3306 
Q 2829 3194 2992 2992 
Q 3155 2790 3222 2505 
Q 3290 2221 3290 1882 
L 3290 0 
L 2515 0 
L 2515 1760 
Q 2515 2029 2480 2217 
Q 2445 2406 2365 2524 
Q 2285 2643 2147 2697 
Q 2010 2752 1811 2752 
Q 1664 2752 1504 2733 
Q 1344 2714 1267 2701 
L 1267 0 
L 493 0 
L 493 3238 
z
" transform="scale(0.015625)"/>
      <path id="Ubuntu-Medium-54" d="M 3622 4435 
L 3622 3738 
L 2259 3738 
L 2259 0 
L 1446 0 
L 1446 3738 
L 83 3738 
L 83 4435 
L 3622 4435 
z
" transform="scale(0.015625)"/>
      <path id="Ubuntu-Medium-65" d="M 307 1658 
Q 307 2099 438 2432 
Q 570 2765 787 2985 
Q 1005 3206 1286 3318 
Q 1568 3430 1862 3430 
Q 2554 3430 2941 3001 
Q 3328 2573 3328 1722 
Q 3328 1658 3325 1578 
Q 3322 1498 3315 1434 
L 1107 1434 
Q 1139 1030 1392 809 
Q 1645 589 2125 589 
Q 2406 589 2640 640 
Q 2874 691 3008 749 
L 3110 115 
Q 3046 83 2934 48 
Q 2822 13 2678 -16 
Q 2534 -45 2368 -64 
Q 2202 -83 2029 -83 
Q 1587 -83 1260 48 
Q 934 179 723 412 
Q 512 646 409 963 
Q 307 1280 307 1658 
z
M 2554 2003 
Q 2554 2163 2509 2307 
Q 2464 2451 2377 2556 
Q 2291 2662 2166 2723 
Q 2042 2784 1869 2784 
Q 1690 2784 1555 2717 
Q 1421 2650 1328 2541 
Q 1235 2432 1184 2291 
Q 1133 2150 1114 2003 
L 2554 2003 
z
" transform="scale(0.015625)"/>
      <path id="Ubuntu-Medium-73" d="M 1331 557 
Q 1638 557 1779 630 
Q 1920 704 1920 883 
Q 1920 1050 1769 1158 
Q 1619 1267 1274 1395 
Q 1062 1472 886 1558 
Q 710 1645 582 1760 
Q 454 1875 380 2038 
Q 307 2202 307 2438 
Q 307 2899 646 3164 
Q 986 3430 1568 3430 
Q 1862 3430 2131 3376 
Q 2400 3322 2534 3270 
L 2394 2643 
Q 2266 2701 2067 2749 
Q 1869 2797 1606 2797 
Q 1370 2797 1222 2717 
Q 1075 2637 1075 2470 
Q 1075 2387 1104 2323 
Q 1133 2259 1203 2204 
Q 1274 2150 1389 2096 
Q 1504 2042 1670 1984 
Q 1946 1882 2138 1782 
Q 2330 1683 2454 1558 
Q 2579 1434 2636 1274 
Q 2694 1114 2694 890 
Q 2694 410 2339 163 
Q 1984 -83 1325 -83 
Q 883 -83 614 -9 
Q 346 64 237 109 
L 371 755 
Q 544 685 784 621 
Q 1024 557 1331 557 
z
" transform="scale(0.015625)"/>
      <path id="Ubuntu-Medium-74" d="M 454 4230 
L 1229 4358 
L 1229 3347 
L 2419 3347 
L 2419 2701 
L 1229 2701 
L 1229 1338 
Q 1229 934 1357 761 
Q 1485 589 1792 589 
Q 2003 589 2166 633 
Q 2330 678 2426 717 
L 2554 102 
Q 2419 45 2201 -16 
Q 1984 -77 1690 -77 
Q 1331 -77 1091 19 
Q 851 115 710 297 
Q 570 480 512 739 
Q 454 998 454 1331 
L 454 4230 
z
" transform="scale(0.015625)"/>
      <path id="Ubuntu-Medium-44" d="M 1338 666 
Q 1408 659 1523 656 
Q 1638 653 1837 653 
Q 2650 653 3050 1065 
Q 3450 1478 3450 2221 
Q 3450 2976 3059 3379 
Q 2669 3782 1850 3782 
Q 1491 3782 1338 3763 
L 1338 666 
z
M 4294 2221 
Q 4294 1645 4115 1219 
Q 3936 794 3606 509 
Q 3277 224 2813 86 
Q 2349 -51 1786 -51 
Q 1517 -51 1177 -28 
Q 838 -6 531 64 
L 531 4371 
Q 838 4442 1184 4461 
Q 1530 4480 1798 4480 
Q 2355 4480 2816 4349 
Q 3277 4218 3606 3939 
Q 3936 3661 4115 3235 
Q 4294 2810 4294 2221 
z
" transform="scale(0.015625)"/>
      <path id="Ubuntu-Medium-61" d="M 1670 544 
Q 2029 544 2214 582 
L 2214 1440 
Q 2150 1459 2028 1478 
Q 1907 1498 1760 1498 
Q 1632 1498 1501 1478 
Q 1370 1459 1264 1408 
Q 1158 1357 1094 1264 
Q 1030 1171 1030 1030 
Q 1030 755 1203 649 
Q 1376 544 1670 544 
z
M 1606 3430 
Q 1990 3430 2252 3334 
Q 2515 3238 2672 3065 
Q 2829 2893 2896 2646 
Q 2963 2400 2963 2106 
L 2963 77 
Q 2784 38 2422 -16 
Q 2061 -70 1606 -70 
Q 1306 -70 1056 -12 
Q 806 45 630 173 
Q 454 301 355 505 
Q 256 710 256 1011 
Q 256 1299 368 1497 
Q 480 1696 672 1821 
Q 864 1946 1117 2000 
Q 1370 2054 1645 2054 
Q 1773 2054 1913 2038 
Q 2054 2022 2214 1984 
L 2214 2112 
Q 2214 2246 2182 2368 
Q 2150 2490 2070 2582 
Q 1990 2675 1859 2726 
Q 1728 2778 1530 2778 
Q 1261 2778 1037 2739 
Q 813 2701 672 2650 
L 576 3277 
Q 723 3328 1004 3379 
Q 1286 3430 1606 3430 
z
" transform="scale(0.015625)"/>
     </defs>
     <use xlink:href="#Ubuntu-Medium-52"/>
     <use xlink:href="#Ubuntu-Medium-4d" x="63.999985"/>
     <use xlink:href="#Ubuntu-Medium-53" x="152.399979"/>
     <use xlink:href="#Ubuntu-Medium-45" x="206.399963"/>
     <use xlink:href="#Ubuntu-Medium-20" x="264.999954"/>
     <use xlink:href="#Ubuntu-Medium-6f" x="288.299942"/>
     <use xlink:href="#Ubuntu-Medium-6e" x="348.09993"/>
     <use xlink:href="#Ubuntu-Medium-20" x="406.599915"/>
     <use xlink:href="#Ubuntu-Medium-54" x="429.899902"/>
     <use xlink:href="#Ubuntu-Medium-65" x="482.299896"/>
     <use xlink:href="#Ubuntu-Medium-73" x="539.399887"/>
     <use xlink:href="#Ubuntu-Medium-74" x="585.099884"/>
     <use xlink:href="#Ubuntu-Medium-20" x="626.899872"/>
     <use xlink:href="#Ubuntu-Medium-44" x="650.19986"/>
     <use xlink:href="#Ubuntu-Medium-61" x="721.54985"/>
     <use xlink:href="#Ubuntu-Medium-74" x="774.949844"/>
     <use xlink:href="#Ubuntu-Medium-61" x="816.749832"/>
     <use xlink:href="#Ubuntu-Medium-73" x="870.149826"/>
     <use xlink:href="#Ubuntu-Medium-65" x="915.849823"/>
     <use xlink:href="#Ubuntu-Medium-74" x="972.949814"/>
    </g>
   </g>
  </g>
 </g>
 <defs>
  <clipPath id="pe0fb1f39f2">
   <rect x="50.853438" y="29.959375" width="390.6" height="138.6"/>
  </clipPath>
 </defs>
</svg>
