<?xml version="1.0" encoding="utf-8" standalone="no"?>
<!DOCTYPE svg PUBLIC "-//W3C//DTD SVG 1.1//EN"
  "http://www.w3.org/Graphics/SVG/1.1/DTD/svg11.dtd">
<svg xmlns:xlink="http://www.w3.org/1999/xlink" width="494.8625pt" height="175.29125pt" viewBox="0 0 494.8625 175.29125" xmlns="http://www.w3.org/2000/svg" version="1.1">
 <metadata>
  <rdf:RDF xmlns:dc="http://purl.org/dc/elements/1.1/" xmlns:cc="http://creativecommons.org/ns#" xmlns:rdf="http://www.w3.org/1999/02/22-rdf-syntax-ns#">
   <cc:Work>
    <dc:type rdf:resource="http://purl.org/dc/dcmitype/StillImage"/>
    <dc:date>2024-02-20T09:34:25.038494</dc:date>
    <dc:format>image/svg+xml</dc:format>
    <dc:creator>
     <cc:Agent>
      <dc:title>Matplotlib v3.8.0, https://matplotlib.org/</dc:title>
     </cc:Agent>
    </dc:creator>
   </cc:Work>
  </rdf:RDF>
 </metadata>
 <defs>
  <style type="text/css">*{stroke-linejoin: round; stroke-linecap: butt}</style>
 </defs>
 <g id="figure_1">
  <g id="patch_1">
   <path d="M 0 175.29125 
L 494.8625 175.29125 
L 494.8625 0 
L 0 0 
L 0 175.29125 
z
" style="fill: none"/>
  </g>
  <g id="axes_1">
   <g id="patch_2">
    <path d="M 27.725 148.90375 
L 474.125 148.90375 
L 474.125 10.30375 
L 27.725 10.30375 
L 27.725 148.90375 
z
" style="fill: none"/>
   </g>
   <g id="matplotlib.axis_1">
    <g id="xtick_1">
     <g id="line2d_1">
      <defs>
       <path id="m2190eee19c" d="M 0 0 
L 0 3 
" style="stroke: #bbbbbb; stroke-width: 0.75"/>
      </defs>
      <g>
       <use xlink:href="#m2190eee19c" x="27.725" y="153.90375" style="fill: #bbbbbb; stroke: #bbbbbb; stroke-width: 0.75"/>
      </g>
     </g>
     <g id="text_1">
      <!-- −100000 -->
      <g style="fill: #9f9f9f" transform="translate(11.93125 166.61125) scale(0.08 -0.08)">
       <defs>
        <path id="Ubuntu-2212" d="M 339 2138 
L 3270 2138 
L 3270 1632 
L 339 1632 
L 339 2138 
z
" transform="scale(0.015625)"/>
        <path id="Ubuntu-31" d="M 595 3520 
Q 960 3661 1305 3881 
Q 1651 4102 1939 4435 
L 2362 4435 
L 2362 0 
L 1766 0 
L 1766 3610 
Q 1690 3539 1578 3462 
Q 1466 3386 1334 3315 
Q 1203 3245 1059 3181 
Q 915 3117 781 3072 
L 595 3520 
z
" transform="scale(0.015625)"/>
        <path id="Ubuntu-30" d="M 320 2221 
Q 320 3334 713 3936 
Q 1107 4538 1805 4538 
Q 2502 4538 2896 3936 
Q 3290 3334 3290 2221 
Q 3290 1107 2896 505 
Q 2502 -96 1805 -96 
Q 1107 -96 713 505 
Q 320 1107 320 2221 
z
M 2662 2221 
Q 2662 2586 2620 2912 
Q 2579 3238 2480 3481 
Q 2381 3725 2214 3869 
Q 2048 4013 1805 4013 
Q 1562 4013 1395 3869 
Q 1229 3725 1129 3481 
Q 1030 3238 988 2912 
Q 947 2586 947 2221 
Q 947 1856 988 1529 
Q 1030 1203 1129 960 
Q 1229 717 1395 573 
Q 1562 429 1805 429 
Q 2048 429 2214 573 
Q 2381 717 2480 960 
Q 2579 1203 2620 1529 
Q 2662 1856 2662 2221 
z
" transform="scale(0.015625)"/>
       </defs>
       <use xlink:href="#Ubuntu-2212"/>
       <use xlink:href="#Ubuntu-31" x="56.399994"/>
       <use xlink:href="#Ubuntu-30" x="112.799988"/>
       <use xlink:href="#Ubuntu-30" x="169.199982"/>
       <use xlink:href="#Ubuntu-30" x="225.599976"/>
       <use xlink:href="#Ubuntu-30" x="281.999969"/>
       <use xlink:href="#Ubuntu-30" x="338.399963"/>
      </g>
     </g>
    </g>
    <g id="xtick_2">
     <g id="line2d_2">
      <g>
       <use xlink:href="#m2190eee19c" x="117.005" y="153.90375" style="fill: #bbbbbb; stroke: #bbbbbb; stroke-width: 0.75"/>
      </g>
     </g>
     <g id="text_2">
      <!-- −50000 -->
      <g style="fill: #9f9f9f" transform="translate(103.4675 166.61125) scale(0.08 -0.08)">
       <defs>
        <path id="Ubuntu-35" d="M 1274 2726 
Q 2240 2688 2691 2304 
Q 3142 1920 3142 1261 
Q 3142 966 3043 716 
Q 2944 467 2742 288 
Q 2541 109 2233 6 
Q 1926 -96 1504 -96 
Q 1338 -96 1165 -70 
Q 992 -45 845 -6 
Q 698 32 582 70 
Q 467 109 416 134 
L 531 653 
Q 640 602 886 518 
Q 1133 435 1491 435 
Q 1779 435 1974 499 
Q 2170 563 2291 672 
Q 2413 781 2467 925 
Q 2522 1069 2522 1229 
Q 2522 1472 2438 1661 
Q 2355 1850 2144 1978 
Q 1933 2106 1581 2173 
Q 1229 2240 691 2240 
Q 730 2554 752 2829 
Q 774 3104 793 3366 
Q 813 3629 825 3888 
Q 838 4147 851 4435 
L 2989 4435 
L 2989 3930 
L 1370 3930 
Q 1363 3834 1350 3670 
Q 1338 3507 1325 3331 
Q 1312 3155 1299 2988 
Q 1286 2822 1274 2726 
z
" transform="scale(0.015625)"/>
       </defs>
       <use xlink:href="#Ubuntu-2212"/>
       <use xlink:href="#Ubuntu-35" x="56.399994"/>
       <use xlink:href="#Ubuntu-30" x="112.799988"/>
       <use xlink:href="#Ubuntu-30" x="169.199982"/>
       <use xlink:href="#Ubuntu-30" x="225.599976"/>
       <use xlink:href="#Ubuntu-30" x="281.999969"/>
      </g>
     </g>
    </g>
    <g id="xtick_3">
     <g id="line2d_3">
      <g>
       <use xlink:href="#m2190eee19c" x="206.285" y="153.90375" style="fill: #bbbbbb; stroke: #bbbbbb; stroke-width: 0.75"/>
      </g>
     </g>
     <g id="text_3">
      <!-- 0 -->
      <g style="fill: #9f9f9f" transform="translate(204.02875 166.61125) scale(0.08 -0.08)">
       <use xlink:href="#Ubuntu-30"/>
      </g>
     </g>
    </g>
    <g id="xtick_4">
     <g id="line2d_4">
      <g>
       <use xlink:href="#m2190eee19c" x="295.565" y="153.90375" style="fill: #bbbbbb; stroke: #bbbbbb; stroke-width: 0.75"/>
      </g>
     </g>
     <g id="text_4">
      <!-- 50000 -->
      <g style="fill: #9f9f9f" transform="translate(284.28375 166.61125) scale(0.08 -0.08)">
       <use xlink:href="#Ubuntu-35"/>
       <use xlink:href="#Ubuntu-30" x="56.399994"/>
       <use xlink:href="#Ubuntu-30" x="112.799988"/>
       <use xlink:href="#Ubuntu-30" x="169.199982"/>
       <use xlink:href="#Ubuntu-30" x="225.599976"/>
      </g>
     </g>
    </g>
    <g id="xtick_5">
     <g id="line2d_5">
      <g>
       <use xlink:href="#m2190eee19c" x="384.845" y="153.90375" style="fill: #bbbbbb; stroke: #bbbbbb; stroke-width: 0.75"/>
      </g>
     </g>
     <g id="text_5">
      <!-- 100000 -->
      <g style="fill: #9f9f9f" transform="translate(371.3075 166.61125) scale(0.08 -0.08)">
       <use xlink:href="#Ubuntu-31"/>
       <use xlink:href="#Ubuntu-30" x="56.399994"/>
       <use xlink:href="#Ubuntu-30" x="112.799988"/>
       <use xlink:href="#Ubuntu-30" x="169.199982"/>
       <use xlink:href="#Ubuntu-30" x="225.599976"/>
       <use xlink:href="#Ubuntu-30" x="281.999969"/>
      </g>
     </g>
    </g>
    <g id="xtick_6">
     <g id="line2d_6">
      <g>
       <use xlink:href="#m2190eee19c" x="474.125" y="153.90375" style="fill: #bbbbbb; stroke: #bbbbbb; stroke-width: 0.75"/>
      </g>
     </g>
     <g id="text_6">
      <!-- 150000 -->
      <g style="fill: #9f9f9f" transform="translate(460.5875 166.61125) scale(0.08 -0.08)">
       <use xlink:href="#Ubuntu-31"/>
       <use xlink:href="#Ubuntu-35" x="56.399994"/>
       <use xlink:href="#Ubuntu-30" x="112.799988"/>
       <use xlink:href="#Ubuntu-30" x="169.199982"/>
       <use xlink:href="#Ubuntu-30" x="225.599976"/>
       <use xlink:href="#Ubuntu-30" x="281.999969"/>
      </g>
     </g>
    </g>
   </g>
   <g id="matplotlib.axis_2">
    <g id="ytick_1">
     <g id="line2d_7">
      <defs>
       <path id="mfea971da5b" d="M 0 0 
L -3 0 
" style="stroke: #bbbbbb; stroke-width: 0.75"/>
      </defs>
      <g>
       <use xlink:href="#mfea971da5b" x="22.725" y="148.90375" style="fill: #bbbbbb; stroke: #bbbbbb; stroke-width: 0.75"/>
      </g>
     </g>
     <g id="text_7">
      <!-- 0 -->
      <g style="fill: #9f9f9f" transform="translate(11.7125 152.0075) scale(0.08 -0.08)">
       <use xlink:href="#Ubuntu-30"/>
      </g>
     </g>
    </g>
    <g id="ytick_2">
     <g id="line2d_8">
      <g>
       <use xlink:href="#mfea971da5b" x="22.725" y="125.80375" style="fill: #bbbbbb; stroke: #bbbbbb; stroke-width: 0.75"/>
      </g>
     </g>
     <g id="text_8">
      <!-- 5 -->
      <g style="fill: #9f9f9f" transform="translate(11.7125 128.9075) scale(0.08 -0.08)">
       <use xlink:href="#Ubuntu-35"/>
      </g>
     </g>
    </g>
    <g id="ytick_3">
     <g id="line2d_9">
      <g>
       <use xlink:href="#mfea971da5b" x="22.725" y="102.70375" style="fill: #bbbbbb; stroke: #bbbbbb; stroke-width: 0.75"/>
      </g>
     </g>
     <g id="text_9">
      <!-- 10 -->
      <g style="fill: #9f9f9f" transform="translate(7.2 105.8075) scale(0.08 -0.08)">
       <use xlink:href="#Ubuntu-31"/>
       <use xlink:href="#Ubuntu-30" x="56.399994"/>
      </g>
     </g>
    </g>
    <g id="ytick_4">
     <g id="line2d_10">
      <g>
       <use xlink:href="#mfea971da5b" x="22.725" y="79.60375" style="fill: #bbbbbb; stroke: #bbbbbb; stroke-width: 0.75"/>
      </g>
     </g>
     <g id="text_10">
      <!-- 15 -->
      <g style="fill: #9f9f9f" transform="translate(7.2 82.7075) scale(0.08 -0.08)">
       <use xlink:href="#Ubuntu-31"/>
       <use xlink:href="#Ubuntu-35" x="56.399994"/>
      </g>
     </g>
    </g>
    <g id="ytick_5">
     <g id="line2d_11">
      <g>
       <use xlink:href="#mfea971da5b" x="22.725" y="56.50375" style="fill: #bbbbbb; stroke: #bbbbbb; stroke-width: 0.75"/>
      </g>
     </g>
     <g id="text_11">
      <!-- 20 -->
      <g style="fill: #9f9f9f" transform="translate(7.2 59.6075) scale(0.08 -0.08)">
       <defs>
        <path id="Ubuntu-32" d="M 2989 3302 
Q 2989 3072 2896 2857 
Q 2803 2643 2649 2435 
Q 2496 2227 2304 2025 
Q 2112 1824 1920 1632 
Q 1811 1523 1667 1376 
Q 1523 1229 1395 1069 
Q 1267 909 1180 761 
Q 1094 614 1094 506 
L 3136 506 
L 3136 0 
L 448 0 
Q 442 38 442 76 
Q 442 115 442 147 
Q 442 448 541 707 
Q 640 966 800 1196 
Q 960 1427 1158 1632 
Q 1357 1837 1549 2029 
Q 1709 2182 1853 2332 
Q 1997 2483 2109 2633 
Q 2221 2784 2288 2944 
Q 2355 3104 2355 3283 
Q 2355 3475 2294 3609 
Q 2234 3744 2131 3833 
Q 2029 3923 1891 3964 
Q 1754 4006 1600 4006 
Q 1414 4006 1260 3955 
Q 1107 3904 985 3837 
Q 864 3770 781 3696 
Q 698 3622 653 3584 
L 358 4006 
Q 416 4070 531 4163 
Q 646 4256 806 4339 
Q 966 4422 1164 4480 
Q 1363 4538 1594 4538 
Q 2291 4538 2640 4214 
Q 2989 3891 2989 3302 
z
" transform="scale(0.015625)"/>
       </defs>
       <use xlink:href="#Ubuntu-32"/>
       <use xlink:href="#Ubuntu-30" x="56.399994"/>
      </g>
     </g>
    </g>
    <g id="ytick_6">
     <g id="line2d_12">
      <g>
       <use xlink:href="#mfea971da5b" x="22.725" y="33.40375" style="fill: #bbbbbb; stroke: #bbbbbb; stroke-width: 0.75"/>
      </g>
     </g>
     <g id="text_12">
      <!-- 25 -->
      <g style="fill: #9f9f9f" transform="translate(7.2 36.5075) scale(0.08 -0.08)">
       <use xlink:href="#Ubuntu-32"/>
       <use xlink:href="#Ubuntu-35" x="56.399994"/>
      </g>
     </g>
    </g>
    <g id="ytick_7">
     <g id="line2d_13">
      <g>
       <use xlink:href="#mfea971da5b" x="22.725" y="10.30375" style="fill: #bbbbbb; stroke: #bbbbbb; stroke-width: 0.75"/>
      </g>
     </g>
     <g id="text_13">
      <!-- 30 -->
      <g style="fill: #9f9f9f" transform="translate(7.2 13.4075) scale(0.08 -0.08)">
       <defs>
        <path id="Ubuntu-33" d="M 1446 435 
Q 2016 435 2262 659 
Q 2509 883 2509 1261 
Q 2509 1504 2406 1670 
Q 2304 1837 2137 1936 
Q 1971 2035 1750 2076 
Q 1530 2118 1299 2118 
L 1146 2118 
L 1146 2605 
L 1357 2605 
Q 1517 2605 1686 2637 
Q 1856 2669 1997 2752 
Q 2138 2835 2227 2979 
Q 2317 3123 2317 3341 
Q 2317 3520 2253 3648 
Q 2189 3776 2083 3859 
Q 1978 3942 1840 3977 
Q 1702 4013 1549 4013 
Q 1242 4013 1027 3923 
Q 813 3834 666 3738 
L 435 4192 
Q 512 4243 630 4304 
Q 749 4365 896 4416 
Q 1043 4467 1212 4502 
Q 1382 4538 1568 4538 
Q 1920 4538 2176 4451 
Q 2432 4365 2598 4208 
Q 2765 4051 2848 3836 
Q 2931 3622 2931 3373 
Q 2931 3027 2732 2780 
Q 2534 2534 2253 2406 
Q 2426 2355 2586 2259 
Q 2746 2163 2864 2016 
Q 2982 1869 3056 1677 
Q 3130 1485 3130 1248 
Q 3130 960 3030 713 
Q 2931 467 2723 288 
Q 2515 109 2201 6 
Q 1888 -96 1459 -96 
Q 1293 -96 1117 -70 
Q 941 -45 787 -6 
Q 634 32 518 70 
Q 403 109 352 134 
L 467 653 
Q 576 602 829 518 
Q 1082 435 1446 435 
z
" transform="scale(0.015625)"/>
       </defs>
       <use xlink:href="#Ubuntu-33"/>
       <use xlink:href="#Ubuntu-30" x="56.399994"/>
      </g>
     </g>
    </g>
   </g>
   <g id="patch_3">
    <path d="M 52.728757 148.90375 
L 60.352197 148.90375 
L 60.352197 144.28375 
L 52.728757 144.28375 
z
" clip-path="url(#p358fb827b0)" style="fill: #5d5d5d; stroke: #fefefe; stroke-linejoin: miter"/>
   </g>
   <g id="patch_4">
    <path d="M 60.352197 148.90375 
L 67.975638 148.90375 
L 67.975638 148.90375 
L 60.352197 148.90375 
z
" clip-path="url(#p358fb827b0)" style="fill: #5d5d5d; stroke: #fefefe; stroke-linejoin: miter"/>
   </g>
   <g id="patch_5">
    <path d="M 67.975638 148.90375 
L 75.599079 148.90375 
L 75.599079 144.28375 
L 67.975638 144.28375 
z
" clip-path="url(#p358fb827b0)" style="fill: #5d5d5d; stroke: #fefefe; stroke-linejoin: miter"/>
   </g>
   <g id="patch_6">
    <path d="M 75.599079 148.90375 
L 83.222519 148.90375 
L 83.222519 148.90375 
L 75.599079 148.90375 
z
" clip-path="url(#p358fb827b0)" style="fill: #5d5d5d; stroke: #fefefe; stroke-linejoin: miter"/>
   </g>
   <g id="patch_7">
    <path d="M 83.222519 148.90375 
L 90.84596 148.90375 
L 90.84596 148.90375 
L 83.222519 148.90375 
z
" clip-path="url(#p358fb827b0)" style="fill: #5d5d5d; stroke: #fefefe; stroke-linejoin: miter"/>
   </g>
   <g id="patch_8">
    <path d="M 90.84596 148.90375 
L 98.469401 148.90375 
L 98.469401 148.90375 
L 90.84596 148.90375 
z
" clip-path="url(#p358fb827b0)" style="fill: #5d5d5d; stroke: #fefefe; stroke-linejoin: miter"/>
   </g>
   <g id="patch_9">
    <path d="M 98.469401 148.90375 
L 106.092841 148.90375 
L 106.092841 148.90375 
L 98.469401 148.90375 
z
" clip-path="url(#p358fb827b0)" style="fill: #5d5d5d; stroke: #fefefe; stroke-linejoin: miter"/>
   </g>
   <g id="patch_10">
    <path d="M 106.092841 148.90375 
L 113.716282 148.90375 
L 113.716282 148.90375 
L 106.092841 148.90375 
z
" clip-path="url(#p358fb827b0)" style="fill: #5d5d5d; stroke: #fefefe; stroke-linejoin: miter"/>
   </g>
   <g id="patch_11">
    <path d="M 113.716282 148.90375 
L 121.339723 148.90375 
L 121.339723 148.90375 
L 113.716282 148.90375 
z
" clip-path="url(#p358fb827b0)" style="fill: #5d5d5d; stroke: #fefefe; stroke-linejoin: miter"/>
   </g>
   <g id="patch_12">
    <path d="M 121.339723 148.90375 
L 128.963163 148.90375 
L 128.963163 148.90375 
L 121.339723 148.90375 
z
" clip-path="url(#p358fb827b0)" style="fill: #5d5d5d; stroke: #fefefe; stroke-linejoin: miter"/>
   </g>
   <g id="patch_13">
    <path d="M 128.963163 148.90375 
L 136.586604 148.90375 
L 136.586604 144.28375 
L 128.963163 144.28375 
z
" clip-path="url(#p358fb827b0)" style="fill: #5d5d5d; stroke: #fefefe; stroke-linejoin: miter"/>
   </g>
   <g id="patch_14">
    <path d="M 136.586604 148.90375 
L 144.210044 148.90375 
L 144.210044 148.90375 
L 136.586604 148.90375 
z
" clip-path="url(#p358fb827b0)" style="fill: #5d5d5d; stroke: #fefefe; stroke-linejoin: miter"/>
   </g>
   <g id="patch_15">
    <path d="M 144.210044 148.90375 
L 151.833485 148.90375 
L 151.833485 148.90375 
L 144.210044 148.90375 
z
" clip-path="url(#p358fb827b0)" style="fill: #5d5d5d; stroke: #fefefe; stroke-linejoin: miter"/>
   </g>
   <g id="patch_16">
    <path d="M 151.833485 148.90375 
L 159.456926 148.90375 
L 159.456926 125.80375 
L 151.833485 125.80375 
z
" clip-path="url(#p358fb827b0)" style="fill: #5d5d5d; stroke: #fefefe; stroke-linejoin: miter"/>
   </g>
   <g id="patch_17">
    <path d="M 159.456926 148.90375 
L 167.080366 148.90375 
L 167.080366 139.66375 
L 159.456926 139.66375 
z
" clip-path="url(#p358fb827b0)" style="fill: #5d5d5d; stroke: #fefefe; stroke-linejoin: miter"/>
   </g>
   <g id="patch_18">
    <path d="M 167.080366 148.90375 
L 174.703807 148.90375 
L 174.703807 121.18375 
L 167.080366 121.18375 
z
" clip-path="url(#p358fb827b0)" style="fill: #5d5d5d; stroke: #fefefe; stroke-linejoin: miter"/>
   </g>
   <g id="patch_19">
    <path d="M 174.703807 148.90375 
L 182.327248 148.90375 
L 182.327248 116.56375 
L 174.703807 116.56375 
z
" clip-path="url(#p358fb827b0)" style="fill: #5d5d5d; stroke: #fefefe; stroke-linejoin: miter"/>
   </g>
   <g id="patch_20">
    <path d="M 182.327248 148.90375 
L 189.950688 148.90375 
L 189.950688 111.94375 
L 182.327248 111.94375 
z
" clip-path="url(#p358fb827b0)" style="fill: #5d5d5d; stroke: #fefefe; stroke-linejoin: miter"/>
   </g>
   <g id="patch_21">
    <path d="M 189.950688 148.90375 
L 197.574129 148.90375 
L 197.574129 116.56375 
L 189.950688 116.56375 
z
" clip-path="url(#p358fb827b0)" style="fill: #5d5d5d; stroke: #fefefe; stroke-linejoin: miter"/>
   </g>
   <g id="patch_22">
    <path d="M 197.574129 148.90375 
L 205.19757 148.90375 
L 205.19757 19.54375 
L 197.574129 19.54375 
z
" clip-path="url(#p358fb827b0)" style="fill: #5d5d5d; stroke: #fefefe; stroke-linejoin: miter"/>
   </g>
   <g id="patch_23">
    <path d="M 205.19757 148.90375 
L 212.82101 148.90375 
L 212.82101 74.98375 
L 205.19757 74.98375 
z
" clip-path="url(#p358fb827b0)" style="fill: #5d5d5d; stroke: #fefefe; stroke-linejoin: miter"/>
   </g>
   <g id="patch_24">
    <path d="M 212.82101 148.90375 
L 220.444451 148.90375 
L 220.444451 56.50375 
L 212.82101 56.50375 
z
" clip-path="url(#p358fb827b0)" style="fill: #5d5d5d; stroke: #fefefe; stroke-linejoin: miter"/>
   </g>
   <g id="patch_25">
    <path d="M 220.444451 148.90375 
L 228.067892 148.90375 
L 228.067892 65.74375 
L 220.444451 65.74375 
z
" clip-path="url(#p358fb827b0)" style="fill: #5d5d5d; stroke: #fefefe; stroke-linejoin: miter"/>
   </g>
   <g id="patch_26">
    <path d="M 228.067892 148.90375 
L 235.691332 148.90375 
L 235.691332 116.56375 
L 228.067892 116.56375 
z
" clip-path="url(#p358fb827b0)" style="fill: #5d5d5d; stroke: #fefefe; stroke-linejoin: miter"/>
   </g>
   <g id="patch_27">
    <path d="M 235.691332 148.90375 
L 243.314773 148.90375 
L 243.314773 125.80375 
L 235.691332 125.80375 
z
" clip-path="url(#p358fb827b0)" style="fill: #5d5d5d; stroke: #fefefe; stroke-linejoin: miter"/>
   </g>
   <g id="patch_28">
    <path d="M 243.314773 148.90375 
L 250.938213 148.90375 
L 250.938213 135.04375 
L 243.314773 135.04375 
z
" clip-path="url(#p358fb827b0)" style="fill: #5d5d5d; stroke: #fefefe; stroke-linejoin: miter"/>
   </g>
   <g id="patch_29">
    <path d="M 250.938213 148.90375 
L 258.561654 148.90375 
L 258.561654 144.28375 
L 250.938213 144.28375 
z
" clip-path="url(#p358fb827b0)" style="fill: #5d5d5d; stroke: #fefefe; stroke-linejoin: miter"/>
   </g>
   <g id="patch_30">
    <path d="M 258.561654 148.90375 
L 266.185095 148.90375 
L 266.185095 139.66375 
L 258.561654 139.66375 
z
" clip-path="url(#p358fb827b0)" style="fill: #5d5d5d; stroke: #fefefe; stroke-linejoin: miter"/>
   </g>
   <g id="patch_31">
    <path d="M 266.185095 148.90375 
L 273.808535 148.90375 
L 273.808535 139.66375 
L 266.185095 139.66375 
z
" clip-path="url(#p358fb827b0)" style="fill: #5d5d5d; stroke: #fefefe; stroke-linejoin: miter"/>
   </g>
   <g id="patch_32">
    <path d="M 273.808535 148.90375 
L 281.431976 148.90375 
L 281.431976 139.66375 
L 273.808535 139.66375 
z
" clip-path="url(#p358fb827b0)" style="fill: #5d5d5d; stroke: #fefefe; stroke-linejoin: miter"/>
   </g>
   <g id="patch_33">
    <path d="M 281.431976 148.90375 
L 289.055417 148.90375 
L 289.055417 148.90375 
L 281.431976 148.90375 
z
" clip-path="url(#p358fb827b0)" style="fill: #5d5d5d; stroke: #fefefe; stroke-linejoin: miter"/>
   </g>
   <g id="patch_34">
    <path d="M 289.055417 148.90375 
L 296.678857 148.90375 
L 296.678857 148.90375 
L 289.055417 148.90375 
z
" clip-path="url(#p358fb827b0)" style="fill: #5d5d5d; stroke: #fefefe; stroke-linejoin: miter"/>
   </g>
   <g id="patch_35">
    <path d="M 296.678857 148.90375 
L 304.302298 148.90375 
L 304.302298 144.28375 
L 296.678857 144.28375 
z
" clip-path="url(#p358fb827b0)" style="fill: #5d5d5d; stroke: #fefefe; stroke-linejoin: miter"/>
   </g>
   <g id="patch_36">
    <path d="M 304.302298 148.90375 
L 311.925739 148.90375 
L 311.925739 144.28375 
L 304.302298 144.28375 
z
" clip-path="url(#p358fb827b0)" style="fill: #5d5d5d; stroke: #fefefe; stroke-linejoin: miter"/>
   </g>
   <g id="patch_37">
    <path d="M 311.925739 148.90375 
L 319.549179 148.90375 
L 319.549179 148.90375 
L 311.925739 148.90375 
z
" clip-path="url(#p358fb827b0)" style="fill: #5d5d5d; stroke: #fefefe; stroke-linejoin: miter"/>
   </g>
   <g id="patch_38">
    <path d="M 319.549179 148.90375 
L 327.17262 148.90375 
L 327.17262 148.90375 
L 319.549179 148.90375 
z
" clip-path="url(#p358fb827b0)" style="fill: #5d5d5d; stroke: #fefefe; stroke-linejoin: miter"/>
   </g>
   <g id="patch_39">
    <path d="M 327.17262 148.90375 
L 334.79606 148.90375 
L 334.79606 148.90375 
L 327.17262 148.90375 
z
" clip-path="url(#p358fb827b0)" style="fill: #5d5d5d; stroke: #fefefe; stroke-linejoin: miter"/>
   </g>
   <g id="patch_40">
    <path d="M 334.79606 148.90375 
L 342.419501 148.90375 
L 342.419501 148.90375 
L 334.79606 148.90375 
z
" clip-path="url(#p358fb827b0)" style="fill: #5d5d5d; stroke: #fefefe; stroke-linejoin: miter"/>
   </g>
   <g id="patch_41">
    <path d="M 342.419501 148.90375 
L 350.042942 148.90375 
L 350.042942 148.90375 
L 342.419501 148.90375 
z
" clip-path="url(#p358fb827b0)" style="fill: #5d5d5d; stroke: #fefefe; stroke-linejoin: miter"/>
   </g>
   <g id="patch_42">
    <path d="M 350.042942 148.90375 
L 357.666382 148.90375 
L 357.666382 148.90375 
L 350.042942 148.90375 
z
" clip-path="url(#p358fb827b0)" style="fill: #5d5d5d; stroke: #fefefe; stroke-linejoin: miter"/>
   </g>
   <g id="patch_43">
    <path d="M 357.666382 148.90375 
L 365.289823 148.90375 
L 365.289823 148.90375 
L 357.666382 148.90375 
z
" clip-path="url(#p358fb827b0)" style="fill: #5d5d5d; stroke: #fefefe; stroke-linejoin: miter"/>
   </g>
   <g id="patch_44">
    <path d="M 365.289823 148.90375 
L 372.913264 148.90375 
L 372.913264 148.90375 
L 365.289823 148.90375 
z
" clip-path="url(#p358fb827b0)" style="fill: #5d5d5d; stroke: #fefefe; stroke-linejoin: miter"/>
   </g>
   <g id="patch_45">
    <path d="M 372.913264 148.90375 
L 380.536704 148.90375 
L 380.536704 148.90375 
L 372.913264 148.90375 
z
" clip-path="url(#p358fb827b0)" style="fill: #5d5d5d; stroke: #fefefe; stroke-linejoin: miter"/>
   </g>
   <g id="patch_46">
    <path d="M 380.536704 148.90375 
L 388.160145 148.90375 
L 388.160145 148.90375 
L 380.536704 148.90375 
z
" clip-path="url(#p358fb827b0)" style="fill: #5d5d5d; stroke: #fefefe; stroke-linejoin: miter"/>
   </g>
   <g id="patch_47">
    <path d="M 388.160145 148.90375 
L 395.783586 148.90375 
L 395.783586 148.90375 
L 388.160145 148.90375 
z
" clip-path="url(#p358fb827b0)" style="fill: #5d5d5d; stroke: #fefefe; stroke-linejoin: miter"/>
   </g>
   <g id="patch_48">
    <path d="M 395.783586 148.90375 
L 403.407026 148.90375 
L 403.407026 148.90375 
L 395.783586 148.90375 
z
" clip-path="url(#p358fb827b0)" style="fill: #5d5d5d; stroke: #fefefe; stroke-linejoin: miter"/>
   </g>
   <g id="patch_49">
    <path d="M 403.407026 148.90375 
L 411.030467 148.90375 
L 411.030467 144.28375 
L 403.407026 144.28375 
z
" clip-path="url(#p358fb827b0)" style="fill: #5d5d5d; stroke: #fefefe; stroke-linejoin: miter"/>
   </g>
   <g id="patch_50">
    <path d="M 411.030467 148.90375 
L 418.653908 148.90375 
L 418.653908 148.90375 
L 411.030467 148.90375 
z
" clip-path="url(#p358fb827b0)" style="fill: #5d5d5d; stroke: #fefefe; stroke-linejoin: miter"/>
   </g>
   <g id="patch_51">
    <path d="M 418.653908 148.90375 
L 426.277348 148.90375 
L 426.277348 148.90375 
L 418.653908 148.90375 
z
" clip-path="url(#p358fb827b0)" style="fill: #5d5d5d; stroke: #fefefe; stroke-linejoin: miter"/>
   </g>
   <g id="patch_52">
    <path d="M 426.277348 148.90375 
L 433.900789 148.90375 
L 433.900789 144.28375 
L 426.277348 144.28375 
z
" clip-path="url(#p358fb827b0)" style="fill: #5d5d5d; stroke: #fefefe; stroke-linejoin: miter"/>
   </g>
   <g id="patch_53">
    <path d="M 22.725 148.90375 
L 22.725 10.30375 
" style="fill: none; stroke: #bbbbbb; stroke-width: 0.75; stroke-linejoin: miter; stroke-linecap: square"/>
   </g>
   <g id="patch_54">
    <path d="M 27.725 153.90375 
L 474.125 153.90375 
" style="fill: none; stroke: #bbbbbb; stroke-width: 0.75; stroke-linejoin: miter; stroke-linecap: square"/>
   </g>
  </g>
 </g>
 <defs>
  <clipPath id="p358fb827b0">
   <rect x="27.725" y="10.30375" width="446.4" height="138.6"/>
  </clipPath>
 </defs>
</svg>
