<?xml version="1.0" encoding="utf-8" standalone="no"?>
<!DOCTYPE svg PUBLIC "-//W3C//DTD SVG 1.1//EN"
  "http://www.w3.org/Graphics/SVG/1.1/DTD/svg11.dtd">
<svg xmlns:xlink="http://www.w3.org/1999/xlink" width="509.029219pt" height="191.939688pt" viewBox="0 0 509.029219 191.939688" xmlns="http://www.w3.org/2000/svg" version="1.1">
 <metadata>
  <rdf:RDF xmlns:dc="http://purl.org/dc/elements/1.1/" xmlns:cc="http://creativecommons.org/ns#" xmlns:rdf="http://www.w3.org/1999/02/22-rdf-syntax-ns#">
   <cc:Work>
    <dc:type rdf:resource="http://purl.org/dc/dcmitype/StillImage"/>
    <dc:date>2024-02-21T20:03:55.193975</dc:date>
    <dc:format>image/svg+xml</dc:format>
    <dc:creator>
     <cc:Agent>
      <dc:title>Matplotlib v3.8.0, https://matplotlib.org/</dc:title>
     </cc:Agent>
    </dc:creator>
   </cc:Work>
  </rdf:RDF>
 </metadata>
 <defs>
  <style type="text/css">*{stroke-linejoin: round; stroke-linecap: butt}</style>
 </defs>
 <g id="figure_1">
  <g id="patch_1">
   <path d="M 0 191.939688 
L 509.029219 191.939688 
L 509.029219 0 
L 0 0 
L 0 191.939688 
z
" style="fill: none"/>
  </g>
  <g id="axes_1">
   <g id="patch_2">
    <path d="M 46.404219 148.90375 
L 492.804219 148.90375 
L 492.804219 10.30375 
L 46.404219 10.30375 
L 46.404219 148.90375 
z
" style="fill: none"/>
   </g>
   <g id="matplotlib.axis_1">
    <g id="xtick_1">
     <g id="line2d_1">
      <defs>
       <path id="m503c1be3f8" d="M 0 0 
L 0 3 
" style="stroke: #bbbbbb; stroke-width: 0.75"/>
      </defs>
      <g>
       <use xlink:href="#m503c1be3f8" x="46.404219" y="153.90375" style="fill: #bbbbbb; stroke: #bbbbbb; stroke-width: 0.75"/>
      </g>
     </g>
     <g id="text_1">
      <!-- 0 -->
      <g style="fill: #9f9f9f" transform="translate(44.147969 166.61125) scale(0.08 -0.08)">
       <defs>
        <path id="Ubuntu-30" d="M 320 2221 
Q 320 3334 713 3936 
Q 1107 4538 1805 4538 
Q 2502 4538 2896 3936 
Q 3290 3334 3290 2221 
Q 3290 1107 2896 505 
Q 2502 -96 1805 -96 
Q 1107 -96 713 505 
Q 320 1107 320 2221 
z
M 2662 2221 
Q 2662 2586 2620 2912 
Q 2579 3238 2480 3481 
Q 2381 3725 2214 3869 
Q 2048 4013 1805 4013 
Q 1562 4013 1395 3869 
Q 1229 3725 1129 3481 
Q 1030 3238 988 2912 
Q 947 2586 947 2221 
Q 947 1856 988 1529 
Q 1030 1203 1129 960 
Q 1229 717 1395 573 
Q 1562 429 1805 429 
Q 2048 429 2214 573 
Q 2381 717 2480 960 
Q 2579 1203 2620 1529 
Q 2662 1856 2662 2221 
z
" transform="scale(0.015625)"/>
       </defs>
       <use xlink:href="#Ubuntu-30"/>
      </g>
     </g>
    </g>
    <g id="xtick_2">
     <g id="line2d_2">
      <g>
       <use xlink:href="#m503c1be3f8" x="96.004219" y="153.90375" style="fill: #bbbbbb; stroke: #bbbbbb; stroke-width: 0.75"/>
      </g>
     </g>
     <g id="text_2">
      <!-- 500 -->
      <g style="fill: #9f9f9f" transform="translate(89.235469 166.61125) scale(0.08 -0.08)">
       <defs>
        <path id="Ubuntu-35" d="M 1274 2726 
Q 2240 2688 2691 2304 
Q 3142 1920 3142 1261 
Q 3142 966 3043 716 
Q 2944 467 2742 288 
Q 2541 109 2233 6 
Q 1926 -96 1504 -96 
Q 1338 -96 1165 -70 
Q 992 -45 845 -6 
Q 698 32 582 70 
Q 467 109 416 134 
L 531 653 
Q 640 602 886 518 
Q 1133 435 1491 435 
Q 1779 435 1974 499 
Q 2170 563 2291 672 
Q 2413 781 2467 925 
Q 2522 1069 2522 1229 
Q 2522 1472 2438 1661 
Q 2355 1850 2144 1978 
Q 1933 2106 1581 2173 
Q 1229 2240 691 2240 
Q 730 2554 752 2829 
Q 774 3104 793 3366 
Q 813 3629 825 3888 
Q 838 4147 851 4435 
L 2989 4435 
L 2989 3930 
L 1370 3930 
Q 1363 3834 1350 3670 
Q 1338 3507 1325 3331 
Q 1312 3155 1299 2988 
Q 1286 2822 1274 2726 
z
" transform="scale(0.015625)"/>
       </defs>
       <use xlink:href="#Ubuntu-35"/>
       <use xlink:href="#Ubuntu-30" x="56.399994"/>
       <use xlink:href="#Ubuntu-30" x="112.799988"/>
      </g>
     </g>
    </g>
    <g id="xtick_3">
     <g id="line2d_3">
      <g>
       <use xlink:href="#m503c1be3f8" x="145.604219" y="153.90375" style="fill: #bbbbbb; stroke: #bbbbbb; stroke-width: 0.75"/>
      </g>
     </g>
     <g id="text_3">
      <!-- 1000 -->
      <g style="fill: #9f9f9f" transform="translate(136.579219 166.61125) scale(0.08 -0.08)">
       <defs>
        <path id="Ubuntu-31" d="M 595 3520 
Q 960 3661 1305 3881 
Q 1651 4102 1939 4435 
L 2362 4435 
L 2362 0 
L 1766 0 
L 1766 3610 
Q 1690 3539 1578 3462 
Q 1466 3386 1334 3315 
Q 1203 3245 1059 3181 
Q 915 3117 781 3072 
L 595 3520 
z
" transform="scale(0.015625)"/>
       </defs>
       <use xlink:href="#Ubuntu-31"/>
       <use xlink:href="#Ubuntu-30" x="56.399994"/>
       <use xlink:href="#Ubuntu-30" x="112.799988"/>
       <use xlink:href="#Ubuntu-30" x="169.199982"/>
      </g>
     </g>
    </g>
    <g id="xtick_4">
     <g id="line2d_4">
      <g>
       <use xlink:href="#m503c1be3f8" x="195.204219" y="153.90375" style="fill: #bbbbbb; stroke: #bbbbbb; stroke-width: 0.75"/>
      </g>
     </g>
     <g id="text_4">
      <!-- 1500 -->
      <g style="fill: #9f9f9f" transform="translate(186.179219 166.61125) scale(0.08 -0.08)">
       <use xlink:href="#Ubuntu-31"/>
       <use xlink:href="#Ubuntu-35" x="56.399994"/>
       <use xlink:href="#Ubuntu-30" x="112.799988"/>
       <use xlink:href="#Ubuntu-30" x="169.199982"/>
      </g>
     </g>
    </g>
    <g id="xtick_5">
     <g id="line2d_5">
      <g>
       <use xlink:href="#m503c1be3f8" x="244.804219" y="153.90375" style="fill: #bbbbbb; stroke: #bbbbbb; stroke-width: 0.75"/>
      </g>
     </g>
     <g id="text_5">
      <!-- 2000 -->
      <g style="fill: #9f9f9f" transform="translate(235.779219 166.61125) scale(0.08 -0.08)">
       <defs>
        <path id="Ubuntu-32" d="M 2989 3302 
Q 2989 3072 2896 2857 
Q 2803 2643 2649 2435 
Q 2496 2227 2304 2025 
Q 2112 1824 1920 1632 
Q 1811 1523 1667 1376 
Q 1523 1229 1395 1069 
Q 1267 909 1180 761 
Q 1094 614 1094 506 
L 3136 506 
L 3136 0 
L 448 0 
Q 442 38 442 76 
Q 442 115 442 147 
Q 442 448 541 707 
Q 640 966 800 1196 
Q 960 1427 1158 1632 
Q 1357 1837 1549 2029 
Q 1709 2182 1853 2332 
Q 1997 2483 2109 2633 
Q 2221 2784 2288 2944 
Q 2355 3104 2355 3283 
Q 2355 3475 2294 3609 
Q 2234 3744 2131 3833 
Q 2029 3923 1891 3964 
Q 1754 4006 1600 4006 
Q 1414 4006 1260 3955 
Q 1107 3904 985 3837 
Q 864 3770 781 3696 
Q 698 3622 653 3584 
L 358 4006 
Q 416 4070 531 4163 
Q 646 4256 806 4339 
Q 966 4422 1164 4480 
Q 1363 4538 1594 4538 
Q 2291 4538 2640 4214 
Q 2989 3891 2989 3302 
z
" transform="scale(0.015625)"/>
       </defs>
       <use xlink:href="#Ubuntu-32"/>
       <use xlink:href="#Ubuntu-30" x="56.399994"/>
       <use xlink:href="#Ubuntu-30" x="112.799988"/>
       <use xlink:href="#Ubuntu-30" x="169.199982"/>
      </g>
     </g>
    </g>
    <g id="xtick_6">
     <g id="line2d_6">
      <g>
       <use xlink:href="#m503c1be3f8" x="294.404219" y="153.90375" style="fill: #bbbbbb; stroke: #bbbbbb; stroke-width: 0.75"/>
      </g>
     </g>
     <g id="text_6">
      <!-- 2500 -->
      <g style="fill: #9f9f9f" transform="translate(285.379219 166.61125) scale(0.08 -0.08)">
       <use xlink:href="#Ubuntu-32"/>
       <use xlink:href="#Ubuntu-35" x="56.399994"/>
       <use xlink:href="#Ubuntu-30" x="112.799988"/>
       <use xlink:href="#Ubuntu-30" x="169.199982"/>
      </g>
     </g>
    </g>
    <g id="xtick_7">
     <g id="line2d_7">
      <g>
       <use xlink:href="#m503c1be3f8" x="344.004219" y="153.90375" style="fill: #bbbbbb; stroke: #bbbbbb; stroke-width: 0.75"/>
      </g>
     </g>
     <g id="text_7">
      <!-- 3000 -->
      <g style="fill: #9f9f9f" transform="translate(334.979219 166.61125) scale(0.08 -0.08)">
       <defs>
        <path id="Ubuntu-33" d="M 1446 435 
Q 2016 435 2262 659 
Q 2509 883 2509 1261 
Q 2509 1504 2406 1670 
Q 2304 1837 2137 1936 
Q 1971 2035 1750 2076 
Q 1530 2118 1299 2118 
L 1146 2118 
L 1146 2605 
L 1357 2605 
Q 1517 2605 1686 2637 
Q 1856 2669 1997 2752 
Q 2138 2835 2227 2979 
Q 2317 3123 2317 3341 
Q 2317 3520 2253 3648 
Q 2189 3776 2083 3859 
Q 1978 3942 1840 3977 
Q 1702 4013 1549 4013 
Q 1242 4013 1027 3923 
Q 813 3834 666 3738 
L 435 4192 
Q 512 4243 630 4304 
Q 749 4365 896 4416 
Q 1043 4467 1212 4502 
Q 1382 4538 1568 4538 
Q 1920 4538 2176 4451 
Q 2432 4365 2598 4208 
Q 2765 4051 2848 3836 
Q 2931 3622 2931 3373 
Q 2931 3027 2732 2780 
Q 2534 2534 2253 2406 
Q 2426 2355 2586 2259 
Q 2746 2163 2864 2016 
Q 2982 1869 3056 1677 
Q 3130 1485 3130 1248 
Q 3130 960 3030 713 
Q 2931 467 2723 288 
Q 2515 109 2201 6 
Q 1888 -96 1459 -96 
Q 1293 -96 1117 -70 
Q 941 -45 787 -6 
Q 634 32 518 70 
Q 403 109 352 134 
L 467 653 
Q 576 602 829 518 
Q 1082 435 1446 435 
z
" transform="scale(0.015625)"/>
       </defs>
       <use xlink:href="#Ubuntu-33"/>
       <use xlink:href="#Ubuntu-30" x="56.399994"/>
       <use xlink:href="#Ubuntu-30" x="112.799988"/>
       <use xlink:href="#Ubuntu-30" x="169.199982"/>
      </g>
     </g>
    </g>
    <g id="xtick_8">
     <g id="line2d_8">
      <g>
       <use xlink:href="#m503c1be3f8" x="393.604219" y="153.90375" style="fill: #bbbbbb; stroke: #bbbbbb; stroke-width: 0.75"/>
      </g>
     </g>
     <g id="text_8">
      <!-- 3500 -->
      <g style="fill: #9f9f9f" transform="translate(384.579219 166.61125) scale(0.08 -0.08)">
       <use xlink:href="#Ubuntu-33"/>
       <use xlink:href="#Ubuntu-35" x="56.399994"/>
       <use xlink:href="#Ubuntu-30" x="112.799988"/>
       <use xlink:href="#Ubuntu-30" x="169.199982"/>
      </g>
     </g>
    </g>
    <g id="xtick_9">
     <g id="line2d_9">
      <g>
       <use xlink:href="#m503c1be3f8" x="443.204219" y="153.90375" style="fill: #bbbbbb; stroke: #bbbbbb; stroke-width: 0.75"/>
      </g>
     </g>
     <g id="text_9">
      <!-- 4000 -->
      <g style="fill: #9f9f9f" transform="translate(434.179219 166.61125) scale(0.08 -0.08)">
       <defs>
        <path id="Ubuntu-34" d="M 256 1536 
Q 378 1818 589 2192 
Q 800 2566 1065 2963 
Q 1331 3360 1635 3744 
Q 1939 4128 2246 4435 
L 2816 4435 
L 2816 1619 
L 3341 1619 
L 3341 1133 
L 2816 1133 
L 2816 0 
L 2240 0 
L 2240 1133 
L 256 1133 
L 256 1536 
z
M 2240 3731 
Q 2048 3526 1853 3273 
Q 1658 3021 1472 2745 
Q 1286 2470 1123 2182 
Q 960 1894 832 1619 
L 2240 1619 
L 2240 3731 
z
" transform="scale(0.015625)"/>
       </defs>
       <use xlink:href="#Ubuntu-34"/>
       <use xlink:href="#Ubuntu-30" x="56.399994"/>
       <use xlink:href="#Ubuntu-30" x="112.799988"/>
       <use xlink:href="#Ubuntu-30" x="169.199982"/>
      </g>
     </g>
    </g>
    <g id="xtick_10">
     <g id="line2d_10">
      <g>
       <use xlink:href="#m503c1be3f8" x="492.804219" y="153.90375" style="fill: #bbbbbb; stroke: #bbbbbb; stroke-width: 0.75"/>
      </g>
     </g>
     <g id="text_10">
      <!-- 4500 -->
      <g style="fill: #9f9f9f" transform="translate(483.779219 166.61125) scale(0.08 -0.08)">
       <use xlink:href="#Ubuntu-34"/>
       <use xlink:href="#Ubuntu-35" x="56.399994"/>
       <use xlink:href="#Ubuntu-30" x="112.799988"/>
       <use xlink:href="#Ubuntu-30" x="169.199982"/>
      </g>
     </g>
    </g>
    <g id="text_11">
     <!-- Grlivarea -->
     <g style="fill: #505050" transform="translate(46.404219 183.074688) scale(0.09 -0.09)">
      <defs>
       <path id="Ubuntu-Bold-47" d="M 2675 3667 
Q 1978 3667 1667 3280 
Q 1357 2893 1357 2221 
Q 1357 1894 1433 1628 
Q 1510 1363 1664 1171 
Q 1818 979 2048 873 
Q 2278 768 2586 768 
Q 2752 768 2870 774 
Q 2989 781 3078 800 
L 3078 2342 
L 4077 2342 
L 4077 147 
Q 3898 77 3501 -3 
Q 3104 -83 2522 -83 
Q 2022 -83 1616 70 
Q 1210 224 922 518 
Q 634 813 477 1241 
Q 320 1670 320 2221 
Q 320 2778 493 3206 
Q 666 3635 966 3932 
Q 1267 4230 1673 4384 
Q 2080 4538 2541 4538 
Q 2854 4538 3107 4496 
Q 3360 4454 3542 4400 
Q 3725 4346 3843 4288 
Q 3962 4230 4013 4198 
L 3725 3398 
Q 3520 3507 3254 3587 
Q 2989 3667 2675 3667 
z
" transform="scale(0.015625)"/>
       <path id="Ubuntu-Bold-72" d="M 2477 2522 
Q 2349 2554 2176 2589 
Q 2003 2624 1805 2624 
Q 1715 2624 1590 2608 
Q 1466 2592 1402 2573 
L 1402 0 
L 448 0 
L 448 3187 
Q 704 3277 1053 3357 
Q 1402 3437 1830 3437 
Q 1907 3437 2016 3427 
Q 2125 3418 2233 3402 
Q 2342 3386 2451 3363 
Q 2560 3341 2637 3309 
L 2477 2522 
z
" transform="scale(0.015625)"/>
       <path id="Ubuntu-Bold-6c" d="M 1792 -64 
Q 1376 -58 1117 25 
Q 858 109 707 259 
Q 557 410 502 624 
Q 448 838 448 1107 
L 448 4813 
L 1402 4966 
L 1402 1299 
Q 1402 1171 1421 1068 
Q 1440 966 1494 896 
Q 1549 826 1651 781 
Q 1754 736 1926 723 
L 1792 -64 
z
" transform="scale(0.015625)"/>
       <path id="Ubuntu-Bold-69" d="M 1402 0 
L 448 0 
L 448 3366 
L 1402 3366 
L 1402 0 
z
M 1491 4339 
Q 1491 4077 1321 3926 
Q 1152 3776 922 3776 
Q 691 3776 521 3926 
Q 352 4077 352 4339 
Q 352 4602 521 4752 
Q 691 4902 922 4902 
Q 1152 4902 1321 4752 
Q 1491 4602 1491 4339 
z
" transform="scale(0.015625)"/>
       <path id="Ubuntu-Bold-76" d="M 1363 0 
Q 1037 640 701 1497 
Q 365 2355 64 3366 
L 1075 3366 
Q 1139 3117 1225 2825 
Q 1312 2534 1405 2236 
Q 1498 1939 1590 1657 
Q 1683 1376 1773 1146 
Q 1856 1376 1952 1657 
Q 2048 1939 2141 2236 
Q 2234 2534 2320 2825 
Q 2406 3117 2470 3366 
L 3456 3366 
Q 3155 2355 2819 1497 
Q 2483 640 2157 0 
L 1363 0 
z
" transform="scale(0.015625)"/>
       <path id="Ubuntu-Bold-61" d="M 1734 666 
Q 1875 666 2003 672 
Q 2131 678 2208 691 
L 2208 1414 
Q 2150 1427 2035 1440 
Q 1920 1453 1824 1453 
Q 1690 1453 1571 1437 
Q 1453 1421 1363 1376 
Q 1274 1331 1222 1254 
Q 1171 1178 1171 1062 
Q 1171 838 1321 752 
Q 1472 666 1734 666 
z
M 1658 3456 
Q 2080 3456 2361 3360 
Q 2643 3264 2812 3085 
Q 2982 2906 3052 2650 
Q 3123 2394 3123 2080 
L 3123 96 
Q 2918 51 2553 -9 
Q 2189 -70 1670 -70 
Q 1344 -70 1078 -12 
Q 813 45 621 176 
Q 429 307 326 518 
Q 224 730 224 1037 
Q 224 1331 342 1536 
Q 461 1741 659 1862 
Q 858 1984 1114 2038 
Q 1370 2093 1645 2093 
Q 1830 2093 1974 2077 
Q 2118 2061 2208 2035 
L 2208 2125 
Q 2208 2368 2061 2515 
Q 1914 2662 1549 2662 
Q 1306 2662 1069 2627 
Q 832 2592 659 2528 
L 538 3296 
Q 621 3322 745 3350 
Q 870 3379 1017 3401 
Q 1165 3424 1328 3440 
Q 1491 3456 1658 3456 
z
" transform="scale(0.015625)"/>
       <path id="Ubuntu-Bold-65" d="M 288 1658 
Q 288 2106 425 2442 
Q 563 2778 787 3002 
Q 1011 3226 1302 3341 
Q 1594 3456 1901 3456 
Q 2618 3456 3034 3017 
Q 3450 2579 3450 1728 
Q 3450 1645 3443 1545 
Q 3437 1446 3430 1370 
L 1267 1370 
Q 1299 1075 1542 902 
Q 1786 730 2195 730 
Q 2458 730 2710 778 
Q 2963 826 3123 896 
L 3251 122 
Q 3174 83 3046 44 
Q 2918 6 2761 -22 
Q 2605 -51 2425 -70 
Q 2246 -90 2067 -90 
Q 1613 -90 1277 44 
Q 941 179 720 412 
Q 499 646 393 966 
Q 288 1286 288 1658 
z
M 2528 2022 
Q 2522 2144 2486 2259 
Q 2451 2374 2377 2464 
Q 2304 2554 2192 2611 
Q 2080 2669 1914 2669 
Q 1754 2669 1638 2614 
Q 1523 2560 1446 2470 
Q 1370 2381 1328 2262 
Q 1286 2144 1267 2022 
L 2528 2022 
z
" transform="scale(0.015625)"/>
      </defs>
      <use xlink:href="#Ubuntu-Bold-47"/>
      <use xlink:href="#Ubuntu-Bold-72" x="70.199982"/>
      <use xlink:href="#Ubuntu-Bold-6c" x="112.399979"/>
      <use xlink:href="#Ubuntu-Bold-69" x="143.999969"/>
      <use xlink:href="#Ubuntu-Bold-76" x="171.274963"/>
      <use xlink:href="#Ubuntu-Bold-61" x="225.274948"/>
      <use xlink:href="#Ubuntu-Bold-72" x="280.574936"/>
      <use xlink:href="#Ubuntu-Bold-65" x="321.774933"/>
      <use xlink:href="#Ubuntu-Bold-61" x="380.174927"/>
     </g>
    </g>
   </g>
   <g id="matplotlib.axis_2">
    <g id="ytick_1">
     <g id="line2d_11">
      <defs>
       <path id="m6f89d9a804" d="M 0 0 
L -3 0 
" style="stroke: #bbbbbb; stroke-width: 0.75"/>
      </defs>
      <g>
       <use xlink:href="#m6f89d9a804" x="41.404219" y="142.30375" style="fill: #bbbbbb; stroke: #bbbbbb; stroke-width: 0.75"/>
      </g>
     </g>
     <g id="text_12">
      <!-- 0.0 -->
      <g style="fill: #9f9f9f" transform="translate(23.911719 145.4075) scale(0.08 -0.08)">
       <defs>
        <path id="Ubuntu-2e" d="M 1216 346 
Q 1216 173 1101 45 
Q 986 -83 787 -83 
Q 589 -83 473 45 
Q 358 173 358 346 
Q 358 518 473 646 
Q 589 774 787 774 
Q 986 774 1101 646 
Q 1216 518 1216 346 
z
" transform="scale(0.015625)"/>
       </defs>
       <use xlink:href="#Ubuntu-30"/>
       <use xlink:href="#Ubuntu-2e" x="56.399994"/>
       <use xlink:href="#Ubuntu-30" x="80.999985"/>
      </g>
     </g>
    </g>
    <g id="ytick_2">
     <g id="line2d_12">
      <g>
       <use xlink:href="#m6f89d9a804" x="41.404219" y="115.90375" style="fill: #bbbbbb; stroke: #bbbbbb; stroke-width: 0.75"/>
      </g>
     </g>
     <g id="text_13">
      <!-- 0.1 -->
      <g style="fill: #9f9f9f" transform="translate(23.911719 119.0075) scale(0.08 -0.08)">
       <use xlink:href="#Ubuntu-30"/>
       <use xlink:href="#Ubuntu-2e" x="56.399994"/>
       <use xlink:href="#Ubuntu-31" x="80.999985"/>
      </g>
     </g>
    </g>
    <g id="ytick_3">
     <g id="line2d_13">
      <g>
       <use xlink:href="#m6f89d9a804" x="41.404219" y="89.50375" style="fill: #bbbbbb; stroke: #bbbbbb; stroke-width: 0.75"/>
      </g>
     </g>
     <g id="text_14">
      <!-- 0.2 -->
      <g style="fill: #9f9f9f" transform="translate(23.911719 92.6075) scale(0.08 -0.08)">
       <use xlink:href="#Ubuntu-30"/>
       <use xlink:href="#Ubuntu-2e" x="56.399994"/>
       <use xlink:href="#Ubuntu-32" x="80.999985"/>
      </g>
     </g>
    </g>
    <g id="ytick_4">
     <g id="line2d_14">
      <g>
       <use xlink:href="#m6f89d9a804" x="41.404219" y="63.10375" style="fill: #bbbbbb; stroke: #bbbbbb; stroke-width: 0.75"/>
      </g>
     </g>
     <g id="text_15">
      <!-- 0.3 -->
      <g style="fill: #9f9f9f" transform="translate(23.911719 66.2075) scale(0.08 -0.08)">
       <use xlink:href="#Ubuntu-30"/>
       <use xlink:href="#Ubuntu-2e" x="56.399994"/>
       <use xlink:href="#Ubuntu-33" x="80.999985"/>
      </g>
     </g>
    </g>
    <g id="ytick_5">
     <g id="line2d_15">
      <g>
       <use xlink:href="#m6f89d9a804" x="41.404219" y="36.70375" style="fill: #bbbbbb; stroke: #bbbbbb; stroke-width: 0.75"/>
      </g>
     </g>
     <g id="text_16">
      <!-- 0.4 -->
      <g style="fill: #9f9f9f" transform="translate(23.911719 39.8075) scale(0.08 -0.08)">
       <use xlink:href="#Ubuntu-30"/>
       <use xlink:href="#Ubuntu-2e" x="56.399994"/>
       <use xlink:href="#Ubuntu-34" x="80.999985"/>
      </g>
     </g>
    </g>
    <g id="ytick_6">
     <g id="line2d_16">
      <g>
       <use xlink:href="#m6f89d9a804" x="41.404219" y="10.30375" style="fill: #bbbbbb; stroke: #bbbbbb; stroke-width: 0.75"/>
      </g>
     </g>
     <g id="text_17">
      <!-- 0.5 -->
      <g style="fill: #9f9f9f" transform="translate(23.911719 13.4075) scale(0.08 -0.08)">
       <use xlink:href="#Ubuntu-30"/>
       <use xlink:href="#Ubuntu-2e" x="56.399994"/>
       <use xlink:href="#Ubuntu-35" x="80.999985"/>
      </g>
     </g>
    </g>
    <g id="text_18">
     <!-- Residuals_frac (abs) -->
     <g style="fill: #505050" transform="translate(14.246719 95.719375) rotate(-90) scale(0.09 -0.09)">
      <defs>
       <path id="Ubuntu-Bold-52" d="M 1811 4486 
Q 2810 4486 3341 4131 
Q 3872 3776 3872 3027 
Q 3872 2560 3657 2269 
Q 3443 1978 3040 1811 
Q 3174 1645 3321 1430 
Q 3469 1216 3613 982 
Q 3757 749 3891 496 
Q 4026 243 4141 0 
L 3021 0 
Q 2899 218 2774 442 
Q 2650 666 2518 877 
Q 2387 1088 2259 1277 
Q 2131 1466 2003 1619 
L 1510 1619 
L 1510 0 
L 512 0 
L 512 4371 
Q 838 4435 1187 4460 
Q 1536 4486 1811 4486 
z
M 1869 3635 
Q 1760 3635 1673 3628 
Q 1587 3622 1510 3616 
L 1510 2413 
L 1792 2413 
Q 2355 2413 2598 2553 
Q 2842 2694 2842 3034 
Q 2842 3360 2595 3497 
Q 2349 3635 1869 3635 
z
" transform="scale(0.015625)"/>
       <path id="Ubuntu-Bold-73" d="M 1414 685 
Q 1677 685 1785 736 
Q 1894 787 1894 934 
Q 1894 1050 1753 1136 
Q 1613 1222 1325 1331 
Q 1101 1414 918 1504 
Q 736 1594 608 1718 
Q 480 1843 409 2016 
Q 339 2189 339 2432 
Q 339 2906 691 3181 
Q 1043 3456 1658 3456 
Q 1965 3456 2246 3401 
Q 2528 3347 2694 3283 
L 2528 2541 
Q 2362 2598 2166 2643 
Q 1971 2688 1728 2688 
Q 1280 2688 1280 2438 
Q 1280 2381 1299 2336 
Q 1318 2291 1376 2249 
Q 1434 2208 1533 2160 
Q 1632 2112 1786 2054 
Q 2099 1939 2304 1827 
Q 2509 1715 2627 1584 
Q 2746 1453 2794 1293 
Q 2842 1133 2842 922 
Q 2842 422 2467 166 
Q 2093 -90 1408 -90 
Q 960 -90 662 -13 
Q 365 64 250 115 
L 410 890 
Q 653 794 909 739 
Q 1165 685 1414 685 
z
" transform="scale(0.015625)"/>
       <path id="Ubuntu-Bold-64" d="M 1261 1709 
Q 1261 1267 1459 998 
Q 1658 730 2048 730 
Q 2176 730 2285 739 
Q 2394 749 2464 762 
L 2464 2496 
Q 2374 2554 2230 2592 
Q 2086 2630 1939 2630 
Q 1261 2630 1261 1709 
z
M 3418 109 
Q 3290 70 3123 35 
Q 2957 0 2774 -25 
Q 2592 -51 2403 -67 
Q 2214 -83 2042 -83 
Q 1626 -83 1299 38 
Q 973 160 749 387 
Q 525 614 406 937 
Q 288 1261 288 1664 
Q 288 2074 390 2403 
Q 493 2733 685 2963 
Q 877 3194 1155 3315 
Q 1434 3437 1792 3437 
Q 1990 3437 2147 3398 
Q 2304 3360 2464 3290 
L 2464 4813 
L 3418 4966 
L 3418 109 
z
" transform="scale(0.015625)"/>
       <path id="Ubuntu-Bold-75" d="M 3322 115 
Q 3078 45 2694 -16 
Q 2310 -77 1888 -77 
Q 1459 -77 1174 38 
Q 890 154 723 362 
Q 557 570 486 858 
Q 416 1146 416 1491 
L 416 3366 
L 1370 3366 
L 1370 1606 
Q 1370 1146 1491 941 
Q 1613 736 1946 736 
Q 2048 736 2163 745 
Q 2278 755 2368 768 
L 2368 3366 
L 3322 3366 
L 3322 115 
z
" transform="scale(0.015625)"/>
       <path id="Ubuntu-Bold-5f" d="M 0 -390 
L 3200 -390 
L 3200 -1184 
L 0 -1184 
L 0 -390 
z
" transform="scale(0.015625)"/>
       <path id="Ubuntu-Bold-66" d="M 1907 4966 
Q 2176 4966 2400 4912 
Q 2624 4858 2746 4806 
L 2560 4045 
Q 2432 4102 2281 4131 
Q 2131 4160 2003 4160 
Q 1830 4160 1712 4112 
Q 1594 4064 1526 3981 
Q 1459 3898 1430 3782 
Q 1402 3667 1402 3533 
L 1402 3366 
L 2579 3366 
L 2579 2573 
L 1402 2573 
L 1402 0 
L 448 0 
L 448 3546 
Q 448 4198 816 4582 
Q 1184 4966 1907 4966 
z
" transform="scale(0.015625)"/>
       <path id="Ubuntu-Bold-63" d="M 288 1683 
Q 288 2048 406 2371 
Q 525 2694 749 2934 
Q 973 3174 1293 3315 
Q 1613 3456 2022 3456 
Q 2291 3456 2515 3408 
Q 2739 3360 2950 3270 
L 2752 2509 
Q 2618 2560 2458 2598 
Q 2298 2637 2099 2637 
Q 1677 2637 1469 2374 
Q 1261 2112 1261 1683 
Q 1261 1229 1456 979 
Q 1651 730 2138 730 
Q 2310 730 2508 762 
Q 2707 794 2874 864 
L 3008 83 
Q 2842 13 2592 -38 
Q 2342 -90 2042 -90 
Q 1581 -90 1248 48 
Q 915 186 700 422 
Q 486 659 387 982 
Q 288 1306 288 1683 
z
" transform="scale(0.015625)"/>
       <path id="Ubuntu-Bold-20" transform="scale(0.015625)"/>
       <path id="Ubuntu-Bold-28" d="M 1389 1914 
Q 1389 1158 1625 473 
Q 1862 -211 2246 -755 
L 1581 -1184 
Q 1037 -550 742 237 
Q 448 1024 448 1914 
Q 448 2803 742 3590 
Q 1037 4378 1581 5011 
L 2246 4582 
Q 1862 4038 1625 3353 
Q 1389 2669 1389 1914 
z
" transform="scale(0.015625)"/>
       <path id="Ubuntu-Bold-62" d="M 2605 1709 
Q 2605 2630 1926 2630 
Q 1779 2630 1635 2592 
Q 1491 2554 1402 2496 
L 1402 762 
Q 1472 749 1581 739 
Q 1690 730 1818 730 
Q 2208 730 2406 998 
Q 2605 1267 2605 1709 
z
M 3578 1683 
Q 3578 1280 3459 953 
Q 3341 627 3117 396 
Q 2893 166 2566 41 
Q 2240 -83 1824 -83 
Q 1651 -83 1462 -67 
Q 1274 -51 1091 -25 
Q 909 0 742 35 
Q 576 70 448 109 
L 448 4813 
L 1402 4966 
L 1402 3290 
Q 1562 3360 1734 3398 
Q 1907 3437 2106 3437 
Q 2464 3437 2739 3312 
Q 3014 3187 3200 2956 
Q 3386 2726 3482 2403 
Q 3578 2080 3578 1683 
z
" transform="scale(0.015625)"/>
       <path id="Ubuntu-Bold-29" d="M 890 1914 
Q 890 2669 653 3353 
Q 416 4038 32 4582 
L 698 5011 
Q 1242 4378 1536 3590 
Q 1830 2803 1830 1914 
Q 1830 1024 1536 237 
Q 1242 -550 698 -1184 
L 32 -755 
Q 416 -211 653 473 
Q 890 1158 890 1914 
z
" transform="scale(0.015625)"/>
      </defs>
      <use xlink:href="#Ubuntu-Bold-52"/>
      <use xlink:href="#Ubuntu-Bold-65" x="64.199997"/>
      <use xlink:href="#Ubuntu-Bold-73" x="122.599991"/>
      <use xlink:href="#Ubuntu-Bold-69" x="171.099976"/>
      <use xlink:href="#Ubuntu-Bold-64" x="199.999969"/>
      <use xlink:href="#Ubuntu-Bold-75" x="260.399963"/>
      <use xlink:href="#Ubuntu-Bold-61" x="319.299957"/>
      <use xlink:href="#Ubuntu-Bold-6c" x="374.599945"/>
      <use xlink:href="#Ubuntu-Bold-73" x="406.199936"/>
      <use xlink:href="#Ubuntu-Bold-5f" x="454.699921"/>
      <use xlink:href="#Ubuntu-Bold-66" x="504.699905"/>
      <use xlink:href="#Ubuntu-Bold-72" x="546.899902"/>
      <use xlink:href="#Ubuntu-Bold-61" x="588.099899"/>
      <use xlink:href="#Ubuntu-Bold-63" x="643.399887"/>
      <use xlink:href="#Ubuntu-Bold-20" x="693.399872"/>
      <use xlink:href="#Ubuntu-Bold-28" x="717.399857"/>
      <use xlink:href="#Ubuntu-Bold-61" x="750.499847"/>
      <use xlink:href="#Ubuntu-Bold-62" x="805.799835"/>
      <use xlink:href="#Ubuntu-Bold-73" x="866.199829"/>
      <use xlink:href="#Ubuntu-Bold-29" x="913.449814"/>
     </g>
    </g>
   </g>
   <g id="PathCollection_1">
    <defs>
     <path id="me60d1338c8" d="M 0 1.5 
C 0.397805 1.5 0.77937 1.341951 1.06066 1.06066 
C 1.341951 0.77937 1.5 0.397805 1.5 0 
C 1.5 -0.397805 1.341951 -0.77937 1.06066 -1.06066 
C 0.77937 -1.341951 0.397805 -1.5 0 -1.5 
C -0.397805 -1.5 -0.77937 -1.341951 -1.06066 -1.06066 
C -1.341951 -0.77937 -1.5 -0.397805 -1.5 0 
C -1.5 0.397805 -1.341951 0.77937 -1.06066 1.06066 
C -0.77937 1.341951 -0.397805 1.5 0 1.5 
z
" style="stroke: #fefefe; stroke-width: 0.15"/>
    </defs>
    <g clip-path="url(#p0dc149df0c)">
     <use xlink:href="#me60d1338c8" x="94.020219" y="51.622206" style="fill: #5d5d5d; stroke: #fefefe; stroke-width: 0.15"/>
     <use xlink:href="#me60d1338c8" x="97.988219" y="103.736626" style="fill: #5d5d5d; stroke: #fefefe; stroke-width: 0.15"/>
     <use xlink:href="#me60d1338c8" x="108.900219" y="138.64971" style="fill: #5d5d5d; stroke: #fefefe; stroke-width: 0.15"/>
     <use xlink:href="#me60d1338c8" x="108.900219" y="120.471419" style="fill: #5d5d5d; stroke: #fefefe; stroke-width: 0.15"/>
     <use xlink:href="#me60d1338c8" x="122.490619" y="127.489976" style="fill: #5d5d5d; stroke: #fefefe; stroke-width: 0.15"/>
     <use xlink:href="#me60d1338c8" x="123.780219" y="136.064134" style="fill: #5d5d5d; stroke: #fefefe; stroke-width: 0.15"/>
     <use xlink:href="#me60d1338c8" x="125.764219" y="84.10495" style="fill: #5d5d5d; stroke: #fefefe; stroke-width: 0.15"/>
     <use xlink:href="#me60d1338c8" x="126.161019" y="116.345229" style="fill: #5d5d5d; stroke: #fefefe; stroke-width: 0.15"/>
     <use xlink:href="#me60d1338c8" x="127.351419" y="138.974593" style="fill: #5d5d5d; stroke: #fefefe; stroke-width: 0.15"/>
     <use xlink:href="#me60d1338c8" x="128.442619" y="100.085852" style="fill: #5d5d5d; stroke: #fefefe; stroke-width: 0.15"/>
     <use xlink:href="#me60d1338c8" x="130.525819" y="135.094247" style="fill: #5d5d5d; stroke: #fefefe; stroke-width: 0.15"/>
     <use xlink:href="#me60d1338c8" x="130.525819" y="140.580899" style="fill: #5d5d5d; stroke: #fefefe; stroke-width: 0.15"/>
     <use xlink:href="#me60d1338c8" x="130.525819" y="123.048176" style="fill: #5d5d5d; stroke: #fefefe; stroke-width: 0.15"/>
     <use xlink:href="#me60d1338c8" x="131.121019" y="123.79975" style="fill: #5d5d5d; stroke: #fefefe; stroke-width: 0.15"/>
     <use xlink:href="#me60d1338c8" x="132.113019" y="85.420176" style="fill: #5d5d5d; stroke: #fefefe; stroke-width: 0.15"/>
     <use xlink:href="#me60d1338c8" x="132.906619" y="120.451848" style="fill: #5d5d5d; stroke: #fefefe; stroke-width: 0.15"/>
     <use xlink:href="#me60d1338c8" x="133.105019" y="116.35255" style="fill: #5d5d5d; stroke: #fefefe; stroke-width: 0.15"/>
     <use xlink:href="#me60d1338c8" x="133.898619" y="138.961564" style="fill: #5d5d5d; stroke: #fefefe; stroke-width: 0.15"/>
     <use xlink:href="#me60d1338c8" x="134.295419" y="138.680617" style="fill: #5d5d5d; stroke: #fefefe; stroke-width: 0.15"/>
     <use xlink:href="#me60d1338c8" x="135.089019" y="126.85812" style="fill: #5d5d5d; stroke: #fefefe; stroke-width: 0.15"/>
     <use xlink:href="#me60d1338c8" x="135.684219" y="140.805604" style="fill: #5d5d5d; stroke: #fefefe; stroke-width: 0.15"/>
     <use xlink:href="#me60d1338c8" x="135.783419" y="133.911535" style="fill: #5d5d5d; stroke: #fefefe; stroke-width: 0.15"/>
     <use xlink:href="#me60d1338c8" x="136.378619" y="132.318501" style="fill: #5d5d5d; stroke: #fefefe; stroke-width: 0.15"/>
     <use xlink:href="#me60d1338c8" x="136.874619" y="125.35495" style="fill: #5d5d5d; stroke: #fefefe; stroke-width: 0.15"/>
     <use xlink:href="#me60d1338c8" x="138.461819" y="137.09775" style="fill: #5d5d5d; stroke: #fefefe; stroke-width: 0.15"/>
     <use xlink:href="#me60d1338c8" x="139.156219" y="124.419195" style="fill: #5d5d5d; stroke: #fefefe; stroke-width: 0.15"/>
     <use xlink:href="#me60d1338c8" x="139.156219" y="88.640354" style="fill: #5d5d5d; stroke: #fefefe; stroke-width: 0.15"/>
     <use xlink:href="#me60d1338c8" x="139.255419" y="138.433797" style="fill: #5d5d5d; stroke: #fefefe; stroke-width: 0.15"/>
     <use xlink:href="#me60d1338c8" x="139.453819" y="128.338606" style="fill: #5d5d5d; stroke: #fefefe; stroke-width: 0.15"/>
     <use xlink:href="#me60d1338c8" x="140.644219" y="140.412671" style="fill: #5d5d5d; stroke: #fefefe; stroke-width: 0.15"/>
     <use xlink:href="#me60d1338c8" x="140.842619" y="113.920104" style="fill: #5d5d5d; stroke: #fefefe; stroke-width: 0.15"/>
     <use xlink:href="#me60d1338c8" x="141.140219" y="135.95112" style="fill: #5d5d5d; stroke: #fefefe; stroke-width: 0.15"/>
     <use xlink:href="#me60d1338c8" x="143.025019" y="82.25575" style="fill: #5d5d5d; stroke: #fefefe; stroke-width: 0.15"/>
     <use xlink:href="#me60d1338c8" x="144.314619" y="123.322597" style="fill: #5d5d5d; stroke: #fefefe; stroke-width: 0.15"/>
     <use xlink:href="#me60d1338c8" x="144.413819" y="137.946209" style="fill: #5d5d5d; stroke: #fefefe; stroke-width: 0.15"/>
     <use xlink:href="#me60d1338c8" x="144.413819" y="133.389868" style="fill: #5d5d5d; stroke: #fefefe; stroke-width: 0.15"/>
     <use xlink:href="#me60d1338c8" x="144.413819" y="129.255608" style="fill: #5d5d5d; stroke: #fefefe; stroke-width: 0.15"/>
     <use xlink:href="#me60d1338c8" x="144.612219" y="140.280964" style="fill: #5d5d5d; stroke: #fefefe; stroke-width: 0.15"/>
     <use xlink:href="#me60d1338c8" x="146.397819" y="139.284925" style="fill: #5d5d5d; stroke: #fefefe; stroke-width: 0.15"/>
     <use xlink:href="#me60d1338c8" x="146.794619" y="118.590574" style="fill: #5d5d5d; stroke: #fefefe; stroke-width: 0.15"/>
     <use xlink:href="#me60d1338c8" x="148.183419" y="140.467596" style="fill: #5d5d5d; stroke: #fefefe; stroke-width: 0.15"/>
     <use xlink:href="#me60d1338c8" x="148.381819" y="126.429315" style="fill: #5d5d5d; stroke: #fefefe; stroke-width: 0.15"/>
     <use xlink:href="#me60d1338c8" x="148.977019" y="139.872044" style="fill: #5d5d5d; stroke: #fefefe; stroke-width: 0.15"/>
     <use xlink:href="#me60d1338c8" x="149.572219" y="138.373556" style="fill: #5d5d5d; stroke: #fefefe; stroke-width: 0.15"/>
     <use xlink:href="#me60d1338c8" x="149.572219" y="113.993388" style="fill: #5d5d5d; stroke: #fefefe; stroke-width: 0.15"/>
     <use xlink:href="#me60d1338c8" x="149.572219" y="128.790338" style="fill: #5d5d5d; stroke: #fefefe; stroke-width: 0.15"/>
     <use xlink:href="#me60d1338c8" x="151.159419" y="140.246371" style="fill: #5d5d5d; stroke: #fefefe; stroke-width: 0.15"/>
     <use xlink:href="#me60d1338c8" x="152.349819" y="131.214041" style="fill: #5d5d5d; stroke: #fefefe; stroke-width: 0.15"/>
     <use xlink:href="#me60d1338c8" x="153.242619" y="138.34375" style="fill: #5d5d5d; stroke: #fefefe; stroke-width: 0.15"/>
     <use xlink:href="#me60d1338c8" x="155.425019" y="134.36175" style="fill: #5d5d5d; stroke: #fefefe; stroke-width: 0.15"/>
     <use xlink:href="#me60d1338c8" x="157.210619" y="76.570217" style="fill: #5d5d5d; stroke: #fefefe; stroke-width: 0.15"/>
     <use xlink:href="#me60d1338c8" x="158.103419" y="108.725967" style="fill: #5d5d5d; stroke: #fefefe; stroke-width: 0.15"/>
     <use xlink:href="#me60d1338c8" x="158.897019" y="128.071217" style="fill: #5d5d5d; stroke: #fefefe; stroke-width: 0.15"/>
     <use xlink:href="#me60d1338c8" x="159.095419" y="122.479236" style="fill: #5d5d5d; stroke: #fefefe; stroke-width: 0.15"/>
     <use xlink:href="#me60d1338c8" x="160.484219" y="139.680601" style="fill: #5d5d5d; stroke: #fefefe; stroke-width: 0.15"/>
     <use xlink:href="#me60d1338c8" x="163.063419" y="137.316571" style="fill: #5d5d5d; stroke: #fefefe; stroke-width: 0.15"/>
     <use xlink:href="#me60d1338c8" x="165.345019" y="120.254003" style="fill: #5d5d5d; stroke: #fefefe; stroke-width: 0.15"/>
     <use xlink:href="#me60d1338c8" x="166.535419" y="132.657899" style="fill: #5d5d5d; stroke: #fefefe; stroke-width: 0.15"/>
     <use xlink:href="#me60d1338c8" x="170.007419" y="140.91175" style="fill: #5d5d5d; stroke: #fefefe; stroke-width: 0.15"/>
     <use xlink:href="#me60d1338c8" x="170.602619" y="125.779844" style="fill: #5d5d5d; stroke: #fefefe; stroke-width: 0.15"/>
     <use xlink:href="#me60d1338c8" x="174.471419" y="138.792397" style="fill: #5d5d5d; stroke: #fefefe; stroke-width: 0.15"/>
     <use xlink:href="#me60d1338c8" x="175.761019" y="131.392515" style="fill: #5d5d5d; stroke: #fefefe; stroke-width: 0.15"/>
     <use xlink:href="#me60d1338c8" x="176.951419" y="105.953471" style="fill: #5d5d5d; stroke: #fefefe; stroke-width: 0.15"/>
     <use xlink:href="#me60d1338c8" x="179.332219" y="129.212624" style="fill: #5d5d5d; stroke: #fefefe; stroke-width: 0.15"/>
     <use xlink:href="#me60d1338c8" x="180.522619" y="133.871926" style="fill: #5d5d5d; stroke: #fefefe; stroke-width: 0.15"/>
     <use xlink:href="#me60d1338c8" x="184.589819" y="122.163765" style="fill: #5d5d5d; stroke: #fefefe; stroke-width: 0.15"/>
     <use xlink:href="#me60d1338c8" x="185.284219" y="133.793944" style="fill: #5d5d5d; stroke: #fefefe; stroke-width: 0.15"/>
     <use xlink:href="#me60d1338c8" x="186.474619" y="119.344801" style="fill: #5d5d5d; stroke: #fefefe; stroke-width: 0.15"/>
     <use xlink:href="#me60d1338c8" x="188.359419" y="131.104375" style="fill: #5d5d5d; stroke: #fefefe; stroke-width: 0.15"/>
     <use xlink:href="#me60d1338c8" x="188.458619" y="116.916204" style="fill: #5d5d5d; stroke: #fefefe; stroke-width: 0.15"/>
     <use xlink:href="#me60d1338c8" x="190.442619" y="131.727959" style="fill: #5d5d5d; stroke: #fefefe; stroke-width: 0.15"/>
     <use xlink:href="#me60d1338c8" x="190.541819" y="116.441476" style="fill: #5d5d5d; stroke: #fefefe; stroke-width: 0.15"/>
     <use xlink:href="#me60d1338c8" x="190.839419" y="131.541229" style="fill: #5d5d5d; stroke: #fefefe; stroke-width: 0.15"/>
     <use xlink:href="#me60d1338c8" x="190.839419" y="92.28885" style="fill: #5d5d5d; stroke: #fefefe; stroke-width: 0.15"/>
     <use xlink:href="#me60d1338c8" x="191.037819" y="126.92125" style="fill: #5d5d5d; stroke: #fefefe; stroke-width: 0.15"/>
     <use xlink:href="#me60d1338c8" x="192.823419" y="142.038989" style="fill: #5d5d5d; stroke: #fefefe; stroke-width: 0.15"/>
     <use xlink:href="#me60d1338c8" x="192.922619" y="139.862205" style="fill: #5d5d5d; stroke: #fefefe; stroke-width: 0.15"/>
     <use xlink:href="#me60d1338c8" x="193.021819" y="137.565245" style="fill: #5d5d5d; stroke: #fefefe; stroke-width: 0.15"/>
     <use xlink:href="#me60d1338c8" x="193.121019" y="128.272033" style="fill: #5d5d5d; stroke: #fefefe; stroke-width: 0.15"/>
     <use xlink:href="#me60d1338c8" x="195.005819" y="138.44618" style="fill: #5d5d5d; stroke: #fefefe; stroke-width: 0.15"/>
     <use xlink:href="#me60d1338c8" x="195.799419" y="125.176314" style="fill: #5d5d5d; stroke: #fefefe; stroke-width: 0.15"/>
     <use xlink:href="#me60d1338c8" x="196.493819" y="130.37671" style="fill: #5d5d5d; stroke: #fefefe; stroke-width: 0.15"/>
     <use xlink:href="#me60d1338c8" x="197.585019" y="123.583583" style="fill: #5d5d5d; stroke: #fefefe; stroke-width: 0.15"/>
     <use xlink:href="#me60d1338c8" x="198.676219" y="131.002329" style="fill: #5d5d5d; stroke: #fefefe; stroke-width: 0.15"/>
     <use xlink:href="#me60d1338c8" x="198.676219" y="137.85259" style="fill: #5d5d5d; stroke: #fefefe; stroke-width: 0.15"/>
     <use xlink:href="#me60d1338c8" x="199.965819" y="95.015555" style="fill: #5d5d5d; stroke: #fefefe; stroke-width: 0.15"/>
     <use xlink:href="#me60d1338c8" x="201.057019" y="122.704115" style="fill: #5d5d5d; stroke: #fefefe; stroke-width: 0.15"/>
     <use xlink:href="#me60d1338c8" x="201.850619" y="134.044321" style="fill: #5d5d5d; stroke: #fefefe; stroke-width: 0.15"/>
     <use xlink:href="#me60d1338c8" x="202.445819" y="138.337795" style="fill: #5d5d5d; stroke: #fefefe; stroke-width: 0.15"/>
     <use xlink:href="#me60d1338c8" x="203.338619" y="134.912034" style="fill: #5d5d5d; stroke: #fefefe; stroke-width: 0.15"/>
     <use xlink:href="#me60d1338c8" x="204.132219" y="141.453921" style="fill: #5d5d5d; stroke: #fefefe; stroke-width: 0.15"/>
     <use xlink:href="#me60d1338c8" x="205.124219" y="136.073975" style="fill: #5d5d5d; stroke: #fefefe; stroke-width: 0.15"/>
     <use xlink:href="#me60d1338c8" x="205.521019" y="129.547153" style="fill: #5d5d5d; stroke: #fefefe; stroke-width: 0.15"/>
     <use xlink:href="#me60d1338c8" x="207.108219" y="132.13975" style="fill: #5d5d5d; stroke: #fefefe; stroke-width: 0.15"/>
     <use xlink:href="#me60d1338c8" x="207.108219" y="119.443275" style="fill: #5d5d5d; stroke: #fefefe; stroke-width: 0.15"/>
     <use xlink:href="#me60d1338c8" x="208.001019" y="122.262989" style="fill: #5d5d5d; stroke: #fefefe; stroke-width: 0.15"/>
     <use xlink:href="#me60d1338c8" x="208.695419" y="139.459797" style="fill: #5d5d5d; stroke: #fefefe; stroke-width: 0.15"/>
     <use xlink:href="#me60d1338c8" x="210.481019" y="137.590776" style="fill: #5d5d5d; stroke: #fefefe; stroke-width: 0.15"/>
     <use xlink:href="#me60d1338c8" x="210.778619" y="121.237034" style="fill: #5d5d5d; stroke: #fefefe; stroke-width: 0.15"/>
     <use xlink:href="#me60d1338c8" x="211.473019" y="137.237939" style="fill: #5d5d5d; stroke: #fefefe; stroke-width: 0.15"/>
     <use xlink:href="#me60d1338c8" x="211.473019" y="113.688354" style="fill: #5d5d5d; stroke: #fefefe; stroke-width: 0.15"/>
     <use xlink:href="#me60d1338c8" x="214.052219" y="119.53849" style="fill: #5d5d5d; stroke: #fefefe; stroke-width: 0.15"/>
     <use xlink:href="#me60d1338c8" x="214.449019" y="100.65364" style="fill: #5d5d5d; stroke: #fefefe; stroke-width: 0.15"/>
     <use xlink:href="#me60d1338c8" x="215.242619" y="140.290475" style="fill: #5d5d5d; stroke: #fefefe; stroke-width: 0.15"/>
     <use xlink:href="#me60d1338c8" x="216.829819" y="122.30311" style="fill: #5d5d5d; stroke: #fefefe; stroke-width: 0.15"/>
     <use xlink:href="#me60d1338c8" x="217.028219" y="127.629091" style="fill: #5d5d5d; stroke: #fefefe; stroke-width: 0.15"/>
     <use xlink:href="#me60d1338c8" x="218.218619" y="132.430447" style="fill: #5d5d5d; stroke: #fefefe; stroke-width: 0.15"/>
     <use xlink:href="#me60d1338c8" x="218.417019" y="123.210458" style="fill: #5d5d5d; stroke: #fefefe; stroke-width: 0.15"/>
     <use xlink:href="#me60d1338c8" x="219.210619" y="123.81319" style="fill: #5d5d5d; stroke: #fefefe; stroke-width: 0.15"/>
     <use xlink:href="#me60d1338c8" x="221.789819" y="124.37781" style="fill: #5d5d5d; stroke: #fefefe; stroke-width: 0.15"/>
     <use xlink:href="#me60d1338c8" x="221.789819" y="117.880365" style="fill: #5d5d5d; stroke: #fefefe; stroke-width: 0.15"/>
     <use xlink:href="#me60d1338c8" x="222.484219" y="131.359525" style="fill: #5d5d5d; stroke: #fefefe; stroke-width: 0.15"/>
     <use xlink:href="#me60d1338c8" x="222.583419" y="123.096756" style="fill: #5d5d5d; stroke: #fefefe; stroke-width: 0.15"/>
     <use xlink:href="#me60d1338c8" x="222.881019" y="136.97706" style="fill: #5d5d5d; stroke: #fefefe; stroke-width: 0.15"/>
     <use xlink:href="#me60d1338c8" x="224.666619" y="129.195254" style="fill: #5d5d5d; stroke: #fefefe; stroke-width: 0.15"/>
     <use xlink:href="#me60d1338c8" x="225.261819" y="105.103595" style="fill: #5d5d5d; stroke: #fefefe; stroke-width: 0.15"/>
     <use xlink:href="#me60d1338c8" x="229.725819" y="107.356272" style="fill: #5d5d5d; stroke: #fefefe; stroke-width: 0.15"/>
     <use xlink:href="#me60d1338c8" x="235.082619" y="99.401393" style="fill: #5d5d5d; stroke: #fefefe; stroke-width: 0.15"/>
     <use xlink:href="#me60d1338c8" x="235.281019" y="135.080098" style="fill: #5d5d5d; stroke: #fefefe; stroke-width: 0.15"/>
     <use xlink:href="#me60d1338c8" x="237.661819" y="122.257791" style="fill: #5d5d5d; stroke: #fefefe; stroke-width: 0.15"/>
     <use xlink:href="#me60d1338c8" x="238.753019" y="137.499148" style="fill: #5d5d5d; stroke: #fefefe; stroke-width: 0.15"/>
     <use xlink:href="#me60d1338c8" x="240.241019" y="93.140424" style="fill: #5d5d5d; stroke: #fefefe; stroke-width: 0.15"/>
     <use xlink:href="#me60d1338c8" x="247.581819" y="140.592996" style="fill: #5d5d5d; stroke: #fefefe; stroke-width: 0.15"/>
     <use xlink:href="#me60d1338c8" x="248.970619" y="52.671553" style="fill: #5d5d5d; stroke: #fefefe; stroke-width: 0.15"/>
     <use xlink:href="#me60d1338c8" x="249.367419" y="125.203243" style="fill: #5d5d5d; stroke: #fefefe; stroke-width: 0.15"/>
     <use xlink:href="#me60d1338c8" x="252.740219" y="61.036728" style="fill: #5d5d5d; stroke: #fefefe; stroke-width: 0.15"/>
     <use xlink:href="#me60d1338c8" x="255.716219" y="105.312843" style="fill: #5d5d5d; stroke: #fefefe; stroke-width: 0.15"/>
     <use xlink:href="#me60d1338c8" x="260.477819" y="108.617133" style="fill: #5d5d5d; stroke: #fefefe; stroke-width: 0.15"/>
     <use xlink:href="#me60d1338c8" x="265.636219" y="131.352805" style="fill: #5d5d5d; stroke: #fefefe; stroke-width: 0.15"/>
     <use xlink:href="#me60d1338c8" x="266.925819" y="110.382471" style="fill: #5d5d5d; stroke: #fefefe; stroke-width: 0.15"/>
     <use xlink:href="#me60d1338c8" x="267.521019" y="104.597442" style="fill: #5d5d5d; stroke: #fefefe; stroke-width: 0.15"/>
     <use xlink:href="#me60d1338c8" x="270.199419" y="136.552801" style="fill: #5d5d5d; stroke: #fefefe; stroke-width: 0.15"/>
     <use xlink:href="#me60d1338c8" x="270.794619" y="132.140183" style="fill: #5d5d5d; stroke: #fefefe; stroke-width: 0.15"/>
     <use xlink:href="#me60d1338c8" x="274.167419" y="136.561699" style="fill: #5d5d5d; stroke: #fefefe; stroke-width: 0.15"/>
     <use xlink:href="#me60d1338c8" x="279.821819" y="131.410704" style="fill: #5d5d5d; stroke: #fefefe; stroke-width: 0.15"/>
     <use xlink:href="#me60d1338c8" x="280.913019" y="87.284561" style="fill: #5d5d5d; stroke: #fefefe; stroke-width: 0.15"/>
     <use xlink:href="#me60d1338c8" x="283.690619" y="110.602509" style="fill: #5d5d5d; stroke: #fefefe; stroke-width: 0.15"/>
     <use xlink:href="#me60d1338c8" x="286.269819" y="116.008266" style="fill: #5d5d5d; stroke: #fefefe; stroke-width: 0.15"/>
     <use xlink:href="#me60d1338c8" x="291.725819" y="129.306122" style="fill: #5d5d5d; stroke: #fefefe; stroke-width: 0.15"/>
     <use xlink:href="#me60d1338c8" x="296.388219" y="129.421402" style="fill: #5d5d5d; stroke: #fefefe; stroke-width: 0.15"/>
     <use xlink:href="#me60d1338c8" x="306.506619" y="139.438741" style="fill: #5d5d5d; stroke: #fefefe; stroke-width: 0.15"/>
     <use xlink:href="#me60d1338c8" x="317.220219" y="107.828507" style="fill: #5d5d5d; stroke: #fefefe; stroke-width: 0.15"/>
     <use xlink:href="#me60d1338c8" x="323.569019" y="107.11314" style="fill: #5d5d5d; stroke: #fefefe; stroke-width: 0.15"/>
     <use xlink:href="#me60d1338c8" x="333.885819" y="74.608447" style="fill: #5d5d5d; stroke: #fefefe; stroke-width: 0.15"/>
     <use xlink:href="#me60d1338c8" x="352.535419" y="132.425805" style="fill: #5d5d5d; stroke: #fefefe; stroke-width: 0.15"/>
     <use xlink:href="#me60d1338c8" x="474.551419" y="102.600248" style="fill: #5d5d5d; stroke: #fefefe; stroke-width: 0.15"/>
    </g>
   </g>
   <g id="patch_3">
    <path d="M 41.404219 142.30375 
L 41.404219 10.30375 
" style="fill: none; stroke: #bbbbbb; stroke-width: 0.75; stroke-linejoin: miter; stroke-linecap: square"/>
   </g>
   <g id="patch_4">
    <path d="M 46.404219 153.90375 
L 492.804219 153.90375 
" style="fill: none; stroke: #bbbbbb; stroke-width: 0.75; stroke-linejoin: miter; stroke-linecap: square"/>
   </g>
   <g id="line2d_17">
    <path d="M 232.404219 141.97375 
L 232.404219 24.16375 
" clip-path="url(#p0dc149df0c)" style="fill: none; stroke-dasharray: 3.7,1.6; stroke-dashoffset: 0; stroke: #af5a51"/>
   </g>
  </g>
 </g>
 <defs>
  <clipPath id="p0dc149df0c">
   <rect x="46.404219" y="10.30375" width="446.4" height="138.6"/>
  </clipPath>
 </defs>
</svg>
