<?xml version="1.0" encoding="utf-8" standalone="no"?>
<!DOCTYPE svg PUBLIC "-//W3C//DTD SVG 1.1//EN"
  "http://www.w3.org/Graphics/SVG/1.1/DTD/svg11.dtd">
<svg xmlns:xlink="http://www.w3.org/1999/xlink" width="625.078437pt" height="197.285pt" viewBox="0 0 625.078437 197.285" xmlns="http://www.w3.org/2000/svg" version="1.1">
 <metadata>
  <rdf:RDF xmlns:dc="http://purl.org/dc/elements/1.1/" xmlns:cc="http://creativecommons.org/ns#" xmlns:rdf="http://www.w3.org/1999/02/22-rdf-syntax-ns#">
   <cc:Work>
    <dc:type rdf:resource="http://purl.org/dc/dcmitype/StillImage"/>
    <dc:date>2024-02-20T09:34:26.186765</dc:date>
    <dc:format>image/svg+xml</dc:format>
    <dc:creator>
     <cc:Agent>
      <dc:title>Matplotlib v3.8.0, https://matplotlib.org/</dc:title>
     </cc:Agent>
    </dc:creator>
   </cc:Work>
  </rdf:RDF>
 </metadata>
 <defs>
  <style type="text/css">*{stroke-linejoin: round; stroke-linecap: butt}</style>
 </defs>
 <g id="figure_1">
  <g id="patch_1">
   <path d="M 0 197.285 
L 625.078437 197.285 
L 625.078437 0 
L 0 0 
L 0 197.285 
z
" style="fill: none"/>
  </g>
  <g id="axes_1">
   <g id="patch_2">
    <path d="M 46.340938 170.8975 
L 604.340937 170.8975 
L 604.340937 32.2975 
L 46.340938 32.2975 
L 46.340938 170.8975 
z
" style="fill: none"/>
   </g>
   <g id="matplotlib.axis_1">
    <g id="xtick_1">
     <g id="line2d_1">
      <defs>
       <path id="ma79f97d8fc" d="M 0 0 
L 0 3 
" style="stroke: #bbbbbb; stroke-width: 0.75"/>
      </defs>
      <g>
       <use xlink:href="#ma79f97d8fc" x="46.340938" y="175.8975" style="fill: #bbbbbb; stroke: #bbbbbb; stroke-width: 0.75"/>
      </g>
     </g>
     <g id="text_1">
      <!-- −150000 -->
      <g style="fill: #9f9f9f" transform="translate(30.547188 188.605) scale(0.08 -0.08)">
       <defs>
        <path id="Ubuntu-2212" d="M 339 2138 
L 3270 2138 
L 3270 1632 
L 339 1632 
L 339 2138 
z
" transform="scale(0.015625)"/>
        <path id="Ubuntu-31" d="M 595 3520 
Q 960 3661 1305 3881 
Q 1651 4102 1939 4435 
L 2362 4435 
L 2362 0 
L 1766 0 
L 1766 3610 
Q 1690 3539 1578 3462 
Q 1466 3386 1334 3315 
Q 1203 3245 1059 3181 
Q 915 3117 781 3072 
L 595 3520 
z
" transform="scale(0.015625)"/>
        <path id="Ubuntu-35" d="M 1274 2726 
Q 2240 2688 2691 2304 
Q 3142 1920 3142 1261 
Q 3142 966 3043 716 
Q 2944 467 2742 288 
Q 2541 109 2233 6 
Q 1926 -96 1504 -96 
Q 1338 -96 1165 -70 
Q 992 -45 845 -6 
Q 698 32 582 70 
Q 467 109 416 134 
L 531 653 
Q 640 602 886 518 
Q 1133 435 1491 435 
Q 1779 435 1974 499 
Q 2170 563 2291 672 
Q 2413 781 2467 925 
Q 2522 1069 2522 1229 
Q 2522 1472 2438 1661 
Q 2355 1850 2144 1978 
Q 1933 2106 1581 2173 
Q 1229 2240 691 2240 
Q 730 2554 752 2829 
Q 774 3104 793 3366 
Q 813 3629 825 3888 
Q 838 4147 851 4435 
L 2989 4435 
L 2989 3930 
L 1370 3930 
Q 1363 3834 1350 3670 
Q 1338 3507 1325 3331 
Q 1312 3155 1299 2988 
Q 1286 2822 1274 2726 
z
" transform="scale(0.015625)"/>
        <path id="Ubuntu-30" d="M 320 2221 
Q 320 3334 713 3936 
Q 1107 4538 1805 4538 
Q 2502 4538 2896 3936 
Q 3290 3334 3290 2221 
Q 3290 1107 2896 505 
Q 2502 -96 1805 -96 
Q 1107 -96 713 505 
Q 320 1107 320 2221 
z
M 2662 2221 
Q 2662 2586 2620 2912 
Q 2579 3238 2480 3481 
Q 2381 3725 2214 3869 
Q 2048 4013 1805 4013 
Q 1562 4013 1395 3869 
Q 1229 3725 1129 3481 
Q 1030 3238 988 2912 
Q 947 2586 947 2221 
Q 947 1856 988 1529 
Q 1030 1203 1129 960 
Q 1229 717 1395 573 
Q 1562 429 1805 429 
Q 2048 429 2214 573 
Q 2381 717 2480 960 
Q 2579 1203 2620 1529 
Q 2662 1856 2662 2221 
z
" transform="scale(0.015625)"/>
       </defs>
       <use xlink:href="#Ubuntu-2212"/>
       <use xlink:href="#Ubuntu-31" x="56.399994"/>
       <use xlink:href="#Ubuntu-35" x="112.799988"/>
       <use xlink:href="#Ubuntu-30" x="169.199982"/>
       <use xlink:href="#Ubuntu-30" x="225.599976"/>
       <use xlink:href="#Ubuntu-30" x="281.999969"/>
       <use xlink:href="#Ubuntu-30" x="338.399963"/>
      </g>
     </g>
    </g>
    <g id="xtick_2">
     <g id="line2d_2">
      <g>
       <use xlink:href="#ma79f97d8fc" x="126.055223" y="175.8975" style="fill: #bbbbbb; stroke: #bbbbbb; stroke-width: 0.75"/>
      </g>
     </g>
     <g id="text_2">
      <!-- −100000 -->
      <g style="fill: #9f9f9f" transform="translate(110.261473 188.605) scale(0.08 -0.08)">
       <use xlink:href="#Ubuntu-2212"/>
       <use xlink:href="#Ubuntu-31" x="56.399994"/>
       <use xlink:href="#Ubuntu-30" x="112.799988"/>
       <use xlink:href="#Ubuntu-30" x="169.199982"/>
       <use xlink:href="#Ubuntu-30" x="225.599976"/>
       <use xlink:href="#Ubuntu-30" x="281.999969"/>
       <use xlink:href="#Ubuntu-30" x="338.399963"/>
      </g>
     </g>
    </g>
    <g id="xtick_3">
     <g id="line2d_3">
      <g>
       <use xlink:href="#ma79f97d8fc" x="205.769509" y="175.8975" style="fill: #bbbbbb; stroke: #bbbbbb; stroke-width: 0.75"/>
      </g>
     </g>
     <g id="text_3">
      <!-- −50000 -->
      <g style="fill: #9f9f9f" transform="translate(192.232009 188.605) scale(0.08 -0.08)">
       <use xlink:href="#Ubuntu-2212"/>
       <use xlink:href="#Ubuntu-35" x="56.399994"/>
       <use xlink:href="#Ubuntu-30" x="112.799988"/>
       <use xlink:href="#Ubuntu-30" x="169.199982"/>
       <use xlink:href="#Ubuntu-30" x="225.599976"/>
       <use xlink:href="#Ubuntu-30" x="281.999969"/>
      </g>
     </g>
    </g>
    <g id="xtick_4">
     <g id="line2d_4">
      <g>
       <use xlink:href="#ma79f97d8fc" x="285.483795" y="175.8975" style="fill: #bbbbbb; stroke: #bbbbbb; stroke-width: 0.75"/>
      </g>
     </g>
     <g id="text_4">
      <!-- 0 -->
      <g style="fill: #9f9f9f" transform="translate(283.227545 188.605) scale(0.08 -0.08)">
       <use xlink:href="#Ubuntu-30"/>
      </g>
     </g>
    </g>
    <g id="xtick_5">
     <g id="line2d_5">
      <g>
       <use xlink:href="#ma79f97d8fc" x="365.19808" y="175.8975" style="fill: #bbbbbb; stroke: #bbbbbb; stroke-width: 0.75"/>
      </g>
     </g>
     <g id="text_5">
      <!-- 50000 -->
      <g style="fill: #9f9f9f" transform="translate(353.91683 188.605) scale(0.08 -0.08)">
       <use xlink:href="#Ubuntu-35"/>
       <use xlink:href="#Ubuntu-30" x="56.399994"/>
       <use xlink:href="#Ubuntu-30" x="112.799988"/>
       <use xlink:href="#Ubuntu-30" x="169.199982"/>
       <use xlink:href="#Ubuntu-30" x="225.599976"/>
      </g>
     </g>
    </g>
    <g id="xtick_6">
     <g id="line2d_6">
      <g>
       <use xlink:href="#ma79f97d8fc" x="444.912366" y="175.8975" style="fill: #bbbbbb; stroke: #bbbbbb; stroke-width: 0.75"/>
      </g>
     </g>
     <g id="text_6">
      <!-- 100000 -->
      <g style="fill: #9f9f9f" transform="translate(431.374866 188.605) scale(0.08 -0.08)">
       <use xlink:href="#Ubuntu-31"/>
       <use xlink:href="#Ubuntu-30" x="56.399994"/>
       <use xlink:href="#Ubuntu-30" x="112.799988"/>
       <use xlink:href="#Ubuntu-30" x="169.199982"/>
       <use xlink:href="#Ubuntu-30" x="225.599976"/>
       <use xlink:href="#Ubuntu-30" x="281.999969"/>
      </g>
     </g>
    </g>
    <g id="xtick_7">
     <g id="line2d_7">
      <g>
       <use xlink:href="#ma79f97d8fc" x="524.626652" y="175.8975" style="fill: #bbbbbb; stroke: #bbbbbb; stroke-width: 0.75"/>
      </g>
     </g>
     <g id="text_7">
      <!-- 150000 -->
      <g style="fill: #9f9f9f" transform="translate(511.089152 188.605) scale(0.08 -0.08)">
       <use xlink:href="#Ubuntu-31"/>
       <use xlink:href="#Ubuntu-35" x="56.399994"/>
       <use xlink:href="#Ubuntu-30" x="112.799988"/>
       <use xlink:href="#Ubuntu-30" x="169.199982"/>
       <use xlink:href="#Ubuntu-30" x="225.599976"/>
       <use xlink:href="#Ubuntu-30" x="281.999969"/>
      </g>
     </g>
    </g>
    <g id="xtick_8">
     <g id="line2d_8">
      <g>
       <use xlink:href="#ma79f97d8fc" x="604.340938" y="175.8975" style="fill: #bbbbbb; stroke: #bbbbbb; stroke-width: 0.75"/>
      </g>
     </g>
     <g id="text_8">
      <!-- 200000 -->
      <g style="fill: #9f9f9f" transform="translate(590.803438 188.605) scale(0.08 -0.08)">
       <defs>
        <path id="Ubuntu-32" d="M 2989 3302 
Q 2989 3072 2896 2857 
Q 2803 2643 2649 2435 
Q 2496 2227 2304 2025 
Q 2112 1824 1920 1632 
Q 1811 1523 1667 1376 
Q 1523 1229 1395 1069 
Q 1267 909 1180 761 
Q 1094 614 1094 506 
L 3136 506 
L 3136 0 
L 448 0 
Q 442 38 442 76 
Q 442 115 442 147 
Q 442 448 541 707 
Q 640 966 800 1196 
Q 960 1427 1158 1632 
Q 1357 1837 1549 2029 
Q 1709 2182 1853 2332 
Q 1997 2483 2109 2633 
Q 2221 2784 2288 2944 
Q 2355 3104 2355 3283 
Q 2355 3475 2294 3609 
Q 2234 3744 2131 3833 
Q 2029 3923 1891 3964 
Q 1754 4006 1600 4006 
Q 1414 4006 1260 3955 
Q 1107 3904 985 3837 
Q 864 3770 781 3696 
Q 698 3622 653 3584 
L 358 4006 
Q 416 4070 531 4163 
Q 646 4256 806 4339 
Q 966 4422 1164 4480 
Q 1363 4538 1594 4538 
Q 2291 4538 2640 4214 
Q 2989 3891 2989 3302 
z
" transform="scale(0.015625)"/>
       </defs>
       <use xlink:href="#Ubuntu-32"/>
       <use xlink:href="#Ubuntu-30" x="56.399994"/>
       <use xlink:href="#Ubuntu-30" x="112.799988"/>
       <use xlink:href="#Ubuntu-30" x="169.199982"/>
       <use xlink:href="#Ubuntu-30" x="225.599976"/>
       <use xlink:href="#Ubuntu-30" x="281.999969"/>
      </g>
     </g>
    </g>
   </g>
   <g id="matplotlib.axis_2">
    <g id="ytick_1">
     <g id="line2d_9">
      <defs>
       <path id="md0f4a72c6b" d="M 0 0 
L -3 0 
" style="stroke: #bbbbbb; stroke-width: 0.75"/>
      </defs>
      <g>
       <use xlink:href="#md0f4a72c6b" x="41.340938" y="170.8975" style="fill: #bbbbbb; stroke: #bbbbbb; stroke-width: 0.75"/>
      </g>
     </g>
     <g id="text_9">
      <!-- 0.0 -->
      <g style="fill: #9f9f9f" transform="translate(23.848438 174.00125) scale(0.08 -0.08)">
       <defs>
        <path id="Ubuntu-2e" d="M 1216 346 
Q 1216 173 1101 45 
Q 986 -83 787 -83 
Q 589 -83 473 45 
Q 358 173 358 346 
Q 358 518 473 646 
Q 589 774 787 774 
Q 986 774 1101 646 
Q 1216 518 1216 346 
z
" transform="scale(0.015625)"/>
       </defs>
       <use xlink:href="#Ubuntu-30"/>
       <use xlink:href="#Ubuntu-2e" x="56.399994"/>
       <use xlink:href="#Ubuntu-30" x="80.999985"/>
      </g>
     </g>
    </g>
    <g id="ytick_2">
     <g id="line2d_10">
      <g>
       <use xlink:href="#md0f4a72c6b" x="41.340938" y="151.0975" style="fill: #bbbbbb; stroke: #bbbbbb; stroke-width: 0.75"/>
      </g>
     </g>
     <g id="text_10">
      <!-- 0.5 -->
      <g style="fill: #9f9f9f" transform="translate(23.848438 154.20125) scale(0.08 -0.08)">
       <use xlink:href="#Ubuntu-30"/>
       <use xlink:href="#Ubuntu-2e" x="56.399994"/>
       <use xlink:href="#Ubuntu-35" x="80.999985"/>
      </g>
     </g>
    </g>
    <g id="ytick_3">
     <g id="line2d_11">
      <g>
       <use xlink:href="#md0f4a72c6b" x="41.340938" y="131.2975" style="fill: #bbbbbb; stroke: #bbbbbb; stroke-width: 0.75"/>
      </g>
     </g>
     <g id="text_11">
      <!-- 1.0 -->
      <g style="fill: #9f9f9f" transform="translate(23.848438 134.40125) scale(0.08 -0.08)">
       <use xlink:href="#Ubuntu-31"/>
       <use xlink:href="#Ubuntu-2e" x="56.399994"/>
       <use xlink:href="#Ubuntu-30" x="80.999985"/>
      </g>
     </g>
    </g>
    <g id="ytick_4">
     <g id="line2d_12">
      <g>
       <use xlink:href="#md0f4a72c6b" x="41.340938" y="111.4975" style="fill: #bbbbbb; stroke: #bbbbbb; stroke-width: 0.75"/>
      </g>
     </g>
     <g id="text_12">
      <!-- 1.5 -->
      <g style="fill: #9f9f9f" transform="translate(23.848438 114.60125) scale(0.08 -0.08)">
       <use xlink:href="#Ubuntu-31"/>
       <use xlink:href="#Ubuntu-2e" x="56.399994"/>
       <use xlink:href="#Ubuntu-35" x="80.999985"/>
      </g>
     </g>
    </g>
    <g id="ytick_5">
     <g id="line2d_13">
      <g>
       <use xlink:href="#md0f4a72c6b" x="41.340938" y="91.6975" style="fill: #bbbbbb; stroke: #bbbbbb; stroke-width: 0.75"/>
      </g>
     </g>
     <g id="text_13">
      <!-- 2.0 -->
      <g style="fill: #9f9f9f" transform="translate(23.848438 94.80125) scale(0.08 -0.08)">
       <use xlink:href="#Ubuntu-32"/>
       <use xlink:href="#Ubuntu-2e" x="56.399994"/>
       <use xlink:href="#Ubuntu-30" x="80.999985"/>
      </g>
     </g>
    </g>
    <g id="ytick_6">
     <g id="line2d_14">
      <g>
       <use xlink:href="#md0f4a72c6b" x="41.340938" y="71.8975" style="fill: #bbbbbb; stroke: #bbbbbb; stroke-width: 0.75"/>
      </g>
     </g>
     <g id="text_14">
      <!-- 2.5 -->
      <g style="fill: #9f9f9f" transform="translate(23.848438 75.00125) scale(0.08 -0.08)">
       <use xlink:href="#Ubuntu-32"/>
       <use xlink:href="#Ubuntu-2e" x="56.399994"/>
       <use xlink:href="#Ubuntu-35" x="80.999985"/>
      </g>
     </g>
    </g>
    <g id="ytick_7">
     <g id="line2d_15">
      <g>
       <use xlink:href="#md0f4a72c6b" x="41.340938" y="52.0975" style="fill: #bbbbbb; stroke: #bbbbbb; stroke-width: 0.75"/>
      </g>
     </g>
     <g id="text_15">
      <!-- 3.0 -->
      <g style="fill: #9f9f9f" transform="translate(23.848438 55.20125) scale(0.08 -0.08)">
       <defs>
        <path id="Ubuntu-33" d="M 1446 435 
Q 2016 435 2262 659 
Q 2509 883 2509 1261 
Q 2509 1504 2406 1670 
Q 2304 1837 2137 1936 
Q 1971 2035 1750 2076 
Q 1530 2118 1299 2118 
L 1146 2118 
L 1146 2605 
L 1357 2605 
Q 1517 2605 1686 2637 
Q 1856 2669 1997 2752 
Q 2138 2835 2227 2979 
Q 2317 3123 2317 3341 
Q 2317 3520 2253 3648 
Q 2189 3776 2083 3859 
Q 1978 3942 1840 3977 
Q 1702 4013 1549 4013 
Q 1242 4013 1027 3923 
Q 813 3834 666 3738 
L 435 4192 
Q 512 4243 630 4304 
Q 749 4365 896 4416 
Q 1043 4467 1212 4502 
Q 1382 4538 1568 4538 
Q 1920 4538 2176 4451 
Q 2432 4365 2598 4208 
Q 2765 4051 2848 3836 
Q 2931 3622 2931 3373 
Q 2931 3027 2732 2780 
Q 2534 2534 2253 2406 
Q 2426 2355 2586 2259 
Q 2746 2163 2864 2016 
Q 2982 1869 3056 1677 
Q 3130 1485 3130 1248 
Q 3130 960 3030 713 
Q 2931 467 2723 288 
Q 2515 109 2201 6 
Q 1888 -96 1459 -96 
Q 1293 -96 1117 -70 
Q 941 -45 787 -6 
Q 634 32 518 70 
Q 403 109 352 134 
L 467 653 
Q 576 602 829 518 
Q 1082 435 1446 435 
z
" transform="scale(0.015625)"/>
       </defs>
       <use xlink:href="#Ubuntu-33"/>
       <use xlink:href="#Ubuntu-2e" x="56.399994"/>
       <use xlink:href="#Ubuntu-30" x="80.999985"/>
      </g>
     </g>
    </g>
    <g id="ytick_8">
     <g id="line2d_16">
      <g>
       <use xlink:href="#md0f4a72c6b" x="41.340938" y="32.2975" style="fill: #bbbbbb; stroke: #bbbbbb; stroke-width: 0.75"/>
      </g>
     </g>
     <g id="text_16">
      <!-- 3.5 -->
      <g style="fill: #9f9f9f" transform="translate(23.848438 35.40125) scale(0.08 -0.08)">
       <use xlink:href="#Ubuntu-33"/>
       <use xlink:href="#Ubuntu-2e" x="56.399994"/>
       <use xlink:href="#Ubuntu-35" x="80.999985"/>
      </g>
     </g>
    </g>
    <g id="text_17">
     <!-- Density -->
     <g style="fill: #505050" transform="translate(14.183438 65.465313) rotate(-90) scale(0.09 -0.09)">
      <defs>
       <path id="Ubuntu-Bold-44" d="M 1510 813 
Q 1581 806 1673 803 
Q 1766 800 1894 800 
Q 2643 800 3004 1177 
Q 3366 1555 3366 2221 
Q 3366 2918 3020 3276 
Q 2675 3635 1926 3635 
Q 1824 3635 1715 3632 
Q 1606 3629 1510 3616 
L 1510 813 
z
M 4397 2221 
Q 4397 1645 4217 1216 
Q 4038 787 3708 505 
Q 3379 224 2905 83 
Q 2432 -58 1843 -58 
Q 1574 -58 1216 -35 
Q 858 -13 512 58 
L 512 4378 
Q 858 4442 1232 4464 
Q 1606 4486 1875 4486 
Q 2445 4486 2909 4358 
Q 3373 4230 3705 3955 
Q 4038 3680 4217 3251 
Q 4397 2822 4397 2221 
z
" transform="scale(0.015625)"/>
       <path id="Ubuntu-Bold-65" d="M 288 1658 
Q 288 2106 425 2442 
Q 563 2778 787 3002 
Q 1011 3226 1302 3341 
Q 1594 3456 1901 3456 
Q 2618 3456 3034 3017 
Q 3450 2579 3450 1728 
Q 3450 1645 3443 1545 
Q 3437 1446 3430 1370 
L 1267 1370 
Q 1299 1075 1542 902 
Q 1786 730 2195 730 
Q 2458 730 2710 778 
Q 2963 826 3123 896 
L 3251 122 
Q 3174 83 3046 44 
Q 2918 6 2761 -22 
Q 2605 -51 2425 -70 
Q 2246 -90 2067 -90 
Q 1613 -90 1277 44 
Q 941 179 720 412 
Q 499 646 393 966 
Q 288 1286 288 1658 
z
M 2528 2022 
Q 2522 2144 2486 2259 
Q 2451 2374 2377 2464 
Q 2304 2554 2192 2611 
Q 2080 2669 1914 2669 
Q 1754 2669 1638 2614 
Q 1523 2560 1446 2470 
Q 1370 2381 1328 2262 
Q 1286 2144 1267 2022 
L 2528 2022 
z
" transform="scale(0.015625)"/>
       <path id="Ubuntu-Bold-6e" d="M 448 3251 
Q 691 3322 1075 3382 
Q 1459 3443 1882 3443 
Q 2310 3443 2595 3331 
Q 2880 3219 3046 3014 
Q 3213 2810 3283 2528 
Q 3354 2246 3354 1901 
L 3354 0 
L 2400 0 
L 2400 1786 
Q 2400 2246 2278 2438 
Q 2157 2630 1824 2630 
Q 1722 2630 1606 2620 
Q 1491 2611 1402 2598 
L 1402 0 
L 448 0 
L 448 3251 
z
" transform="scale(0.015625)"/>
       <path id="Ubuntu-Bold-73" d="M 1414 685 
Q 1677 685 1785 736 
Q 1894 787 1894 934 
Q 1894 1050 1753 1136 
Q 1613 1222 1325 1331 
Q 1101 1414 918 1504 
Q 736 1594 608 1718 
Q 480 1843 409 2016 
Q 339 2189 339 2432 
Q 339 2906 691 3181 
Q 1043 3456 1658 3456 
Q 1965 3456 2246 3401 
Q 2528 3347 2694 3283 
L 2528 2541 
Q 2362 2598 2166 2643 
Q 1971 2688 1728 2688 
Q 1280 2688 1280 2438 
Q 1280 2381 1299 2336 
Q 1318 2291 1376 2249 
Q 1434 2208 1533 2160 
Q 1632 2112 1786 2054 
Q 2099 1939 2304 1827 
Q 2509 1715 2627 1584 
Q 2746 1453 2794 1293 
Q 2842 1133 2842 922 
Q 2842 422 2467 166 
Q 2093 -90 1408 -90 
Q 960 -90 662 -13 
Q 365 64 250 115 
L 410 890 
Q 653 794 909 739 
Q 1165 685 1414 685 
z
" transform="scale(0.015625)"/>
       <path id="Ubuntu-Bold-69" d="M 1402 0 
L 448 0 
L 448 3366 
L 1402 3366 
L 1402 0 
z
M 1491 4339 
Q 1491 4077 1321 3926 
Q 1152 3776 922 3776 
Q 691 3776 521 3926 
Q 352 4077 352 4339 
Q 352 4602 521 4752 
Q 691 4902 922 4902 
Q 1152 4902 1321 4752 
Q 1491 4602 1491 4339 
z
" transform="scale(0.015625)"/>
       <path id="Ubuntu-Bold-74" d="M 416 4205 
L 1370 4358 
L 1370 3366 
L 2515 3366 
L 2515 2573 
L 1370 2573 
L 1370 1389 
Q 1370 1088 1475 909 
Q 1581 730 1901 730 
Q 2054 730 2217 758 
Q 2381 787 2515 838 
L 2650 96 
Q 2477 26 2265 -25 
Q 2054 -77 1747 -77 
Q 1357 -77 1101 28 
Q 845 134 691 323 
Q 538 512 477 781 
Q 416 1050 416 1376 
L 416 4205 
z
" transform="scale(0.015625)"/>
       <path id="Ubuntu-Bold-79" d="M 3437 3366 
Q 3149 2394 2835 1542 
Q 2522 691 2150 -109 
Q 2016 -397 1881 -598 
Q 1747 -800 1587 -931 
Q 1427 -1062 1225 -1123 
Q 1024 -1184 755 -1184 
Q 531 -1184 342 -1142 
Q 154 -1101 32 -1050 
L 198 -288 
Q 346 -339 461 -358 
Q 576 -378 704 -378 
Q 960 -378 1097 -240 
Q 1235 -102 1331 141 
Q 1005 781 678 1577 
Q 352 2374 64 3366 
L 1075 3366 
Q 1139 3117 1225 2825 
Q 1312 2534 1408 2236 
Q 1504 1939 1603 1657 
Q 1702 1376 1792 1146 
Q 1875 1376 1964 1657 
Q 2054 1939 2140 2236 
Q 2227 2534 2307 2825 
Q 2387 3117 2451 3366 
L 3437 3366 
z
" transform="scale(0.015625)"/>
      </defs>
      <use xlink:href="#Ubuntu-Bold-44"/>
      <use xlink:href="#Ubuntu-Bold-65" x="73.699982"/>
      <use xlink:href="#Ubuntu-Bold-6e" x="132.099976"/>
      <use xlink:href="#Ubuntu-Bold-73" x="190.999969"/>
      <use xlink:href="#Ubuntu-Bold-69" x="239.499954"/>
      <use xlink:href="#Ubuntu-Bold-74" x="268.399948"/>
      <use xlink:href="#Ubuntu-Bold-79" x="313.799942"/>
     </g>
    </g>
    <g id="text_18">
     <!-- 1e−5 -->
     <g style="fill: #9f9f9f" transform="translate(46.340938 29.2975) scale(0.08 -0.08)">
      <defs>
       <path id="Ubuntu-65" d="M 326 1658 
Q 326 2099 454 2428 
Q 582 2758 793 2976 
Q 1005 3194 1280 3302 
Q 1555 3411 1843 3411 
Q 2515 3411 2873 2992 
Q 3232 2573 3232 1715 
Q 3232 1677 3232 1616 
Q 3232 1555 3226 1504 
L 947 1504 
Q 986 986 1248 717 
Q 1510 448 2067 448 
Q 2381 448 2595 502 
Q 2810 557 2918 608 
L 3002 109 
Q 2893 51 2621 -13 
Q 2349 -77 2003 -77 
Q 1568 -77 1251 54 
Q 934 186 729 416 
Q 525 646 425 963 
Q 326 1280 326 1658 
z
M 2611 1984 
Q 2618 2387 2410 2646 
Q 2202 2906 1837 2906 
Q 1632 2906 1475 2826 
Q 1318 2746 1209 2618 
Q 1101 2490 1040 2323 
Q 979 2157 960 1984 
L 2611 1984 
z
" transform="scale(0.015625)"/>
      </defs>
      <use xlink:href="#Ubuntu-31"/>
      <use xlink:href="#Ubuntu-65" x="56.399994"/>
      <use xlink:href="#Ubuntu-2212" x="112.299988"/>
      <use xlink:href="#Ubuntu-35" x="168.699982"/>
     </g>
    </g>
   </g>
   <g id="PolyCollection_1">
    <defs>
     <path id="ma081d85ac3" d="M 214.033119 -26.430095 
L 214.033119 -26.3875 
L 214.749113 -26.3875 
L 215.465106 -26.3875 
L 216.1811 -26.3875 
L 216.897094 -26.3875 
L 217.613088 -26.3875 
L 218.329081 -26.3875 
L 219.045075 -26.3875 
L 219.761069 -26.3875 
L 220.477063 -26.3875 
L 221.193056 -26.3875 
L 221.90905 -26.3875 
L 222.625044 -26.3875 
L 223.341038 -26.3875 
L 224.057031 -26.3875 
L 224.773025 -26.3875 
L 225.489019 -26.3875 
L 226.205012 -26.3875 
L 226.921006 -26.3875 
L 227.637 -26.3875 
L 228.352994 -26.3875 
L 229.068987 -26.3875 
L 229.784981 -26.3875 
L 230.500975 -26.3875 
L 231.216969 -26.3875 
L 231.932962 -26.3875 
L 232.648956 -26.3875 
L 233.36495 -26.3875 
L 234.080944 -26.3875 
L 234.796937 -26.3875 
L 235.512931 -26.3875 
L 236.228925 -26.3875 
L 236.944919 -26.3875 
L 237.660912 -26.3875 
L 238.376906 -26.3875 
L 239.0929 -26.3875 
L 239.808894 -26.3875 
L 240.524887 -26.3875 
L 241.240881 -26.3875 
L 241.956875 -26.3875 
L 242.672868 -26.3875 
L 243.388862 -26.3875 
L 244.104856 -26.3875 
L 244.82085 -26.3875 
L 245.536843 -26.3875 
L 246.252837 -26.3875 
L 246.968831 -26.3875 
L 247.684825 -26.3875 
L 248.400818 -26.3875 
L 249.116812 -26.3875 
L 249.832806 -26.3875 
L 250.5488 -26.3875 
L 251.264793 -26.3875 
L 251.980787 -26.3875 
L 252.696781 -26.3875 
L 253.412775 -26.3875 
L 254.128768 -26.3875 
L 254.844762 -26.3875 
L 255.560756 -26.3875 
L 256.27675 -26.3875 
L 256.992743 -26.3875 
L 257.708737 -26.3875 
L 258.424731 -26.3875 
L 259.140724 -26.3875 
L 259.856718 -26.3875 
L 260.572712 -26.3875 
L 261.288706 -26.3875 
L 262.004699 -26.3875 
L 262.720693 -26.3875 
L 263.436687 -26.3875 
L 264.152681 -26.3875 
L 264.868674 -26.3875 
L 265.584668 -26.3875 
L 266.300662 -26.3875 
L 267.016656 -26.3875 
L 267.732649 -26.3875 
L 268.448643 -26.3875 
L 269.164637 -26.3875 
L 269.880631 -26.3875 
L 270.596624 -26.3875 
L 271.312618 -26.3875 
L 272.028612 -26.3875 
L 272.744606 -26.3875 
L 273.460599 -26.3875 
L 274.176593 -26.3875 
L 274.892587 -26.3875 
L 275.60858 -26.3875 
L 276.324574 -26.3875 
L 277.040568 -26.3875 
L 277.756562 -26.3875 
L 278.472555 -26.3875 
L 279.188549 -26.3875 
L 279.904543 -26.3875 
L 280.620537 -26.3875 
L 281.33653 -26.3875 
L 282.052524 -26.3875 
L 282.768518 -26.3875 
L 283.484512 -26.3875 
L 284.200505 -26.3875 
L 284.916499 -26.3875 
L 285.632493 -26.3875 
L 286.348487 -26.3875 
L 287.06448 -26.3875 
L 287.780474 -26.3875 
L 288.496468 -26.3875 
L 289.212462 -26.3875 
L 289.928455 -26.3875 
L 290.644449 -26.3875 
L 291.360443 -26.3875 
L 292.076437 -26.3875 
L 292.79243 -26.3875 
L 293.508424 -26.3875 
L 294.224418 -26.3875 
L 294.940411 -26.3875 
L 295.656405 -26.3875 
L 296.372399 -26.3875 
L 297.088393 -26.3875 
L 297.804386 -26.3875 
L 298.52038 -26.3875 
L 299.236374 -26.3875 
L 299.952368 -26.3875 
L 300.668361 -26.3875 
L 301.384355 -26.3875 
L 302.100349 -26.3875 
L 302.816343 -26.3875 
L 303.532336 -26.3875 
L 304.24833 -26.3875 
L 304.964324 -26.3875 
L 305.680318 -26.3875 
L 306.396311 -26.3875 
L 307.112305 -26.3875 
L 307.828299 -26.3875 
L 308.544293 -26.3875 
L 309.260286 -26.3875 
L 309.97628 -26.3875 
L 310.692274 -26.3875 
L 311.408267 -26.3875 
L 312.124261 -26.3875 
L 312.840255 -26.3875 
L 313.556249 -26.3875 
L 314.272242 -26.3875 
L 314.988236 -26.3875 
L 315.70423 -26.3875 
L 316.420224 -26.3875 
L 317.136217 -26.3875 
L 317.852211 -26.3875 
L 318.568205 -26.3875 
L 319.284199 -26.3875 
L 320.000192 -26.3875 
L 320.716186 -26.3875 
L 321.43218 -26.3875 
L 322.148174 -26.3875 
L 322.864167 -26.3875 
L 323.580161 -26.3875 
L 324.296155 -26.3875 
L 325.012149 -26.3875 
L 325.728142 -26.3875 
L 326.444136 -26.3875 
L 327.16013 -26.3875 
L 327.876123 -26.3875 
L 328.592117 -26.3875 
L 329.308111 -26.3875 
L 330.024105 -26.3875 
L 330.740098 -26.3875 
L 331.456092 -26.3875 
L 332.172086 -26.3875 
L 332.88808 -26.3875 
L 333.604073 -26.3875 
L 334.320067 -26.3875 
L 335.036061 -26.3875 
L 335.752055 -26.3875 
L 336.468048 -26.3875 
L 337.184042 -26.3875 
L 337.900036 -26.3875 
L 338.61603 -26.3875 
L 339.332023 -26.3875 
L 340.048017 -26.3875 
L 340.764011 -26.3875 
L 341.480005 -26.3875 
L 342.195998 -26.3875 
L 342.911992 -26.3875 
L 343.627986 -26.3875 
L 344.343979 -26.3875 
L 345.059973 -26.3875 
L 345.775967 -26.3875 
L 346.491961 -26.3875 
L 347.207954 -26.3875 
L 347.923948 -26.3875 
L 348.639942 -26.3875 
L 349.355936 -26.3875 
L 350.071929 -26.3875 
L 350.787923 -26.3875 
L 351.503917 -26.3875 
L 352.219911 -26.3875 
L 352.935904 -26.3875 
L 353.651898 -26.3875 
L 354.367892 -26.3875 
L 355.083886 -26.3875 
L 355.799879 -26.3875 
L 356.515873 -26.3875 
L 356.515873 -26.427298 
L 356.515873 -26.427298 
L 355.799879 -26.440132 
L 355.083886 -26.45654 
L 354.367892 -26.47733 
L 353.651898 -26.503437 
L 352.935904 -26.53593 
L 352.219911 -26.576012 
L 351.503917 -26.625017 
L 350.787923 -26.684401 
L 350.071929 -26.755728 
L 349.355936 -26.84065 
L 348.639942 -26.94088 
L 347.923948 -27.058155 
L 347.207954 -27.194209 
L 346.491961 -27.350724 
L 345.775967 -27.529301 
L 345.059973 -27.731417 
L 344.343979 -27.958401 
L 343.627986 -28.211415 
L 342.911992 -28.491445 
L 342.195998 -28.799315 
L 341.480005 -29.135711 
L 340.764011 -29.501232 
L 340.048017 -29.896451 
L 339.332023 -30.321995 
L 338.61603 -30.77864 
L 337.900036 -31.267402 
L 337.184042 -31.789635 
L 336.468048 -32.347112 
L 335.752055 -32.942086 
L 335.036061 -33.577328 
L 334.320067 -34.256114 
L 333.604073 -34.982177 
L 332.88808 -35.759605 
L 332.172086 -36.592692 
L 331.456092 -37.485731 
L 330.740098 -38.442778 
L 330.024105 -39.467379 
L 329.308111 -40.562274 
L 328.592117 -41.729118 
L 327.876123 -42.968205 
L 327.16013 -44.278248 
L 326.444136 -45.656212 
L 325.728142 -47.097229 
L 325.012149 -48.594609 
L 324.296155 -50.139952 
L 323.580161 -51.723373 
L 322.864167 -53.333829 
L 322.148174 -54.959545 
L 321.43218 -56.588517 
L 320.716186 -58.209074 
L 320.000192 -59.810474 
L 319.284199 -61.383492 
L 318.568205 -62.920985 
L 317.852211 -64.418375 
L 317.136217 -65.874054 
L 316.420224 -67.289653 
L 315.70423 -68.670173 
L 314.988236 -70.023955 
L 314.272242 -71.362492 
L 313.556249 -72.700078 
L 312.840255 -74.053307 
L 312.124261 -75.440447 
L 311.408267 -76.880704 
L 310.692274 -78.393419 
L 309.97628 -79.997227 
L 309.260286 -81.709213 
L 308.544293 -83.544108 
L 307.828299 -85.51356 
L 307.112305 -87.625506 
L 306.396311 -89.883681 
L 305.680318 -92.287275 
L 304.964324 -94.830763 
L 304.24833 -97.503899 
L 303.532336 -100.291893 
L 302.816343 -103.175745 
L 302.100349 -106.132725 
L 301.384355 -109.136986 
L 300.668361 -112.160275 
L 299.952368 -115.172719 
L 299.236374 -118.143653 
L 298.52038 -121.042462 
L 297.804386 -123.839398 
L 297.088393 -126.50636 
L 296.372399 -129.01759 
L 295.656405 -131.350285 
L 294.940411 -133.485091 
L 294.224418 -135.406476 
L 293.508424 -137.102969 
L 292.79243 -138.56726 
L 292.076437 -139.796177 
L 291.360443 -140.790522 
L 290.644449 -141.554803 
L 289.928455 -142.09685 
L 289.212462 -142.427352 
L 288.496468 -142.559326 
L 287.780474 -142.507535 
L 287.06448 -142.287881 
L 286.348487 -141.916805 
L 285.632493 -141.410689 
L 284.916499 -140.785316 
L 284.200505 -140.055378 
L 283.484512 -139.234066 
L 282.768518 -138.332746 
L 282.052524 -137.360745 
L 281.33653 -136.325231 
L 280.620537 -135.231212 
L 279.904543 -134.081635 
L 279.188549 -132.877584 
L 278.472555 -131.618565 
L 277.756562 -130.302858 
L 277.040568 -128.927916 
L 276.324574 -127.490793 
L 275.60858 -125.988577 
L 274.892587 -124.418798 
L 274.176593 -122.779801 
L 273.460599 -121.07105 
L 272.744606 -119.293365 
L 272.028612 -117.449068 
L 271.312618 -115.542043 
L 270.596624 -113.577712 
L 269.880631 -111.562923 
L 269.164637 -109.505782 
L 268.448643 -107.415427 
L 267.732649 -105.30177 
L 267.016656 -103.175228 
L 266.300662 -101.046453 
L 265.584668 -98.926085 
L 264.868674 -96.824536 
L 264.152681 -94.751803 
L 263.436687 -92.71733 
L 262.720693 -90.7299 
L 262.004699 -88.797556 
L 261.288706 -86.927547 
L 260.572712 -85.126276 
L 259.856718 -83.399251 
L 259.140724 -81.751022 
L 258.424731 -80.185099 
L 257.708737 -78.703853 
L 256.992743 -77.308396 
L 256.27675 -75.998453 
L 255.560756 -74.772227 
L 254.844762 -73.626287 
L 254.128768 -72.555484 
L 253.412775 -71.552906 
L 252.696781 -70.609909 
L 251.980787 -69.716213 
L 251.264793 -68.860083 
L 250.5488 -68.028598 
L 249.832806 -67.207996 
L 249.116812 -66.384091 
L 248.400818 -65.542743 
L 247.684825 -64.670362 
L 246.968831 -63.754417 
L 246.252837 -62.783922 
L 245.536843 -61.749885 
L 244.82085 -60.645672 
L 244.104856 -59.467293 
L 243.388862 -58.213568 
L 242.672868 -56.886182 
L 241.956875 -55.48962 
L 241.240881 -54.030984 
L 240.524887 -52.519706 
L 239.808894 -50.967177 
L 239.0929 -49.386303 
L 238.376906 -47.791025 
L 237.660912 -46.195813 
L 236.944919 -44.61517 
L 236.228925 -43.063164 
L 235.512931 -41.553003 
L 234.796937 -40.09668 
L 234.080944 -38.704686 
L 233.36495 -37.385801 
L 232.648956 -36.146971 
L 231.932962 -34.993257 
L 231.216969 -33.927864 
L 230.500975 -32.95222 
L 229.784981 -32.066119 
L 229.068987 -31.267898 
L 228.352994 -30.554637 
L 227.637 -29.922384 
L 226.921006 -29.366378 
L 226.205012 -28.881267 
L 225.489019 -28.461314 
L 224.773025 -28.100588 
L 224.057031 -27.793129 
L 223.341038 -27.533086 
L 222.625044 -27.31483 
L 221.90905 -27.133047 
L 221.193056 -26.982796 
L 220.477063 -26.859553 
L 219.761069 -26.759233 
L 219.045075 -26.678195 
L 218.329081 -26.613231 
L 217.613088 -26.561549 
L 216.897094 -26.520749 
L 216.1811 -26.488786 
L 215.465106 -26.463937 
L 214.749113 -26.444768 
L 214.033119 -26.430095 
z
" style="stroke: #858585; stroke-width: 0.01"/>
    </defs>
    <g clip-path="url(#pbc66439641)">
     <use xlink:href="#ma081d85ac3" x="0" y="197.285" style="fill: #858585; fill-opacity: 0.25; stroke: #858585; stroke-width: 0.01"/>
    </g>
   </g>
   <g id="line2d_17">
    <path d="M 108.067251 170.88318 
L 120.759443 170.739687 
L 129.220904 170.413615 
L 139.79773 169.712068 
L 148.259191 169.184767 
L 154.605286 168.972183 
L 160.951382 168.95666 
L 167.297478 169.139003 
L 175.758939 169.635595 
L 186.335765 170.293023 
L 192.681861 170.452175 
L 199.027956 170.319961 
L 203.258687 170.043996 
L 207.489417 169.593577 
L 211.720148 168.926681 
L 215.950878 167.96951 
L 220.181609 166.615788 
L 222.296974 165.752342 
L 224.412339 164.745536 
L 226.527704 163.584127 
L 228.64307 162.260558 
L 230.758435 160.771566 
L 232.8738 159.118183 
L 234.989165 157.305087 
L 239.219896 153.228737 
L 243.450626 148.595425 
L 247.681357 143.407558 
L 251.912087 137.571654 
L 254.027452 134.35299 
L 256.142818 130.894134 
L 258.258183 127.164979 
L 260.373548 123.14068 
L 262.488913 118.807348 
L 264.604278 114.168133 
L 268.835009 104.103191 
L 275.181105 88.281912 
L 277.29647 83.336673 
L 279.411835 78.827358 
L 281.5272 74.923129 
L 283.642565 71.78183 
L 285.757931 69.539345 
L 287.873296 68.300566 
L 289.988661 68.132732 
L 292.104026 69.0615 
L 294.219392 71.069865 
L 296.334757 74.099733 
L 298.450122 78.05583 
L 300.565487 82.811517 
L 302.680853 88.216054 
L 306.911583 100.298019 
L 313.257679 119.064725 
L 315.373044 124.898007 
L 317.488409 130.334764 
L 319.603774 135.303965 
L 321.71914 139.762417 
L 323.834505 143.693295 
L 325.94987 147.103335 
L 328.065235 150.01904 
L 330.180601 152.48224 
L 332.295966 154.545357 
L 334.411331 156.266681 
L 336.526696 157.705935 
L 338.642061 158.92037 
L 340.757427 159.961567 
L 344.988157 161.689265 
L 349.218888 163.124105 
L 353.449618 164.360265 
L 357.680349 165.39992 
L 361.911079 166.222403 
L 366.141809 166.839758 
L 374.60327 167.735612 
L 383.064731 168.673391 
L 393.641557 169.914939 
L 399.987653 170.43108 
L 406.333749 170.717147 
L 414.79521 170.860132 
L 431.718132 170.85189 
L 442.294958 170.641013 
L 450.756419 170.227923 
L 467.67934 169.241424 
L 476.140801 169.075774 
L 484.602262 169.153808 
L 493.063723 169.497114 
L 514.217376 170.683213 
L 524.794202 170.862492 
L 529.024932 170.883213 
L 529.024932 170.883213 
" clip-path="url(#pbc66439641)" style="fill: none; stroke: #af5a51; stroke-width: 1.2; stroke-linecap: square"/>
   </g>
   <g id="line2d_18">
    <path d="M 193.934975 170.873792 
L 200.38855 170.721561 
L 204.998247 170.381713 
L 209.607943 169.766189 
L 221.593154 167.773045 
L 223.437033 167.320261 
L 225.280911 166.687788 
L 227.12479 165.807956 
L 228.968668 164.631876 
L 230.812547 163.142681 
L 232.656425 161.362037 
L 235.422243 158.276503 
L 249.251333 141.659009 
L 252.93909 136.778097 
L 257.548786 130.195075 
L 260.314604 125.975361 
L 262.158483 122.91197 
L 264.002361 119.481556 
L 265.84624 115.502132 
L 267.690118 110.794524 
L 269.533997 105.229036 
L 271.377876 98.773141 
L 273.221754 91.527033 
L 280.597269 61.039459 
L 282.441147 55.108449 
L 283.363086 52.635179 
L 284.285026 50.520104 
L 285.206965 48.775425 
L 286.128904 47.405946 
L 287.050844 46.410267 
L 287.972783 45.782249 
L 288.894722 45.512574 
L 289.816661 45.590256 
L 290.738601 46.003963 
L 291.66054 46.743022 
L 292.582479 47.79804 
L 293.504419 49.161106 
L 294.426358 50.825578 
L 295.348297 52.785513 
L 297.192176 57.566315 
L 299.036054 63.435217 
L 300.879933 70.276002 
L 302.723812 77.906651 
L 306.411569 94.513451 
L 310.099326 111.006252 
L 312.865144 122.161397 
L 314.709022 128.76401 
L 316.552901 134.639085 
L 318.396779 139.781232 
L 320.240658 144.206237 
L 322.084537 147.939273 
L 323.928415 151.011447 
L 325.772294 153.462905 
L 327.616172 155.348344 
L 329.460051 156.740483 
L 331.30393 157.728682 
L 333.147808 158.412499 
L 335.913626 159.084768 
L 342.367201 160.365769 
L 345.133019 161.174692 
L 347.898837 162.231242 
L 350.664655 163.517756 
L 359.884048 168.161662 
L 362.649865 169.180572 
L 365.415683 169.910858 
L 368.181501 170.38036 
L 371.869258 170.709074 
L 376.478955 170.855776 
L 377.400894 170.86765 
L 377.400894 170.86765 
" clip-path="url(#pbc66439641)" style="fill: none; stroke: #608eb4; stroke-width: 1.2; stroke-linecap: square"/>
   </g>
   <g id="patch_3">
    <path d="M 41.340938 170.8975 
L 41.340938 32.2975 
" style="fill: none; stroke: #bbbbbb; stroke-width: 0.75; stroke-linejoin: miter; stroke-linecap: square"/>
   </g>
   <g id="patch_4">
    <path d="M 46.340938 175.8975 
L 604.340938 175.8975 
" style="fill: none; stroke: #bbbbbb; stroke-width: 0.75; stroke-linejoin: miter; stroke-linecap: square"/>
   </g>
   <g id="legend_1">
    <g id="patch_5">
     <path d="M 53.540938 16.66375 
L 69.540938 16.66375 
L 69.540938 11.06375 
L 53.540938 11.06375 
z
" style="fill: #858585; fill-opacity: 0.25; stroke: #858585; stroke-width: 0.01; stroke-linejoin: miter"/>
    </g>
    <g id="text_19">
     <!-- Normal distribution -->
     <g style="fill: #4b4b4b" transform="translate(75.940938 16.66375) scale(0.08 -0.08)">
      <defs>
       <path id="Ubuntu-4e" d="M 3590 0 
Q 3450 237 3267 531 
Q 3085 826 2873 1142 
Q 2662 1459 2435 1785 
Q 2208 2112 1984 2416 
Q 1760 2720 1549 2989 
Q 1338 3258 1158 3462 
L 1158 0 
L 550 0 
L 550 4435 
L 1043 4435 
Q 1344 4115 1686 3689 
Q 2029 3264 2365 2813 
Q 2701 2362 2998 1926 
Q 3296 1491 3501 1152 
L 3501 4435 
L 4109 4435 
L 4109 0 
L 3590 0 
z
" transform="scale(0.015625)"/>
       <path id="Ubuntu-6f" d="M 3450 1664 
Q 3450 1267 3334 947 
Q 3219 627 3011 396 
Q 2803 166 2515 41 
Q 2227 -83 1888 -83 
Q 1549 -83 1261 41 
Q 973 166 765 396 
Q 557 627 441 947 
Q 326 1267 326 1664 
Q 326 2054 441 2377 
Q 557 2701 765 2931 
Q 973 3162 1261 3286 
Q 1549 3411 1888 3411 
Q 2227 3411 2515 3286 
Q 2803 3162 3011 2931 
Q 3219 2701 3334 2377 
Q 3450 2054 3450 1664 
z
M 2829 1664 
Q 2829 2227 2576 2556 
Q 2323 2886 1888 2886 
Q 1453 2886 1200 2556 
Q 947 2227 947 1664 
Q 947 1101 1200 771 
Q 1453 442 1888 442 
Q 2323 442 2576 771 
Q 2829 1101 2829 1664 
z
" transform="scale(0.015625)"/>
       <path id="Ubuntu-72" d="M 1741 3398 
Q 1818 3398 1917 3388 
Q 2016 3379 2112 3363 
Q 2208 3347 2288 3331 
Q 2368 3315 2406 3302 
L 2304 2784 
Q 2234 2810 2070 2845 
Q 1907 2880 1651 2880 
Q 1485 2880 1321 2845 
Q 1158 2810 1107 2797 
L 1107 0 
L 512 0 
L 512 3187 
Q 723 3264 1036 3331 
Q 1350 3398 1741 3398 
z
" transform="scale(0.015625)"/>
       <path id="Ubuntu-6d" d="M 512 3232 
Q 717 3283 1053 3340 
Q 1389 3398 1830 3398 
Q 2150 3398 2368 3312 
Q 2586 3226 2733 3059 
Q 2778 3091 2874 3148 
Q 2970 3206 3110 3260 
Q 3251 3315 3424 3356 
Q 3597 3398 3795 3398 
Q 4179 3398 4422 3286 
Q 4666 3174 4803 2969 
Q 4941 2765 4989 2483 
Q 5037 2202 5037 1869 
L 5037 0 
L 4442 0 
L 4442 1741 
Q 4442 2035 4413 2246 
Q 4384 2458 4304 2598 
Q 4224 2739 4086 2806 
Q 3949 2874 3731 2874 
Q 3430 2874 3235 2794 
Q 3040 2714 2970 2650 
Q 3021 2483 3046 2284 
Q 3072 2086 3072 1869 
L 3072 0 
L 2477 0 
L 2477 1741 
Q 2477 2035 2445 2246 
Q 2413 2458 2333 2598 
Q 2253 2739 2115 2806 
Q 1978 2874 1766 2874 
Q 1677 2874 1574 2867 
Q 1472 2861 1379 2851 
Q 1286 2842 1209 2829 
Q 1133 2816 1107 2810 
L 1107 0 
L 512 0 
L 512 3232 
z
" transform="scale(0.015625)"/>
       <path id="Ubuntu-61" d="M 1638 429 
Q 1850 429 2013 438 
Q 2176 448 2285 474 
L 2285 1466 
Q 2221 1498 2077 1520 
Q 1933 1542 1728 1542 
Q 1594 1542 1443 1523 
Q 1293 1504 1168 1443 
Q 1043 1382 960 1276 
Q 877 1171 877 998 
Q 877 678 1081 553 
Q 1286 429 1638 429 
z
M 1587 3411 
Q 1946 3411 2192 3318 
Q 2438 3226 2588 3056 
Q 2739 2886 2803 2652 
Q 2867 2419 2867 2138 
L 2867 58 
Q 2790 45 2652 22 
Q 2515 0 2342 -19 
Q 2170 -38 1968 -54 
Q 1766 -70 1568 -70 
Q 1286 -70 1049 -12 
Q 813 45 640 169 
Q 467 294 371 499 
Q 275 704 275 992 
Q 275 1267 387 1465 
Q 499 1664 691 1785 
Q 883 1907 1139 1964 
Q 1395 2022 1677 2022 
Q 1766 2022 1862 2012 
Q 1958 2003 2044 1987 
Q 2131 1971 2195 1958 
Q 2259 1946 2285 1939 
L 2285 2106 
Q 2285 2253 2253 2397 
Q 2221 2541 2137 2653 
Q 2054 2765 1910 2832 
Q 1766 2899 1536 2899 
Q 1242 2899 1021 2857 
Q 800 2816 691 2771 
L 621 3264 
Q 736 3315 1005 3363 
Q 1274 3411 1587 3411 
z
" transform="scale(0.015625)"/>
       <path id="Ubuntu-6c" d="M 1510 -64 
Q 960 -51 729 173 
Q 499 397 499 870 
L 499 4864 
L 1094 4966 
L 1094 966 
Q 1094 819 1120 723 
Q 1146 627 1203 569 
Q 1261 512 1357 483 
Q 1453 454 1594 435 
L 1510 -64 
z
" transform="scale(0.015625)"/>
       <path id="Ubuntu-20" transform="scale(0.015625)"/>
       <path id="Ubuntu-64" d="M 2662 2624 
Q 2554 2714 2349 2797 
Q 2144 2880 1901 2880 
Q 1645 2880 1462 2787 
Q 1280 2694 1165 2531 
Q 1050 2368 998 2144 
Q 947 1920 947 1664 
Q 947 1082 1235 765 
Q 1523 448 2003 448 
Q 2246 448 2409 470 
Q 2573 493 2662 518 
L 2662 2624 
z
M 2662 4864 
L 3258 4966 
L 3258 96 
Q 3053 38 2733 -19 
Q 2413 -77 1997 -77 
Q 1613 -77 1305 44 
Q 998 166 780 390 
Q 563 614 444 937 
Q 326 1261 326 1664 
Q 326 2048 425 2368 
Q 525 2688 717 2918 
Q 909 3149 1187 3277 
Q 1466 3405 1824 3405 
Q 2112 3405 2333 3328 
Q 2554 3251 2662 3181 
L 2662 4864 
z
" transform="scale(0.015625)"/>
       <path id="Ubuntu-69" d="M 1107 0 
L 512 0 
L 512 3328 
L 1107 3328 
L 1107 0 
z
M 806 3930 
Q 646 3930 534 4035 
Q 422 4141 422 4320 
Q 422 4499 534 4604 
Q 646 4710 806 4710 
Q 966 4710 1078 4604 
Q 1190 4499 1190 4320 
Q 1190 4141 1078 4035 
Q 966 3930 806 3930 
z
" transform="scale(0.015625)"/>
       <path id="Ubuntu-73" d="M 1286 429 
Q 1651 429 1827 525 
Q 2003 621 2003 832 
Q 2003 1050 1830 1178 
Q 1658 1306 1261 1466 
Q 1069 1542 893 1622 
Q 717 1702 589 1811 
Q 461 1920 384 2073 
Q 307 2227 307 2451 
Q 307 2893 633 3152 
Q 960 3411 1523 3411 
Q 1664 3411 1805 3395 
Q 1946 3379 2067 3356 
Q 2189 3334 2281 3308 
Q 2374 3283 2426 3264 
L 2317 2752 
Q 2221 2803 2016 2857 
Q 1811 2912 1523 2912 
Q 1274 2912 1088 2813 
Q 902 2714 902 2502 
Q 902 2394 944 2310 
Q 986 2227 1072 2160 
Q 1158 2093 1286 2035 
Q 1414 1978 1594 1914 
Q 1830 1824 2016 1737 
Q 2202 1651 2333 1536 
Q 2464 1421 2534 1257 
Q 2605 1094 2605 858 
Q 2605 397 2262 160 
Q 1920 -77 1286 -77 
Q 845 -77 595 -3 
Q 346 70 256 109 
L 365 621 
Q 467 582 691 505 
Q 915 429 1286 429 
z
" transform="scale(0.015625)"/>
       <path id="Ubuntu-74" d="M 1069 3328 
L 2330 3328 
L 2330 2829 
L 1069 2829 
L 1069 1293 
Q 1069 1043 1107 880 
Q 1146 717 1222 624 
Q 1299 531 1414 492 
Q 1530 454 1683 454 
Q 1952 454 2115 515 
Q 2278 576 2342 602 
L 2458 109 
Q 2368 64 2144 -3 
Q 1920 -70 1632 -70 
Q 1293 -70 1072 16 
Q 851 102 716 275 
Q 582 448 528 701 
Q 474 954 474 1286 
L 474 4256 
L 1069 4358 
L 1069 3328 
z
" transform="scale(0.015625)"/>
       <path id="Ubuntu-62" d="M 1107 3181 
Q 1216 3251 1437 3328 
Q 1658 3405 1946 3405 
Q 2304 3405 2582 3277 
Q 2861 3149 3053 2918 
Q 3245 2688 3344 2368 
Q 3443 2048 3443 1664 
Q 3443 1261 3324 937 
Q 3206 614 2988 390 
Q 2771 166 2464 44 
Q 2157 -77 1773 -77 
Q 1357 -77 1037 -19 
Q 717 38 512 96 
L 512 4864 
L 1107 4966 
L 1107 3181 
z
M 1107 518 
Q 1197 493 1360 470 
Q 1523 448 1766 448 
Q 2246 448 2534 765 
Q 2822 1082 2822 1664 
Q 2822 1920 2771 2144 
Q 2720 2368 2605 2531 
Q 2490 2694 2307 2787 
Q 2125 2880 1869 2880 
Q 1626 2880 1421 2797 
Q 1216 2714 1107 2624 
L 1107 518 
z
" transform="scale(0.015625)"/>
       <path id="Ubuntu-75" d="M 3162 96 
Q 2957 45 2621 -12 
Q 2285 -70 1843 -70 
Q 1459 -70 1196 42 
Q 934 154 774 358 
Q 614 563 544 841 
Q 474 1120 474 1459 
L 474 3328 
L 1069 3328 
L 1069 1587 
Q 1069 979 1261 716 
Q 1453 454 1907 454 
Q 2003 454 2105 460 
Q 2208 467 2297 476 
Q 2387 486 2460 496 
Q 2534 506 2566 518 
L 2566 3328 
L 3162 3328 
L 3162 96 
z
" transform="scale(0.015625)"/>
       <path id="Ubuntu-6e" d="M 512 3232 
Q 717 3283 1056 3340 
Q 1395 3398 1837 3398 
Q 2234 3398 2496 3286 
Q 2758 3174 2915 2972 
Q 3072 2771 3136 2489 
Q 3200 2208 3200 1869 
L 3200 0 
L 2605 0 
L 2605 1741 
Q 2605 2048 2563 2265 
Q 2522 2483 2426 2617 
Q 2330 2752 2170 2813 
Q 2010 2874 1773 2874 
Q 1677 2874 1574 2867 
Q 1472 2861 1379 2851 
Q 1286 2842 1212 2829 
Q 1139 2816 1107 2810 
L 1107 0 
L 512 0 
L 512 3232 
z
" transform="scale(0.015625)"/>
      </defs>
      <use xlink:href="#Ubuntu-4e"/>
      <use xlink:href="#Ubuntu-6f" x="72.799988"/>
      <use xlink:href="#Ubuntu-72" x="131.799973"/>
      <use xlink:href="#Ubuntu-6d" x="170.399963"/>
      <use xlink:href="#Ubuntu-61" x="256.499954"/>
      <use xlink:href="#Ubuntu-6c" x="308.699951"/>
      <use xlink:href="#Ubuntu-20" x="335.999939"/>
      <use xlink:href="#Ubuntu-64" x="359.09993"/>
      <use xlink:href="#Ubuntu-69" x="417.999924"/>
      <use xlink:href="#Ubuntu-73" x="443.299911"/>
      <use xlink:href="#Ubuntu-74" x="487.899902"/>
      <use xlink:href="#Ubuntu-72" x="528.099899"/>
      <use xlink:href="#Ubuntu-69" x="566.69989"/>
      <use xlink:href="#Ubuntu-62" x="591.999878"/>
      <use xlink:href="#Ubuntu-75" x="650.899872"/>
      <use xlink:href="#Ubuntu-74" x="708.299866"/>
      <use xlink:href="#Ubuntu-69" x="748.499863"/>
      <use xlink:href="#Ubuntu-6f" x="773.79985"/>
      <use xlink:href="#Ubuntu-6e" x="832.799835"/>
     </g>
    </g>
    <g id="line2d_19">
     <path d="M 163.155938 13.86375 
L 171.155938 13.86375 
L 179.155938 13.86375 
" style="fill: none; stroke: #af5a51; stroke-width: 1.2; stroke-linecap: square"/>
    </g>
    <g id="text_20">
     <!-- Residuals (original) -->
     <g style="fill: #4b4b4b" transform="translate(185.555938 16.66375) scale(0.08 -0.08)">
      <defs>
       <path id="Ubuntu-52" d="M 2720 1856 
Q 2822 1728 2979 1520 
Q 3136 1312 3302 1059 
Q 3469 806 3632 531 
Q 3795 256 3910 0 
L 3232 0 
Q 3104 243 2953 492 
Q 2803 742 2649 969 
Q 2496 1197 2345 1395 
Q 2195 1594 2074 1741 
Q 1990 1734 1904 1734 
Q 1818 1734 1728 1734 
L 1171 1734 
L 1171 0 
L 550 0 
L 550 4371 
Q 813 4435 1136 4457 
Q 1459 4480 1728 4480 
Q 2662 4480 3152 4128 
Q 3642 3776 3642 3078 
Q 3642 2637 3408 2323 
Q 3174 2010 2720 1856 
z
M 1779 3936 
Q 1382 3936 1171 3917 
L 1171 2246 
L 1613 2246 
Q 1933 2246 2189 2278 
Q 2445 2310 2621 2400 
Q 2797 2490 2893 2653 
Q 2989 2816 2989 3085 
Q 2989 3334 2893 3500 
Q 2797 3667 2633 3763 
Q 2470 3859 2249 3897 
Q 2029 3936 1779 3936 
z
" transform="scale(0.015625)"/>
       <path id="Ubuntu-28" d="M 1094 1914 
Q 1094 1094 1331 396 
Q 1568 -301 2029 -896 
L 1606 -1184 
Q 1107 -576 803 214 
Q 499 1005 499 1914 
Q 499 2822 803 3612 
Q 1107 4403 1606 5011 
L 2029 4723 
Q 1568 4128 1331 3430 
Q 1094 2733 1094 1914 
z
" transform="scale(0.015625)"/>
       <path id="Ubuntu-67" d="M 2598 333 
Q 2522 282 2301 202 
Q 2080 122 1786 122 
Q 1485 122 1219 218 
Q 954 314 755 515 
Q 557 717 441 1017 
Q 326 1318 326 1734 
Q 326 2099 435 2403 
Q 544 2707 752 2928 
Q 960 3149 1261 3273 
Q 1562 3398 1939 3398 
Q 2355 3398 2665 3337 
Q 2976 3277 3187 3226 
L 3187 256 
Q 3187 -512 2790 -857 
Q 2394 -1203 1587 -1203 
Q 1274 -1203 995 -1152 
Q 717 -1101 512 -1030 
L 621 -512 
Q 800 -582 1059 -636 
Q 1318 -691 1600 -691 
Q 2131 -691 2364 -480 
Q 2598 -269 2598 192 
L 2598 333 
z
M 2592 2803 
Q 2502 2829 2352 2851 
Q 2202 2874 1946 2874 
Q 1466 2874 1206 2560 
Q 947 2246 947 1728 
Q 947 1440 1020 1235 
Q 1094 1030 1219 896 
Q 1344 762 1507 698 
Q 1670 634 1843 634 
Q 2080 634 2278 701 
Q 2477 768 2592 858 
L 2592 2803 
z
" transform="scale(0.015625)"/>
       <path id="Ubuntu-29" d="M 979 1914 
Q 979 2733 742 3430 
Q 506 4128 45 4723 
L 467 5011 
Q 966 4403 1270 3612 
Q 1574 2822 1574 1914 
Q 1574 1005 1270 214 
Q 966 -576 467 -1184 
L 45 -896 
Q 506 -301 742 396 
Q 979 1094 979 1914 
z
" transform="scale(0.015625)"/>
      </defs>
      <use xlink:href="#Ubuntu-52"/>
      <use xlink:href="#Ubuntu-65" x="62.899994"/>
      <use xlink:href="#Ubuntu-73" x="118.799988"/>
      <use xlink:href="#Ubuntu-69" x="163.399979"/>
      <use xlink:href="#Ubuntu-64" x="188.699966"/>
      <use xlink:href="#Ubuntu-75" x="247.59996"/>
      <use xlink:href="#Ubuntu-61" x="304.999954"/>
      <use xlink:href="#Ubuntu-6c" x="357.199951"/>
      <use xlink:href="#Ubuntu-73" x="384.499939"/>
      <use xlink:href="#Ubuntu-20" x="429.09993"/>
      <use xlink:href="#Ubuntu-28" x="452.199921"/>
      <use xlink:href="#Ubuntu-6f" x="484.599915"/>
      <use xlink:href="#Ubuntu-72" x="543.599899"/>
      <use xlink:href="#Ubuntu-69" x="582.19989"/>
      <use xlink:href="#Ubuntu-67" x="607.499878"/>
      <use xlink:href="#Ubuntu-69" x="665.299866"/>
      <use xlink:href="#Ubuntu-6e" x="690.599854"/>
      <use xlink:href="#Ubuntu-61" x="747.999847"/>
      <use xlink:href="#Ubuntu-6c" x="800.199844"/>
      <use xlink:href="#Ubuntu-29" x="827.499832"/>
     </g>
    </g>
    <g id="line2d_20">
     <path d="M 270.348438 13.86375 
L 278.348438 13.86375 
L 286.348438 13.86375 
" style="fill: none; stroke: #608eb4; stroke-width: 1.2; stroke-linecap: square"/>
    </g>
    <g id="text_21">
     <!-- Residuals (trimmed) -->
     <g style="fill: #4b4b4b" transform="translate(292.748438 16.66375) scale(0.08 -0.08)">
      <use xlink:href="#Ubuntu-52"/>
      <use xlink:href="#Ubuntu-65" x="62.899994"/>
      <use xlink:href="#Ubuntu-73" x="118.799988"/>
      <use xlink:href="#Ubuntu-69" x="163.399979"/>
      <use xlink:href="#Ubuntu-64" x="188.699966"/>
      <use xlink:href="#Ubuntu-75" x="247.59996"/>
      <use xlink:href="#Ubuntu-61" x="304.999954"/>
      <use xlink:href="#Ubuntu-6c" x="357.199951"/>
      <use xlink:href="#Ubuntu-73" x="384.499939"/>
      <use xlink:href="#Ubuntu-20" x="429.09993"/>
      <use xlink:href="#Ubuntu-28" x="452.199921"/>
      <use xlink:href="#Ubuntu-74" x="484.599915"/>
      <use xlink:href="#Ubuntu-72" x="524.799911"/>
      <use xlink:href="#Ubuntu-69" x="563.399902"/>
      <use xlink:href="#Ubuntu-6d" x="588.69989"/>
      <use xlink:href="#Ubuntu-6d" x="674.799881"/>
      <use xlink:href="#Ubuntu-65" x="760.899872"/>
      <use xlink:href="#Ubuntu-64" x="816.799866"/>
      <use xlink:href="#Ubuntu-29" x="875.69986"/>
     </g>
    </g>
   </g>
  </g>
 </g>
 <defs>
  <clipPath id="pbc66439641">
   <rect x="46.340938" y="32.2975" width="558" height="138.6"/>
  </clipPath>
 </defs>
</svg>
