<?xml version="1.0" encoding="utf-8" standalone="no"?>
<!DOCTYPE svg PUBLIC "-//W3C//DTD SVG 1.1//EN"
  "http://www.w3.org/Graphics/SVG/1.1/DTD/svg11.dtd">
<svg xmlns:xlink="http://www.w3.org/1999/xlink" width="525.111719pt" height="188.835938pt" viewBox="0 0 525.111719 188.835938" xmlns="http://www.w3.org/2000/svg" version="1.1">
 <metadata>
  <rdf:RDF xmlns:dc="http://purl.org/dc/elements/1.1/" xmlns:cc="http://creativecommons.org/ns#" xmlns:rdf="http://www.w3.org/1999/02/22-rdf-syntax-ns#">
   <cc:Work>
    <dc:type rdf:resource="http://purl.org/dc/dcmitype/StillImage"/>
    <dc:date>2024-02-21T19:43:00.267690</dc:date>
    <dc:format>image/svg+xml</dc:format>
    <dc:creator>
     <cc:Agent>
      <dc:title>Matplotlib v3.8.0, https://matplotlib.org/</dc:title>
     </cc:Agent>
    </dc:creator>
   </cc:Work>
  </rdf:RDF>
 </metadata>
 <defs>
  <style type="text/css">*{stroke-linejoin: round; stroke-linecap: butt}</style>
 </defs>
 <g id="figure_1">
  <g id="patch_1">
   <path d="M 0 188.835938 
L 525.111719 188.835938 
L 525.111719 0 
L 0 0 
L 0 188.835938 
z
" style="fill: none"/>
  </g>
  <g id="axes_1">
   <g id="patch_2">
    <path d="M 62.486719 145.8 
L 508.886719 145.8 
L 508.886719 7.2 
L 62.486719 7.2 
L 62.486719 145.8 
z
" style="fill: none"/>
   </g>
   <g id="matplotlib.axis_1">
    <g id="xtick_1">
     <g id="line2d_1">
      <defs>
       <path id="m0a37d7d040" d="M 0 0 
L 0 3 
" style="stroke: #bbbbbb; stroke-width: 0.75"/>
      </defs>
      <g>
       <use xlink:href="#m0a37d7d040" x="62.486719" y="150.8" style="fill: #bbbbbb; stroke: #bbbbbb; stroke-width: 0.75"/>
      </g>
     </g>
     <g id="text_1">
      <!-- 0 -->
      <g style="fill: #9f9f9f" transform="translate(60.230469 163.5075) scale(0.08 -0.08)">
       <defs>
        <path id="Ubuntu-30" d="M 320 2221 
Q 320 3334 713 3936 
Q 1107 4538 1805 4538 
Q 2502 4538 2896 3936 
Q 3290 3334 3290 2221 
Q 3290 1107 2896 505 
Q 2502 -96 1805 -96 
Q 1107 -96 713 505 
Q 320 1107 320 2221 
z
M 2662 2221 
Q 2662 2586 2620 2912 
Q 2579 3238 2480 3481 
Q 2381 3725 2214 3869 
Q 2048 4013 1805 4013 
Q 1562 4013 1395 3869 
Q 1229 3725 1129 3481 
Q 1030 3238 988 2912 
Q 947 2586 947 2221 
Q 947 1856 988 1529 
Q 1030 1203 1129 960 
Q 1229 717 1395 573 
Q 1562 429 1805 429 
Q 2048 429 2214 573 
Q 2381 717 2480 960 
Q 2579 1203 2620 1529 
Q 2662 1856 2662 2221 
z
" transform="scale(0.015625)"/>
       </defs>
       <use xlink:href="#Ubuntu-30"/>
      </g>
     </g>
    </g>
    <g id="xtick_2">
     <g id="line2d_2">
      <g>
       <use xlink:href="#m0a37d7d040" x="112.086719" y="150.8" style="fill: #bbbbbb; stroke: #bbbbbb; stroke-width: 0.75"/>
      </g>
     </g>
     <g id="text_2">
      <!-- 500 -->
      <g style="fill: #9f9f9f" transform="translate(105.317969 163.5075) scale(0.08 -0.08)">
       <defs>
        <path id="Ubuntu-35" d="M 1274 2726 
Q 2240 2688 2691 2304 
Q 3142 1920 3142 1261 
Q 3142 966 3043 716 
Q 2944 467 2742 288 
Q 2541 109 2233 6 
Q 1926 -96 1504 -96 
Q 1338 -96 1165 -70 
Q 992 -45 845 -6 
Q 698 32 582 70 
Q 467 109 416 134 
L 531 653 
Q 640 602 886 518 
Q 1133 435 1491 435 
Q 1779 435 1974 499 
Q 2170 563 2291 672 
Q 2413 781 2467 925 
Q 2522 1069 2522 1229 
Q 2522 1472 2438 1661 
Q 2355 1850 2144 1978 
Q 1933 2106 1581 2173 
Q 1229 2240 691 2240 
Q 730 2554 752 2829 
Q 774 3104 793 3366 
Q 813 3629 825 3888 
Q 838 4147 851 4435 
L 2989 4435 
L 2989 3930 
L 1370 3930 
Q 1363 3834 1350 3670 
Q 1338 3507 1325 3331 
Q 1312 3155 1299 2988 
Q 1286 2822 1274 2726 
z
" transform="scale(0.015625)"/>
       </defs>
       <use xlink:href="#Ubuntu-35"/>
       <use xlink:href="#Ubuntu-30" x="56.399994"/>
       <use xlink:href="#Ubuntu-30" x="112.799988"/>
      </g>
     </g>
    </g>
    <g id="xtick_3">
     <g id="line2d_3">
      <g>
       <use xlink:href="#m0a37d7d040" x="161.686719" y="150.8" style="fill: #bbbbbb; stroke: #bbbbbb; stroke-width: 0.75"/>
      </g>
     </g>
     <g id="text_3">
      <!-- 1000 -->
      <g style="fill: #9f9f9f" transform="translate(152.661719 163.5075) scale(0.08 -0.08)">
       <defs>
        <path id="Ubuntu-31" d="M 595 3520 
Q 960 3661 1305 3881 
Q 1651 4102 1939 4435 
L 2362 4435 
L 2362 0 
L 1766 0 
L 1766 3610 
Q 1690 3539 1578 3462 
Q 1466 3386 1334 3315 
Q 1203 3245 1059 3181 
Q 915 3117 781 3072 
L 595 3520 
z
" transform="scale(0.015625)"/>
       </defs>
       <use xlink:href="#Ubuntu-31"/>
       <use xlink:href="#Ubuntu-30" x="56.399994"/>
       <use xlink:href="#Ubuntu-30" x="112.799988"/>
       <use xlink:href="#Ubuntu-30" x="169.199982"/>
      </g>
     </g>
    </g>
    <g id="xtick_4">
     <g id="line2d_4">
      <g>
       <use xlink:href="#m0a37d7d040" x="211.286719" y="150.8" style="fill: #bbbbbb; stroke: #bbbbbb; stroke-width: 0.75"/>
      </g>
     </g>
     <g id="text_4">
      <!-- 1500 -->
      <g style="fill: #9f9f9f" transform="translate(202.261719 163.5075) scale(0.08 -0.08)">
       <use xlink:href="#Ubuntu-31"/>
       <use xlink:href="#Ubuntu-35" x="56.399994"/>
       <use xlink:href="#Ubuntu-30" x="112.799988"/>
       <use xlink:href="#Ubuntu-30" x="169.199982"/>
      </g>
     </g>
    </g>
    <g id="xtick_5">
     <g id="line2d_5">
      <g>
       <use xlink:href="#m0a37d7d040" x="260.886719" y="150.8" style="fill: #bbbbbb; stroke: #bbbbbb; stroke-width: 0.75"/>
      </g>
     </g>
     <g id="text_5">
      <!-- 2000 -->
      <g style="fill: #9f9f9f" transform="translate(251.861719 163.5075) scale(0.08 -0.08)">
       <defs>
        <path id="Ubuntu-32" d="M 2989 3302 
Q 2989 3072 2896 2857 
Q 2803 2643 2649 2435 
Q 2496 2227 2304 2025 
Q 2112 1824 1920 1632 
Q 1811 1523 1667 1376 
Q 1523 1229 1395 1069 
Q 1267 909 1180 761 
Q 1094 614 1094 506 
L 3136 506 
L 3136 0 
L 448 0 
Q 442 38 442 76 
Q 442 115 442 147 
Q 442 448 541 707 
Q 640 966 800 1196 
Q 960 1427 1158 1632 
Q 1357 1837 1549 2029 
Q 1709 2182 1853 2332 
Q 1997 2483 2109 2633 
Q 2221 2784 2288 2944 
Q 2355 3104 2355 3283 
Q 2355 3475 2294 3609 
Q 2234 3744 2131 3833 
Q 2029 3923 1891 3964 
Q 1754 4006 1600 4006 
Q 1414 4006 1260 3955 
Q 1107 3904 985 3837 
Q 864 3770 781 3696 
Q 698 3622 653 3584 
L 358 4006 
Q 416 4070 531 4163 
Q 646 4256 806 4339 
Q 966 4422 1164 4480 
Q 1363 4538 1594 4538 
Q 2291 4538 2640 4214 
Q 2989 3891 2989 3302 
z
" transform="scale(0.015625)"/>
       </defs>
       <use xlink:href="#Ubuntu-32"/>
       <use xlink:href="#Ubuntu-30" x="56.399994"/>
       <use xlink:href="#Ubuntu-30" x="112.799988"/>
       <use xlink:href="#Ubuntu-30" x="169.199982"/>
      </g>
     </g>
    </g>
    <g id="xtick_6">
     <g id="line2d_6">
      <g>
       <use xlink:href="#m0a37d7d040" x="310.486719" y="150.8" style="fill: #bbbbbb; stroke: #bbbbbb; stroke-width: 0.75"/>
      </g>
     </g>
     <g id="text_6">
      <!-- 2500 -->
      <g style="fill: #9f9f9f" transform="translate(301.461719 163.5075) scale(0.08 -0.08)">
       <use xlink:href="#Ubuntu-32"/>
       <use xlink:href="#Ubuntu-35" x="56.399994"/>
       <use xlink:href="#Ubuntu-30" x="112.799988"/>
       <use xlink:href="#Ubuntu-30" x="169.199982"/>
      </g>
     </g>
    </g>
    <g id="xtick_7">
     <g id="line2d_7">
      <g>
       <use xlink:href="#m0a37d7d040" x="360.086719" y="150.8" style="fill: #bbbbbb; stroke: #bbbbbb; stroke-width: 0.75"/>
      </g>
     </g>
     <g id="text_7">
      <!-- 3000 -->
      <g style="fill: #9f9f9f" transform="translate(351.061719 163.5075) scale(0.08 -0.08)">
       <defs>
        <path id="Ubuntu-33" d="M 1446 435 
Q 2016 435 2262 659 
Q 2509 883 2509 1261 
Q 2509 1504 2406 1670 
Q 2304 1837 2137 1936 
Q 1971 2035 1750 2076 
Q 1530 2118 1299 2118 
L 1146 2118 
L 1146 2605 
L 1357 2605 
Q 1517 2605 1686 2637 
Q 1856 2669 1997 2752 
Q 2138 2835 2227 2979 
Q 2317 3123 2317 3341 
Q 2317 3520 2253 3648 
Q 2189 3776 2083 3859 
Q 1978 3942 1840 3977 
Q 1702 4013 1549 4013 
Q 1242 4013 1027 3923 
Q 813 3834 666 3738 
L 435 4192 
Q 512 4243 630 4304 
Q 749 4365 896 4416 
Q 1043 4467 1212 4502 
Q 1382 4538 1568 4538 
Q 1920 4538 2176 4451 
Q 2432 4365 2598 4208 
Q 2765 4051 2848 3836 
Q 2931 3622 2931 3373 
Q 2931 3027 2732 2780 
Q 2534 2534 2253 2406 
Q 2426 2355 2586 2259 
Q 2746 2163 2864 2016 
Q 2982 1869 3056 1677 
Q 3130 1485 3130 1248 
Q 3130 960 3030 713 
Q 2931 467 2723 288 
Q 2515 109 2201 6 
Q 1888 -96 1459 -96 
Q 1293 -96 1117 -70 
Q 941 -45 787 -6 
Q 634 32 518 70 
Q 403 109 352 134 
L 467 653 
Q 576 602 829 518 
Q 1082 435 1446 435 
z
" transform="scale(0.015625)"/>
       </defs>
       <use xlink:href="#Ubuntu-33"/>
       <use xlink:href="#Ubuntu-30" x="56.399994"/>
       <use xlink:href="#Ubuntu-30" x="112.799988"/>
       <use xlink:href="#Ubuntu-30" x="169.199982"/>
      </g>
     </g>
    </g>
    <g id="xtick_8">
     <g id="line2d_8">
      <g>
       <use xlink:href="#m0a37d7d040" x="409.686719" y="150.8" style="fill: #bbbbbb; stroke: #bbbbbb; stroke-width: 0.75"/>
      </g>
     </g>
     <g id="text_8">
      <!-- 3500 -->
      <g style="fill: #9f9f9f" transform="translate(400.661719 163.5075) scale(0.08 -0.08)">
       <use xlink:href="#Ubuntu-33"/>
       <use xlink:href="#Ubuntu-35" x="56.399994"/>
       <use xlink:href="#Ubuntu-30" x="112.799988"/>
       <use xlink:href="#Ubuntu-30" x="169.199982"/>
      </g>
     </g>
    </g>
    <g id="xtick_9">
     <g id="line2d_9">
      <g>
       <use xlink:href="#m0a37d7d040" x="459.286719" y="150.8" style="fill: #bbbbbb; stroke: #bbbbbb; stroke-width: 0.75"/>
      </g>
     </g>
     <g id="text_9">
      <!-- 4000 -->
      <g style="fill: #9f9f9f" transform="translate(450.261719 163.5075) scale(0.08 -0.08)">
       <defs>
        <path id="Ubuntu-34" d="M 256 1536 
Q 378 1818 589 2192 
Q 800 2566 1065 2963 
Q 1331 3360 1635 3744 
Q 1939 4128 2246 4435 
L 2816 4435 
L 2816 1619 
L 3341 1619 
L 3341 1133 
L 2816 1133 
L 2816 0 
L 2240 0 
L 2240 1133 
L 256 1133 
L 256 1536 
z
M 2240 3731 
Q 2048 3526 1853 3273 
Q 1658 3021 1472 2745 
Q 1286 2470 1123 2182 
Q 960 1894 832 1619 
L 2240 1619 
L 2240 3731 
z
" transform="scale(0.015625)"/>
       </defs>
       <use xlink:href="#Ubuntu-34"/>
       <use xlink:href="#Ubuntu-30" x="56.399994"/>
       <use xlink:href="#Ubuntu-30" x="112.799988"/>
       <use xlink:href="#Ubuntu-30" x="169.199982"/>
      </g>
     </g>
    </g>
    <g id="xtick_10">
     <g id="line2d_10">
      <g>
       <use xlink:href="#m0a37d7d040" x="508.886719" y="150.8" style="fill: #bbbbbb; stroke: #bbbbbb; stroke-width: 0.75"/>
      </g>
     </g>
     <g id="text_10">
      <!-- 4500 -->
      <g style="fill: #9f9f9f" transform="translate(499.861719 163.5075) scale(0.08 -0.08)">
       <use xlink:href="#Ubuntu-34"/>
       <use xlink:href="#Ubuntu-35" x="56.399994"/>
       <use xlink:href="#Ubuntu-30" x="112.799988"/>
       <use xlink:href="#Ubuntu-30" x="169.199982"/>
      </g>
     </g>
    </g>
    <g id="text_11">
     <!-- Grlivarea -->
     <g style="fill: #505050" transform="translate(62.486719 179.970938) scale(0.09 -0.09)">
      <defs>
       <path id="Ubuntu-Bold-47" d="M 2675 3667 
Q 1978 3667 1667 3280 
Q 1357 2893 1357 2221 
Q 1357 1894 1433 1628 
Q 1510 1363 1664 1171 
Q 1818 979 2048 873 
Q 2278 768 2586 768 
Q 2752 768 2870 774 
Q 2989 781 3078 800 
L 3078 2342 
L 4077 2342 
L 4077 147 
Q 3898 77 3501 -3 
Q 3104 -83 2522 -83 
Q 2022 -83 1616 70 
Q 1210 224 922 518 
Q 634 813 477 1241 
Q 320 1670 320 2221 
Q 320 2778 493 3206 
Q 666 3635 966 3932 
Q 1267 4230 1673 4384 
Q 2080 4538 2541 4538 
Q 2854 4538 3107 4496 
Q 3360 4454 3542 4400 
Q 3725 4346 3843 4288 
Q 3962 4230 4013 4198 
L 3725 3398 
Q 3520 3507 3254 3587 
Q 2989 3667 2675 3667 
z
" transform="scale(0.015625)"/>
       <path id="Ubuntu-Bold-72" d="M 2477 2522 
Q 2349 2554 2176 2589 
Q 2003 2624 1805 2624 
Q 1715 2624 1590 2608 
Q 1466 2592 1402 2573 
L 1402 0 
L 448 0 
L 448 3187 
Q 704 3277 1053 3357 
Q 1402 3437 1830 3437 
Q 1907 3437 2016 3427 
Q 2125 3418 2233 3402 
Q 2342 3386 2451 3363 
Q 2560 3341 2637 3309 
L 2477 2522 
z
" transform="scale(0.015625)"/>
       <path id="Ubuntu-Bold-6c" d="M 1792 -64 
Q 1376 -58 1117 25 
Q 858 109 707 259 
Q 557 410 502 624 
Q 448 838 448 1107 
L 448 4813 
L 1402 4966 
L 1402 1299 
Q 1402 1171 1421 1068 
Q 1440 966 1494 896 
Q 1549 826 1651 781 
Q 1754 736 1926 723 
L 1792 -64 
z
" transform="scale(0.015625)"/>
       <path id="Ubuntu-Bold-69" d="M 1402 0 
L 448 0 
L 448 3366 
L 1402 3366 
L 1402 0 
z
M 1491 4339 
Q 1491 4077 1321 3926 
Q 1152 3776 922 3776 
Q 691 3776 521 3926 
Q 352 4077 352 4339 
Q 352 4602 521 4752 
Q 691 4902 922 4902 
Q 1152 4902 1321 4752 
Q 1491 4602 1491 4339 
z
" transform="scale(0.015625)"/>
       <path id="Ubuntu-Bold-76" d="M 1363 0 
Q 1037 640 701 1497 
Q 365 2355 64 3366 
L 1075 3366 
Q 1139 3117 1225 2825 
Q 1312 2534 1405 2236 
Q 1498 1939 1590 1657 
Q 1683 1376 1773 1146 
Q 1856 1376 1952 1657 
Q 2048 1939 2141 2236 
Q 2234 2534 2320 2825 
Q 2406 3117 2470 3366 
L 3456 3366 
Q 3155 2355 2819 1497 
Q 2483 640 2157 0 
L 1363 0 
z
" transform="scale(0.015625)"/>
       <path id="Ubuntu-Bold-61" d="M 1734 666 
Q 1875 666 2003 672 
Q 2131 678 2208 691 
L 2208 1414 
Q 2150 1427 2035 1440 
Q 1920 1453 1824 1453 
Q 1690 1453 1571 1437 
Q 1453 1421 1363 1376 
Q 1274 1331 1222 1254 
Q 1171 1178 1171 1062 
Q 1171 838 1321 752 
Q 1472 666 1734 666 
z
M 1658 3456 
Q 2080 3456 2361 3360 
Q 2643 3264 2812 3085 
Q 2982 2906 3052 2650 
Q 3123 2394 3123 2080 
L 3123 96 
Q 2918 51 2553 -9 
Q 2189 -70 1670 -70 
Q 1344 -70 1078 -12 
Q 813 45 621 176 
Q 429 307 326 518 
Q 224 730 224 1037 
Q 224 1331 342 1536 
Q 461 1741 659 1862 
Q 858 1984 1114 2038 
Q 1370 2093 1645 2093 
Q 1830 2093 1974 2077 
Q 2118 2061 2208 2035 
L 2208 2125 
Q 2208 2368 2061 2515 
Q 1914 2662 1549 2662 
Q 1306 2662 1069 2627 
Q 832 2592 659 2528 
L 538 3296 
Q 621 3322 745 3350 
Q 870 3379 1017 3401 
Q 1165 3424 1328 3440 
Q 1491 3456 1658 3456 
z
" transform="scale(0.015625)"/>
       <path id="Ubuntu-Bold-65" d="M 288 1658 
Q 288 2106 425 2442 
Q 563 2778 787 3002 
Q 1011 3226 1302 3341 
Q 1594 3456 1901 3456 
Q 2618 3456 3034 3017 
Q 3450 2579 3450 1728 
Q 3450 1645 3443 1545 
Q 3437 1446 3430 1370 
L 1267 1370 
Q 1299 1075 1542 902 
Q 1786 730 2195 730 
Q 2458 730 2710 778 
Q 2963 826 3123 896 
L 3251 122 
Q 3174 83 3046 44 
Q 2918 6 2761 -22 
Q 2605 -51 2425 -70 
Q 2246 -90 2067 -90 
Q 1613 -90 1277 44 
Q 941 179 720 412 
Q 499 646 393 966 
Q 288 1286 288 1658 
z
M 2528 2022 
Q 2522 2144 2486 2259 
Q 2451 2374 2377 2464 
Q 2304 2554 2192 2611 
Q 2080 2669 1914 2669 
Q 1754 2669 1638 2614 
Q 1523 2560 1446 2470 
Q 1370 2381 1328 2262 
Q 1286 2144 1267 2022 
L 2528 2022 
z
" transform="scale(0.015625)"/>
      </defs>
      <use xlink:href="#Ubuntu-Bold-47"/>
      <use xlink:href="#Ubuntu-Bold-72" x="70.199982"/>
      <use xlink:href="#Ubuntu-Bold-6c" x="112.399979"/>
      <use xlink:href="#Ubuntu-Bold-69" x="143.999969"/>
      <use xlink:href="#Ubuntu-Bold-76" x="171.274963"/>
      <use xlink:href="#Ubuntu-Bold-61" x="225.274948"/>
      <use xlink:href="#Ubuntu-Bold-72" x="280.574936"/>
      <use xlink:href="#Ubuntu-Bold-65" x="321.774933"/>
      <use xlink:href="#Ubuntu-Bold-61" x="380.174927"/>
     </g>
    </g>
   </g>
   <g id="matplotlib.axis_2">
    <g id="ytick_1">
     <g id="line2d_11">
      <defs>
       <path id="m4675c4d032" d="M 0 0 
L -3 0 
" style="stroke: #bbbbbb; stroke-width: 0.75"/>
      </defs>
      <g>
       <use xlink:href="#m4675c4d032" x="57.486719" y="140.124623" style="fill: #bbbbbb; stroke: #bbbbbb; stroke-width: 0.75"/>
      </g>
     </g>
     <g id="text_12">
      <!-- 0 -->
      <g style="fill: #9f9f9f" transform="translate(46.474219 143.228373) scale(0.08 -0.08)">
       <use xlink:href="#Ubuntu-30"/>
      </g>
     </g>
    </g>
    <g id="ytick_2">
     <g id="line2d_12">
      <g>
       <use xlink:href="#m4675c4d032" x="57.486719" y="121.790192" style="fill: #bbbbbb; stroke: #bbbbbb; stroke-width: 0.75"/>
      </g>
     </g>
     <g id="text_13">
      <!-- 20000 -->
      <g style="fill: #9f9f9f" transform="translate(28.424219 124.893942) scale(0.08 -0.08)">
       <use xlink:href="#Ubuntu-32"/>
       <use xlink:href="#Ubuntu-30" x="56.399994"/>
       <use xlink:href="#Ubuntu-30" x="112.799988"/>
       <use xlink:href="#Ubuntu-30" x="169.199982"/>
       <use xlink:href="#Ubuntu-30" x="225.599976"/>
      </g>
     </g>
    </g>
    <g id="ytick_3">
     <g id="line2d_13">
      <g>
       <use xlink:href="#m4675c4d032" x="57.486719" y="103.455761" style="fill: #bbbbbb; stroke: #bbbbbb; stroke-width: 0.75"/>
      </g>
     </g>
     <g id="text_14">
      <!-- 40000 -->
      <g style="fill: #9f9f9f" transform="translate(28.424219 106.559511) scale(0.08 -0.08)">
       <use xlink:href="#Ubuntu-34"/>
       <use xlink:href="#Ubuntu-30" x="56.399994"/>
       <use xlink:href="#Ubuntu-30" x="112.799988"/>
       <use xlink:href="#Ubuntu-30" x="169.199982"/>
       <use xlink:href="#Ubuntu-30" x="225.599976"/>
      </g>
     </g>
    </g>
    <g id="ytick_4">
     <g id="line2d_14">
      <g>
       <use xlink:href="#m4675c4d032" x="57.486719" y="85.121331" style="fill: #bbbbbb; stroke: #bbbbbb; stroke-width: 0.75"/>
      </g>
     </g>
     <g id="text_15">
      <!-- 60000 -->
      <g style="fill: #9f9f9f" transform="translate(28.424219 88.225081) scale(0.08 -0.08)">
       <defs>
        <path id="Ubuntu-36" d="M 403 1779 
Q 403 2426 582 2922 
Q 762 3418 1091 3757 
Q 1421 4096 1891 4272 
Q 2362 4448 2950 4454 
L 2995 3955 
Q 2618 3949 2307 3872 
Q 1997 3795 1753 3628 
Q 1510 3462 1344 3196 
Q 1178 2931 1094 2541 
Q 1261 2618 1469 2669 
Q 1677 2720 1901 2720 
Q 2278 2720 2540 2605 
Q 2803 2490 2969 2301 
Q 3136 2112 3209 1865 
Q 3283 1619 3283 1350 
Q 3283 1107 3200 851 
Q 3117 595 2947 384 
Q 2778 173 2515 38 
Q 2253 -96 1894 -96 
Q 1165 -96 784 403 
Q 403 902 403 1779 
z
M 1837 2234 
Q 1613 2234 1421 2192 
Q 1229 2150 1037 2067 
Q 1030 1997 1027 1923 
Q 1024 1850 1024 1779 
Q 1024 1498 1062 1248 
Q 1101 998 1200 809 
Q 1299 621 1465 509 
Q 1632 397 1888 397 
Q 2099 397 2246 486 
Q 2394 576 2490 717 
Q 2586 858 2627 1021 
Q 2669 1184 2669 1338 
Q 2669 1773 2461 2003 
Q 2253 2234 1837 2234 
z
" transform="scale(0.015625)"/>
       </defs>
       <use xlink:href="#Ubuntu-36"/>
       <use xlink:href="#Ubuntu-30" x="56.399994"/>
       <use xlink:href="#Ubuntu-30" x="112.799988"/>
       <use xlink:href="#Ubuntu-30" x="169.199982"/>
       <use xlink:href="#Ubuntu-30" x="225.599976"/>
      </g>
     </g>
    </g>
    <g id="ytick_5">
     <g id="line2d_15">
      <g>
       <use xlink:href="#m4675c4d032" x="57.486719" y="66.7869" style="fill: #bbbbbb; stroke: #bbbbbb; stroke-width: 0.75"/>
      </g>
     </g>
     <g id="text_16">
      <!-- 80000 -->
      <g style="fill: #9f9f9f" transform="translate(28.424219 69.89065) scale(0.08 -0.08)">
       <defs>
        <path id="Ubuntu-38" d="M 3258 1152 
Q 3258 883 3165 656 
Q 3072 429 2889 259 
Q 2707 90 2432 -3 
Q 2157 -96 1798 -96 
Q 1382 -96 1104 22 
Q 826 141 659 320 
Q 493 499 422 713 
Q 352 928 352 1120 
Q 352 1306 413 1475 
Q 474 1645 573 1792 
Q 672 1939 803 2057 
Q 934 2176 1082 2266 
Q 454 2624 454 3322 
Q 454 3565 550 3785 
Q 646 4006 822 4172 
Q 998 4339 1248 4438 
Q 1498 4538 1805 4538 
Q 2163 4538 2419 4429 
Q 2675 4320 2838 4150 
Q 3002 3981 3075 3776 
Q 3149 3571 3149 3379 
Q 3149 3194 3094 3030 
Q 3040 2867 2947 2726 
Q 2854 2586 2736 2477 
Q 2618 2368 2490 2285 
Q 3245 1926 3258 1152 
z
M 954 1114 
Q 954 998 995 873 
Q 1037 749 1139 643 
Q 1242 538 1402 467 
Q 1562 397 1805 397 
Q 2022 397 2185 461 
Q 2349 525 2451 624 
Q 2554 723 2605 851 
Q 2656 979 2656 1114 
Q 2656 1318 2579 1472 
Q 2502 1626 2358 1741 
Q 2214 1856 2012 1936 
Q 1811 2016 1555 2074 
Q 1267 1914 1110 1677 
Q 954 1440 954 1114 
z
M 2554 3386 
Q 2554 3482 2512 3597 
Q 2470 3712 2380 3811 
Q 2291 3910 2150 3977 
Q 2010 4045 1805 4045 
Q 1600 4045 1456 3981 
Q 1312 3917 1222 3817 
Q 1133 3718 1091 3600 
Q 1050 3482 1050 3366 
Q 1050 3226 1101 3085 
Q 1152 2944 1261 2822 
Q 1370 2701 1546 2605 
Q 1722 2509 1965 2451 
Q 2234 2611 2394 2825 
Q 2554 3040 2554 3386 
z
" transform="scale(0.015625)"/>
       </defs>
       <use xlink:href="#Ubuntu-38"/>
       <use xlink:href="#Ubuntu-30" x="56.399994"/>
       <use xlink:href="#Ubuntu-30" x="112.799988"/>
       <use xlink:href="#Ubuntu-30" x="169.199982"/>
       <use xlink:href="#Ubuntu-30" x="225.599976"/>
      </g>
     </g>
    </g>
    <g id="ytick_6">
     <g id="line2d_16">
      <g>
       <use xlink:href="#m4675c4d032" x="57.486719" y="48.452469" style="fill: #bbbbbb; stroke: #bbbbbb; stroke-width: 0.75"/>
      </g>
     </g>
     <g id="text_17">
      <!-- 100000 -->
      <g style="fill: #9f9f9f" transform="translate(23.911719 51.556219) scale(0.08 -0.08)">
       <use xlink:href="#Ubuntu-31"/>
       <use xlink:href="#Ubuntu-30" x="56.399994"/>
       <use xlink:href="#Ubuntu-30" x="112.799988"/>
       <use xlink:href="#Ubuntu-30" x="169.199982"/>
       <use xlink:href="#Ubuntu-30" x="225.599976"/>
       <use xlink:href="#Ubuntu-30" x="281.999969"/>
      </g>
     </g>
    </g>
    <g id="ytick_7">
     <g id="line2d_17">
      <g>
       <use xlink:href="#m4675c4d032" x="57.486719" y="30.118038" style="fill: #bbbbbb; stroke: #bbbbbb; stroke-width: 0.75"/>
      </g>
     </g>
     <g id="text_18">
      <!-- 120000 -->
      <g style="fill: #9f9f9f" transform="translate(23.911719 33.221788) scale(0.08 -0.08)">
       <use xlink:href="#Ubuntu-31"/>
       <use xlink:href="#Ubuntu-32" x="56.399994"/>
       <use xlink:href="#Ubuntu-30" x="112.799988"/>
       <use xlink:href="#Ubuntu-30" x="169.199982"/>
       <use xlink:href="#Ubuntu-30" x="225.599976"/>
       <use xlink:href="#Ubuntu-30" x="281.999969"/>
      </g>
     </g>
    </g>
    <g id="ytick_8">
     <g id="line2d_18">
      <g>
       <use xlink:href="#m4675c4d032" x="57.486719" y="11.783608" style="fill: #bbbbbb; stroke: #bbbbbb; stroke-width: 0.75"/>
      </g>
     </g>
     <g id="text_19">
      <!-- 140000 -->
      <g style="fill: #9f9f9f" transform="translate(23.911719 14.887358) scale(0.08 -0.08)">
       <use xlink:href="#Ubuntu-31"/>
       <use xlink:href="#Ubuntu-34" x="56.399994"/>
       <use xlink:href="#Ubuntu-30" x="112.799988"/>
       <use xlink:href="#Ubuntu-30" x="169.199982"/>
       <use xlink:href="#Ubuntu-30" x="225.599976"/>
       <use xlink:href="#Ubuntu-30" x="281.999969"/>
      </g>
     </g>
    </g>
    <g id="text_20">
     <!-- Residuals (abs) -->
     <g style="fill: #505050" transform="translate(14.246719 71.132344) rotate(-90) scale(0.09 -0.09)">
      <defs>
       <path id="Ubuntu-Bold-52" d="M 1811 4486 
Q 2810 4486 3341 4131 
Q 3872 3776 3872 3027 
Q 3872 2560 3657 2269 
Q 3443 1978 3040 1811 
Q 3174 1645 3321 1430 
Q 3469 1216 3613 982 
Q 3757 749 3891 496 
Q 4026 243 4141 0 
L 3021 0 
Q 2899 218 2774 442 
Q 2650 666 2518 877 
Q 2387 1088 2259 1277 
Q 2131 1466 2003 1619 
L 1510 1619 
L 1510 0 
L 512 0 
L 512 4371 
Q 838 4435 1187 4460 
Q 1536 4486 1811 4486 
z
M 1869 3635 
Q 1760 3635 1673 3628 
Q 1587 3622 1510 3616 
L 1510 2413 
L 1792 2413 
Q 2355 2413 2598 2553 
Q 2842 2694 2842 3034 
Q 2842 3360 2595 3497 
Q 2349 3635 1869 3635 
z
" transform="scale(0.015625)"/>
       <path id="Ubuntu-Bold-73" d="M 1414 685 
Q 1677 685 1785 736 
Q 1894 787 1894 934 
Q 1894 1050 1753 1136 
Q 1613 1222 1325 1331 
Q 1101 1414 918 1504 
Q 736 1594 608 1718 
Q 480 1843 409 2016 
Q 339 2189 339 2432 
Q 339 2906 691 3181 
Q 1043 3456 1658 3456 
Q 1965 3456 2246 3401 
Q 2528 3347 2694 3283 
L 2528 2541 
Q 2362 2598 2166 2643 
Q 1971 2688 1728 2688 
Q 1280 2688 1280 2438 
Q 1280 2381 1299 2336 
Q 1318 2291 1376 2249 
Q 1434 2208 1533 2160 
Q 1632 2112 1786 2054 
Q 2099 1939 2304 1827 
Q 2509 1715 2627 1584 
Q 2746 1453 2794 1293 
Q 2842 1133 2842 922 
Q 2842 422 2467 166 
Q 2093 -90 1408 -90 
Q 960 -90 662 -13 
Q 365 64 250 115 
L 410 890 
Q 653 794 909 739 
Q 1165 685 1414 685 
z
" transform="scale(0.015625)"/>
       <path id="Ubuntu-Bold-64" d="M 1261 1709 
Q 1261 1267 1459 998 
Q 1658 730 2048 730 
Q 2176 730 2285 739 
Q 2394 749 2464 762 
L 2464 2496 
Q 2374 2554 2230 2592 
Q 2086 2630 1939 2630 
Q 1261 2630 1261 1709 
z
M 3418 109 
Q 3290 70 3123 35 
Q 2957 0 2774 -25 
Q 2592 -51 2403 -67 
Q 2214 -83 2042 -83 
Q 1626 -83 1299 38 
Q 973 160 749 387 
Q 525 614 406 937 
Q 288 1261 288 1664 
Q 288 2074 390 2403 
Q 493 2733 685 2963 
Q 877 3194 1155 3315 
Q 1434 3437 1792 3437 
Q 1990 3437 2147 3398 
Q 2304 3360 2464 3290 
L 2464 4813 
L 3418 4966 
L 3418 109 
z
" transform="scale(0.015625)"/>
       <path id="Ubuntu-Bold-75" d="M 3322 115 
Q 3078 45 2694 -16 
Q 2310 -77 1888 -77 
Q 1459 -77 1174 38 
Q 890 154 723 362 
Q 557 570 486 858 
Q 416 1146 416 1491 
L 416 3366 
L 1370 3366 
L 1370 1606 
Q 1370 1146 1491 941 
Q 1613 736 1946 736 
Q 2048 736 2163 745 
Q 2278 755 2368 768 
L 2368 3366 
L 3322 3366 
L 3322 115 
z
" transform="scale(0.015625)"/>
       <path id="Ubuntu-Bold-20" transform="scale(0.015625)"/>
       <path id="Ubuntu-Bold-28" d="M 1389 1914 
Q 1389 1158 1625 473 
Q 1862 -211 2246 -755 
L 1581 -1184 
Q 1037 -550 742 237 
Q 448 1024 448 1914 
Q 448 2803 742 3590 
Q 1037 4378 1581 5011 
L 2246 4582 
Q 1862 4038 1625 3353 
Q 1389 2669 1389 1914 
z
" transform="scale(0.015625)"/>
       <path id="Ubuntu-Bold-62" d="M 2605 1709 
Q 2605 2630 1926 2630 
Q 1779 2630 1635 2592 
Q 1491 2554 1402 2496 
L 1402 762 
Q 1472 749 1581 739 
Q 1690 730 1818 730 
Q 2208 730 2406 998 
Q 2605 1267 2605 1709 
z
M 3578 1683 
Q 3578 1280 3459 953 
Q 3341 627 3117 396 
Q 2893 166 2566 41 
Q 2240 -83 1824 -83 
Q 1651 -83 1462 -67 
Q 1274 -51 1091 -25 
Q 909 0 742 35 
Q 576 70 448 109 
L 448 4813 
L 1402 4966 
L 1402 3290 
Q 1562 3360 1734 3398 
Q 1907 3437 2106 3437 
Q 2464 3437 2739 3312 
Q 3014 3187 3200 2956 
Q 3386 2726 3482 2403 
Q 3578 2080 3578 1683 
z
" transform="scale(0.015625)"/>
       <path id="Ubuntu-Bold-29" d="M 890 1914 
Q 890 2669 653 3353 
Q 416 4038 32 4582 
L 698 5011 
Q 1242 4378 1536 3590 
Q 1830 2803 1830 1914 
Q 1830 1024 1536 237 
Q 1242 -550 698 -1184 
L 32 -755 
Q 416 -211 653 473 
Q 890 1158 890 1914 
z
" transform="scale(0.015625)"/>
      </defs>
      <use xlink:href="#Ubuntu-Bold-52"/>
      <use xlink:href="#Ubuntu-Bold-65" x="64.199997"/>
      <use xlink:href="#Ubuntu-Bold-73" x="122.599991"/>
      <use xlink:href="#Ubuntu-Bold-69" x="171.099976"/>
      <use xlink:href="#Ubuntu-Bold-64" x="199.999969"/>
      <use xlink:href="#Ubuntu-Bold-75" x="260.399963"/>
      <use xlink:href="#Ubuntu-Bold-61" x="319.299957"/>
      <use xlink:href="#Ubuntu-Bold-6c" x="374.599945"/>
      <use xlink:href="#Ubuntu-Bold-73" x="406.199936"/>
      <use xlink:href="#Ubuntu-Bold-20" x="454.699921"/>
      <use xlink:href="#Ubuntu-Bold-28" x="478.699905"/>
      <use xlink:href="#Ubuntu-Bold-61" x="511.799896"/>
      <use xlink:href="#Ubuntu-Bold-62" x="567.099884"/>
      <use xlink:href="#Ubuntu-Bold-73" x="627.499878"/>
      <use xlink:href="#Ubuntu-Bold-29" x="674.749863"/>
     </g>
    </g>
   </g>
   <g id="PathCollection_1">
    <defs>
     <path id="mef2dd09683" d="M 0 1.5 
C 0.397805 1.5 0.77937 1.341951 1.06066 1.06066 
C 1.341951 0.77937 1.5 0.397805 1.5 0 
C 1.5 -0.397805 1.341951 -0.77937 1.06066 -1.06066 
C 0.77937 -1.341951 0.397805 -1.5 0 -1.5 
C -0.397805 -1.5 -0.77937 -1.341951 -1.06066 -1.06066 
C -1.341951 -0.77937 -1.5 -0.397805 -1.5 0 
C -1.5 0.397805 -1.341951 0.77937 -1.06066 1.06066 
C -0.77937 1.341951 -0.397805 1.5 0 1.5 
z
" style="stroke: #fefefe; stroke-width: 0.15"/>
    </defs>
    <g clip-path="url(#p347a5f2449)">
     <use xlink:href="#mef2dd09683" x="110.102719" y="129.005707" style="fill: #5d5d5d; stroke: #fefefe; stroke-width: 0.15"/>
     <use xlink:href="#mef2dd09683" x="114.070719" y="130.95099" style="fill: #5d5d5d; stroke: #fefefe; stroke-width: 0.15"/>
     <use xlink:href="#mef2dd09683" x="124.982719" y="139.166649" style="fill: #5d5d5d; stroke: #fefefe; stroke-width: 0.15"/>
     <use xlink:href="#mef2dd09683" x="124.982719" y="133.718573" style="fill: #5d5d5d; stroke: #fefefe; stroke-width: 0.15"/>
     <use xlink:href="#mef2dd09683" x="138.573119" y="133.28313" style="fill: #5d5d5d; stroke: #fefefe; stroke-width: 0.15"/>
     <use xlink:href="#mef2dd09683" x="139.862719" y="137.418461" style="fill: #5d5d5d; stroke: #fefefe; stroke-width: 0.15"/>
     <use xlink:href="#mef2dd09683" x="141.846719" y="127.999147" style="fill: #5d5d5d; stroke: #fefefe; stroke-width: 0.15"/>
     <use xlink:href="#mef2dd09683" x="142.243519" y="129.398064" style="fill: #5d5d5d; stroke: #fefefe; stroke-width: 0.15"/>
     <use xlink:href="#mef2dd09683" x="143.433919" y="138.68537" style="fill: #5d5d5d; stroke: #fefefe; stroke-width: 0.15"/>
     <use xlink:href="#mef2dd09683" x="144.525119" y="124.365263" style="fill: #5d5d5d; stroke: #fefefe; stroke-width: 0.15"/>
     <use xlink:href="#mef2dd09683" x="146.608319" y="136.394483" style="fill: #5d5d5d; stroke: #fefefe; stroke-width: 0.15"/>
     <use xlink:href="#mef2dd09683" x="146.608319" y="139.260154" style="fill: #5d5d5d; stroke: #fefefe; stroke-width: 0.15"/>
     <use xlink:href="#mef2dd09683" x="146.608319" y="129.700582" style="fill: #5d5d5d; stroke: #fefefe; stroke-width: 0.15"/>
     <use xlink:href="#mef2dd09683" x="147.203519" y="131.643115" style="fill: #5d5d5d; stroke: #fefefe; stroke-width: 0.15"/>
     <use xlink:href="#mef2dd09683" x="148.195519" y="112.273706" style="fill: #5d5d5d; stroke: #fefefe; stroke-width: 0.15"/>
     <use xlink:href="#mef2dd09683" x="148.989119" y="130.791481" style="fill: #5d5d5d; stroke: #fefefe; stroke-width: 0.15"/>
     <use xlink:href="#mef2dd09683" x="149.187519" y="128.409838" style="fill: #5d5d5d; stroke: #fefefe; stroke-width: 0.15"/>
     <use xlink:href="#mef2dd09683" x="149.981119" y="138.998889" style="fill: #5d5d5d; stroke: #fefefe; stroke-width: 0.15"/>
     <use xlink:href="#mef2dd09683" x="150.377919" y="138.975971" style="fill: #5d5d5d; stroke: #fefefe; stroke-width: 0.15"/>
     <use xlink:href="#mef2dd09683" x="151.171519" y="135.780279" style="fill: #5d5d5d; stroke: #fefefe; stroke-width: 0.15"/>
     <use xlink:href="#mef2dd09683" x="151.766719" y="139.484751" style="fill: #5d5d5d; stroke: #fefefe; stroke-width: 0.15"/>
     <use xlink:href="#mef2dd09683" x="151.865919" y="136.980268" style="fill: #5d5d5d; stroke: #fefefe; stroke-width: 0.15"/>
     <use xlink:href="#mef2dd09683" x="152.461119" y="136.34498" style="fill: #5d5d5d; stroke: #fefefe; stroke-width: 0.15"/>
     <use xlink:href="#mef2dd09683" x="152.957119" y="133.356468" style="fill: #5d5d5d; stroke: #fefefe; stroke-width: 0.15"/>
     <use xlink:href="#mef2dd09683" x="154.544319" y="137.738397" style="fill: #5d5d5d; stroke: #fefefe; stroke-width: 0.15"/>
     <use xlink:href="#mef2dd09683" x="155.238719" y="131.61653" style="fill: #5d5d5d; stroke: #fefefe; stroke-width: 0.15"/>
     <use xlink:href="#mef2dd09683" x="155.238719" y="125.310403" style="fill: #5d5d5d; stroke: #fefefe; stroke-width: 0.15"/>
     <use xlink:href="#mef2dd09683" x="155.337919" y="138.391102" style="fill: #5d5d5d; stroke: #fefefe; stroke-width: 0.15"/>
     <use xlink:href="#mef2dd09683" x="155.536319" y="133.808411" style="fill: #5d5d5d; stroke: #fefefe; stroke-width: 0.15"/>
     <use xlink:href="#mef2dd09683" x="156.726719" y="139.339909" style="fill: #5d5d5d; stroke: #fefefe; stroke-width: 0.15"/>
     <use xlink:href="#mef2dd09683" x="156.925119" y="126.745072" style="fill: #5d5d5d; stroke: #fefefe; stroke-width: 0.15"/>
     <use xlink:href="#mef2dd09683" x="157.222719" y="137.323122" style="fill: #5d5d5d; stroke: #fefefe; stroke-width: 0.15"/>
     <use xlink:href="#mef2dd09683" x="159.107519" y="120.628706" style="fill: #5d5d5d; stroke: #fefefe; stroke-width: 0.15"/>
     <use xlink:href="#mef2dd09683" x="160.397119" y="132.347157" style="fill: #5d5d5d; stroke: #fefefe; stroke-width: 0.15"/>
     <use xlink:href="#mef2dd09683" x="160.496319" y="138.180256" style="fill: #5d5d5d; stroke: #fefefe; stroke-width: 0.15"/>
     <use xlink:href="#mef2dd09683" x="160.496319" y="136.441236" style="fill: #5d5d5d; stroke: #fefefe; stroke-width: 0.15"/>
     <use xlink:href="#mef2dd09683" x="160.496319" y="135.004733" style="fill: #5d5d5d; stroke: #fefefe; stroke-width: 0.15"/>
     <use xlink:href="#mef2dd09683" x="160.694719" y="139.106145" style="fill: #5d5d5d; stroke: #fefefe; stroke-width: 0.15"/>
     <use xlink:href="#mef2dd09683" x="162.480319" y="138.714705" style="fill: #5d5d5d; stroke: #fefefe; stroke-width: 0.15"/>
     <use xlink:href="#mef2dd09683" x="162.877119" y="130.375289" style="fill: #5d5d5d; stroke: #fefefe; stroke-width: 0.15"/>
     <use xlink:href="#mef2dd09683" x="164.265919" y="139.12998" style="fill: #5d5d5d; stroke: #fefefe; stroke-width: 0.15"/>
     <use xlink:href="#mef2dd09683" x="164.464319" y="133.785493" style="fill: #5d5d5d; stroke: #fefefe; stroke-width: 0.15"/>
     <use xlink:href="#mef2dd09683" x="165.059519" y="139.204234" style="fill: #5d5d5d; stroke: #fefefe; stroke-width: 0.15"/>
     <use xlink:href="#mef2dd09683" x="165.654719" y="138.432355" style="fill: #5d5d5d; stroke: #fefefe; stroke-width: 0.15"/>
     <use xlink:href="#mef2dd09683" x="165.654719" y="127.639792" style="fill: #5d5d5d; stroke: #fefefe; stroke-width: 0.15"/>
     <use xlink:href="#mef2dd09683" x="165.654719" y="135.737194" style="fill: #5d5d5d; stroke: #fefefe; stroke-width: 0.15"/>
     <use xlink:href="#mef2dd09683" x="167.241919" y="139.088727" style="fill: #5d5d5d; stroke: #fefefe; stroke-width: 0.15"/>
     <use xlink:href="#mef2dd09683" x="168.432319" y="134.1751" style="fill: #5d5d5d; stroke: #fefefe; stroke-width: 0.15"/>
     <use xlink:href="#mef2dd09683" x="169.325119" y="139.203318" style="fill: #5d5d5d; stroke: #fefefe; stroke-width: 0.15"/>
     <use xlink:href="#mef2dd09683" x="171.507519" y="136.153385" style="fill: #5d5d5d; stroke: #fefefe; stroke-width: 0.15"/>
     <use xlink:href="#mef2dd09683" x="173.293119" y="115.701328" style="fill: #5d5d5d; stroke: #fefefe; stroke-width: 0.15"/>
     <use xlink:href="#mef2dd09683" x="174.185919" y="119.720235" style="fill: #5d5d5d; stroke: #fefefe; stroke-width: 0.15"/>
     <use xlink:href="#mef2dd09683" x="174.979519" y="133.452723" style="fill: #5d5d5d; stroke: #fefefe; stroke-width: 0.15"/>
     <use xlink:href="#mef2dd09683" x="175.177919" y="130.487129" style="fill: #5d5d5d; stroke: #fefefe; stroke-width: 0.15"/>
     <use xlink:href="#mef2dd09683" x="176.566719" y="138.840296" style="fill: #5d5d5d; stroke: #fefefe; stroke-width: 0.15"/>
     <use xlink:href="#mef2dd09683" x="179.145919" y="138.141754" style="fill: #5d5d5d; stroke: #fefefe; stroke-width: 0.15"/>
     <use xlink:href="#mef2dd09683" x="181.427519" y="128.341084" style="fill: #5d5d5d; stroke: #fefefe; stroke-width: 0.15"/>
     <use xlink:href="#mef2dd09683" x="182.617919" y="135.636354" style="fill: #5d5d5d; stroke: #fefefe; stroke-width: 0.15"/>
     <use xlink:href="#mef2dd09683" x="186.089919" y="139.380245" style="fill: #5d5d5d; stroke: #fefefe; stroke-width: 0.15"/>
     <use xlink:href="#mef2dd09683" x="186.685119" y="132.837603" style="fill: #5d5d5d; stroke: #fefefe; stroke-width: 0.15"/>
     <use xlink:href="#mef2dd09683" x="190.553919" y="138.015247" style="fill: #5d5d5d; stroke: #fefefe; stroke-width: 0.15"/>
     <use xlink:href="#mef2dd09683" x="191.843519" y="135.767445" style="fill: #5d5d5d; stroke: #fefefe; stroke-width: 0.15"/>
     <use xlink:href="#mef2dd09683" x="193.033919" y="118.667839" style="fill: #5d5d5d; stroke: #fefefe; stroke-width: 0.15"/>
     <use xlink:href="#mef2dd09683" x="195.414719" y="131.89063" style="fill: #5d5d5d; stroke: #fefefe; stroke-width: 0.15"/>
     <use xlink:href="#mef2dd09683" x="196.605119" y="134.008257" style="fill: #5d5d5d; stroke: #fefefe; stroke-width: 0.15"/>
     <use xlink:href="#mef2dd09683" x="200.672319" y="130.648472" style="fill: #5d5d5d; stroke: #fefefe; stroke-width: 0.15"/>
     <use xlink:href="#mef2dd09683" x="201.366719" y="135.706942" style="fill: #5d5d5d; stroke: #fefefe; stroke-width: 0.15"/>
     <use xlink:href="#mef2dd09683" x="202.557119" y="126.173038" style="fill: #5d5d5d; stroke: #fefefe; stroke-width: 0.15"/>
     <use xlink:href="#mef2dd09683" x="204.441919" y="132.657926" style="fill: #5d5d5d; stroke: #fefefe; stroke-width: 0.15"/>
     <use xlink:href="#mef2dd09683" x="204.541119" y="123.022266" style="fill: #5d5d5d; stroke: #fefefe; stroke-width: 0.15"/>
     <use xlink:href="#mef2dd09683" x="206.525119" y="133.371135" style="fill: #5d5d5d; stroke: #fefefe; stroke-width: 0.15"/>
     <use xlink:href="#mef2dd09683" x="206.624319" y="123.061685" style="fill: #5d5d5d; stroke: #fefefe; stroke-width: 0.15"/>
     <use xlink:href="#mef2dd09683" x="206.921919" y="134.668296" style="fill: #5d5d5d; stroke: #fefefe; stroke-width: 0.15"/>
     <use xlink:href="#mef2dd09683" x="206.921919" y="113.060253" style="fill: #5d5d5d; stroke: #fefefe; stroke-width: 0.15"/>
     <use xlink:href="#mef2dd09683" x="207.120319" y="130.723643" style="fill: #5d5d5d; stroke: #fefefe; stroke-width: 0.15"/>
     <use xlink:href="#mef2dd09683" x="208.905919" y="139.965113" style="fill: #5d5d5d; stroke: #fefefe; stroke-width: 0.15"/>
     <use xlink:href="#mef2dd09683" x="209.005119" y="138.895299" style="fill: #5d5d5d; stroke: #fefefe; stroke-width: 0.15"/>
     <use xlink:href="#mef2dd09683" x="209.104319" y="137.549552" style="fill: #5d5d5d; stroke: #fefefe; stroke-width: 0.15"/>
     <use xlink:href="#mef2dd09683" x="209.203519" y="129.112964" style="fill: #5d5d5d; stroke: #fefefe; stroke-width: 0.15"/>
     <use xlink:href="#mef2dd09683" x="211.088319" y="137.379959" style="fill: #5d5d5d; stroke: #fefefe; stroke-width: 0.15"/>
     <use xlink:href="#mef2dd09683" x="211.881919" y="124.415683" style="fill: #5d5d5d; stroke: #fefefe; stroke-width: 0.15"/>
     <use xlink:href="#mef2dd09683" x="212.576319" y="134.429949" style="fill: #5d5d5d; stroke: #fefefe; stroke-width: 0.15"/>
     <use xlink:href="#mef2dd09683" x="213.667519" y="130.763979" style="fill: #5d5d5d; stroke: #fefefe; stroke-width: 0.15"/>
     <use xlink:href="#mef2dd09683" x="214.758719" y="131.726537" style="fill: #5d5d5d; stroke: #fefefe; stroke-width: 0.15"/>
     <use xlink:href="#mef2dd09683" x="214.758719" y="138.287513" style="fill: #5d5d5d; stroke: #fefefe; stroke-width: 0.15"/>
     <use xlink:href="#mef2dd09683" x="216.048319" y="106.462608" style="fill: #5d5d5d; stroke: #fefefe; stroke-width: 0.15"/>
     <use xlink:href="#mef2dd09683" x="217.139519" y="129.677664" style="fill: #5d5d5d; stroke: #fefefe; stroke-width: 0.15"/>
     <use xlink:href="#mef2dd09683" x="217.933119" y="134.503286" style="fill: #5d5d5d; stroke: #fefefe; stroke-width: 0.15"/>
     <use xlink:href="#mef2dd09683" x="218.528319" y="138.293013" style="fill: #5d5d5d; stroke: #fefefe; stroke-width: 0.15"/>
     <use xlink:href="#mef2dd09683" x="219.421119" y="135.353087" style="fill: #5d5d5d; stroke: #fefefe; stroke-width: 0.15"/>
     <use xlink:href="#mef2dd09683" x="220.214719" y="139.504919" style="fill: #5d5d5d; stroke: #fefefe; stroke-width: 0.15"/>
     <use xlink:href="#mef2dd09683" x="221.206719" y="136.468737" style="fill: #5d5d5d; stroke: #fefefe; stroke-width: 0.15"/>
     <use xlink:href="#mef2dd09683" x="221.603519" y="132.106976" style="fill: #5d5d5d; stroke: #fefefe; stroke-width: 0.15"/>
     <use xlink:href="#mef2dd09683" x="223.190719" y="134.759968" style="fill: #5d5d5d; stroke: #fefefe; stroke-width: 0.15"/>
     <use xlink:href="#mef2dd09683" x="223.190719" y="115.07979" style="fill: #5d5d5d; stroke: #fefefe; stroke-width: 0.15"/>
     <use xlink:href="#mef2dd09683" x="224.083519" y="120.361023" style="fill: #5d5d5d; stroke: #fefefe; stroke-width: 0.15"/>
     <use xlink:href="#mef2dd09683" x="224.777919" y="137.606389" style="fill: #5d5d5d; stroke: #fefefe; stroke-width: 0.15"/>
     <use xlink:href="#mef2dd09683" x="226.563519" y="136.360564" style="fill: #5d5d5d; stroke: #fefefe; stroke-width: 0.15"/>
     <use xlink:href="#mef2dd09683" x="226.861119" y="128.164157" style="fill: #5d5d5d; stroke: #fefefe; stroke-width: 0.15"/>
     <use xlink:href="#mef2dd09683" x="227.555519" y="137.327705" style="fill: #5d5d5d; stroke: #fefefe; stroke-width: 0.15"/>
     <use xlink:href="#mef2dd09683" x="227.555519" y="123.938071" style="fill: #5d5d5d; stroke: #fefefe; stroke-width: 0.15"/>
     <use xlink:href="#mef2dd09683" x="230.134719" y="125.816433" style="fill: #5d5d5d; stroke: #fefefe; stroke-width: 0.15"/>
     <use xlink:href="#mef2dd09683" x="230.531519" y="120.383025" style="fill: #5d5d5d; stroke: #fefefe; stroke-width: 0.15"/>
     <use xlink:href="#mef2dd09683" x="231.325119" y="137.556886" style="fill: #5d5d5d; stroke: #fefefe; stroke-width: 0.15"/>
     <use xlink:href="#mef2dd09683" x="232.912319" y="116.68497" style="fill: #5d5d5d; stroke: #fefefe; stroke-width: 0.15"/>
     <use xlink:href="#mef2dd09683" x="233.110719" y="130.774063" style="fill: #5d5d5d; stroke: #fefefe; stroke-width: 0.15"/>
     <use xlink:href="#mef2dd09683" x="234.301119" y="134.022008" style="fill: #5d5d5d; stroke: #fefefe; stroke-width: 0.15"/>
     <use xlink:href="#mef2dd09683" x="234.499519" y="122.886591" style="fill: #5d5d5d; stroke: #fefefe; stroke-width: 0.15"/>
     <use xlink:href="#mef2dd09683" x="235.293119" y="122.467649" style="fill: #5d5d5d; stroke: #fefefe; stroke-width: 0.15"/>
     <use xlink:href="#mef2dd09683" x="237.872319" y="126.125368" style="fill: #5d5d5d; stroke: #fefefe; stroke-width: 0.15"/>
     <use xlink:href="#mef2dd09683" x="237.872319" y="128.548263" style="fill: #5d5d5d; stroke: #fefefe; stroke-width: 0.15"/>
     <use xlink:href="#mef2dd09683" x="238.566719" y="132.029972" style="fill: #5d5d5d; stroke: #fefefe; stroke-width: 0.15"/>
     <use xlink:href="#mef2dd09683" x="238.665919" y="121.219075" style="fill: #5d5d5d; stroke: #fefefe; stroke-width: 0.15"/>
     <use xlink:href="#mef2dd09683" x="238.963519" y="136.464154" style="fill: #5d5d5d; stroke: #fefefe; stroke-width: 0.15"/>
     <use xlink:href="#mef2dd09683" x="240.749119" y="130.406458" style="fill: #5d5d5d; stroke: #fefefe; stroke-width: 0.15"/>
     <use xlink:href="#mef2dd09683" x="241.344319" y="120.102508" style="fill: #5d5d5d; stroke: #fefefe; stroke-width: 0.15"/>
     <use xlink:href="#mef2dd09683" x="245.808319" y="115.004619" style="fill: #5d5d5d; stroke: #fefefe; stroke-width: 0.15"/>
     <use xlink:href="#mef2dd09683" x="251.165119" y="123.439374" style="fill: #5d5d5d; stroke: #fefefe; stroke-width: 0.15"/>
     <use xlink:href="#mef2dd09683" x="251.363519" y="136.663082" style="fill: #5d5d5d; stroke: #fefefe; stroke-width: 0.15"/>
     <use xlink:href="#mef2dd09683" x="253.744319" y="124.845625" style="fill: #5d5d5d; stroke: #fefefe; stroke-width: 0.15"/>
     <use xlink:href="#mef2dd09683" x="254.835519" y="135.686774" style="fill: #5d5d5d; stroke: #fefefe; stroke-width: 0.15"/>
     <use xlink:href="#mef2dd09683" x="256.323519" y="86.946523" style="fill: #5d5d5d; stroke: #fefefe; stroke-width: 0.15"/>
     <use xlink:href="#mef2dd09683" x="263.664319" y="137.927241" style="fill: #5d5d5d; stroke: #fefefe; stroke-width: 0.15"/>
     <use xlink:href="#mef2dd09683" x="265.053119" y="61.289321" style="fill: #5d5d5d; stroke: #fefefe; stroke-width: 0.15"/>
     <use xlink:href="#mef2dd09683" x="265.449919" y="123.260613" style="fill: #5d5d5d; stroke: #fefefe; stroke-width: 0.15"/>
     <use xlink:href="#mef2dd09683" x="268.822719" y="102.028426" style="fill: #5d5d5d; stroke: #fefefe; stroke-width: 0.15"/>
     <use xlink:href="#mef2dd09683" x="271.798719" y="113.792713" style="fill: #5d5d5d; stroke: #fefefe; stroke-width: 0.15"/>
     <use xlink:href="#mef2dd09683" x="276.560319" y="111.699838" style="fill: #5d5d5d; stroke: #fefefe; stroke-width: 0.15"/>
     <use xlink:href="#mef2dd09683" x="281.718719" y="135.656522" style="fill: #5d5d5d; stroke: #fefefe; stroke-width: 0.15"/>
     <use xlink:href="#mef2dd09683" x="283.008319" y="113.078587" style="fill: #5d5d5d; stroke: #fefefe; stroke-width: 0.15"/>
     <use xlink:href="#mef2dd09683" x="283.603519" y="126.507641" style="fill: #5d5d5d; stroke: #fefefe; stroke-width: 0.15"/>
     <use xlink:href="#mef2dd09683" x="286.281919" y="135.411757" style="fill: #5d5d5d; stroke: #fefefe; stroke-width: 0.15"/>
     <use xlink:href="#mef2dd09683" x="286.877119" y="129.360479" style="fill: #5d5d5d; stroke: #fefefe; stroke-width: 0.15"/>
     <use xlink:href="#mef2dd09683" x="290.249919" y="131.11325" style="fill: #5d5d5d; stroke: #fefefe; stroke-width: 0.15"/>
     <use xlink:href="#mef2dd09683" x="295.904319" y="130.290034" style="fill: #5d5d5d; stroke: #fefefe; stroke-width: 0.15"/>
     <use xlink:href="#mef2dd09683" x="296.995519" y="23.267378" style="fill: #5d5d5d; stroke: #fefefe; stroke-width: 0.15"/>
     <use xlink:href="#mef2dd09683" x="299.773119" y="101.816663" style="fill: #5d5d5d; stroke: #fefefe; stroke-width: 0.15"/>
     <use xlink:href="#mef2dd09683" x="302.352319" y="108.988176" style="fill: #5d5d5d; stroke: #fefefe; stroke-width: 0.15"/>
     <use xlink:href="#mef2dd09683" x="307.808319" y="125.81735" style="fill: #5d5d5d; stroke: #fefefe; stroke-width: 0.15"/>
     <use xlink:href="#mef2dd09683" x="312.470719" y="126.257376" style="fill: #5d5d5d; stroke: #fefefe; stroke-width: 0.15"/>
     <use xlink:href="#mef2dd09683" x="322.589119" y="136.891346" style="fill: #5d5d5d; stroke: #fefefe; stroke-width: 0.15"/>
     <use xlink:href="#mef2dd09683" x="333.302719" y="104.091049" style="fill: #5d5d5d; stroke: #fefefe; stroke-width: 0.15"/>
     <use xlink:href="#mef2dd09683" x="339.651519" y="90.879259" style="fill: #5d5d5d; stroke: #fefefe; stroke-width: 0.15"/>
     <use xlink:href="#mef2dd09683" x="349.968319" y="72.660335" style="fill: #5d5d5d; stroke: #fefefe; stroke-width: 0.15"/>
     <use xlink:href="#mef2dd09683" x="368.617919" y="133.247378" style="fill: #5d5d5d; stroke: #fefefe; stroke-width: 0.15"/>
     <use xlink:href="#mef2dd09683" x="490.633919" y="36.034559" style="fill: #5d5d5d; stroke: #fefefe; stroke-width: 0.15"/>
    </g>
   </g>
   <g id="patch_3">
    <path d="M 57.486719 140.124623 
L 57.486719 11.783608 
" style="fill: none; stroke: #bbbbbb; stroke-width: 0.75; stroke-linejoin: miter; stroke-linecap: square"/>
   </g>
   <g id="patch_4">
    <path d="M 62.486719 150.8 
L 508.886719 150.8 
" style="fill: none; stroke: #bbbbbb; stroke-width: 0.75; stroke-linejoin: miter; stroke-linecap: square"/>
   </g>
   <g id="line2d_19">
    <path d="M 248.486719 138.87 
L 248.486719 21.06 
" clip-path="url(#p347a5f2449)" style="fill: none; stroke-dasharray: 3.7,1.6; stroke-dashoffset: 0; stroke: #af5a51"/>
   </g>
  </g>
 </g>
 <defs>
  <clipPath id="p347a5f2449">
   <rect x="62.486719" y="7.2" width="446.4" height="138.6"/>
  </clipPath>
 </defs>
</svg>
