<?xml version="1.0" encoding="utf-8" standalone="no"?>
<!DOCTYPE svg PUBLIC "-//W3C//DTD SVG 1.1//EN"
  "http://www.w3.org/Graphics/SVG/1.1/DTD/svg11.dtd">
<svg xmlns:xlink="http://www.w3.org/1999/xlink" width="569.278438pt" height="197.285pt" viewBox="0 0 569.278438 197.285" xmlns="http://www.w3.org/2000/svg" version="1.1">
 <metadata>
  <rdf:RDF xmlns:dc="http://purl.org/dc/elements/1.1/" xmlns:cc="http://creativecommons.org/ns#" xmlns:rdf="http://www.w3.org/1999/02/22-rdf-syntax-ns#">
   <cc:Work>
    <dc:type rdf:resource="http://purl.org/dc/dcmitype/StillImage"/>
    <dc:date>2024-02-20T11:09:41.953873</dc:date>
    <dc:format>image/svg+xml</dc:format>
    <dc:creator>
     <cc:Agent>
      <dc:title>Matplotlib v3.8.0, https://matplotlib.org/</dc:title>
     </cc:Agent>
    </dc:creator>
   </cc:Work>
  </rdf:RDF>
 </metadata>
 <defs>
  <style type="text/css">*{stroke-linejoin: round; stroke-linecap: butt}</style>
 </defs>
 <g id="figure_1">
  <g id="patch_1">
   <path d="M 0 197.285 
L 569.278438 197.285 
L 569.278438 0 
L 0 0 
L 0 197.285 
z
" style="fill: none"/>
  </g>
  <g id="axes_1">
   <g id="patch_2">
    <path d="M 46.340938 170.8975 
L 548.540938 170.8975 
L 548.540938 32.2975 
L 46.340938 32.2975 
L 46.340938 170.8975 
z
" style="fill: none"/>
   </g>
   <g id="matplotlib.axis_1">
    <g id="xtick_1">
     <g id="line2d_1">
      <defs>
       <path id="m1d5b77f4ca" d="M 0 0 
L 0 3 
" style="stroke: #bbbbbb; stroke-width: 0.75"/>
      </defs>
      <g>
       <use xlink:href="#m1d5b77f4ca" x="46.340937" y="175.8975" style="fill: #bbbbbb; stroke: #bbbbbb; stroke-width: 0.75"/>
      </g>
     </g>
     <g id="text_1">
      <!-- −150000 -->
      <g style="fill: #9f9f9f" transform="translate(30.547187 188.605) scale(0.08 -0.08)">
       <defs>
        <path id="Ubuntu-2212" d="M 339 2138 
L 3270 2138 
L 3270 1632 
L 339 1632 
L 339 2138 
z
" transform="scale(0.015625)"/>
        <path id="Ubuntu-31" d="M 595 3520 
Q 960 3661 1305 3881 
Q 1651 4102 1939 4435 
L 2362 4435 
L 2362 0 
L 1766 0 
L 1766 3610 
Q 1690 3539 1578 3462 
Q 1466 3386 1334 3315 
Q 1203 3245 1059 3181 
Q 915 3117 781 3072 
L 595 3520 
z
" transform="scale(0.015625)"/>
        <path id="Ubuntu-35" d="M 1274 2726 
Q 2240 2688 2691 2304 
Q 3142 1920 3142 1261 
Q 3142 966 3043 716 
Q 2944 467 2742 288 
Q 2541 109 2233 6 
Q 1926 -96 1504 -96 
Q 1338 -96 1165 -70 
Q 992 -45 845 -6 
Q 698 32 582 70 
Q 467 109 416 134 
L 531 653 
Q 640 602 886 518 
Q 1133 435 1491 435 
Q 1779 435 1974 499 
Q 2170 563 2291 672 
Q 2413 781 2467 925 
Q 2522 1069 2522 1229 
Q 2522 1472 2438 1661 
Q 2355 1850 2144 1978 
Q 1933 2106 1581 2173 
Q 1229 2240 691 2240 
Q 730 2554 752 2829 
Q 774 3104 793 3366 
Q 813 3629 825 3888 
Q 838 4147 851 4435 
L 2989 4435 
L 2989 3930 
L 1370 3930 
Q 1363 3834 1350 3670 
Q 1338 3507 1325 3331 
Q 1312 3155 1299 2988 
Q 1286 2822 1274 2726 
z
" transform="scale(0.015625)"/>
        <path id="Ubuntu-30" d="M 320 2221 
Q 320 3334 713 3936 
Q 1107 4538 1805 4538 
Q 2502 4538 2896 3936 
Q 3290 3334 3290 2221 
Q 3290 1107 2896 505 
Q 2502 -96 1805 -96 
Q 1107 -96 713 505 
Q 320 1107 320 2221 
z
M 2662 2221 
Q 2662 2586 2620 2912 
Q 2579 3238 2480 3481 
Q 2381 3725 2214 3869 
Q 2048 4013 1805 4013 
Q 1562 4013 1395 3869 
Q 1229 3725 1129 3481 
Q 1030 3238 988 2912 
Q 947 2586 947 2221 
Q 947 1856 988 1529 
Q 1030 1203 1129 960 
Q 1229 717 1395 573 
Q 1562 429 1805 429 
Q 2048 429 2214 573 
Q 2381 717 2480 960 
Q 2579 1203 2620 1529 
Q 2662 1856 2662 2221 
z
" transform="scale(0.015625)"/>
       </defs>
       <use xlink:href="#Ubuntu-2212"/>
       <use xlink:href="#Ubuntu-31" x="56.399994"/>
       <use xlink:href="#Ubuntu-35" x="112.799988"/>
       <use xlink:href="#Ubuntu-30" x="169.199982"/>
       <use xlink:href="#Ubuntu-30" x="225.599976"/>
       <use xlink:href="#Ubuntu-30" x="281.999969"/>
       <use xlink:href="#Ubuntu-30" x="338.399963"/>
      </g>
     </g>
    </g>
    <g id="xtick_2">
     <g id="line2d_2">
      <g>
       <use xlink:href="#m1d5b77f4ca" x="118.083795" y="175.8975" style="fill: #bbbbbb; stroke: #bbbbbb; stroke-width: 0.75"/>
      </g>
     </g>
     <g id="text_2">
      <!-- −100000 -->
      <g style="fill: #9f9f9f" transform="translate(102.290045 188.605) scale(0.08 -0.08)">
       <use xlink:href="#Ubuntu-2212"/>
       <use xlink:href="#Ubuntu-31" x="56.399994"/>
       <use xlink:href="#Ubuntu-30" x="112.799988"/>
       <use xlink:href="#Ubuntu-30" x="169.199982"/>
       <use xlink:href="#Ubuntu-30" x="225.599976"/>
       <use xlink:href="#Ubuntu-30" x="281.999969"/>
       <use xlink:href="#Ubuntu-30" x="338.399963"/>
      </g>
     </g>
    </g>
    <g id="xtick_3">
     <g id="line2d_3">
      <g>
       <use xlink:href="#m1d5b77f4ca" x="189.826652" y="175.8975" style="fill: #bbbbbb; stroke: #bbbbbb; stroke-width: 0.75"/>
      </g>
     </g>
     <g id="text_3">
      <!-- −50000 -->
      <g style="fill: #9f9f9f" transform="translate(176.289152 188.605) scale(0.08 -0.08)">
       <use xlink:href="#Ubuntu-2212"/>
       <use xlink:href="#Ubuntu-35" x="56.399994"/>
       <use xlink:href="#Ubuntu-30" x="112.799988"/>
       <use xlink:href="#Ubuntu-30" x="169.199982"/>
       <use xlink:href="#Ubuntu-30" x="225.599976"/>
       <use xlink:href="#Ubuntu-30" x="281.999969"/>
      </g>
     </g>
    </g>
    <g id="xtick_4">
     <g id="line2d_4">
      <g>
       <use xlink:href="#m1d5b77f4ca" x="261.569509" y="175.8975" style="fill: #bbbbbb; stroke: #bbbbbb; stroke-width: 0.75"/>
      </g>
     </g>
     <g id="text_4">
      <!-- 0 -->
      <g style="fill: #9f9f9f" transform="translate(259.313259 188.605) scale(0.08 -0.08)">
       <use xlink:href="#Ubuntu-30"/>
      </g>
     </g>
    </g>
    <g id="xtick_5">
     <g id="line2d_5">
      <g>
       <use xlink:href="#m1d5b77f4ca" x="333.312366" y="175.8975" style="fill: #bbbbbb; stroke: #bbbbbb; stroke-width: 0.75"/>
      </g>
     </g>
     <g id="text_5">
      <!-- 50000 -->
      <g style="fill: #9f9f9f" transform="translate(322.031116 188.605) scale(0.08 -0.08)">
       <use xlink:href="#Ubuntu-35"/>
       <use xlink:href="#Ubuntu-30" x="56.399994"/>
       <use xlink:href="#Ubuntu-30" x="112.799988"/>
       <use xlink:href="#Ubuntu-30" x="169.199982"/>
       <use xlink:href="#Ubuntu-30" x="225.599976"/>
      </g>
     </g>
    </g>
    <g id="xtick_6">
     <g id="line2d_6">
      <g>
       <use xlink:href="#m1d5b77f4ca" x="405.055223" y="175.8975" style="fill: #bbbbbb; stroke: #bbbbbb; stroke-width: 0.75"/>
      </g>
     </g>
     <g id="text_6">
      <!-- 100000 -->
      <g style="fill: #9f9f9f" transform="translate(391.517723 188.605) scale(0.08 -0.08)">
       <use xlink:href="#Ubuntu-31"/>
       <use xlink:href="#Ubuntu-30" x="56.399994"/>
       <use xlink:href="#Ubuntu-30" x="112.799988"/>
       <use xlink:href="#Ubuntu-30" x="169.199982"/>
       <use xlink:href="#Ubuntu-30" x="225.599976"/>
       <use xlink:href="#Ubuntu-30" x="281.999969"/>
      </g>
     </g>
    </g>
    <g id="xtick_7">
     <g id="line2d_7">
      <g>
       <use xlink:href="#m1d5b77f4ca" x="476.79808" y="175.8975" style="fill: #bbbbbb; stroke: #bbbbbb; stroke-width: 0.75"/>
      </g>
     </g>
     <g id="text_7">
      <!-- 150000 -->
      <g style="fill: #9f9f9f" transform="translate(463.26058 188.605) scale(0.08 -0.08)">
       <use xlink:href="#Ubuntu-31"/>
       <use xlink:href="#Ubuntu-35" x="56.399994"/>
       <use xlink:href="#Ubuntu-30" x="112.799988"/>
       <use xlink:href="#Ubuntu-30" x="169.199982"/>
       <use xlink:href="#Ubuntu-30" x="225.599976"/>
       <use xlink:href="#Ubuntu-30" x="281.999969"/>
      </g>
     </g>
    </g>
    <g id="xtick_8">
     <g id="line2d_8">
      <g>
       <use xlink:href="#m1d5b77f4ca" x="548.540938" y="175.8975" style="fill: #bbbbbb; stroke: #bbbbbb; stroke-width: 0.75"/>
      </g>
     </g>
     <g id="text_8">
      <!-- 200000 -->
      <g style="fill: #9f9f9f" transform="translate(535.003438 188.605) scale(0.08 -0.08)">
       <defs>
        <path id="Ubuntu-32" d="M 2989 3302 
Q 2989 3072 2896 2857 
Q 2803 2643 2649 2435 
Q 2496 2227 2304 2025 
Q 2112 1824 1920 1632 
Q 1811 1523 1667 1376 
Q 1523 1229 1395 1069 
Q 1267 909 1180 761 
Q 1094 614 1094 506 
L 3136 506 
L 3136 0 
L 448 0 
Q 442 38 442 76 
Q 442 115 442 147 
Q 442 448 541 707 
Q 640 966 800 1196 
Q 960 1427 1158 1632 
Q 1357 1837 1549 2029 
Q 1709 2182 1853 2332 
Q 1997 2483 2109 2633 
Q 2221 2784 2288 2944 
Q 2355 3104 2355 3283 
Q 2355 3475 2294 3609 
Q 2234 3744 2131 3833 
Q 2029 3923 1891 3964 
Q 1754 4006 1600 4006 
Q 1414 4006 1260 3955 
Q 1107 3904 985 3837 
Q 864 3770 781 3696 
Q 698 3622 653 3584 
L 358 4006 
Q 416 4070 531 4163 
Q 646 4256 806 4339 
Q 966 4422 1164 4480 
Q 1363 4538 1594 4538 
Q 2291 4538 2640 4214 
Q 2989 3891 2989 3302 
z
" transform="scale(0.015625)"/>
       </defs>
       <use xlink:href="#Ubuntu-32"/>
       <use xlink:href="#Ubuntu-30" x="56.399994"/>
       <use xlink:href="#Ubuntu-30" x="112.799988"/>
       <use xlink:href="#Ubuntu-30" x="169.199982"/>
       <use xlink:href="#Ubuntu-30" x="225.599976"/>
       <use xlink:href="#Ubuntu-30" x="281.999969"/>
      </g>
     </g>
    </g>
   </g>
   <g id="matplotlib.axis_2">
    <g id="ytick_1">
     <g id="line2d_9">
      <defs>
       <path id="mfff7d82c54" d="M 0 0 
L -3 0 
" style="stroke: #bbbbbb; stroke-width: 0.75"/>
      </defs>
      <g>
       <use xlink:href="#mfff7d82c54" x="41.340938" y="170.8975" style="fill: #bbbbbb; stroke: #bbbbbb; stroke-width: 0.75"/>
      </g>
     </g>
     <g id="text_9">
      <!-- 0.0 -->
      <g style="fill: #9f9f9f" transform="translate(23.848438 174.00125) scale(0.08 -0.08)">
       <defs>
        <path id="Ubuntu-2e" d="M 1216 346 
Q 1216 173 1101 45 
Q 986 -83 787 -83 
Q 589 -83 473 45 
Q 358 173 358 346 
Q 358 518 473 646 
Q 589 774 787 774 
Q 986 774 1101 646 
Q 1216 518 1216 346 
z
" transform="scale(0.015625)"/>
       </defs>
       <use xlink:href="#Ubuntu-30"/>
       <use xlink:href="#Ubuntu-2e" x="56.399994"/>
       <use xlink:href="#Ubuntu-30" x="80.999985"/>
      </g>
     </g>
    </g>
    <g id="ytick_2">
     <g id="line2d_10">
      <g>
       <use xlink:href="#mfff7d82c54" x="41.340938" y="151.0975" style="fill: #bbbbbb; stroke: #bbbbbb; stroke-width: 0.75"/>
      </g>
     </g>
     <g id="text_10">
      <!-- 0.5 -->
      <g style="fill: #9f9f9f" transform="translate(23.848438 154.20125) scale(0.08 -0.08)">
       <use xlink:href="#Ubuntu-30"/>
       <use xlink:href="#Ubuntu-2e" x="56.399994"/>
       <use xlink:href="#Ubuntu-35" x="80.999985"/>
      </g>
     </g>
    </g>
    <g id="ytick_3">
     <g id="line2d_11">
      <g>
       <use xlink:href="#mfff7d82c54" x="41.340938" y="131.2975" style="fill: #bbbbbb; stroke: #bbbbbb; stroke-width: 0.75"/>
      </g>
     </g>
     <g id="text_11">
      <!-- 1.0 -->
      <g style="fill: #9f9f9f" transform="translate(23.848438 134.40125) scale(0.08 -0.08)">
       <use xlink:href="#Ubuntu-31"/>
       <use xlink:href="#Ubuntu-2e" x="56.399994"/>
       <use xlink:href="#Ubuntu-30" x="80.999985"/>
      </g>
     </g>
    </g>
    <g id="ytick_4">
     <g id="line2d_12">
      <g>
       <use xlink:href="#mfff7d82c54" x="41.340938" y="111.4975" style="fill: #bbbbbb; stroke: #bbbbbb; stroke-width: 0.75"/>
      </g>
     </g>
     <g id="text_12">
      <!-- 1.5 -->
      <g style="fill: #9f9f9f" transform="translate(23.848438 114.60125) scale(0.08 -0.08)">
       <use xlink:href="#Ubuntu-31"/>
       <use xlink:href="#Ubuntu-2e" x="56.399994"/>
       <use xlink:href="#Ubuntu-35" x="80.999985"/>
      </g>
     </g>
    </g>
    <g id="ytick_5">
     <g id="line2d_13">
      <g>
       <use xlink:href="#mfff7d82c54" x="41.340938" y="91.6975" style="fill: #bbbbbb; stroke: #bbbbbb; stroke-width: 0.75"/>
      </g>
     </g>
     <g id="text_13">
      <!-- 2.0 -->
      <g style="fill: #9f9f9f" transform="translate(23.848438 94.80125) scale(0.08 -0.08)">
       <use xlink:href="#Ubuntu-32"/>
       <use xlink:href="#Ubuntu-2e" x="56.399994"/>
       <use xlink:href="#Ubuntu-30" x="80.999985"/>
      </g>
     </g>
    </g>
    <g id="ytick_6">
     <g id="line2d_14">
      <g>
       <use xlink:href="#mfff7d82c54" x="41.340938" y="71.8975" style="fill: #bbbbbb; stroke: #bbbbbb; stroke-width: 0.75"/>
      </g>
     </g>
     <g id="text_14">
      <!-- 2.5 -->
      <g style="fill: #9f9f9f" transform="translate(23.848438 75.00125) scale(0.08 -0.08)">
       <use xlink:href="#Ubuntu-32"/>
       <use xlink:href="#Ubuntu-2e" x="56.399994"/>
       <use xlink:href="#Ubuntu-35" x="80.999985"/>
      </g>
     </g>
    </g>
    <g id="ytick_7">
     <g id="line2d_15">
      <g>
       <use xlink:href="#mfff7d82c54" x="41.340938" y="52.0975" style="fill: #bbbbbb; stroke: #bbbbbb; stroke-width: 0.75"/>
      </g>
     </g>
     <g id="text_15">
      <!-- 3.0 -->
      <g style="fill: #9f9f9f" transform="translate(23.848438 55.20125) scale(0.08 -0.08)">
       <defs>
        <path id="Ubuntu-33" d="M 1446 435 
Q 2016 435 2262 659 
Q 2509 883 2509 1261 
Q 2509 1504 2406 1670 
Q 2304 1837 2137 1936 
Q 1971 2035 1750 2076 
Q 1530 2118 1299 2118 
L 1146 2118 
L 1146 2605 
L 1357 2605 
Q 1517 2605 1686 2637 
Q 1856 2669 1997 2752 
Q 2138 2835 2227 2979 
Q 2317 3123 2317 3341 
Q 2317 3520 2253 3648 
Q 2189 3776 2083 3859 
Q 1978 3942 1840 3977 
Q 1702 4013 1549 4013 
Q 1242 4013 1027 3923 
Q 813 3834 666 3738 
L 435 4192 
Q 512 4243 630 4304 
Q 749 4365 896 4416 
Q 1043 4467 1212 4502 
Q 1382 4538 1568 4538 
Q 1920 4538 2176 4451 
Q 2432 4365 2598 4208 
Q 2765 4051 2848 3836 
Q 2931 3622 2931 3373 
Q 2931 3027 2732 2780 
Q 2534 2534 2253 2406 
Q 2426 2355 2586 2259 
Q 2746 2163 2864 2016 
Q 2982 1869 3056 1677 
Q 3130 1485 3130 1248 
Q 3130 960 3030 713 
Q 2931 467 2723 288 
Q 2515 109 2201 6 
Q 1888 -96 1459 -96 
Q 1293 -96 1117 -70 
Q 941 -45 787 -6 
Q 634 32 518 70 
Q 403 109 352 134 
L 467 653 
Q 576 602 829 518 
Q 1082 435 1446 435 
z
" transform="scale(0.015625)"/>
       </defs>
       <use xlink:href="#Ubuntu-33"/>
       <use xlink:href="#Ubuntu-2e" x="56.399994"/>
       <use xlink:href="#Ubuntu-30" x="80.999985"/>
      </g>
     </g>
    </g>
    <g id="ytick_8">
     <g id="line2d_16">
      <g>
       <use xlink:href="#mfff7d82c54" x="41.340938" y="32.2975" style="fill: #bbbbbb; stroke: #bbbbbb; stroke-width: 0.75"/>
      </g>
     </g>
     <g id="text_16">
      <!-- 3.5 -->
      <g style="fill: #9f9f9f" transform="translate(23.848438 35.40125) scale(0.08 -0.08)">
       <use xlink:href="#Ubuntu-33"/>
       <use xlink:href="#Ubuntu-2e" x="56.399994"/>
       <use xlink:href="#Ubuntu-35" x="80.999985"/>
      </g>
     </g>
    </g>
    <g id="text_17">
     <!-- Density -->
     <g style="fill: #505050" transform="translate(14.183438 65.465313) rotate(-90) scale(0.09 -0.09)">
      <defs>
       <path id="Ubuntu-Bold-44" d="M 1510 813 
Q 1581 806 1673 803 
Q 1766 800 1894 800 
Q 2643 800 3004 1177 
Q 3366 1555 3366 2221 
Q 3366 2918 3020 3276 
Q 2675 3635 1926 3635 
Q 1824 3635 1715 3632 
Q 1606 3629 1510 3616 
L 1510 813 
z
M 4397 2221 
Q 4397 1645 4217 1216 
Q 4038 787 3708 505 
Q 3379 224 2905 83 
Q 2432 -58 1843 -58 
Q 1574 -58 1216 -35 
Q 858 -13 512 58 
L 512 4378 
Q 858 4442 1232 4464 
Q 1606 4486 1875 4486 
Q 2445 4486 2909 4358 
Q 3373 4230 3705 3955 
Q 4038 3680 4217 3251 
Q 4397 2822 4397 2221 
z
" transform="scale(0.015625)"/>
       <path id="Ubuntu-Bold-65" d="M 288 1658 
Q 288 2106 425 2442 
Q 563 2778 787 3002 
Q 1011 3226 1302 3341 
Q 1594 3456 1901 3456 
Q 2618 3456 3034 3017 
Q 3450 2579 3450 1728 
Q 3450 1645 3443 1545 
Q 3437 1446 3430 1370 
L 1267 1370 
Q 1299 1075 1542 902 
Q 1786 730 2195 730 
Q 2458 730 2710 778 
Q 2963 826 3123 896 
L 3251 122 
Q 3174 83 3046 44 
Q 2918 6 2761 -22 
Q 2605 -51 2425 -70 
Q 2246 -90 2067 -90 
Q 1613 -90 1277 44 
Q 941 179 720 412 
Q 499 646 393 966 
Q 288 1286 288 1658 
z
M 2528 2022 
Q 2522 2144 2486 2259 
Q 2451 2374 2377 2464 
Q 2304 2554 2192 2611 
Q 2080 2669 1914 2669 
Q 1754 2669 1638 2614 
Q 1523 2560 1446 2470 
Q 1370 2381 1328 2262 
Q 1286 2144 1267 2022 
L 2528 2022 
z
" transform="scale(0.015625)"/>
       <path id="Ubuntu-Bold-6e" d="M 448 3251 
Q 691 3322 1075 3382 
Q 1459 3443 1882 3443 
Q 2310 3443 2595 3331 
Q 2880 3219 3046 3014 
Q 3213 2810 3283 2528 
Q 3354 2246 3354 1901 
L 3354 0 
L 2400 0 
L 2400 1786 
Q 2400 2246 2278 2438 
Q 2157 2630 1824 2630 
Q 1722 2630 1606 2620 
Q 1491 2611 1402 2598 
L 1402 0 
L 448 0 
L 448 3251 
z
" transform="scale(0.015625)"/>
       <path id="Ubuntu-Bold-73" d="M 1414 685 
Q 1677 685 1785 736 
Q 1894 787 1894 934 
Q 1894 1050 1753 1136 
Q 1613 1222 1325 1331 
Q 1101 1414 918 1504 
Q 736 1594 608 1718 
Q 480 1843 409 2016 
Q 339 2189 339 2432 
Q 339 2906 691 3181 
Q 1043 3456 1658 3456 
Q 1965 3456 2246 3401 
Q 2528 3347 2694 3283 
L 2528 2541 
Q 2362 2598 2166 2643 
Q 1971 2688 1728 2688 
Q 1280 2688 1280 2438 
Q 1280 2381 1299 2336 
Q 1318 2291 1376 2249 
Q 1434 2208 1533 2160 
Q 1632 2112 1786 2054 
Q 2099 1939 2304 1827 
Q 2509 1715 2627 1584 
Q 2746 1453 2794 1293 
Q 2842 1133 2842 922 
Q 2842 422 2467 166 
Q 2093 -90 1408 -90 
Q 960 -90 662 -13 
Q 365 64 250 115 
L 410 890 
Q 653 794 909 739 
Q 1165 685 1414 685 
z
" transform="scale(0.015625)"/>
       <path id="Ubuntu-Bold-69" d="M 1402 0 
L 448 0 
L 448 3366 
L 1402 3366 
L 1402 0 
z
M 1491 4339 
Q 1491 4077 1321 3926 
Q 1152 3776 922 3776 
Q 691 3776 521 3926 
Q 352 4077 352 4339 
Q 352 4602 521 4752 
Q 691 4902 922 4902 
Q 1152 4902 1321 4752 
Q 1491 4602 1491 4339 
z
" transform="scale(0.015625)"/>
       <path id="Ubuntu-Bold-74" d="M 416 4205 
L 1370 4358 
L 1370 3366 
L 2515 3366 
L 2515 2573 
L 1370 2573 
L 1370 1389 
Q 1370 1088 1475 909 
Q 1581 730 1901 730 
Q 2054 730 2217 758 
Q 2381 787 2515 838 
L 2650 96 
Q 2477 26 2265 -25 
Q 2054 -77 1747 -77 
Q 1357 -77 1101 28 
Q 845 134 691 323 
Q 538 512 477 781 
Q 416 1050 416 1376 
L 416 4205 
z
" transform="scale(0.015625)"/>
       <path id="Ubuntu-Bold-79" d="M 3437 3366 
Q 3149 2394 2835 1542 
Q 2522 691 2150 -109 
Q 2016 -397 1881 -598 
Q 1747 -800 1587 -931 
Q 1427 -1062 1225 -1123 
Q 1024 -1184 755 -1184 
Q 531 -1184 342 -1142 
Q 154 -1101 32 -1050 
L 198 -288 
Q 346 -339 461 -358 
Q 576 -378 704 -378 
Q 960 -378 1097 -240 
Q 1235 -102 1331 141 
Q 1005 781 678 1577 
Q 352 2374 64 3366 
L 1075 3366 
Q 1139 3117 1225 2825 
Q 1312 2534 1408 2236 
Q 1504 1939 1603 1657 
Q 1702 1376 1792 1146 
Q 1875 1376 1964 1657 
Q 2054 1939 2140 2236 
Q 2227 2534 2307 2825 
Q 2387 3117 2451 3366 
L 3437 3366 
z
" transform="scale(0.015625)"/>
      </defs>
      <use xlink:href="#Ubuntu-Bold-44"/>
      <use xlink:href="#Ubuntu-Bold-65" x="73.699982"/>
      <use xlink:href="#Ubuntu-Bold-6e" x="132.099976"/>
      <use xlink:href="#Ubuntu-Bold-73" x="190.999969"/>
      <use xlink:href="#Ubuntu-Bold-69" x="239.499954"/>
      <use xlink:href="#Ubuntu-Bold-74" x="268.399948"/>
      <use xlink:href="#Ubuntu-Bold-79" x="313.799942"/>
     </g>
    </g>
    <g id="text_18">
     <!-- 1e−5 -->
     <g style="fill: #9f9f9f" transform="translate(46.340938 29.2975) scale(0.08 -0.08)">
      <defs>
       <path id="Ubuntu-65" d="M 326 1658 
Q 326 2099 454 2428 
Q 582 2758 793 2976 
Q 1005 3194 1280 3302 
Q 1555 3411 1843 3411 
Q 2515 3411 2873 2992 
Q 3232 2573 3232 1715 
Q 3232 1677 3232 1616 
Q 3232 1555 3226 1504 
L 947 1504 
Q 986 986 1248 717 
Q 1510 448 2067 448 
Q 2381 448 2595 502 
Q 2810 557 2918 608 
L 3002 109 
Q 2893 51 2621 -13 
Q 2349 -77 2003 -77 
Q 1568 -77 1251 54 
Q 934 186 729 416 
Q 525 646 425 963 
Q 326 1280 326 1658 
z
M 2611 1984 
Q 2618 2387 2410 2646 
Q 2202 2906 1837 2906 
Q 1632 2906 1475 2826 
Q 1318 2746 1209 2618 
Q 1101 2490 1040 2323 
Q 979 2157 960 1984 
L 2611 1984 
z
" transform="scale(0.015625)"/>
      </defs>
      <use xlink:href="#Ubuntu-31"/>
      <use xlink:href="#Ubuntu-65" x="56.399994"/>
      <use xlink:href="#Ubuntu-2212" x="112.299988"/>
      <use xlink:href="#Ubuntu-35" x="168.699982"/>
     </g>
    </g>
   </g>
   <g id="PolyCollection_1">
    <defs>
     <path id="md0545d0989" d="M 190.174841 -26.422942 
L 190.174841 -26.3875 
L 190.863307 -26.3875 
L 191.551774 -26.3875 
L 192.24024 -26.3875 
L 192.928707 -26.3875 
L 193.617174 -26.3875 
L 194.30564 -26.3875 
L 194.994107 -26.3875 
L 195.682573 -26.3875 
L 196.37104 -26.3875 
L 197.059506 -26.3875 
L 197.747973 -26.3875 
L 198.436439 -26.3875 
L 199.124906 -26.3875 
L 199.813372 -26.3875 
L 200.501839 -26.3875 
L 201.190306 -26.3875 
L 201.878772 -26.3875 
L 202.567239 -26.3875 
L 203.255705 -26.3875 
L 203.944172 -26.3875 
L 204.632638 -26.3875 
L 205.321105 -26.3875 
L 206.009571 -26.3875 
L 206.698038 -26.3875 
L 207.386504 -26.3875 
L 208.074971 -26.3875 
L 208.763437 -26.3875 
L 209.451904 -26.3875 
L 210.140371 -26.3875 
L 210.828837 -26.3875 
L 211.517304 -26.3875 
L 212.20577 -26.3875 
L 212.894237 -26.3875 
L 213.582703 -26.3875 
L 214.27117 -26.3875 
L 214.959636 -26.3875 
L 215.648103 -26.3875 
L 216.336569 -26.3875 
L 217.025036 -26.3875 
L 217.713503 -26.3875 
L 218.401969 -26.3875 
L 219.090436 -26.3875 
L 219.778902 -26.3875 
L 220.467369 -26.3875 
L 221.155835 -26.3875 
L 221.844302 -26.3875 
L 222.532768 -26.3875 
L 223.221235 -26.3875 
L 223.909701 -26.3875 
L 224.598168 -26.3875 
L 225.286634 -26.3875 
L 225.975101 -26.3875 
L 226.663568 -26.3875 
L 227.352034 -26.3875 
L 228.040501 -26.3875 
L 228.728967 -26.3875 
L 229.417434 -26.3875 
L 230.1059 -26.3875 
L 230.794367 -26.3875 
L 231.482833 -26.3875 
L 232.1713 -26.3875 
L 232.859766 -26.3875 
L 233.548233 -26.3875 
L 234.2367 -26.3875 
L 234.925166 -26.3875 
L 235.613633 -26.3875 
L 236.302099 -26.3875 
L 236.990566 -26.3875 
L 237.679032 -26.3875 
L 238.367499 -26.3875 
L 239.055965 -26.3875 
L 239.744432 -26.3875 
L 240.432898 -26.3875 
L 241.121365 -26.3875 
L 241.809832 -26.3875 
L 242.498298 -26.3875 
L 243.186765 -26.3875 
L 243.875231 -26.3875 
L 244.563698 -26.3875 
L 245.252164 -26.3875 
L 245.940631 -26.3875 
L 246.629097 -26.3875 
L 247.317564 -26.3875 
L 248.00603 -26.3875 
L 248.694497 -26.3875 
L 249.382963 -26.3875 
L 250.07143 -26.3875 
L 250.759897 -26.3875 
L 251.448363 -26.3875 
L 252.13683 -26.3875 
L 252.825296 -26.3875 
L 253.513763 -26.3875 
L 254.202229 -26.3875 
L 254.890696 -26.3875 
L 255.579162 -26.3875 
L 256.267629 -26.3875 
L 256.956095 -26.3875 
L 257.644562 -26.3875 
L 258.333029 -26.3875 
L 259.021495 -26.3875 
L 259.709962 -26.3875 
L 260.398428 -26.3875 
L 261.086895 -26.3875 
L 261.775361 -26.3875 
L 262.463828 -26.3875 
L 263.152294 -26.3875 
L 263.840761 -26.3875 
L 264.529227 -26.3875 
L 265.217694 -26.3875 
L 265.90616 -26.3875 
L 266.594627 -26.3875 
L 267.283094 -26.3875 
L 267.97156 -26.3875 
L 268.660027 -26.3875 
L 269.348493 -26.3875 
L 270.03696 -26.3875 
L 270.725426 -26.3875 
L 271.413893 -26.3875 
L 272.102359 -26.3875 
L 272.790826 -26.3875 
L 273.479292 -26.3875 
L 274.167759 -26.3875 
L 274.856226 -26.3875 
L 275.544692 -26.3875 
L 276.233159 -26.3875 
L 276.921625 -26.3875 
L 277.610092 -26.3875 
L 278.298558 -26.3875 
L 278.987025 -26.3875 
L 279.675491 -26.3875 
L 280.363958 -26.3875 
L 281.052424 -26.3875 
L 281.740891 -26.3875 
L 282.429357 -26.3875 
L 283.117824 -26.3875 
L 283.806291 -26.3875 
L 284.494757 -26.3875 
L 285.183224 -26.3875 
L 285.87169 -26.3875 
L 286.560157 -26.3875 
L 287.248623 -26.3875 
L 287.93709 -26.3875 
L 288.625556 -26.3875 
L 289.314023 -26.3875 
L 290.002489 -26.3875 
L 290.690956 -26.3875 
L 291.379423 -26.3875 
L 292.067889 -26.3875 
L 292.756356 -26.3875 
L 293.444822 -26.3875 
L 294.133289 -26.3875 
L 294.821755 -26.3875 
L 295.510222 -26.3875 
L 296.198688 -26.3875 
L 296.887155 -26.3875 
L 297.575621 -26.3875 
L 298.264088 -26.3875 
L 298.952555 -26.3875 
L 299.641021 -26.3875 
L 300.329488 -26.3875 
L 301.017954 -26.3875 
L 301.706421 -26.3875 
L 302.394887 -26.3875 
L 303.083354 -26.3875 
L 303.77182 -26.3875 
L 304.460287 -26.3875 
L 305.148753 -26.3875 
L 305.83722 -26.3875 
L 306.525686 -26.3875 
L 307.214153 -26.3875 
L 307.90262 -26.3875 
L 308.591086 -26.3875 
L 309.279553 -26.3875 
L 309.968019 -26.3875 
L 310.656486 -26.3875 
L 311.344952 -26.3875 
L 312.033419 -26.3875 
L 312.721885 -26.3875 
L 313.410352 -26.3875 
L 314.098818 -26.3875 
L 314.787285 -26.3875 
L 315.475752 -26.3875 
L 316.164218 -26.3875 
L 316.852685 -26.3875 
L 317.541151 -26.3875 
L 318.229618 -26.3875 
L 318.918084 -26.3875 
L 319.606551 -26.3875 
L 320.295017 -26.3875 
L 320.983484 -26.3875 
L 321.67195 -26.3875 
L 322.360417 -26.3875 
L 323.048883 -26.3875 
L 323.73735 -26.3875 
L 324.425817 -26.3875 
L 325.114283 -26.3875 
L 325.80275 -26.3875 
L 326.491216 -26.3875 
L 327.179683 -26.3875 
L 327.179683 -26.424068 
L 327.179683 -26.424068 
L 326.491216 -26.435794 
L 325.80275 -26.450849 
L 325.114283 -26.470041 
L 324.425817 -26.494337 
L 323.73735 -26.524877 
L 323.048883 -26.563002 
L 322.360417 -26.610273 
L 321.67195 -26.668489 
L 320.983484 -26.739706 
L 320.295017 -26.826256 
L 319.606551 -26.930756 
L 318.918084 -27.056122 
L 318.229618 -27.205567 
L 317.541151 -27.382606 
L 316.852685 -27.591037 
L 316.164218 -27.834932 
L 315.475752 -28.118601 
L 314.787285 -28.446559 
L 314.098818 -28.823474 
L 313.410352 -29.2541 
L 312.721885 -29.743208 
L 312.033419 -30.295488 
L 311.344952 -30.91545 
L 310.656486 -31.607306 
L 309.968019 -32.374844 
L 309.279553 -33.221283 
L 308.591086 -34.149138 
L 307.90262 -35.160065 
L 307.214153 -36.254719 
L 306.525686 -37.432621 
L 305.83722 -38.692033 
L 305.148753 -40.029861 
L 304.460287 -41.441591 
L 303.77182 -42.921257 
L 303.083354 -44.461459 
L 302.394887 -46.053429 
L 301.706421 -47.687151 
L 301.017954 -49.351545 
L 300.329488 -51.034691 
L 299.641021 -52.724122 
L 298.952555 -54.407143 
L 298.264088 -56.071199 
L 297.575621 -57.704251 
L 296.887155 -59.295162 
L 296.198688 -60.834073 
L 295.510222 -62.312742 
L 294.821755 -63.724845 
L 294.133289 -65.066209 
L 293.444822 -66.334975 
L 292.756356 -67.531674 
L 292.067889 -68.659215 
L 291.379423 -69.722785 
L 290.690956 -70.729659 
L 290.002489 -71.68894 
L 289.314023 -72.611225 
L 288.625556 -73.50823 
L 287.93709 -74.392383 
L 287.248623 -75.276401 
L 286.560157 -76.172882 
L 285.87169 -77.09392 
L 285.183224 -78.050762 
L 284.494757 -79.053524 
L 283.806291 -80.110964 
L 283.117824 -81.230336 
L 282.429357 -82.417303 
L 281.740891 -83.67592 
L 281.052424 -85.008677 
L 280.363958 -86.416586 
L 279.675491 -87.899307 
L 278.987025 -89.455288 
L 278.298558 -91.081915 
L 277.610092 -92.77565 
L 276.921625 -94.53215 
L 276.233159 -96.346352 
L 275.544692 -98.212519 
L 274.856226 -100.124255 
L 274.167759 -102.074465 
L 273.479292 -104.055291 
L 272.790826 -106.058025 
L 272.102359 -108.072997 
L 271.413893 -110.089477 
L 270.725426 -112.095585 
L 270.03696 -114.078241 
L 269.348493 -116.023161 
L 268.660027 -117.914916 
L 267.97156 -119.737062 
L 267.283094 -121.472347 
L 266.594627 -123.102999 
L 265.90616 -124.611081 
L 265.217694 -125.978915 
L 264.529227 -127.189546 
L 263.840761 -128.227239 
L 263.152294 -129.07797 
L 262.463828 -129.729905 
L 261.775361 -130.17383 
L 261.086895 -130.403505 
L 260.398428 -130.415936 
L 259.709962 -130.211531 
L 259.021495 -129.794148 
L 258.333029 -129.171018 
L 257.644562 -128.352547 
L 256.956095 -127.352015 
L 256.267629 -126.185175 
L 255.579162 -124.869786 
L 254.890696 -123.425084 
L 254.202229 -121.871241 
L 253.513763 -120.228811 
L 252.825296 -118.518207 
L 252.13683 -116.759225 
L 251.448363 -114.970625 
L 250.759897 -113.169787 
L 250.07143 -111.372459 
L 249.382963 -109.592575 
L 248.694497 -107.842161 
L 248.00603 -106.131316 
L 247.317564 -104.468251 
L 246.629097 -102.859374 
L 245.940631 -101.309414 
L 245.252164 -99.821558 
L 244.563698 -98.397598 
L 243.875231 -97.038068 
L 243.186765 -95.742367 
L 242.498298 -94.508867 
L 241.809832 -93.334992 
L 241.121365 -92.217292 
L 240.432898 -91.151486 
L 239.744432 -90.132512 
L 239.055965 -89.154576 
L 238.367499 -88.2112 
L 237.679032 -87.295303 
L 236.990566 -86.399289 
L 236.302099 -85.515176 
L 235.613633 -84.634734 
L 234.925166 -83.749667 
L 234.2367 -82.851794 
L 233.548233 -81.933254 
L 232.859766 -80.986706 
L 232.1713 -80.005522 
L 231.482833 -78.98396 
L 230.794367 -77.917304 
L 230.1059 -76.801971 
L 229.417434 -75.635579 
L 228.728967 -74.416961 
L 228.040501 -73.146147 
L 227.352034 -71.824297 
L 226.663568 -70.453605 
L 225.975101 -69.037178 
L 225.286634 -67.578896 
L 224.598168 -66.083267 
L 223.909701 -64.555285 
L 223.221235 -63.000294 
L 222.532768 -61.42387 
L 221.844302 -59.831729 
L 221.155835 -58.229642 
L 220.467369 -56.623384 
L 219.778902 -55.018696 
L 219.090436 -53.421261 
L 218.401969 -51.836687 
L 217.713503 -50.270501 
L 217.025036 -48.728135 
L 216.336569 -47.214908 
L 215.648103 -45.736008 
L 214.959636 -44.296447 
L 214.27117 -42.901025 
L 213.582703 -41.554267 
L 212.894237 -40.260366 
L 212.20577 -39.023114 
L 211.517304 -37.845836 
L 210.828837 -36.731328 
L 210.140371 -35.681801 
L 209.451904 -34.698842 
L 208.763437 -33.78338 
L 208.074971 -32.935678 
L 207.386504 -32.155337 
L 206.698038 -31.441319 
L 206.009571 -30.791987 
L 205.321105 -30.205155 
L 204.632638 -29.67816 
L 203.944172 -29.207931 
L 203.255705 -28.791073 
L 202.567239 -28.423948 
L 201.878772 -28.102763 
L 201.190306 -27.823642 
L 200.501839 -27.582708 
L 199.813372 -27.376144 
L 199.124906 -27.200255 
L 198.436439 -27.051512 
L 197.747973 -26.926592 
L 197.059506 -26.822408 
L 196.37104 -26.736122 
L 195.682573 -26.665159 
L 194.994107 -26.60721 
L 194.30564 -26.56022 
L 193.617174 -26.522389 
L 192.928707 -26.492146 
L 192.24024 -26.468144 
L 191.551774 -26.44923 
L 190.863307 -26.434434 
L 190.174841 -26.422942 
z
" style="stroke: #858585; stroke-width: 0.01"/>
    </defs>
    <g clip-path="url(#peec4da725a)">
     <use xlink:href="#md0545d0989" x="0" y="197.285" style="fill: #858585; fill-opacity: 0.25; stroke: #858585; stroke-width: 0.01"/>
    </g>
   </g>
   <g id="line2d_17">
    <path d="M 101.89462 170.88318 
L 113.317592 170.739687 
L 120.932907 170.413615 
L 130.452051 169.712068 
L 138.067365 169.184767 
L 143.778852 168.972183 
L 149.490338 168.95666 
L 155.201824 169.139003 
L 162.817139 169.635595 
L 172.336282 170.293023 
L 178.047768 170.452175 
L 183.759254 170.319961 
L 187.566912 170.043996 
L 191.374569 169.593577 
L 195.182227 168.926681 
L 198.989884 167.96951 
L 202.797541 166.615788 
L 204.70137 165.752342 
L 206.605199 164.745536 
L 208.509028 163.584127 
L 210.412856 162.260558 
L 212.316685 160.771566 
L 214.220514 159.118183 
L 218.028171 155.339355 
L 221.835829 150.979697 
L 225.643486 146.074094 
L 229.451143 140.580703 
L 231.354972 137.571654 
L 233.258801 134.35299 
L 235.16263 130.894134 
L 237.066458 127.164979 
L 238.970287 123.14068 
L 240.874116 118.807348 
L 244.681773 109.248981 
L 250.393259 93.49385 
L 254.200917 83.336673 
L 256.104745 78.827358 
L 258.008574 74.923129 
L 259.912403 71.78183 
L 261.816231 69.539345 
L 263.72006 68.300566 
L 265.623889 68.132732 
L 267.527718 69.0615 
L 269.431546 71.069865 
L 271.335375 74.099733 
L 273.239204 78.05583 
L 275.143032 82.811517 
L 277.046861 88.216054 
L 280.854518 100.298019 
L 286.566005 119.064725 
L 288.469833 124.898007 
L 290.373662 130.334764 
L 292.277491 135.303965 
L 294.181319 139.762417 
L 296.085148 143.693295 
L 297.988977 147.103335 
L 299.892806 150.01904 
L 301.796634 152.48224 
L 303.700463 154.545357 
L 305.604292 156.266681 
L 307.50812 157.705935 
L 309.411949 158.92037 
L 311.315778 159.961567 
L 315.123435 161.689265 
L 318.931093 163.124105 
L 322.73875 164.360265 
L 326.546407 165.39992 
L 330.354065 166.222403 
L 334.161722 166.839758 
L 341.777037 167.735612 
L 349.392352 168.673391 
L 358.911495 169.914939 
L 364.622982 170.43108 
L 370.334468 170.717147 
L 377.949783 170.860132 
L 393.180412 170.85189 
L 402.699556 170.641013 
L 410.314871 170.227923 
L 425.5455 169.241424 
L 433.160815 169.075774 
L 440.77613 169.153808 
L 448.391445 169.497114 
L 467.429732 170.683213 
L 476.948875 170.862492 
L 480.756533 170.883213 
L 480.756533 170.883213 
" clip-path="url(#peec4da725a)" style="fill: none; stroke: #af5a51; stroke-width: 1.2; stroke-linecap: square"/>
   </g>
   <g id="line2d_18">
    <path d="M 179.175571 170.873792 
L 184.983789 170.721561 
L 189.132516 170.381713 
L 193.281243 169.766189 
L 204.067932 167.773045 
L 205.727423 167.320261 
L 207.386914 166.687788 
L 209.046404 165.807956 
L 210.705895 164.631876 
L 212.365386 163.142681 
L 214.024877 161.362037 
L 216.514113 158.276503 
L 228.960293 141.659009 
L 232.279275 136.778097 
L 236.428001 130.195075 
L 238.917237 125.975361 
L 240.576728 122.91197 
L 242.236219 119.481556 
L 243.89571 115.502132 
L 245.5552 110.794524 
L 247.214691 105.229036 
L 248.874182 98.773141 
L 251.363418 87.678589 
L 256.34189 64.431137 
L 258.001381 57.919512 
L 259.660872 52.635179 
L 260.490617 50.520104 
L 261.320362 48.775425 
L 262.150108 47.405946 
L 262.979853 46.410267 
L 263.809598 45.782249 
L 264.639344 45.512574 
L 265.469089 45.590256 
L 266.298834 46.003963 
L 267.12858 46.743022 
L 267.958325 47.79804 
L 268.78807 49.161106 
L 269.617816 50.825578 
L 270.447561 52.785513 
L 272.107052 57.566315 
L 273.766543 63.435217 
L 275.426033 70.276002 
L 277.915269 81.943389 
L 284.553232 114.875833 
L 287.042468 125.55201 
L 288.701959 131.793515 
L 290.36145 137.301106 
L 292.020941 142.081944 
L 293.680431 146.157459 
L 295.339922 149.555735 
L 296.999413 152.311748 
L 298.658904 154.472265 
L 300.318394 156.100827 
L 301.977885 157.278988 
L 303.637376 158.102269 
L 305.296866 158.671848 
L 307.786102 159.259592 
L 312.764575 160.365769 
L 315.253811 161.174692 
L 317.743047 162.231242 
L 320.232283 163.517756 
L 328.529737 168.161662 
L 331.018973 169.180572 
L 333.508209 169.910858 
L 335.997445 170.38036 
L 339.316426 170.709074 
L 343.465153 170.855776 
L 344.294898 170.86765 
L 344.294898 170.86765 
" clip-path="url(#peec4da725a)" style="fill: none; stroke: #608eb4; stroke-width: 1.2; stroke-linecap: square"/>
   </g>
   <g id="patch_3">
    <path d="M 41.340938 170.8975 
L 41.340938 32.2975 
" style="fill: none; stroke: #bbbbbb; stroke-width: 0.75; stroke-linejoin: miter; stroke-linecap: square"/>
   </g>
   <g id="patch_4">
    <path d="M 46.340937 175.8975 
L 548.540938 175.8975 
" style="fill: none; stroke: #bbbbbb; stroke-width: 0.75; stroke-linejoin: miter; stroke-linecap: square"/>
   </g>
   <g id="legend_1">
    <g id="patch_5">
     <path d="M 53.540938 16.66375 
L 69.540938 16.66375 
L 69.540938 11.06375 
L 53.540938 11.06375 
z
" style="fill: #858585; fill-opacity: 0.25; stroke: #858585; stroke-width: 0.01; stroke-linejoin: miter"/>
    </g>
    <g id="text_19">
     <!-- Normal distribution -->
     <g style="fill: #4b4b4b" transform="translate(75.940938 16.66375) scale(0.08 -0.08)">
      <defs>
       <path id="Ubuntu-4e" d="M 3590 0 
Q 3450 237 3267 531 
Q 3085 826 2873 1142 
Q 2662 1459 2435 1785 
Q 2208 2112 1984 2416 
Q 1760 2720 1549 2989 
Q 1338 3258 1158 3462 
L 1158 0 
L 550 0 
L 550 4435 
L 1043 4435 
Q 1344 4115 1686 3689 
Q 2029 3264 2365 2813 
Q 2701 2362 2998 1926 
Q 3296 1491 3501 1152 
L 3501 4435 
L 4109 4435 
L 4109 0 
L 3590 0 
z
" transform="scale(0.015625)"/>
       <path id="Ubuntu-6f" d="M 3450 1664 
Q 3450 1267 3334 947 
Q 3219 627 3011 396 
Q 2803 166 2515 41 
Q 2227 -83 1888 -83 
Q 1549 -83 1261 41 
Q 973 166 765 396 
Q 557 627 441 947 
Q 326 1267 326 1664 
Q 326 2054 441 2377 
Q 557 2701 765 2931 
Q 973 3162 1261 3286 
Q 1549 3411 1888 3411 
Q 2227 3411 2515 3286 
Q 2803 3162 3011 2931 
Q 3219 2701 3334 2377 
Q 3450 2054 3450 1664 
z
M 2829 1664 
Q 2829 2227 2576 2556 
Q 2323 2886 1888 2886 
Q 1453 2886 1200 2556 
Q 947 2227 947 1664 
Q 947 1101 1200 771 
Q 1453 442 1888 442 
Q 2323 442 2576 771 
Q 2829 1101 2829 1664 
z
" transform="scale(0.015625)"/>
       <path id="Ubuntu-72" d="M 1741 3398 
Q 1818 3398 1917 3388 
Q 2016 3379 2112 3363 
Q 2208 3347 2288 3331 
Q 2368 3315 2406 3302 
L 2304 2784 
Q 2234 2810 2070 2845 
Q 1907 2880 1651 2880 
Q 1485 2880 1321 2845 
Q 1158 2810 1107 2797 
L 1107 0 
L 512 0 
L 512 3187 
Q 723 3264 1036 3331 
Q 1350 3398 1741 3398 
z
" transform="scale(0.015625)"/>
       <path id="Ubuntu-6d" d="M 512 3232 
Q 717 3283 1053 3340 
Q 1389 3398 1830 3398 
Q 2150 3398 2368 3312 
Q 2586 3226 2733 3059 
Q 2778 3091 2874 3148 
Q 2970 3206 3110 3260 
Q 3251 3315 3424 3356 
Q 3597 3398 3795 3398 
Q 4179 3398 4422 3286 
Q 4666 3174 4803 2969 
Q 4941 2765 4989 2483 
Q 5037 2202 5037 1869 
L 5037 0 
L 4442 0 
L 4442 1741 
Q 4442 2035 4413 2246 
Q 4384 2458 4304 2598 
Q 4224 2739 4086 2806 
Q 3949 2874 3731 2874 
Q 3430 2874 3235 2794 
Q 3040 2714 2970 2650 
Q 3021 2483 3046 2284 
Q 3072 2086 3072 1869 
L 3072 0 
L 2477 0 
L 2477 1741 
Q 2477 2035 2445 2246 
Q 2413 2458 2333 2598 
Q 2253 2739 2115 2806 
Q 1978 2874 1766 2874 
Q 1677 2874 1574 2867 
Q 1472 2861 1379 2851 
Q 1286 2842 1209 2829 
Q 1133 2816 1107 2810 
L 1107 0 
L 512 0 
L 512 3232 
z
" transform="scale(0.015625)"/>
       <path id="Ubuntu-61" d="M 1638 429 
Q 1850 429 2013 438 
Q 2176 448 2285 474 
L 2285 1466 
Q 2221 1498 2077 1520 
Q 1933 1542 1728 1542 
Q 1594 1542 1443 1523 
Q 1293 1504 1168 1443 
Q 1043 1382 960 1276 
Q 877 1171 877 998 
Q 877 678 1081 553 
Q 1286 429 1638 429 
z
M 1587 3411 
Q 1946 3411 2192 3318 
Q 2438 3226 2588 3056 
Q 2739 2886 2803 2652 
Q 2867 2419 2867 2138 
L 2867 58 
Q 2790 45 2652 22 
Q 2515 0 2342 -19 
Q 2170 -38 1968 -54 
Q 1766 -70 1568 -70 
Q 1286 -70 1049 -12 
Q 813 45 640 169 
Q 467 294 371 499 
Q 275 704 275 992 
Q 275 1267 387 1465 
Q 499 1664 691 1785 
Q 883 1907 1139 1964 
Q 1395 2022 1677 2022 
Q 1766 2022 1862 2012 
Q 1958 2003 2044 1987 
Q 2131 1971 2195 1958 
Q 2259 1946 2285 1939 
L 2285 2106 
Q 2285 2253 2253 2397 
Q 2221 2541 2137 2653 
Q 2054 2765 1910 2832 
Q 1766 2899 1536 2899 
Q 1242 2899 1021 2857 
Q 800 2816 691 2771 
L 621 3264 
Q 736 3315 1005 3363 
Q 1274 3411 1587 3411 
z
" transform="scale(0.015625)"/>
       <path id="Ubuntu-6c" d="M 1510 -64 
Q 960 -51 729 173 
Q 499 397 499 870 
L 499 4864 
L 1094 4966 
L 1094 966 
Q 1094 819 1120 723 
Q 1146 627 1203 569 
Q 1261 512 1357 483 
Q 1453 454 1594 435 
L 1510 -64 
z
" transform="scale(0.015625)"/>
       <path id="Ubuntu-20" transform="scale(0.015625)"/>
       <path id="Ubuntu-64" d="M 2662 2624 
Q 2554 2714 2349 2797 
Q 2144 2880 1901 2880 
Q 1645 2880 1462 2787 
Q 1280 2694 1165 2531 
Q 1050 2368 998 2144 
Q 947 1920 947 1664 
Q 947 1082 1235 765 
Q 1523 448 2003 448 
Q 2246 448 2409 470 
Q 2573 493 2662 518 
L 2662 2624 
z
M 2662 4864 
L 3258 4966 
L 3258 96 
Q 3053 38 2733 -19 
Q 2413 -77 1997 -77 
Q 1613 -77 1305 44 
Q 998 166 780 390 
Q 563 614 444 937 
Q 326 1261 326 1664 
Q 326 2048 425 2368 
Q 525 2688 717 2918 
Q 909 3149 1187 3277 
Q 1466 3405 1824 3405 
Q 2112 3405 2333 3328 
Q 2554 3251 2662 3181 
L 2662 4864 
z
" transform="scale(0.015625)"/>
       <path id="Ubuntu-69" d="M 1107 0 
L 512 0 
L 512 3328 
L 1107 3328 
L 1107 0 
z
M 806 3930 
Q 646 3930 534 4035 
Q 422 4141 422 4320 
Q 422 4499 534 4604 
Q 646 4710 806 4710 
Q 966 4710 1078 4604 
Q 1190 4499 1190 4320 
Q 1190 4141 1078 4035 
Q 966 3930 806 3930 
z
" transform="scale(0.015625)"/>
       <path id="Ubuntu-73" d="M 1286 429 
Q 1651 429 1827 525 
Q 2003 621 2003 832 
Q 2003 1050 1830 1178 
Q 1658 1306 1261 1466 
Q 1069 1542 893 1622 
Q 717 1702 589 1811 
Q 461 1920 384 2073 
Q 307 2227 307 2451 
Q 307 2893 633 3152 
Q 960 3411 1523 3411 
Q 1664 3411 1805 3395 
Q 1946 3379 2067 3356 
Q 2189 3334 2281 3308 
Q 2374 3283 2426 3264 
L 2317 2752 
Q 2221 2803 2016 2857 
Q 1811 2912 1523 2912 
Q 1274 2912 1088 2813 
Q 902 2714 902 2502 
Q 902 2394 944 2310 
Q 986 2227 1072 2160 
Q 1158 2093 1286 2035 
Q 1414 1978 1594 1914 
Q 1830 1824 2016 1737 
Q 2202 1651 2333 1536 
Q 2464 1421 2534 1257 
Q 2605 1094 2605 858 
Q 2605 397 2262 160 
Q 1920 -77 1286 -77 
Q 845 -77 595 -3 
Q 346 70 256 109 
L 365 621 
Q 467 582 691 505 
Q 915 429 1286 429 
z
" transform="scale(0.015625)"/>
       <path id="Ubuntu-74" d="M 1069 3328 
L 2330 3328 
L 2330 2829 
L 1069 2829 
L 1069 1293 
Q 1069 1043 1107 880 
Q 1146 717 1222 624 
Q 1299 531 1414 492 
Q 1530 454 1683 454 
Q 1952 454 2115 515 
Q 2278 576 2342 602 
L 2458 109 
Q 2368 64 2144 -3 
Q 1920 -70 1632 -70 
Q 1293 -70 1072 16 
Q 851 102 716 275 
Q 582 448 528 701 
Q 474 954 474 1286 
L 474 4256 
L 1069 4358 
L 1069 3328 
z
" transform="scale(0.015625)"/>
       <path id="Ubuntu-62" d="M 1107 3181 
Q 1216 3251 1437 3328 
Q 1658 3405 1946 3405 
Q 2304 3405 2582 3277 
Q 2861 3149 3053 2918 
Q 3245 2688 3344 2368 
Q 3443 2048 3443 1664 
Q 3443 1261 3324 937 
Q 3206 614 2988 390 
Q 2771 166 2464 44 
Q 2157 -77 1773 -77 
Q 1357 -77 1037 -19 
Q 717 38 512 96 
L 512 4864 
L 1107 4966 
L 1107 3181 
z
M 1107 518 
Q 1197 493 1360 470 
Q 1523 448 1766 448 
Q 2246 448 2534 765 
Q 2822 1082 2822 1664 
Q 2822 1920 2771 2144 
Q 2720 2368 2605 2531 
Q 2490 2694 2307 2787 
Q 2125 2880 1869 2880 
Q 1626 2880 1421 2797 
Q 1216 2714 1107 2624 
L 1107 518 
z
" transform="scale(0.015625)"/>
       <path id="Ubuntu-75" d="M 3162 96 
Q 2957 45 2621 -12 
Q 2285 -70 1843 -70 
Q 1459 -70 1196 42 
Q 934 154 774 358 
Q 614 563 544 841 
Q 474 1120 474 1459 
L 474 3328 
L 1069 3328 
L 1069 1587 
Q 1069 979 1261 716 
Q 1453 454 1907 454 
Q 2003 454 2105 460 
Q 2208 467 2297 476 
Q 2387 486 2460 496 
Q 2534 506 2566 518 
L 2566 3328 
L 3162 3328 
L 3162 96 
z
" transform="scale(0.015625)"/>
       <path id="Ubuntu-6e" d="M 512 3232 
Q 717 3283 1056 3340 
Q 1395 3398 1837 3398 
Q 2234 3398 2496 3286 
Q 2758 3174 2915 2972 
Q 3072 2771 3136 2489 
Q 3200 2208 3200 1869 
L 3200 0 
L 2605 0 
L 2605 1741 
Q 2605 2048 2563 2265 
Q 2522 2483 2426 2617 
Q 2330 2752 2170 2813 
Q 2010 2874 1773 2874 
Q 1677 2874 1574 2867 
Q 1472 2861 1379 2851 
Q 1286 2842 1212 2829 
Q 1139 2816 1107 2810 
L 1107 0 
L 512 0 
L 512 3232 
z
" transform="scale(0.015625)"/>
      </defs>
      <use xlink:href="#Ubuntu-4e"/>
      <use xlink:href="#Ubuntu-6f" x="72.799988"/>
      <use xlink:href="#Ubuntu-72" x="131.799973"/>
      <use xlink:href="#Ubuntu-6d" x="170.399963"/>
      <use xlink:href="#Ubuntu-61" x="256.499954"/>
      <use xlink:href="#Ubuntu-6c" x="308.699951"/>
      <use xlink:href="#Ubuntu-20" x="335.999939"/>
      <use xlink:href="#Ubuntu-64" x="359.09993"/>
      <use xlink:href="#Ubuntu-69" x="417.999924"/>
      <use xlink:href="#Ubuntu-73" x="443.299911"/>
      <use xlink:href="#Ubuntu-74" x="487.899902"/>
      <use xlink:href="#Ubuntu-72" x="528.099899"/>
      <use xlink:href="#Ubuntu-69" x="566.69989"/>
      <use xlink:href="#Ubuntu-62" x="591.999878"/>
      <use xlink:href="#Ubuntu-75" x="650.899872"/>
      <use xlink:href="#Ubuntu-74" x="708.299866"/>
      <use xlink:href="#Ubuntu-69" x="748.499863"/>
      <use xlink:href="#Ubuntu-6f" x="773.79985"/>
      <use xlink:href="#Ubuntu-6e" x="832.799835"/>
     </g>
    </g>
    <g id="line2d_19">
     <path d="M 163.155938 13.86375 
L 171.155938 13.86375 
L 179.155938 13.86375 
" style="fill: none; stroke: #af5a51; stroke-width: 1.2; stroke-linecap: square"/>
    </g>
    <g id="text_20">
     <!-- Residuals (original) -->
     <g style="fill: #4b4b4b" transform="translate(185.555938 16.66375) scale(0.08 -0.08)">
      <defs>
       <path id="Ubuntu-52" d="M 2720 1856 
Q 2822 1728 2979 1520 
Q 3136 1312 3302 1059 
Q 3469 806 3632 531 
Q 3795 256 3910 0 
L 3232 0 
Q 3104 243 2953 492 
Q 2803 742 2649 969 
Q 2496 1197 2345 1395 
Q 2195 1594 2074 1741 
Q 1990 1734 1904 1734 
Q 1818 1734 1728 1734 
L 1171 1734 
L 1171 0 
L 550 0 
L 550 4371 
Q 813 4435 1136 4457 
Q 1459 4480 1728 4480 
Q 2662 4480 3152 4128 
Q 3642 3776 3642 3078 
Q 3642 2637 3408 2323 
Q 3174 2010 2720 1856 
z
M 1779 3936 
Q 1382 3936 1171 3917 
L 1171 2246 
L 1613 2246 
Q 1933 2246 2189 2278 
Q 2445 2310 2621 2400 
Q 2797 2490 2893 2653 
Q 2989 2816 2989 3085 
Q 2989 3334 2893 3500 
Q 2797 3667 2633 3763 
Q 2470 3859 2249 3897 
Q 2029 3936 1779 3936 
z
" transform="scale(0.015625)"/>
       <path id="Ubuntu-28" d="M 1094 1914 
Q 1094 1094 1331 396 
Q 1568 -301 2029 -896 
L 1606 -1184 
Q 1107 -576 803 214 
Q 499 1005 499 1914 
Q 499 2822 803 3612 
Q 1107 4403 1606 5011 
L 2029 4723 
Q 1568 4128 1331 3430 
Q 1094 2733 1094 1914 
z
" transform="scale(0.015625)"/>
       <path id="Ubuntu-67" d="M 2598 333 
Q 2522 282 2301 202 
Q 2080 122 1786 122 
Q 1485 122 1219 218 
Q 954 314 755 515 
Q 557 717 441 1017 
Q 326 1318 326 1734 
Q 326 2099 435 2403 
Q 544 2707 752 2928 
Q 960 3149 1261 3273 
Q 1562 3398 1939 3398 
Q 2355 3398 2665 3337 
Q 2976 3277 3187 3226 
L 3187 256 
Q 3187 -512 2790 -857 
Q 2394 -1203 1587 -1203 
Q 1274 -1203 995 -1152 
Q 717 -1101 512 -1030 
L 621 -512 
Q 800 -582 1059 -636 
Q 1318 -691 1600 -691 
Q 2131 -691 2364 -480 
Q 2598 -269 2598 192 
L 2598 333 
z
M 2592 2803 
Q 2502 2829 2352 2851 
Q 2202 2874 1946 2874 
Q 1466 2874 1206 2560 
Q 947 2246 947 1728 
Q 947 1440 1020 1235 
Q 1094 1030 1219 896 
Q 1344 762 1507 698 
Q 1670 634 1843 634 
Q 2080 634 2278 701 
Q 2477 768 2592 858 
L 2592 2803 
z
" transform="scale(0.015625)"/>
       <path id="Ubuntu-29" d="M 979 1914 
Q 979 2733 742 3430 
Q 506 4128 45 4723 
L 467 5011 
Q 966 4403 1270 3612 
Q 1574 2822 1574 1914 
Q 1574 1005 1270 214 
Q 966 -576 467 -1184 
L 45 -896 
Q 506 -301 742 396 
Q 979 1094 979 1914 
z
" transform="scale(0.015625)"/>
      </defs>
      <use xlink:href="#Ubuntu-52"/>
      <use xlink:href="#Ubuntu-65" x="62.899994"/>
      <use xlink:href="#Ubuntu-73" x="118.799988"/>
      <use xlink:href="#Ubuntu-69" x="163.399979"/>
      <use xlink:href="#Ubuntu-64" x="188.699966"/>
      <use xlink:href="#Ubuntu-75" x="247.59996"/>
      <use xlink:href="#Ubuntu-61" x="304.999954"/>
      <use xlink:href="#Ubuntu-6c" x="357.199951"/>
      <use xlink:href="#Ubuntu-73" x="384.499939"/>
      <use xlink:href="#Ubuntu-20" x="429.09993"/>
      <use xlink:href="#Ubuntu-28" x="452.199921"/>
      <use xlink:href="#Ubuntu-6f" x="484.599915"/>
      <use xlink:href="#Ubuntu-72" x="543.599899"/>
      <use xlink:href="#Ubuntu-69" x="582.19989"/>
      <use xlink:href="#Ubuntu-67" x="607.499878"/>
      <use xlink:href="#Ubuntu-69" x="665.299866"/>
      <use xlink:href="#Ubuntu-6e" x="690.599854"/>
      <use xlink:href="#Ubuntu-61" x="747.999847"/>
      <use xlink:href="#Ubuntu-6c" x="800.199844"/>
      <use xlink:href="#Ubuntu-29" x="827.499832"/>
     </g>
    </g>
    <g id="line2d_20">
     <path d="M 270.348437 13.86375 
L 278.348437 13.86375 
L 286.348437 13.86375 
" style="fill: none; stroke: #608eb4; stroke-width: 1.2; stroke-linecap: square"/>
    </g>
    <g id="text_21">
     <!-- Residuals (trimmed) -->
     <g style="fill: #4b4b4b" transform="translate(292.748437 16.66375) scale(0.08 -0.08)">
      <use xlink:href="#Ubuntu-52"/>
      <use xlink:href="#Ubuntu-65" x="62.899994"/>
      <use xlink:href="#Ubuntu-73" x="118.799988"/>
      <use xlink:href="#Ubuntu-69" x="163.399979"/>
      <use xlink:href="#Ubuntu-64" x="188.699966"/>
      <use xlink:href="#Ubuntu-75" x="247.59996"/>
      <use xlink:href="#Ubuntu-61" x="304.999954"/>
      <use xlink:href="#Ubuntu-6c" x="357.199951"/>
      <use xlink:href="#Ubuntu-73" x="384.499939"/>
      <use xlink:href="#Ubuntu-20" x="429.09993"/>
      <use xlink:href="#Ubuntu-28" x="452.199921"/>
      <use xlink:href="#Ubuntu-74" x="484.599915"/>
      <use xlink:href="#Ubuntu-72" x="524.799911"/>
      <use xlink:href="#Ubuntu-69" x="563.399902"/>
      <use xlink:href="#Ubuntu-6d" x="588.69989"/>
      <use xlink:href="#Ubuntu-6d" x="674.799881"/>
      <use xlink:href="#Ubuntu-65" x="760.899872"/>
      <use xlink:href="#Ubuntu-64" x="816.799866"/>
      <use xlink:href="#Ubuntu-29" x="875.69986"/>
     </g>
    </g>
   </g>
  </g>
 </g>
 <defs>
  <clipPath id="peec4da725a">
   <rect x="46.340938" y="32.2975" width="502.2" height="138.6"/>
  </clipPath>
 </defs>
</svg>
