<?xml version="1.0" encoding="utf-8" standalone="no"?>
<!DOCTYPE svg PUBLIC "-//W3C//DTD SVG 1.1//EN"
  "http://www.w3.org/Graphics/SVG/1.1/DTD/svg11.dtd">
<svg xmlns:xlink="http://www.w3.org/1999/xlink" width="500.473438pt" height="199.439688pt" viewBox="0 0 500.473438 199.439688" xmlns="http://www.w3.org/2000/svg" version="1.1">
 <metadata>
  <rdf:RDF xmlns:dc="http://purl.org/dc/elements/1.1/" xmlns:cc="http://creativecommons.org/ns#" xmlns:rdf="http://www.w3.org/1999/02/22-rdf-syntax-ns#">
   <cc:Work>
    <dc:type rdf:resource="http://purl.org/dc/dcmitype/StillImage"/>
    <dc:date>2024-04-10T11:42:21.867936</dc:date>
    <dc:format>image/svg+xml</dc:format>
    <dc:creator>
     <cc:Agent>
      <dc:title>Matplotlib v3.8.0, https://matplotlib.org/</dc:title>
     </cc:Agent>
    </dc:creator>
   </cc:Work>
  </rdf:RDF>
 </metadata>
 <defs>
  <style type="text/css">*{stroke-linejoin: round; stroke-linecap: butt}</style>
 </defs>
 <g id="figure_1">
  <g id="patch_1">
   <path d="M 0 199.439688 
L 500.473438 199.439688 
L 500.473438 0 
L 0 0 
L 0 199.439688 
z
" style="fill: none"/>
  </g>
  <g id="axes_1">
   <g id="patch_2">
    <path d="M 42.360938 148.90375 
L 488.760937 148.90375 
L 488.760937 10.30375 
L 42.360938 10.30375 
L 42.360938 148.90375 
z
" style="fill: none"/>
   </g>
   <g id="matplotlib.axis_1">
    <g id="xtick_1">
     <g id="line2d_1">
      <defs>
       <path id="m7e33542a97" d="M 0 0 
L 0 3 
" style="stroke: #aaaaaa; stroke-width: 0.75"/>
      </defs>
      <g>
       <use xlink:href="#m7e33542a97" x="42.360938" y="158.90375" style="fill: #aaaaaa; stroke: #aaaaaa; stroke-width: 0.75"/>
      </g>
     </g>
     <g id="text_1">
      <!-- 0 -->
      <g style="fill: #808080" transform="translate(40.104688 174.11125) scale(0.08 -0.08)">
       <defs>
        <path id="Ubuntu-30" d="M 320 2221 
Q 320 3334 713 3936 
Q 1107 4538 1805 4538 
Q 2502 4538 2896 3936 
Q 3290 3334 3290 2221 
Q 3290 1107 2896 505 
Q 2502 -96 1805 -96 
Q 1107 -96 713 505 
Q 320 1107 320 2221 
z
M 2662 2221 
Q 2662 2586 2620 2912 
Q 2579 3238 2480 3481 
Q 2381 3725 2214 3869 
Q 2048 4013 1805 4013 
Q 1562 4013 1395 3869 
Q 1229 3725 1129 3481 
Q 1030 3238 988 2912 
Q 947 2586 947 2221 
Q 947 1856 988 1529 
Q 1030 1203 1129 960 
Q 1229 717 1395 573 
Q 1562 429 1805 429 
Q 2048 429 2214 573 
Q 2381 717 2480 960 
Q 2579 1203 2620 1529 
Q 2662 1856 2662 2221 
z
" transform="scale(0.015625)"/>
       </defs>
       <use xlink:href="#Ubuntu-30"/>
      </g>
     </g>
    </g>
    <g id="xtick_2">
     <g id="line2d_2">
      <g>
       <use xlink:href="#m7e33542a97" x="87.000937" y="158.90375" style="fill: #aaaaaa; stroke: #aaaaaa; stroke-width: 0.75"/>
      </g>
     </g>
     <g id="text_2">
      <!-- 5 -->
      <g style="fill: #808080" transform="translate(84.744687 174.11125) scale(0.08 -0.08)">
       <defs>
        <path id="Ubuntu-35" d="M 1274 2726 
Q 2240 2688 2691 2304 
Q 3142 1920 3142 1261 
Q 3142 966 3043 716 
Q 2944 467 2742 288 
Q 2541 109 2233 6 
Q 1926 -96 1504 -96 
Q 1338 -96 1165 -70 
Q 992 -45 845 -6 
Q 698 32 582 70 
Q 467 109 416 134 
L 531 653 
Q 640 602 886 518 
Q 1133 435 1491 435 
Q 1779 435 1974 499 
Q 2170 563 2291 672 
Q 2413 781 2467 925 
Q 2522 1069 2522 1229 
Q 2522 1472 2438 1661 
Q 2355 1850 2144 1978 
Q 1933 2106 1581 2173 
Q 1229 2240 691 2240 
Q 730 2554 752 2829 
Q 774 3104 793 3366 
Q 813 3629 825 3888 
Q 838 4147 851 4435 
L 2989 4435 
L 2989 3930 
L 1370 3930 
Q 1363 3834 1350 3670 
Q 1338 3507 1325 3331 
Q 1312 3155 1299 2988 
Q 1286 2822 1274 2726 
z
" transform="scale(0.015625)"/>
       </defs>
       <use xlink:href="#Ubuntu-35"/>
      </g>
     </g>
    </g>
    <g id="xtick_3">
     <g id="line2d_3">
      <g>
       <use xlink:href="#m7e33542a97" x="131.640938" y="158.90375" style="fill: #aaaaaa; stroke: #aaaaaa; stroke-width: 0.75"/>
      </g>
     </g>
     <g id="text_3">
      <!-- 10 -->
      <g style="fill: #808080" transform="translate(127.128438 174.11125) scale(0.08 -0.08)">
       <defs>
        <path id="Ubuntu-31" d="M 595 3520 
Q 960 3661 1305 3881 
Q 1651 4102 1939 4435 
L 2362 4435 
L 2362 0 
L 1766 0 
L 1766 3610 
Q 1690 3539 1578 3462 
Q 1466 3386 1334 3315 
Q 1203 3245 1059 3181 
Q 915 3117 781 3072 
L 595 3520 
z
" transform="scale(0.015625)"/>
       </defs>
       <use xlink:href="#Ubuntu-31"/>
       <use xlink:href="#Ubuntu-30" x="56.399994"/>
      </g>
     </g>
    </g>
    <g id="xtick_4">
     <g id="line2d_4">
      <g>
       <use xlink:href="#m7e33542a97" x="176.280937" y="158.90375" style="fill: #aaaaaa; stroke: #aaaaaa; stroke-width: 0.75"/>
      </g>
     </g>
     <g id="text_4">
      <!-- 15 -->
      <g style="fill: #808080" transform="translate(171.768438 174.11125) scale(0.08 -0.08)">
       <use xlink:href="#Ubuntu-31"/>
       <use xlink:href="#Ubuntu-35" x="56.399994"/>
      </g>
     </g>
    </g>
    <g id="xtick_5">
     <g id="line2d_5">
      <g>
       <use xlink:href="#m7e33542a97" x="220.920937" y="158.90375" style="fill: #aaaaaa; stroke: #aaaaaa; stroke-width: 0.75"/>
      </g>
     </g>
     <g id="text_5">
      <!-- 20 -->
      <g style="fill: #808080" transform="translate(216.408437 174.11125) scale(0.08 -0.08)">
       <defs>
        <path id="Ubuntu-32" d="M 2989 3302 
Q 2989 3072 2896 2857 
Q 2803 2643 2649 2435 
Q 2496 2227 2304 2025 
Q 2112 1824 1920 1632 
Q 1811 1523 1667 1376 
Q 1523 1229 1395 1069 
Q 1267 909 1180 761 
Q 1094 614 1094 506 
L 3136 506 
L 3136 0 
L 448 0 
Q 442 38 442 76 
Q 442 115 442 147 
Q 442 448 541 707 
Q 640 966 800 1196 
Q 960 1427 1158 1632 
Q 1357 1837 1549 2029 
Q 1709 2182 1853 2332 
Q 1997 2483 2109 2633 
Q 2221 2784 2288 2944 
Q 2355 3104 2355 3283 
Q 2355 3475 2294 3609 
Q 2234 3744 2131 3833 
Q 2029 3923 1891 3964 
Q 1754 4006 1600 4006 
Q 1414 4006 1260 3955 
Q 1107 3904 985 3837 
Q 864 3770 781 3696 
Q 698 3622 653 3584 
L 358 4006 
Q 416 4070 531 4163 
Q 646 4256 806 4339 
Q 966 4422 1164 4480 
Q 1363 4538 1594 4538 
Q 2291 4538 2640 4214 
Q 2989 3891 2989 3302 
z
" transform="scale(0.015625)"/>
       </defs>
       <use xlink:href="#Ubuntu-32"/>
       <use xlink:href="#Ubuntu-30" x="56.399994"/>
      </g>
     </g>
    </g>
    <g id="xtick_6">
     <g id="line2d_6">
      <g>
       <use xlink:href="#m7e33542a97" x="265.560938" y="158.90375" style="fill: #aaaaaa; stroke: #aaaaaa; stroke-width: 0.75"/>
      </g>
     </g>
     <g id="text_6">
      <!-- 25 -->
      <g style="fill: #808080" transform="translate(261.048438 174.11125) scale(0.08 -0.08)">
       <use xlink:href="#Ubuntu-32"/>
       <use xlink:href="#Ubuntu-35" x="56.399994"/>
      </g>
     </g>
    </g>
    <g id="xtick_7">
     <g id="line2d_7">
      <g>
       <use xlink:href="#m7e33542a97" x="310.200938" y="158.90375" style="fill: #aaaaaa; stroke: #aaaaaa; stroke-width: 0.75"/>
      </g>
     </g>
     <g id="text_7">
      <!-- 30 -->
      <g style="fill: #808080" transform="translate(305.688438 174.11125) scale(0.08 -0.08)">
       <defs>
        <path id="Ubuntu-33" d="M 1446 435 
Q 2016 435 2262 659 
Q 2509 883 2509 1261 
Q 2509 1504 2406 1670 
Q 2304 1837 2137 1936 
Q 1971 2035 1750 2076 
Q 1530 2118 1299 2118 
L 1146 2118 
L 1146 2605 
L 1357 2605 
Q 1517 2605 1686 2637 
Q 1856 2669 1997 2752 
Q 2138 2835 2227 2979 
Q 2317 3123 2317 3341 
Q 2317 3520 2253 3648 
Q 2189 3776 2083 3859 
Q 1978 3942 1840 3977 
Q 1702 4013 1549 4013 
Q 1242 4013 1027 3923 
Q 813 3834 666 3738 
L 435 4192 
Q 512 4243 630 4304 
Q 749 4365 896 4416 
Q 1043 4467 1212 4502 
Q 1382 4538 1568 4538 
Q 1920 4538 2176 4451 
Q 2432 4365 2598 4208 
Q 2765 4051 2848 3836 
Q 2931 3622 2931 3373 
Q 2931 3027 2732 2780 
Q 2534 2534 2253 2406 
Q 2426 2355 2586 2259 
Q 2746 2163 2864 2016 
Q 2982 1869 3056 1677 
Q 3130 1485 3130 1248 
Q 3130 960 3030 713 
Q 2931 467 2723 288 
Q 2515 109 2201 6 
Q 1888 -96 1459 -96 
Q 1293 -96 1117 -70 
Q 941 -45 787 -6 
Q 634 32 518 70 
Q 403 109 352 134 
L 467 653 
Q 576 602 829 518 
Q 1082 435 1446 435 
z
" transform="scale(0.015625)"/>
       </defs>
       <use xlink:href="#Ubuntu-33"/>
       <use xlink:href="#Ubuntu-30" x="56.399994"/>
      </g>
     </g>
    </g>
    <g id="xtick_8">
     <g id="line2d_8">
      <g>
       <use xlink:href="#m7e33542a97" x="354.840937" y="158.90375" style="fill: #aaaaaa; stroke: #aaaaaa; stroke-width: 0.75"/>
      </g>
     </g>
     <g id="text_8">
      <!-- 35 -->
      <g style="fill: #808080" transform="translate(350.328438 174.11125) scale(0.08 -0.08)">
       <use xlink:href="#Ubuntu-33"/>
       <use xlink:href="#Ubuntu-35" x="56.399994"/>
      </g>
     </g>
    </g>
    <g id="xtick_9">
     <g id="line2d_9">
      <g>
       <use xlink:href="#m7e33542a97" x="399.480937" y="158.90375" style="fill: #aaaaaa; stroke: #aaaaaa; stroke-width: 0.75"/>
      </g>
     </g>
     <g id="text_9">
      <!-- 40 -->
      <g style="fill: #808080" transform="translate(394.968437 174.11125) scale(0.08 -0.08)">
       <defs>
        <path id="Ubuntu-34" d="M 256 1536 
Q 378 1818 589 2192 
Q 800 2566 1065 2963 
Q 1331 3360 1635 3744 
Q 1939 4128 2246 4435 
L 2816 4435 
L 2816 1619 
L 3341 1619 
L 3341 1133 
L 2816 1133 
L 2816 0 
L 2240 0 
L 2240 1133 
L 256 1133 
L 256 1536 
z
M 2240 3731 
Q 2048 3526 1853 3273 
Q 1658 3021 1472 2745 
Q 1286 2470 1123 2182 
Q 960 1894 832 1619 
L 2240 1619 
L 2240 3731 
z
" transform="scale(0.015625)"/>
       </defs>
       <use xlink:href="#Ubuntu-34"/>
       <use xlink:href="#Ubuntu-30" x="56.399994"/>
      </g>
     </g>
    </g>
    <g id="xtick_10">
     <g id="line2d_10">
      <g>
       <use xlink:href="#m7e33542a97" x="444.120937" y="158.90375" style="fill: #aaaaaa; stroke: #aaaaaa; stroke-width: 0.75"/>
      </g>
     </g>
     <g id="text_10">
      <!-- 45 -->
      <g style="fill: #808080" transform="translate(439.608437 174.11125) scale(0.08 -0.08)">
       <use xlink:href="#Ubuntu-34"/>
       <use xlink:href="#Ubuntu-35" x="56.399994"/>
      </g>
     </g>
    </g>
    <g id="xtick_11">
     <g id="line2d_11">
      <g>
       <use xlink:href="#m7e33542a97" x="488.760937" y="158.90375" style="fill: #aaaaaa; stroke: #aaaaaa; stroke-width: 0.75"/>
      </g>
     </g>
     <g id="text_11">
      <!-- 50 -->
      <g style="fill: #808080" transform="translate(484.248437 174.11125) scale(0.08 -0.08)">
       <use xlink:href="#Ubuntu-35"/>
       <use xlink:href="#Ubuntu-30" x="56.399994"/>
      </g>
     </g>
    </g>
    <g id="text_12">
     <!-- Masvnrarea -->
     <g style="fill: #505050" transform="translate(42.360938 190.574688) scale(0.09 -0.09)">
      <defs>
       <path id="Ubuntu-Bold-4d" d="M 1690 4435 
Q 1805 4224 1955 3913 
Q 2106 3603 2269 3241 
Q 2432 2880 2592 2502 
Q 2752 2125 2893 1792 
Q 3034 2125 3194 2502 
Q 3354 2880 3517 3241 
Q 3680 3603 3830 3913 
Q 3981 4224 4096 4435 
L 5005 4435 
Q 5069 3994 5123 3446 
Q 5178 2899 5219 2307 
Q 5261 1715 5296 1120 
Q 5331 525 5357 0 
L 4384 0 
Q 4365 646 4333 1408 
Q 4301 2170 4237 2944 
Q 4122 2675 3981 2348 
Q 3840 2022 3702 1696 
Q 3565 1370 3437 1072 
Q 3309 774 3219 563 
L 2522 563 
Q 2432 774 2304 1072 
Q 2176 1370 2038 1696 
Q 1901 2022 1760 2348 
Q 1619 2675 1504 2944 
Q 1440 2170 1408 1408 
Q 1376 646 1357 0 
L 384 0 
Q 410 525 445 1120 
Q 480 1715 521 2307 
Q 563 2899 617 3446 
Q 672 3994 736 4435 
L 1690 4435 
z
" transform="scale(0.015625)"/>
       <path id="Ubuntu-Bold-61" d="M 1734 666 
Q 1875 666 2003 672 
Q 2131 678 2208 691 
L 2208 1414 
Q 2150 1427 2035 1440 
Q 1920 1453 1824 1453 
Q 1690 1453 1571 1437 
Q 1453 1421 1363 1376 
Q 1274 1331 1222 1254 
Q 1171 1178 1171 1062 
Q 1171 838 1321 752 
Q 1472 666 1734 666 
z
M 1658 3456 
Q 2080 3456 2361 3360 
Q 2643 3264 2812 3085 
Q 2982 2906 3052 2650 
Q 3123 2394 3123 2080 
L 3123 96 
Q 2918 51 2553 -9 
Q 2189 -70 1670 -70 
Q 1344 -70 1078 -12 
Q 813 45 621 176 
Q 429 307 326 518 
Q 224 730 224 1037 
Q 224 1331 342 1536 
Q 461 1741 659 1862 
Q 858 1984 1114 2038 
Q 1370 2093 1645 2093 
Q 1830 2093 1974 2077 
Q 2118 2061 2208 2035 
L 2208 2125 
Q 2208 2368 2061 2515 
Q 1914 2662 1549 2662 
Q 1306 2662 1069 2627 
Q 832 2592 659 2528 
L 538 3296 
Q 621 3322 745 3350 
Q 870 3379 1017 3401 
Q 1165 3424 1328 3440 
Q 1491 3456 1658 3456 
z
" transform="scale(0.015625)"/>
       <path id="Ubuntu-Bold-73" d="M 1414 685 
Q 1677 685 1785 736 
Q 1894 787 1894 934 
Q 1894 1050 1753 1136 
Q 1613 1222 1325 1331 
Q 1101 1414 918 1504 
Q 736 1594 608 1718 
Q 480 1843 409 2016 
Q 339 2189 339 2432 
Q 339 2906 691 3181 
Q 1043 3456 1658 3456 
Q 1965 3456 2246 3401 
Q 2528 3347 2694 3283 
L 2528 2541 
Q 2362 2598 2166 2643 
Q 1971 2688 1728 2688 
Q 1280 2688 1280 2438 
Q 1280 2381 1299 2336 
Q 1318 2291 1376 2249 
Q 1434 2208 1533 2160 
Q 1632 2112 1786 2054 
Q 2099 1939 2304 1827 
Q 2509 1715 2627 1584 
Q 2746 1453 2794 1293 
Q 2842 1133 2842 922 
Q 2842 422 2467 166 
Q 2093 -90 1408 -90 
Q 960 -90 662 -13 
Q 365 64 250 115 
L 410 890 
Q 653 794 909 739 
Q 1165 685 1414 685 
z
" transform="scale(0.015625)"/>
       <path id="Ubuntu-Bold-76" d="M 1363 0 
Q 1037 640 701 1497 
Q 365 2355 64 3366 
L 1075 3366 
Q 1139 3117 1225 2825 
Q 1312 2534 1405 2236 
Q 1498 1939 1590 1657 
Q 1683 1376 1773 1146 
Q 1856 1376 1952 1657 
Q 2048 1939 2141 2236 
Q 2234 2534 2320 2825 
Q 2406 3117 2470 3366 
L 3456 3366 
Q 3155 2355 2819 1497 
Q 2483 640 2157 0 
L 1363 0 
z
" transform="scale(0.015625)"/>
       <path id="Ubuntu-Bold-6e" d="M 448 3251 
Q 691 3322 1075 3382 
Q 1459 3443 1882 3443 
Q 2310 3443 2595 3331 
Q 2880 3219 3046 3014 
Q 3213 2810 3283 2528 
Q 3354 2246 3354 1901 
L 3354 0 
L 2400 0 
L 2400 1786 
Q 2400 2246 2278 2438 
Q 2157 2630 1824 2630 
Q 1722 2630 1606 2620 
Q 1491 2611 1402 2598 
L 1402 0 
L 448 0 
L 448 3251 
z
" transform="scale(0.015625)"/>
       <path id="Ubuntu-Bold-72" d="M 2477 2522 
Q 2349 2554 2176 2589 
Q 2003 2624 1805 2624 
Q 1715 2624 1590 2608 
Q 1466 2592 1402 2573 
L 1402 0 
L 448 0 
L 448 3187 
Q 704 3277 1053 3357 
Q 1402 3437 1830 3437 
Q 1907 3437 2016 3427 
Q 2125 3418 2233 3402 
Q 2342 3386 2451 3363 
Q 2560 3341 2637 3309 
L 2477 2522 
z
" transform="scale(0.015625)"/>
       <path id="Ubuntu-Bold-65" d="M 288 1658 
Q 288 2106 425 2442 
Q 563 2778 787 3002 
Q 1011 3226 1302 3341 
Q 1594 3456 1901 3456 
Q 2618 3456 3034 3017 
Q 3450 2579 3450 1728 
Q 3450 1645 3443 1545 
Q 3437 1446 3430 1370 
L 1267 1370 
Q 1299 1075 1542 902 
Q 1786 730 2195 730 
Q 2458 730 2710 778 
Q 2963 826 3123 896 
L 3251 122 
Q 3174 83 3046 44 
Q 2918 6 2761 -22 
Q 2605 -51 2425 -70 
Q 2246 -90 2067 -90 
Q 1613 -90 1277 44 
Q 941 179 720 412 
Q 499 646 393 966 
Q 288 1286 288 1658 
z
M 2528 2022 
Q 2522 2144 2486 2259 
Q 2451 2374 2377 2464 
Q 2304 2554 2192 2611 
Q 2080 2669 1914 2669 
Q 1754 2669 1638 2614 
Q 1523 2560 1446 2470 
Q 1370 2381 1328 2262 
Q 1286 2144 1267 2022 
L 2528 2022 
z
" transform="scale(0.015625)"/>
      </defs>
      <use xlink:href="#Ubuntu-Bold-4d"/>
      <use xlink:href="#Ubuntu-Bold-61" x="89.699982"/>
      <use xlink:href="#Ubuntu-Bold-73" x="144.999969"/>
      <use xlink:href="#Ubuntu-Bold-76" x="193.499954"/>
      <use xlink:href="#Ubuntu-Bold-6e" x="248.499939"/>
      <use xlink:href="#Ubuntu-Bold-72" x="307.399933"/>
      <use xlink:href="#Ubuntu-Bold-61" x="348.59993"/>
      <use xlink:href="#Ubuntu-Bold-72" x="403.899918"/>
      <use xlink:href="#Ubuntu-Bold-65" x="445.099915"/>
      <use xlink:href="#Ubuntu-Bold-61" x="503.499908"/>
     </g>
    </g>
   </g>
   <g id="matplotlib.axis_2">
    <g id="ytick_1">
     <g id="line2d_12">
      <defs>
       <path id="m1882f38afd" d="M 0 0 
L -3 0 
" style="stroke: #aaaaaa; stroke-width: 0.75"/>
      </defs>
      <g>
       <use xlink:href="#m1882f38afd" x="37.360938" y="148.90375" style="fill: #aaaaaa; stroke: #aaaaaa; stroke-width: 0.75"/>
      </g>
     </g>
     <g id="text_13">
      <!-- 0 -->
      <g style="fill: #808080" transform="translate(23.848438 152.0075) scale(0.08 -0.08)">
       <use xlink:href="#Ubuntu-30"/>
      </g>
     </g>
    </g>
    <g id="ytick_2">
     <g id="line2d_13">
      <g>
       <use xlink:href="#m1882f38afd" x="37.360938" y="131.57875" style="fill: #aaaaaa; stroke: #aaaaaa; stroke-width: 0.75"/>
      </g>
     </g>
     <g id="text_14">
      <!-- 1 -->
      <g style="fill: #808080" transform="translate(23.848438 134.6825) scale(0.08 -0.08)">
       <use xlink:href="#Ubuntu-31"/>
      </g>
     </g>
    </g>
    <g id="ytick_3">
     <g id="line2d_14">
      <g>
       <use xlink:href="#m1882f38afd" x="37.360938" y="114.25375" style="fill: #aaaaaa; stroke: #aaaaaa; stroke-width: 0.75"/>
      </g>
     </g>
     <g id="text_15">
      <!-- 2 -->
      <g style="fill: #808080" transform="translate(23.848438 117.3575) scale(0.08 -0.08)">
       <use xlink:href="#Ubuntu-32"/>
      </g>
     </g>
    </g>
    <g id="ytick_4">
     <g id="line2d_15">
      <g>
       <use xlink:href="#m1882f38afd" x="37.360938" y="96.92875" style="fill: #aaaaaa; stroke: #aaaaaa; stroke-width: 0.75"/>
      </g>
     </g>
     <g id="text_16">
      <!-- 3 -->
      <g style="fill: #808080" transform="translate(23.848438 100.0325) scale(0.08 -0.08)">
       <use xlink:href="#Ubuntu-33"/>
      </g>
     </g>
    </g>
    <g id="ytick_5">
     <g id="line2d_16">
      <g>
       <use xlink:href="#m1882f38afd" x="37.360938" y="79.60375" style="fill: #aaaaaa; stroke: #aaaaaa; stroke-width: 0.75"/>
      </g>
     </g>
     <g id="text_17">
      <!-- 4 -->
      <g style="fill: #808080" transform="translate(23.848438 82.7075) scale(0.08 -0.08)">
       <use xlink:href="#Ubuntu-34"/>
      </g>
     </g>
    </g>
    <g id="ytick_6">
     <g id="line2d_17">
      <g>
       <use xlink:href="#m1882f38afd" x="37.360938" y="62.27875" style="fill: #aaaaaa; stroke: #aaaaaa; stroke-width: 0.75"/>
      </g>
     </g>
     <g id="text_18">
      <!-- 5 -->
      <g style="fill: #808080" transform="translate(23.848438 65.3825) scale(0.08 -0.08)">
       <use xlink:href="#Ubuntu-35"/>
      </g>
     </g>
    </g>
    <g id="ytick_7">
     <g id="line2d_18">
      <g>
       <use xlink:href="#m1882f38afd" x="37.360938" y="44.95375" style="fill: #aaaaaa; stroke: #aaaaaa; stroke-width: 0.75"/>
      </g>
     </g>
     <g id="text_19">
      <!-- 6 -->
      <g style="fill: #808080" transform="translate(23.848438 48.0575) scale(0.08 -0.08)">
       <defs>
        <path id="Ubuntu-36" d="M 403 1779 
Q 403 2426 582 2922 
Q 762 3418 1091 3757 
Q 1421 4096 1891 4272 
Q 2362 4448 2950 4454 
L 2995 3955 
Q 2618 3949 2307 3872 
Q 1997 3795 1753 3628 
Q 1510 3462 1344 3196 
Q 1178 2931 1094 2541 
Q 1261 2618 1469 2669 
Q 1677 2720 1901 2720 
Q 2278 2720 2540 2605 
Q 2803 2490 2969 2301 
Q 3136 2112 3209 1865 
Q 3283 1619 3283 1350 
Q 3283 1107 3200 851 
Q 3117 595 2947 384 
Q 2778 173 2515 38 
Q 2253 -96 1894 -96 
Q 1165 -96 784 403 
Q 403 902 403 1779 
z
M 1837 2234 
Q 1613 2234 1421 2192 
Q 1229 2150 1037 2067 
Q 1030 1997 1027 1923 
Q 1024 1850 1024 1779 
Q 1024 1498 1062 1248 
Q 1101 998 1200 809 
Q 1299 621 1465 509 
Q 1632 397 1888 397 
Q 2099 397 2246 486 
Q 2394 576 2490 717 
Q 2586 858 2627 1021 
Q 2669 1184 2669 1338 
Q 2669 1773 2461 2003 
Q 2253 2234 1837 2234 
z
" transform="scale(0.015625)"/>
       </defs>
       <use xlink:href="#Ubuntu-36"/>
      </g>
     </g>
    </g>
    <g id="ytick_8">
     <g id="line2d_19">
      <g>
       <use xlink:href="#m1882f38afd" x="37.360938" y="27.62875" style="fill: #aaaaaa; stroke: #aaaaaa; stroke-width: 0.75"/>
      </g>
     </g>
     <g id="text_20">
      <!-- 7 -->
      <g style="fill: #808080" transform="translate(23.848438 30.7325) scale(0.08 -0.08)">
       <defs>
        <path id="Ubuntu-37" d="M 1043 0 
Q 1082 512 1226 1078 
Q 1370 1645 1581 2179 
Q 1792 2714 2045 3171 
Q 2298 3629 2541 3917 
L 384 3917 
L 384 4435 
L 3206 4435 
L 3206 3942 
Q 2995 3699 2739 3273 
Q 2483 2848 2256 2320 
Q 2029 1792 1865 1193 
Q 1702 595 1664 0 
L 1043 0 
z
" transform="scale(0.015625)"/>
       </defs>
       <use xlink:href="#Ubuntu-37"/>
      </g>
     </g>
    </g>
    <g id="ytick_9">
     <g id="line2d_20">
      <g>
       <use xlink:href="#m1882f38afd" x="37.360938" y="10.30375" style="fill: #aaaaaa; stroke: #aaaaaa; stroke-width: 0.75"/>
      </g>
     </g>
     <g id="text_21">
      <!-- 8 -->
      <g style="fill: #808080" transform="translate(23.848438 13.4075) scale(0.08 -0.08)">
       <defs>
        <path id="Ubuntu-38" d="M 3258 1152 
Q 3258 883 3165 656 
Q 3072 429 2889 259 
Q 2707 90 2432 -3 
Q 2157 -96 1798 -96 
Q 1382 -96 1104 22 
Q 826 141 659 320 
Q 493 499 422 713 
Q 352 928 352 1120 
Q 352 1306 413 1475 
Q 474 1645 573 1792 
Q 672 1939 803 2057 
Q 934 2176 1082 2266 
Q 454 2624 454 3322 
Q 454 3565 550 3785 
Q 646 4006 822 4172 
Q 998 4339 1248 4438 
Q 1498 4538 1805 4538 
Q 2163 4538 2419 4429 
Q 2675 4320 2838 4150 
Q 3002 3981 3075 3776 
Q 3149 3571 3149 3379 
Q 3149 3194 3094 3030 
Q 3040 2867 2947 2726 
Q 2854 2586 2736 2477 
Q 2618 2368 2490 2285 
Q 3245 1926 3258 1152 
z
M 954 1114 
Q 954 998 995 873 
Q 1037 749 1139 643 
Q 1242 538 1402 467 
Q 1562 397 1805 397 
Q 2022 397 2185 461 
Q 2349 525 2451 624 
Q 2554 723 2605 851 
Q 2656 979 2656 1114 
Q 2656 1318 2579 1472 
Q 2502 1626 2358 1741 
Q 2214 1856 2012 1936 
Q 1811 2016 1555 2074 
Q 1267 1914 1110 1677 
Q 954 1440 954 1114 
z
M 2554 3386 
Q 2554 3482 2512 3597 
Q 2470 3712 2380 3811 
Q 2291 3910 2150 3977 
Q 2010 4045 1805 4045 
Q 1600 4045 1456 3981 
Q 1312 3917 1222 3817 
Q 1133 3718 1091 3600 
Q 1050 3482 1050 3366 
Q 1050 3226 1101 3085 
Q 1152 2944 1261 2822 
Q 1370 2701 1546 2605 
Q 1722 2509 1965 2451 
Q 2234 2611 2394 2825 
Q 2554 3040 2554 3386 
z
" transform="scale(0.015625)"/>
       </defs>
       <use xlink:href="#Ubuntu-38"/>
      </g>
     </g>
    </g>
    <g id="text_22">
     <!-- Count -->
     <g style="fill: #505050" transform="translate(14.183438 36.085938) rotate(-90) scale(0.09 -0.09)">
      <defs>
       <path id="Ubuntu-Bold-43" d="M 2534 -90 
Q 1453 -90 886 512 
Q 320 1114 320 2221 
Q 320 2771 493 3203 
Q 666 3635 966 3932 
Q 1267 4230 1683 4384 
Q 2099 4538 2586 4538 
Q 2867 4538 3097 4496 
Q 3328 4454 3501 4400 
Q 3674 4346 3789 4288 
Q 3904 4230 3955 4198 
L 3667 3392 
Q 3462 3501 3190 3577 
Q 2918 3654 2573 3654 
Q 2342 3654 2121 3577 
Q 1901 3501 1731 3331 
Q 1562 3162 1459 2893 
Q 1357 2624 1357 2240 
Q 1357 1933 1424 1667 
Q 1491 1402 1641 1210 
Q 1792 1018 2035 906 
Q 2278 794 2624 794 
Q 2842 794 3014 819 
Q 3187 845 3321 880 
Q 3456 915 3558 960 
Q 3661 1005 3744 1043 
L 4019 243 
Q 3808 115 3424 12 
Q 3040 -90 2534 -90 
z
" transform="scale(0.015625)"/>
       <path id="Ubuntu-Bold-6f" d="M 3597 1690 
Q 3597 1293 3481 963 
Q 3366 634 3148 400 
Q 2931 166 2627 38 
Q 2323 -90 1946 -90 
Q 1574 -90 1270 38 
Q 966 166 748 400 
Q 531 634 409 963 
Q 288 1293 288 1690 
Q 288 2086 413 2412 
Q 538 2739 758 2969 
Q 979 3200 1283 3328 
Q 1587 3456 1946 3456 
Q 2310 3456 2614 3328 
Q 2918 3200 3136 2969 
Q 3354 2739 3475 2412 
Q 3597 2086 3597 1690 
z
M 2624 1690 
Q 2624 2131 2448 2384 
Q 2272 2637 1946 2637 
Q 1619 2637 1440 2384 
Q 1261 2131 1261 1690 
Q 1261 1248 1440 989 
Q 1619 730 1946 730 
Q 2272 730 2448 989 
Q 2624 1248 2624 1690 
z
" transform="scale(0.015625)"/>
       <path id="Ubuntu-Bold-75" d="M 3322 115 
Q 3078 45 2694 -16 
Q 2310 -77 1888 -77 
Q 1459 -77 1174 38 
Q 890 154 723 362 
Q 557 570 486 858 
Q 416 1146 416 1491 
L 416 3366 
L 1370 3366 
L 1370 1606 
Q 1370 1146 1491 941 
Q 1613 736 1946 736 
Q 2048 736 2163 745 
Q 2278 755 2368 768 
L 2368 3366 
L 3322 3366 
L 3322 115 
z
" transform="scale(0.015625)"/>
       <path id="Ubuntu-Bold-74" d="M 416 4205 
L 1370 4358 
L 1370 3366 
L 2515 3366 
L 2515 2573 
L 1370 2573 
L 1370 1389 
Q 1370 1088 1475 909 
Q 1581 730 1901 730 
Q 2054 730 2217 758 
Q 2381 787 2515 838 
L 2650 96 
Q 2477 26 2265 -25 
Q 2054 -77 1747 -77 
Q 1357 -77 1101 28 
Q 845 134 691 323 
Q 538 512 477 781 
Q 416 1050 416 1376 
L 416 4205 
z
" transform="scale(0.015625)"/>
      </defs>
      <use xlink:href="#Ubuntu-Bold-43"/>
      <use xlink:href="#Ubuntu-Bold-6f" x="63.549988"/>
      <use xlink:href="#Ubuntu-Bold-75" x="124.249985"/>
      <use xlink:href="#Ubuntu-Bold-6e" x="183.149979"/>
      <use xlink:href="#Ubuntu-Bold-74" x="242.049973"/>
     </g>
    </g>
   </g>
   <g id="patch_3">
    <path d="M 51.288938 148.90375 
L 59.681258 148.90375 
L 59.681258 114.25375 
L 51.288938 114.25375 
z
" clip-path="url(#pb3a528aa34)" style="fill: #5d5d5d; stroke: #fefefe; stroke-linejoin: miter"/>
   </g>
   <g id="patch_4">
    <path d="M 59.681258 148.90375 
L 68.073577 148.90375 
L 68.073577 148.90375 
L 59.681258 148.90375 
z
" clip-path="url(#pb3a528aa34)" style="fill: #5d5d5d; stroke: #fefefe; stroke-linejoin: miter"/>
   </g>
   <g id="patch_5">
    <path d="M 68.073577 148.90375 
L 76.465897 148.90375 
L 76.465897 148.90375 
L 68.073577 148.90375 
z
" clip-path="url(#pb3a528aa34)" style="fill: #5d5d5d; stroke: #fefefe; stroke-linejoin: miter"/>
   </g>
   <g id="patch_6">
    <path d="M 76.465898 148.90375 
L 84.858218 148.90375 
L 84.858218 148.90375 
L 76.465898 148.90375 
z
" clip-path="url(#pb3a528aa34)" style="fill: #5d5d5d; stroke: #fefefe; stroke-linejoin: miter"/>
   </g>
   <g id="patch_7">
    <path d="M 84.858217 148.90375 
L 93.250537 148.90375 
L 93.250537 148.90375 
L 84.858217 148.90375 
z
" clip-path="url(#pb3a528aa34)" style="fill: #5d5d5d; stroke: #fefefe; stroke-linejoin: miter"/>
   </g>
   <g id="patch_8">
    <path d="M 93.250538 148.90375 
L 101.642858 148.90375 
L 101.642858 148.90375 
L 93.250538 148.90375 
z
" clip-path="url(#pb3a528aa34)" style="fill: #5d5d5d; stroke: #fefefe; stroke-linejoin: miter"/>
   </g>
   <g id="patch_9">
    <path d="M 101.642857 148.90375 
L 110.035177 148.90375 
L 110.035177 148.90375 
L 101.642857 148.90375 
z
" clip-path="url(#pb3a528aa34)" style="fill: #5d5d5d; stroke: #fefefe; stroke-linejoin: miter"/>
   </g>
   <g id="patch_10">
    <path d="M 110.035178 148.90375 
L 118.427497 148.90375 
L 118.427497 148.90375 
L 110.035178 148.90375 
z
" clip-path="url(#pb3a528aa34)" style="fill: #5d5d5d; stroke: #fefefe; stroke-linejoin: miter"/>
   </g>
   <g id="patch_11">
    <path d="M 118.427497 148.90375 
L 126.819817 148.90375 
L 126.819817 148.90375 
L 118.427497 148.90375 
z
" clip-path="url(#pb3a528aa34)" style="fill: #5d5d5d; stroke: #fefefe; stroke-linejoin: miter"/>
   </g>
   <g id="patch_12">
    <path d="M 126.819817 148.90375 
L 135.212137 148.90375 
L 135.212137 148.90375 
L 126.819817 148.90375 
z
" clip-path="url(#pb3a528aa34)" style="fill: #5d5d5d; stroke: #fefefe; stroke-linejoin: miter"/>
   </g>
   <g id="patch_13">
    <path d="M 135.212137 148.90375 
L 143.604457 148.90375 
L 143.604457 131.57875 
L 135.212137 131.57875 
z
" clip-path="url(#pb3a528aa34)" style="fill: #5d5d5d; stroke: #fefefe; stroke-linejoin: miter"/>
   </g>
   <g id="patch_14">
    <path d="M 143.604457 148.90375 
L 151.996777 148.90375 
L 151.996777 148.90375 
L 143.604457 148.90375 
z
" clip-path="url(#pb3a528aa34)" style="fill: #5d5d5d; stroke: #fefefe; stroke-linejoin: miter"/>
   </g>
   <g id="patch_15">
    <path d="M 151.996778 148.90375 
L 160.389097 148.90375 
L 160.389097 148.90375 
L 151.996778 148.90375 
z
" clip-path="url(#pb3a528aa34)" style="fill: #5d5d5d; stroke: #fefefe; stroke-linejoin: miter"/>
   </g>
   <g id="patch_16">
    <path d="M 160.389097 148.90375 
L 168.781418 148.90375 
L 168.781418 131.57875 
L 160.389097 131.57875 
z
" clip-path="url(#pb3a528aa34)" style="fill: #5d5d5d; stroke: #fefefe; stroke-linejoin: miter"/>
   </g>
   <g id="patch_17">
    <path d="M 168.781417 148.90375 
L 177.173737 148.90375 
L 177.173737 148.90375 
L 168.781417 148.90375 
z
" clip-path="url(#pb3a528aa34)" style="fill: #5d5d5d; stroke: #fefefe; stroke-linejoin: miter"/>
   </g>
   <g id="patch_18">
    <path d="M 177.173738 148.90375 
L 185.566057 148.90375 
L 185.566057 27.62875 
L 177.173738 27.62875 
z
" clip-path="url(#pb3a528aa34)" style="fill: #5d5d5d; stroke: #fefefe; stroke-linejoin: miter"/>
   </g>
   <g id="patch_19">
    <path d="M 185.566057 148.90375 
L 193.958377 148.90375 
L 193.958377 148.90375 
L 185.566057 148.90375 
z
" clip-path="url(#pb3a528aa34)" style="fill: #5d5d5d; stroke: #fefefe; stroke-linejoin: miter"/>
   </g>
   <g id="patch_20">
    <path d="M 193.958377 148.90375 
L 202.350697 148.90375 
L 202.350697 148.90375 
L 193.958377 148.90375 
z
" clip-path="url(#pb3a528aa34)" style="fill: #5d5d5d; stroke: #fefefe; stroke-linejoin: miter"/>
   </g>
   <g id="patch_21">
    <path d="M 202.350697 148.90375 
L 210.743018 148.90375 
L 210.743018 114.25375 
L 202.350697 114.25375 
z
" clip-path="url(#pb3a528aa34)" style="fill: #5d5d5d; stroke: #fefefe; stroke-linejoin: miter"/>
   </g>
   <g id="patch_22">
    <path d="M 210.743017 148.90375 
L 219.135337 148.90375 
L 219.135337 148.90375 
L 210.743017 148.90375 
z
" clip-path="url(#pb3a528aa34)" style="fill: #5d5d5d; stroke: #fefefe; stroke-linejoin: miter"/>
   </g>
   <g id="patch_23">
    <path d="M 219.135337 148.90375 
L 227.527657 148.90375 
L 227.527657 148.90375 
L 219.135337 148.90375 
z
" clip-path="url(#pb3a528aa34)" style="fill: #5d5d5d; stroke: #fefefe; stroke-linejoin: miter"/>
   </g>
   <g id="patch_24">
    <path d="M 227.527658 148.90375 
L 235.919978 148.90375 
L 235.919978 148.90375 
L 227.527658 148.90375 
z
" clip-path="url(#pb3a528aa34)" style="fill: #5d5d5d; stroke: #fefefe; stroke-linejoin: miter"/>
   </g>
   <g id="patch_25">
    <path d="M 235.919977 148.90375 
L 244.312297 148.90375 
L 244.312297 131.57875 
L 235.919977 131.57875 
z
" clip-path="url(#pb3a528aa34)" style="fill: #5d5d5d; stroke: #fefefe; stroke-linejoin: miter"/>
   </g>
   <g id="patch_26">
    <path d="M 244.312297 148.90375 
L 252.704617 148.90375 
L 252.704617 148.90375 
L 244.312297 148.90375 
z
" clip-path="url(#pb3a528aa34)" style="fill: #5d5d5d; stroke: #fefefe; stroke-linejoin: miter"/>
   </g>
   <g id="patch_27">
    <path d="M 252.704618 148.90375 
L 261.096938 148.90375 
L 261.096938 131.57875 
L 252.704618 131.57875 
z
" clip-path="url(#pb3a528aa34)" style="fill: #5d5d5d; stroke: #fefefe; stroke-linejoin: miter"/>
   </g>
   <g id="patch_28">
    <path d="M 261.096937 148.90375 
L 269.489257 148.90375 
L 269.489257 148.90375 
L 261.096937 148.90375 
z
" clip-path="url(#pb3a528aa34)" style="fill: #5d5d5d; stroke: #fefefe; stroke-linejoin: miter"/>
   </g>
   <g id="patch_29">
    <path d="M 269.489257 148.90375 
L 277.881577 148.90375 
L 277.881577 148.90375 
L 269.489257 148.90375 
z
" clip-path="url(#pb3a528aa34)" style="fill: #5d5d5d; stroke: #fefefe; stroke-linejoin: miter"/>
   </g>
   <g id="patch_30">
    <path d="M 277.881577 148.90375 
L 286.273897 148.90375 
L 286.273897 131.57875 
L 277.881577 131.57875 
z
" clip-path="url(#pb3a528aa34)" style="fill: #5d5d5d; stroke: #fefefe; stroke-linejoin: miter"/>
   </g>
   <g id="patch_31">
    <path d="M 286.273897 148.90375 
L 294.666217 148.90375 
L 294.666217 131.57875 
L 286.273897 131.57875 
z
" clip-path="url(#pb3a528aa34)" style="fill: #5d5d5d; stroke: #fefefe; stroke-linejoin: miter"/>
   </g>
   <g id="patch_32">
    <path d="M 294.666217 148.90375 
L 303.058537 148.90375 
L 303.058537 148.90375 
L 294.666217 148.90375 
z
" clip-path="url(#pb3a528aa34)" style="fill: #5d5d5d; stroke: #fefefe; stroke-linejoin: miter"/>
   </g>
   <g id="patch_33">
    <path d="M 303.058537 148.90375 
L 311.450857 148.90375 
L 311.450857 114.25375 
L 303.058537 114.25375 
z
" clip-path="url(#pb3a528aa34)" style="fill: #5d5d5d; stroke: #fefefe; stroke-linejoin: miter"/>
   </g>
   <g id="patch_34">
    <path d="M 311.450857 148.90375 
L 319.843177 148.90375 
L 319.843177 131.57875 
L 311.450857 131.57875 
z
" clip-path="url(#pb3a528aa34)" style="fill: #5d5d5d; stroke: #fefefe; stroke-linejoin: miter"/>
   </g>
   <g id="patch_35">
    <path d="M 319.843177 148.90375 
L 328.235497 148.90375 
L 328.235497 131.57875 
L 319.843177 131.57875 
z
" clip-path="url(#pb3a528aa34)" style="fill: #5d5d5d; stroke: #fefefe; stroke-linejoin: miter"/>
   </g>
   <g id="patch_36">
    <path d="M 328.235497 148.90375 
L 336.627817 148.90375 
L 336.627817 148.90375 
L 328.235497 148.90375 
z
" clip-path="url(#pb3a528aa34)" style="fill: #5d5d5d; stroke: #fefefe; stroke-linejoin: miter"/>
   </g>
   <g id="patch_37">
    <path d="M 336.627817 148.90375 
L 345.020137 148.90375 
L 345.020137 148.90375 
L 336.627817 148.90375 
z
" clip-path="url(#pb3a528aa34)" style="fill: #5d5d5d; stroke: #fefefe; stroke-linejoin: miter"/>
   </g>
   <g id="patch_38">
    <path d="M 345.020137 148.90375 
L 353.412457 148.90375 
L 353.412457 131.57875 
L 345.020137 131.57875 
z
" clip-path="url(#pb3a528aa34)" style="fill: #5d5d5d; stroke: #fefefe; stroke-linejoin: miter"/>
   </g>
   <g id="patch_39">
    <path d="M 353.412457 148.90375 
L 361.804778 148.90375 
L 361.804778 148.90375 
L 353.412457 148.90375 
z
" clip-path="url(#pb3a528aa34)" style="fill: #5d5d5d; stroke: #fefefe; stroke-linejoin: miter"/>
   </g>
   <g id="patch_40">
    <path d="M 361.804778 148.90375 
L 370.197097 148.90375 
L 370.197097 131.57875 
L 361.804778 131.57875 
z
" clip-path="url(#pb3a528aa34)" style="fill: #5d5d5d; stroke: #fefefe; stroke-linejoin: miter"/>
   </g>
   <g id="patch_41">
    <path d="M 370.197097 148.90375 
L 378.589417 148.90375 
L 378.589417 148.90375 
L 370.197097 148.90375 
z
" clip-path="url(#pb3a528aa34)" style="fill: #5d5d5d; stroke: #fefefe; stroke-linejoin: miter"/>
   </g>
   <g id="patch_42">
    <path d="M 378.589417 148.90375 
L 386.981737 148.90375 
L 386.981737 131.57875 
L 378.589417 131.57875 
z
" clip-path="url(#pb3a528aa34)" style="fill: #5d5d5d; stroke: #fefefe; stroke-linejoin: miter"/>
   </g>
   <g id="patch_43">
    <path d="M 386.981737 148.90375 
L 395.374057 148.90375 
L 395.374057 148.90375 
L 386.981737 148.90375 
z
" clip-path="url(#pb3a528aa34)" style="fill: #5d5d5d; stroke: #fefefe; stroke-linejoin: miter"/>
   </g>
   <g id="patch_44">
    <path d="M 395.374057 148.90375 
L 403.766377 148.90375 
L 403.766377 79.60375 
L 395.374057 79.60375 
z
" clip-path="url(#pb3a528aa34)" style="fill: #5d5d5d; stroke: #fefefe; stroke-linejoin: miter"/>
   </g>
   <g id="patch_45">
    <path d="M 403.766377 148.90375 
L 412.158697 148.90375 
L 412.158697 131.57875 
L 403.766377 131.57875 
z
" clip-path="url(#pb3a528aa34)" style="fill: #5d5d5d; stroke: #fefefe; stroke-linejoin: miter"/>
   </g>
   <g id="patch_46">
    <path d="M 412.158698 148.90375 
L 420.551018 148.90375 
L 420.551018 96.92875 
L 412.158698 96.92875 
z
" clip-path="url(#pb3a528aa34)" style="fill: #5d5d5d; stroke: #fefefe; stroke-linejoin: miter"/>
   </g>
   <g id="patch_47">
    <path d="M 420.551017 148.90375 
L 428.943337 148.90375 
L 428.943337 148.90375 
L 420.551017 148.90375 
z
" clip-path="url(#pb3a528aa34)" style="fill: #5d5d5d; stroke: #fefefe; stroke-linejoin: miter"/>
   </g>
   <g id="patch_48">
    <path d="M 428.943337 148.90375 
L 437.335657 148.90375 
L 437.335657 96.92875 
L 428.943337 96.92875 
z
" clip-path="url(#pb3a528aa34)" style="fill: #5d5d5d; stroke: #fefefe; stroke-linejoin: miter"/>
   </g>
   <g id="patch_49">
    <path d="M 437.335657 148.90375 
L 445.727977 148.90375 
L 445.727977 131.57875 
L 437.335657 131.57875 
z
" clip-path="url(#pb3a528aa34)" style="fill: #5d5d5d; stroke: #fefefe; stroke-linejoin: miter"/>
   </g>
   <g id="patch_50">
    <path d="M 445.727977 148.90375 
L 454.120297 148.90375 
L 454.120297 131.57875 
L 445.727977 131.57875 
z
" clip-path="url(#pb3a528aa34)" style="fill: #5d5d5d; stroke: #fefefe; stroke-linejoin: miter"/>
   </g>
   <g id="patch_51">
    <path d="M 454.120297 148.90375 
L 462.512617 148.90375 
L 462.512617 148.90375 
L 454.120297 148.90375 
z
" clip-path="url(#pb3a528aa34)" style="fill: #5d5d5d; stroke: #fefefe; stroke-linejoin: miter"/>
   </g>
   <g id="patch_52">
    <path d="M 462.512618 148.90375 
L 470.904938 148.90375 
L 470.904938 131.57875 
L 462.512618 131.57875 
z
" clip-path="url(#pb3a528aa34)" style="fill: #5d5d5d; stroke: #fefefe; stroke-linejoin: miter"/>
   </g>
   <g id="patch_53">
    <path d="M 37.360938 148.90375 
L 37.360938 10.30375 
" style="fill: none; stroke: #aaaaaa; stroke-width: 0.75; stroke-linejoin: miter; stroke-linecap: square"/>
   </g>
   <g id="patch_54">
    <path d="M 42.360938 158.90375 
L 488.760937 158.90375 
" style="fill: none; stroke: #aaaaaa; stroke-width: 0.75; stroke-linejoin: miter; stroke-linecap: square"/>
   </g>
  </g>
 </g>
 <defs>
  <clipPath id="pb3a528aa34">
   <rect x="42.360938" y="10.30375" width="446.4" height="138.6"/>
  </clipPath>
 </defs>
</svg>
