<?xml version="1.0" encoding="utf-8" standalone="no"?>
<!DOCTYPE svg PUBLIC "-//W3C//DTD SVG 1.1//EN"
  "http://www.w3.org/Graphics/SVG/1.1/DTD/svg11.dtd">
<svg xmlns:xlink="http://www.w3.org/1999/xlink" width="507.985937pt" height="250.215pt" viewBox="0 0 507.985937 250.215" xmlns="http://www.w3.org/2000/svg" version="1.1">
 <metadata>
  <rdf:RDF xmlns:dc="http://purl.org/dc/elements/1.1/" xmlns:cc="http://creativecommons.org/ns#" xmlns:rdf="http://www.w3.org/1999/02/22-rdf-syntax-ns#">
   <cc:Work>
    <dc:type rdf:resource="http://purl.org/dc/dcmitype/StillImage"/>
    <dc:date>2024-02-21T18:40:02.807365</dc:date>
    <dc:format>image/svg+xml</dc:format>
    <dc:creator>
     <cc:Agent>
      <dc:title>Matplotlib v3.8.0, https://matplotlib.org/</dc:title>
     </cc:Agent>
    </dc:creator>
   </cc:Work>
  </rdf:RDF>
 </metadata>
 <defs>
  <style type="text/css">*{stroke-linejoin: round; stroke-linecap: butt}</style>
 </defs>
 <g id="figure_1">
  <g id="patch_1">
   <path d="M 0 250.215 
L 507.985937 250.215 
L 507.985937 0 
L 0 0 
L 0 250.215 
z
" style="fill: none"/>
  </g>
  <g id="axes_1">
   <g id="patch_2">
    <path d="M 54.385937 160.67125 
L 500.785937 160.67125 
L 500.785937 16.67125 
L 54.385937 16.67125 
L 54.385937 160.67125 
z
" style="fill: none"/>
   </g>
   <g id="matplotlib.axis_1">
    <g id="xtick_1">
     <g id="text_1">
      <!-- Stacking -->
      <g style="fill: #5d5d5d" transform="translate(61.398103 177.654688) scale(0.09 -0.09)">
       <defs>
        <path id="Ubuntu-Bold-53" d="M 1722 762 
Q 1933 762 2070 797 
Q 2208 832 2291 893 
Q 2374 954 2406 1037 
Q 2438 1120 2438 1222 
Q 2438 1440 2233 1584 
Q 2029 1728 1530 1894 
Q 1312 1971 1094 2070 
Q 877 2170 704 2320 
Q 531 2470 422 2684 
Q 314 2899 314 3206 
Q 314 3514 429 3760 
Q 544 4006 755 4179 
Q 966 4352 1267 4445 
Q 1568 4538 1946 4538 
Q 2394 4538 2720 4442 
Q 3046 4346 3258 4230 
L 2970 3443 
Q 2784 3539 2557 3612 
Q 2330 3686 2010 3686 
Q 1651 3686 1494 3587 
Q 1338 3488 1338 3283 
Q 1338 3162 1395 3078 
Q 1453 2995 1558 2928 
Q 1664 2861 1801 2806 
Q 1939 2752 2106 2694 
Q 2451 2566 2707 2441 
Q 2963 2317 3132 2150 
Q 3302 1984 3385 1760 
Q 3469 1536 3469 1216 
Q 3469 595 3033 252 
Q 2598 -90 1722 -90 
Q 1427 -90 1190 -54 
Q 954 -19 771 32 
Q 589 83 457 140 
Q 326 198 237 250 
L 518 1043 
Q 717 934 1008 848 
Q 1299 762 1722 762 
z
" transform="scale(0.015625)"/>
        <path id="Ubuntu-Bold-74" d="M 416 4205 
L 1370 4358 
L 1370 3366 
L 2515 3366 
L 2515 2573 
L 1370 2573 
L 1370 1389 
Q 1370 1088 1475 909 
Q 1581 730 1901 730 
Q 2054 730 2217 758 
Q 2381 787 2515 838 
L 2650 96 
Q 2477 26 2265 -25 
Q 2054 -77 1747 -77 
Q 1357 -77 1101 28 
Q 845 134 691 323 
Q 538 512 477 781 
Q 416 1050 416 1376 
L 416 4205 
z
" transform="scale(0.015625)"/>
        <path id="Ubuntu-Bold-61" d="M 1734 666 
Q 1875 666 2003 672 
Q 2131 678 2208 691 
L 2208 1414 
Q 2150 1427 2035 1440 
Q 1920 1453 1824 1453 
Q 1690 1453 1571 1437 
Q 1453 1421 1363 1376 
Q 1274 1331 1222 1254 
Q 1171 1178 1171 1062 
Q 1171 838 1321 752 
Q 1472 666 1734 666 
z
M 1658 3456 
Q 2080 3456 2361 3360 
Q 2643 3264 2812 3085 
Q 2982 2906 3052 2650 
Q 3123 2394 3123 2080 
L 3123 96 
Q 2918 51 2553 -9 
Q 2189 -70 1670 -70 
Q 1344 -70 1078 -12 
Q 813 45 621 176 
Q 429 307 326 518 
Q 224 730 224 1037 
Q 224 1331 342 1536 
Q 461 1741 659 1862 
Q 858 1984 1114 2038 
Q 1370 2093 1645 2093 
Q 1830 2093 1974 2077 
Q 2118 2061 2208 2035 
L 2208 2125 
Q 2208 2368 2061 2515 
Q 1914 2662 1549 2662 
Q 1306 2662 1069 2627 
Q 832 2592 659 2528 
L 538 3296 
Q 621 3322 745 3350 
Q 870 3379 1017 3401 
Q 1165 3424 1328 3440 
Q 1491 3456 1658 3456 
z
" transform="scale(0.015625)"/>
        <path id="Ubuntu-Bold-63" d="M 288 1683 
Q 288 2048 406 2371 
Q 525 2694 749 2934 
Q 973 3174 1293 3315 
Q 1613 3456 2022 3456 
Q 2291 3456 2515 3408 
Q 2739 3360 2950 3270 
L 2752 2509 
Q 2618 2560 2458 2598 
Q 2298 2637 2099 2637 
Q 1677 2637 1469 2374 
Q 1261 2112 1261 1683 
Q 1261 1229 1456 979 
Q 1651 730 2138 730 
Q 2310 730 2508 762 
Q 2707 794 2874 864 
L 3008 83 
Q 2842 13 2592 -38 
Q 2342 -90 2042 -90 
Q 1581 -90 1248 48 
Q 915 186 700 422 
Q 486 659 387 982 
Q 288 1306 288 1683 
z
" transform="scale(0.015625)"/>
        <path id="Ubuntu-Bold-6b" d="M 1402 2150 
Q 1542 2304 1692 2470 
Q 1843 2637 1984 2800 
Q 2125 2963 2249 3110 
Q 2374 3258 2464 3366 
L 3597 3366 
Q 3258 2976 2934 2621 
Q 2611 2266 2227 1888 
Q 2419 1715 2624 1475 
Q 2829 1235 3021 979 
Q 3213 723 3373 467 
Q 3533 211 3642 0 
L 2547 0 
Q 2445 166 2313 368 
Q 2182 570 2035 771 
Q 1888 973 1725 1158 
Q 1562 1344 1402 1472 
L 1402 0 
L 448 0 
L 448 4813 
L 1402 4966 
L 1402 2150 
z
" transform="scale(0.015625)"/>
        <path id="Ubuntu-Bold-69" d="M 1402 0 
L 448 0 
L 448 3366 
L 1402 3366 
L 1402 0 
z
M 1491 4339 
Q 1491 4077 1321 3926 
Q 1152 3776 922 3776 
Q 691 3776 521 3926 
Q 352 4077 352 4339 
Q 352 4602 521 4752 
Q 691 4902 922 4902 
Q 1152 4902 1321 4752 
Q 1491 4602 1491 4339 
z
" transform="scale(0.015625)"/>
        <path id="Ubuntu-Bold-6e" d="M 448 3251 
Q 691 3322 1075 3382 
Q 1459 3443 1882 3443 
Q 2310 3443 2595 3331 
Q 2880 3219 3046 3014 
Q 3213 2810 3283 2528 
Q 3354 2246 3354 1901 
L 3354 0 
L 2400 0 
L 2400 1786 
Q 2400 2246 2278 2438 
Q 2157 2630 1824 2630 
Q 1722 2630 1606 2620 
Q 1491 2611 1402 2598 
L 1402 0 
L 448 0 
L 448 3251 
z
" transform="scale(0.015625)"/>
        <path id="Ubuntu-Bold-67" d="M 1261 1792 
Q 1261 992 1907 992 
Q 2054 992 2182 1030 
Q 2310 1069 2400 1120 
L 2400 2643 
Q 2330 2656 2234 2665 
Q 2138 2675 2010 2675 
Q 1632 2675 1446 2425 
Q 1261 2176 1261 1792 
z
M 3354 422 
Q 3354 -403 2934 -803 
Q 2515 -1203 1638 -1203 
Q 1331 -1203 1024 -1148 
Q 717 -1094 454 -1005 
L 621 -205 
Q 845 -294 1091 -345 
Q 1338 -397 1651 -397 
Q 2061 -397 2230 -217 
Q 2400 -38 2400 243 
L 2400 365 
Q 2246 294 2083 259 
Q 1920 224 1728 224 
Q 1030 224 659 637 
Q 288 1050 288 1792 
Q 288 2163 403 2467 
Q 518 2771 739 2988 
Q 960 3206 1280 3324 
Q 1600 3443 2003 3443 
Q 2176 3443 2358 3427 
Q 2541 3411 2720 3385 
Q 2899 3360 3062 3325 
Q 3226 3290 3354 3251 
L 3354 422 
z
" transform="scale(0.015625)"/>
       </defs>
       <use xlink:href="#Ubuntu-Bold-53"/>
       <use xlink:href="#Ubuntu-Bold-74" x="58.199997"/>
       <use xlink:href="#Ubuntu-Bold-61" x="100.599991"/>
       <use xlink:href="#Ubuntu-Bold-63" x="155.899979"/>
       <use xlink:href="#Ubuntu-Bold-6b" x="205.899963"/>
       <use xlink:href="#Ubuntu-Bold-69" x="263.799957"/>
       <use xlink:href="#Ubuntu-Bold-6e" x="292.699951"/>
       <use xlink:href="#Ubuntu-Bold-67" x="351.599945"/>
      </g>
     </g>
    </g>
    <g id="xtick_2">
     <g id="text_2">
      <!-- SVM -->
      <g style="fill: #5d5d5d" transform="translate(121.09673 177.654688) scale(0.09 -0.09)">
       <defs>
        <path id="Ubuntu-Bold-56" d="M 1830 0 
Q 1568 557 1312 1158 
Q 1056 1760 825 2349 
Q 595 2938 400 3475 
Q 205 4013 64 4435 
L 1165 4435 
Q 1293 4051 1443 3606 
Q 1594 3162 1750 2720 
Q 1907 2278 2054 1875 
Q 2202 1472 2330 1178 
Q 2451 1472 2601 1875 
Q 2752 2278 2909 2720 
Q 3066 3162 3216 3606 
Q 3366 4051 3494 4435 
L 4557 4435 
Q 4410 4013 4218 3475 
Q 4026 2938 3795 2349 
Q 3565 1760 3309 1158 
Q 3053 557 2790 0 
L 1830 0 
z
" transform="scale(0.015625)"/>
        <path id="Ubuntu-Bold-4d" d="M 1690 4435 
Q 1805 4224 1955 3913 
Q 2106 3603 2269 3241 
Q 2432 2880 2592 2502 
Q 2752 2125 2893 1792 
Q 3034 2125 3194 2502 
Q 3354 2880 3517 3241 
Q 3680 3603 3830 3913 
Q 3981 4224 4096 4435 
L 5005 4435 
Q 5069 3994 5123 3446 
Q 5178 2899 5219 2307 
Q 5261 1715 5296 1120 
Q 5331 525 5357 0 
L 4384 0 
Q 4365 646 4333 1408 
Q 4301 2170 4237 2944 
Q 4122 2675 3981 2348 
Q 3840 2022 3702 1696 
Q 3565 1370 3437 1072 
Q 3309 774 3219 563 
L 2522 563 
Q 2432 774 2304 1072 
Q 2176 1370 2038 1696 
Q 1901 2022 1760 2348 
Q 1619 2675 1504 2944 
Q 1440 2170 1408 1408 
Q 1376 646 1357 0 
L 384 0 
Q 410 525 445 1120 
Q 480 1715 521 2307 
Q 563 2899 617 3446 
Q 672 3994 736 4435 
L 1690 4435 
z
" transform="scale(0.015625)"/>
       </defs>
       <use xlink:href="#Ubuntu-Bold-53"/>
       <use xlink:href="#Ubuntu-Bold-56" x="57.199997"/>
       <use xlink:href="#Ubuntu-Bold-4d" x="128.399979"/>
      </g>
     </g>
    </g>
    <g id="xtick_3">
     <g id="text_3">
      <!-- Voting -->
      <g style="fill: #5d5d5d" transform="translate(167.572388 177.627969) scale(0.09 -0.09)">
       <defs>
        <path id="Ubuntu-Bold-6f" d="M 3597 1690 
Q 3597 1293 3481 963 
Q 3366 634 3148 400 
Q 2931 166 2627 38 
Q 2323 -90 1946 -90 
Q 1574 -90 1270 38 
Q 966 166 748 400 
Q 531 634 409 963 
Q 288 1293 288 1690 
Q 288 2086 413 2412 
Q 538 2739 758 2969 
Q 979 3200 1283 3328 
Q 1587 3456 1946 3456 
Q 2310 3456 2614 3328 
Q 2918 3200 3136 2969 
Q 3354 2739 3475 2412 
Q 3597 2086 3597 1690 
z
M 2624 1690 
Q 2624 2131 2448 2384 
Q 2272 2637 1946 2637 
Q 1619 2637 1440 2384 
Q 1261 2131 1261 1690 
Q 1261 1248 1440 989 
Q 1619 730 1946 730 
Q 2272 730 2448 989 
Q 2624 1248 2624 1690 
z
" transform="scale(0.015625)"/>
       </defs>
       <use xlink:href="#Ubuntu-Bold-56"/>
       <use xlink:href="#Ubuntu-Bold-6f" x="66.699982"/>
       <use xlink:href="#Ubuntu-Bold-74" x="127.399979"/>
       <use xlink:href="#Ubuntu-Bold-69" x="171.799973"/>
       <use xlink:href="#Ubuntu-Bold-6e" x="200.699966"/>
       <use xlink:href="#Ubuntu-Bold-67" x="259.59996"/>
      </g>
     </g>
    </g>
    <g id="xtick_4">
     <g id="text_4">
      <!-- LGBoost -->
      <g style="fill: #5d5d5d" transform="translate(214.675234 177.654688) scale(0.09 -0.09)">
       <defs>
        <path id="Ubuntu-Bold-4c" d="M 3475 858 
L 3475 0 
L 512 0 
L 512 4435 
L 1510 4435 
L 1510 858 
L 3475 858 
z
" transform="scale(0.015625)"/>
        <path id="Ubuntu-Bold-47" d="M 2675 3667 
Q 1978 3667 1667 3280 
Q 1357 2893 1357 2221 
Q 1357 1894 1433 1628 
Q 1510 1363 1664 1171 
Q 1818 979 2048 873 
Q 2278 768 2586 768 
Q 2752 768 2870 774 
Q 2989 781 3078 800 
L 3078 2342 
L 4077 2342 
L 4077 147 
Q 3898 77 3501 -3 
Q 3104 -83 2522 -83 
Q 2022 -83 1616 70 
Q 1210 224 922 518 
Q 634 813 477 1241 
Q 320 1670 320 2221 
Q 320 2778 493 3206 
Q 666 3635 966 3932 
Q 1267 4230 1673 4384 
Q 2080 4538 2541 4538 
Q 2854 4538 3107 4496 
Q 3360 4454 3542 4400 
Q 3725 4346 3843 4288 
Q 3962 4230 4013 4198 
L 3725 3398 
Q 3520 3507 3254 3587 
Q 2989 3667 2675 3667 
z
" transform="scale(0.015625)"/>
        <path id="Ubuntu-Bold-42" d="M 1990 -58 
Q 1626 -58 1264 -35 
Q 902 -13 512 70 
L 512 4371 
Q 819 4429 1184 4457 
Q 1549 4486 1862 4486 
Q 2285 4486 2640 4425 
Q 2995 4365 3251 4217 
Q 3507 4070 3651 3830 
Q 3795 3590 3795 3238 
Q 3795 2707 3283 2400 
Q 3706 2240 3859 1965 
Q 4013 1690 4013 1344 
Q 4013 646 3504 294 
Q 2995 -58 1990 -58 
z
M 1485 1933 
L 1485 787 
Q 1594 774 1722 768 
Q 1850 762 2003 762 
Q 2451 762 2726 890 
Q 3002 1018 3002 1363 
Q 3002 1670 2771 1801 
Q 2541 1933 2112 1933 
L 1485 1933 
z
M 1485 2694 
L 1971 2694 
Q 2432 2694 2630 2812 
Q 2829 2931 2829 3194 
Q 2829 3462 2624 3571 
Q 2419 3680 2022 3680 
Q 1894 3680 1747 3677 
Q 1600 3674 1485 3661 
L 1485 2694 
z
" transform="scale(0.015625)"/>
        <path id="Ubuntu-Bold-73" d="M 1414 685 
Q 1677 685 1785 736 
Q 1894 787 1894 934 
Q 1894 1050 1753 1136 
Q 1613 1222 1325 1331 
Q 1101 1414 918 1504 
Q 736 1594 608 1718 
Q 480 1843 409 2016 
Q 339 2189 339 2432 
Q 339 2906 691 3181 
Q 1043 3456 1658 3456 
Q 1965 3456 2246 3401 
Q 2528 3347 2694 3283 
L 2528 2541 
Q 2362 2598 2166 2643 
Q 1971 2688 1728 2688 
Q 1280 2688 1280 2438 
Q 1280 2381 1299 2336 
Q 1318 2291 1376 2249 
Q 1434 2208 1533 2160 
Q 1632 2112 1786 2054 
Q 2099 1939 2304 1827 
Q 2509 1715 2627 1584 
Q 2746 1453 2794 1293 
Q 2842 1133 2842 922 
Q 2842 422 2467 166 
Q 2093 -90 1408 -90 
Q 960 -90 662 -13 
Q 365 64 250 115 
L 410 890 
Q 653 794 909 739 
Q 1165 685 1414 685 
z
" transform="scale(0.015625)"/>
       </defs>
       <use xlink:href="#Ubuntu-Bold-4c"/>
       <use xlink:href="#Ubuntu-Bold-47" x="54.299988"/>
       <use xlink:href="#Ubuntu-Bold-42" x="124.499969"/>
       <use xlink:href="#Ubuntu-Bold-6f" x="191.699966"/>
       <use xlink:href="#Ubuntu-Bold-6f" x="252.399963"/>
       <use xlink:href="#Ubuntu-Bold-73" x="313.09996"/>
       <use xlink:href="#Ubuntu-Bold-74" x="361.599945"/>
      </g>
     </g>
    </g>
    <g id="xtick_5">
     <g id="text_5">
      <!-- HGBoost -->
      <g style="fill: #5d5d5d" transform="translate(264.832455 177.654688) scale(0.09 -0.09)">
       <defs>
        <path id="Ubuntu-Bold-48" d="M 3187 4435 
L 4186 4435 
L 4186 0 
L 3187 0 
L 3187 1882 
L 1510 1882 
L 1510 0 
L 512 0 
L 512 4435 
L 1510 4435 
L 1510 2739 
L 3187 2739 
L 3187 4435 
z
" transform="scale(0.015625)"/>
       </defs>
       <use xlink:href="#Ubuntu-Bold-48"/>
       <use xlink:href="#Ubuntu-Bold-47" x="73.399994"/>
       <use xlink:href="#Ubuntu-Bold-42" x="143.599976"/>
       <use xlink:href="#Ubuntu-Bold-6f" x="210.799973"/>
       <use xlink:href="#Ubuntu-Bold-6f" x="271.499969"/>
       <use xlink:href="#Ubuntu-Bold-73" x="332.199966"/>
       <use xlink:href="#Ubuntu-Bold-74" x="380.699951"/>
      </g>
     </g>
    </g>
    <g id="xtick_6">
     <g id="text_6">
      <!-- XGBoost -->
      <g style="fill: #5d5d5d" transform="translate(316.284129 177.654688) scale(0.09 -0.09)">
       <defs>
        <path id="Ubuntu-Bold-58" d="M 3059 0 
Q 2874 371 2653 752 
Q 2432 1133 2144 1530 
Q 2054 1414 1916 1209 
Q 1779 1005 1641 774 
Q 1504 544 1382 333 
Q 1261 122 1203 0 
L 64 0 
Q 346 518 720 1088 
Q 1094 1658 1555 2298 
L 128 4435 
L 1338 4435 
L 2202 3053 
L 3046 4435 
L 4186 4435 
L 2778 2285 
Q 3315 1587 3680 995 
Q 4045 403 4256 0 
L 3059 0 
z
" transform="scale(0.015625)"/>
       </defs>
       <use xlink:href="#Ubuntu-Bold-58"/>
       <use xlink:href="#Ubuntu-Bold-47" x="63.749985"/>
       <use xlink:href="#Ubuntu-Bold-42" x="133.949966"/>
       <use xlink:href="#Ubuntu-Bold-6f" x="201.149963"/>
       <use xlink:href="#Ubuntu-Bold-6f" x="261.84996"/>
       <use xlink:href="#Ubuntu-Bold-73" x="322.549957"/>
       <use xlink:href="#Ubuntu-Bold-74" x="371.049942"/>
      </g>
     </g>
    </g>
    <g id="xtick_7">
     <g id="text_7">
      <!-- Bagging -->
      <g style="fill: #5d5d5d" transform="translate(368.51346 177.627969) scale(0.09 -0.09)">
       <use xlink:href="#Ubuntu-Bold-42"/>
       <use xlink:href="#Ubuntu-Bold-61" x="67.199997"/>
       <use xlink:href="#Ubuntu-Bold-67" x="122.499985"/>
       <use xlink:href="#Ubuntu-Bold-67" x="181.899979"/>
       <use xlink:href="#Ubuntu-Bold-69" x="241.299973"/>
       <use xlink:href="#Ubuntu-Bold-6e" x="270.199966"/>
       <use xlink:href="#Ubuntu-Bold-67" x="329.09996"/>
      </g>
     </g>
    </g>
    <g id="xtick_8">
     <g id="text_8">
      <!-- RF -->
      <g style="fill: #5d5d5d" transform="translate(431.429587 177.654688) scale(0.09 -0.09)">
       <defs>
        <path id="Ubuntu-Bold-52" d="M 1811 4486 
Q 2810 4486 3341 4131 
Q 3872 3776 3872 3027 
Q 3872 2560 3657 2269 
Q 3443 1978 3040 1811 
Q 3174 1645 3321 1430 
Q 3469 1216 3613 982 
Q 3757 749 3891 496 
Q 4026 243 4141 0 
L 3021 0 
Q 2899 218 2774 442 
Q 2650 666 2518 877 
Q 2387 1088 2259 1277 
Q 2131 1466 2003 1619 
L 1510 1619 
L 1510 0 
L 512 0 
L 512 4371 
Q 838 4435 1187 4460 
Q 1536 4486 1811 4486 
z
M 1869 3635 
Q 1760 3635 1673 3628 
Q 1587 3622 1510 3616 
L 1510 2413 
L 1792 2413 
Q 2355 2413 2598 2553 
Q 2842 2694 2842 3034 
Q 2842 3360 2595 3497 
Q 2349 3635 1869 3635 
z
" transform="scale(0.015625)"/>
        <path id="Ubuntu-Bold-46" d="M 512 0 
L 512 4435 
L 3482 4435 
L 3482 3597 
L 1510 3597 
L 1510 2669 
L 3264 2669 
L 3264 1830 
L 1510 1830 
L 1510 0 
L 512 0 
z
" transform="scale(0.015625)"/>
       </defs>
       <use xlink:href="#Ubuntu-Bold-52"/>
       <use xlink:href="#Ubuntu-Bold-46" x="66.699997"/>
      </g>
     </g>
    </g>
    <g id="xtick_9">
     <g id="text_9">
      <!-- KNN -->
      <g style="fill: #5d5d5d" transform="translate(478.149933 177.654688) scale(0.09 -0.09)">
       <defs>
        <path id="Ubuntu-Bold-4b" d="M 3130 0 
Q 2995 218 2812 470 
Q 2630 723 2416 976 
Q 2202 1229 1971 1462 
Q 1741 1696 1510 1875 
L 1510 0 
L 512 0 
L 512 4435 
L 1510 4435 
L 1510 2758 
Q 1901 3168 2294 3613 
Q 2688 4058 3027 4435 
L 4211 4435 
Q 3757 3898 3299 3398 
Q 2842 2899 2336 2394 
Q 2867 1952 3363 1344 
Q 3859 736 4314 0 
L 3130 0 
z
" transform="scale(0.015625)"/>
        <path id="Ubuntu-Bold-4e" d="M 3488 0 
Q 3059 762 2560 1504 
Q 2061 2246 1498 2906 
L 1498 0 
L 512 0 
L 512 4435 
L 1325 4435 
Q 1536 4224 1792 3917 
Q 2048 3610 2313 3261 
Q 2579 2912 2841 2537 
Q 3104 2163 3334 1818 
L 3334 4435 
L 4326 4435 
L 4326 0 
L 3488 0 
z
" transform="scale(0.015625)"/>
       </defs>
       <use xlink:href="#Ubuntu-Bold-4b"/>
       <use xlink:href="#Ubuntu-Bold-4e" x="68.399994"/>
       <use xlink:href="#Ubuntu-Bold-4e" x="143.999985"/>
      </g>
     </g>
    </g>
   </g>
   <g id="matplotlib.axis_2">
    <g id="ytick_1">
     <g id="line2d_1">
      <defs>
       <path id="md4d8306944" d="M 0 0 
L -3 0 
" style="stroke: #bbbbbb"/>
      </defs>
      <g>
       <use xlink:href="#md4d8306944" x="49.385937" y="160.67125" style="fill: #bbbbbb; stroke: #bbbbbb"/>
      </g>
     </g>
     <g id="text_10">
      <!-- 0.08 -->
      <g style="fill: #9f9f9f" transform="translate(23.880937 163.775) scale(0.08 -0.08)">
       <defs>
        <path id="Ubuntu-30" d="M 320 2221 
Q 320 3334 713 3936 
Q 1107 4538 1805 4538 
Q 2502 4538 2896 3936 
Q 3290 3334 3290 2221 
Q 3290 1107 2896 505 
Q 2502 -96 1805 -96 
Q 1107 -96 713 505 
Q 320 1107 320 2221 
z
M 2662 2221 
Q 2662 2586 2620 2912 
Q 2579 3238 2480 3481 
Q 2381 3725 2214 3869 
Q 2048 4013 1805 4013 
Q 1562 4013 1395 3869 
Q 1229 3725 1129 3481 
Q 1030 3238 988 2912 
Q 947 2586 947 2221 
Q 947 1856 988 1529 
Q 1030 1203 1129 960 
Q 1229 717 1395 573 
Q 1562 429 1805 429 
Q 2048 429 2214 573 
Q 2381 717 2480 960 
Q 2579 1203 2620 1529 
Q 2662 1856 2662 2221 
z
" transform="scale(0.015625)"/>
        <path id="Ubuntu-2e" d="M 1216 346 
Q 1216 173 1101 45 
Q 986 -83 787 -83 
Q 589 -83 473 45 
Q 358 173 358 346 
Q 358 518 473 646 
Q 589 774 787 774 
Q 986 774 1101 646 
Q 1216 518 1216 346 
z
" transform="scale(0.015625)"/>
        <path id="Ubuntu-38" d="M 3258 1152 
Q 3258 883 3165 656 
Q 3072 429 2889 259 
Q 2707 90 2432 -3 
Q 2157 -96 1798 -96 
Q 1382 -96 1104 22 
Q 826 141 659 320 
Q 493 499 422 713 
Q 352 928 352 1120 
Q 352 1306 413 1475 
Q 474 1645 573 1792 
Q 672 1939 803 2057 
Q 934 2176 1082 2266 
Q 454 2624 454 3322 
Q 454 3565 550 3785 
Q 646 4006 822 4172 
Q 998 4339 1248 4438 
Q 1498 4538 1805 4538 
Q 2163 4538 2419 4429 
Q 2675 4320 2838 4150 
Q 3002 3981 3075 3776 
Q 3149 3571 3149 3379 
Q 3149 3194 3094 3030 
Q 3040 2867 2947 2726 
Q 2854 2586 2736 2477 
Q 2618 2368 2490 2285 
Q 3245 1926 3258 1152 
z
M 954 1114 
Q 954 998 995 873 
Q 1037 749 1139 643 
Q 1242 538 1402 467 
Q 1562 397 1805 397 
Q 2022 397 2185 461 
Q 2349 525 2451 624 
Q 2554 723 2605 851 
Q 2656 979 2656 1114 
Q 2656 1318 2579 1472 
Q 2502 1626 2358 1741 
Q 2214 1856 2012 1936 
Q 1811 2016 1555 2074 
Q 1267 1914 1110 1677 
Q 954 1440 954 1114 
z
M 2554 3386 
Q 2554 3482 2512 3597 
Q 2470 3712 2380 3811 
Q 2291 3910 2150 3977 
Q 2010 4045 1805 4045 
Q 1600 4045 1456 3981 
Q 1312 3917 1222 3817 
Q 1133 3718 1091 3600 
Q 1050 3482 1050 3366 
Q 1050 3226 1101 3085 
Q 1152 2944 1261 2822 
Q 1370 2701 1546 2605 
Q 1722 2509 1965 2451 
Q 2234 2611 2394 2825 
Q 2554 3040 2554 3386 
z
" transform="scale(0.015625)"/>
       </defs>
       <use xlink:href="#Ubuntu-30"/>
       <use xlink:href="#Ubuntu-2e" x="56.399994"/>
       <use xlink:href="#Ubuntu-30" x="80.999985"/>
       <use xlink:href="#Ubuntu-38" x="137.399979"/>
      </g>
     </g>
    </g>
    <g id="ytick_2">
     <g id="line2d_2">
      <g>
       <use xlink:href="#md4d8306944" x="49.385937" y="134.489432" style="fill: #bbbbbb; stroke: #bbbbbb"/>
      </g>
     </g>
     <g id="text_11">
      <!-- 0.10 -->
      <g style="fill: #9f9f9f" transform="translate(23.880937 137.593182) scale(0.08 -0.08)">
       <defs>
        <path id="Ubuntu-31" d="M 595 3520 
Q 960 3661 1305 3881 
Q 1651 4102 1939 4435 
L 2362 4435 
L 2362 0 
L 1766 0 
L 1766 3610 
Q 1690 3539 1578 3462 
Q 1466 3386 1334 3315 
Q 1203 3245 1059 3181 
Q 915 3117 781 3072 
L 595 3520 
z
" transform="scale(0.015625)"/>
       </defs>
       <use xlink:href="#Ubuntu-30"/>
       <use xlink:href="#Ubuntu-2e" x="56.399994"/>
       <use xlink:href="#Ubuntu-31" x="80.999985"/>
       <use xlink:href="#Ubuntu-30" x="137.399979"/>
      </g>
     </g>
    </g>
    <g id="ytick_3">
     <g id="line2d_3">
      <g>
       <use xlink:href="#md4d8306944" x="49.385937" y="108.307614" style="fill: #bbbbbb; stroke: #bbbbbb"/>
      </g>
     </g>
     <g id="text_12">
      <!-- 0.12 -->
      <g style="fill: #9f9f9f" transform="translate(23.880937 111.411364) scale(0.08 -0.08)">
       <defs>
        <path id="Ubuntu-32" d="M 2989 3302 
Q 2989 3072 2896 2857 
Q 2803 2643 2649 2435 
Q 2496 2227 2304 2025 
Q 2112 1824 1920 1632 
Q 1811 1523 1667 1376 
Q 1523 1229 1395 1069 
Q 1267 909 1180 761 
Q 1094 614 1094 506 
L 3136 506 
L 3136 0 
L 448 0 
Q 442 38 442 76 
Q 442 115 442 147 
Q 442 448 541 707 
Q 640 966 800 1196 
Q 960 1427 1158 1632 
Q 1357 1837 1549 2029 
Q 1709 2182 1853 2332 
Q 1997 2483 2109 2633 
Q 2221 2784 2288 2944 
Q 2355 3104 2355 3283 
Q 2355 3475 2294 3609 
Q 2234 3744 2131 3833 
Q 2029 3923 1891 3964 
Q 1754 4006 1600 4006 
Q 1414 4006 1260 3955 
Q 1107 3904 985 3837 
Q 864 3770 781 3696 
Q 698 3622 653 3584 
L 358 4006 
Q 416 4070 531 4163 
Q 646 4256 806 4339 
Q 966 4422 1164 4480 
Q 1363 4538 1594 4538 
Q 2291 4538 2640 4214 
Q 2989 3891 2989 3302 
z
" transform="scale(0.015625)"/>
       </defs>
       <use xlink:href="#Ubuntu-30"/>
       <use xlink:href="#Ubuntu-2e" x="56.399994"/>
       <use xlink:href="#Ubuntu-31" x="80.999985"/>
       <use xlink:href="#Ubuntu-32" x="137.399979"/>
      </g>
     </g>
    </g>
    <g id="ytick_4">
     <g id="line2d_4">
      <g>
       <use xlink:href="#md4d8306944" x="49.385937" y="82.125795" style="fill: #bbbbbb; stroke: #bbbbbb"/>
      </g>
     </g>
     <g id="text_13">
      <!-- 0.14 -->
      <g style="fill: #9f9f9f" transform="translate(23.880937 85.229545) scale(0.08 -0.08)">
       <defs>
        <path id="Ubuntu-34" d="M 256 1536 
Q 378 1818 589 2192 
Q 800 2566 1065 2963 
Q 1331 3360 1635 3744 
Q 1939 4128 2246 4435 
L 2816 4435 
L 2816 1619 
L 3341 1619 
L 3341 1133 
L 2816 1133 
L 2816 0 
L 2240 0 
L 2240 1133 
L 256 1133 
L 256 1536 
z
M 2240 3731 
Q 2048 3526 1853 3273 
Q 1658 3021 1472 2745 
Q 1286 2470 1123 2182 
Q 960 1894 832 1619 
L 2240 1619 
L 2240 3731 
z
" transform="scale(0.015625)"/>
       </defs>
       <use xlink:href="#Ubuntu-30"/>
       <use xlink:href="#Ubuntu-2e" x="56.399994"/>
       <use xlink:href="#Ubuntu-31" x="80.999985"/>
       <use xlink:href="#Ubuntu-34" x="137.399979"/>
      </g>
     </g>
    </g>
    <g id="ytick_5">
     <g id="line2d_5">
      <g>
       <use xlink:href="#md4d8306944" x="49.385937" y="55.943977" style="fill: #bbbbbb; stroke: #bbbbbb"/>
      </g>
     </g>
     <g id="text_14">
      <!-- 0.16 -->
      <g style="fill: #9f9f9f" transform="translate(23.880937 59.047727) scale(0.08 -0.08)">
       <defs>
        <path id="Ubuntu-36" d="M 403 1779 
Q 403 2426 582 2922 
Q 762 3418 1091 3757 
Q 1421 4096 1891 4272 
Q 2362 4448 2950 4454 
L 2995 3955 
Q 2618 3949 2307 3872 
Q 1997 3795 1753 3628 
Q 1510 3462 1344 3196 
Q 1178 2931 1094 2541 
Q 1261 2618 1469 2669 
Q 1677 2720 1901 2720 
Q 2278 2720 2540 2605 
Q 2803 2490 2969 2301 
Q 3136 2112 3209 1865 
Q 3283 1619 3283 1350 
Q 3283 1107 3200 851 
Q 3117 595 2947 384 
Q 2778 173 2515 38 
Q 2253 -96 1894 -96 
Q 1165 -96 784 403 
Q 403 902 403 1779 
z
M 1837 2234 
Q 1613 2234 1421 2192 
Q 1229 2150 1037 2067 
Q 1030 1997 1027 1923 
Q 1024 1850 1024 1779 
Q 1024 1498 1062 1248 
Q 1101 998 1200 809 
Q 1299 621 1465 509 
Q 1632 397 1888 397 
Q 2099 397 2246 486 
Q 2394 576 2490 717 
Q 2586 858 2627 1021 
Q 2669 1184 2669 1338 
Q 2669 1773 2461 2003 
Q 2253 2234 1837 2234 
z
" transform="scale(0.015625)"/>
       </defs>
       <use xlink:href="#Ubuntu-30"/>
       <use xlink:href="#Ubuntu-2e" x="56.399994"/>
       <use xlink:href="#Ubuntu-31" x="80.999985"/>
       <use xlink:href="#Ubuntu-36" x="137.399979"/>
      </g>
     </g>
    </g>
    <g id="ytick_6">
     <g id="line2d_6">
      <g>
       <use xlink:href="#md4d8306944" x="49.385937" y="29.762159" style="fill: #bbbbbb; stroke: #bbbbbb"/>
      </g>
     </g>
     <g id="text_15">
      <!-- 0.18 -->
      <g style="fill: #9f9f9f" transform="translate(23.880937 32.865909) scale(0.08 -0.08)">
       <use xlink:href="#Ubuntu-30"/>
       <use xlink:href="#Ubuntu-2e" x="56.399994"/>
       <use xlink:href="#Ubuntu-31" x="80.999985"/>
       <use xlink:href="#Ubuntu-38" x="137.399979"/>
      </g>
     </g>
    </g>
    <g id="text_16">
     <!-- RMSE -->
     <g style="fill: #505050" transform="translate(14.215937 41.439531) rotate(-90) scale(0.09 -0.09)">
      <defs>
       <path id="Ubuntu-Bold-45" d="M 512 0 
L 512 4435 
L 3507 4435 
L 3507 3597 
L 1510 3597 
L 1510 2726 
L 3283 2726 
L 3283 1907 
L 1510 1907 
L 1510 838 
L 3654 838 
L 3654 0 
L 512 0 
z
" transform="scale(0.015625)"/>
      </defs>
      <use xlink:href="#Ubuntu-Bold-52"/>
      <use xlink:href="#Ubuntu-Bold-4d" x="66.699997"/>
      <use xlink:href="#Ubuntu-Bold-53" x="156.399979"/>
      <use xlink:href="#Ubuntu-Bold-45" x="214.599976"/>
     </g>
    </g>
   </g>
   <g id="LineCollection_1">
    <path d="M 75.813137 132.421057 
L 75.813137 106.511445 
" clip-path="url(#p0da1c0401e)" style="fill: none; stroke: #5d5d5d; stroke-opacity: 0.9"/>
    <path d="M 126.83028 122.185767 
L 126.83028 100.688987 
" clip-path="url(#p0da1c0401e)" style="fill: none; stroke: #5d5d5d; stroke-opacity: 0.9"/>
    <path d="M 177.847423 128.094283 
L 177.847423 98.187563 
" clip-path="url(#p0da1c0401e)" style="fill: none; stroke: #5d5d5d; stroke-opacity: 0.9"/>
    <path d="M 228.864566 123.487319 
L 228.864566 94.264455 
" clip-path="url(#p0da1c0401e)" style="fill: none; stroke: #5d5d5d; stroke-opacity: 0.9"/>
    <path d="M 279.881709 125.053269 
L 279.881709 95.85114 
" clip-path="url(#p0da1c0401e)" style="fill: none; stroke: #5d5d5d; stroke-opacity: 0.9"/>
    <path d="M 330.898852 119.925388 
L 330.898852 94.630893 
" clip-path="url(#p0da1c0401e)" style="fill: none; stroke: #5d5d5d; stroke-opacity: 0.9"/>
    <path d="M 381.915995 105.282725 
L 381.915995 72.110419 
" clip-path="url(#p0da1c0401e)" style="fill: none; stroke: #5d5d5d; stroke-opacity: 0.9"/>
    <path d="M 432.933137 103.158267 
L 432.933137 69.837 
" clip-path="url(#p0da1c0401e)" style="fill: none; stroke: #5d5d5d; stroke-opacity: 0.9"/>
    <path d="M 483.95028 53.545546 
L 483.95028 21.316819 
" clip-path="url(#p0da1c0401e)" style="fill: none; stroke: #5d5d5d; stroke-opacity: 0.9"/>
   </g>
   <g id="line2d_7">
    <defs>
     <path id="m850de2bdf9" d="M 1.5 0 
L -1.5 -0 
" style="stroke: #5d5d5d; stroke-opacity: 0.9"/>
    </defs>
    <g clip-path="url(#p0da1c0401e)">
     <use xlink:href="#m850de2bdf9" x="75.813137" y="132.421057" style="fill: #5d5d5d; fill-opacity: 0.9; stroke: #5d5d5d; stroke-opacity: 0.9"/>
     <use xlink:href="#m850de2bdf9" x="126.83028" y="122.185767" style="fill: #5d5d5d; fill-opacity: 0.9; stroke: #5d5d5d; stroke-opacity: 0.9"/>
     <use xlink:href="#m850de2bdf9" x="177.847423" y="128.094283" style="fill: #5d5d5d; fill-opacity: 0.9; stroke: #5d5d5d; stroke-opacity: 0.9"/>
     <use xlink:href="#m850de2bdf9" x="228.864566" y="123.487319" style="fill: #5d5d5d; fill-opacity: 0.9; stroke: #5d5d5d; stroke-opacity: 0.9"/>
     <use xlink:href="#m850de2bdf9" x="279.881709" y="125.053269" style="fill: #5d5d5d; fill-opacity: 0.9; stroke: #5d5d5d; stroke-opacity: 0.9"/>
     <use xlink:href="#m850de2bdf9" x="330.898852" y="119.925388" style="fill: #5d5d5d; fill-opacity: 0.9; stroke: #5d5d5d; stroke-opacity: 0.9"/>
     <use xlink:href="#m850de2bdf9" x="381.915995" y="105.282725" style="fill: #5d5d5d; fill-opacity: 0.9; stroke: #5d5d5d; stroke-opacity: 0.9"/>
     <use xlink:href="#m850de2bdf9" x="432.933137" y="103.158267" style="fill: #5d5d5d; fill-opacity: 0.9; stroke: #5d5d5d; stroke-opacity: 0.9"/>
     <use xlink:href="#m850de2bdf9" x="483.95028" y="53.545546" style="fill: #5d5d5d; fill-opacity: 0.9; stroke: #5d5d5d; stroke-opacity: 0.9"/>
    </g>
   </g>
   <g id="line2d_8">
    <g clip-path="url(#p0da1c0401e)">
     <use xlink:href="#m850de2bdf9" x="75.813137" y="106.511445" style="fill: #5d5d5d; fill-opacity: 0.9; stroke: #5d5d5d; stroke-opacity: 0.9"/>
     <use xlink:href="#m850de2bdf9" x="126.83028" y="100.688987" style="fill: #5d5d5d; fill-opacity: 0.9; stroke: #5d5d5d; stroke-opacity: 0.9"/>
     <use xlink:href="#m850de2bdf9" x="177.847423" y="98.187563" style="fill: #5d5d5d; fill-opacity: 0.9; stroke: #5d5d5d; stroke-opacity: 0.9"/>
     <use xlink:href="#m850de2bdf9" x="228.864566" y="94.264455" style="fill: #5d5d5d; fill-opacity: 0.9; stroke: #5d5d5d; stroke-opacity: 0.9"/>
     <use xlink:href="#m850de2bdf9" x="279.881709" y="95.85114" style="fill: #5d5d5d; fill-opacity: 0.9; stroke: #5d5d5d; stroke-opacity: 0.9"/>
     <use xlink:href="#m850de2bdf9" x="330.898852" y="94.630893" style="fill: #5d5d5d; fill-opacity: 0.9; stroke: #5d5d5d; stroke-opacity: 0.9"/>
     <use xlink:href="#m850de2bdf9" x="381.915995" y="72.110419" style="fill: #5d5d5d; fill-opacity: 0.9; stroke: #5d5d5d; stroke-opacity: 0.9"/>
     <use xlink:href="#m850de2bdf9" x="432.933137" y="69.837" style="fill: #5d5d5d; fill-opacity: 0.9; stroke: #5d5d5d; stroke-opacity: 0.9"/>
     <use xlink:href="#m850de2bdf9" x="483.95028" y="21.316819" style="fill: #5d5d5d; fill-opacity: 0.9; stroke: #5d5d5d; stroke-opacity: 0.9"/>
    </g>
   </g>
   <g id="LineCollection_2">
    <path d="M 83.97588 132.83952 
L 83.97588 105.462264 
" clip-path="url(#p0da1c0401e)" style="fill: none; stroke: #af5a51; stroke-opacity: 0.9"/>
    <path d="M 134.993023 127.24471 
L 134.993023 103.359972 
" clip-path="url(#p0da1c0401e)" style="fill: none; stroke: #af5a51; stroke-opacity: 0.9"/>
    <path d="M 186.010166 129.242658 
L 186.010166 97.788485 
" clip-path="url(#p0da1c0401e)" style="fill: none; stroke: #af5a51; stroke-opacity: 0.9"/>
    <path d="M 237.027309 124.941734 
L 237.027309 91.138852 
" clip-path="url(#p0da1c0401e)" style="fill: none; stroke: #af5a51; stroke-opacity: 0.9"/>
    <path d="M 288.044452 122.603318 
L 288.044452 92.945177 
" clip-path="url(#p0da1c0401e)" style="fill: none; stroke: #af5a51; stroke-opacity: 0.9"/>
    <path d="M 339.061595 120.930468 
L 339.061595 91.631647 
" clip-path="url(#p0da1c0401e)" style="fill: none; stroke: #af5a51; stroke-opacity: 0.9"/>
    <path d="M 390.078737 108.158225 
L 390.078737 75.810907 
" clip-path="url(#p0da1c0401e)" style="fill: none; stroke: #af5a51; stroke-opacity: 0.9"/>
    <path d="M 441.09588 106.06545 
L 441.09588 73.867002 
" clip-path="url(#p0da1c0401e)" style="fill: none; stroke: #af5a51; stroke-opacity: 0.9"/>
    <path d="M 492.113023 53.523648 
L 492.113023 20.094834 
" clip-path="url(#p0da1c0401e)" style="fill: none; stroke: #af5a51; stroke-opacity: 0.9"/>
   </g>
   <g id="line2d_9">
    <defs>
     <path id="md2253bdebe" d="M 1.1 0 
L -1.1 -0 
" style="stroke: #af5a51; stroke-opacity: 0.9"/>
    </defs>
    <g clip-path="url(#p0da1c0401e)">
     <use xlink:href="#md2253bdebe" x="83.97588" y="132.83952" style="fill: #af5a51; fill-opacity: 0.9; stroke: #af5a51; stroke-opacity: 0.9"/>
     <use xlink:href="#md2253bdebe" x="134.993023" y="127.24471" style="fill: #af5a51; fill-opacity: 0.9; stroke: #af5a51; stroke-opacity: 0.9"/>
     <use xlink:href="#md2253bdebe" x="186.010166" y="129.242658" style="fill: #af5a51; fill-opacity: 0.9; stroke: #af5a51; stroke-opacity: 0.9"/>
     <use xlink:href="#md2253bdebe" x="237.027309" y="124.941734" style="fill: #af5a51; fill-opacity: 0.9; stroke: #af5a51; stroke-opacity: 0.9"/>
     <use xlink:href="#md2253bdebe" x="288.044452" y="122.603318" style="fill: #af5a51; fill-opacity: 0.9; stroke: #af5a51; stroke-opacity: 0.9"/>
     <use xlink:href="#md2253bdebe" x="339.061595" y="120.930468" style="fill: #af5a51; fill-opacity: 0.9; stroke: #af5a51; stroke-opacity: 0.9"/>
     <use xlink:href="#md2253bdebe" x="390.078737" y="108.158225" style="fill: #af5a51; fill-opacity: 0.9; stroke: #af5a51; stroke-opacity: 0.9"/>
     <use xlink:href="#md2253bdebe" x="441.09588" y="106.06545" style="fill: #af5a51; fill-opacity: 0.9; stroke: #af5a51; stroke-opacity: 0.9"/>
     <use xlink:href="#md2253bdebe" x="492.113023" y="53.523648" style="fill: #af5a51; fill-opacity: 0.9; stroke: #af5a51; stroke-opacity: 0.9"/>
    </g>
   </g>
   <g id="line2d_10">
    <g clip-path="url(#p0da1c0401e)">
     <use xlink:href="#md2253bdebe" x="83.97588" y="105.462264" style="fill: #af5a51; fill-opacity: 0.9; stroke: #af5a51; stroke-opacity: 0.9"/>
     <use xlink:href="#md2253bdebe" x="134.993023" y="103.359972" style="fill: #af5a51; fill-opacity: 0.9; stroke: #af5a51; stroke-opacity: 0.9"/>
     <use xlink:href="#md2253bdebe" x="186.010166" y="97.788485" style="fill: #af5a51; fill-opacity: 0.9; stroke: #af5a51; stroke-opacity: 0.9"/>
     <use xlink:href="#md2253bdebe" x="237.027309" y="91.138852" style="fill: #af5a51; fill-opacity: 0.9; stroke: #af5a51; stroke-opacity: 0.9"/>
     <use xlink:href="#md2253bdebe" x="288.044452" y="92.945177" style="fill: #af5a51; fill-opacity: 0.9; stroke: #af5a51; stroke-opacity: 0.9"/>
     <use xlink:href="#md2253bdebe" x="339.061595" y="91.631647" style="fill: #af5a51; fill-opacity: 0.9; stroke: #af5a51; stroke-opacity: 0.9"/>
     <use xlink:href="#md2253bdebe" x="390.078737" y="75.810907" style="fill: #af5a51; fill-opacity: 0.9; stroke: #af5a51; stroke-opacity: 0.9"/>
     <use xlink:href="#md2253bdebe" x="441.09588" y="73.867002" style="fill: #af5a51; fill-opacity: 0.9; stroke: #af5a51; stroke-opacity: 0.9"/>
     <use xlink:href="#md2253bdebe" x="492.113023" y="20.094834" style="fill: #af5a51; fill-opacity: 0.9; stroke: #af5a51; stroke-opacity: 0.9"/>
    </g>
   </g>
   <g id="line2d_11">
    <path d="M 83.97588 119.150892 
L 75.813137 119.466251 
" clip-path="url(#p0da1c0401e)" style="fill: none; stroke: #5d5d5d; stroke-opacity: 0.5; stroke-width: 0.5; stroke-linecap: square"/>
   </g>
   <g id="line2d_12">
    <path d="M 134.993023 115.302341 
L 126.83028 111.437377 
" clip-path="url(#p0da1c0401e)" style="fill: none; stroke: #5d5d5d; stroke-opacity: 0.5; stroke-width: 0.5; stroke-linecap: square"/>
   </g>
   <g id="line2d_13">
    <path d="M 186.010166 113.515571 
L 177.847423 113.140923 
" clip-path="url(#p0da1c0401e)" style="fill: none; stroke: #5d5d5d; stroke-opacity: 0.5; stroke-width: 0.5; stroke-linecap: square"/>
   </g>
   <g id="line2d_14">
    <path d="M 237.027309 108.040293 
L 228.864566 108.875887 
" clip-path="url(#p0da1c0401e)" style="fill: none; stroke: #5d5d5d; stroke-opacity: 0.5; stroke-width: 0.5; stroke-linecap: square"/>
   </g>
   <g id="line2d_15">
    <path d="M 288.044452 107.774248 
L 279.881709 110.452204 
" clip-path="url(#p0da1c0401e)" style="fill: none; stroke: #5d5d5d; stroke-opacity: 0.5; stroke-width: 0.5; stroke-linecap: square"/>
   </g>
   <g id="line2d_16">
    <path d="M 339.061595 106.281058 
L 330.898852 107.27814 
" clip-path="url(#p0da1c0401e)" style="fill: none; stroke: #5d5d5d; stroke-opacity: 0.5; stroke-width: 0.5; stroke-linecap: square"/>
   </g>
   <g id="line2d_17">
    <path d="M 390.078737 91.984566 
L 381.915995 88.696572 
" clip-path="url(#p0da1c0401e)" style="fill: none; stroke: #5d5d5d; stroke-opacity: 0.5; stroke-width: 0.5; stroke-linecap: square"/>
   </g>
   <g id="line2d_18">
    <path d="M 441.09588 89.966226 
L 432.933137 86.497634 
" clip-path="url(#p0da1c0401e)" style="fill: none; stroke: #5d5d5d; stroke-opacity: 0.5; stroke-width: 0.5; stroke-linecap: square"/>
   </g>
   <g id="line2d_19">
    <path d="M 492.113023 36.809241 
L 483.95028 37.431183 
" clip-path="url(#p0da1c0401e)" style="fill: none; stroke: #5d5d5d; stroke-opacity: 0.5; stroke-width: 0.5; stroke-linecap: square"/>
   </g>
   <g id="LineCollection_3">
    <path d="M 54.385937 134.489432 
L 500.785937 134.489432 
" clip-path="url(#p0da1c0401e)" style="fill: none; stroke-dasharray: 0.5,0.825; stroke-dashoffset: 0; stroke: #d9d9d9; stroke-width: 0.5"/>
   </g>
   <g id="LineCollection_4">
    <path d="M 54.385937 108.307614 
L 500.785937 108.307614 
" clip-path="url(#p0da1c0401e)" style="fill: none; stroke-dasharray: 0.5,0.825; stroke-dashoffset: 0; stroke: #d9d9d9; stroke-width: 0.5"/>
   </g>
   <g id="LineCollection_5">
    <path d="M 54.385937 82.125795 
L 500.785937 82.125795 
" clip-path="url(#p0da1c0401e)" style="fill: none; stroke-dasharray: 0.5,0.825; stroke-dashoffset: 0; stroke: #d9d9d9; stroke-width: 0.5"/>
   </g>
   <g id="LineCollection_6">
    <path d="M 54.385937 55.943977 
L 500.785937 55.943977 
" clip-path="url(#p0da1c0401e)" style="fill: none; stroke-dasharray: 0.5,0.825; stroke-dashoffset: 0; stroke: #d9d9d9; stroke-width: 0.5"/>
   </g>
   <g id="LineCollection_7">
    <path d="M 79.894509 160.67125 
L 79.894509 29.762159 
" clip-path="url(#p0da1c0401e)" style="fill: none; stroke-dasharray: 0.5,0.825; stroke-dashoffset: 0; stroke: #d9d9d9; stroke-width: 0.5"/>
   </g>
   <g id="LineCollection_8">
    <path d="M 130.911652 160.67125 
L 130.911652 29.762159 
" clip-path="url(#p0da1c0401e)" style="fill: none; stroke-dasharray: 0.5,0.825; stroke-dashoffset: 0; stroke: #d9d9d9; stroke-width: 0.5"/>
   </g>
   <g id="LineCollection_9">
    <path d="M 181.928795 160.67125 
L 181.928795 29.762159 
" clip-path="url(#p0da1c0401e)" style="fill: none; stroke-dasharray: 0.5,0.825; stroke-dashoffset: 0; stroke: #d9d9d9; stroke-width: 0.5"/>
   </g>
   <g id="LineCollection_10">
    <path d="M 232.945937 160.67125 
L 232.945937 29.762159 
" clip-path="url(#p0da1c0401e)" style="fill: none; stroke-dasharray: 0.5,0.825; stroke-dashoffset: 0; stroke: #d9d9d9; stroke-width: 0.5"/>
   </g>
   <g id="LineCollection_11">
    <path d="M 283.96308 160.67125 
L 283.96308 29.762159 
" clip-path="url(#p0da1c0401e)" style="fill: none; stroke-dasharray: 0.5,0.825; stroke-dashoffset: 0; stroke: #d9d9d9; stroke-width: 0.5"/>
   </g>
   <g id="LineCollection_12">
    <path d="M 334.980223 160.67125 
L 334.980223 29.762159 
" clip-path="url(#p0da1c0401e)" style="fill: none; stroke-dasharray: 0.5,0.825; stroke-dashoffset: 0; stroke: #d9d9d9; stroke-width: 0.5"/>
   </g>
   <g id="LineCollection_13">
    <path d="M 385.997366 160.67125 
L 385.997366 29.762159 
" clip-path="url(#p0da1c0401e)" style="fill: none; stroke-dasharray: 0.5,0.825; stroke-dashoffset: 0; stroke: #d9d9d9; stroke-width: 0.5"/>
   </g>
   <g id="LineCollection_14">
    <path d="M 437.014509 160.67125 
L 437.014509 29.762159 
" clip-path="url(#p0da1c0401e)" style="fill: none; stroke-dasharray: 0.5,0.825; stroke-dashoffset: 0; stroke: #d9d9d9; stroke-width: 0.5"/>
   </g>
   <g id="LineCollection_15">
    <path d="M 488.031652 160.67125 
L 488.031652 29.762159 
" clip-path="url(#p0da1c0401e)" style="fill: none; stroke-dasharray: 0.5,0.825; stroke-dashoffset: 0; stroke: #d9d9d9; stroke-width: 0.5"/>
   </g>
   <g id="line2d_20"/>
   <g id="line2d_21"/>
   <g id="patch_3">
    <path d="M 49.385937 160.67125 
L 49.385937 29.762159 
" style="fill: none; stroke: #bbbbbb; stroke-width: 0.75; stroke-linejoin: miter; stroke-linecap: square"/>
   </g>
   <g id="PathCollection_1">
    <defs>
     <path id="ma3733a1ad1" d="M 0 1.118034 
C 0.296506 1.118034 0.580908 1.000231 0.790569 0.790569 
C 1.000231 0.580908 1.118034 0.296506 1.118034 0 
C 1.118034 -0.296506 1.000231 -0.580908 0.790569 -0.790569 
C 0.580908 -1.000231 0.296506 -1.118034 0 -1.118034 
C -0.296506 -1.118034 -0.580908 -1.000231 -0.790569 -0.790569 
C -1.000231 -0.580908 -1.118034 -0.296506 -1.118034 0 
C -1.118034 0.296506 -1.000231 0.580908 -0.790569 0.790569 
C -0.580908 1.000231 -0.296506 1.118034 0 1.118034 
z
" style="stroke: #5d5d5d; stroke-opacity: 0.9"/>
    </defs>
    <g clip-path="url(#p0da1c0401e)">
     <use xlink:href="#ma3733a1ad1" x="75.813137" y="119.466251" style="fill: #5d5d5d; fill-opacity: 0.9; stroke: #5d5d5d; stroke-opacity: 0.9"/>
     <use xlink:href="#ma3733a1ad1" x="126.83028" y="111.437377" style="fill: #5d5d5d; fill-opacity: 0.9; stroke: #5d5d5d; stroke-opacity: 0.9"/>
     <use xlink:href="#ma3733a1ad1" x="177.847423" y="113.140923" style="fill: #5d5d5d; fill-opacity: 0.9; stroke: #5d5d5d; stroke-opacity: 0.9"/>
     <use xlink:href="#ma3733a1ad1" x="228.864566" y="108.875887" style="fill: #5d5d5d; fill-opacity: 0.9; stroke: #5d5d5d; stroke-opacity: 0.9"/>
     <use xlink:href="#ma3733a1ad1" x="279.881709" y="110.452204" style="fill: #5d5d5d; fill-opacity: 0.9; stroke: #5d5d5d; stroke-opacity: 0.9"/>
     <use xlink:href="#ma3733a1ad1" x="330.898852" y="107.27814" style="fill: #5d5d5d; fill-opacity: 0.9; stroke: #5d5d5d; stroke-opacity: 0.9"/>
     <use xlink:href="#ma3733a1ad1" x="381.915995" y="88.696572" style="fill: #5d5d5d; fill-opacity: 0.9; stroke: #5d5d5d; stroke-opacity: 0.9"/>
     <use xlink:href="#ma3733a1ad1" x="432.933137" y="86.497634" style="fill: #5d5d5d; fill-opacity: 0.9; stroke: #5d5d5d; stroke-opacity: 0.9"/>
     <use xlink:href="#ma3733a1ad1" x="483.95028" y="37.431183" style="fill: #5d5d5d; fill-opacity: 0.9; stroke: #5d5d5d; stroke-opacity: 0.9"/>
    </g>
   </g>
   <g id="PathCollection_2">
    <defs>
     <path id="m9b2ce097c4" d="M 0 1.118034 
C 0.296506 1.118034 0.580908 1.000231 0.790569 0.790569 
C 1.000231 0.580908 1.118034 0.296506 1.118034 0 
C 1.118034 -0.296506 1.000231 -0.580908 0.790569 -0.790569 
C 0.580908 -1.000231 0.296506 -1.118034 0 -1.118034 
C -0.296506 -1.118034 -0.580908 -1.000231 -0.790569 -0.790569 
C -1.000231 -0.580908 -1.118034 -0.296506 -1.118034 0 
C -1.118034 0.296506 -1.000231 0.580908 -0.790569 0.790569 
C -0.580908 1.000231 -0.296506 1.118034 0 1.118034 
z
" style="stroke: #af5a51; stroke-opacity: 0.9"/>
    </defs>
    <g clip-path="url(#p0da1c0401e)">
     <use xlink:href="#m9b2ce097c4" x="83.97588" y="119.150892" style="fill: #af5a51; fill-opacity: 0.9; stroke: #af5a51; stroke-opacity: 0.9"/>
     <use xlink:href="#m9b2ce097c4" x="134.993023" y="115.302341" style="fill: #af5a51; fill-opacity: 0.9; stroke: #af5a51; stroke-opacity: 0.9"/>
     <use xlink:href="#m9b2ce097c4" x="186.010166" y="113.515571" style="fill: #af5a51; fill-opacity: 0.9; stroke: #af5a51; stroke-opacity: 0.9"/>
     <use xlink:href="#m9b2ce097c4" x="237.027309" y="108.040293" style="fill: #af5a51; fill-opacity: 0.9; stroke: #af5a51; stroke-opacity: 0.9"/>
     <use xlink:href="#m9b2ce097c4" x="288.044452" y="107.774248" style="fill: #af5a51; fill-opacity: 0.9; stroke: #af5a51; stroke-opacity: 0.9"/>
     <use xlink:href="#m9b2ce097c4" x="339.061595" y="106.281058" style="fill: #af5a51; fill-opacity: 0.9; stroke: #af5a51; stroke-opacity: 0.9"/>
     <use xlink:href="#m9b2ce097c4" x="390.078737" y="91.984566" style="fill: #af5a51; fill-opacity: 0.9; stroke: #af5a51; stroke-opacity: 0.9"/>
     <use xlink:href="#m9b2ce097c4" x="441.09588" y="89.966226" style="fill: #af5a51; fill-opacity: 0.9; stroke: #af5a51; stroke-opacity: 0.9"/>
     <use xlink:href="#m9b2ce097c4" x="492.113023" y="36.809241" style="fill: #af5a51; fill-opacity: 0.9; stroke: #af5a51; stroke-opacity: 0.9"/>
    </g>
   </g>
   <g id="legend_1">
    <g id="PathCollection_3">
     <g>
      <use xlink:href="#ma3733a1ad1" x="64.585938" y="13.8075" style="fill: #5d5d5d; fill-opacity: 0.9; stroke: #5d5d5d; stroke-opacity: 0.9"/>
     </g>
    </g>
    <g id="text_17">
     <!-- Original features -->
     <g style="fill: #4b4b4b" transform="translate(71.585938 16.6075) scale(0.08 -0.08)">
      <defs>
       <path id="Ubuntu-4f" d="M 371 2221 
Q 371 2790 540 3225 
Q 710 3661 1001 3952 
Q 1293 4243 1680 4390 
Q 2067 4538 2502 4538 
Q 2931 4538 3312 4390 
Q 3693 4243 3981 3952 
Q 4269 3661 4438 3225 
Q 4608 2790 4608 2221 
Q 4608 1651 4438 1216 
Q 4269 781 3981 489 
Q 3693 198 3312 51 
Q 2931 -96 2502 -96 
Q 2067 -96 1680 51 
Q 1293 198 1001 489 
Q 710 781 540 1216 
Q 371 1651 371 2221 
z
M 1024 2221 
Q 1024 1818 1126 1488 
Q 1229 1158 1417 928 
Q 1606 698 1878 573 
Q 2150 448 2490 448 
Q 2829 448 3097 573 
Q 3366 698 3555 928 
Q 3744 1158 3846 1488 
Q 3949 1818 3949 2221 
Q 3949 2624 3846 2953 
Q 3744 3283 3555 3513 
Q 3366 3744 3097 3869 
Q 2829 3994 2490 3994 
Q 2150 3994 1878 3869 
Q 1606 3744 1417 3513 
Q 1229 3283 1126 2953 
Q 1024 2624 1024 2221 
z
" transform="scale(0.015625)"/>
       <path id="Ubuntu-72" d="M 1741 3398 
Q 1818 3398 1917 3388 
Q 2016 3379 2112 3363 
Q 2208 3347 2288 3331 
Q 2368 3315 2406 3302 
L 2304 2784 
Q 2234 2810 2070 2845 
Q 1907 2880 1651 2880 
Q 1485 2880 1321 2845 
Q 1158 2810 1107 2797 
L 1107 0 
L 512 0 
L 512 3187 
Q 723 3264 1036 3331 
Q 1350 3398 1741 3398 
z
" transform="scale(0.015625)"/>
       <path id="Ubuntu-69" d="M 1107 0 
L 512 0 
L 512 3328 
L 1107 3328 
L 1107 0 
z
M 806 3930 
Q 646 3930 534 4035 
Q 422 4141 422 4320 
Q 422 4499 534 4604 
Q 646 4710 806 4710 
Q 966 4710 1078 4604 
Q 1190 4499 1190 4320 
Q 1190 4141 1078 4035 
Q 966 3930 806 3930 
z
" transform="scale(0.015625)"/>
       <path id="Ubuntu-67" d="M 2598 333 
Q 2522 282 2301 202 
Q 2080 122 1786 122 
Q 1485 122 1219 218 
Q 954 314 755 515 
Q 557 717 441 1017 
Q 326 1318 326 1734 
Q 326 2099 435 2403 
Q 544 2707 752 2928 
Q 960 3149 1261 3273 
Q 1562 3398 1939 3398 
Q 2355 3398 2665 3337 
Q 2976 3277 3187 3226 
L 3187 256 
Q 3187 -512 2790 -857 
Q 2394 -1203 1587 -1203 
Q 1274 -1203 995 -1152 
Q 717 -1101 512 -1030 
L 621 -512 
Q 800 -582 1059 -636 
Q 1318 -691 1600 -691 
Q 2131 -691 2364 -480 
Q 2598 -269 2598 192 
L 2598 333 
z
M 2592 2803 
Q 2502 2829 2352 2851 
Q 2202 2874 1946 2874 
Q 1466 2874 1206 2560 
Q 947 2246 947 1728 
Q 947 1440 1020 1235 
Q 1094 1030 1219 896 
Q 1344 762 1507 698 
Q 1670 634 1843 634 
Q 2080 634 2278 701 
Q 2477 768 2592 858 
L 2592 2803 
z
" transform="scale(0.015625)"/>
       <path id="Ubuntu-6e" d="M 512 3232 
Q 717 3283 1056 3340 
Q 1395 3398 1837 3398 
Q 2234 3398 2496 3286 
Q 2758 3174 2915 2972 
Q 3072 2771 3136 2489 
Q 3200 2208 3200 1869 
L 3200 0 
L 2605 0 
L 2605 1741 
Q 2605 2048 2563 2265 
Q 2522 2483 2426 2617 
Q 2330 2752 2170 2813 
Q 2010 2874 1773 2874 
Q 1677 2874 1574 2867 
Q 1472 2861 1379 2851 
Q 1286 2842 1212 2829 
Q 1139 2816 1107 2810 
L 1107 0 
L 512 0 
L 512 3232 
z
" transform="scale(0.015625)"/>
       <path id="Ubuntu-61" d="M 1638 429 
Q 1850 429 2013 438 
Q 2176 448 2285 474 
L 2285 1466 
Q 2221 1498 2077 1520 
Q 1933 1542 1728 1542 
Q 1594 1542 1443 1523 
Q 1293 1504 1168 1443 
Q 1043 1382 960 1276 
Q 877 1171 877 998 
Q 877 678 1081 553 
Q 1286 429 1638 429 
z
M 1587 3411 
Q 1946 3411 2192 3318 
Q 2438 3226 2588 3056 
Q 2739 2886 2803 2652 
Q 2867 2419 2867 2138 
L 2867 58 
Q 2790 45 2652 22 
Q 2515 0 2342 -19 
Q 2170 -38 1968 -54 
Q 1766 -70 1568 -70 
Q 1286 -70 1049 -12 
Q 813 45 640 169 
Q 467 294 371 499 
Q 275 704 275 992 
Q 275 1267 387 1465 
Q 499 1664 691 1785 
Q 883 1907 1139 1964 
Q 1395 2022 1677 2022 
Q 1766 2022 1862 2012 
Q 1958 2003 2044 1987 
Q 2131 1971 2195 1958 
Q 2259 1946 2285 1939 
L 2285 2106 
Q 2285 2253 2253 2397 
Q 2221 2541 2137 2653 
Q 2054 2765 1910 2832 
Q 1766 2899 1536 2899 
Q 1242 2899 1021 2857 
Q 800 2816 691 2771 
L 621 3264 
Q 736 3315 1005 3363 
Q 1274 3411 1587 3411 
z
" transform="scale(0.015625)"/>
       <path id="Ubuntu-6c" d="M 1510 -64 
Q 960 -51 729 173 
Q 499 397 499 870 
L 499 4864 
L 1094 4966 
L 1094 966 
Q 1094 819 1120 723 
Q 1146 627 1203 569 
Q 1261 512 1357 483 
Q 1453 454 1594 435 
L 1510 -64 
z
" transform="scale(0.015625)"/>
       <path id="Ubuntu-20" transform="scale(0.015625)"/>
       <path id="Ubuntu-66" d="M 1811 4966 
Q 2074 4966 2262 4928 
Q 2451 4890 2528 4858 
L 2419 4346 
Q 2342 4384 2201 4419 
Q 2061 4454 1856 4454 
Q 1440 4454 1273 4227 
Q 1107 4000 1107 3616 
L 1107 3328 
L 2387 3328 
L 2387 2829 
L 1107 2829 
L 1107 0 
L 512 0 
L 512 3629 
Q 512 4269 825 4617 
Q 1139 4966 1811 4966 
z
" transform="scale(0.015625)"/>
       <path id="Ubuntu-65" d="M 326 1658 
Q 326 2099 454 2428 
Q 582 2758 793 2976 
Q 1005 3194 1280 3302 
Q 1555 3411 1843 3411 
Q 2515 3411 2873 2992 
Q 3232 2573 3232 1715 
Q 3232 1677 3232 1616 
Q 3232 1555 3226 1504 
L 947 1504 
Q 986 986 1248 717 
Q 1510 448 2067 448 
Q 2381 448 2595 502 
Q 2810 557 2918 608 
L 3002 109 
Q 2893 51 2621 -13 
Q 2349 -77 2003 -77 
Q 1568 -77 1251 54 
Q 934 186 729 416 
Q 525 646 425 963 
Q 326 1280 326 1658 
z
M 2611 1984 
Q 2618 2387 2410 2646 
Q 2202 2906 1837 2906 
Q 1632 2906 1475 2826 
Q 1318 2746 1209 2618 
Q 1101 2490 1040 2323 
Q 979 2157 960 1984 
L 2611 1984 
z
" transform="scale(0.015625)"/>
       <path id="Ubuntu-74" d="M 1069 3328 
L 2330 3328 
L 2330 2829 
L 1069 2829 
L 1069 1293 
Q 1069 1043 1107 880 
Q 1146 717 1222 624 
Q 1299 531 1414 492 
Q 1530 454 1683 454 
Q 1952 454 2115 515 
Q 2278 576 2342 602 
L 2458 109 
Q 2368 64 2144 -3 
Q 1920 -70 1632 -70 
Q 1293 -70 1072 16 
Q 851 102 716 275 
Q 582 448 528 701 
Q 474 954 474 1286 
L 474 4256 
L 1069 4358 
L 1069 3328 
z
" transform="scale(0.015625)"/>
       <path id="Ubuntu-75" d="M 3162 96 
Q 2957 45 2621 -12 
Q 2285 -70 1843 -70 
Q 1459 -70 1196 42 
Q 934 154 774 358 
Q 614 563 544 841 
Q 474 1120 474 1459 
L 474 3328 
L 1069 3328 
L 1069 1587 
Q 1069 979 1261 716 
Q 1453 454 1907 454 
Q 2003 454 2105 460 
Q 2208 467 2297 476 
Q 2387 486 2460 496 
Q 2534 506 2566 518 
L 2566 3328 
L 3162 3328 
L 3162 96 
z
" transform="scale(0.015625)"/>
       <path id="Ubuntu-73" d="M 1286 429 
Q 1651 429 1827 525 
Q 2003 621 2003 832 
Q 2003 1050 1830 1178 
Q 1658 1306 1261 1466 
Q 1069 1542 893 1622 
Q 717 1702 589 1811 
Q 461 1920 384 2073 
Q 307 2227 307 2451 
Q 307 2893 633 3152 
Q 960 3411 1523 3411 
Q 1664 3411 1805 3395 
Q 1946 3379 2067 3356 
Q 2189 3334 2281 3308 
Q 2374 3283 2426 3264 
L 2317 2752 
Q 2221 2803 2016 2857 
Q 1811 2912 1523 2912 
Q 1274 2912 1088 2813 
Q 902 2714 902 2502 
Q 902 2394 944 2310 
Q 986 2227 1072 2160 
Q 1158 2093 1286 2035 
Q 1414 1978 1594 1914 
Q 1830 1824 2016 1737 
Q 2202 1651 2333 1536 
Q 2464 1421 2534 1257 
Q 2605 1094 2605 858 
Q 2605 397 2262 160 
Q 1920 -77 1286 -77 
Q 845 -77 595 -3 
Q 346 70 256 109 
L 365 621 
Q 467 582 691 505 
Q 915 429 1286 429 
z
" transform="scale(0.015625)"/>
      </defs>
      <use xlink:href="#Ubuntu-4f"/>
      <use xlink:href="#Ubuntu-72" x="77.799988"/>
      <use xlink:href="#Ubuntu-69" x="116.399979"/>
      <use xlink:href="#Ubuntu-67" x="141.699966"/>
      <use xlink:href="#Ubuntu-69" x="199.499954"/>
      <use xlink:href="#Ubuntu-6e" x="224.799942"/>
      <use xlink:href="#Ubuntu-61" x="282.199936"/>
      <use xlink:href="#Ubuntu-6c" x="334.399933"/>
      <use xlink:href="#Ubuntu-20" x="361.699921"/>
      <use xlink:href="#Ubuntu-66" x="384.799911"/>
      <use xlink:href="#Ubuntu-65" x="423.399902"/>
      <use xlink:href="#Ubuntu-61" x="479.299896"/>
      <use xlink:href="#Ubuntu-74" x="531.499893"/>
      <use xlink:href="#Ubuntu-75" x="571.69989"/>
      <use xlink:href="#Ubuntu-72" x="629.099884"/>
      <use xlink:href="#Ubuntu-65" x="667.699875"/>
      <use xlink:href="#Ubuntu-73" x="723.599869"/>
     </g>
    </g>
    <g id="PathCollection_4">
     <g>
      <use xlink:href="#m9b2ce097c4" x="152.040937" y="13.8075" style="fill: #af5a51; fill-opacity: 0.9; stroke: #af5a51; stroke-opacity: 0.9"/>
     </g>
    </g>
    <g id="text_18">
     <!-- New features -->
     <g style="fill: #4b4b4b" transform="translate(159.040937 16.6075) scale(0.08 -0.08)">
      <defs>
       <path id="Ubuntu-4e" d="M 3590 0 
Q 3450 237 3267 531 
Q 3085 826 2873 1142 
Q 2662 1459 2435 1785 
Q 2208 2112 1984 2416 
Q 1760 2720 1549 2989 
Q 1338 3258 1158 3462 
L 1158 0 
L 550 0 
L 550 4435 
L 1043 4435 
Q 1344 4115 1686 3689 
Q 2029 3264 2365 2813 
Q 2701 2362 2998 1926 
Q 3296 1491 3501 1152 
L 3501 4435 
L 4109 4435 
L 4109 0 
L 3590 0 
z
" transform="scale(0.015625)"/>
       <path id="Ubuntu-77" d="M 3232 0 
Q 3053 461 2851 1053 
Q 2650 1645 2483 2285 
Q 2317 1645 2118 1053 
Q 1920 461 1741 0 
L 1222 0 
Q 928 659 646 1504 
Q 365 2349 115 3328 
L 755 3328 
Q 819 3027 908 2675 
Q 998 2323 1097 1971 
Q 1197 1619 1305 1292 
Q 1414 966 1510 723 
Q 1619 1024 1724 1360 
Q 1830 1696 1926 2038 
Q 2022 2381 2108 2710 
Q 2195 3040 2259 3328 
L 2752 3328 
Q 2810 3040 2893 2710 
Q 2976 2381 3072 2038 
Q 3168 1696 3273 1360 
Q 3379 1024 3488 723 
Q 3584 966 3689 1292 
Q 3795 1619 3897 1971 
Q 4000 2323 4089 2675 
Q 4179 3027 4243 3328 
L 4858 3328 
Q 4608 2349 4326 1504 
Q 4045 659 3750 0 
L 3232 0 
z
" transform="scale(0.015625)"/>
      </defs>
      <use xlink:href="#Ubuntu-4e"/>
      <use xlink:href="#Ubuntu-65" x="72.799988"/>
      <use xlink:href="#Ubuntu-77" x="128.699982"/>
      <use xlink:href="#Ubuntu-20" x="206.399963"/>
      <use xlink:href="#Ubuntu-66" x="229.499954"/>
      <use xlink:href="#Ubuntu-65" x="268.099945"/>
      <use xlink:href="#Ubuntu-61" x="323.999939"/>
      <use xlink:href="#Ubuntu-74" x="376.199936"/>
      <use xlink:href="#Ubuntu-75" x="416.399933"/>
      <use xlink:href="#Ubuntu-72" x="473.799927"/>
      <use xlink:href="#Ubuntu-65" x="512.399918"/>
      <use xlink:href="#Ubuntu-73" x="568.299911"/>
     </g>
    </g>
   </g>
  </g>
  <g id="axes_2">
   <g id="patch_4">
    <path d="M 54.385937 238.43125 
L 500.785937 238.43125 
L 500.785937 180.83125 
L 54.385937 180.83125 
L 54.385937 238.43125 
z
" style="fill: none"/>
   </g>
   <g id="matplotlib.axis_3">
    <g id="xtick_10"/>
    <g id="xtick_11"/>
    <g id="xtick_12"/>
    <g id="xtick_13"/>
    <g id="xtick_14"/>
    <g id="xtick_15"/>
    <g id="xtick_16"/>
    <g id="xtick_17"/>
    <g id="xtick_18"/>
   </g>
   <g id="matplotlib.axis_4">
    <g id="ytick_7">
     <g id="line2d_22">
      <g>
       <use xlink:href="#md4d8306944" x="49.385937" y="238.43125" style="fill: #bbbbbb; stroke: #bbbbbb"/>
      </g>
     </g>
     <g id="text_19">
      <!-- 20 -->
      <g style="fill: #9f9f9f" transform="translate(23.848437 241.535) scale(0.08 -0.08)">
       <defs>
        <path id="Ubuntu-2212" d="M 339 2138 
L 3270 2138 
L 3270 1632 
L 339 1632 
L 339 2138 
z
" transform="scale(0.015625)"/>
       </defs>
       <use xlink:href="#Ubuntu-2212"/>
       <use xlink:href="#Ubuntu-32" x="56.399994"/>
       <use xlink:href="#Ubuntu-30" x="112.799988"/>
      </g>
     </g>
    </g>
    <g id="ytick_8">
     <g id="line2d_23">
      <g>
       <use xlink:href="#md4d8306944" x="49.385937" y="215.39125" style="fill: #bbbbbb; stroke: #bbbbbb"/>
      </g>
     </g>
     <g id="text_20">
      <!-- 10 -->
      <g style="fill: #9f9f9f" transform="translate(23.848437 218.495) scale(0.08 -0.08)">
       <use xlink:href="#Ubuntu-2212"/>
       <use xlink:href="#Ubuntu-31" x="56.399994"/>
       <use xlink:href="#Ubuntu-30" x="112.799988"/>
      </g>
     </g>
    </g>
    <g id="ytick_9">
     <g id="line2d_24">
      <g>
       <use xlink:href="#md4d8306944" x="49.385937" y="192.35125" style="fill: #bbbbbb; stroke: #bbbbbb"/>
      </g>
     </g>
     <g id="text_21">
      <!-- 0 -->
      <g style="fill: #9f9f9f" transform="translate(32.873437 195.455) scale(0.08 -0.08)">
       <use xlink:href="#Ubuntu-30"/>
      </g>
     </g>
    </g>
    <g id="text_22">
     <!-- Fit time -->
     <g style="fill: #505050" transform="translate(14.183437 214.368906) rotate(-90) scale(0.09 -0.09)">
      <defs>
       <path id="Ubuntu-Bold-20" transform="scale(0.015625)"/>
       <path id="Ubuntu-Bold-6d" d="M 2298 1786 
Q 2298 2246 2179 2438 
Q 2061 2630 1773 2630 
Q 1683 2630 1587 2620 
Q 1491 2611 1402 2598 
L 1402 0 
L 448 0 
L 448 3251 
Q 570 3283 733 3318 
Q 896 3354 1078 3382 
Q 1261 3411 1453 3427 
Q 1645 3443 1830 3443 
Q 2195 3443 2422 3350 
Q 2650 3258 2797 3130 
Q 3002 3277 3267 3360 
Q 3533 3443 3757 3443 
Q 4160 3443 4419 3331 
Q 4678 3219 4832 3014 
Q 4986 2810 5043 2528 
Q 5101 2246 5101 1901 
L 5101 0 
L 4147 0 
L 4147 1786 
Q 4147 2246 4028 2438 
Q 3910 2630 3622 2630 
Q 3546 2630 3408 2592 
Q 3270 2554 3181 2496 
Q 3226 2349 3238 2185 
Q 3251 2022 3251 1837 
L 3251 0 
L 2298 0 
L 2298 1786 
z
" transform="scale(0.015625)"/>
       <path id="Ubuntu-Bold-65" d="M 288 1658 
Q 288 2106 425 2442 
Q 563 2778 787 3002 
Q 1011 3226 1302 3341 
Q 1594 3456 1901 3456 
Q 2618 3456 3034 3017 
Q 3450 2579 3450 1728 
Q 3450 1645 3443 1545 
Q 3437 1446 3430 1370 
L 1267 1370 
Q 1299 1075 1542 902 
Q 1786 730 2195 730 
Q 2458 730 2710 778 
Q 2963 826 3123 896 
L 3251 122 
Q 3174 83 3046 44 
Q 2918 6 2761 -22 
Q 2605 -51 2425 -70 
Q 2246 -90 2067 -90 
Q 1613 -90 1277 44 
Q 941 179 720 412 
Q 499 646 393 966 
Q 288 1286 288 1658 
z
M 2528 2022 
Q 2522 2144 2486 2259 
Q 2451 2374 2377 2464 
Q 2304 2554 2192 2611 
Q 2080 2669 1914 2669 
Q 1754 2669 1638 2614 
Q 1523 2560 1446 2470 
Q 1370 2381 1328 2262 
Q 1286 2144 1267 2022 
L 2528 2022 
z
" transform="scale(0.015625)"/>
      </defs>
      <use xlink:href="#Ubuntu-Bold-46"/>
      <use xlink:href="#Ubuntu-Bold-69" x="57.399994"/>
      <use xlink:href="#Ubuntu-Bold-74" x="86.299988"/>
      <use xlink:href="#Ubuntu-Bold-20" x="130.699982"/>
      <use xlink:href="#Ubuntu-Bold-74" x="154.699966"/>
      <use xlink:href="#Ubuntu-Bold-69" x="199.09996"/>
      <use xlink:href="#Ubuntu-Bold-6d" x="227.999954"/>
      <use xlink:href="#Ubuntu-Bold-65" x="314.199936"/>
     </g>
    </g>
   </g>
   <g id="PathCollection_5">
    <defs>
     <path id="mf728b50ac3" d="M 0 1.581139 
L 0 -1.581139 
" style="stroke: #af5a51"/>
    </defs>
    <g clip-path="url(#p24a0299ae1)">
     <use xlink:href="#mf728b50ac3" x="79.894509" y="306.531078" style="fill: #af5a51; stroke: #af5a51"/>
     <use xlink:href="#mf728b50ac3" x="130.911652" y="193.750313" style="fill: #af5a51; stroke: #af5a51"/>
     <use xlink:href="#mf728b50ac3" x="181.928795" y="214.946862" style="fill: #af5a51; stroke: #af5a51"/>
     <use xlink:href="#mf728b50ac3" x="232.945937" y="192.729136" style="fill: #af5a51; stroke: #af5a51"/>
     <use xlink:href="#mf728b50ac3" x="283.96308" y="193.342268" style="fill: #af5a51; stroke: #af5a51"/>
     <use xlink:href="#mf728b50ac3" x="334.980223" y="192.993538" style="fill: #af5a51; stroke: #af5a51"/>
     <use xlink:href="#mf728b50ac3" x="385.997366" y="205.285794" style="fill: #af5a51; stroke: #af5a51"/>
     <use xlink:href="#mf728b50ac3" x="437.014509" y="199.236253" style="fill: #af5a51; stroke: #af5a51"/>
     <use xlink:href="#mf728b50ac3" x="488.031652" y="192.538685" style="fill: #af5a51; stroke: #af5a51"/>
    </g>
   </g>
   <g id="PathCollection_6">
    <defs>
     <path id="md1995aacba" d="M 0 1.581139 
L 0 -1.581139 
" style="stroke: #5d5d5d"/>
    </defs>
    <g clip-path="url(#p24a0299ae1)">
     <use xlink:href="#md1995aacba" x="79.894509" y="293.576864" style="fill: #5d5d5d; stroke: #5d5d5d"/>
     <use xlink:href="#md1995aacba" x="130.911652" y="193.506353" style="fill: #5d5d5d; stroke: #5d5d5d"/>
     <use xlink:href="#md1995aacba" x="181.928795" y="212.446426" style="fill: #5d5d5d; stroke: #5d5d5d"/>
     <use xlink:href="#md1995aacba" x="232.945937" y="192.761691" style="fill: #5d5d5d; stroke: #5d5d5d"/>
     <use xlink:href="#md1995aacba" x="283.96308" y="193.567051" style="fill: #5d5d5d; stroke: #5d5d5d"/>
     <use xlink:href="#md1995aacba" x="334.980223" y="193.492099" style="fill: #5d5d5d; stroke: #5d5d5d"/>
     <use xlink:href="#md1995aacba" x="385.997366" y="204.28318" style="fill: #5d5d5d; stroke: #5d5d5d"/>
     <use xlink:href="#md1995aacba" x="437.014509" y="198.346937" style="fill: #5d5d5d; stroke: #5d5d5d"/>
     <use xlink:href="#md1995aacba" x="488.031652" y="192.545394" style="fill: #5d5d5d; stroke: #5d5d5d"/>
    </g>
   </g>
   <g id="line2d_25">
    <path d="M 104.917111 251.215 
L 130.911652 193.750313 
L 181.928795 214.946862 
L 232.945937 192.729136 
L 283.96308 193.342268 
L 334.980223 192.993538 
L 385.997366 205.285794 
L 437.014509 199.236253 
L 488.031652 192.538685 
" clip-path="url(#p24a0299ae1)" style="fill: none; stroke: #af5a51; stroke-opacity: 0.25; stroke-width: 0.5; stroke-linecap: square"/>
   </g>
   <g id="line2d_26">
    <path d="M 101.491094 251.215 
L 130.911652 193.506353 
L 181.928795 212.446426 
L 232.945937 192.761691 
L 283.96308 193.567051 
L 334.980223 193.492099 
L 385.997366 204.28318 
L 437.014509 198.346937 
L 488.031652 192.545394 
" clip-path="url(#p24a0299ae1)" style="fill: none; stroke: #5d5d5d; stroke-opacity: 0.25; stroke-width: 0.5; stroke-linecap: square"/>
   </g>
   <g id="LineCollection_16">
    <path d="M 54.385937 215.39125 
L 500.785937 215.39125 
" clip-path="url(#p24a0299ae1)" style="fill: none; stroke-dasharray: 0.5,0.825; stroke-dashoffset: 0; stroke: #d9d9d9; stroke-width: 0.5"/>
   </g>
   <g id="LineCollection_17">
    <path d="M 79.894509 238.43125 
L 79.894509 192.35125 
" clip-path="url(#p24a0299ae1)" style="fill: none; stroke-dasharray: 0.5,0.825; stroke-dashoffset: 0; stroke: #d9d9d9; stroke-width: 0.5"/>
   </g>
   <g id="LineCollection_18">
    <path d="M 130.911652 238.43125 
L 130.911652 192.35125 
" clip-path="url(#p24a0299ae1)" style="fill: none; stroke-dasharray: 0.5,0.825; stroke-dashoffset: 0; stroke: #d9d9d9; stroke-width: 0.5"/>
   </g>
   <g id="LineCollection_19">
    <path d="M 181.928795 238.43125 
L 181.928795 192.35125 
" clip-path="url(#p24a0299ae1)" style="fill: none; stroke-dasharray: 0.5,0.825; stroke-dashoffset: 0; stroke: #d9d9d9; stroke-width: 0.5"/>
   </g>
   <g id="LineCollection_20">
    <path d="M 232.945937 238.43125 
L 232.945937 192.35125 
" clip-path="url(#p24a0299ae1)" style="fill: none; stroke-dasharray: 0.5,0.825; stroke-dashoffset: 0; stroke: #d9d9d9; stroke-width: 0.5"/>
   </g>
   <g id="LineCollection_21">
    <path d="M 283.96308 238.43125 
L 283.96308 192.35125 
" clip-path="url(#p24a0299ae1)" style="fill: none; stroke-dasharray: 0.5,0.825; stroke-dashoffset: 0; stroke: #d9d9d9; stroke-width: 0.5"/>
   </g>
   <g id="LineCollection_22">
    <path d="M 334.980223 238.43125 
L 334.980223 192.35125 
" clip-path="url(#p24a0299ae1)" style="fill: none; stroke-dasharray: 0.5,0.825; stroke-dashoffset: 0; stroke: #d9d9d9; stroke-width: 0.5"/>
   </g>
   <g id="LineCollection_23">
    <path d="M 385.997366 238.43125 
L 385.997366 192.35125 
" clip-path="url(#p24a0299ae1)" style="fill: none; stroke-dasharray: 0.5,0.825; stroke-dashoffset: 0; stroke: #d9d9d9; stroke-width: 0.5"/>
   </g>
   <g id="LineCollection_24">
    <path d="M 437.014509 238.43125 
L 437.014509 192.35125 
" clip-path="url(#p24a0299ae1)" style="fill: none; stroke-dasharray: 0.5,0.825; stroke-dashoffset: 0; stroke: #d9d9d9; stroke-width: 0.5"/>
   </g>
   <g id="LineCollection_25">
    <path d="M 488.031652 238.43125 
L 488.031652 192.35125 
" clip-path="url(#p24a0299ae1)" style="fill: none; stroke-dasharray: 0.5,0.825; stroke-dashoffset: 0; stroke: #d9d9d9; stroke-width: 0.5"/>
   </g>
   <g id="patch_5">
    <path d="M 49.385937 238.43125 
L 49.385937 192.35125 
" style="fill: none; stroke: #bbbbbb; stroke-width: 0.75; stroke-linejoin: miter; stroke-linecap: square"/>
   </g>
  </g>
 </g>
 <defs>
  <clipPath id="p0da1c0401e">
   <rect x="54.385937" y="16.67125" width="446.4" height="144"/>
  </clipPath>
  <clipPath id="p24a0299ae1">
   <rect x="54.385937" y="180.83125" width="446.4" height="57.6"/>
  </clipPath>
 </defs>
</svg>
