<?xml version="1.0" encoding="utf-8" standalone="no"?>
<!DOCTYPE svg PUBLIC "-//W3C//DTD SVG 1.1//EN"
  "http://www.w3.org/Graphics/SVG/1.1/DTD/svg11.dtd">
<svg xmlns:xlink="http://www.w3.org/1999/xlink" width="434.505pt" height="207.818906pt" viewBox="0 0 434.505 207.818906" xmlns="http://www.w3.org/2000/svg" version="1.1">
 <metadata>
  <rdf:RDF xmlns:dc="http://purl.org/dc/elements/1.1/" xmlns:cc="http://creativecommons.org/ns#" xmlns:rdf="http://www.w3.org/1999/02/22-rdf-syntax-ns#">
   <cc:Work>
    <dc:type rdf:resource="http://purl.org/dc/dcmitype/StillImage"/>
    <dc:date>2024-03-16T10:54:22.269813</dc:date>
    <dc:format>image/svg+xml</dc:format>
    <dc:creator>
     <cc:Agent>
      <dc:title>Matplotlib v3.8.0, https://matplotlib.org/</dc:title>
     </cc:Agent>
    </dc:creator>
   </cc:Work>
  </rdf:RDF>
 </metadata>
 <defs>
  <style type="text/css">*{stroke-linejoin: round; stroke-linecap: butt}</style>
 </defs>
 <g id="figure_1">
  <g id="patch_1">
   <path d="M 0 207.818906 
L 434.505 207.818906 
L 434.505 -0 
L 0 -0 
L 0 207.818906 
z
" style="fill: none"/>
  </g>
  <g id="axes_1">
   <g id="patch_2">
    <path d="M 36.705 163.94375 
L 427.305 163.94375 
L 427.305 25.34375 
L 36.705 25.34375 
L 36.705 163.94375 
z
" style="fill: none"/>
   </g>
   <g id="matplotlib.axis_1">
    <g id="xtick_1">
     <g id="line2d_1">
      <defs>
       <path id="mfb0a7e0109" d="M 0 0 
L 0 3 
" style="stroke: #aaaaaa; stroke-width: 0.75"/>
      </defs>
      <g>
       <use xlink:href="#mfb0a7e0109" x="48.193235" y="178.94375" style="fill: #aaaaaa; stroke: #aaaaaa; stroke-width: 0.75"/>
      </g>
     </g>
     <g id="text_1">
      <!-- Stacking -->
      <g style="fill: #4c4c4c" transform="translate(30.364798 198.927188) scale(0.09 -0.09)">
       <defs>
        <path id="Ubuntu-Medium-53" d="M 1606 602 
Q 2042 602 2240 749 
Q 2438 896 2438 1165 
Q 2438 1325 2371 1440 
Q 2304 1555 2179 1648 
Q 2054 1741 1875 1821 
Q 1696 1901 1466 1978 
Q 1235 2061 1020 2160 
Q 806 2259 643 2406 
Q 480 2554 381 2758 
Q 282 2963 282 3251 
Q 282 3853 698 4195 
Q 1114 4538 1830 4538 
Q 2246 4538 2569 4445 
Q 2893 4352 3078 4243 
L 2829 3590 
Q 2611 3712 2352 3776 
Q 2093 3840 1818 3840 
Q 1491 3840 1308 3705 
Q 1126 3571 1126 3328 
Q 1126 3181 1187 3075 
Q 1248 2970 1360 2886 
Q 1472 2803 1622 2732 
Q 1773 2662 1952 2598 
Q 2266 2483 2512 2364 
Q 2758 2246 2928 2083 
Q 3098 1920 3187 1699 
Q 3277 1478 3277 1165 
Q 3277 563 2851 233 
Q 2426 -96 1606 -96 
Q 1331 -96 1104 -61 
Q 877 -26 701 25 
Q 525 77 397 131 
Q 269 186 192 230 
L 429 890 
Q 602 794 896 698 
Q 1190 602 1606 602 
z
" transform="scale(0.015625)"/>
        <path id="Ubuntu-Medium-74" d="M 454 4230 
L 1229 4358 
L 1229 3347 
L 2419 3347 
L 2419 2701 
L 1229 2701 
L 1229 1338 
Q 1229 934 1357 761 
Q 1485 589 1792 589 
Q 2003 589 2166 633 
Q 2330 678 2426 717 
L 2554 102 
Q 2419 45 2201 -16 
Q 1984 -77 1690 -77 
Q 1331 -77 1091 19 
Q 851 115 710 297 
Q 570 480 512 739 
Q 454 998 454 1331 
L 454 4230 
z
" transform="scale(0.015625)"/>
        <path id="Ubuntu-Medium-61" d="M 1670 544 
Q 2029 544 2214 582 
L 2214 1440 
Q 2150 1459 2028 1478 
Q 1907 1498 1760 1498 
Q 1632 1498 1501 1478 
Q 1370 1459 1264 1408 
Q 1158 1357 1094 1264 
Q 1030 1171 1030 1030 
Q 1030 755 1203 649 
Q 1376 544 1670 544 
z
M 1606 3430 
Q 1990 3430 2252 3334 
Q 2515 3238 2672 3065 
Q 2829 2893 2896 2646 
Q 2963 2400 2963 2106 
L 2963 77 
Q 2784 38 2422 -16 
Q 2061 -70 1606 -70 
Q 1306 -70 1056 -12 
Q 806 45 630 173 
Q 454 301 355 505 
Q 256 710 256 1011 
Q 256 1299 368 1497 
Q 480 1696 672 1821 
Q 864 1946 1117 2000 
Q 1370 2054 1645 2054 
Q 1773 2054 1913 2038 
Q 2054 2022 2214 1984 
L 2214 2112 
Q 2214 2246 2182 2368 
Q 2150 2490 2070 2582 
Q 1990 2675 1859 2726 
Q 1728 2778 1530 2778 
Q 1261 2778 1037 2739 
Q 813 2701 672 2650 
L 576 3277 
Q 723 3328 1004 3379 
Q 1286 3430 1606 3430 
z
" transform="scale(0.015625)"/>
        <path id="Ubuntu-Medium-63" d="M 307 1670 
Q 307 2042 422 2365 
Q 538 2688 752 2925 
Q 966 3162 1273 3296 
Q 1581 3430 1965 3430 
Q 2438 3430 2861 3258 
L 2694 2624 
Q 2560 2682 2390 2720 
Q 2221 2758 2029 2758 
Q 1574 2758 1337 2473 
Q 1101 2189 1101 1670 
Q 1101 1171 1325 880 
Q 1549 589 2080 589 
Q 2278 589 2470 627 
Q 2662 666 2803 723 
L 2912 83 
Q 2784 19 2525 -32 
Q 2266 -83 1990 -83 
Q 1562 -83 1245 48 
Q 928 179 720 412 
Q 512 646 409 969 
Q 307 1293 307 1670 
z
" transform="scale(0.015625)"/>
        <path id="Ubuntu-Medium-6b" d="M 1267 2042 
Q 1414 2195 1580 2371 
Q 1747 2547 1907 2723 
Q 2067 2899 2211 3062 
Q 2355 3226 2458 3347 
L 3373 3347 
Q 3053 2989 2697 2605 
Q 2342 2221 1984 1856 
Q 2176 1696 2387 1469 
Q 2598 1242 2796 986 
Q 2995 730 3168 474 
Q 3341 218 3456 0 
L 2560 0 
Q 2445 198 2294 416 
Q 2144 634 1971 838 
Q 1798 1043 1619 1225 
Q 1440 1408 1267 1536 
L 1267 0 
L 493 0 
L 493 4838 
L 1267 4966 
L 1267 2042 
z
" transform="scale(0.015625)"/>
        <path id="Ubuntu-Medium-69" d="M 1274 0 
L 499 0 
L 499 3347 
L 1274 3347 
L 1274 0 
z
M 1357 4326 
Q 1357 4109 1216 3981 
Q 1075 3853 883 3853 
Q 685 3853 544 3981 
Q 403 4109 403 4326 
Q 403 4550 544 4678 
Q 685 4806 883 4806 
Q 1075 4806 1216 4678 
Q 1357 4550 1357 4326 
z
" transform="scale(0.015625)"/>
        <path id="Ubuntu-Medium-6e" d="M 493 3238 
Q 717 3302 1075 3360 
Q 1434 3418 1869 3418 
Q 2278 3418 2553 3306 
Q 2829 3194 2992 2992 
Q 3155 2790 3222 2505 
Q 3290 2221 3290 1882 
L 3290 0 
L 2515 0 
L 2515 1760 
Q 2515 2029 2480 2217 
Q 2445 2406 2365 2524 
Q 2285 2643 2147 2697 
Q 2010 2752 1811 2752 
Q 1664 2752 1504 2733 
Q 1344 2714 1267 2701 
L 1267 0 
L 493 0 
L 493 3238 
z
" transform="scale(0.015625)"/>
        <path id="Ubuntu-Medium-67" d="M 1101 1760 
Q 1101 1267 1315 1040 
Q 1530 813 1869 813 
Q 2054 813 2217 864 
Q 2381 915 2483 986 
L 2483 2720 
Q 2400 2739 2278 2755 
Q 2157 2771 1971 2771 
Q 1549 2771 1325 2492 
Q 1101 2214 1101 1760 
z
M 3258 339 
Q 3258 -461 2851 -832 
Q 2445 -1203 1606 -1203 
Q 1299 -1203 1008 -1152 
Q 717 -1101 480 -1018 
L 621 -358 
Q 819 -442 1072 -493 
Q 1325 -544 1619 -544 
Q 2086 -544 2284 -352 
Q 2483 -160 2483 218 
L 2483 346 
Q 2368 288 2179 230 
Q 1990 173 1747 173 
Q 1427 173 1161 275 
Q 896 378 707 576 
Q 518 774 412 1072 
Q 307 1370 307 1760 
Q 307 2125 419 2432 
Q 531 2739 745 2956 
Q 960 3174 1267 3296 
Q 1574 3418 1965 3418 
Q 2342 3418 2681 3360 
Q 3021 3302 3258 3238 
L 3258 339 
z
" transform="scale(0.015625)"/>
       </defs>
       <use xlink:href="#Ubuntu-Medium-53"/>
       <use xlink:href="#Ubuntu-Medium-74" x="53.999985"/>
       <use xlink:href="#Ubuntu-Medium-61" x="95.799973"/>
       <use xlink:href="#Ubuntu-Medium-63" x="149.199966"/>
       <use xlink:href="#Ubuntu-Medium-6b" x="196.399963"/>
       <use xlink:href="#Ubuntu-Medium-69" x="251.499954"/>
       <use xlink:href="#Ubuntu-Medium-6e" x="279.099945"/>
       <use xlink:href="#Ubuntu-Medium-67" x="337.59993"/>
      </g>
     </g>
    </g>
    <g id="xtick_2">
     <g id="line2d_2">
      <g>
       <use xlink:href="#mfb0a7e0109" x="94.146176" y="178.94375" style="fill: #aaaaaa; stroke: #aaaaaa; stroke-width: 0.75"/>
      </g>
     </g>
     <g id="text_2">
      <!-- Voting -->
      <g style="fill: #4c4c4c" transform="translate(80.170161 198.900469) scale(0.09 -0.09)">
       <defs>
        <path id="Ubuntu-Medium-56" d="M 1798 0 
Q 1318 1037 873 2169 
Q 429 3302 45 4435 
L 934 4435 
Q 1088 3987 1248 3520 
Q 1408 3053 1568 2601 
Q 1728 2150 1888 1728 
Q 2048 1306 2202 954 
Q 2349 1306 2509 1725 
Q 2669 2144 2832 2598 
Q 2995 3053 3155 3520 
Q 3315 3987 3462 4435 
L 4326 4435 
Q 3936 3302 3494 2169 
Q 3053 1037 2573 0 
L 1798 0 
z
" transform="scale(0.015625)"/>
        <path id="Ubuntu-Medium-6f" d="M 3520 1677 
Q 3520 1280 3405 953 
Q 3290 627 3078 396 
Q 2867 166 2569 38 
Q 2272 -90 1914 -90 
Q 1555 -90 1260 38 
Q 966 166 755 396 
Q 544 627 425 953 
Q 307 1280 307 1677 
Q 307 2074 425 2397 
Q 544 2720 758 2950 
Q 973 3181 1267 3305 
Q 1562 3430 1914 3430 
Q 2266 3430 2563 3305 
Q 2861 3181 3072 2950 
Q 3283 2720 3401 2397 
Q 3520 2074 3520 1677 
z
M 2726 1677 
Q 2726 2176 2512 2467 
Q 2298 2758 1914 2758 
Q 1530 2758 1315 2467 
Q 1101 2176 1101 1677 
Q 1101 1171 1315 876 
Q 1530 582 1914 582 
Q 2298 582 2512 876 
Q 2726 1171 2726 1677 
z
" transform="scale(0.015625)"/>
       </defs>
       <use xlink:href="#Ubuntu-Medium-56"/>
       <use xlink:href="#Ubuntu-Medium-6f" x="64.299988"/>
       <use xlink:href="#Ubuntu-Medium-74" x="124.099976"/>
       <use xlink:href="#Ubuntu-Medium-69" x="165.899963"/>
       <use xlink:href="#Ubuntu-Medium-6e" x="193.499954"/>
       <use xlink:href="#Ubuntu-Medium-67" x="251.999939"/>
      </g>
     </g>
    </g>
    <g id="xtick_3">
     <g id="line2d_3">
      <g>
       <use xlink:href="#mfb0a7e0109" x="140.099118" y="178.94375" style="fill: #aaaaaa; stroke: #aaaaaa; stroke-width: 0.75"/>
      </g>
     </g>
     <g id="text_3">
      <!-- SVR -->
      <g style="fill: #4c4c4c" transform="translate(131.715758 198.927188) scale(0.09 -0.09)">
       <defs>
        <path id="Ubuntu-Medium-52" d="M 1754 4480 
Q 2714 4480 3222 4128 
Q 3731 3776 3731 3053 
Q 3731 2150 2842 1830 
Q 2963 1683 3116 1472 
Q 3270 1261 3430 1014 
Q 3590 768 3737 509 
Q 3885 250 4000 0 
L 3098 0 
Q 2976 230 2835 464 
Q 2694 698 2550 918 
Q 2406 1139 2265 1334 
Q 2125 1530 2003 1683 
Q 1914 1677 1850 1677 
Q 1786 1677 1728 1677 
L 1338 1677 
L 1338 0 
L 531 0 
L 531 4371 
Q 826 4435 1158 4457 
Q 1491 4480 1754 4480 
z
M 1811 3782 
Q 1555 3782 1338 3763 
L 1338 2330 
L 1690 2330 
Q 1984 2330 2208 2362 
Q 2432 2394 2582 2477 
Q 2733 2560 2809 2701 
Q 2886 2842 2886 3059 
Q 2886 3264 2809 3405 
Q 2733 3546 2589 3629 
Q 2445 3712 2246 3747 
Q 2048 3782 1811 3782 
z
" transform="scale(0.015625)"/>
       </defs>
       <use xlink:href="#Ubuntu-Medium-53"/>
       <use xlink:href="#Ubuntu-Medium-56" x="53.999985"/>
       <use xlink:href="#Ubuntu-Medium-52" x="122.299973"/>
      </g>
     </g>
    </g>
    <g id="xtick_4">
     <g id="line2d_4">
      <g>
       <use xlink:href="#mfb0a7e0109" x="186.052059" y="178.94375" style="fill: #aaaaaa; stroke: #aaaaaa; stroke-width: 0.75"/>
      </g>
     </g>
     <g id="text_4">
      <!-- LGBoost -->
      <g style="fill: #4c4c4c" transform="translate(168.479559 198.927188) scale(0.09 -0.09)">
       <defs>
        <path id="Ubuntu-Medium-4c" d="M 3334 698 
L 3334 0 
L 531 0 
L 531 4435 
L 1338 4435 
L 1338 698 
L 3334 698 
z
" transform="scale(0.015625)"/>
        <path id="Ubuntu-Medium-47" d="M 2605 3827 
Q 1920 3827 1558 3401 
Q 1197 2976 1197 2221 
Q 1197 1862 1283 1564 
Q 1370 1267 1539 1056 
Q 1709 845 1961 726 
Q 2214 608 2554 608 
Q 2765 608 2918 624 
Q 3072 640 3162 666 
L 3162 2259 
L 3968 2259 
L 3968 128 
Q 3802 64 3405 -13 
Q 3008 -90 2490 -90 
Q 2010 -90 1613 64 
Q 1216 218 937 512 
Q 659 806 505 1235 
Q 352 1664 352 2221 
Q 352 2778 521 3206 
Q 691 3635 985 3932 
Q 1280 4230 1677 4384 
Q 2074 4538 2522 4538 
Q 2829 4538 3069 4496 
Q 3309 4454 3481 4403 
Q 3654 4352 3766 4294 
Q 3878 4237 3923 4211 
L 3680 3552 
Q 3488 3667 3203 3747 
Q 2918 3827 2605 3827 
z
" transform="scale(0.015625)"/>
        <path id="Ubuntu-Medium-42" d="M 1869 -51 
Q 1517 -51 1158 -28 
Q 800 -6 531 64 
L 531 4371 
Q 672 4397 832 4419 
Q 992 4442 1158 4454 
Q 1325 4467 1488 4473 
Q 1651 4480 1798 4480 
Q 2202 4480 2547 4419 
Q 2893 4358 3145 4217 
Q 3398 4077 3539 3846 
Q 3680 3616 3680 3277 
Q 3680 2963 3529 2739 
Q 3379 2515 3110 2381 
Q 3514 2246 3706 1984 
Q 3898 1722 3898 1318 
Q 3898 634 3398 291 
Q 2899 -51 1869 -51 
z
M 1325 1997 
L 1325 646 
Q 1459 634 1612 627 
Q 1766 621 1894 621 
Q 2144 621 2358 653 
Q 2573 685 2729 765 
Q 2886 845 2979 979 
Q 3072 1114 3072 1325 
Q 3072 1702 2797 1849 
Q 2522 1997 2035 1997 
L 1325 1997 
z
M 1325 2630 
L 1894 2630 
Q 2355 2630 2617 2761 
Q 2880 2893 2880 3232 
Q 2880 3552 2608 3686 
Q 2336 3821 1901 3821 
Q 1715 3821 1571 3814 
Q 1427 3808 1325 3795 
L 1325 2630 
z
" transform="scale(0.015625)"/>
        <path id="Ubuntu-Medium-73" d="M 1331 557 
Q 1638 557 1779 630 
Q 1920 704 1920 883 
Q 1920 1050 1769 1158 
Q 1619 1267 1274 1395 
Q 1062 1472 886 1558 
Q 710 1645 582 1760 
Q 454 1875 380 2038 
Q 307 2202 307 2438 
Q 307 2899 646 3164 
Q 986 3430 1568 3430 
Q 1862 3430 2131 3376 
Q 2400 3322 2534 3270 
L 2394 2643 
Q 2266 2701 2067 2749 
Q 1869 2797 1606 2797 
Q 1370 2797 1222 2717 
Q 1075 2637 1075 2470 
Q 1075 2387 1104 2323 
Q 1133 2259 1203 2204 
Q 1274 2150 1389 2096 
Q 1504 2042 1670 1984 
Q 1946 1882 2138 1782 
Q 2330 1683 2454 1558 
Q 2579 1434 2636 1274 
Q 2694 1114 2694 890 
Q 2694 410 2339 163 
Q 1984 -83 1325 -83 
Q 883 -83 614 -9 
Q 346 64 237 109 
L 371 755 
Q 544 685 784 621 
Q 1024 557 1331 557 
z
" transform="scale(0.015625)"/>
       </defs>
       <use xlink:href="#Ubuntu-Medium-4c"/>
       <use xlink:href="#Ubuntu-Medium-47" x="49.399994"/>
       <use xlink:href="#Ubuntu-Medium-42" x="117.699982"/>
       <use xlink:href="#Ubuntu-Medium-6f" x="183.399979"/>
       <use xlink:href="#Ubuntu-Medium-6f" x="243.199966"/>
       <use xlink:href="#Ubuntu-Medium-73" x="302.999954"/>
       <use xlink:href="#Ubuntu-Medium-74" x="348.699951"/>
      </g>
     </g>
    </g>
    <g id="xtick_5">
     <g id="line2d_5">
      <g>
       <use xlink:href="#mfb0a7e0109" x="232.005" y="178.94375" style="fill: #aaaaaa; stroke: #aaaaaa; stroke-width: 0.75"/>
      </g>
     </g>
     <g id="text_5">
      <!-- HGBoost -->
      <g style="fill: #4c4c4c" transform="translate(213.42 198.927188) scale(0.09 -0.09)">
       <defs>
        <path id="Ubuntu-Medium-48" d="M 3264 4435 
L 4070 4435 
L 4070 0 
L 3264 0 
L 3264 1965 
L 1338 1965 
L 1338 0 
L 531 0 
L 531 4435 
L 1338 4435 
L 1338 2662 
L 3264 2662 
L 3264 4435 
z
" transform="scale(0.015625)"/>
       </defs>
       <use xlink:href="#Ubuntu-Medium-48"/>
       <use xlink:href="#Ubuntu-Medium-47" x="71.899994"/>
       <use xlink:href="#Ubuntu-Medium-42" x="140.199982"/>
       <use xlink:href="#Ubuntu-Medium-6f" x="205.899979"/>
       <use xlink:href="#Ubuntu-Medium-6f" x="265.699966"/>
       <use xlink:href="#Ubuntu-Medium-73" x="325.499954"/>
       <use xlink:href="#Ubuntu-Medium-74" x="371.199951"/>
      </g>
     </g>
    </g>
    <g id="xtick_6">
     <g id="line2d_6">
      <g>
       <use xlink:href="#mfb0a7e0109" x="277.957941" y="178.94375" style="fill: #aaaaaa; stroke: #aaaaaa; stroke-width: 0.75"/>
      </g>
     </g>
     <g id="text_6">
      <!-- XGBoost -->
      <g style="fill: #4c4c4c" transform="translate(259.747707 198.927188) scale(0.09 -0.09)">
       <defs>
        <path id="Ubuntu-Medium-58" d="M 3162 0 
Q 2976 378 2694 832 
Q 2413 1286 2106 1709 
Q 1978 1542 1827 1312 
Q 1677 1082 1526 842 
Q 1376 602 1248 378 
Q 1120 154 1043 0 
L 128 0 
Q 416 544 793 1117 
Q 1171 1690 1613 2317 
L 192 4435 
L 1152 4435 
L 2131 2918 
L 3098 4435 
L 4019 4435 
L 2618 2323 
Q 3104 1664 3478 1075 
Q 3853 486 4109 0 
L 3162 0 
z
" transform="scale(0.015625)"/>
       </defs>
       <use xlink:href="#Ubuntu-Medium-58"/>
       <use xlink:href="#Ubuntu-Medium-47" x="63.574997"/>
       <use xlink:href="#Ubuntu-Medium-42" x="131.874985"/>
       <use xlink:href="#Ubuntu-Medium-6f" x="197.574982"/>
       <use xlink:href="#Ubuntu-Medium-6f" x="257.374969"/>
       <use xlink:href="#Ubuntu-Medium-73" x="317.174957"/>
       <use xlink:href="#Ubuntu-Medium-74" x="362.874954"/>
      </g>
     </g>
    </g>
    <g id="xtick_7">
     <g id="line2d_7">
      <g>
       <use xlink:href="#mfb0a7e0109" x="323.910882" y="178.94375" style="fill: #aaaaaa; stroke: #aaaaaa; stroke-width: 0.75"/>
      </g>
     </g>
     <g id="text_7">
      <!-- Bagging -->
      <g style="fill: #4c4c4c" transform="translate(306.766585 198.900469) scale(0.09 -0.09)">
       <use xlink:href="#Ubuntu-Medium-42"/>
       <use xlink:href="#Ubuntu-Medium-61" x="65.699997"/>
       <use xlink:href="#Ubuntu-Medium-67" x="119.099991"/>
       <use xlink:href="#Ubuntu-Medium-67" x="177.699982"/>
       <use xlink:href="#Ubuntu-Medium-69" x="236.299973"/>
       <use xlink:href="#Ubuntu-Medium-6e" x="263.899963"/>
       <use xlink:href="#Ubuntu-Medium-67" x="322.399948"/>
      </g>
     </g>
    </g>
    <g id="xtick_8">
     <g id="line2d_8">
      <g>
       <use xlink:href="#mfb0a7e0109" x="369.863824" y="178.94375" style="fill: #aaaaaa; stroke: #aaaaaa; stroke-width: 0.75"/>
      </g>
     </g>
     <g id="text_8">
      <!-- RF -->
      <g style="fill: #4c4c4c" transform="translate(364.504605 198.927188) scale(0.09 -0.09)">
       <defs>
        <path id="Ubuntu-Medium-46" d="M 531 0 
L 531 4435 
L 3334 4435 
L 3334 3750 
L 1338 3750 
L 1338 2618 
L 3110 2618 
L 3110 1933 
L 1338 1933 
L 1338 0 
L 531 0 
z
" transform="scale(0.015625)"/>
       </defs>
       <use xlink:href="#Ubuntu-Medium-52"/>
       <use xlink:href="#Ubuntu-Medium-46" x="63.999985"/>
      </g>
     </g>
    </g>
    <g id="xtick_9">
     <g id="line2d_9">
      <g>
       <use xlink:href="#mfb0a7e0109" x="415.816765" y="178.94375" style="fill: #aaaaaa; stroke: #aaaaaa; stroke-width: 0.75"/>
      </g>
     </g>
     <g id="text_9">
      <!-- KNN -->
      <g style="fill: #4c4c4c" transform="translate(406.227546 198.927188) scale(0.09 -0.09)">
       <defs>
        <path id="Ubuntu-Medium-4b" d="M 3181 0 
Q 3014 256 2796 537 
Q 2579 819 2339 1081 
Q 2099 1344 1843 1581 
Q 1587 1818 1338 1990 
L 1338 0 
L 531 0 
L 531 4435 
L 1338 4435 
L 1338 2605 
Q 1549 2816 1779 3056 
Q 2010 3296 2237 3542 
Q 2464 3789 2669 4019 
Q 2874 4250 3040 4435 
L 4006 4435 
Q 3795 4192 3558 3929 
Q 3322 3667 3072 3401 
Q 2822 3136 2569 2873 
Q 2317 2611 2074 2374 
Q 2342 2170 2620 1898 
Q 2899 1626 3168 1315 
Q 3437 1005 3683 669 
Q 3930 333 4134 0 
L 3181 0 
z
" transform="scale(0.015625)"/>
        <path id="Ubuntu-Medium-4e" d="M 3520 0 
Q 3302 365 3033 784 
Q 2765 1203 2477 1628 
Q 2189 2054 1891 2454 
Q 1594 2854 1325 3174 
L 1325 0 
L 531 0 
L 531 4435 
L 1190 4435 
Q 1446 4166 1740 3798 
Q 2035 3430 2332 3033 
Q 2630 2637 2908 2237 
Q 3187 1837 3405 1491 
L 3405 4435 
L 4205 4435 
L 4205 0 
L 3520 0 
z
" transform="scale(0.015625)"/>
       </defs>
       <use xlink:href="#Ubuntu-Medium-4b"/>
       <use xlink:href="#Ubuntu-Medium-4e" x="65.099991"/>
       <use xlink:href="#Ubuntu-Medium-4e" x="139.099976"/>
      </g>
     </g>
    </g>
   </g>
   <g id="matplotlib.axis_2">
    <g id="ytick_1">
     <g id="line2d_10">
      <defs>
       <path id="m47a90e81d6" d="M 0 0 
L -3 0 
" style="stroke: #aaaaaa; stroke-width: 0.75"/>
      </defs>
      <g>
       <use xlink:href="#m47a90e81d6" x="31.705" y="163.94375" style="fill: #aaaaaa; stroke: #aaaaaa; stroke-width: 0.75"/>
      </g>
     </g>
     <g id="text_10">
      <!-- 0.09 -->
      <g style="fill: #808080" transform="translate(7.2 167.0475) scale(0.08 -0.08)">
       <defs>
        <path id="Ubuntu-30" d="M 320 2221 
Q 320 3334 713 3936 
Q 1107 4538 1805 4538 
Q 2502 4538 2896 3936 
Q 3290 3334 3290 2221 
Q 3290 1107 2896 505 
Q 2502 -96 1805 -96 
Q 1107 -96 713 505 
Q 320 1107 320 2221 
z
M 2662 2221 
Q 2662 2586 2620 2912 
Q 2579 3238 2480 3481 
Q 2381 3725 2214 3869 
Q 2048 4013 1805 4013 
Q 1562 4013 1395 3869 
Q 1229 3725 1129 3481 
Q 1030 3238 988 2912 
Q 947 2586 947 2221 
Q 947 1856 988 1529 
Q 1030 1203 1129 960 
Q 1229 717 1395 573 
Q 1562 429 1805 429 
Q 2048 429 2214 573 
Q 2381 717 2480 960 
Q 2579 1203 2620 1529 
Q 2662 1856 2662 2221 
z
" transform="scale(0.015625)"/>
        <path id="Ubuntu-2e" d="M 1216 346 
Q 1216 173 1101 45 
Q 986 -83 787 -83 
Q 589 -83 473 45 
Q 358 173 358 346 
Q 358 518 473 646 
Q 589 774 787 774 
Q 986 774 1101 646 
Q 1216 518 1216 346 
z
" transform="scale(0.015625)"/>
        <path id="Ubuntu-39" d="M 3206 2662 
Q 3206 1344 2550 669 
Q 1894 -6 602 -13 
L 582 486 
Q 986 486 1309 563 
Q 1632 640 1875 809 
Q 2118 979 2281 1248 
Q 2445 1517 2522 1907 
Q 2355 1830 2144 1782 
Q 1933 1734 1709 1734 
Q 1331 1734 1068 1846 
Q 806 1958 640 2147 
Q 474 2336 400 2582 
Q 326 2829 326 3098 
Q 326 3334 409 3590 
Q 493 3846 662 4057 
Q 832 4269 1094 4403 
Q 1357 4538 1715 4538 
Q 2080 4538 2358 4410 
Q 2637 4282 2825 4038 
Q 3014 3795 3110 3446 
Q 3206 3098 3206 2662 
z
M 1773 2221 
Q 1997 2221 2195 2262 
Q 2394 2304 2579 2387 
Q 2586 2458 2586 2525 
Q 2586 2592 2586 2662 
Q 2586 2938 2547 3190 
Q 2509 3443 2409 3632 
Q 2310 3821 2144 3933 
Q 1978 4045 1722 4045 
Q 1510 4045 1363 3955 
Q 1216 3866 1120 3728 
Q 1024 3590 982 3427 
Q 941 3264 941 3110 
Q 941 2675 1149 2448 
Q 1357 2221 1773 2221 
z
" transform="scale(0.015625)"/>
       </defs>
       <use xlink:href="#Ubuntu-30"/>
       <use xlink:href="#Ubuntu-2e" x="56.399994"/>
       <use xlink:href="#Ubuntu-30" x="80.999985"/>
       <use xlink:href="#Ubuntu-39" x="137.399979"/>
      </g>
     </g>
    </g>
    <g id="ytick_2">
     <g id="line2d_11">
      <g>
       <use xlink:href="#m47a90e81d6" x="31.705" y="136.22375" style="fill: #aaaaaa; stroke: #aaaaaa; stroke-width: 0.75"/>
      </g>
     </g>
     <g id="text_11">
      <!-- 0.10 -->
      <g style="fill: #808080" transform="translate(7.2 139.3275) scale(0.08 -0.08)">
       <defs>
        <path id="Ubuntu-31" d="M 595 3520 
Q 960 3661 1305 3881 
Q 1651 4102 1939 4435 
L 2362 4435 
L 2362 0 
L 1766 0 
L 1766 3610 
Q 1690 3539 1578 3462 
Q 1466 3386 1334 3315 
Q 1203 3245 1059 3181 
Q 915 3117 781 3072 
L 595 3520 
z
" transform="scale(0.015625)"/>
       </defs>
       <use xlink:href="#Ubuntu-30"/>
       <use xlink:href="#Ubuntu-2e" x="56.399994"/>
       <use xlink:href="#Ubuntu-31" x="80.999985"/>
       <use xlink:href="#Ubuntu-30" x="137.399979"/>
      </g>
     </g>
    </g>
    <g id="ytick_3">
     <g id="line2d_12">
      <g>
       <use xlink:href="#m47a90e81d6" x="31.705" y="108.50375" style="fill: #aaaaaa; stroke: #aaaaaa; stroke-width: 0.75"/>
      </g>
     </g>
     <g id="text_12">
      <!-- 0.11 -->
      <g style="fill: #808080" transform="translate(7.2 111.6075) scale(0.08 -0.08)">
       <use xlink:href="#Ubuntu-30"/>
       <use xlink:href="#Ubuntu-2e" x="56.399994"/>
       <use xlink:href="#Ubuntu-31" x="80.999985"/>
       <use xlink:href="#Ubuntu-31" x="137.399979"/>
      </g>
     </g>
    </g>
    <g id="ytick_4">
     <g id="line2d_13">
      <g>
       <use xlink:href="#m47a90e81d6" x="31.705" y="80.78375" style="fill: #aaaaaa; stroke: #aaaaaa; stroke-width: 0.75"/>
      </g>
     </g>
     <g id="text_13">
      <!-- 0.12 -->
      <g style="fill: #808080" transform="translate(7.2 83.8875) scale(0.08 -0.08)">
       <defs>
        <path id="Ubuntu-32" d="M 2989 3302 
Q 2989 3072 2896 2857 
Q 2803 2643 2649 2435 
Q 2496 2227 2304 2025 
Q 2112 1824 1920 1632 
Q 1811 1523 1667 1376 
Q 1523 1229 1395 1069 
Q 1267 909 1180 761 
Q 1094 614 1094 506 
L 3136 506 
L 3136 0 
L 448 0 
Q 442 38 442 76 
Q 442 115 442 147 
Q 442 448 541 707 
Q 640 966 800 1196 
Q 960 1427 1158 1632 
Q 1357 1837 1549 2029 
Q 1709 2182 1853 2332 
Q 1997 2483 2109 2633 
Q 2221 2784 2288 2944 
Q 2355 3104 2355 3283 
Q 2355 3475 2294 3609 
Q 2234 3744 2131 3833 
Q 2029 3923 1891 3964 
Q 1754 4006 1600 4006 
Q 1414 4006 1260 3955 
Q 1107 3904 985 3837 
Q 864 3770 781 3696 
Q 698 3622 653 3584 
L 358 4006 
Q 416 4070 531 4163 
Q 646 4256 806 4339 
Q 966 4422 1164 4480 
Q 1363 4538 1594 4538 
Q 2291 4538 2640 4214 
Q 2989 3891 2989 3302 
z
" transform="scale(0.015625)"/>
       </defs>
       <use xlink:href="#Ubuntu-30"/>
       <use xlink:href="#Ubuntu-2e" x="56.399994"/>
       <use xlink:href="#Ubuntu-31" x="80.999985"/>
       <use xlink:href="#Ubuntu-32" x="137.399979"/>
      </g>
     </g>
    </g>
    <g id="ytick_5">
     <g id="line2d_14">
      <g>
       <use xlink:href="#m47a90e81d6" x="31.705" y="53.06375" style="fill: #aaaaaa; stroke: #aaaaaa; stroke-width: 0.75"/>
      </g>
     </g>
     <g id="text_14">
      <!-- 0.13 -->
      <g style="fill: #808080" transform="translate(7.2 56.1675) scale(0.08 -0.08)">
       <defs>
        <path id="Ubuntu-33" d="M 1446 435 
Q 2016 435 2262 659 
Q 2509 883 2509 1261 
Q 2509 1504 2406 1670 
Q 2304 1837 2137 1936 
Q 1971 2035 1750 2076 
Q 1530 2118 1299 2118 
L 1146 2118 
L 1146 2605 
L 1357 2605 
Q 1517 2605 1686 2637 
Q 1856 2669 1997 2752 
Q 2138 2835 2227 2979 
Q 2317 3123 2317 3341 
Q 2317 3520 2253 3648 
Q 2189 3776 2083 3859 
Q 1978 3942 1840 3977 
Q 1702 4013 1549 4013 
Q 1242 4013 1027 3923 
Q 813 3834 666 3738 
L 435 4192 
Q 512 4243 630 4304 
Q 749 4365 896 4416 
Q 1043 4467 1212 4502 
Q 1382 4538 1568 4538 
Q 1920 4538 2176 4451 
Q 2432 4365 2598 4208 
Q 2765 4051 2848 3836 
Q 2931 3622 2931 3373 
Q 2931 3027 2732 2780 
Q 2534 2534 2253 2406 
Q 2426 2355 2586 2259 
Q 2746 2163 2864 2016 
Q 2982 1869 3056 1677 
Q 3130 1485 3130 1248 
Q 3130 960 3030 713 
Q 2931 467 2723 288 
Q 2515 109 2201 6 
Q 1888 -96 1459 -96 
Q 1293 -96 1117 -70 
Q 941 -45 787 -6 
Q 634 32 518 70 
Q 403 109 352 134 
L 467 653 
Q 576 602 829 518 
Q 1082 435 1446 435 
z
" transform="scale(0.015625)"/>
       </defs>
       <use xlink:href="#Ubuntu-30"/>
       <use xlink:href="#Ubuntu-2e" x="56.399994"/>
       <use xlink:href="#Ubuntu-31" x="80.999985"/>
       <use xlink:href="#Ubuntu-33" x="137.399979"/>
      </g>
     </g>
    </g>
    <g id="ytick_6">
     <g id="line2d_15">
      <g>
       <use xlink:href="#m47a90e81d6" x="31.705" y="25.34375" style="fill: #aaaaaa; stroke: #aaaaaa; stroke-width: 0.75"/>
      </g>
     </g>
     <g id="text_15">
      <!-- 0.14 -->
      <g style="fill: #808080" transform="translate(7.2 28.4475) scale(0.08 -0.08)">
       <defs>
        <path id="Ubuntu-34" d="M 256 1536 
Q 378 1818 589 2192 
Q 800 2566 1065 2963 
Q 1331 3360 1635 3744 
Q 1939 4128 2246 4435 
L 2816 4435 
L 2816 1619 
L 3341 1619 
L 3341 1133 
L 2816 1133 
L 2816 0 
L 2240 0 
L 2240 1133 
L 256 1133 
L 256 1536 
z
M 2240 3731 
Q 2048 3526 1853 3273 
Q 1658 3021 1472 2745 
Q 1286 2470 1123 2182 
Q 960 1894 832 1619 
L 2240 1619 
L 2240 3731 
z
" transform="scale(0.015625)"/>
       </defs>
       <use xlink:href="#Ubuntu-30"/>
       <use xlink:href="#Ubuntu-2e" x="56.399994"/>
       <use xlink:href="#Ubuntu-31" x="80.999985"/>
       <use xlink:href="#Ubuntu-34" x="137.399979"/>
      </g>
     </g>
    </g>
   </g>
   <g id="LineCollection_1">
    <path d="M 48.193235 141.287268 
L 48.193235 83.022571 
" clip-path="url(#pe3f396c58b)" style="fill: none; stroke: #5d5d5d; stroke-opacity: 0.9; stroke-width: 0.5"/>
    <path d="M 94.146176 139.721013 
L 94.146176 77.918629 
" clip-path="url(#pe3f396c58b)" style="fill: none; stroke: #5d5d5d; stroke-opacity: 0.9; stroke-width: 0.5"/>
    <path d="M 140.099118 129.966779 
L 140.099118 76.584574 
" clip-path="url(#pe3f396c58b)" style="fill: none; stroke: #5d5d5d; stroke-opacity: 0.9; stroke-width: 0.5"/>
    <path d="M 186.052059 131.796403 
L 186.052059 73.232962 
" clip-path="url(#pe3f396c58b)" style="fill: none; stroke: #5d5d5d; stroke-opacity: 0.9; stroke-width: 0.5"/>
    <path d="M 232.005 130.431973 
L 232.005 68.435657 
" clip-path="url(#pe3f396c58b)" style="fill: none; stroke: #5d5d5d; stroke-opacity: 0.9; stroke-width: 0.5"/>
    <path d="M 277.957941 124.469811 
L 277.957941 63.546205 
" clip-path="url(#pe3f396c58b)" style="fill: none; stroke: #5d5d5d; stroke-opacity: 0.9; stroke-width: 0.5"/>
    <path d="M 323.910882 118.83664 
L 323.910882 55.901325 
" clip-path="url(#pe3f396c58b)" style="fill: none; stroke: #5d5d5d; stroke-opacity: 0.9; stroke-width: 0.5"/>
    <path d="M 369.863824 117.521944 
L 369.863824 53.863809 
" clip-path="url(#pe3f396c58b)" style="fill: none; stroke: #5d5d5d; stroke-opacity: 0.9; stroke-width: 0.5"/>
    <path d="M 415.816765 109.964924 
L 415.816765 45.556861 
" clip-path="url(#pe3f396c58b)" style="fill: none; stroke: #5d5d5d; stroke-opacity: 0.9; stroke-width: 0.5"/>
   </g>
   <g id="line2d_16">
    <defs>
     <path id="m3fe73e6c8c" d="M 1.2 0 
L -1.2 -0 
" style="stroke: #5d5d5d; stroke-opacity: 0.9; stroke-width: 0.5"/>
    </defs>
    <g clip-path="url(#pe3f396c58b)">
     <use xlink:href="#m3fe73e6c8c" x="48.193235" y="141.287268" style="fill: #5d5d5d; fill-opacity: 0.9; stroke: #5d5d5d; stroke-opacity: 0.9; stroke-width: 0.5"/>
     <use xlink:href="#m3fe73e6c8c" x="94.146176" y="139.721013" style="fill: #5d5d5d; fill-opacity: 0.9; stroke: #5d5d5d; stroke-opacity: 0.9; stroke-width: 0.5"/>
     <use xlink:href="#m3fe73e6c8c" x="140.099118" y="129.966779" style="fill: #5d5d5d; fill-opacity: 0.9; stroke: #5d5d5d; stroke-opacity: 0.9; stroke-width: 0.5"/>
     <use xlink:href="#m3fe73e6c8c" x="186.052059" y="131.796403" style="fill: #5d5d5d; fill-opacity: 0.9; stroke: #5d5d5d; stroke-opacity: 0.9; stroke-width: 0.5"/>
     <use xlink:href="#m3fe73e6c8c" x="232.005" y="130.431973" style="fill: #5d5d5d; fill-opacity: 0.9; stroke: #5d5d5d; stroke-opacity: 0.9; stroke-width: 0.5"/>
     <use xlink:href="#m3fe73e6c8c" x="277.957941" y="124.469811" style="fill: #5d5d5d; fill-opacity: 0.9; stroke: #5d5d5d; stroke-opacity: 0.9; stroke-width: 0.5"/>
     <use xlink:href="#m3fe73e6c8c" x="323.910882" y="118.83664" style="fill: #5d5d5d; fill-opacity: 0.9; stroke: #5d5d5d; stroke-opacity: 0.9; stroke-width: 0.5"/>
     <use xlink:href="#m3fe73e6c8c" x="369.863824" y="117.521944" style="fill: #5d5d5d; fill-opacity: 0.9; stroke: #5d5d5d; stroke-opacity: 0.9; stroke-width: 0.5"/>
     <use xlink:href="#m3fe73e6c8c" x="415.816765" y="109.964924" style="fill: #5d5d5d; fill-opacity: 0.9; stroke: #5d5d5d; stroke-opacity: 0.9; stroke-width: 0.5"/>
    </g>
   </g>
   <g id="line2d_17">
    <g clip-path="url(#pe3f396c58b)">
     <use xlink:href="#m3fe73e6c8c" x="48.193235" y="83.022571" style="fill: #5d5d5d; fill-opacity: 0.9; stroke: #5d5d5d; stroke-opacity: 0.9; stroke-width: 0.5"/>
     <use xlink:href="#m3fe73e6c8c" x="94.146176" y="77.918629" style="fill: #5d5d5d; fill-opacity: 0.9; stroke: #5d5d5d; stroke-opacity: 0.9; stroke-width: 0.5"/>
     <use xlink:href="#m3fe73e6c8c" x="140.099118" y="76.584574" style="fill: #5d5d5d; fill-opacity: 0.9; stroke: #5d5d5d; stroke-opacity: 0.9; stroke-width: 0.5"/>
     <use xlink:href="#m3fe73e6c8c" x="186.052059" y="73.232962" style="fill: #5d5d5d; fill-opacity: 0.9; stroke: #5d5d5d; stroke-opacity: 0.9; stroke-width: 0.5"/>
     <use xlink:href="#m3fe73e6c8c" x="232.005" y="68.435657" style="fill: #5d5d5d; fill-opacity: 0.9; stroke: #5d5d5d; stroke-opacity: 0.9; stroke-width: 0.5"/>
     <use xlink:href="#m3fe73e6c8c" x="277.957941" y="63.546205" style="fill: #5d5d5d; fill-opacity: 0.9; stroke: #5d5d5d; stroke-opacity: 0.9; stroke-width: 0.5"/>
     <use xlink:href="#m3fe73e6c8c" x="323.910882" y="55.901325" style="fill: #5d5d5d; fill-opacity: 0.9; stroke: #5d5d5d; stroke-opacity: 0.9; stroke-width: 0.5"/>
     <use xlink:href="#m3fe73e6c8c" x="369.863824" y="53.863809" style="fill: #5d5d5d; fill-opacity: 0.9; stroke: #5d5d5d; stroke-opacity: 0.9; stroke-width: 0.5"/>
     <use xlink:href="#m3fe73e6c8c" x="415.816765" y="45.556861" style="fill: #5d5d5d; fill-opacity: 0.9; stroke: #5d5d5d; stroke-opacity: 0.9; stroke-width: 0.5"/>
    </g>
   </g>
   <g id="line2d_18">
    <path d="M 48.193235 112.15492 
L 94.146176 108.819821 
L 140.099118 103.275677 
L 186.052059 102.514683 
L 232.005 99.433815 
L 277.957941 94.008008 
L 323.910882 87.368983 
L 369.863824 85.692877 
L 415.816765 77.760892 
" clip-path="url(#pe3f396c58b)" style="fill: none; stroke-dasharray: 0.5,0.825; stroke-dashoffset: 0; stroke: #5d5d5d; stroke-opacity: 0.5; stroke-width: 0.5"/>
   </g>
   <g id="line2d_19">
    <defs>
     <path id="m06101343a4" d="M 0 1.25 
C 0.331504 1.25 0.649475 1.118292 0.883883 0.883883 
C 1.118292 0.649475 1.25 0.331504 1.25 0 
C 1.25 -0.331504 1.118292 -0.649475 0.883883 -0.883883 
C 0.649475 -1.118292 0.331504 -1.25 0 -1.25 
C -0.331504 -1.25 -0.649475 -1.118292 -0.883883 -0.883883 
C -1.118292 -0.649475 -1.25 -0.331504 -1.25 0 
C -1.25 0.331504 -1.118292 0.649475 -0.883883 0.883883 
C -0.649475 1.118292 -0.331504 1.25 0 1.25 
z
" style="stroke: #5d5d5d; stroke-opacity: 0.9"/>
    </defs>
    <g clip-path="url(#pe3f396c58b)">
     <use xlink:href="#m06101343a4" x="48.193235" y="112.15492" style="fill: #5d5d5d; fill-opacity: 0.9; stroke: #5d5d5d; stroke-opacity: 0.9"/>
     <use xlink:href="#m06101343a4" x="94.146176" y="108.819821" style="fill: #5d5d5d; fill-opacity: 0.9; stroke: #5d5d5d; stroke-opacity: 0.9"/>
     <use xlink:href="#m06101343a4" x="140.099118" y="103.275677" style="fill: #5d5d5d; fill-opacity: 0.9; stroke: #5d5d5d; stroke-opacity: 0.9"/>
     <use xlink:href="#m06101343a4" x="186.052059" y="102.514683" style="fill: #5d5d5d; fill-opacity: 0.9; stroke: #5d5d5d; stroke-opacity: 0.9"/>
     <use xlink:href="#m06101343a4" x="232.005" y="99.433815" style="fill: #5d5d5d; fill-opacity: 0.9; stroke: #5d5d5d; stroke-opacity: 0.9"/>
     <use xlink:href="#m06101343a4" x="277.957941" y="94.008008" style="fill: #5d5d5d; fill-opacity: 0.9; stroke: #5d5d5d; stroke-opacity: 0.9"/>
     <use xlink:href="#m06101343a4" x="323.910882" y="87.368983" style="fill: #5d5d5d; fill-opacity: 0.9; stroke: #5d5d5d; stroke-opacity: 0.9"/>
     <use xlink:href="#m06101343a4" x="369.863824" y="85.692877" style="fill: #5d5d5d; fill-opacity: 0.9; stroke: #5d5d5d; stroke-opacity: 0.9"/>
     <use xlink:href="#m06101343a4" x="415.816765" y="77.760892" style="fill: #5d5d5d; fill-opacity: 0.9; stroke: #5d5d5d; stroke-opacity: 0.9"/>
    </g>
   </g>
   <g id="patch_3">
    <path d="M 31.705 163.94375 
L 31.705 25.34375 
" style="fill: none; stroke: #aaaaaa; stroke-width: 0.75; stroke-linejoin: miter; stroke-linecap: square"/>
   </g>
   <g id="patch_4">
    <path d="M 48.193235 178.94375 
L 415.816765 178.94375 
" style="fill: none; stroke: #aaaaaa; stroke-width: 0.75; stroke-linejoin: miter; stroke-linecap: square"/>
   </g>
   <g id="legend_1">
    <g id="line2d_20">
     <path d="M 43.905 13.86375 
L 47.905 13.86375 
L 51.905 13.86375 
" style="fill: none; stroke: #5d5d5d; stroke-opacity: 0.85; stroke-width: 0.5; stroke-linecap: square"/>
    </g>
    <g id="text_16">
     <!-- Confidence intervals (95%) -->
     <g style="fill: #4b4b4b" transform="translate(58.305 16.66375) scale(0.08 -0.08)">
      <defs>
       <path id="Ubuntu-43" d="M 2458 -96 
Q 1990 -96 1606 57 
Q 1222 211 947 505 
Q 672 800 521 1232 
Q 371 1664 371 2221 
Q 371 2778 540 3210 
Q 710 3642 998 3936 
Q 1286 4230 1670 4384 
Q 2054 4538 2490 4538 
Q 2765 4538 2985 4499 
Q 3206 4461 3369 4409 
Q 3533 4358 3635 4307 
Q 3738 4256 3776 4230 
L 3597 3718 
Q 3539 3757 3430 3801 
Q 3322 3846 3184 3891 
Q 3046 3936 2883 3965 
Q 2720 3994 2554 3994 
Q 2202 3994 1920 3872 
Q 1638 3750 1440 3520 
Q 1242 3290 1136 2960 
Q 1030 2630 1030 2221 
Q 1030 1824 1123 1497 
Q 1216 1171 1401 937 
Q 1587 704 1865 576 
Q 2144 448 2515 448 
Q 2944 448 3225 537 
Q 3507 627 3648 698 
L 3808 186 
Q 3763 154 3648 106 
Q 3533 58 3360 13 
Q 3187 -32 2956 -64 
Q 2726 -96 2458 -96 
z
" transform="scale(0.015625)"/>
       <path id="Ubuntu-6f" d="M 3450 1664 
Q 3450 1267 3334 947 
Q 3219 627 3011 396 
Q 2803 166 2515 41 
Q 2227 -83 1888 -83 
Q 1549 -83 1261 41 
Q 973 166 765 396 
Q 557 627 441 947 
Q 326 1267 326 1664 
Q 326 2054 441 2377 
Q 557 2701 765 2931 
Q 973 3162 1261 3286 
Q 1549 3411 1888 3411 
Q 2227 3411 2515 3286 
Q 2803 3162 3011 2931 
Q 3219 2701 3334 2377 
Q 3450 2054 3450 1664 
z
M 2829 1664 
Q 2829 2227 2576 2556 
Q 2323 2886 1888 2886 
Q 1453 2886 1200 2556 
Q 947 2227 947 1664 
Q 947 1101 1200 771 
Q 1453 442 1888 442 
Q 2323 442 2576 771 
Q 2829 1101 2829 1664 
z
" transform="scale(0.015625)"/>
       <path id="Ubuntu-6e" d="M 512 3232 
Q 717 3283 1056 3340 
Q 1395 3398 1837 3398 
Q 2234 3398 2496 3286 
Q 2758 3174 2915 2972 
Q 3072 2771 3136 2489 
Q 3200 2208 3200 1869 
L 3200 0 
L 2605 0 
L 2605 1741 
Q 2605 2048 2563 2265 
Q 2522 2483 2426 2617 
Q 2330 2752 2170 2813 
Q 2010 2874 1773 2874 
Q 1677 2874 1574 2867 
Q 1472 2861 1379 2851 
Q 1286 2842 1212 2829 
Q 1139 2816 1107 2810 
L 1107 0 
L 512 0 
L 512 3232 
z
" transform="scale(0.015625)"/>
       <path id="Ubuntu-66" d="M 1811 4966 
Q 2074 4966 2262 4928 
Q 2451 4890 2528 4858 
L 2419 4346 
Q 2342 4384 2201 4419 
Q 2061 4454 1856 4454 
Q 1440 4454 1273 4227 
Q 1107 4000 1107 3616 
L 1107 3328 
L 2387 3328 
L 2387 2829 
L 1107 2829 
L 1107 0 
L 512 0 
L 512 3629 
Q 512 4269 825 4617 
Q 1139 4966 1811 4966 
z
" transform="scale(0.015625)"/>
       <path id="Ubuntu-69" d="M 1107 0 
L 512 0 
L 512 3328 
L 1107 3328 
L 1107 0 
z
M 806 3930 
Q 646 3930 534 4035 
Q 422 4141 422 4320 
Q 422 4499 534 4604 
Q 646 4710 806 4710 
Q 966 4710 1078 4604 
Q 1190 4499 1190 4320 
Q 1190 4141 1078 4035 
Q 966 3930 806 3930 
z
" transform="scale(0.015625)"/>
       <path id="Ubuntu-64" d="M 2662 2624 
Q 2554 2714 2349 2797 
Q 2144 2880 1901 2880 
Q 1645 2880 1462 2787 
Q 1280 2694 1165 2531 
Q 1050 2368 998 2144 
Q 947 1920 947 1664 
Q 947 1082 1235 765 
Q 1523 448 2003 448 
Q 2246 448 2409 470 
Q 2573 493 2662 518 
L 2662 2624 
z
M 2662 4864 
L 3258 4966 
L 3258 96 
Q 3053 38 2733 -19 
Q 2413 -77 1997 -77 
Q 1613 -77 1305 44 
Q 998 166 780 390 
Q 563 614 444 937 
Q 326 1261 326 1664 
Q 326 2048 425 2368 
Q 525 2688 717 2918 
Q 909 3149 1187 3277 
Q 1466 3405 1824 3405 
Q 2112 3405 2333 3328 
Q 2554 3251 2662 3181 
L 2662 4864 
z
" transform="scale(0.015625)"/>
       <path id="Ubuntu-65" d="M 326 1658 
Q 326 2099 454 2428 
Q 582 2758 793 2976 
Q 1005 3194 1280 3302 
Q 1555 3411 1843 3411 
Q 2515 3411 2873 2992 
Q 3232 2573 3232 1715 
Q 3232 1677 3232 1616 
Q 3232 1555 3226 1504 
L 947 1504 
Q 986 986 1248 717 
Q 1510 448 2067 448 
Q 2381 448 2595 502 
Q 2810 557 2918 608 
L 3002 109 
Q 2893 51 2621 -13 
Q 2349 -77 2003 -77 
Q 1568 -77 1251 54 
Q 934 186 729 416 
Q 525 646 425 963 
Q 326 1280 326 1658 
z
M 2611 1984 
Q 2618 2387 2410 2646 
Q 2202 2906 1837 2906 
Q 1632 2906 1475 2826 
Q 1318 2746 1209 2618 
Q 1101 2490 1040 2323 
Q 979 2157 960 1984 
L 2611 1984 
z
" transform="scale(0.015625)"/>
       <path id="Ubuntu-63" d="M 1958 -77 
Q 1555 -77 1251 51 
Q 947 179 739 409 
Q 531 640 428 957 
Q 326 1274 326 1658 
Q 326 2042 438 2362 
Q 550 2682 755 2915 
Q 960 3149 1257 3280 
Q 1555 3411 1920 3411 
Q 2144 3411 2368 3372 
Q 2592 3334 2797 3251 
L 2662 2746 
Q 2528 2810 2352 2848 
Q 2176 2886 1978 2886 
Q 1478 2886 1212 2572 
Q 947 2259 947 1658 
Q 947 1389 1008 1165 
Q 1069 941 1200 781 
Q 1331 621 1536 534 
Q 1741 448 2035 448 
Q 2272 448 2464 493 
Q 2656 538 2765 589 
L 2848 90 
Q 2797 58 2701 29 
Q 2605 0 2483 -22 
Q 2362 -45 2224 -61 
Q 2086 -77 1958 -77 
z
" transform="scale(0.015625)"/>
       <path id="Ubuntu-20" transform="scale(0.015625)"/>
       <path id="Ubuntu-74" d="M 1069 3328 
L 2330 3328 
L 2330 2829 
L 1069 2829 
L 1069 1293 
Q 1069 1043 1107 880 
Q 1146 717 1222 624 
Q 1299 531 1414 492 
Q 1530 454 1683 454 
Q 1952 454 2115 515 
Q 2278 576 2342 602 
L 2458 109 
Q 2368 64 2144 -3 
Q 1920 -70 1632 -70 
Q 1293 -70 1072 16 
Q 851 102 716 275 
Q 582 448 528 701 
Q 474 954 474 1286 
L 474 4256 
L 1069 4358 
L 1069 3328 
z
" transform="scale(0.015625)"/>
       <path id="Ubuntu-72" d="M 1741 3398 
Q 1818 3398 1917 3388 
Q 2016 3379 2112 3363 
Q 2208 3347 2288 3331 
Q 2368 3315 2406 3302 
L 2304 2784 
Q 2234 2810 2070 2845 
Q 1907 2880 1651 2880 
Q 1485 2880 1321 2845 
Q 1158 2810 1107 2797 
L 1107 0 
L 512 0 
L 512 3187 
Q 723 3264 1036 3331 
Q 1350 3398 1741 3398 
z
" transform="scale(0.015625)"/>
       <path id="Ubuntu-76" d="M 3110 3328 
Q 2861 2394 2525 1536 
Q 2189 678 1875 0 
L 1338 0 
Q 1024 678 688 1536 
Q 352 2394 102 3328 
L 742 3328 
Q 819 3014 924 2659 
Q 1030 2304 1148 1955 
Q 1267 1606 1388 1280 
Q 1510 954 1619 698 
Q 1728 954 1849 1280 
Q 1971 1606 2089 1955 
Q 2208 2304 2313 2659 
Q 2419 3014 2496 3328 
L 3110 3328 
z
" transform="scale(0.015625)"/>
       <path id="Ubuntu-61" d="M 1638 429 
Q 1850 429 2013 438 
Q 2176 448 2285 474 
L 2285 1466 
Q 2221 1498 2077 1520 
Q 1933 1542 1728 1542 
Q 1594 1542 1443 1523 
Q 1293 1504 1168 1443 
Q 1043 1382 960 1276 
Q 877 1171 877 998 
Q 877 678 1081 553 
Q 1286 429 1638 429 
z
M 1587 3411 
Q 1946 3411 2192 3318 
Q 2438 3226 2588 3056 
Q 2739 2886 2803 2652 
Q 2867 2419 2867 2138 
L 2867 58 
Q 2790 45 2652 22 
Q 2515 0 2342 -19 
Q 2170 -38 1968 -54 
Q 1766 -70 1568 -70 
Q 1286 -70 1049 -12 
Q 813 45 640 169 
Q 467 294 371 499 
Q 275 704 275 992 
Q 275 1267 387 1465 
Q 499 1664 691 1785 
Q 883 1907 1139 1964 
Q 1395 2022 1677 2022 
Q 1766 2022 1862 2012 
Q 1958 2003 2044 1987 
Q 2131 1971 2195 1958 
Q 2259 1946 2285 1939 
L 2285 2106 
Q 2285 2253 2253 2397 
Q 2221 2541 2137 2653 
Q 2054 2765 1910 2832 
Q 1766 2899 1536 2899 
Q 1242 2899 1021 2857 
Q 800 2816 691 2771 
L 621 3264 
Q 736 3315 1005 3363 
Q 1274 3411 1587 3411 
z
" transform="scale(0.015625)"/>
       <path id="Ubuntu-6c" d="M 1510 -64 
Q 960 -51 729 173 
Q 499 397 499 870 
L 499 4864 
L 1094 4966 
L 1094 966 
Q 1094 819 1120 723 
Q 1146 627 1203 569 
Q 1261 512 1357 483 
Q 1453 454 1594 435 
L 1510 -64 
z
" transform="scale(0.015625)"/>
       <path id="Ubuntu-73" d="M 1286 429 
Q 1651 429 1827 525 
Q 2003 621 2003 832 
Q 2003 1050 1830 1178 
Q 1658 1306 1261 1466 
Q 1069 1542 893 1622 
Q 717 1702 589 1811 
Q 461 1920 384 2073 
Q 307 2227 307 2451 
Q 307 2893 633 3152 
Q 960 3411 1523 3411 
Q 1664 3411 1805 3395 
Q 1946 3379 2067 3356 
Q 2189 3334 2281 3308 
Q 2374 3283 2426 3264 
L 2317 2752 
Q 2221 2803 2016 2857 
Q 1811 2912 1523 2912 
Q 1274 2912 1088 2813 
Q 902 2714 902 2502 
Q 902 2394 944 2310 
Q 986 2227 1072 2160 
Q 1158 2093 1286 2035 
Q 1414 1978 1594 1914 
Q 1830 1824 2016 1737 
Q 2202 1651 2333 1536 
Q 2464 1421 2534 1257 
Q 2605 1094 2605 858 
Q 2605 397 2262 160 
Q 1920 -77 1286 -77 
Q 845 -77 595 -3 
Q 346 70 256 109 
L 365 621 
Q 467 582 691 505 
Q 915 429 1286 429 
z
" transform="scale(0.015625)"/>
       <path id="Ubuntu-28" d="M 1094 1914 
Q 1094 1094 1331 396 
Q 1568 -301 2029 -896 
L 1606 -1184 
Q 1107 -576 803 214 
Q 499 1005 499 1914 
Q 499 2822 803 3612 
Q 1107 4403 1606 5011 
L 2029 4723 
Q 1568 4128 1331 3430 
Q 1094 2733 1094 1914 
z
" transform="scale(0.015625)"/>
       <path id="Ubuntu-35" d="M 1274 2726 
Q 2240 2688 2691 2304 
Q 3142 1920 3142 1261 
Q 3142 966 3043 716 
Q 2944 467 2742 288 
Q 2541 109 2233 6 
Q 1926 -96 1504 -96 
Q 1338 -96 1165 -70 
Q 992 -45 845 -6 
Q 698 32 582 70 
Q 467 109 416 134 
L 531 653 
Q 640 602 886 518 
Q 1133 435 1491 435 
Q 1779 435 1974 499 
Q 2170 563 2291 672 
Q 2413 781 2467 925 
Q 2522 1069 2522 1229 
Q 2522 1472 2438 1661 
Q 2355 1850 2144 1978 
Q 1933 2106 1581 2173 
Q 1229 2240 691 2240 
Q 730 2554 752 2829 
Q 774 3104 793 3366 
Q 813 3629 825 3888 
Q 838 4147 851 4435 
L 2989 4435 
L 2989 3930 
L 1370 3930 
Q 1363 3834 1350 3670 
Q 1338 3507 1325 3331 
Q 1312 3155 1299 2988 
Q 1286 2822 1274 2726 
z
" transform="scale(0.015625)"/>
       <path id="Ubuntu-25" d="M 320 3354 
Q 320 3642 397 3859 
Q 474 4077 611 4227 
Q 749 4378 934 4454 
Q 1120 4531 1338 4531 
Q 1555 4531 1740 4454 
Q 1926 4378 2064 4227 
Q 2202 4077 2278 3859 
Q 2355 3642 2355 3354 
Q 2355 3066 2278 2848 
Q 2202 2630 2064 2480 
Q 1926 2330 1740 2253 
Q 1555 2176 1338 2176 
Q 1120 2176 934 2253 
Q 749 2330 611 2480 
Q 474 2630 397 2848 
Q 320 3066 320 3354 
z
M 1856 3354 
Q 1856 3699 1721 3894 
Q 1587 4090 1338 4090 
Q 1088 4090 953 3894 
Q 819 3699 819 3354 
Q 819 3008 953 2813 
Q 1088 2618 1338 2618 
Q 1587 2618 1721 2813 
Q 1856 3008 1856 3354 
z
M 3136 1082 
Q 3136 1370 3213 1587 
Q 3290 1805 3427 1955 
Q 3565 2106 3750 2182 
Q 3936 2259 4154 2259 
Q 4371 2259 4556 2182 
Q 4742 2106 4880 1955 
Q 5018 1805 5094 1587 
Q 5171 1370 5171 1082 
Q 5171 794 5094 576 
Q 5018 358 4880 208 
Q 4742 58 4556 -19 
Q 4371 -96 4154 -96 
Q 3936 -96 3750 -19 
Q 3565 58 3427 208 
Q 3290 358 3213 576 
Q 3136 794 3136 1082 
z
M 4672 1082 
Q 4672 1427 4537 1622 
Q 4403 1818 4154 1818 
Q 3904 1818 3769 1622 
Q 3635 1427 3635 1082 
Q 3635 736 3769 541 
Q 3904 346 4154 346 
Q 4403 346 4537 541 
Q 4672 736 4672 1082 
z
M 4288 4435 
L 1786 0 
L 1203 0 
L 3706 4435 
L 4288 4435 
z
" transform="scale(0.015625)"/>
       <path id="Ubuntu-29" d="M 979 1914 
Q 979 2733 742 3430 
Q 506 4128 45 4723 
L 467 5011 
Q 966 4403 1270 3612 
Q 1574 2822 1574 1914 
Q 1574 1005 1270 214 
Q 966 -576 467 -1184 
L 45 -896 
Q 506 -301 742 396 
Q 979 1094 979 1914 
z
" transform="scale(0.015625)"/>
      </defs>
      <use xlink:href="#Ubuntu-43"/>
      <use xlink:href="#Ubuntu-6f" x="60.499985"/>
      <use xlink:href="#Ubuntu-6e" x="119.499969"/>
      <use xlink:href="#Ubuntu-66" x="176.899963"/>
      <use xlink:href="#Ubuntu-69" x="215.499954"/>
      <use xlink:href="#Ubuntu-64" x="240.799942"/>
      <use xlink:href="#Ubuntu-65" x="299.699936"/>
      <use xlink:href="#Ubuntu-6e" x="355.59993"/>
      <use xlink:href="#Ubuntu-63" x="412.999924"/>
      <use xlink:href="#Ubuntu-65" x="459.499908"/>
      <use xlink:href="#Ubuntu-20" x="515.399902"/>
      <use xlink:href="#Ubuntu-69" x="538.499893"/>
      <use xlink:href="#Ubuntu-6e" x="563.799881"/>
      <use xlink:href="#Ubuntu-74" x="621.199875"/>
      <use xlink:href="#Ubuntu-65" x="660.399872"/>
      <use xlink:href="#Ubuntu-72" x="716.299866"/>
      <use xlink:href="#Ubuntu-76" x="757.024857"/>
      <use xlink:href="#Ubuntu-61" x="807.224854"/>
      <use xlink:href="#Ubuntu-6c" x="859.42485"/>
      <use xlink:href="#Ubuntu-73" x="886.724838"/>
      <use xlink:href="#Ubuntu-20" x="931.324829"/>
      <use xlink:href="#Ubuntu-28" x="954.42482"/>
      <use xlink:href="#Ubuntu-39" x="986.824814"/>
      <use xlink:href="#Ubuntu-35" x="1043.224808"/>
      <use xlink:href="#Ubuntu-25" x="1099.624802"/>
      <use xlink:href="#Ubuntu-29" x="1185.424789"/>
     </g>
    </g>
   </g>
  </g>
 </g>
 <defs>
  <clipPath id="pe3f396c58b">
   <rect x="36.705" y="25.34375" width="390.6" height="138.6"/>
  </clipPath>
 </defs>
</svg>
