<?xml version="1.0" encoding="utf-8" standalone="no"?>
<!DOCTYPE svg PUBLIC "-//W3C//DTD SVG 1.1//EN"
  "http://www.w3.org/Graphics/SVG/1.1/DTD/svg11.dtd">
<svg xmlns:xlink="http://www.w3.org/1999/xlink" width="337.053437pt" height="188.835938pt" viewBox="0 0 337.053437 188.835938" xmlns="http://www.w3.org/2000/svg" version="1.1">
 <metadata>
  <rdf:RDF xmlns:dc="http://purl.org/dc/elements/1.1/" xmlns:cc="http://creativecommons.org/ns#" xmlns:rdf="http://www.w3.org/1999/02/22-rdf-syntax-ns#">
   <cc:Work>
    <dc:type rdf:resource="http://purl.org/dc/dcmitype/StillImage"/>
    <dc:date>2024-02-21T18:35:54.169694</dc:date>
    <dc:format>image/svg+xml</dc:format>
    <dc:creator>
     <cc:Agent>
      <dc:title>Matplotlib v3.8.0, https://matplotlib.org/</dc:title>
     </cc:Agent>
    </dc:creator>
   </cc:Work>
  </rdf:RDF>
 </metadata>
 <defs>
  <style type="text/css">*{stroke-linejoin: round; stroke-linecap: butt}</style>
 </defs>
 <g id="figure_1">
  <g id="patch_1">
   <path d="M 0 188.835938 
L 337.053437 188.835938 
L 337.053437 0 
L 0 0 
L 0 188.835938 
z
" style="fill: none"/>
  </g>
  <g id="axes_1">
   <g id="patch_2">
    <path d="M 50.853438 145.8 
L 329.853437 145.8 
L 329.853437 7.2 
L 50.853438 7.2 
L 50.853438 145.8 
z
" style="fill: none"/>
   </g>
   <g id="matplotlib.axis_1">
    <g id="xtick_1">
     <g id="line2d_1">
      <defs>
       <path id="m8417324d5b" d="M 0 0 
L 0 3 
" style="stroke: #bbbbbb; stroke-width: 0.75"/>
      </defs>
      <g>
       <use xlink:href="#m8417324d5b" x="67.265202" y="150.8" style="fill: #bbbbbb; stroke: #bbbbbb; stroke-width: 0.75"/>
      </g>
     </g>
     <g id="text_1">
      <!-- NA -->
      <g style="fill: #5d5d5d" transform="translate(61.568952 163.5075) scale(0.08 -0.08)">
       <defs>
        <path id="Ubuntu-Medium-4e" d="M 3520 0 
Q 3302 365 3033 784 
Q 2765 1203 2477 1628 
Q 2189 2054 1891 2454 
Q 1594 2854 1325 3174 
L 1325 0 
L 531 0 
L 531 4435 
L 1190 4435 
Q 1446 4166 1740 3798 
Q 2035 3430 2332 3033 
Q 2630 2637 2908 2237 
Q 3187 1837 3405 1491 
L 3405 4435 
L 4205 4435 
L 4205 0 
L 3520 0 
z
" transform="scale(0.015625)"/>
        <path id="Ubuntu-Medium-41" d="M 3475 0 
Q 3386 262 3290 518 
Q 3194 774 3104 1043 
L 1235 1043 
Q 1146 774 1053 515 
Q 960 256 870 0 
L 32 0 
Q 282 710 506 1312 
Q 730 1914 944 2451 
Q 1158 2989 1369 3475 
Q 1581 3962 1805 4435 
L 2566 4435 
Q 2790 3962 3001 3475 
Q 3213 2989 3427 2451 
Q 3642 1914 3869 1312 
Q 4096 710 4346 0 
L 3475 0 
z
M 2170 3578 
Q 2022 3238 1833 2752 
Q 1645 2266 1440 1696 
L 2899 1696 
Q 2694 2266 2502 2758 
Q 2310 3251 2170 3578 
z
" transform="scale(0.015625)"/>
       </defs>
       <use xlink:href="#Ubuntu-Medium-4e"/>
       <use xlink:href="#Ubuntu-Medium-41" x="73.999985"/>
      </g>
     </g>
    </g>
    <g id="xtick_2">
     <g id="line2d_2">
      <g>
       <use xlink:href="#m8417324d5b" x="149.324026" y="150.8" style="fill: #bbbbbb; stroke: #bbbbbb; stroke-width: 0.75"/>
      </g>
     </g>
     <g id="text_2">
      <!-- BrkFace -->
      <g style="fill: #5d5d5d" transform="translate(134.548401 163.5075) scale(0.08 -0.08)">
       <defs>
        <path id="Ubuntu-Medium-42" d="M 1869 -51 
Q 1517 -51 1158 -28 
Q 800 -6 531 64 
L 531 4371 
Q 672 4397 832 4419 
Q 992 4442 1158 4454 
Q 1325 4467 1488 4473 
Q 1651 4480 1798 4480 
Q 2202 4480 2547 4419 
Q 2893 4358 3145 4217 
Q 3398 4077 3539 3846 
Q 3680 3616 3680 3277 
Q 3680 2963 3529 2739 
Q 3379 2515 3110 2381 
Q 3514 2246 3706 1984 
Q 3898 1722 3898 1318 
Q 3898 634 3398 291 
Q 2899 -51 1869 -51 
z
M 1325 1997 
L 1325 646 
Q 1459 634 1612 627 
Q 1766 621 1894 621 
Q 2144 621 2358 653 
Q 2573 685 2729 765 
Q 2886 845 2979 979 
Q 3072 1114 3072 1325 
Q 3072 1702 2797 1849 
Q 2522 1997 2035 1997 
L 1325 1997 
z
M 1325 2630 
L 1894 2630 
Q 2355 2630 2617 2761 
Q 2880 2893 2880 3232 
Q 2880 3552 2608 3686 
Q 2336 3821 1901 3821 
Q 1715 3821 1571 3814 
Q 1427 3808 1325 3795 
L 1325 2630 
z
" transform="scale(0.015625)"/>
        <path id="Ubuntu-Medium-72" d="M 2400 2650 
Q 2304 2682 2134 2717 
Q 1965 2752 1741 2752 
Q 1613 2752 1469 2726 
Q 1325 2701 1267 2682 
L 1267 0 
L 493 0 
L 493 3187 
Q 717 3270 1053 3344 
Q 1389 3418 1798 3418 
Q 1875 3418 1977 3408 
Q 2080 3398 2182 3382 
Q 2285 3366 2381 3344 
Q 2477 3322 2534 3302 
L 2400 2650 
z
" transform="scale(0.015625)"/>
        <path id="Ubuntu-Medium-6b" d="M 1267 2042 
Q 1414 2195 1580 2371 
Q 1747 2547 1907 2723 
Q 2067 2899 2211 3062 
Q 2355 3226 2458 3347 
L 3373 3347 
Q 3053 2989 2697 2605 
Q 2342 2221 1984 1856 
Q 2176 1696 2387 1469 
Q 2598 1242 2796 986 
Q 2995 730 3168 474 
Q 3341 218 3456 0 
L 2560 0 
Q 2445 198 2294 416 
Q 2144 634 1971 838 
Q 1798 1043 1619 1225 
Q 1440 1408 1267 1536 
L 1267 0 
L 493 0 
L 493 4838 
L 1267 4966 
L 1267 2042 
z
" transform="scale(0.015625)"/>
        <path id="Ubuntu-Medium-46" d="M 531 0 
L 531 4435 
L 3334 4435 
L 3334 3750 
L 1338 3750 
L 1338 2618 
L 3110 2618 
L 3110 1933 
L 1338 1933 
L 1338 0 
L 531 0 
z
" transform="scale(0.015625)"/>
        <path id="Ubuntu-Medium-61" d="M 1670 544 
Q 2029 544 2214 582 
L 2214 1440 
Q 2150 1459 2028 1478 
Q 1907 1498 1760 1498 
Q 1632 1498 1501 1478 
Q 1370 1459 1264 1408 
Q 1158 1357 1094 1264 
Q 1030 1171 1030 1030 
Q 1030 755 1203 649 
Q 1376 544 1670 544 
z
M 1606 3430 
Q 1990 3430 2252 3334 
Q 2515 3238 2672 3065 
Q 2829 2893 2896 2646 
Q 2963 2400 2963 2106 
L 2963 77 
Q 2784 38 2422 -16 
Q 2061 -70 1606 -70 
Q 1306 -70 1056 -12 
Q 806 45 630 173 
Q 454 301 355 505 
Q 256 710 256 1011 
Q 256 1299 368 1497 
Q 480 1696 672 1821 
Q 864 1946 1117 2000 
Q 1370 2054 1645 2054 
Q 1773 2054 1913 2038 
Q 2054 2022 2214 1984 
L 2214 2112 
Q 2214 2246 2182 2368 
Q 2150 2490 2070 2582 
Q 1990 2675 1859 2726 
Q 1728 2778 1530 2778 
Q 1261 2778 1037 2739 
Q 813 2701 672 2650 
L 576 3277 
Q 723 3328 1004 3379 
Q 1286 3430 1606 3430 
z
" transform="scale(0.015625)"/>
        <path id="Ubuntu-Medium-63" d="M 307 1670 
Q 307 2042 422 2365 
Q 538 2688 752 2925 
Q 966 3162 1273 3296 
Q 1581 3430 1965 3430 
Q 2438 3430 2861 3258 
L 2694 2624 
Q 2560 2682 2390 2720 
Q 2221 2758 2029 2758 
Q 1574 2758 1337 2473 
Q 1101 2189 1101 1670 
Q 1101 1171 1325 880 
Q 1549 589 2080 589 
Q 2278 589 2470 627 
Q 2662 666 2803 723 
L 2912 83 
Q 2784 19 2525 -32 
Q 2266 -83 1990 -83 
Q 1562 -83 1245 48 
Q 928 179 720 412 
Q 512 646 409 969 
Q 307 1293 307 1670 
z
" transform="scale(0.015625)"/>
        <path id="Ubuntu-Medium-65" d="M 307 1658 
Q 307 2099 438 2432 
Q 570 2765 787 2985 
Q 1005 3206 1286 3318 
Q 1568 3430 1862 3430 
Q 2554 3430 2941 3001 
Q 3328 2573 3328 1722 
Q 3328 1658 3325 1578 
Q 3322 1498 3315 1434 
L 1107 1434 
Q 1139 1030 1392 809 
Q 1645 589 2125 589 
Q 2406 589 2640 640 
Q 2874 691 3008 749 
L 3110 115 
Q 3046 83 2934 48 
Q 2822 13 2678 -16 
Q 2534 -45 2368 -64 
Q 2202 -83 2029 -83 
Q 1587 -83 1260 48 
Q 934 179 723 412 
Q 512 646 409 963 
Q 307 1280 307 1658 
z
M 2554 2003 
Q 2554 2163 2509 2307 
Q 2464 2451 2377 2556 
Q 2291 2662 2166 2723 
Q 2042 2784 1869 2784 
Q 1690 2784 1555 2717 
Q 1421 2650 1328 2541 
Q 1235 2432 1184 2291 
Q 1133 2150 1114 2003 
L 2554 2003 
z
" transform="scale(0.015625)"/>
       </defs>
       <use xlink:href="#Ubuntu-Medium-42"/>
       <use xlink:href="#Ubuntu-Medium-72" x="65.699997"/>
       <use xlink:href="#Ubuntu-Medium-6b" x="105.999985"/>
       <use xlink:href="#Ubuntu-Medium-46" x="161.099976"/>
       <use xlink:href="#Ubuntu-Medium-61" x="211.699966"/>
       <use xlink:href="#Ubuntu-Medium-63" x="265.09996"/>
       <use xlink:href="#Ubuntu-Medium-65" x="312.299957"/>
      </g>
     </g>
    </g>
    <g id="xtick_3">
     <g id="line2d_3">
      <g>
       <use xlink:href="#m8417324d5b" x="231.382849" y="150.8" style="fill: #bbbbbb; stroke: #bbbbbb; stroke-width: 0.75"/>
      </g>
     </g>
     <g id="text_3">
      <!-- Stone -->
      <g style="fill: #5d5d5d" transform="translate(220.585349 163.5075) scale(0.08 -0.08)">
       <defs>
        <path id="Ubuntu-Medium-53" d="M 1606 602 
Q 2042 602 2240 749 
Q 2438 896 2438 1165 
Q 2438 1325 2371 1440 
Q 2304 1555 2179 1648 
Q 2054 1741 1875 1821 
Q 1696 1901 1466 1978 
Q 1235 2061 1020 2160 
Q 806 2259 643 2406 
Q 480 2554 381 2758 
Q 282 2963 282 3251 
Q 282 3853 698 4195 
Q 1114 4538 1830 4538 
Q 2246 4538 2569 4445 
Q 2893 4352 3078 4243 
L 2829 3590 
Q 2611 3712 2352 3776 
Q 2093 3840 1818 3840 
Q 1491 3840 1308 3705 
Q 1126 3571 1126 3328 
Q 1126 3181 1187 3075 
Q 1248 2970 1360 2886 
Q 1472 2803 1622 2732 
Q 1773 2662 1952 2598 
Q 2266 2483 2512 2364 
Q 2758 2246 2928 2083 
Q 3098 1920 3187 1699 
Q 3277 1478 3277 1165 
Q 3277 563 2851 233 
Q 2426 -96 1606 -96 
Q 1331 -96 1104 -61 
Q 877 -26 701 25 
Q 525 77 397 131 
Q 269 186 192 230 
L 429 890 
Q 602 794 896 698 
Q 1190 602 1606 602 
z
" transform="scale(0.015625)"/>
        <path id="Ubuntu-Medium-74" d="M 454 4230 
L 1229 4358 
L 1229 3347 
L 2419 3347 
L 2419 2701 
L 1229 2701 
L 1229 1338 
Q 1229 934 1357 761 
Q 1485 589 1792 589 
Q 2003 589 2166 633 
Q 2330 678 2426 717 
L 2554 102 
Q 2419 45 2201 -16 
Q 1984 -77 1690 -77 
Q 1331 -77 1091 19 
Q 851 115 710 297 
Q 570 480 512 739 
Q 454 998 454 1331 
L 454 4230 
z
" transform="scale(0.015625)"/>
        <path id="Ubuntu-Medium-6f" d="M 3520 1677 
Q 3520 1280 3405 953 
Q 3290 627 3078 396 
Q 2867 166 2569 38 
Q 2272 -90 1914 -90 
Q 1555 -90 1260 38 
Q 966 166 755 396 
Q 544 627 425 953 
Q 307 1280 307 1677 
Q 307 2074 425 2397 
Q 544 2720 758 2950 
Q 973 3181 1267 3305 
Q 1562 3430 1914 3430 
Q 2266 3430 2563 3305 
Q 2861 3181 3072 2950 
Q 3283 2720 3401 2397 
Q 3520 2074 3520 1677 
z
M 2726 1677 
Q 2726 2176 2512 2467 
Q 2298 2758 1914 2758 
Q 1530 2758 1315 2467 
Q 1101 2176 1101 1677 
Q 1101 1171 1315 876 
Q 1530 582 1914 582 
Q 2298 582 2512 876 
Q 2726 1171 2726 1677 
z
" transform="scale(0.015625)"/>
        <path id="Ubuntu-Medium-6e" d="M 493 3238 
Q 717 3302 1075 3360 
Q 1434 3418 1869 3418 
Q 2278 3418 2553 3306 
Q 2829 3194 2992 2992 
Q 3155 2790 3222 2505 
Q 3290 2221 3290 1882 
L 3290 0 
L 2515 0 
L 2515 1760 
Q 2515 2029 2480 2217 
Q 2445 2406 2365 2524 
Q 2285 2643 2147 2697 
Q 2010 2752 1811 2752 
Q 1664 2752 1504 2733 
Q 1344 2714 1267 2701 
L 1267 0 
L 493 0 
L 493 3238 
z
" transform="scale(0.015625)"/>
       </defs>
       <use xlink:href="#Ubuntu-Medium-53"/>
       <use xlink:href="#Ubuntu-Medium-74" x="53.999985"/>
       <use xlink:href="#Ubuntu-Medium-6f" x="94.549973"/>
       <use xlink:href="#Ubuntu-Medium-6e" x="154.34996"/>
       <use xlink:href="#Ubuntu-Medium-65" x="212.849945"/>
      </g>
     </g>
    </g>
    <g id="xtick_4">
     <g id="line2d_4">
      <g>
       <use xlink:href="#m8417324d5b" x="313.441673" y="150.8" style="fill: #bbbbbb; stroke: #bbbbbb; stroke-width: 0.75"/>
      </g>
     </g>
     <g id="text_4">
      <!-- BrkCmn -->
      <g style="fill: #5d5d5d" transform="translate(298.646048 163.5075) scale(0.08 -0.08)">
       <defs>
        <path id="Ubuntu-Medium-43" d="M 2502 -96 
Q 2003 -96 1606 57 
Q 1210 211 934 508 
Q 659 806 512 1235 
Q 365 1664 365 2221 
Q 365 2778 534 3206 
Q 704 3635 998 3932 
Q 1293 4230 1689 4384 
Q 2086 4538 2541 4538 
Q 2816 4538 3040 4496 
Q 3264 4454 3430 4403 
Q 3597 4352 3705 4294 
Q 3814 4237 3859 4211 
L 3622 3552 
Q 3469 3648 3184 3734 
Q 2899 3821 2566 3821 
Q 2278 3821 2028 3721 
Q 1779 3622 1596 3424 
Q 1414 3226 1312 2925 
Q 1210 2624 1210 2227 
Q 1210 1875 1290 1580 
Q 1370 1286 1536 1072 
Q 1702 858 1958 739 
Q 2214 621 2573 621 
Q 3002 621 3270 707 
Q 3539 794 3686 870 
L 3904 211 
Q 3827 160 3696 109 
Q 3565 58 3385 10 
Q 3206 -38 2982 -67 
Q 2758 -96 2502 -96 
z
" transform="scale(0.015625)"/>
        <path id="Ubuntu-Medium-6d" d="M 2400 1760 
Q 2400 2285 2269 2518 
Q 2138 2752 1779 2752 
Q 1651 2752 1497 2733 
Q 1344 2714 1267 2701 
L 1267 0 
L 493 0 
L 493 3238 
Q 717 3302 1078 3360 
Q 1440 3418 1843 3418 
Q 2189 3418 2409 3328 
Q 2630 3238 2778 3091 
Q 2848 3142 2957 3200 
Q 3066 3258 3200 3306 
Q 3334 3354 3484 3386 
Q 3635 3418 3789 3418 
Q 4179 3418 4432 3306 
Q 4685 3194 4829 2992 
Q 4973 2790 5027 2505 
Q 5082 2221 5082 1882 
L 5082 0 
L 4307 0 
L 4307 1760 
Q 4307 2285 4179 2518 
Q 4051 2752 3686 2752 
Q 3501 2752 3334 2691 
Q 3168 2630 3085 2573 
Q 3136 2413 3155 2233 
Q 3174 2054 3174 1850 
L 3174 0 
L 2400 0 
L 2400 1760 
z
" transform="scale(0.015625)"/>
       </defs>
       <use xlink:href="#Ubuntu-Medium-42"/>
       <use xlink:href="#Ubuntu-Medium-72" x="65.699997"/>
       <use xlink:href="#Ubuntu-Medium-6b" x="105.999985"/>
       <use xlink:href="#Ubuntu-Medium-43" x="161.099976"/>
       <use xlink:href="#Ubuntu-Medium-6d" x="224.899963"/>
       <use xlink:href="#Ubuntu-Medium-6e" x="311.399948"/>
      </g>
     </g>
    </g>
    <g id="text_5">
     <!-- Masvnrtype -->
     <g style="fill: #505050" transform="translate(50.853438 179.970938) scale(0.09 -0.09)">
      <defs>
       <path id="Ubuntu-Bold-4d" d="M 1690 4435 
Q 1805 4224 1955 3913 
Q 2106 3603 2269 3241 
Q 2432 2880 2592 2502 
Q 2752 2125 2893 1792 
Q 3034 2125 3194 2502 
Q 3354 2880 3517 3241 
Q 3680 3603 3830 3913 
Q 3981 4224 4096 4435 
L 5005 4435 
Q 5069 3994 5123 3446 
Q 5178 2899 5219 2307 
Q 5261 1715 5296 1120 
Q 5331 525 5357 0 
L 4384 0 
Q 4365 646 4333 1408 
Q 4301 2170 4237 2944 
Q 4122 2675 3981 2348 
Q 3840 2022 3702 1696 
Q 3565 1370 3437 1072 
Q 3309 774 3219 563 
L 2522 563 
Q 2432 774 2304 1072 
Q 2176 1370 2038 1696 
Q 1901 2022 1760 2348 
Q 1619 2675 1504 2944 
Q 1440 2170 1408 1408 
Q 1376 646 1357 0 
L 384 0 
Q 410 525 445 1120 
Q 480 1715 521 2307 
Q 563 2899 617 3446 
Q 672 3994 736 4435 
L 1690 4435 
z
" transform="scale(0.015625)"/>
       <path id="Ubuntu-Bold-61" d="M 1734 666 
Q 1875 666 2003 672 
Q 2131 678 2208 691 
L 2208 1414 
Q 2150 1427 2035 1440 
Q 1920 1453 1824 1453 
Q 1690 1453 1571 1437 
Q 1453 1421 1363 1376 
Q 1274 1331 1222 1254 
Q 1171 1178 1171 1062 
Q 1171 838 1321 752 
Q 1472 666 1734 666 
z
M 1658 3456 
Q 2080 3456 2361 3360 
Q 2643 3264 2812 3085 
Q 2982 2906 3052 2650 
Q 3123 2394 3123 2080 
L 3123 96 
Q 2918 51 2553 -9 
Q 2189 -70 1670 -70 
Q 1344 -70 1078 -12 
Q 813 45 621 176 
Q 429 307 326 518 
Q 224 730 224 1037 
Q 224 1331 342 1536 
Q 461 1741 659 1862 
Q 858 1984 1114 2038 
Q 1370 2093 1645 2093 
Q 1830 2093 1974 2077 
Q 2118 2061 2208 2035 
L 2208 2125 
Q 2208 2368 2061 2515 
Q 1914 2662 1549 2662 
Q 1306 2662 1069 2627 
Q 832 2592 659 2528 
L 538 3296 
Q 621 3322 745 3350 
Q 870 3379 1017 3401 
Q 1165 3424 1328 3440 
Q 1491 3456 1658 3456 
z
" transform="scale(0.015625)"/>
       <path id="Ubuntu-Bold-73" d="M 1414 685 
Q 1677 685 1785 736 
Q 1894 787 1894 934 
Q 1894 1050 1753 1136 
Q 1613 1222 1325 1331 
Q 1101 1414 918 1504 
Q 736 1594 608 1718 
Q 480 1843 409 2016 
Q 339 2189 339 2432 
Q 339 2906 691 3181 
Q 1043 3456 1658 3456 
Q 1965 3456 2246 3401 
Q 2528 3347 2694 3283 
L 2528 2541 
Q 2362 2598 2166 2643 
Q 1971 2688 1728 2688 
Q 1280 2688 1280 2438 
Q 1280 2381 1299 2336 
Q 1318 2291 1376 2249 
Q 1434 2208 1533 2160 
Q 1632 2112 1786 2054 
Q 2099 1939 2304 1827 
Q 2509 1715 2627 1584 
Q 2746 1453 2794 1293 
Q 2842 1133 2842 922 
Q 2842 422 2467 166 
Q 2093 -90 1408 -90 
Q 960 -90 662 -13 
Q 365 64 250 115 
L 410 890 
Q 653 794 909 739 
Q 1165 685 1414 685 
z
" transform="scale(0.015625)"/>
       <path id="Ubuntu-Bold-76" d="M 1363 0 
Q 1037 640 701 1497 
Q 365 2355 64 3366 
L 1075 3366 
Q 1139 3117 1225 2825 
Q 1312 2534 1405 2236 
Q 1498 1939 1590 1657 
Q 1683 1376 1773 1146 
Q 1856 1376 1952 1657 
Q 2048 1939 2141 2236 
Q 2234 2534 2320 2825 
Q 2406 3117 2470 3366 
L 3456 3366 
Q 3155 2355 2819 1497 
Q 2483 640 2157 0 
L 1363 0 
z
" transform="scale(0.015625)"/>
       <path id="Ubuntu-Bold-6e" d="M 448 3251 
Q 691 3322 1075 3382 
Q 1459 3443 1882 3443 
Q 2310 3443 2595 3331 
Q 2880 3219 3046 3014 
Q 3213 2810 3283 2528 
Q 3354 2246 3354 1901 
L 3354 0 
L 2400 0 
L 2400 1786 
Q 2400 2246 2278 2438 
Q 2157 2630 1824 2630 
Q 1722 2630 1606 2620 
Q 1491 2611 1402 2598 
L 1402 0 
L 448 0 
L 448 3251 
z
" transform="scale(0.015625)"/>
       <path id="Ubuntu-Bold-72" d="M 2477 2522 
Q 2349 2554 2176 2589 
Q 2003 2624 1805 2624 
Q 1715 2624 1590 2608 
Q 1466 2592 1402 2573 
L 1402 0 
L 448 0 
L 448 3187 
Q 704 3277 1053 3357 
Q 1402 3437 1830 3437 
Q 1907 3437 2016 3427 
Q 2125 3418 2233 3402 
Q 2342 3386 2451 3363 
Q 2560 3341 2637 3309 
L 2477 2522 
z
" transform="scale(0.015625)"/>
       <path id="Ubuntu-Bold-74" d="M 416 4205 
L 1370 4358 
L 1370 3366 
L 2515 3366 
L 2515 2573 
L 1370 2573 
L 1370 1389 
Q 1370 1088 1475 909 
Q 1581 730 1901 730 
Q 2054 730 2217 758 
Q 2381 787 2515 838 
L 2650 96 
Q 2477 26 2265 -25 
Q 2054 -77 1747 -77 
Q 1357 -77 1101 28 
Q 845 134 691 323 
Q 538 512 477 781 
Q 416 1050 416 1376 
L 416 4205 
z
" transform="scale(0.015625)"/>
       <path id="Ubuntu-Bold-79" d="M 3437 3366 
Q 3149 2394 2835 1542 
Q 2522 691 2150 -109 
Q 2016 -397 1881 -598 
Q 1747 -800 1587 -931 
Q 1427 -1062 1225 -1123 
Q 1024 -1184 755 -1184 
Q 531 -1184 342 -1142 
Q 154 -1101 32 -1050 
L 198 -288 
Q 346 -339 461 -358 
Q 576 -378 704 -378 
Q 960 -378 1097 -240 
Q 1235 -102 1331 141 
Q 1005 781 678 1577 
Q 352 2374 64 3366 
L 1075 3366 
Q 1139 3117 1225 2825 
Q 1312 2534 1408 2236 
Q 1504 1939 1603 1657 
Q 1702 1376 1792 1146 
Q 1875 1376 1964 1657 
Q 2054 1939 2140 2236 
Q 2227 2534 2307 2825 
Q 2387 3117 2451 3366 
L 3437 3366 
z
" transform="scale(0.015625)"/>
       <path id="Ubuntu-Bold-70" d="M 2605 1658 
Q 2605 2099 2406 2364 
Q 2208 2630 1818 2630 
Q 1690 2630 1581 2620 
Q 1472 2611 1402 2598 
L 1402 877 
Q 1491 819 1635 780 
Q 1779 742 1926 742 
Q 2605 742 2605 1658 
z
M 3578 1683 
Q 3578 1293 3482 973 
Q 3386 653 3200 422 
Q 3014 192 2739 64 
Q 2464 -64 2106 -64 
Q 1907 -64 1734 -25 
Q 1562 13 1402 83 
L 1402 -1184 
L 448 -1184 
L 448 3251 
Q 576 3290 742 3325 
Q 909 3360 1091 3385 
Q 1274 3411 1462 3427 
Q 1651 3443 1824 3443 
Q 2240 3443 2566 3318 
Q 2893 3194 3117 2966 
Q 3341 2739 3459 2412 
Q 3578 2086 3578 1683 
z
" transform="scale(0.015625)"/>
       <path id="Ubuntu-Bold-65" d="M 288 1658 
Q 288 2106 425 2442 
Q 563 2778 787 3002 
Q 1011 3226 1302 3341 
Q 1594 3456 1901 3456 
Q 2618 3456 3034 3017 
Q 3450 2579 3450 1728 
Q 3450 1645 3443 1545 
Q 3437 1446 3430 1370 
L 1267 1370 
Q 1299 1075 1542 902 
Q 1786 730 2195 730 
Q 2458 730 2710 778 
Q 2963 826 3123 896 
L 3251 122 
Q 3174 83 3046 44 
Q 2918 6 2761 -22 
Q 2605 -51 2425 -70 
Q 2246 -90 2067 -90 
Q 1613 -90 1277 44 
Q 941 179 720 412 
Q 499 646 393 966 
Q 288 1286 288 1658 
z
M 2528 2022 
Q 2522 2144 2486 2259 
Q 2451 2374 2377 2464 
Q 2304 2554 2192 2611 
Q 2080 2669 1914 2669 
Q 1754 2669 1638 2614 
Q 1523 2560 1446 2470 
Q 1370 2381 1328 2262 
Q 1286 2144 1267 2022 
L 2528 2022 
z
" transform="scale(0.015625)"/>
      </defs>
      <use xlink:href="#Ubuntu-Bold-4d"/>
      <use xlink:href="#Ubuntu-Bold-61" x="89.699982"/>
      <use xlink:href="#Ubuntu-Bold-73" x="144.999969"/>
      <use xlink:href="#Ubuntu-Bold-76" x="193.499954"/>
      <use xlink:href="#Ubuntu-Bold-6e" x="248.499939"/>
      <use xlink:href="#Ubuntu-Bold-72" x="307.399933"/>
      <use xlink:href="#Ubuntu-Bold-74" x="349.59993"/>
      <use xlink:href="#Ubuntu-Bold-79" x="394.999924"/>
      <use xlink:href="#Ubuntu-Bold-70" x="449.699921"/>
      <use xlink:href="#Ubuntu-Bold-65" x="510.099915"/>
     </g>
    </g>
   </g>
   <g id="matplotlib.axis_2">
    <g id="ytick_1">
     <g id="line2d_5">
      <defs>
       <path id="m4c0b3d9ea1" d="M 0 0 
L -3 0 
" style="stroke: #bbbbbb; stroke-width: 0.75"/>
      </defs>
      <g>
       <use xlink:href="#m4c0b3d9ea1" x="45.853438" y="133.747826" style="fill: #bbbbbb; stroke: #bbbbbb; stroke-width: 0.75"/>
      </g>
     </g>
     <g id="text_6">
      <!-- 11.6 -->
      <g style="fill: #9f9f9f" transform="translate(23.848438 136.851576) scale(0.08 -0.08)">
       <defs>
        <path id="Ubuntu-31" d="M 595 3520 
Q 960 3661 1305 3881 
Q 1651 4102 1939 4435 
L 2362 4435 
L 2362 0 
L 1766 0 
L 1766 3610 
Q 1690 3539 1578 3462 
Q 1466 3386 1334 3315 
Q 1203 3245 1059 3181 
Q 915 3117 781 3072 
L 595 3520 
z
" transform="scale(0.015625)"/>
        <path id="Ubuntu-2e" d="M 1216 346 
Q 1216 173 1101 45 
Q 986 -83 787 -83 
Q 589 -83 473 45 
Q 358 173 358 346 
Q 358 518 473 646 
Q 589 774 787 774 
Q 986 774 1101 646 
Q 1216 518 1216 346 
z
" transform="scale(0.015625)"/>
        <path id="Ubuntu-36" d="M 403 1779 
Q 403 2426 582 2922 
Q 762 3418 1091 3757 
Q 1421 4096 1891 4272 
Q 2362 4448 2950 4454 
L 2995 3955 
Q 2618 3949 2307 3872 
Q 1997 3795 1753 3628 
Q 1510 3462 1344 3196 
Q 1178 2931 1094 2541 
Q 1261 2618 1469 2669 
Q 1677 2720 1901 2720 
Q 2278 2720 2540 2605 
Q 2803 2490 2969 2301 
Q 3136 2112 3209 1865 
Q 3283 1619 3283 1350 
Q 3283 1107 3200 851 
Q 3117 595 2947 384 
Q 2778 173 2515 38 
Q 2253 -96 1894 -96 
Q 1165 -96 784 403 
Q 403 902 403 1779 
z
M 1837 2234 
Q 1613 2234 1421 2192 
Q 1229 2150 1037 2067 
Q 1030 1997 1027 1923 
Q 1024 1850 1024 1779 
Q 1024 1498 1062 1248 
Q 1101 998 1200 809 
Q 1299 621 1465 509 
Q 1632 397 1888 397 
Q 2099 397 2246 486 
Q 2394 576 2490 717 
Q 2586 858 2627 1021 
Q 2669 1184 2669 1338 
Q 2669 1773 2461 2003 
Q 2253 2234 1837 2234 
z
" transform="scale(0.015625)"/>
       </defs>
       <use xlink:href="#Ubuntu-31"/>
       <use xlink:href="#Ubuntu-31" x="56.399994"/>
       <use xlink:href="#Ubuntu-2e" x="112.799988"/>
       <use xlink:href="#Ubuntu-36" x="137.399979"/>
      </g>
     </g>
    </g>
    <g id="ytick_2">
     <g id="line2d_6">
      <g>
       <use xlink:href="#m4c0b3d9ea1" x="45.853438" y="109.643478" style="fill: #bbbbbb; stroke: #bbbbbb; stroke-width: 0.75"/>
      </g>
     </g>
     <g id="text_7">
      <!-- 11.8 -->
      <g style="fill: #9f9f9f" transform="translate(23.848438 112.747228) scale(0.08 -0.08)">
       <defs>
        <path id="Ubuntu-38" d="M 3258 1152 
Q 3258 883 3165 656 
Q 3072 429 2889 259 
Q 2707 90 2432 -3 
Q 2157 -96 1798 -96 
Q 1382 -96 1104 22 
Q 826 141 659 320 
Q 493 499 422 713 
Q 352 928 352 1120 
Q 352 1306 413 1475 
Q 474 1645 573 1792 
Q 672 1939 803 2057 
Q 934 2176 1082 2266 
Q 454 2624 454 3322 
Q 454 3565 550 3785 
Q 646 4006 822 4172 
Q 998 4339 1248 4438 
Q 1498 4538 1805 4538 
Q 2163 4538 2419 4429 
Q 2675 4320 2838 4150 
Q 3002 3981 3075 3776 
Q 3149 3571 3149 3379 
Q 3149 3194 3094 3030 
Q 3040 2867 2947 2726 
Q 2854 2586 2736 2477 
Q 2618 2368 2490 2285 
Q 3245 1926 3258 1152 
z
M 954 1114 
Q 954 998 995 873 
Q 1037 749 1139 643 
Q 1242 538 1402 467 
Q 1562 397 1805 397 
Q 2022 397 2185 461 
Q 2349 525 2451 624 
Q 2554 723 2605 851 
Q 2656 979 2656 1114 
Q 2656 1318 2579 1472 
Q 2502 1626 2358 1741 
Q 2214 1856 2012 1936 
Q 1811 2016 1555 2074 
Q 1267 1914 1110 1677 
Q 954 1440 954 1114 
z
M 2554 3386 
Q 2554 3482 2512 3597 
Q 2470 3712 2380 3811 
Q 2291 3910 2150 3977 
Q 2010 4045 1805 4045 
Q 1600 4045 1456 3981 
Q 1312 3917 1222 3817 
Q 1133 3718 1091 3600 
Q 1050 3482 1050 3366 
Q 1050 3226 1101 3085 
Q 1152 2944 1261 2822 
Q 1370 2701 1546 2605 
Q 1722 2509 1965 2451 
Q 2234 2611 2394 2825 
Q 2554 3040 2554 3386 
z
" transform="scale(0.015625)"/>
       </defs>
       <use xlink:href="#Ubuntu-31"/>
       <use xlink:href="#Ubuntu-31" x="56.399994"/>
       <use xlink:href="#Ubuntu-2e" x="112.799988"/>
       <use xlink:href="#Ubuntu-38" x="137.399979"/>
      </g>
     </g>
    </g>
    <g id="ytick_3">
     <g id="line2d_7">
      <g>
       <use xlink:href="#m4c0b3d9ea1" x="45.853438" y="85.53913" style="fill: #bbbbbb; stroke: #bbbbbb; stroke-width: 0.75"/>
      </g>
     </g>
     <g id="text_8">
      <!-- 12.0 -->
      <g style="fill: #9f9f9f" transform="translate(23.848438 88.64288) scale(0.08 -0.08)">
       <defs>
        <path id="Ubuntu-32" d="M 2989 3302 
Q 2989 3072 2896 2857 
Q 2803 2643 2649 2435 
Q 2496 2227 2304 2025 
Q 2112 1824 1920 1632 
Q 1811 1523 1667 1376 
Q 1523 1229 1395 1069 
Q 1267 909 1180 761 
Q 1094 614 1094 506 
L 3136 506 
L 3136 0 
L 448 0 
Q 442 38 442 76 
Q 442 115 442 147 
Q 442 448 541 707 
Q 640 966 800 1196 
Q 960 1427 1158 1632 
Q 1357 1837 1549 2029 
Q 1709 2182 1853 2332 
Q 1997 2483 2109 2633 
Q 2221 2784 2288 2944 
Q 2355 3104 2355 3283 
Q 2355 3475 2294 3609 
Q 2234 3744 2131 3833 
Q 2029 3923 1891 3964 
Q 1754 4006 1600 4006 
Q 1414 4006 1260 3955 
Q 1107 3904 985 3837 
Q 864 3770 781 3696 
Q 698 3622 653 3584 
L 358 4006 
Q 416 4070 531 4163 
Q 646 4256 806 4339 
Q 966 4422 1164 4480 
Q 1363 4538 1594 4538 
Q 2291 4538 2640 4214 
Q 2989 3891 2989 3302 
z
" transform="scale(0.015625)"/>
        <path id="Ubuntu-30" d="M 320 2221 
Q 320 3334 713 3936 
Q 1107 4538 1805 4538 
Q 2502 4538 2896 3936 
Q 3290 3334 3290 2221 
Q 3290 1107 2896 505 
Q 2502 -96 1805 -96 
Q 1107 -96 713 505 
Q 320 1107 320 2221 
z
M 2662 2221 
Q 2662 2586 2620 2912 
Q 2579 3238 2480 3481 
Q 2381 3725 2214 3869 
Q 2048 4013 1805 4013 
Q 1562 4013 1395 3869 
Q 1229 3725 1129 3481 
Q 1030 3238 988 2912 
Q 947 2586 947 2221 
Q 947 1856 988 1529 
Q 1030 1203 1129 960 
Q 1229 717 1395 573 
Q 1562 429 1805 429 
Q 2048 429 2214 573 
Q 2381 717 2480 960 
Q 2579 1203 2620 1529 
Q 2662 1856 2662 2221 
z
" transform="scale(0.015625)"/>
       </defs>
       <use xlink:href="#Ubuntu-31"/>
       <use xlink:href="#Ubuntu-32" x="56.399994"/>
       <use xlink:href="#Ubuntu-2e" x="112.799988"/>
       <use xlink:href="#Ubuntu-30" x="137.399979"/>
      </g>
     </g>
    </g>
    <g id="ytick_4">
     <g id="line2d_8">
      <g>
       <use xlink:href="#m4c0b3d9ea1" x="45.853438" y="61.434783" style="fill: #bbbbbb; stroke: #bbbbbb; stroke-width: 0.75"/>
      </g>
     </g>
     <g id="text_9">
      <!-- 12.2 -->
      <g style="fill: #9f9f9f" transform="translate(23.848438 64.538533) scale(0.08 -0.08)">
       <use xlink:href="#Ubuntu-31"/>
       <use xlink:href="#Ubuntu-32" x="56.399994"/>
       <use xlink:href="#Ubuntu-2e" x="112.799988"/>
       <use xlink:href="#Ubuntu-32" x="137.399979"/>
      </g>
     </g>
    </g>
    <g id="ytick_5">
     <g id="line2d_9">
      <g>
       <use xlink:href="#m4c0b3d9ea1" x="45.853438" y="37.330435" style="fill: #bbbbbb; stroke: #bbbbbb; stroke-width: 0.75"/>
      </g>
     </g>
     <g id="text_10">
      <!-- 12.4 -->
      <g style="fill: #9f9f9f" transform="translate(23.848438 40.434185) scale(0.08 -0.08)">
       <defs>
        <path id="Ubuntu-34" d="M 256 1536 
Q 378 1818 589 2192 
Q 800 2566 1065 2963 
Q 1331 3360 1635 3744 
Q 1939 4128 2246 4435 
L 2816 4435 
L 2816 1619 
L 3341 1619 
L 3341 1133 
L 2816 1133 
L 2816 0 
L 2240 0 
L 2240 1133 
L 256 1133 
L 256 1536 
z
M 2240 3731 
Q 2048 3526 1853 3273 
Q 1658 3021 1472 2745 
Q 1286 2470 1123 2182 
Q 960 1894 832 1619 
L 2240 1619 
L 2240 3731 
z
" transform="scale(0.015625)"/>
       </defs>
       <use xlink:href="#Ubuntu-31"/>
       <use xlink:href="#Ubuntu-32" x="56.399994"/>
       <use xlink:href="#Ubuntu-2e" x="112.799988"/>
       <use xlink:href="#Ubuntu-34" x="137.399979"/>
      </g>
     </g>
    </g>
    <g id="text_11">
     <!-- Price -->
     <g style="fill: #505050" transform="translate(14.183438 28.927969) rotate(-90) scale(0.09 -0.09)">
      <defs>
       <path id="Ubuntu-Bold-50" d="M 1843 4486 
Q 2835 4486 3366 4137 
Q 3898 3789 3898 2995 
Q 3898 2195 3360 1840 
Q 2822 1485 1824 1485 
L 1510 1485 
L 1510 0 
L 512 0 
L 512 4371 
Q 838 4435 1203 4460 
Q 1568 4486 1843 4486 
z
M 1907 3635 
Q 1798 3635 1692 3628 
Q 1587 3622 1510 3616 
L 1510 2336 
L 1824 2336 
Q 2342 2336 2604 2477 
Q 2867 2618 2867 3002 
Q 2867 3187 2800 3308 
Q 2733 3430 2608 3504 
Q 2483 3578 2304 3606 
Q 2125 3635 1907 3635 
z
" transform="scale(0.015625)"/>
       <path id="Ubuntu-Bold-69" d="M 1402 0 
L 448 0 
L 448 3366 
L 1402 3366 
L 1402 0 
z
M 1491 4339 
Q 1491 4077 1321 3926 
Q 1152 3776 922 3776 
Q 691 3776 521 3926 
Q 352 4077 352 4339 
Q 352 4602 521 4752 
Q 691 4902 922 4902 
Q 1152 4902 1321 4752 
Q 1491 4602 1491 4339 
z
" transform="scale(0.015625)"/>
       <path id="Ubuntu-Bold-63" d="M 288 1683 
Q 288 2048 406 2371 
Q 525 2694 749 2934 
Q 973 3174 1293 3315 
Q 1613 3456 2022 3456 
Q 2291 3456 2515 3408 
Q 2739 3360 2950 3270 
L 2752 2509 
Q 2618 2560 2458 2598 
Q 2298 2637 2099 2637 
Q 1677 2637 1469 2374 
Q 1261 2112 1261 1683 
Q 1261 1229 1456 979 
Q 1651 730 2138 730 
Q 2310 730 2508 762 
Q 2707 794 2874 864 
L 3008 83 
Q 2842 13 2592 -38 
Q 2342 -90 2042 -90 
Q 1581 -90 1248 48 
Q 915 186 700 422 
Q 486 659 387 982 
Q 288 1306 288 1683 
z
" transform="scale(0.015625)"/>
      </defs>
      <use xlink:href="#Ubuntu-Bold-50"/>
      <use xlink:href="#Ubuntu-Bold-72" x="64.399994"/>
      <use xlink:href="#Ubuntu-Bold-69" x="106.599991"/>
      <use xlink:href="#Ubuntu-Bold-63" x="135.499985"/>
      <use xlink:href="#Ubuntu-Bold-65" x="182.999969"/>
     </g>
    </g>
   </g>
   <g id="line2d_10">
    <path d="M 67.265202 100.597203 
L 67.265202 94.344012 
" clip-path="url(#p110798c3d4)" style="fill: none; stroke: #5d5d5d; stroke-linecap: square"/>
   </g>
   <g id="line2d_11">
    <path d="M 149.324026 70.911001 
L 149.324026 62.821403 
" clip-path="url(#p110798c3d4)" style="fill: none; stroke: #5d5d5d; stroke-linecap: square"/>
   </g>
   <g id="line2d_12">
    <path d="M 231.382849 42.505523 
L 231.382849 27.174741 
" clip-path="url(#p110798c3d4)" style="fill: none; stroke: #5d5d5d; stroke-linecap: square"/>
   </g>
   <g id="line2d_13">
    <path d="M 313.441673 121.043932 
L 313.441673 86.334852 
" clip-path="url(#p110798c3d4)" style="fill: none; stroke: #5d5d5d; stroke-linecap: square"/>
   </g>
   <g id="patch_3">
    <path d="M 45.853438 133.747826 
L 45.853438 37.330435 
" style="fill: none; stroke: #bbbbbb; stroke-width: 0.75; stroke-linejoin: miter; stroke-linecap: square"/>
   </g>
   <g id="patch_4">
    <path d="M 67.265202 150.8 
L 313.441673 150.8 
" style="fill: none; stroke: #bbbbbb; stroke-width: 0.75; stroke-linejoin: miter; stroke-linecap: square"/>
   </g>
   <g id="line2d_14">
    <defs>
     <path id="m4535b74f2c" d="M 0 1.5 
C 0.397805 1.5 0.77937 1.341951 1.06066 1.06066 
C 1.341951 0.77937 1.5 0.397805 1.5 0 
C 1.5 -0.397805 1.341951 -0.77937 1.06066 -1.06066 
C 0.77937 -1.341951 0.397805 -1.5 0 -1.5 
C -0.397805 -1.5 -0.77937 -1.341951 -1.06066 -1.06066 
C -1.341951 -0.77937 -1.5 -0.397805 -1.5 0 
C -1.5 0.397805 -1.341951 0.77937 -1.06066 1.06066 
C -0.77937 1.341951 -0.397805 1.5 0 1.5 
z
" style="stroke: #5d5d5d; stroke-width: 1.62"/>
    </defs>
    <g clip-path="url(#p110798c3d4)">
     <use xlink:href="#m4535b74f2c" x="67.265202" y="97.535149" style="fill: #5d5d5d; stroke: #5d5d5d; stroke-width: 1.62"/>
     <use xlink:href="#m4535b74f2c" x="149.324026" y="67.076446" style="fill: #5d5d5d; stroke: #5d5d5d; stroke-width: 1.62"/>
     <use xlink:href="#m4535b74f2c" x="231.382849" y="35.325349" style="fill: #5d5d5d; stroke: #5d5d5d; stroke-width: 1.62"/>
     <use xlink:href="#m4535b74f2c" x="313.441673" y="104.070173" style="fill: #5d5d5d; stroke: #5d5d5d; stroke-width: 1.62"/>
    </g>
   </g>
  </g>
 </g>
 <defs>
  <clipPath id="p110798c3d4">
   <rect x="50.853438" y="7.2" width="279" height="138.6"/>
  </clipPath>
 </defs>
</svg>
