<?xml version="1.0" encoding="utf-8" standalone="no"?>
<!DOCTYPE svg PUBLIC "-//W3C//DTD SVG 1.1//EN"
  "http://www.w3.org/Graphics/SVG/1.1/DTD/svg11.dtd">
<svg xmlns:xlink="http://www.w3.org/1999/xlink" width="285.673281pt" height="209.130313pt" viewBox="0 0 285.673281 209.130313" xmlns="http://www.w3.org/2000/svg" version="1.1">
 <metadata>
  <rdf:RDF xmlns:dc="http://purl.org/dc/elements/1.1/" xmlns:cc="http://creativecommons.org/ns#" xmlns:rdf="http://www.w3.org/1999/02/22-rdf-syntax-ns#">
   <cc:Work>
    <dc:type rdf:resource="http://purl.org/dc/dcmitype/StillImage"/>
    <dc:date>2024-02-21T18:38:53.658586</dc:date>
    <dc:format>image/svg+xml</dc:format>
    <dc:creator>
     <cc:Agent>
      <dc:title>Matplotlib v3.8.0, https://matplotlib.org/</dc:title>
     </cc:Agent>
    </dc:creator>
   </cc:Work>
  </rdf:RDF>
 </metadata>
 <defs>
  <style type="text/css">*{stroke-linejoin: round; stroke-linecap: butt}</style>
 </defs>
 <g id="figure_1">
  <g id="patch_1">
   <path d="M -0 209.130313 
L 285.673281 209.130313 
L 285.673281 0 
L -0 0 
L -0 209.130313 
z
" style="fill: none"/>
  </g>
  <g id="axes_1">
   <g id="patch_2">
    <path d="M 108.817031 196.746875 
L 276.217031 196.746875 
L 276.217031 58.146875 
L 108.817031 58.146875 
L 108.817031 196.746875 
z
" style="fill: none"/>
   </g>
   <g id="matplotlib.axis_1">
    <g id="xtick_1">
     <g id="line2d_1">
      <defs>
       <path id="mb2448a3372" d="M 0 0 
L 0 -2 
" style="stroke: #707070"/>
      </defs>
      <g>
       <use xlink:href="#mb2448a3372" x="108.817031" y="43.146875" style="fill: #707070; stroke: #707070"/>
      </g>
     </g>
     <g id="text_1">
      <!-- 0 -->
      <g style="fill: #707070" transform="translate(106.560781 36.166875) scale(0.08 -0.08)">
       <defs>
        <path id="Ubuntu-30" d="M 320 2221 
Q 320 3334 713 3936 
Q 1107 4538 1805 4538 
Q 2502 4538 2896 3936 
Q 3290 3334 3290 2221 
Q 3290 1107 2896 505 
Q 2502 -96 1805 -96 
Q 1107 -96 713 505 
Q 320 1107 320 2221 
z
M 2662 2221 
Q 2662 2586 2620 2912 
Q 2579 3238 2480 3481 
Q 2381 3725 2214 3869 
Q 2048 4013 1805 4013 
Q 1562 4013 1395 3869 
Q 1229 3725 1129 3481 
Q 1030 3238 988 2912 
Q 947 2586 947 2221 
Q 947 1856 988 1529 
Q 1030 1203 1129 960 
Q 1229 717 1395 573 
Q 1562 429 1805 429 
Q 2048 429 2214 573 
Q 2381 717 2480 960 
Q 2579 1203 2620 1529 
Q 2662 1856 2662 2221 
z
" transform="scale(0.015625)"/>
       </defs>
       <use xlink:href="#Ubuntu-30"/>
      </g>
     </g>
    </g>
    <g id="xtick_2">
     <g id="line2d_2">
      <g>
       <use xlink:href="#mb2448a3372" x="150.667031" y="43.146875" style="fill: #707070; stroke: #707070"/>
      </g>
     </g>
     <g id="text_2">
      <!-- 1 -->
      <g style="fill: #707070" transform="translate(148.410781 36.166875) scale(0.08 -0.08)">
       <defs>
        <path id="Ubuntu-31" d="M 595 3520 
Q 960 3661 1305 3881 
Q 1651 4102 1939 4435 
L 2362 4435 
L 2362 0 
L 1766 0 
L 1766 3610 
Q 1690 3539 1578 3462 
Q 1466 3386 1334 3315 
Q 1203 3245 1059 3181 
Q 915 3117 781 3072 
L 595 3520 
z
" transform="scale(0.015625)"/>
       </defs>
       <use xlink:href="#Ubuntu-31"/>
      </g>
     </g>
    </g>
    <g id="xtick_3">
     <g id="line2d_3">
      <g>
       <use xlink:href="#mb2448a3372" x="192.517031" y="43.146875" style="fill: #707070; stroke: #707070"/>
      </g>
     </g>
     <g id="text_3">
      <!-- 2 -->
      <g style="fill: #707070" transform="translate(190.260781 36.166875) scale(0.08 -0.08)">
       <defs>
        <path id="Ubuntu-32" d="M 2989 3302 
Q 2989 3072 2896 2857 
Q 2803 2643 2649 2435 
Q 2496 2227 2304 2025 
Q 2112 1824 1920 1632 
Q 1811 1523 1667 1376 
Q 1523 1229 1395 1069 
Q 1267 909 1180 761 
Q 1094 614 1094 506 
L 3136 506 
L 3136 0 
L 448 0 
Q 442 38 442 76 
Q 442 115 442 147 
Q 442 448 541 707 
Q 640 966 800 1196 
Q 960 1427 1158 1632 
Q 1357 1837 1549 2029 
Q 1709 2182 1853 2332 
Q 1997 2483 2109 2633 
Q 2221 2784 2288 2944 
Q 2355 3104 2355 3283 
Q 2355 3475 2294 3609 
Q 2234 3744 2131 3833 
Q 2029 3923 1891 3964 
Q 1754 4006 1600 4006 
Q 1414 4006 1260 3955 
Q 1107 3904 985 3837 
Q 864 3770 781 3696 
Q 698 3622 653 3584 
L 358 4006 
Q 416 4070 531 4163 
Q 646 4256 806 4339 
Q 966 4422 1164 4480 
Q 1363 4538 1594 4538 
Q 2291 4538 2640 4214 
Q 2989 3891 2989 3302 
z
" transform="scale(0.015625)"/>
       </defs>
       <use xlink:href="#Ubuntu-32"/>
      </g>
     </g>
    </g>
    <g id="xtick_4">
     <g id="line2d_4">
      <g>
       <use xlink:href="#mb2448a3372" x="234.367031" y="43.146875" style="fill: #707070; stroke: #707070"/>
      </g>
     </g>
     <g id="text_4">
      <!-- 3 -->
      <g style="fill: #707070" transform="translate(232.110781 36.166875) scale(0.08 -0.08)">
       <defs>
        <path id="Ubuntu-33" d="M 1446 435 
Q 2016 435 2262 659 
Q 2509 883 2509 1261 
Q 2509 1504 2406 1670 
Q 2304 1837 2137 1936 
Q 1971 2035 1750 2076 
Q 1530 2118 1299 2118 
L 1146 2118 
L 1146 2605 
L 1357 2605 
Q 1517 2605 1686 2637 
Q 1856 2669 1997 2752 
Q 2138 2835 2227 2979 
Q 2317 3123 2317 3341 
Q 2317 3520 2253 3648 
Q 2189 3776 2083 3859 
Q 1978 3942 1840 3977 
Q 1702 4013 1549 4013 
Q 1242 4013 1027 3923 
Q 813 3834 666 3738 
L 435 4192 
Q 512 4243 630 4304 
Q 749 4365 896 4416 
Q 1043 4467 1212 4502 
Q 1382 4538 1568 4538 
Q 1920 4538 2176 4451 
Q 2432 4365 2598 4208 
Q 2765 4051 2848 3836 
Q 2931 3622 2931 3373 
Q 2931 3027 2732 2780 
Q 2534 2534 2253 2406 
Q 2426 2355 2586 2259 
Q 2746 2163 2864 2016 
Q 2982 1869 3056 1677 
Q 3130 1485 3130 1248 
Q 3130 960 3030 713 
Q 2931 467 2723 288 
Q 2515 109 2201 6 
Q 1888 -96 1459 -96 
Q 1293 -96 1117 -70 
Q 941 -45 787 -6 
Q 634 32 518 70 
Q 403 109 352 134 
L 467 653 
Q 576 602 829 518 
Q 1082 435 1446 435 
z
" transform="scale(0.015625)"/>
       </defs>
       <use xlink:href="#Ubuntu-33"/>
      </g>
     </g>
    </g>
    <g id="xtick_5">
     <g id="line2d_5">
      <g>
       <use xlink:href="#mb2448a3372" x="276.217031" y="43.146875" style="fill: #707070; stroke: #707070"/>
      </g>
     </g>
     <g id="text_5">
      <!-- 4 -->
      <g style="fill: #707070" transform="translate(273.960781 36.166875) scale(0.08 -0.08)">
       <defs>
        <path id="Ubuntu-34" d="M 256 1536 
Q 378 1818 589 2192 
Q 800 2566 1065 2963 
Q 1331 3360 1635 3744 
Q 1939 4128 2246 4435 
L 2816 4435 
L 2816 1619 
L 3341 1619 
L 3341 1133 
L 2816 1133 
L 2816 0 
L 2240 0 
L 2240 1133 
L 256 1133 
L 256 1536 
z
M 2240 3731 
Q 2048 3526 1853 3273 
Q 1658 3021 1472 2745 
Q 1286 2470 1123 2182 
Q 960 1894 832 1619 
L 2240 1619 
L 2240 3731 
z
" transform="scale(0.015625)"/>
       </defs>
       <use xlink:href="#Ubuntu-34"/>
      </g>
     </g>
    </g>
   </g>
   <g id="matplotlib.axis_2">
    <g id="ytick_1">
     <g id="line2d_6">
      <defs>
       <path id="m9efc36c745" d="M 0 0 
L -2 0 
" style="stroke: #707070"/>
      </defs>
      <g>
       <use xlink:href="#m9efc36c745" x="93.817031" y="196.746875" style="fill: #707070; stroke: #707070"/>
      </g>
     </g>
     <g id="text_6">
      <!-- lg_garagearea -->
      <g style="fill: #4c4c4c" transform="translate(22.066875 200.238594) scale(0.09 -0.09)">
       <defs>
        <path id="Ubuntu-Medium-6c" d="M 1658 -64 
Q 1312 -58 1085 12 
Q 858 83 723 214 
Q 589 346 534 541 
Q 480 736 480 986 
L 480 4838 
L 1254 4966 
L 1254 1133 
Q 1254 992 1276 896 
Q 1299 800 1356 733 
Q 1414 666 1513 630 
Q 1613 595 1766 576 
L 1658 -64 
z
" transform="scale(0.015625)"/>
        <path id="Ubuntu-Medium-67" d="M 1101 1760 
Q 1101 1267 1315 1040 
Q 1530 813 1869 813 
Q 2054 813 2217 864 
Q 2381 915 2483 986 
L 2483 2720 
Q 2400 2739 2278 2755 
Q 2157 2771 1971 2771 
Q 1549 2771 1325 2492 
Q 1101 2214 1101 1760 
z
M 3258 339 
Q 3258 -461 2851 -832 
Q 2445 -1203 1606 -1203 
Q 1299 -1203 1008 -1152 
Q 717 -1101 480 -1018 
L 621 -358 
Q 819 -442 1072 -493 
Q 1325 -544 1619 -544 
Q 2086 -544 2284 -352 
Q 2483 -160 2483 218 
L 2483 346 
Q 2368 288 2179 230 
Q 1990 173 1747 173 
Q 1427 173 1161 275 
Q 896 378 707 576 
Q 518 774 412 1072 
Q 307 1370 307 1760 
Q 307 2125 419 2432 
Q 531 2739 745 2956 
Q 960 3174 1267 3296 
Q 1574 3418 1965 3418 
Q 2342 3418 2681 3360 
Q 3021 3302 3258 3238 
L 3258 339 
z
" transform="scale(0.015625)"/>
        <path id="Ubuntu-Medium-5f" d="M 0 -538 
L 3200 -538 
L 3200 -1184 
L 0 -1184 
L 0 -538 
z
" transform="scale(0.015625)"/>
        <path id="Ubuntu-Medium-61" d="M 1670 544 
Q 2029 544 2214 582 
L 2214 1440 
Q 2150 1459 2028 1478 
Q 1907 1498 1760 1498 
Q 1632 1498 1501 1478 
Q 1370 1459 1264 1408 
Q 1158 1357 1094 1264 
Q 1030 1171 1030 1030 
Q 1030 755 1203 649 
Q 1376 544 1670 544 
z
M 1606 3430 
Q 1990 3430 2252 3334 
Q 2515 3238 2672 3065 
Q 2829 2893 2896 2646 
Q 2963 2400 2963 2106 
L 2963 77 
Q 2784 38 2422 -16 
Q 2061 -70 1606 -70 
Q 1306 -70 1056 -12 
Q 806 45 630 173 
Q 454 301 355 505 
Q 256 710 256 1011 
Q 256 1299 368 1497 
Q 480 1696 672 1821 
Q 864 1946 1117 2000 
Q 1370 2054 1645 2054 
Q 1773 2054 1913 2038 
Q 2054 2022 2214 1984 
L 2214 2112 
Q 2214 2246 2182 2368 
Q 2150 2490 2070 2582 
Q 1990 2675 1859 2726 
Q 1728 2778 1530 2778 
Q 1261 2778 1037 2739 
Q 813 2701 672 2650 
L 576 3277 
Q 723 3328 1004 3379 
Q 1286 3430 1606 3430 
z
" transform="scale(0.015625)"/>
        <path id="Ubuntu-Medium-72" d="M 2400 2650 
Q 2304 2682 2134 2717 
Q 1965 2752 1741 2752 
Q 1613 2752 1469 2726 
Q 1325 2701 1267 2682 
L 1267 0 
L 493 0 
L 493 3187 
Q 717 3270 1053 3344 
Q 1389 3418 1798 3418 
Q 1875 3418 1977 3408 
Q 2080 3398 2182 3382 
Q 2285 3366 2381 3344 
Q 2477 3322 2534 3302 
L 2400 2650 
z
" transform="scale(0.015625)"/>
        <path id="Ubuntu-Medium-65" d="M 307 1658 
Q 307 2099 438 2432 
Q 570 2765 787 2985 
Q 1005 3206 1286 3318 
Q 1568 3430 1862 3430 
Q 2554 3430 2941 3001 
Q 3328 2573 3328 1722 
Q 3328 1658 3325 1578 
Q 3322 1498 3315 1434 
L 1107 1434 
Q 1139 1030 1392 809 
Q 1645 589 2125 589 
Q 2406 589 2640 640 
Q 2874 691 3008 749 
L 3110 115 
Q 3046 83 2934 48 
Q 2822 13 2678 -16 
Q 2534 -45 2368 -64 
Q 2202 -83 2029 -83 
Q 1587 -83 1260 48 
Q 934 179 723 412 
Q 512 646 409 963 
Q 307 1280 307 1658 
z
M 2554 2003 
Q 2554 2163 2509 2307 
Q 2464 2451 2377 2556 
Q 2291 2662 2166 2723 
Q 2042 2784 1869 2784 
Q 1690 2784 1555 2717 
Q 1421 2650 1328 2541 
Q 1235 2432 1184 2291 
Q 1133 2150 1114 2003 
L 2554 2003 
z
" transform="scale(0.015625)"/>
       </defs>
       <use xlink:href="#Ubuntu-Medium-6c"/>
       <use xlink:href="#Ubuntu-Medium-67" x="29.699997"/>
       <use xlink:href="#Ubuntu-Medium-5f" x="88.299988"/>
       <use xlink:href="#Ubuntu-Medium-67" x="138.299973"/>
       <use xlink:href="#Ubuntu-Medium-61" x="196.899963"/>
       <use xlink:href="#Ubuntu-Medium-72" x="250.299957"/>
       <use xlink:href="#Ubuntu-Medium-61" x="290.599945"/>
       <use xlink:href="#Ubuntu-Medium-67" x="343.999939"/>
       <use xlink:href="#Ubuntu-Medium-65" x="402.59993"/>
       <use xlink:href="#Ubuntu-Medium-61" x="459.699921"/>
       <use xlink:href="#Ubuntu-Medium-72" x="513.099915"/>
       <use xlink:href="#Ubuntu-Medium-65" x="553.399902"/>
       <use xlink:href="#Ubuntu-Medium-61" x="610.499893"/>
      </g>
     </g>
    </g>
    <g id="ytick_2">
     <g id="line2d_7">
      <g>
       <use xlink:href="#m9efc36c745" x="93.817031" y="181.346875" style="fill: #707070; stroke: #707070"/>
      </g>
     </g>
     <g id="text_7">
      <!-- salecondition -->
      <g style="fill: #4c4c4c" transform="translate(25.552969 184.838594) scale(0.09 -0.09)">
       <defs>
        <path id="Ubuntu-Medium-73" d="M 1331 557 
Q 1638 557 1779 630 
Q 1920 704 1920 883 
Q 1920 1050 1769 1158 
Q 1619 1267 1274 1395 
Q 1062 1472 886 1558 
Q 710 1645 582 1760 
Q 454 1875 380 2038 
Q 307 2202 307 2438 
Q 307 2899 646 3164 
Q 986 3430 1568 3430 
Q 1862 3430 2131 3376 
Q 2400 3322 2534 3270 
L 2394 2643 
Q 2266 2701 2067 2749 
Q 1869 2797 1606 2797 
Q 1370 2797 1222 2717 
Q 1075 2637 1075 2470 
Q 1075 2387 1104 2323 
Q 1133 2259 1203 2204 
Q 1274 2150 1389 2096 
Q 1504 2042 1670 1984 
Q 1946 1882 2138 1782 
Q 2330 1683 2454 1558 
Q 2579 1434 2636 1274 
Q 2694 1114 2694 890 
Q 2694 410 2339 163 
Q 1984 -83 1325 -83 
Q 883 -83 614 -9 
Q 346 64 237 109 
L 371 755 
Q 544 685 784 621 
Q 1024 557 1331 557 
z
" transform="scale(0.015625)"/>
        <path id="Ubuntu-Medium-63" d="M 307 1670 
Q 307 2042 422 2365 
Q 538 2688 752 2925 
Q 966 3162 1273 3296 
Q 1581 3430 1965 3430 
Q 2438 3430 2861 3258 
L 2694 2624 
Q 2560 2682 2390 2720 
Q 2221 2758 2029 2758 
Q 1574 2758 1337 2473 
Q 1101 2189 1101 1670 
Q 1101 1171 1325 880 
Q 1549 589 2080 589 
Q 2278 589 2470 627 
Q 2662 666 2803 723 
L 2912 83 
Q 2784 19 2525 -32 
Q 2266 -83 1990 -83 
Q 1562 -83 1245 48 
Q 928 179 720 412 
Q 512 646 409 969 
Q 307 1293 307 1670 
z
" transform="scale(0.015625)"/>
        <path id="Ubuntu-Medium-6f" d="M 3520 1677 
Q 3520 1280 3405 953 
Q 3290 627 3078 396 
Q 2867 166 2569 38 
Q 2272 -90 1914 -90 
Q 1555 -90 1260 38 
Q 966 166 755 396 
Q 544 627 425 953 
Q 307 1280 307 1677 
Q 307 2074 425 2397 
Q 544 2720 758 2950 
Q 973 3181 1267 3305 
Q 1562 3430 1914 3430 
Q 2266 3430 2563 3305 
Q 2861 3181 3072 2950 
Q 3283 2720 3401 2397 
Q 3520 2074 3520 1677 
z
M 2726 1677 
Q 2726 2176 2512 2467 
Q 2298 2758 1914 2758 
Q 1530 2758 1315 2467 
Q 1101 2176 1101 1677 
Q 1101 1171 1315 876 
Q 1530 582 1914 582 
Q 2298 582 2512 876 
Q 2726 1171 2726 1677 
z
" transform="scale(0.015625)"/>
        <path id="Ubuntu-Medium-6e" d="M 493 3238 
Q 717 3302 1075 3360 
Q 1434 3418 1869 3418 
Q 2278 3418 2553 3306 
Q 2829 3194 2992 2992 
Q 3155 2790 3222 2505 
Q 3290 2221 3290 1882 
L 3290 0 
L 2515 0 
L 2515 1760 
Q 2515 2029 2480 2217 
Q 2445 2406 2365 2524 
Q 2285 2643 2147 2697 
Q 2010 2752 1811 2752 
Q 1664 2752 1504 2733 
Q 1344 2714 1267 2701 
L 1267 0 
L 493 0 
L 493 3238 
z
" transform="scale(0.015625)"/>
        <path id="Ubuntu-Medium-64" d="M 1101 1683 
Q 1101 1171 1344 880 
Q 1587 589 2016 589 
Q 2202 589 2333 605 
Q 2464 621 2547 640 
L 2547 2560 
Q 2445 2630 2275 2691 
Q 2106 2752 1914 2752 
Q 1491 2752 1296 2464 
Q 1101 2176 1101 1683 
z
M 3322 102 
Q 3091 32 2742 -25 
Q 2394 -83 2010 -83 
Q 1613 -83 1299 38 
Q 986 160 765 387 
Q 544 614 425 937 
Q 307 1261 307 1664 
Q 307 2061 406 2384 
Q 506 2707 698 2937 
Q 890 3168 1165 3293 
Q 1440 3418 1798 3418 
Q 2042 3418 2227 3360 
Q 2413 3302 2547 3232 
L 2547 4838 
L 3322 4966 
L 3322 102 
z
" transform="scale(0.015625)"/>
        <path id="Ubuntu-Medium-69" d="M 1274 0 
L 499 0 
L 499 3347 
L 1274 3347 
L 1274 0 
z
M 1357 4326 
Q 1357 4109 1216 3981 
Q 1075 3853 883 3853 
Q 685 3853 544 3981 
Q 403 4109 403 4326 
Q 403 4550 544 4678 
Q 685 4806 883 4806 
Q 1075 4806 1216 4678 
Q 1357 4550 1357 4326 
z
" transform="scale(0.015625)"/>
        <path id="Ubuntu-Medium-74" d="M 454 4230 
L 1229 4358 
L 1229 3347 
L 2419 3347 
L 2419 2701 
L 1229 2701 
L 1229 1338 
Q 1229 934 1357 761 
Q 1485 589 1792 589 
Q 2003 589 2166 633 
Q 2330 678 2426 717 
L 2554 102 
Q 2419 45 2201 -16 
Q 1984 -77 1690 -77 
Q 1331 -77 1091 19 
Q 851 115 710 297 
Q 570 480 512 739 
Q 454 998 454 1331 
L 454 4230 
z
" transform="scale(0.015625)"/>
       </defs>
       <use xlink:href="#Ubuntu-Medium-73"/>
       <use xlink:href="#Ubuntu-Medium-61" x="45.699997"/>
       <use xlink:href="#Ubuntu-Medium-6c" x="99.099991"/>
       <use xlink:href="#Ubuntu-Medium-65" x="128.799988"/>
       <use xlink:href="#Ubuntu-Medium-63" x="185.899979"/>
       <use xlink:href="#Ubuntu-Medium-6f" x="231.974976"/>
       <use xlink:href="#Ubuntu-Medium-6e" x="291.774963"/>
       <use xlink:href="#Ubuntu-Medium-64" x="350.274948"/>
       <use xlink:href="#Ubuntu-Medium-69" x="409.874939"/>
       <use xlink:href="#Ubuntu-Medium-74" x="437.47493"/>
       <use xlink:href="#Ubuntu-Medium-69" x="479.274918"/>
       <use xlink:href="#Ubuntu-Medium-6f" x="506.874908"/>
       <use xlink:href="#Ubuntu-Medium-6e" x="566.674896"/>
      </g>
     </g>
    </g>
    <g id="ytick_3">
     <g id="line2d_8">
      <g>
       <use xlink:href="#m9efc36c745" x="93.817031" y="165.946875" style="fill: #707070; stroke: #707070"/>
      </g>
     </g>
     <g id="text_8">
      <!-- lg_bsmtunfsf -->
      <g style="fill: #4c4c4c" transform="translate(26.521875 169.438594) scale(0.09 -0.09)">
       <defs>
        <path id="Ubuntu-Medium-62" d="M 2714 1683 
Q 2714 2176 2518 2464 
Q 2323 2752 1901 2752 
Q 1709 2752 1539 2694 
Q 1370 2637 1267 2566 
L 1267 640 
Q 1350 621 1481 605 
Q 1613 589 1798 589 
Q 2227 589 2470 880 
Q 2714 1171 2714 1683 
z
M 3507 1670 
Q 3507 1267 3388 944 
Q 3270 621 3049 390 
Q 2829 160 2515 38 
Q 2202 -83 1805 -83 
Q 1421 -83 1072 -25 
Q 723 32 493 102 
L 493 4838 
L 1267 4966 
L 1267 3232 
Q 1402 3302 1597 3360 
Q 1792 3418 2029 3418 
Q 2381 3418 2659 3293 
Q 2938 3168 3123 2937 
Q 3309 2707 3408 2384 
Q 3507 2061 3507 1670 
z
" transform="scale(0.015625)"/>
        <path id="Ubuntu-Medium-6d" d="M 2400 1760 
Q 2400 2285 2269 2518 
Q 2138 2752 1779 2752 
Q 1651 2752 1497 2733 
Q 1344 2714 1267 2701 
L 1267 0 
L 493 0 
L 493 3238 
Q 717 3302 1078 3360 
Q 1440 3418 1843 3418 
Q 2189 3418 2409 3328 
Q 2630 3238 2778 3091 
Q 2848 3142 2957 3200 
Q 3066 3258 3200 3306 
Q 3334 3354 3484 3386 
Q 3635 3418 3789 3418 
Q 4179 3418 4432 3306 
Q 4685 3194 4829 2992 
Q 4973 2790 5027 2505 
Q 5082 2221 5082 1882 
L 5082 0 
L 4307 0 
L 4307 1760 
Q 4307 2285 4179 2518 
Q 4051 2752 3686 2752 
Q 3501 2752 3334 2691 
Q 3168 2630 3085 2573 
Q 3136 2413 3155 2233 
Q 3174 2054 3174 1850 
L 3174 0 
L 2400 0 
L 2400 1760 
z
" transform="scale(0.015625)"/>
        <path id="Ubuntu-Medium-75" d="M 3238 102 
Q 3014 45 2656 -16 
Q 2298 -77 1869 -77 
Q 1466 -77 1194 38 
Q 922 154 758 358 
Q 595 563 524 848 
Q 454 1133 454 1472 
L 454 3347 
L 1229 3347 
L 1229 1594 
Q 1229 1056 1385 825 
Q 1542 595 1933 595 
Q 2074 595 2230 608 
Q 2387 621 2464 640 
L 2464 3347 
L 3238 3347 
L 3238 102 
z
" transform="scale(0.015625)"/>
        <path id="Ubuntu-Medium-66" d="M 1856 4966 
Q 2125 4966 2329 4918 
Q 2534 4870 2637 4832 
L 2490 4192 
Q 2381 4243 2237 4275 
Q 2093 4307 1926 4307 
Q 1741 4307 1613 4252 
Q 1485 4198 1408 4102 
Q 1331 4006 1299 3868 
Q 1267 3731 1267 3571 
L 1267 3347 
L 2483 3347 
L 2483 2701 
L 1267 2701 
L 1267 0 
L 493 0 
L 493 3584 
Q 493 4230 832 4598 
Q 1171 4966 1856 4966 
z
" transform="scale(0.015625)"/>
       </defs>
       <use xlink:href="#Ubuntu-Medium-6c"/>
       <use xlink:href="#Ubuntu-Medium-67" x="29.699997"/>
       <use xlink:href="#Ubuntu-Medium-5f" x="88.299988"/>
       <use xlink:href="#Ubuntu-Medium-62" x="138.299973"/>
       <use xlink:href="#Ubuntu-Medium-73" x="197.899963"/>
       <use xlink:href="#Ubuntu-Medium-6d" x="243.59996"/>
       <use xlink:href="#Ubuntu-Medium-74" x="330.099945"/>
       <use xlink:href="#Ubuntu-Medium-75" x="371.899933"/>
       <use xlink:href="#Ubuntu-Medium-6e" x="430.199921"/>
       <use xlink:href="#Ubuntu-Medium-66" x="488.699905"/>
       <use xlink:href="#Ubuntu-Medium-73" x="528.69989"/>
       <use xlink:href="#Ubuntu-Medium-66" x="574.399887"/>
      </g>
     </g>
    </g>
    <g id="ytick_4">
     <g id="line2d_9">
      <g>
       <use xlink:href="#m9efc36c745" x="93.817031" y="150.546875" style="fill: #707070; stroke: #707070"/>
      </g>
     </g>
     <g id="text_9">
      <!-- lg_lotarea -->
      <g style="fill: #4c4c4c" transform="translate(39.175312 154.038594) scale(0.09 -0.09)">
       <use xlink:href="#Ubuntu-Medium-6c"/>
       <use xlink:href="#Ubuntu-Medium-67" x="29.699997"/>
       <use xlink:href="#Ubuntu-Medium-5f" x="88.299988"/>
       <use xlink:href="#Ubuntu-Medium-6c" x="138.299973"/>
       <use xlink:href="#Ubuntu-Medium-6f" x="167.999969"/>
       <use xlink:href="#Ubuntu-Medium-74" x="227.799957"/>
       <use xlink:href="#Ubuntu-Medium-61" x="269.599945"/>
       <use xlink:href="#Ubuntu-Medium-72" x="322.999939"/>
       <use xlink:href="#Ubuntu-Medium-65" x="363.299927"/>
       <use xlink:href="#Ubuntu-Medium-61" x="420.399918"/>
      </g>
     </g>
    </g>
    <g id="ytick_5">
     <g id="line2d_10">
      <g>
       <use xlink:href="#m9efc36c745" x="93.817031" y="135.146875" style="fill: #707070; stroke: #707070"/>
      </g>
     </g>
     <g id="text_10">
      <!-- lg_bsmtfinsf_first -->
      <g style="fill: #4c4c4c" transform="translate(7.2 138.638594) scale(0.09 -0.09)">
       <use xlink:href="#Ubuntu-Medium-6c"/>
       <use xlink:href="#Ubuntu-Medium-67" x="29.699997"/>
       <use xlink:href="#Ubuntu-Medium-5f" x="88.299988"/>
       <use xlink:href="#Ubuntu-Medium-62" x="138.299973"/>
       <use xlink:href="#Ubuntu-Medium-73" x="197.899963"/>
       <use xlink:href="#Ubuntu-Medium-6d" x="243.59996"/>
       <use xlink:href="#Ubuntu-Medium-74" x="330.099945"/>
       <use xlink:href="#Ubuntu-Medium-66" x="371.899933"/>
       <use xlink:href="#Ubuntu-Medium-69" x="411.899918"/>
       <use xlink:href="#Ubuntu-Medium-6e" x="439.499908"/>
       <use xlink:href="#Ubuntu-Medium-73" x="497.999893"/>
       <use xlink:href="#Ubuntu-Medium-66" x="543.69989"/>
       <use xlink:href="#Ubuntu-Medium-5f" x="583.699875"/>
       <use xlink:href="#Ubuntu-Medium-66" x="633.69986"/>
       <use xlink:href="#Ubuntu-Medium-69" x="673.699844"/>
       <use xlink:href="#Ubuntu-Medium-72" x="701.299835"/>
       <use xlink:href="#Ubuntu-Medium-73" x="741.599823"/>
       <use xlink:href="#Ubuntu-Medium-74" x="787.29982"/>
      </g>
     </g>
    </g>
    <g id="ytick_6">
     <g id="line2d_11">
      <g>
       <use xlink:href="#m9efc36c745" x="93.817031" y="119.746875" style="fill: #707070; stroke: #707070"/>
      </g>
     </g>
     <g id="text_11">
      <!-- mszoning -->
      <g style="fill: #4c4c4c" transform="translate(42.051094 123.225234) scale(0.09 -0.09)">
       <defs>
        <path id="Ubuntu-Medium-7a" d="M 2835 2803 
Q 2707 2669 2499 2425 
Q 2291 2182 2054 1884 
Q 1818 1587 1578 1264 
Q 1338 941 1146 646 
L 2874 646 
L 2874 0 
L 211 0 
L 211 480 
Q 352 736 563 1037 
Q 774 1338 998 1642 
Q 1222 1946 1443 2221 
Q 1664 2496 1837 2701 
L 294 2701 
L 294 3347 
L 2835 3347 
L 2835 2803 
z
" transform="scale(0.015625)"/>
       </defs>
       <use xlink:href="#Ubuntu-Medium-6d"/>
       <use xlink:href="#Ubuntu-Medium-73" x="86.499985"/>
       <use xlink:href="#Ubuntu-Medium-7a" x="132.199982"/>
       <use xlink:href="#Ubuntu-Medium-6f" x="178.849976"/>
       <use xlink:href="#Ubuntu-Medium-6e" x="238.649963"/>
       <use xlink:href="#Ubuntu-Medium-69" x="297.149948"/>
       <use xlink:href="#Ubuntu-Medium-6e" x="324.749939"/>
       <use xlink:href="#Ubuntu-Medium-67" x="383.249924"/>
      </g>
     </g>
    </g>
    <g id="ytick_7">
     <g id="line2d_12">
      <g>
       <use xlink:href="#m9efc36c745" x="93.817031" y="104.346875" style="fill: #707070; stroke: #707070"/>
      </g>
     </g>
     <g id="text_12">
      <!-- functional -->
      <g style="fill: #4c4c4c" transform="translate(39.085312 107.838594) scale(0.09 -0.09)">
       <use xlink:href="#Ubuntu-Medium-66"/>
       <use xlink:href="#Ubuntu-Medium-75" x="39.999985"/>
       <use xlink:href="#Ubuntu-Medium-6e" x="98.299973"/>
       <use xlink:href="#Ubuntu-Medium-63" x="156.799957"/>
       <use xlink:href="#Ubuntu-Medium-74" x="203.999954"/>
       <use xlink:href="#Ubuntu-Medium-69" x="245.799942"/>
       <use xlink:href="#Ubuntu-Medium-6f" x="273.399933"/>
       <use xlink:href="#Ubuntu-Medium-6e" x="333.199921"/>
       <use xlink:href="#Ubuntu-Medium-61" x="391.699905"/>
       <use xlink:href="#Ubuntu-Medium-6c" x="445.099899"/>
      </g>
     </g>
    </g>
    <g id="ytick_8">
     <g id="line2d_13">
      <g>
       <use xlink:href="#m9efc36c745" x="93.817031" y="88.946875" style="fill: #707070; stroke: #707070"/>
      </g>
     </g>
     <g id="text_13">
      <!-- price_pred_lr -->
      <g style="fill: #4c4c4c" transform="translate(26.164687 92.438594) scale(0.09 -0.09)">
       <defs>
        <path id="Ubuntu-Medium-70" d="M 2714 1658 
Q 2714 2176 2480 2464 
Q 2246 2752 1728 2752 
Q 1619 2752 1500 2742 
Q 1382 2733 1267 2701 
L 1267 787 
Q 1370 717 1539 656 
Q 1709 595 1901 595 
Q 2323 595 2518 883 
Q 2714 1171 2714 1658 
z
M 3507 1670 
Q 3507 1286 3408 966 
Q 3309 646 3123 416 
Q 2938 186 2659 58 
Q 2381 -70 2029 -70 
Q 1792 -70 1593 -12 
Q 1395 45 1267 115 
L 1267 -1184 
L 493 -1184 
L 493 3238 
Q 730 3302 1075 3360 
Q 1421 3418 1805 3418 
Q 2202 3418 2515 3296 
Q 2829 3174 3049 2947 
Q 3270 2720 3388 2397 
Q 3507 2074 3507 1670 
z
" transform="scale(0.015625)"/>
       </defs>
       <use xlink:href="#Ubuntu-Medium-70"/>
       <use xlink:href="#Ubuntu-Medium-72" x="59.599991"/>
       <use xlink:href="#Ubuntu-Medium-69" x="99.899979"/>
       <use xlink:href="#Ubuntu-Medium-63" x="127.499969"/>
       <use xlink:href="#Ubuntu-Medium-65" x="174.699966"/>
       <use xlink:href="#Ubuntu-Medium-5f" x="231.799957"/>
       <use xlink:href="#Ubuntu-Medium-70" x="281.799942"/>
       <use xlink:href="#Ubuntu-Medium-72" x="341.399933"/>
       <use xlink:href="#Ubuntu-Medium-65" x="381.699921"/>
       <use xlink:href="#Ubuntu-Medium-64" x="438.799911"/>
       <use xlink:href="#Ubuntu-Medium-5f" x="498.399902"/>
       <use xlink:href="#Ubuntu-Medium-6c" x="548.399887"/>
       <use xlink:href="#Ubuntu-Medium-72" x="578.099884"/>
      </g>
     </g>
    </g>
    <g id="ytick_9">
     <g id="line2d_14">
      <g>
       <use xlink:href="#m9efc36c745" x="93.817031" y="73.546875" style="fill: #707070; stroke: #707070"/>
      </g>
     </g>
     <g id="text_14">
      <!-- bedroomsize -->
      <g style="fill: #4c4c4c" transform="translate(27.842344 77.038594) scale(0.09 -0.09)">
       <use xlink:href="#Ubuntu-Medium-62"/>
       <use xlink:href="#Ubuntu-Medium-65" x="59.599991"/>
       <use xlink:href="#Ubuntu-Medium-64" x="116.699982"/>
       <use xlink:href="#Ubuntu-Medium-72" x="176.299973"/>
       <use xlink:href="#Ubuntu-Medium-6f" x="216.59996"/>
       <use xlink:href="#Ubuntu-Medium-6f" x="276.399948"/>
       <use xlink:href="#Ubuntu-Medium-6d" x="336.199936"/>
       <use xlink:href="#Ubuntu-Medium-73" x="422.699921"/>
       <use xlink:href="#Ubuntu-Medium-69" x="468.399918"/>
       <use xlink:href="#Ubuntu-Medium-7a" x="495.999908"/>
       <use xlink:href="#Ubuntu-Medium-65" x="542.649902"/>
      </g>
     </g>
    </g>
    <g id="ytick_10">
     <g id="line2d_15">
      <g>
       <use xlink:href="#m9efc36c745" x="93.817031" y="58.146875" style="fill: #707070; stroke: #707070"/>
      </g>
     </g>
     <g id="text_15">
      <!-- neighborhood -->
      <g style="fill: #4c4c4c" transform="translate(22.681406 61.638594) scale(0.09 -0.09)">
       <defs>
        <path id="Ubuntu-Medium-68" d="M 493 0 
L 493 4838 
L 1267 4966 
L 1267 3309 
Q 1395 3354 1564 3386 
Q 1734 3418 1901 3418 
Q 2304 3418 2569 3306 
Q 2835 3194 2995 2992 
Q 3155 2790 3222 2508 
Q 3290 2227 3290 1882 
L 3290 0 
L 2515 0 
L 2515 1760 
Q 2515 2029 2480 2217 
Q 2445 2406 2365 2524 
Q 2285 2643 2150 2697 
Q 2016 2752 1818 2752 
Q 1664 2752 1504 2720 
Q 1344 2688 1267 2662 
L 1267 0 
L 493 0 
z
" transform="scale(0.015625)"/>
       </defs>
       <use xlink:href="#Ubuntu-Medium-6e"/>
       <use xlink:href="#Ubuntu-Medium-65" x="58.499985"/>
       <use xlink:href="#Ubuntu-Medium-69" x="115.599976"/>
       <use xlink:href="#Ubuntu-Medium-67" x="143.199966"/>
       <use xlink:href="#Ubuntu-Medium-68" x="201.799957"/>
       <use xlink:href="#Ubuntu-Medium-62" x="259.999954"/>
       <use xlink:href="#Ubuntu-Medium-6f" x="319.599945"/>
       <use xlink:href="#Ubuntu-Medium-72" x="379.399933"/>
       <use xlink:href="#Ubuntu-Medium-68" x="419.699921"/>
       <use xlink:href="#Ubuntu-Medium-6f" x="477.899918"/>
       <use xlink:href="#Ubuntu-Medium-6f" x="537.699905"/>
       <use xlink:href="#Ubuntu-Medium-64" x="597.499893"/>
      </g>
     </g>
    </g>
   </g>
   <g id="PathCollection_1">
    <defs>
     <path id="m4c158cdb66" d="M 0 1.224745 
C 0.324806 1.224745 0.636353 1.095698 0.866025 0.866025 
C 1.095698 0.636353 1.224745 0.324806 1.224745 0 
C 1.224745 -0.324806 1.095698 -0.636353 0.866025 -0.866025 
C 0.636353 -1.095698 0.324806 -1.224745 0 -1.224745 
C -0.324806 -1.224745 -0.636353 -1.095698 -0.866025 -0.866025 
C -1.095698 -0.636353 -1.224745 -0.324806 -1.224745 0 
C -1.224745 0.324806 -1.095698 0.636353 -0.866025 0.866025 
C -0.636353 1.095698 -0.324806 1.224745 0 1.224745 
z
" style="stroke: #5d5d5d; stroke-width: 0.5"/>
    </defs>
    <g>
     <use xlink:href="#m4c158cdb66" x="192.517031" y="196.746875" style="fill: #5d5d5d; stroke: #5d5d5d; stroke-width: 0.5"/>
     <use xlink:href="#m4c158cdb66" x="192.517031" y="181.346875" style="fill: #5d5d5d; stroke: #5d5d5d; stroke-width: 0.5"/>
     <use xlink:href="#m4c158cdb66" x="192.517031" y="165.946875" style="fill: #5d5d5d; stroke: #5d5d5d; stroke-width: 0.5"/>
     <use xlink:href="#m4c158cdb66" x="234.367031" y="150.546875" style="fill: #5d5d5d; stroke: #5d5d5d; stroke-width: 0.5"/>
     <use xlink:href="#m4c158cdb66" x="234.367031" y="135.146875" style="fill: #5d5d5d; stroke: #5d5d5d; stroke-width: 0.5"/>
     <use xlink:href="#m4c158cdb66" x="234.367031" y="119.746875" style="fill: #5d5d5d; stroke: #5d5d5d; stroke-width: 0.5"/>
     <use xlink:href="#m4c158cdb66" x="234.367031" y="104.346875" style="fill: #5d5d5d; stroke: #5d5d5d; stroke-width: 0.5"/>
     <use xlink:href="#m4c158cdb66" x="234.367031" y="88.946875" style="fill: #5d5d5d; stroke: #5d5d5d; stroke-width: 0.5"/>
     <use xlink:href="#m4c158cdb66" x="234.367031" y="73.546875" style="fill: #5d5d5d; stroke: #5d5d5d; stroke-width: 0.5"/>
     <use xlink:href="#m4c158cdb66" x="276.217031" y="58.146875" style="fill: #5d5d5d; stroke: #5d5d5d; stroke-width: 0.5"/>
    </g>
   </g>
   <g id="LineCollection_1">
    <path d="M 108.817031 196.746875 
L 192.517031 196.746875 
" style="fill: none; stroke: #aeaeae; stroke-opacity: 0.25; stroke-width: 0.5"/>
    <path d="M 108.817031 181.346875 
L 192.517031 181.346875 
" style="fill: none; stroke: #aeaeae; stroke-opacity: 0.25; stroke-width: 0.5"/>
    <path d="M 108.817031 165.946875 
L 192.517031 165.946875 
" style="fill: none; stroke: #aeaeae; stroke-opacity: 0.25; stroke-width: 0.5"/>
    <path d="M 108.817031 150.546875 
L 234.367031 150.546875 
" style="fill: none; stroke: #aeaeae; stroke-opacity: 0.25; stroke-width: 0.5"/>
    <path d="M 108.817031 135.146875 
L 234.367031 135.146875 
" style="fill: none; stroke: #aeaeae; stroke-opacity: 0.25; stroke-width: 0.5"/>
    <path d="M 108.817031 119.746875 
L 234.367031 119.746875 
" style="fill: none; stroke: #aeaeae; stroke-opacity: 0.25; stroke-width: 0.5"/>
    <path d="M 108.817031 104.346875 
L 234.367031 104.346875 
" style="fill: none; stroke: #aeaeae; stroke-opacity: 0.25; stroke-width: 0.5"/>
    <path d="M 108.817031 88.946875 
L 234.367031 88.946875 
" style="fill: none; stroke: #aeaeae; stroke-opacity: 0.25; stroke-width: 0.5"/>
    <path d="M 108.817031 73.546875 
L 234.367031 73.546875 
" style="fill: none; stroke: #aeaeae; stroke-opacity: 0.25; stroke-width: 0.5"/>
    <path d="M 108.817031 58.146875 
L 276.217031 58.146875 
" style="fill: none; stroke: #aeaeae; stroke-opacity: 0.25; stroke-width: 0.5"/>
   </g>
   <g id="patch_3">
    <path d="M 93.817031 196.746875 
L 93.817031 58.146875 
" style="fill: none; stroke: #707070; stroke-linejoin: miter; stroke-linecap: square"/>
   </g>
   <g id="patch_4">
    <path d="M 108.817031 43.146875 
L 276.217031 43.146875 
" style="fill: none; stroke: #707070; stroke-linejoin: miter; stroke-linecap: square"/>
   </g>
   <g id="text_16">
    <!-- Feature importance -->
    <g style="fill: #303030" transform="translate(108.817031 14.959375) scale(0.1 -0.1)">
     <defs>
      <path id="Ubuntu-Medium-46" d="M 531 0 
L 531 4435 
L 3334 4435 
L 3334 3750 
L 1338 3750 
L 1338 2618 
L 3110 2618 
L 3110 1933 
L 1338 1933 
L 1338 0 
L 531 0 
z
" transform="scale(0.015625)"/>
      <path id="Ubuntu-Medium-20" transform="scale(0.015625)"/>
     </defs>
     <use xlink:href="#Ubuntu-Medium-46"/>
     <use xlink:href="#Ubuntu-Medium-65" x="53.849991"/>
     <use xlink:href="#Ubuntu-Medium-61" x="110.949982"/>
     <use xlink:href="#Ubuntu-Medium-74" x="164.349976"/>
     <use xlink:href="#Ubuntu-Medium-75" x="206.149963"/>
     <use xlink:href="#Ubuntu-Medium-72" x="264.449951"/>
     <use xlink:href="#Ubuntu-Medium-65" x="304.749939"/>
     <use xlink:href="#Ubuntu-Medium-20" x="361.84993"/>
     <use xlink:href="#Ubuntu-Medium-69" x="385.149918"/>
     <use xlink:href="#Ubuntu-Medium-6d" x="412.749908"/>
     <use xlink:href="#Ubuntu-Medium-70" x="499.249893"/>
     <use xlink:href="#Ubuntu-Medium-6f" x="558.849884"/>
     <use xlink:href="#Ubuntu-Medium-72" x="618.649872"/>
     <use xlink:href="#Ubuntu-Medium-74" x="658.94986"/>
     <use xlink:href="#Ubuntu-Medium-61" x="700.749847"/>
     <use xlink:href="#Ubuntu-Medium-6e" x="754.149841"/>
     <use xlink:href="#Ubuntu-Medium-63" x="812.649826"/>
     <use xlink:href="#Ubuntu-Medium-65" x="859.849823"/>
    </g>
   </g>
  </g>
 </g>
</svg>
