<?xml version="1.0" encoding="utf-8" standalone="no"?>
<!DOCTYPE svg PUBLIC "-//W3C//DTD SVG 1.1//EN"
  "http://www.w3.org/Graphics/SVG/1.1/DTD/svg11.dtd">
<svg xmlns:xlink="http://www.w3.org/1999/xlink" width="487.805pt" height="212.504844pt" viewBox="0 0 487.805 212.504844" xmlns="http://www.w3.org/2000/svg" version="1.1">
 <metadata>
  <rdf:RDF xmlns:dc="http://purl.org/dc/elements/1.1/" xmlns:cc="http://creativecommons.org/ns#" xmlns:rdf="http://www.w3.org/1999/02/22-rdf-syntax-ns#">
   <cc:Work>
    <dc:type rdf:resource="http://purl.org/dc/dcmitype/StillImage"/>
    <dc:date>2024-02-21T18:39:04.942006</dc:date>
    <dc:format>image/svg+xml</dc:format>
    <dc:creator>
     <cc:Agent>
      <dc:title>Matplotlib v3.8.0, https://matplotlib.org/</dc:title>
     </cc:Agent>
    </dc:creator>
   </cc:Work>
  </rdf:RDF>
 </metadata>
 <defs>
  <style type="text/css">*{stroke-linejoin: round; stroke-linecap: butt}</style>
 </defs>
 <g id="figure_1">
  <g id="patch_1">
   <path d="M 0 212.504844 
L 487.805 212.504844 
L 487.805 0 
L 0 0 
L 0 212.504844 
z
" style="fill: none"/>
  </g>
  <g id="axes_1">
   <g id="patch_2">
    <path d="M 34.205 168.629688 
L 480.605 168.629688 
L 480.605 30.029688 
L 34.205 30.029688 
L 34.205 168.629688 
z
" style="fill: none"/>
   </g>
   <g id="matplotlib.axis_1">
    <g id="xtick_1">
     <g id="line2d_1">
      <defs>
       <path id="m4925e05d5c" d="M 0 0 
L 0 3 
" style="stroke: #bbbbbb; stroke-width: 0.75"/>
      </defs>
      <g>
       <use xlink:href="#m4925e05d5c" x="47.334412" y="183.629688" style="fill: #bbbbbb; stroke: #bbbbbb; stroke-width: 0.75"/>
      </g>
     </g>
     <g id="text_1">
      <!-- Stacking -->
      <g style="fill: #4c4c4c" transform="translate(29.505974 203.613125) scale(0.09 -0.09)">
       <defs>
        <path id="Ubuntu-Medium-53" d="M 1606 602 
Q 2042 602 2240 749 
Q 2438 896 2438 1165 
Q 2438 1325 2371 1440 
Q 2304 1555 2179 1648 
Q 2054 1741 1875 1821 
Q 1696 1901 1466 1978 
Q 1235 2061 1020 2160 
Q 806 2259 643 2406 
Q 480 2554 381 2758 
Q 282 2963 282 3251 
Q 282 3853 698 4195 
Q 1114 4538 1830 4538 
Q 2246 4538 2569 4445 
Q 2893 4352 3078 4243 
L 2829 3590 
Q 2611 3712 2352 3776 
Q 2093 3840 1818 3840 
Q 1491 3840 1308 3705 
Q 1126 3571 1126 3328 
Q 1126 3181 1187 3075 
Q 1248 2970 1360 2886 
Q 1472 2803 1622 2732 
Q 1773 2662 1952 2598 
Q 2266 2483 2512 2364 
Q 2758 2246 2928 2083 
Q 3098 1920 3187 1699 
Q 3277 1478 3277 1165 
Q 3277 563 2851 233 
Q 2426 -96 1606 -96 
Q 1331 -96 1104 -61 
Q 877 -26 701 25 
Q 525 77 397 131 
Q 269 186 192 230 
L 429 890 
Q 602 794 896 698 
Q 1190 602 1606 602 
z
" transform="scale(0.015625)"/>
        <path id="Ubuntu-Medium-74" d="M 454 4230 
L 1229 4358 
L 1229 3347 
L 2419 3347 
L 2419 2701 
L 1229 2701 
L 1229 1338 
Q 1229 934 1357 761 
Q 1485 589 1792 589 
Q 2003 589 2166 633 
Q 2330 678 2426 717 
L 2554 102 
Q 2419 45 2201 -16 
Q 1984 -77 1690 -77 
Q 1331 -77 1091 19 
Q 851 115 710 297 
Q 570 480 512 739 
Q 454 998 454 1331 
L 454 4230 
z
" transform="scale(0.015625)"/>
        <path id="Ubuntu-Medium-61" d="M 1670 544 
Q 2029 544 2214 582 
L 2214 1440 
Q 2150 1459 2028 1478 
Q 1907 1498 1760 1498 
Q 1632 1498 1501 1478 
Q 1370 1459 1264 1408 
Q 1158 1357 1094 1264 
Q 1030 1171 1030 1030 
Q 1030 755 1203 649 
Q 1376 544 1670 544 
z
M 1606 3430 
Q 1990 3430 2252 3334 
Q 2515 3238 2672 3065 
Q 2829 2893 2896 2646 
Q 2963 2400 2963 2106 
L 2963 77 
Q 2784 38 2422 -16 
Q 2061 -70 1606 -70 
Q 1306 -70 1056 -12 
Q 806 45 630 173 
Q 454 301 355 505 
Q 256 710 256 1011 
Q 256 1299 368 1497 
Q 480 1696 672 1821 
Q 864 1946 1117 2000 
Q 1370 2054 1645 2054 
Q 1773 2054 1913 2038 
Q 2054 2022 2214 1984 
L 2214 2112 
Q 2214 2246 2182 2368 
Q 2150 2490 2070 2582 
Q 1990 2675 1859 2726 
Q 1728 2778 1530 2778 
Q 1261 2778 1037 2739 
Q 813 2701 672 2650 
L 576 3277 
Q 723 3328 1004 3379 
Q 1286 3430 1606 3430 
z
" transform="scale(0.015625)"/>
        <path id="Ubuntu-Medium-63" d="M 307 1670 
Q 307 2042 422 2365 
Q 538 2688 752 2925 
Q 966 3162 1273 3296 
Q 1581 3430 1965 3430 
Q 2438 3430 2861 3258 
L 2694 2624 
Q 2560 2682 2390 2720 
Q 2221 2758 2029 2758 
Q 1574 2758 1337 2473 
Q 1101 2189 1101 1670 
Q 1101 1171 1325 880 
Q 1549 589 2080 589 
Q 2278 589 2470 627 
Q 2662 666 2803 723 
L 2912 83 
Q 2784 19 2525 -32 
Q 2266 -83 1990 -83 
Q 1562 -83 1245 48 
Q 928 179 720 412 
Q 512 646 409 969 
Q 307 1293 307 1670 
z
" transform="scale(0.015625)"/>
        <path id="Ubuntu-Medium-6b" d="M 1267 2042 
Q 1414 2195 1580 2371 
Q 1747 2547 1907 2723 
Q 2067 2899 2211 3062 
Q 2355 3226 2458 3347 
L 3373 3347 
Q 3053 2989 2697 2605 
Q 2342 2221 1984 1856 
Q 2176 1696 2387 1469 
Q 2598 1242 2796 986 
Q 2995 730 3168 474 
Q 3341 218 3456 0 
L 2560 0 
Q 2445 198 2294 416 
Q 2144 634 1971 838 
Q 1798 1043 1619 1225 
Q 1440 1408 1267 1536 
L 1267 0 
L 493 0 
L 493 4838 
L 1267 4966 
L 1267 2042 
z
" transform="scale(0.015625)"/>
        <path id="Ubuntu-Medium-69" d="M 1274 0 
L 499 0 
L 499 3347 
L 1274 3347 
L 1274 0 
z
M 1357 4326 
Q 1357 4109 1216 3981 
Q 1075 3853 883 3853 
Q 685 3853 544 3981 
Q 403 4109 403 4326 
Q 403 4550 544 4678 
Q 685 4806 883 4806 
Q 1075 4806 1216 4678 
Q 1357 4550 1357 4326 
z
" transform="scale(0.015625)"/>
        <path id="Ubuntu-Medium-6e" d="M 493 3238 
Q 717 3302 1075 3360 
Q 1434 3418 1869 3418 
Q 2278 3418 2553 3306 
Q 2829 3194 2992 2992 
Q 3155 2790 3222 2505 
Q 3290 2221 3290 1882 
L 3290 0 
L 2515 0 
L 2515 1760 
Q 2515 2029 2480 2217 
Q 2445 2406 2365 2524 
Q 2285 2643 2147 2697 
Q 2010 2752 1811 2752 
Q 1664 2752 1504 2733 
Q 1344 2714 1267 2701 
L 1267 0 
L 493 0 
L 493 3238 
z
" transform="scale(0.015625)"/>
        <path id="Ubuntu-Medium-67" d="M 1101 1760 
Q 1101 1267 1315 1040 
Q 1530 813 1869 813 
Q 2054 813 2217 864 
Q 2381 915 2483 986 
L 2483 2720 
Q 2400 2739 2278 2755 
Q 2157 2771 1971 2771 
Q 1549 2771 1325 2492 
Q 1101 2214 1101 1760 
z
M 3258 339 
Q 3258 -461 2851 -832 
Q 2445 -1203 1606 -1203 
Q 1299 -1203 1008 -1152 
Q 717 -1101 480 -1018 
L 621 -358 
Q 819 -442 1072 -493 
Q 1325 -544 1619 -544 
Q 2086 -544 2284 -352 
Q 2483 -160 2483 218 
L 2483 346 
Q 2368 288 2179 230 
Q 1990 173 1747 173 
Q 1427 173 1161 275 
Q 896 378 707 576 
Q 518 774 412 1072 
Q 307 1370 307 1760 
Q 307 2125 419 2432 
Q 531 2739 745 2956 
Q 960 3174 1267 3296 
Q 1574 3418 1965 3418 
Q 2342 3418 2681 3360 
Q 3021 3302 3258 3238 
L 3258 339 
z
" transform="scale(0.015625)"/>
       </defs>
       <use xlink:href="#Ubuntu-Medium-53"/>
       <use xlink:href="#Ubuntu-Medium-74" x="53.999985"/>
       <use xlink:href="#Ubuntu-Medium-61" x="95.799973"/>
       <use xlink:href="#Ubuntu-Medium-63" x="149.199966"/>
       <use xlink:href="#Ubuntu-Medium-6b" x="196.399963"/>
       <use xlink:href="#Ubuntu-Medium-69" x="251.499954"/>
       <use xlink:href="#Ubuntu-Medium-6e" x="279.099945"/>
       <use xlink:href="#Ubuntu-Medium-67" x="337.59993"/>
      </g>
     </g>
    </g>
    <g id="xtick_2">
     <g id="line2d_2">
      <g>
       <use xlink:href="#m4925e05d5c" x="99.852059" y="183.629688" style="fill: #bbbbbb; stroke: #bbbbbb; stroke-width: 0.75"/>
      </g>
     </g>
     <g id="text_2">
      <!-- Voting -->
      <g style="fill: #4c4c4c" transform="translate(85.876043 203.586406) scale(0.09 -0.09)">
       <defs>
        <path id="Ubuntu-Medium-56" d="M 1798 0 
Q 1318 1037 873 2169 
Q 429 3302 45 4435 
L 934 4435 
Q 1088 3987 1248 3520 
Q 1408 3053 1568 2601 
Q 1728 2150 1888 1728 
Q 2048 1306 2202 954 
Q 2349 1306 2509 1725 
Q 2669 2144 2832 2598 
Q 2995 3053 3155 3520 
Q 3315 3987 3462 4435 
L 4326 4435 
Q 3936 3302 3494 2169 
Q 3053 1037 2573 0 
L 1798 0 
z
" transform="scale(0.015625)"/>
        <path id="Ubuntu-Medium-6f" d="M 3520 1677 
Q 3520 1280 3405 953 
Q 3290 627 3078 396 
Q 2867 166 2569 38 
Q 2272 -90 1914 -90 
Q 1555 -90 1260 38 
Q 966 166 755 396 
Q 544 627 425 953 
Q 307 1280 307 1677 
Q 307 2074 425 2397 
Q 544 2720 758 2950 
Q 973 3181 1267 3305 
Q 1562 3430 1914 3430 
Q 2266 3430 2563 3305 
Q 2861 3181 3072 2950 
Q 3283 2720 3401 2397 
Q 3520 2074 3520 1677 
z
M 2726 1677 
Q 2726 2176 2512 2467 
Q 2298 2758 1914 2758 
Q 1530 2758 1315 2467 
Q 1101 2176 1101 1677 
Q 1101 1171 1315 876 
Q 1530 582 1914 582 
Q 2298 582 2512 876 
Q 2726 1171 2726 1677 
z
" transform="scale(0.015625)"/>
       </defs>
       <use xlink:href="#Ubuntu-Medium-56"/>
       <use xlink:href="#Ubuntu-Medium-6f" x="64.299988"/>
       <use xlink:href="#Ubuntu-Medium-74" x="124.099976"/>
       <use xlink:href="#Ubuntu-Medium-69" x="165.899963"/>
       <use xlink:href="#Ubuntu-Medium-6e" x="193.499954"/>
       <use xlink:href="#Ubuntu-Medium-67" x="251.999939"/>
      </g>
     </g>
    </g>
    <g id="xtick_3">
     <g id="line2d_3">
      <g>
       <use xlink:href="#m4925e05d5c" x="152.369706" y="183.629688" style="fill: #bbbbbb; stroke: #bbbbbb; stroke-width: 0.75"/>
      </g>
     </g>
     <g id="text_3">
      <!-- SVR -->
      <g style="fill: #4c4c4c" transform="translate(143.986347 203.613125) scale(0.09 -0.09)">
       <defs>
        <path id="Ubuntu-Medium-52" d="M 1754 4480 
Q 2714 4480 3222 4128 
Q 3731 3776 3731 3053 
Q 3731 2150 2842 1830 
Q 2963 1683 3116 1472 
Q 3270 1261 3430 1014 
Q 3590 768 3737 509 
Q 3885 250 4000 0 
L 3098 0 
Q 2976 230 2835 464 
Q 2694 698 2550 918 
Q 2406 1139 2265 1334 
Q 2125 1530 2003 1683 
Q 1914 1677 1850 1677 
Q 1786 1677 1728 1677 
L 1338 1677 
L 1338 0 
L 531 0 
L 531 4371 
Q 826 4435 1158 4457 
Q 1491 4480 1754 4480 
z
M 1811 3782 
Q 1555 3782 1338 3763 
L 1338 2330 
L 1690 2330 
Q 1984 2330 2208 2362 
Q 2432 2394 2582 2477 
Q 2733 2560 2809 2701 
Q 2886 2842 2886 3059 
Q 2886 3264 2809 3405 
Q 2733 3546 2589 3629 
Q 2445 3712 2246 3747 
Q 2048 3782 1811 3782 
z
" transform="scale(0.015625)"/>
       </defs>
       <use xlink:href="#Ubuntu-Medium-53"/>
       <use xlink:href="#Ubuntu-Medium-56" x="53.999985"/>
       <use xlink:href="#Ubuntu-Medium-52" x="122.299973"/>
      </g>
     </g>
    </g>
    <g id="xtick_4">
     <g id="line2d_4">
      <g>
       <use xlink:href="#m4925e05d5c" x="204.887353" y="183.629688" style="fill: #bbbbbb; stroke: #bbbbbb; stroke-width: 0.75"/>
      </g>
     </g>
     <g id="text_4">
      <!-- LGBoost -->
      <g style="fill: #4c4c4c" transform="translate(187.314853 203.613125) scale(0.09 -0.09)">
       <defs>
        <path id="Ubuntu-Medium-4c" d="M 3334 698 
L 3334 0 
L 531 0 
L 531 4435 
L 1338 4435 
L 1338 698 
L 3334 698 
z
" transform="scale(0.015625)"/>
        <path id="Ubuntu-Medium-47" d="M 2605 3827 
Q 1920 3827 1558 3401 
Q 1197 2976 1197 2221 
Q 1197 1862 1283 1564 
Q 1370 1267 1539 1056 
Q 1709 845 1961 726 
Q 2214 608 2554 608 
Q 2765 608 2918 624 
Q 3072 640 3162 666 
L 3162 2259 
L 3968 2259 
L 3968 128 
Q 3802 64 3405 -13 
Q 3008 -90 2490 -90 
Q 2010 -90 1613 64 
Q 1216 218 937 512 
Q 659 806 505 1235 
Q 352 1664 352 2221 
Q 352 2778 521 3206 
Q 691 3635 985 3932 
Q 1280 4230 1677 4384 
Q 2074 4538 2522 4538 
Q 2829 4538 3069 4496 
Q 3309 4454 3481 4403 
Q 3654 4352 3766 4294 
Q 3878 4237 3923 4211 
L 3680 3552 
Q 3488 3667 3203 3747 
Q 2918 3827 2605 3827 
z
" transform="scale(0.015625)"/>
        <path id="Ubuntu-Medium-42" d="M 1869 -51 
Q 1517 -51 1158 -28 
Q 800 -6 531 64 
L 531 4371 
Q 672 4397 832 4419 
Q 992 4442 1158 4454 
Q 1325 4467 1488 4473 
Q 1651 4480 1798 4480 
Q 2202 4480 2547 4419 
Q 2893 4358 3145 4217 
Q 3398 4077 3539 3846 
Q 3680 3616 3680 3277 
Q 3680 2963 3529 2739 
Q 3379 2515 3110 2381 
Q 3514 2246 3706 1984 
Q 3898 1722 3898 1318 
Q 3898 634 3398 291 
Q 2899 -51 1869 -51 
z
M 1325 1997 
L 1325 646 
Q 1459 634 1612 627 
Q 1766 621 1894 621 
Q 2144 621 2358 653 
Q 2573 685 2729 765 
Q 2886 845 2979 979 
Q 3072 1114 3072 1325 
Q 3072 1702 2797 1849 
Q 2522 1997 2035 1997 
L 1325 1997 
z
M 1325 2630 
L 1894 2630 
Q 2355 2630 2617 2761 
Q 2880 2893 2880 3232 
Q 2880 3552 2608 3686 
Q 2336 3821 1901 3821 
Q 1715 3821 1571 3814 
Q 1427 3808 1325 3795 
L 1325 2630 
z
" transform="scale(0.015625)"/>
        <path id="Ubuntu-Medium-73" d="M 1331 557 
Q 1638 557 1779 630 
Q 1920 704 1920 883 
Q 1920 1050 1769 1158 
Q 1619 1267 1274 1395 
Q 1062 1472 886 1558 
Q 710 1645 582 1760 
Q 454 1875 380 2038 
Q 307 2202 307 2438 
Q 307 2899 646 3164 
Q 986 3430 1568 3430 
Q 1862 3430 2131 3376 
Q 2400 3322 2534 3270 
L 2394 2643 
Q 2266 2701 2067 2749 
Q 1869 2797 1606 2797 
Q 1370 2797 1222 2717 
Q 1075 2637 1075 2470 
Q 1075 2387 1104 2323 
Q 1133 2259 1203 2204 
Q 1274 2150 1389 2096 
Q 1504 2042 1670 1984 
Q 1946 1882 2138 1782 
Q 2330 1683 2454 1558 
Q 2579 1434 2636 1274 
Q 2694 1114 2694 890 
Q 2694 410 2339 163 
Q 1984 -83 1325 -83 
Q 883 -83 614 -9 
Q 346 64 237 109 
L 371 755 
Q 544 685 784 621 
Q 1024 557 1331 557 
z
" transform="scale(0.015625)"/>
       </defs>
       <use xlink:href="#Ubuntu-Medium-4c"/>
       <use xlink:href="#Ubuntu-Medium-47" x="49.399994"/>
       <use xlink:href="#Ubuntu-Medium-42" x="117.699982"/>
       <use xlink:href="#Ubuntu-Medium-6f" x="183.399979"/>
       <use xlink:href="#Ubuntu-Medium-6f" x="243.199966"/>
       <use xlink:href="#Ubuntu-Medium-73" x="302.999954"/>
       <use xlink:href="#Ubuntu-Medium-74" x="348.699951"/>
      </g>
     </g>
    </g>
    <g id="xtick_5">
     <g id="line2d_5">
      <g>
       <use xlink:href="#m4925e05d5c" x="257.405" y="183.629688" style="fill: #bbbbbb; stroke: #bbbbbb; stroke-width: 0.75"/>
      </g>
     </g>
     <g id="text_5">
      <!-- HGBoost -->
      <g style="fill: #4c4c4c" transform="translate(238.82 203.613125) scale(0.09 -0.09)">
       <defs>
        <path id="Ubuntu-Medium-48" d="M 3264 4435 
L 4070 4435 
L 4070 0 
L 3264 0 
L 3264 1965 
L 1338 1965 
L 1338 0 
L 531 0 
L 531 4435 
L 1338 4435 
L 1338 2662 
L 3264 2662 
L 3264 4435 
z
" transform="scale(0.015625)"/>
       </defs>
       <use xlink:href="#Ubuntu-Medium-48"/>
       <use xlink:href="#Ubuntu-Medium-47" x="71.899994"/>
       <use xlink:href="#Ubuntu-Medium-42" x="140.199982"/>
       <use xlink:href="#Ubuntu-Medium-6f" x="205.899979"/>
       <use xlink:href="#Ubuntu-Medium-6f" x="265.699966"/>
       <use xlink:href="#Ubuntu-Medium-73" x="325.499954"/>
       <use xlink:href="#Ubuntu-Medium-74" x="371.199951"/>
      </g>
     </g>
    </g>
    <g id="xtick_6">
     <g id="line2d_6">
      <g>
       <use xlink:href="#m4925e05d5c" x="309.922647" y="183.629688" style="fill: #bbbbbb; stroke: #bbbbbb; stroke-width: 0.75"/>
      </g>
     </g>
     <g id="text_6">
      <!-- XGBoost -->
      <g style="fill: #4c4c4c" transform="translate(291.712413 203.613125) scale(0.09 -0.09)">
       <defs>
        <path id="Ubuntu-Medium-58" d="M 3162 0 
Q 2976 378 2694 832 
Q 2413 1286 2106 1709 
Q 1978 1542 1827 1312 
Q 1677 1082 1526 842 
Q 1376 602 1248 378 
Q 1120 154 1043 0 
L 128 0 
Q 416 544 793 1117 
Q 1171 1690 1613 2317 
L 192 4435 
L 1152 4435 
L 2131 2918 
L 3098 4435 
L 4019 4435 
L 2618 2323 
Q 3104 1664 3478 1075 
Q 3853 486 4109 0 
L 3162 0 
z
" transform="scale(0.015625)"/>
       </defs>
       <use xlink:href="#Ubuntu-Medium-58"/>
       <use xlink:href="#Ubuntu-Medium-47" x="63.574997"/>
       <use xlink:href="#Ubuntu-Medium-42" x="131.874985"/>
       <use xlink:href="#Ubuntu-Medium-6f" x="197.574982"/>
       <use xlink:href="#Ubuntu-Medium-6f" x="257.374969"/>
       <use xlink:href="#Ubuntu-Medium-73" x="317.174957"/>
       <use xlink:href="#Ubuntu-Medium-74" x="362.874954"/>
      </g>
     </g>
    </g>
    <g id="xtick_7">
     <g id="line2d_7">
      <g>
       <use xlink:href="#m4925e05d5c" x="362.440294" y="183.629688" style="fill: #bbbbbb; stroke: #bbbbbb; stroke-width: 0.75"/>
      </g>
     </g>
     <g id="text_7">
      <!-- Bagging -->
      <g style="fill: #4c4c4c" transform="translate(345.295997 203.586406) scale(0.09 -0.09)">
       <use xlink:href="#Ubuntu-Medium-42"/>
       <use xlink:href="#Ubuntu-Medium-61" x="65.699997"/>
       <use xlink:href="#Ubuntu-Medium-67" x="119.099991"/>
       <use xlink:href="#Ubuntu-Medium-67" x="177.699982"/>
       <use xlink:href="#Ubuntu-Medium-69" x="236.299973"/>
       <use xlink:href="#Ubuntu-Medium-6e" x="263.899963"/>
       <use xlink:href="#Ubuntu-Medium-67" x="322.399948"/>
      </g>
     </g>
    </g>
    <g id="xtick_8">
     <g id="line2d_8">
      <g>
       <use xlink:href="#m4925e05d5c" x="414.957941" y="183.629688" style="fill: #bbbbbb; stroke: #bbbbbb; stroke-width: 0.75"/>
      </g>
     </g>
     <g id="text_8">
      <!-- RF -->
      <g style="fill: #4c4c4c" transform="translate(409.598722 203.613125) scale(0.09 -0.09)">
       <defs>
        <path id="Ubuntu-Medium-46" d="M 531 0 
L 531 4435 
L 3334 4435 
L 3334 3750 
L 1338 3750 
L 1338 2618 
L 3110 2618 
L 3110 1933 
L 1338 1933 
L 1338 0 
L 531 0 
z
" transform="scale(0.015625)"/>
       </defs>
       <use xlink:href="#Ubuntu-Medium-52"/>
       <use xlink:href="#Ubuntu-Medium-46" x="63.999985"/>
      </g>
     </g>
    </g>
    <g id="xtick_9">
     <g id="line2d_9">
      <g>
       <use xlink:href="#m4925e05d5c" x="467.475588" y="183.629688" style="fill: #bbbbbb; stroke: #bbbbbb; stroke-width: 0.75"/>
      </g>
     </g>
     <g id="text_9">
      <!-- KNN -->
      <g style="fill: #4c4c4c" transform="translate(457.886369 203.613125) scale(0.09 -0.09)">
       <defs>
        <path id="Ubuntu-Medium-4b" d="M 3181 0 
Q 3014 256 2796 537 
Q 2579 819 2339 1081 
Q 2099 1344 1843 1581 
Q 1587 1818 1338 1990 
L 1338 0 
L 531 0 
L 531 4435 
L 1338 4435 
L 1338 2605 
Q 1549 2816 1779 3056 
Q 2010 3296 2237 3542 
Q 2464 3789 2669 4019 
Q 2874 4250 3040 4435 
L 4006 4435 
Q 3795 4192 3558 3929 
Q 3322 3667 3072 3401 
Q 2822 3136 2569 2873 
Q 2317 2611 2074 2374 
Q 2342 2170 2620 1898 
Q 2899 1626 3168 1315 
Q 3437 1005 3683 669 
Q 3930 333 4134 0 
L 3181 0 
z
" transform="scale(0.015625)"/>
        <path id="Ubuntu-Medium-4e" d="M 3520 0 
Q 3302 365 3033 784 
Q 2765 1203 2477 1628 
Q 2189 2054 1891 2454 
Q 1594 2854 1325 3174 
L 1325 0 
L 531 0 
L 531 4435 
L 1190 4435 
Q 1446 4166 1740 3798 
Q 2035 3430 2332 3033 
Q 2630 2637 2908 2237 
Q 3187 1837 3405 1491 
L 3405 4435 
L 4205 4435 
L 4205 0 
L 3520 0 
z
" transform="scale(0.015625)"/>
       </defs>
       <use xlink:href="#Ubuntu-Medium-4b"/>
       <use xlink:href="#Ubuntu-Medium-4e" x="65.099991"/>
       <use xlink:href="#Ubuntu-Medium-4e" x="139.099976"/>
      </g>
     </g>
    </g>
   </g>
   <g id="matplotlib.axis_2">
    <g id="ytick_1">
     <g id="line2d_10">
      <defs>
       <path id="m74d17fa028" d="M 0 0 
L -3 0 
" style="stroke: #bbbbbb; stroke-width: 0.75"/>
      </defs>
      <g>
       <use xlink:href="#m74d17fa028" x="29.205" y="168.629688" style="fill: #bbbbbb; stroke: #bbbbbb; stroke-width: 0.75"/>
      </g>
     </g>
     <g id="text_10">
      <!-- 0.09 -->
      <g style="fill: #9f9f9f" transform="translate(7.2 171.733438) scale(0.08 -0.08)">
       <defs>
        <path id="Ubuntu-30" d="M 320 2221 
Q 320 3334 713 3936 
Q 1107 4538 1805 4538 
Q 2502 4538 2896 3936 
Q 3290 3334 3290 2221 
Q 3290 1107 2896 505 
Q 2502 -96 1805 -96 
Q 1107 -96 713 505 
Q 320 1107 320 2221 
z
M 2662 2221 
Q 2662 2586 2620 2912 
Q 2579 3238 2480 3481 
Q 2381 3725 2214 3869 
Q 2048 4013 1805 4013 
Q 1562 4013 1395 3869 
Q 1229 3725 1129 3481 
Q 1030 3238 988 2912 
Q 947 2586 947 2221 
Q 947 1856 988 1529 
Q 1030 1203 1129 960 
Q 1229 717 1395 573 
Q 1562 429 1805 429 
Q 2048 429 2214 573 
Q 2381 717 2480 960 
Q 2579 1203 2620 1529 
Q 2662 1856 2662 2221 
z
" transform="scale(0.015625)"/>
        <path id="Ubuntu-2e" d="M 1216 346 
Q 1216 173 1101 45 
Q 986 -83 787 -83 
Q 589 -83 473 45 
Q 358 173 358 346 
Q 358 518 473 646 
Q 589 774 787 774 
Q 986 774 1101 646 
Q 1216 518 1216 346 
z
" transform="scale(0.015625)"/>
        <path id="Ubuntu-39" d="M 3206 2662 
Q 3206 1344 2550 669 
Q 1894 -6 602 -13 
L 582 486 
Q 986 486 1309 563 
Q 1632 640 1875 809 
Q 2118 979 2281 1248 
Q 2445 1517 2522 1907 
Q 2355 1830 2144 1782 
Q 1933 1734 1709 1734 
Q 1331 1734 1068 1846 
Q 806 1958 640 2147 
Q 474 2336 400 2582 
Q 326 2829 326 3098 
Q 326 3334 409 3590 
Q 493 3846 662 4057 
Q 832 4269 1094 4403 
Q 1357 4538 1715 4538 
Q 2080 4538 2358 4410 
Q 2637 4282 2825 4038 
Q 3014 3795 3110 3446 
Q 3206 3098 3206 2662 
z
M 1773 2221 
Q 1997 2221 2195 2262 
Q 2394 2304 2579 2387 
Q 2586 2458 2586 2525 
Q 2586 2592 2586 2662 
Q 2586 2938 2547 3190 
Q 2509 3443 2409 3632 
Q 2310 3821 2144 3933 
Q 1978 4045 1722 4045 
Q 1510 4045 1363 3955 
Q 1216 3866 1120 3728 
Q 1024 3590 982 3427 
Q 941 3264 941 3110 
Q 941 2675 1149 2448 
Q 1357 2221 1773 2221 
z
" transform="scale(0.015625)"/>
       </defs>
       <use xlink:href="#Ubuntu-30"/>
       <use xlink:href="#Ubuntu-2e" x="56.399994"/>
       <use xlink:href="#Ubuntu-30" x="80.999985"/>
       <use xlink:href="#Ubuntu-39" x="137.399979"/>
      </g>
     </g>
    </g>
    <g id="ytick_2">
     <g id="line2d_11">
      <g>
       <use xlink:href="#m74d17fa028" x="29.205" y="140.909688" style="fill: #bbbbbb; stroke: #bbbbbb; stroke-width: 0.75"/>
      </g>
     </g>
     <g id="text_11">
      <!-- 0.10 -->
      <g style="fill: #9f9f9f" transform="translate(7.2 144.013438) scale(0.08 -0.08)">
       <defs>
        <path id="Ubuntu-31" d="M 595 3520 
Q 960 3661 1305 3881 
Q 1651 4102 1939 4435 
L 2362 4435 
L 2362 0 
L 1766 0 
L 1766 3610 
Q 1690 3539 1578 3462 
Q 1466 3386 1334 3315 
Q 1203 3245 1059 3181 
Q 915 3117 781 3072 
L 595 3520 
z
" transform="scale(0.015625)"/>
       </defs>
       <use xlink:href="#Ubuntu-30"/>
       <use xlink:href="#Ubuntu-2e" x="56.399994"/>
       <use xlink:href="#Ubuntu-31" x="80.999985"/>
       <use xlink:href="#Ubuntu-30" x="137.399979"/>
      </g>
     </g>
    </g>
    <g id="ytick_3">
     <g id="line2d_12">
      <g>
       <use xlink:href="#m74d17fa028" x="29.205" y="113.189688" style="fill: #bbbbbb; stroke: #bbbbbb; stroke-width: 0.75"/>
      </g>
     </g>
     <g id="text_12">
      <!-- 0.11 -->
      <g style="fill: #9f9f9f" transform="translate(7.2 116.293438) scale(0.08 -0.08)">
       <use xlink:href="#Ubuntu-30"/>
       <use xlink:href="#Ubuntu-2e" x="56.399994"/>
       <use xlink:href="#Ubuntu-31" x="80.999985"/>
       <use xlink:href="#Ubuntu-31" x="137.399979"/>
      </g>
     </g>
    </g>
    <g id="ytick_4">
     <g id="line2d_13">
      <g>
       <use xlink:href="#m74d17fa028" x="29.205" y="85.469688" style="fill: #bbbbbb; stroke: #bbbbbb; stroke-width: 0.75"/>
      </g>
     </g>
     <g id="text_13">
      <!-- 0.12 -->
      <g style="fill: #9f9f9f" transform="translate(7.2 88.573438) scale(0.08 -0.08)">
       <defs>
        <path id="Ubuntu-32" d="M 2989 3302 
Q 2989 3072 2896 2857 
Q 2803 2643 2649 2435 
Q 2496 2227 2304 2025 
Q 2112 1824 1920 1632 
Q 1811 1523 1667 1376 
Q 1523 1229 1395 1069 
Q 1267 909 1180 761 
Q 1094 614 1094 506 
L 3136 506 
L 3136 0 
L 448 0 
Q 442 38 442 76 
Q 442 115 442 147 
Q 442 448 541 707 
Q 640 966 800 1196 
Q 960 1427 1158 1632 
Q 1357 1837 1549 2029 
Q 1709 2182 1853 2332 
Q 1997 2483 2109 2633 
Q 2221 2784 2288 2944 
Q 2355 3104 2355 3283 
Q 2355 3475 2294 3609 
Q 2234 3744 2131 3833 
Q 2029 3923 1891 3964 
Q 1754 4006 1600 4006 
Q 1414 4006 1260 3955 
Q 1107 3904 985 3837 
Q 864 3770 781 3696 
Q 698 3622 653 3584 
L 358 4006 
Q 416 4070 531 4163 
Q 646 4256 806 4339 
Q 966 4422 1164 4480 
Q 1363 4538 1594 4538 
Q 2291 4538 2640 4214 
Q 2989 3891 2989 3302 
z
" transform="scale(0.015625)"/>
       </defs>
       <use xlink:href="#Ubuntu-30"/>
       <use xlink:href="#Ubuntu-2e" x="56.399994"/>
       <use xlink:href="#Ubuntu-31" x="80.999985"/>
       <use xlink:href="#Ubuntu-32" x="137.399979"/>
      </g>
     </g>
    </g>
    <g id="ytick_5">
     <g id="line2d_14">
      <g>
       <use xlink:href="#m74d17fa028" x="29.205" y="57.749688" style="fill: #bbbbbb; stroke: #bbbbbb; stroke-width: 0.75"/>
      </g>
     </g>
     <g id="text_14">
      <!-- 0.13 -->
      <g style="fill: #9f9f9f" transform="translate(7.2 60.853438) scale(0.08 -0.08)">
       <defs>
        <path id="Ubuntu-33" d="M 1446 435 
Q 2016 435 2262 659 
Q 2509 883 2509 1261 
Q 2509 1504 2406 1670 
Q 2304 1837 2137 1936 
Q 1971 2035 1750 2076 
Q 1530 2118 1299 2118 
L 1146 2118 
L 1146 2605 
L 1357 2605 
Q 1517 2605 1686 2637 
Q 1856 2669 1997 2752 
Q 2138 2835 2227 2979 
Q 2317 3123 2317 3341 
Q 2317 3520 2253 3648 
Q 2189 3776 2083 3859 
Q 1978 3942 1840 3977 
Q 1702 4013 1549 4013 
Q 1242 4013 1027 3923 
Q 813 3834 666 3738 
L 435 4192 
Q 512 4243 630 4304 
Q 749 4365 896 4416 
Q 1043 4467 1212 4502 
Q 1382 4538 1568 4538 
Q 1920 4538 2176 4451 
Q 2432 4365 2598 4208 
Q 2765 4051 2848 3836 
Q 2931 3622 2931 3373 
Q 2931 3027 2732 2780 
Q 2534 2534 2253 2406 
Q 2426 2355 2586 2259 
Q 2746 2163 2864 2016 
Q 2982 1869 3056 1677 
Q 3130 1485 3130 1248 
Q 3130 960 3030 713 
Q 2931 467 2723 288 
Q 2515 109 2201 6 
Q 1888 -96 1459 -96 
Q 1293 -96 1117 -70 
Q 941 -45 787 -6 
Q 634 32 518 70 
Q 403 109 352 134 
L 467 653 
Q 576 602 829 518 
Q 1082 435 1446 435 
z
" transform="scale(0.015625)"/>
       </defs>
       <use xlink:href="#Ubuntu-30"/>
       <use xlink:href="#Ubuntu-2e" x="56.399994"/>
       <use xlink:href="#Ubuntu-31" x="80.999985"/>
       <use xlink:href="#Ubuntu-33" x="137.399979"/>
      </g>
     </g>
    </g>
    <g id="ytick_6">
     <g id="line2d_15">
      <g>
       <use xlink:href="#m74d17fa028" x="29.205" y="30.029688" style="fill: #bbbbbb; stroke: #bbbbbb; stroke-width: 0.75"/>
      </g>
     </g>
     <g id="text_15">
      <!-- 0.14 -->
      <g style="fill: #9f9f9f" transform="translate(7.2 33.133437) scale(0.08 -0.08)">
       <defs>
        <path id="Ubuntu-34" d="M 256 1536 
Q 378 1818 589 2192 
Q 800 2566 1065 2963 
Q 1331 3360 1635 3744 
Q 1939 4128 2246 4435 
L 2816 4435 
L 2816 1619 
L 3341 1619 
L 3341 1133 
L 2816 1133 
L 2816 0 
L 2240 0 
L 2240 1133 
L 256 1133 
L 256 1536 
z
M 2240 3731 
Q 2048 3526 1853 3273 
Q 1658 3021 1472 2745 
Q 1286 2470 1123 2182 
Q 960 1894 832 1619 
L 2240 1619 
L 2240 3731 
z
" transform="scale(0.015625)"/>
       </defs>
       <use xlink:href="#Ubuntu-30"/>
       <use xlink:href="#Ubuntu-2e" x="56.399994"/>
       <use xlink:href="#Ubuntu-31" x="80.999985"/>
       <use xlink:href="#Ubuntu-34" x="137.399979"/>
      </g>
     </g>
    </g>
   </g>
   <g id="PathCollection_1">
    <defs>
     <path id="m67193434a8" d="M 0 2.5 
C 0.663008 2.5 1.29895 2.236584 1.767767 1.767767 
C 2.236584 1.29895 2.5 0.663008 2.5 0 
C 2.5 -0.663008 2.236584 -1.29895 1.767767 -1.767767 
C 1.29895 -2.236584 0.663008 -2.5 0 -2.5 
C -0.663008 -2.5 -1.29895 -2.236584 -1.767767 -1.767767 
C -2.236584 -1.29895 -2.5 -0.663008 -2.5 0 
C -2.5 0.663008 -2.236584 1.29895 -1.767767 1.767767 
C -1.29895 2.236584 -0.663008 2.5 0 2.5 
z
" style="stroke: #fefefe; stroke-opacity: 0.9"/>
    </defs>
    <g clip-path="url(#p9d13b114bb)">
     <use xlink:href="#m67193434a8" x="47.334412" y="116.840857" style="fill: #5d5d5d; fill-opacity: 0.9; stroke: #fefefe; stroke-opacity: 0.9"/>
     <use xlink:href="#m67193434a8" x="99.852059" y="113.505759" style="fill: #5d5d5d; fill-opacity: 0.9; stroke: #fefefe; stroke-opacity: 0.9"/>
     <use xlink:href="#m67193434a8" x="152.369706" y="107.961614" style="fill: #5d5d5d; fill-opacity: 0.9; stroke: #fefefe; stroke-opacity: 0.9"/>
     <use xlink:href="#m67193434a8" x="204.887353" y="107.20062" style="fill: #5d5d5d; fill-opacity: 0.9; stroke: #fefefe; stroke-opacity: 0.9"/>
     <use xlink:href="#m67193434a8" x="257.405" y="104.119753" style="fill: #5d5d5d; fill-opacity: 0.9; stroke: #fefefe; stroke-opacity: 0.9"/>
     <use xlink:href="#m67193434a8" x="309.922647" y="98.693945" style="fill: #5d5d5d; fill-opacity: 0.9; stroke: #fefefe; stroke-opacity: 0.9"/>
     <use xlink:href="#m67193434a8" x="362.440294" y="92.05492" style="fill: #5d5d5d; fill-opacity: 0.9; stroke: #fefefe; stroke-opacity: 0.9"/>
     <use xlink:href="#m67193434a8" x="414.957941" y="90.378814" style="fill: #5d5d5d; fill-opacity: 0.9; stroke: #fefefe; stroke-opacity: 0.9"/>
     <use xlink:href="#m67193434a8" x="467.475588" y="82.44683" style="fill: #5d5d5d; fill-opacity: 0.9; stroke: #fefefe; stroke-opacity: 0.9"/>
    </g>
   </g>
   <g id="LineCollection_1">
    <path d="M 47.334412 145.973205 
L 47.334412 87.708509 
" clip-path="url(#p9d13b114bb)" style="fill: none; stroke: #5d5d5d; stroke-opacity: 0.9"/>
    <path d="M 99.852059 144.406951 
L 99.852059 82.604566 
" clip-path="url(#p9d13b114bb)" style="fill: none; stroke: #5d5d5d; stroke-opacity: 0.9"/>
    <path d="M 152.369706 134.652717 
L 152.369706 81.270512 
" clip-path="url(#p9d13b114bb)" style="fill: none; stroke: #5d5d5d; stroke-opacity: 0.9"/>
    <path d="M 204.887353 136.482341 
L 204.887353 77.9189 
" clip-path="url(#p9d13b114bb)" style="fill: none; stroke: #5d5d5d; stroke-opacity: 0.9"/>
    <path d="M 257.405 135.117911 
L 257.405 73.121595 
" clip-path="url(#p9d13b114bb)" style="fill: none; stroke: #5d5d5d; stroke-opacity: 0.9"/>
    <path d="M 309.922647 129.155748 
L 309.922647 68.232142 
" clip-path="url(#p9d13b114bb)" style="fill: none; stroke: #5d5d5d; stroke-opacity: 0.9"/>
    <path d="M 362.440294 123.522578 
L 362.440294 60.587262 
" clip-path="url(#p9d13b114bb)" style="fill: none; stroke: #5d5d5d; stroke-opacity: 0.9"/>
    <path d="M 414.957941 122.207882 
L 414.957941 58.549746 
" clip-path="url(#p9d13b114bb)" style="fill: none; stroke: #5d5d5d; stroke-opacity: 0.9"/>
    <path d="M 467.475588 114.650862 
L 467.475588 50.242798 
" clip-path="url(#p9d13b114bb)" style="fill: none; stroke: #5d5d5d; stroke-opacity: 0.9"/>
   </g>
   <g id="line2d_16">
    <defs>
     <path id="m560f57fea4" d="M 1.2 0 
L -1.2 -0 
" style="stroke: #5d5d5d; stroke-opacity: 0.9"/>
    </defs>
    <g clip-path="url(#p9d13b114bb)">
     <use xlink:href="#m560f57fea4" x="47.334412" y="145.973205" style="fill: #5d5d5d; fill-opacity: 0.9; stroke: #5d5d5d; stroke-opacity: 0.9"/>
     <use xlink:href="#m560f57fea4" x="99.852059" y="144.406951" style="fill: #5d5d5d; fill-opacity: 0.9; stroke: #5d5d5d; stroke-opacity: 0.9"/>
     <use xlink:href="#m560f57fea4" x="152.369706" y="134.652717" style="fill: #5d5d5d; fill-opacity: 0.9; stroke: #5d5d5d; stroke-opacity: 0.9"/>
     <use xlink:href="#m560f57fea4" x="204.887353" y="136.482341" style="fill: #5d5d5d; fill-opacity: 0.9; stroke: #5d5d5d; stroke-opacity: 0.9"/>
     <use xlink:href="#m560f57fea4" x="257.405" y="135.117911" style="fill: #5d5d5d; fill-opacity: 0.9; stroke: #5d5d5d; stroke-opacity: 0.9"/>
     <use xlink:href="#m560f57fea4" x="309.922647" y="129.155748" style="fill: #5d5d5d; fill-opacity: 0.9; stroke: #5d5d5d; stroke-opacity: 0.9"/>
     <use xlink:href="#m560f57fea4" x="362.440294" y="123.522578" style="fill: #5d5d5d; fill-opacity: 0.9; stroke: #5d5d5d; stroke-opacity: 0.9"/>
     <use xlink:href="#m560f57fea4" x="414.957941" y="122.207882" style="fill: #5d5d5d; fill-opacity: 0.9; stroke: #5d5d5d; stroke-opacity: 0.9"/>
     <use xlink:href="#m560f57fea4" x="467.475588" y="114.650862" style="fill: #5d5d5d; fill-opacity: 0.9; stroke: #5d5d5d; stroke-opacity: 0.9"/>
    </g>
   </g>
   <g id="line2d_17">
    <g clip-path="url(#p9d13b114bb)">
     <use xlink:href="#m560f57fea4" x="47.334412" y="87.708509" style="fill: #5d5d5d; fill-opacity: 0.9; stroke: #5d5d5d; stroke-opacity: 0.9"/>
     <use xlink:href="#m560f57fea4" x="99.852059" y="82.604566" style="fill: #5d5d5d; fill-opacity: 0.9; stroke: #5d5d5d; stroke-opacity: 0.9"/>
     <use xlink:href="#m560f57fea4" x="152.369706" y="81.270512" style="fill: #5d5d5d; fill-opacity: 0.9; stroke: #5d5d5d; stroke-opacity: 0.9"/>
     <use xlink:href="#m560f57fea4" x="204.887353" y="77.9189" style="fill: #5d5d5d; fill-opacity: 0.9; stroke: #5d5d5d; stroke-opacity: 0.9"/>
     <use xlink:href="#m560f57fea4" x="257.405" y="73.121595" style="fill: #5d5d5d; fill-opacity: 0.9; stroke: #5d5d5d; stroke-opacity: 0.9"/>
     <use xlink:href="#m560f57fea4" x="309.922647" y="68.232142" style="fill: #5d5d5d; fill-opacity: 0.9; stroke: #5d5d5d; stroke-opacity: 0.9"/>
     <use xlink:href="#m560f57fea4" x="362.440294" y="60.587262" style="fill: #5d5d5d; fill-opacity: 0.9; stroke: #5d5d5d; stroke-opacity: 0.9"/>
     <use xlink:href="#m560f57fea4" x="414.957941" y="58.549746" style="fill: #5d5d5d; fill-opacity: 0.9; stroke: #5d5d5d; stroke-opacity: 0.9"/>
     <use xlink:href="#m560f57fea4" x="467.475588" y="50.242798" style="fill: #5d5d5d; fill-opacity: 0.9; stroke: #5d5d5d; stroke-opacity: 0.9"/>
    </g>
   </g>
   <g id="line2d_18">
    <path d="M 47.334412 116.840857 
L 99.852059 113.505759 
L 152.369706 107.961614 
L 204.887353 107.20062 
L 257.405 104.119753 
L 309.922647 98.693945 
L 362.440294 92.05492 
L 414.957941 90.378814 
L 467.475588 82.44683 
" clip-path="url(#p9d13b114bb)" style="fill: none; stroke: #5d5d5d; stroke-opacity: 0.25; stroke-width: 0.5; stroke-linecap: square"/>
   </g>
   <g id="line2d_19"/>
   <g id="patch_3">
    <path d="M 29.205 168.629688 
L 29.205 30.029688 
" style="fill: none; stroke: #bbbbbb; stroke-width: 0.75; stroke-linejoin: miter; stroke-linecap: square"/>
   </g>
   <g id="patch_4">
    <path d="M 47.334412 183.629688 
L 467.475588 183.629688 
" style="fill: none; stroke: #bbbbbb; stroke-width: 0.75; stroke-linejoin: miter; stroke-linecap: square"/>
   </g>
   <g id="text_16">
    <!-- Comparing models after hyperparameters tuning (CI, 95%) -->
    <g style="fill: #303030" transform="translate(34.205 15.029688) scale(0.1 -0.1)">
     <defs>
      <path id="Ubuntu-Medium-43" d="M 2502 -96 
Q 2003 -96 1606 57 
Q 1210 211 934 508 
Q 659 806 512 1235 
Q 365 1664 365 2221 
Q 365 2778 534 3206 
Q 704 3635 998 3932 
Q 1293 4230 1689 4384 
Q 2086 4538 2541 4538 
Q 2816 4538 3040 4496 
Q 3264 4454 3430 4403 
Q 3597 4352 3705 4294 
Q 3814 4237 3859 4211 
L 3622 3552 
Q 3469 3648 3184 3734 
Q 2899 3821 2566 3821 
Q 2278 3821 2028 3721 
Q 1779 3622 1596 3424 
Q 1414 3226 1312 2925 
Q 1210 2624 1210 2227 
Q 1210 1875 1290 1580 
Q 1370 1286 1536 1072 
Q 1702 858 1958 739 
Q 2214 621 2573 621 
Q 3002 621 3270 707 
Q 3539 794 3686 870 
L 3904 211 
Q 3827 160 3696 109 
Q 3565 58 3385 10 
Q 3206 -38 2982 -67 
Q 2758 -96 2502 -96 
z
" transform="scale(0.015625)"/>
      <path id="Ubuntu-Medium-6d" d="M 2400 1760 
Q 2400 2285 2269 2518 
Q 2138 2752 1779 2752 
Q 1651 2752 1497 2733 
Q 1344 2714 1267 2701 
L 1267 0 
L 493 0 
L 493 3238 
Q 717 3302 1078 3360 
Q 1440 3418 1843 3418 
Q 2189 3418 2409 3328 
Q 2630 3238 2778 3091 
Q 2848 3142 2957 3200 
Q 3066 3258 3200 3306 
Q 3334 3354 3484 3386 
Q 3635 3418 3789 3418 
Q 4179 3418 4432 3306 
Q 4685 3194 4829 2992 
Q 4973 2790 5027 2505 
Q 5082 2221 5082 1882 
L 5082 0 
L 4307 0 
L 4307 1760 
Q 4307 2285 4179 2518 
Q 4051 2752 3686 2752 
Q 3501 2752 3334 2691 
Q 3168 2630 3085 2573 
Q 3136 2413 3155 2233 
Q 3174 2054 3174 1850 
L 3174 0 
L 2400 0 
L 2400 1760 
z
" transform="scale(0.015625)"/>
      <path id="Ubuntu-Medium-70" d="M 2714 1658 
Q 2714 2176 2480 2464 
Q 2246 2752 1728 2752 
Q 1619 2752 1500 2742 
Q 1382 2733 1267 2701 
L 1267 787 
Q 1370 717 1539 656 
Q 1709 595 1901 595 
Q 2323 595 2518 883 
Q 2714 1171 2714 1658 
z
M 3507 1670 
Q 3507 1286 3408 966 
Q 3309 646 3123 416 
Q 2938 186 2659 58 
Q 2381 -70 2029 -70 
Q 1792 -70 1593 -12 
Q 1395 45 1267 115 
L 1267 -1184 
L 493 -1184 
L 493 3238 
Q 730 3302 1075 3360 
Q 1421 3418 1805 3418 
Q 2202 3418 2515 3296 
Q 2829 3174 3049 2947 
Q 3270 2720 3388 2397 
Q 3507 2074 3507 1670 
z
" transform="scale(0.015625)"/>
      <path id="Ubuntu-Medium-72" d="M 2400 2650 
Q 2304 2682 2134 2717 
Q 1965 2752 1741 2752 
Q 1613 2752 1469 2726 
Q 1325 2701 1267 2682 
L 1267 0 
L 493 0 
L 493 3187 
Q 717 3270 1053 3344 
Q 1389 3418 1798 3418 
Q 1875 3418 1977 3408 
Q 2080 3398 2182 3382 
Q 2285 3366 2381 3344 
Q 2477 3322 2534 3302 
L 2400 2650 
z
" transform="scale(0.015625)"/>
      <path id="Ubuntu-Medium-20" transform="scale(0.015625)"/>
      <path id="Ubuntu-Medium-64" d="M 1101 1683 
Q 1101 1171 1344 880 
Q 1587 589 2016 589 
Q 2202 589 2333 605 
Q 2464 621 2547 640 
L 2547 2560 
Q 2445 2630 2275 2691 
Q 2106 2752 1914 2752 
Q 1491 2752 1296 2464 
Q 1101 2176 1101 1683 
z
M 3322 102 
Q 3091 32 2742 -25 
Q 2394 -83 2010 -83 
Q 1613 -83 1299 38 
Q 986 160 765 387 
Q 544 614 425 937 
Q 307 1261 307 1664 
Q 307 2061 406 2384 
Q 506 2707 698 2937 
Q 890 3168 1165 3293 
Q 1440 3418 1798 3418 
Q 2042 3418 2227 3360 
Q 2413 3302 2547 3232 
L 2547 4838 
L 3322 4966 
L 3322 102 
z
" transform="scale(0.015625)"/>
      <path id="Ubuntu-Medium-65" d="M 307 1658 
Q 307 2099 438 2432 
Q 570 2765 787 2985 
Q 1005 3206 1286 3318 
Q 1568 3430 1862 3430 
Q 2554 3430 2941 3001 
Q 3328 2573 3328 1722 
Q 3328 1658 3325 1578 
Q 3322 1498 3315 1434 
L 1107 1434 
Q 1139 1030 1392 809 
Q 1645 589 2125 589 
Q 2406 589 2640 640 
Q 2874 691 3008 749 
L 3110 115 
Q 3046 83 2934 48 
Q 2822 13 2678 -16 
Q 2534 -45 2368 -64 
Q 2202 -83 2029 -83 
Q 1587 -83 1260 48 
Q 934 179 723 412 
Q 512 646 409 963 
Q 307 1280 307 1658 
z
M 2554 2003 
Q 2554 2163 2509 2307 
Q 2464 2451 2377 2556 
Q 2291 2662 2166 2723 
Q 2042 2784 1869 2784 
Q 1690 2784 1555 2717 
Q 1421 2650 1328 2541 
Q 1235 2432 1184 2291 
Q 1133 2150 1114 2003 
L 2554 2003 
z
" transform="scale(0.015625)"/>
      <path id="Ubuntu-Medium-6c" d="M 1658 -64 
Q 1312 -58 1085 12 
Q 858 83 723 214 
Q 589 346 534 541 
Q 480 736 480 986 
L 480 4838 
L 1254 4966 
L 1254 1133 
Q 1254 992 1276 896 
Q 1299 800 1356 733 
Q 1414 666 1513 630 
Q 1613 595 1766 576 
L 1658 -64 
z
" transform="scale(0.015625)"/>
      <path id="Ubuntu-Medium-66" d="M 1856 4966 
Q 2125 4966 2329 4918 
Q 2534 4870 2637 4832 
L 2490 4192 
Q 2381 4243 2237 4275 
Q 2093 4307 1926 4307 
Q 1741 4307 1613 4252 
Q 1485 4198 1408 4102 
Q 1331 4006 1299 3868 
Q 1267 3731 1267 3571 
L 1267 3347 
L 2483 3347 
L 2483 2701 
L 1267 2701 
L 1267 0 
L 493 0 
L 493 3584 
Q 493 4230 832 4598 
Q 1171 4966 1856 4966 
z
" transform="scale(0.015625)"/>
      <path id="Ubuntu-Medium-68" d="M 493 0 
L 493 4838 
L 1267 4966 
L 1267 3309 
Q 1395 3354 1564 3386 
Q 1734 3418 1901 3418 
Q 2304 3418 2569 3306 
Q 2835 3194 2995 2992 
Q 3155 2790 3222 2508 
Q 3290 2227 3290 1882 
L 3290 0 
L 2515 0 
L 2515 1760 
Q 2515 2029 2480 2217 
Q 2445 2406 2365 2524 
Q 2285 2643 2150 2697 
Q 2016 2752 1818 2752 
Q 1664 2752 1504 2720 
Q 1344 2688 1267 2662 
L 1267 0 
L 493 0 
z
" transform="scale(0.015625)"/>
      <path id="Ubuntu-Medium-79" d="M 3226 3347 
Q 2707 1440 2022 -109 
Q 1894 -397 1760 -601 
Q 1626 -806 1459 -940 
Q 1293 -1075 1088 -1136 
Q 883 -1197 614 -1197 
Q 435 -1197 259 -1158 
Q 83 -1120 -6 -1075 
L 134 -454 
Q 365 -544 589 -544 
Q 890 -544 1059 -400 
Q 1229 -256 1357 45 
Q 992 749 656 1581 
Q 320 2413 58 3347 
L 883 3347 
Q 947 3078 1040 2764 
Q 1133 2451 1241 2128 
Q 1350 1805 1472 1485 
Q 1594 1165 1715 890 
Q 1920 1459 2099 2102 
Q 2278 2746 2426 3347 
L 3226 3347 
z
" transform="scale(0.015625)"/>
      <path id="Ubuntu-Medium-75" d="M 3238 102 
Q 3014 45 2656 -16 
Q 2298 -77 1869 -77 
Q 1466 -77 1194 38 
Q 922 154 758 358 
Q 595 563 524 848 
Q 454 1133 454 1472 
L 454 3347 
L 1229 3347 
L 1229 1594 
Q 1229 1056 1385 825 
Q 1542 595 1933 595 
Q 2074 595 2230 608 
Q 2387 621 2464 640 
L 2464 3347 
L 3238 3347 
L 3238 102 
z
" transform="scale(0.015625)"/>
      <path id="Ubuntu-Medium-28" d="M 1248 1914 
Q 1248 1126 1485 435 
Q 1722 -256 2144 -826 
L 1600 -1184 
Q 1082 -563 781 227 
Q 480 1018 480 1914 
Q 480 2810 781 3600 
Q 1082 4390 1600 5011 
L 2144 4653 
Q 1722 4077 1485 3389 
Q 1248 2701 1248 1914 
z
" transform="scale(0.015625)"/>
      <path id="Ubuntu-Medium-49" d="M 531 4435 
L 1338 4435 
L 1338 0 
L 531 0 
L 531 4435 
z
" transform="scale(0.015625)"/>
      <path id="Ubuntu-Medium-2c" d="M 1293 851 
Q 1306 742 1306 691 
Q 1306 640 1306 589 
Q 1306 192 1181 -230 
Q 1056 -653 832 -1030 
L 224 -864 
Q 378 -493 432 -137 
Q 486 218 486 486 
Q 486 563 483 678 
Q 480 794 474 851 
L 1293 851 
z
" transform="scale(0.015625)"/>
      <path id="Ubuntu-Medium-39" d="M 1837 2298 
Q 2022 2298 2201 2333 
Q 2381 2368 2509 2438 
Q 2515 2509 2515 2560 
Q 2515 2611 2515 2650 
Q 2515 2906 2480 3133 
Q 2445 3360 2358 3529 
Q 2272 3699 2121 3798 
Q 1971 3898 1747 3898 
Q 1562 3898 1430 3821 
Q 1299 3744 1216 3622 
Q 1133 3501 1094 3360 
Q 1056 3219 1056 3085 
Q 1056 2694 1245 2496 
Q 1434 2298 1837 2298 
z
M 2445 1830 
Q 2291 1760 2105 1721 
Q 1920 1683 1747 1683 
Q 1350 1683 1072 1788 
Q 794 1894 618 2083 
Q 442 2272 358 2521 
Q 275 2771 275 3059 
Q 275 3309 358 3568 
Q 442 3827 621 4044 
Q 800 4262 1075 4400 
Q 1350 4538 1728 4538 
Q 2509 4538 2909 4035 
Q 3309 3533 3309 2618 
Q 3309 1325 2643 659 
Q 1978 -6 602 -13 
L 570 634 
Q 954 634 1264 698 
Q 1574 762 1808 902 
Q 2042 1043 2202 1270 
Q 2362 1498 2445 1830 
z
" transform="scale(0.015625)"/>
      <path id="Ubuntu-Medium-35" d="M 2451 1267 
Q 2451 1478 2368 1644 
Q 2285 1811 2077 1926 
Q 1869 2042 1520 2099 
Q 1171 2157 640 2157 
Q 710 2771 748 3324 
Q 787 3878 813 4435 
L 3078 4435 
L 3078 3782 
L 1472 3782 
Q 1466 3674 1456 3536 
Q 1446 3398 1436 3257 
Q 1427 3117 1414 2989 
Q 1402 2861 1389 2771 
Q 2336 2720 2787 2339 
Q 3238 1958 3238 1299 
Q 3238 998 3136 742 
Q 3034 486 2822 300 
Q 2611 115 2291 9 
Q 1971 -96 1542 -96 
Q 1370 -96 1190 -70 
Q 1011 -45 848 -9 
Q 685 26 557 64 
Q 429 102 365 134 
L 512 787 
Q 646 723 899 649 
Q 1152 576 1517 576 
Q 1766 576 1945 630 
Q 2125 685 2237 781 
Q 2349 877 2400 1001 
Q 2451 1126 2451 1267 
z
" transform="scale(0.015625)"/>
      <path id="Ubuntu-Medium-25" d="M 2451 3322 
Q 2451 2739 2153 2425 
Q 1856 2112 1376 2112 
Q 1139 2112 940 2192 
Q 742 2272 601 2425 
Q 461 2579 381 2806 
Q 301 3034 301 3322 
Q 301 3910 598 4220 
Q 896 4531 1376 4531 
Q 1856 4531 2153 4220 
Q 2451 3910 2451 3322 
z
M 1843 3322 
Q 1843 3661 1718 3830 
Q 1594 4000 1376 4000 
Q 1158 4000 1036 3830 
Q 915 3661 915 3322 
Q 915 2982 1036 2812 
Q 1158 2643 1376 2643 
Q 1594 2643 1718 2812 
Q 1843 2982 1843 3322 
z
M 3750 4435 
L 4486 4435 
L 1984 0 
L 1248 0 
L 3750 4435 
z
M 5440 1107 
Q 5440 525 5142 211 
Q 4845 -102 4365 -102 
Q 4128 -102 3929 -22 
Q 3731 58 3590 211 
Q 3450 365 3370 592 
Q 3290 819 3290 1107 
Q 3290 1696 3587 2006 
Q 3885 2317 4365 2317 
Q 4845 2317 5142 2006 
Q 5440 1696 5440 1107 
z
M 4832 1107 
Q 4832 1446 4707 1616 
Q 4582 1786 4365 1786 
Q 4147 1786 4025 1616 
Q 3904 1446 3904 1107 
Q 3904 768 4025 598 
Q 4147 429 4365 429 
Q 4582 429 4707 598 
Q 4832 768 4832 1107 
z
" transform="scale(0.015625)"/>
      <path id="Ubuntu-Medium-29" d="M 922 1914 
Q 922 2701 685 3389 
Q 448 4077 26 4653 
L 570 5011 
Q 1088 4390 1389 3600 
Q 1690 2810 1690 1914 
Q 1690 1018 1389 227 
Q 1088 -563 570 -1184 
L 26 -826 
Q 448 -256 685 435 
Q 922 1126 922 1914 
z
" transform="scale(0.015625)"/>
     </defs>
     <use xlink:href="#Ubuntu-Medium-43"/>
     <use xlink:href="#Ubuntu-Medium-6f" x="62.549988"/>
     <use xlink:href="#Ubuntu-Medium-6d" x="122.349976"/>
     <use xlink:href="#Ubuntu-Medium-70" x="208.84996"/>
     <use xlink:href="#Ubuntu-Medium-61" x="268.449951"/>
     <use xlink:href="#Ubuntu-Medium-72" x="321.849945"/>
     <use xlink:href="#Ubuntu-Medium-69" x="362.149933"/>
     <use xlink:href="#Ubuntu-Medium-6e" x="389.749924"/>
     <use xlink:href="#Ubuntu-Medium-67" x="448.249908"/>
     <use xlink:href="#Ubuntu-Medium-20" x="506.849899"/>
     <use xlink:href="#Ubuntu-Medium-6d" x="530.149887"/>
     <use xlink:href="#Ubuntu-Medium-6f" x="616.649872"/>
     <use xlink:href="#Ubuntu-Medium-64" x="676.44986"/>
     <use xlink:href="#Ubuntu-Medium-65" x="736.04985"/>
     <use xlink:href="#Ubuntu-Medium-6c" x="793.149841"/>
     <use xlink:href="#Ubuntu-Medium-73" x="822.849838"/>
     <use xlink:href="#Ubuntu-Medium-20" x="868.549835"/>
     <use xlink:href="#Ubuntu-Medium-61" x="891.849823"/>
     <use xlink:href="#Ubuntu-Medium-66" x="945.249817"/>
     <use xlink:href="#Ubuntu-Medium-74" x="985.249802"/>
     <use xlink:href="#Ubuntu-Medium-65" x="1026.174789"/>
     <use xlink:href="#Ubuntu-Medium-72" x="1083.27478"/>
     <use xlink:href="#Ubuntu-Medium-20" x="1123.574768"/>
     <use xlink:href="#Ubuntu-Medium-68" x="1146.874756"/>
     <use xlink:href="#Ubuntu-Medium-79" x="1203.574753"/>
     <use xlink:href="#Ubuntu-Medium-70" x="1255.474747"/>
     <use xlink:href="#Ubuntu-Medium-65" x="1315.074738"/>
     <use xlink:href="#Ubuntu-Medium-72" x="1372.174728"/>
     <use xlink:href="#Ubuntu-Medium-70" x="1412.474716"/>
     <use xlink:href="#Ubuntu-Medium-61" x="1472.074707"/>
     <use xlink:href="#Ubuntu-Medium-72" x="1525.474701"/>
     <use xlink:href="#Ubuntu-Medium-61" x="1565.774689"/>
     <use xlink:href="#Ubuntu-Medium-6d" x="1619.174683"/>
     <use xlink:href="#Ubuntu-Medium-65" x="1705.674667"/>
     <use xlink:href="#Ubuntu-Medium-74" x="1762.774658"/>
     <use xlink:href="#Ubuntu-Medium-65" x="1803.699646"/>
     <use xlink:href="#Ubuntu-Medium-72" x="1860.799637"/>
     <use xlink:href="#Ubuntu-Medium-73" x="1901.099625"/>
     <use xlink:href="#Ubuntu-Medium-20" x="1946.799622"/>
     <use xlink:href="#Ubuntu-Medium-74" x="1970.099609"/>
     <use xlink:href="#Ubuntu-Medium-75" x="2011.899597"/>
     <use xlink:href="#Ubuntu-Medium-6e" x="2070.199585"/>
     <use xlink:href="#Ubuntu-Medium-69" x="2128.69957"/>
     <use xlink:href="#Ubuntu-Medium-6e" x="2156.299561"/>
     <use xlink:href="#Ubuntu-Medium-67" x="2214.799545"/>
     <use xlink:href="#Ubuntu-Medium-20" x="2273.399536"/>
     <use xlink:href="#Ubuntu-Medium-28" x="2296.699524"/>
     <use xlink:href="#Ubuntu-Medium-43" x="2327.849518"/>
     <use xlink:href="#Ubuntu-Medium-49" x="2391.649506"/>
     <use xlink:href="#Ubuntu-Medium-2c" x="2420.849503"/>
     <use xlink:href="#Ubuntu-Medium-20" x="2447.64949"/>
     <use xlink:href="#Ubuntu-Medium-39" x="2470.949478"/>
     <use xlink:href="#Ubuntu-Medium-35" x="2527.749466"/>
     <use xlink:href="#Ubuntu-Medium-25" x="2584.549454"/>
     <use xlink:href="#Ubuntu-Medium-29" x="2674.249435"/>
    </g>
   </g>
  </g>
 </g>
 <defs>
  <clipPath id="p9d13b114bb">
   <rect x="34.205" y="30.029688" width="446.4" height="138.6"/>
  </clipPath>
 </defs>
</svg>
