<?xml version="1.0" encoding="utf-8" standalone="no"?>
<!DOCTYPE svg PUBLIC "-//W3C//DTD SVG 1.1//EN"
  "http://www.w3.org/Graphics/SVG/1.1/DTD/svg11.dtd">
<svg xmlns:xlink="http://www.w3.org/1999/xlink" width="515.978437pt" height="204.785pt" viewBox="0 0 515.978437 204.785" xmlns="http://www.w3.org/2000/svg" version="1.1">
 <metadata>
  <rdf:RDF xmlns:dc="http://purl.org/dc/elements/1.1/" xmlns:cc="http://creativecommons.org/ns#" xmlns:rdf="http://www.w3.org/1999/02/22-rdf-syntax-ns#">
   <cc:Work>
    <dc:type rdf:resource="http://purl.org/dc/dcmitype/StillImage"/>
    <dc:date>2024-03-16T10:57:51.484326</dc:date>
    <dc:format>image/svg+xml</dc:format>
    <dc:creator>
     <cc:Agent>
      <dc:title>Matplotlib v3.8.0, https://matplotlib.org/</dc:title>
     </cc:Agent>
    </dc:creator>
   </cc:Work>
  </rdf:RDF>
 </metadata>
 <defs>
  <style type="text/css">*{stroke-linejoin: round; stroke-linecap: butt}</style>
 </defs>
 <g id="figure_1">
  <g id="patch_1">
   <path d="M 0 204.785 
L 515.978437 204.785 
L 515.978437 0 
L 0 0 
L 0 204.785 
z
" style="fill: none"/>
  </g>
  <g id="axes_1">
   <g id="patch_2">
    <path d="M 48.840937 170.8975 
L 495.240937 170.8975 
L 495.240937 32.2975 
L 48.840937 32.2975 
L 48.840937 170.8975 
z
" style="fill: none"/>
   </g>
   <g id="matplotlib.axis_1">
    <g id="xtick_1">
     <g id="line2d_1">
      <defs>
       <path id="m2c7fcfab88" d="M 0 0 
L 0 3 
" style="stroke: #aaaaaa; stroke-width: 0.75"/>
      </defs>
      <g>
       <use xlink:href="#m2c7fcfab88" x="48.840937" y="180.8975" style="fill: #aaaaaa; stroke: #aaaaaa; stroke-width: 0.75"/>
      </g>
     </g>
     <g id="text_1">
      <!-- −150000 -->
      <g style="fill: #808080" transform="translate(33.047187 196.105) scale(0.08 -0.08)">
       <defs>
        <path id="Ubuntu-2212" d="M 339 2138 
L 3270 2138 
L 3270 1632 
L 339 1632 
L 339 2138 
z
" transform="scale(0.015625)"/>
        <path id="Ubuntu-31" d="M 595 3520 
Q 960 3661 1305 3881 
Q 1651 4102 1939 4435 
L 2362 4435 
L 2362 0 
L 1766 0 
L 1766 3610 
Q 1690 3539 1578 3462 
Q 1466 3386 1334 3315 
Q 1203 3245 1059 3181 
Q 915 3117 781 3072 
L 595 3520 
z
" transform="scale(0.015625)"/>
        <path id="Ubuntu-35" d="M 1274 2726 
Q 2240 2688 2691 2304 
Q 3142 1920 3142 1261 
Q 3142 966 3043 716 
Q 2944 467 2742 288 
Q 2541 109 2233 6 
Q 1926 -96 1504 -96 
Q 1338 -96 1165 -70 
Q 992 -45 845 -6 
Q 698 32 582 70 
Q 467 109 416 134 
L 531 653 
Q 640 602 886 518 
Q 1133 435 1491 435 
Q 1779 435 1974 499 
Q 2170 563 2291 672 
Q 2413 781 2467 925 
Q 2522 1069 2522 1229 
Q 2522 1472 2438 1661 
Q 2355 1850 2144 1978 
Q 1933 2106 1581 2173 
Q 1229 2240 691 2240 
Q 730 2554 752 2829 
Q 774 3104 793 3366 
Q 813 3629 825 3888 
Q 838 4147 851 4435 
L 2989 4435 
L 2989 3930 
L 1370 3930 
Q 1363 3834 1350 3670 
Q 1338 3507 1325 3331 
Q 1312 3155 1299 2988 
Q 1286 2822 1274 2726 
z
" transform="scale(0.015625)"/>
        <path id="Ubuntu-30" d="M 320 2221 
Q 320 3334 713 3936 
Q 1107 4538 1805 4538 
Q 2502 4538 2896 3936 
Q 3290 3334 3290 2221 
Q 3290 1107 2896 505 
Q 2502 -96 1805 -96 
Q 1107 -96 713 505 
Q 320 1107 320 2221 
z
M 2662 2221 
Q 2662 2586 2620 2912 
Q 2579 3238 2480 3481 
Q 2381 3725 2214 3869 
Q 2048 4013 1805 4013 
Q 1562 4013 1395 3869 
Q 1229 3725 1129 3481 
Q 1030 3238 988 2912 
Q 947 2586 947 2221 
Q 947 1856 988 1529 
Q 1030 1203 1129 960 
Q 1229 717 1395 573 
Q 1562 429 1805 429 
Q 2048 429 2214 573 
Q 2381 717 2480 960 
Q 2579 1203 2620 1529 
Q 2662 1856 2662 2221 
z
" transform="scale(0.015625)"/>
       </defs>
       <use xlink:href="#Ubuntu-2212"/>
       <use xlink:href="#Ubuntu-31" x="56.399994"/>
       <use xlink:href="#Ubuntu-35" x="112.799988"/>
       <use xlink:href="#Ubuntu-30" x="169.199982"/>
       <use xlink:href="#Ubuntu-30" x="225.599976"/>
       <use xlink:href="#Ubuntu-30" x="281.999969"/>
       <use xlink:href="#Ubuntu-30" x="338.399963"/>
      </g>
     </g>
    </g>
    <g id="xtick_2">
     <g id="line2d_2">
      <g>
       <use xlink:href="#m2c7fcfab88" x="112.612366" y="180.8975" style="fill: #aaaaaa; stroke: #aaaaaa; stroke-width: 0.75"/>
      </g>
     </g>
     <g id="text_2">
      <!-- −100000 -->
      <g style="fill: #808080" transform="translate(96.818616 196.105) scale(0.08 -0.08)">
       <use xlink:href="#Ubuntu-2212"/>
       <use xlink:href="#Ubuntu-31" x="56.399994"/>
       <use xlink:href="#Ubuntu-30" x="112.799988"/>
       <use xlink:href="#Ubuntu-30" x="169.199982"/>
       <use xlink:href="#Ubuntu-30" x="225.599976"/>
       <use xlink:href="#Ubuntu-30" x="281.999969"/>
       <use xlink:href="#Ubuntu-30" x="338.399963"/>
      </g>
     </g>
    </g>
    <g id="xtick_3">
     <g id="line2d_3">
      <g>
       <use xlink:href="#m2c7fcfab88" x="176.383795" y="180.8975" style="fill: #aaaaaa; stroke: #aaaaaa; stroke-width: 0.75"/>
      </g>
     </g>
     <g id="text_3">
      <!-- −50000 -->
      <g style="fill: #808080" transform="translate(162.846295 196.105) scale(0.08 -0.08)">
       <use xlink:href="#Ubuntu-2212"/>
       <use xlink:href="#Ubuntu-35" x="56.399994"/>
       <use xlink:href="#Ubuntu-30" x="112.799988"/>
       <use xlink:href="#Ubuntu-30" x="169.199982"/>
       <use xlink:href="#Ubuntu-30" x="225.599976"/>
       <use xlink:href="#Ubuntu-30" x="281.999969"/>
      </g>
     </g>
    </g>
    <g id="xtick_4">
     <g id="line2d_4">
      <g>
       <use xlink:href="#m2c7fcfab88" x="240.155223" y="180.8975" style="fill: #aaaaaa; stroke: #aaaaaa; stroke-width: 0.75"/>
      </g>
     </g>
     <g id="text_4">
      <!-- 0 -->
      <g style="fill: #808080" transform="translate(237.898973 196.105) scale(0.08 -0.08)">
       <use xlink:href="#Ubuntu-30"/>
      </g>
     </g>
    </g>
    <g id="xtick_5">
     <g id="line2d_5">
      <g>
       <use xlink:href="#m2c7fcfab88" x="303.926652" y="180.8975" style="fill: #aaaaaa; stroke: #aaaaaa; stroke-width: 0.75"/>
      </g>
     </g>
     <g id="text_5">
      <!-- 50000 -->
      <g style="fill: #808080" transform="translate(292.645402 196.105) scale(0.08 -0.08)">
       <use xlink:href="#Ubuntu-35"/>
       <use xlink:href="#Ubuntu-30" x="56.399994"/>
       <use xlink:href="#Ubuntu-30" x="112.799988"/>
       <use xlink:href="#Ubuntu-30" x="169.199982"/>
       <use xlink:href="#Ubuntu-30" x="225.599976"/>
      </g>
     </g>
    </g>
    <g id="xtick_6">
     <g id="line2d_6">
      <g>
       <use xlink:href="#m2c7fcfab88" x="367.69808" y="180.8975" style="fill: #aaaaaa; stroke: #aaaaaa; stroke-width: 0.75"/>
      </g>
     </g>
     <g id="text_6">
      <!-- 100000 -->
      <g style="fill: #808080" transform="translate(354.16058 196.105) scale(0.08 -0.08)">
       <use xlink:href="#Ubuntu-31"/>
       <use xlink:href="#Ubuntu-30" x="56.399994"/>
       <use xlink:href="#Ubuntu-30" x="112.799988"/>
       <use xlink:href="#Ubuntu-30" x="169.199982"/>
       <use xlink:href="#Ubuntu-30" x="225.599976"/>
       <use xlink:href="#Ubuntu-30" x="281.999969"/>
      </g>
     </g>
    </g>
    <g id="xtick_7">
     <g id="line2d_7">
      <g>
       <use xlink:href="#m2c7fcfab88" x="431.469509" y="180.8975" style="fill: #aaaaaa; stroke: #aaaaaa; stroke-width: 0.75"/>
      </g>
     </g>
     <g id="text_7">
      <!-- 150000 -->
      <g style="fill: #808080" transform="translate(417.932009 196.105) scale(0.08 -0.08)">
       <use xlink:href="#Ubuntu-31"/>
       <use xlink:href="#Ubuntu-35" x="56.399994"/>
       <use xlink:href="#Ubuntu-30" x="112.799988"/>
       <use xlink:href="#Ubuntu-30" x="169.199982"/>
       <use xlink:href="#Ubuntu-30" x="225.599976"/>
       <use xlink:href="#Ubuntu-30" x="281.999969"/>
      </g>
     </g>
    </g>
    <g id="xtick_8">
     <g id="line2d_8">
      <g>
       <use xlink:href="#m2c7fcfab88" x="495.240937" y="180.8975" style="fill: #aaaaaa; stroke: #aaaaaa; stroke-width: 0.75"/>
      </g>
     </g>
     <g id="text_8">
      <!-- 200000 -->
      <g style="fill: #808080" transform="translate(481.703437 196.105) scale(0.08 -0.08)">
       <defs>
        <path id="Ubuntu-32" d="M 2989 3302 
Q 2989 3072 2896 2857 
Q 2803 2643 2649 2435 
Q 2496 2227 2304 2025 
Q 2112 1824 1920 1632 
Q 1811 1523 1667 1376 
Q 1523 1229 1395 1069 
Q 1267 909 1180 761 
Q 1094 614 1094 506 
L 3136 506 
L 3136 0 
L 448 0 
Q 442 38 442 76 
Q 442 115 442 147 
Q 442 448 541 707 
Q 640 966 800 1196 
Q 960 1427 1158 1632 
Q 1357 1837 1549 2029 
Q 1709 2182 1853 2332 
Q 1997 2483 2109 2633 
Q 2221 2784 2288 2944 
Q 2355 3104 2355 3283 
Q 2355 3475 2294 3609 
Q 2234 3744 2131 3833 
Q 2029 3923 1891 3964 
Q 1754 4006 1600 4006 
Q 1414 4006 1260 3955 
Q 1107 3904 985 3837 
Q 864 3770 781 3696 
Q 698 3622 653 3584 
L 358 4006 
Q 416 4070 531 4163 
Q 646 4256 806 4339 
Q 966 4422 1164 4480 
Q 1363 4538 1594 4538 
Q 2291 4538 2640 4214 
Q 2989 3891 2989 3302 
z
" transform="scale(0.015625)"/>
       </defs>
       <use xlink:href="#Ubuntu-32"/>
       <use xlink:href="#Ubuntu-30" x="56.399994"/>
       <use xlink:href="#Ubuntu-30" x="112.799988"/>
       <use xlink:href="#Ubuntu-30" x="169.199982"/>
       <use xlink:href="#Ubuntu-30" x="225.599976"/>
       <use xlink:href="#Ubuntu-30" x="281.999969"/>
      </g>
     </g>
    </g>
   </g>
   <g id="matplotlib.axis_2">
    <g id="ytick_1">
     <g id="line2d_9">
      <defs>
       <path id="m14f38b9e53" d="M 0 0 
L -3 0 
" style="stroke: #aaaaaa; stroke-width: 0.75"/>
      </defs>
      <g>
       <use xlink:href="#m14f38b9e53" x="43.840937" y="170.8975" style="fill: #aaaaaa; stroke: #aaaaaa; stroke-width: 0.75"/>
      </g>
     </g>
     <g id="text_9">
      <!-- 0.0 -->
      <g style="fill: #808080" transform="translate(23.848437 174.00125) scale(0.08 -0.08)">
       <defs>
        <path id="Ubuntu-2e" d="M 1216 346 
Q 1216 173 1101 45 
Q 986 -83 787 -83 
Q 589 -83 473 45 
Q 358 173 358 346 
Q 358 518 473 646 
Q 589 774 787 774 
Q 986 774 1101 646 
Q 1216 518 1216 346 
z
" transform="scale(0.015625)"/>
       </defs>
       <use xlink:href="#Ubuntu-30"/>
       <use xlink:href="#Ubuntu-2e" x="56.399994"/>
       <use xlink:href="#Ubuntu-30" x="80.999985"/>
      </g>
     </g>
    </g>
    <g id="ytick_2">
     <g id="line2d_10">
      <g>
       <use xlink:href="#m14f38b9e53" x="43.840937" y="151.0975" style="fill: #aaaaaa; stroke: #aaaaaa; stroke-width: 0.75"/>
      </g>
     </g>
     <g id="text_10">
      <!-- 0.5 -->
      <g style="fill: #808080" transform="translate(23.848437 154.20125) scale(0.08 -0.08)">
       <use xlink:href="#Ubuntu-30"/>
       <use xlink:href="#Ubuntu-2e" x="56.399994"/>
       <use xlink:href="#Ubuntu-35" x="80.999985"/>
      </g>
     </g>
    </g>
    <g id="ytick_3">
     <g id="line2d_11">
      <g>
       <use xlink:href="#m14f38b9e53" x="43.840937" y="131.2975" style="fill: #aaaaaa; stroke: #aaaaaa; stroke-width: 0.75"/>
      </g>
     </g>
     <g id="text_11">
      <!-- 1.0 -->
      <g style="fill: #808080" transform="translate(23.848437 134.40125) scale(0.08 -0.08)">
       <use xlink:href="#Ubuntu-31"/>
       <use xlink:href="#Ubuntu-2e" x="56.399994"/>
       <use xlink:href="#Ubuntu-30" x="80.999985"/>
      </g>
     </g>
    </g>
    <g id="ytick_4">
     <g id="line2d_12">
      <g>
       <use xlink:href="#m14f38b9e53" x="43.840937" y="111.4975" style="fill: #aaaaaa; stroke: #aaaaaa; stroke-width: 0.75"/>
      </g>
     </g>
     <g id="text_12">
      <!-- 1.5 -->
      <g style="fill: #808080" transform="translate(23.848437 114.60125) scale(0.08 -0.08)">
       <use xlink:href="#Ubuntu-31"/>
       <use xlink:href="#Ubuntu-2e" x="56.399994"/>
       <use xlink:href="#Ubuntu-35" x="80.999985"/>
      </g>
     </g>
    </g>
    <g id="ytick_5">
     <g id="line2d_13">
      <g>
       <use xlink:href="#m14f38b9e53" x="43.840937" y="91.6975" style="fill: #aaaaaa; stroke: #aaaaaa; stroke-width: 0.75"/>
      </g>
     </g>
     <g id="text_13">
      <!-- 2.0 -->
      <g style="fill: #808080" transform="translate(23.848437 94.80125) scale(0.08 -0.08)">
       <use xlink:href="#Ubuntu-32"/>
       <use xlink:href="#Ubuntu-2e" x="56.399994"/>
       <use xlink:href="#Ubuntu-30" x="80.999985"/>
      </g>
     </g>
    </g>
    <g id="ytick_6">
     <g id="line2d_14">
      <g>
       <use xlink:href="#m14f38b9e53" x="43.840937" y="71.8975" style="fill: #aaaaaa; stroke: #aaaaaa; stroke-width: 0.75"/>
      </g>
     </g>
     <g id="text_14">
      <!-- 2.5 -->
      <g style="fill: #808080" transform="translate(23.848437 75.00125) scale(0.08 -0.08)">
       <use xlink:href="#Ubuntu-32"/>
       <use xlink:href="#Ubuntu-2e" x="56.399994"/>
       <use xlink:href="#Ubuntu-35" x="80.999985"/>
      </g>
     </g>
    </g>
    <g id="ytick_7">
     <g id="line2d_15">
      <g>
       <use xlink:href="#m14f38b9e53" x="43.840937" y="52.0975" style="fill: #aaaaaa; stroke: #aaaaaa; stroke-width: 0.75"/>
      </g>
     </g>
     <g id="text_15">
      <!-- 3.0 -->
      <g style="fill: #808080" transform="translate(23.848437 55.20125) scale(0.08 -0.08)">
       <defs>
        <path id="Ubuntu-33" d="M 1446 435 
Q 2016 435 2262 659 
Q 2509 883 2509 1261 
Q 2509 1504 2406 1670 
Q 2304 1837 2137 1936 
Q 1971 2035 1750 2076 
Q 1530 2118 1299 2118 
L 1146 2118 
L 1146 2605 
L 1357 2605 
Q 1517 2605 1686 2637 
Q 1856 2669 1997 2752 
Q 2138 2835 2227 2979 
Q 2317 3123 2317 3341 
Q 2317 3520 2253 3648 
Q 2189 3776 2083 3859 
Q 1978 3942 1840 3977 
Q 1702 4013 1549 4013 
Q 1242 4013 1027 3923 
Q 813 3834 666 3738 
L 435 4192 
Q 512 4243 630 4304 
Q 749 4365 896 4416 
Q 1043 4467 1212 4502 
Q 1382 4538 1568 4538 
Q 1920 4538 2176 4451 
Q 2432 4365 2598 4208 
Q 2765 4051 2848 3836 
Q 2931 3622 2931 3373 
Q 2931 3027 2732 2780 
Q 2534 2534 2253 2406 
Q 2426 2355 2586 2259 
Q 2746 2163 2864 2016 
Q 2982 1869 3056 1677 
Q 3130 1485 3130 1248 
Q 3130 960 3030 713 
Q 2931 467 2723 288 
Q 2515 109 2201 6 
Q 1888 -96 1459 -96 
Q 1293 -96 1117 -70 
Q 941 -45 787 -6 
Q 634 32 518 70 
Q 403 109 352 134 
L 467 653 
Q 576 602 829 518 
Q 1082 435 1446 435 
z
" transform="scale(0.015625)"/>
       </defs>
       <use xlink:href="#Ubuntu-33"/>
       <use xlink:href="#Ubuntu-2e" x="56.399994"/>
       <use xlink:href="#Ubuntu-30" x="80.999985"/>
      </g>
     </g>
    </g>
    <g id="ytick_8">
     <g id="line2d_16">
      <g>
       <use xlink:href="#m14f38b9e53" x="43.840937" y="32.2975" style="fill: #aaaaaa; stroke: #aaaaaa; stroke-width: 0.75"/>
      </g>
     </g>
     <g id="text_16">
      <!-- 3.5 -->
      <g style="fill: #808080" transform="translate(23.848437 35.40125) scale(0.08 -0.08)">
       <use xlink:href="#Ubuntu-33"/>
       <use xlink:href="#Ubuntu-2e" x="56.399994"/>
       <use xlink:href="#Ubuntu-35" x="80.999985"/>
      </g>
     </g>
    </g>
    <g id="text_17">
     <!-- Density -->
     <g style="fill: #505050" transform="translate(14.183437 65.465313) rotate(-90) scale(0.09 -0.09)">
      <defs>
       <path id="Ubuntu-Bold-44" d="M 1510 813 
Q 1581 806 1673 803 
Q 1766 800 1894 800 
Q 2643 800 3004 1177 
Q 3366 1555 3366 2221 
Q 3366 2918 3020 3276 
Q 2675 3635 1926 3635 
Q 1824 3635 1715 3632 
Q 1606 3629 1510 3616 
L 1510 813 
z
M 4397 2221 
Q 4397 1645 4217 1216 
Q 4038 787 3708 505 
Q 3379 224 2905 83 
Q 2432 -58 1843 -58 
Q 1574 -58 1216 -35 
Q 858 -13 512 58 
L 512 4378 
Q 858 4442 1232 4464 
Q 1606 4486 1875 4486 
Q 2445 4486 2909 4358 
Q 3373 4230 3705 3955 
Q 4038 3680 4217 3251 
Q 4397 2822 4397 2221 
z
" transform="scale(0.015625)"/>
       <path id="Ubuntu-Bold-65" d="M 288 1658 
Q 288 2106 425 2442 
Q 563 2778 787 3002 
Q 1011 3226 1302 3341 
Q 1594 3456 1901 3456 
Q 2618 3456 3034 3017 
Q 3450 2579 3450 1728 
Q 3450 1645 3443 1545 
Q 3437 1446 3430 1370 
L 1267 1370 
Q 1299 1075 1542 902 
Q 1786 730 2195 730 
Q 2458 730 2710 778 
Q 2963 826 3123 896 
L 3251 122 
Q 3174 83 3046 44 
Q 2918 6 2761 -22 
Q 2605 -51 2425 -70 
Q 2246 -90 2067 -90 
Q 1613 -90 1277 44 
Q 941 179 720 412 
Q 499 646 393 966 
Q 288 1286 288 1658 
z
M 2528 2022 
Q 2522 2144 2486 2259 
Q 2451 2374 2377 2464 
Q 2304 2554 2192 2611 
Q 2080 2669 1914 2669 
Q 1754 2669 1638 2614 
Q 1523 2560 1446 2470 
Q 1370 2381 1328 2262 
Q 1286 2144 1267 2022 
L 2528 2022 
z
" transform="scale(0.015625)"/>
       <path id="Ubuntu-Bold-6e" d="M 448 3251 
Q 691 3322 1075 3382 
Q 1459 3443 1882 3443 
Q 2310 3443 2595 3331 
Q 2880 3219 3046 3014 
Q 3213 2810 3283 2528 
Q 3354 2246 3354 1901 
L 3354 0 
L 2400 0 
L 2400 1786 
Q 2400 2246 2278 2438 
Q 2157 2630 1824 2630 
Q 1722 2630 1606 2620 
Q 1491 2611 1402 2598 
L 1402 0 
L 448 0 
L 448 3251 
z
" transform="scale(0.015625)"/>
       <path id="Ubuntu-Bold-73" d="M 1414 685 
Q 1677 685 1785 736 
Q 1894 787 1894 934 
Q 1894 1050 1753 1136 
Q 1613 1222 1325 1331 
Q 1101 1414 918 1504 
Q 736 1594 608 1718 
Q 480 1843 409 2016 
Q 339 2189 339 2432 
Q 339 2906 691 3181 
Q 1043 3456 1658 3456 
Q 1965 3456 2246 3401 
Q 2528 3347 2694 3283 
L 2528 2541 
Q 2362 2598 2166 2643 
Q 1971 2688 1728 2688 
Q 1280 2688 1280 2438 
Q 1280 2381 1299 2336 
Q 1318 2291 1376 2249 
Q 1434 2208 1533 2160 
Q 1632 2112 1786 2054 
Q 2099 1939 2304 1827 
Q 2509 1715 2627 1584 
Q 2746 1453 2794 1293 
Q 2842 1133 2842 922 
Q 2842 422 2467 166 
Q 2093 -90 1408 -90 
Q 960 -90 662 -13 
Q 365 64 250 115 
L 410 890 
Q 653 794 909 739 
Q 1165 685 1414 685 
z
" transform="scale(0.015625)"/>
       <path id="Ubuntu-Bold-69" d="M 1402 0 
L 448 0 
L 448 3366 
L 1402 3366 
L 1402 0 
z
M 1491 4339 
Q 1491 4077 1321 3926 
Q 1152 3776 922 3776 
Q 691 3776 521 3926 
Q 352 4077 352 4339 
Q 352 4602 521 4752 
Q 691 4902 922 4902 
Q 1152 4902 1321 4752 
Q 1491 4602 1491 4339 
z
" transform="scale(0.015625)"/>
       <path id="Ubuntu-Bold-74" d="M 416 4205 
L 1370 4358 
L 1370 3366 
L 2515 3366 
L 2515 2573 
L 1370 2573 
L 1370 1389 
Q 1370 1088 1475 909 
Q 1581 730 1901 730 
Q 2054 730 2217 758 
Q 2381 787 2515 838 
L 2650 96 
Q 2477 26 2265 -25 
Q 2054 -77 1747 -77 
Q 1357 -77 1101 28 
Q 845 134 691 323 
Q 538 512 477 781 
Q 416 1050 416 1376 
L 416 4205 
z
" transform="scale(0.015625)"/>
       <path id="Ubuntu-Bold-79" d="M 3437 3366 
Q 3149 2394 2835 1542 
Q 2522 691 2150 -109 
Q 2016 -397 1881 -598 
Q 1747 -800 1587 -931 
Q 1427 -1062 1225 -1123 
Q 1024 -1184 755 -1184 
Q 531 -1184 342 -1142 
Q 154 -1101 32 -1050 
L 198 -288 
Q 346 -339 461 -358 
Q 576 -378 704 -378 
Q 960 -378 1097 -240 
Q 1235 -102 1331 141 
Q 1005 781 678 1577 
Q 352 2374 64 3366 
L 1075 3366 
Q 1139 3117 1225 2825 
Q 1312 2534 1408 2236 
Q 1504 1939 1603 1657 
Q 1702 1376 1792 1146 
Q 1875 1376 1964 1657 
Q 2054 1939 2140 2236 
Q 2227 2534 2307 2825 
Q 2387 3117 2451 3366 
L 3437 3366 
z
" transform="scale(0.015625)"/>
      </defs>
      <use xlink:href="#Ubuntu-Bold-44"/>
      <use xlink:href="#Ubuntu-Bold-65" x="73.699982"/>
      <use xlink:href="#Ubuntu-Bold-6e" x="132.099976"/>
      <use xlink:href="#Ubuntu-Bold-73" x="190.999969"/>
      <use xlink:href="#Ubuntu-Bold-69" x="239.499954"/>
      <use xlink:href="#Ubuntu-Bold-74" x="268.399948"/>
      <use xlink:href="#Ubuntu-Bold-79" x="313.799942"/>
     </g>
    </g>
    <g id="text_18">
     <!-- 1e−5 -->
     <g style="fill: #808080" transform="translate(48.840937 29.2975) scale(0.08 -0.08)">
      <defs>
       <path id="Ubuntu-65" d="M 326 1658 
Q 326 2099 454 2428 
Q 582 2758 793 2976 
Q 1005 3194 1280 3302 
Q 1555 3411 1843 3411 
Q 2515 3411 2873 2992 
Q 3232 2573 3232 1715 
Q 3232 1677 3232 1616 
Q 3232 1555 3226 1504 
L 947 1504 
Q 986 986 1248 717 
Q 1510 448 2067 448 
Q 2381 448 2595 502 
Q 2810 557 2918 608 
L 3002 109 
Q 2893 51 2621 -13 
Q 2349 -77 2003 -77 
Q 1568 -77 1251 54 
Q 934 186 729 416 
Q 525 646 425 963 
Q 326 1280 326 1658 
z
M 2611 1984 
Q 2618 2387 2410 2646 
Q 2202 2906 1837 2906 
Q 1632 2906 1475 2826 
Q 1318 2746 1209 2618 
Q 1101 2490 1040 2323 
Q 979 2157 960 1984 
L 2611 1984 
z
" transform="scale(0.015625)"/>
      </defs>
      <use xlink:href="#Ubuntu-31"/>
      <use xlink:href="#Ubuntu-65" x="56.399994"/>
      <use xlink:href="#Ubuntu-2212" x="112.299988"/>
      <use xlink:href="#Ubuntu-35" x="168.699982"/>
     </g>
    </g>
   </g>
   <g id="PolyCollection_1">
    <defs>
     <path id="md54d22a974" d="M 170.192272 -33.923307 
L 170.192272 -33.8875 
L 171.000765 -33.8875 
L 171.809258 -33.8875 
L 172.617751 -33.8875 
L 173.426244 -33.8875 
L 174.234737 -33.8875 
L 175.04323 -33.8875 
L 175.851723 -33.8875 
L 176.660216 -33.8875 
L 177.468709 -33.8875 
L 178.277202 -33.8875 
L 179.085695 -33.8875 
L 179.894188 -33.8875 
L 180.702681 -33.8875 
L 181.511174 -33.8875 
L 182.319667 -33.8875 
L 183.12816 -33.8875 
L 183.936653 -33.8875 
L 184.745146 -33.8875 
L 185.553639 -33.8875 
L 186.362132 -33.8875 
L 187.170625 -33.8875 
L 187.979118 -33.8875 
L 188.787611 -33.8875 
L 189.596104 -33.8875 
L 190.404597 -33.8875 
L 191.21309 -33.8875 
L 192.021583 -33.8875 
L 192.830076 -33.8875 
L 193.638569 -33.8875 
L 194.447062 -33.8875 
L 195.255555 -33.8875 
L 196.064048 -33.8875 
L 196.872541 -33.8875 
L 197.681034 -33.8875 
L 198.489527 -33.8875 
L 199.29802 -33.8875 
L 200.106513 -33.8875 
L 200.915006 -33.8875 
L 201.723499 -33.8875 
L 202.531992 -33.8875 
L 203.340485 -33.8875 
L 204.148978 -33.8875 
L 204.957471 -33.8875 
L 205.765964 -33.8875 
L 206.574456 -33.8875 
L 207.382949 -33.8875 
L 208.191442 -33.8875 
L 208.999935 -33.8875 
L 209.808428 -33.8875 
L 210.616921 -33.8875 
L 211.425414 -33.8875 
L 212.233907 -33.8875 
L 213.0424 -33.8875 
L 213.850893 -33.8875 
L 214.659386 -33.8875 
L 215.467879 -33.8875 
L 216.276372 -33.8875 
L 217.084865 -33.8875 
L 217.893358 -33.8875 
L 218.701851 -33.8875 
L 219.510344 -33.8875 
L 220.318837 -33.8875 
L 221.12733 -33.8875 
L 221.935823 -33.8875 
L 222.744316 -33.8875 
L 223.552809 -33.8875 
L 224.361302 -33.8875 
L 225.169795 -33.8875 
L 225.978288 -33.8875 
L 226.786781 -33.8875 
L 227.595274 -33.8875 
L 228.403767 -33.8875 
L 229.21226 -33.8875 
L 230.020753 -33.8875 
L 230.829246 -33.8875 
L 231.637739 -33.8875 
L 232.446232 -33.8875 
L 233.254725 -33.8875 
L 234.063218 -33.8875 
L 234.871711 -33.8875 
L 235.680204 -33.8875 
L 236.488697 -33.8875 
L 237.29719 -33.8875 
L 238.105683 -33.8875 
L 238.914176 -33.8875 
L 239.722669 -33.8875 
L 240.531162 -33.8875 
L 241.339655 -33.8875 
L 242.148148 -33.8875 
L 242.956641 -33.8875 
L 243.765134 -33.8875 
L 244.573627 -33.8875 
L 245.38212 -33.8875 
L 246.190613 -33.8875 
L 246.999106 -33.8875 
L 247.807599 -33.8875 
L 248.616092 -33.8875 
L 249.424585 -33.8875 
L 250.233078 -33.8875 
L 251.041571 -33.8875 
L 251.850064 -33.8875 
L 252.658557 -33.8875 
L 253.46705 -33.8875 
L 254.275543 -33.8875 
L 255.084036 -33.8875 
L 255.892529 -33.8875 
L 256.701022 -33.8875 
L 257.509514 -33.8875 
L 258.318007 -33.8875 
L 259.1265 -33.8875 
L 259.934993 -33.8875 
L 260.743486 -33.8875 
L 261.551979 -33.8875 
L 262.360472 -33.8875 
L 263.168965 -33.8875 
L 263.977458 -33.8875 
L 264.785951 -33.8875 
L 265.594444 -33.8875 
L 266.402937 -33.8875 
L 267.21143 -33.8875 
L 268.019923 -33.8875 
L 268.828416 -33.8875 
L 269.636909 -33.8875 
L 270.445402 -33.8875 
L 271.253895 -33.8875 
L 272.062388 -33.8875 
L 272.870881 -33.8875 
L 273.679374 -33.8875 
L 274.487867 -33.8875 
L 275.29636 -33.8875 
L 276.104853 -33.8875 
L 276.913346 -33.8875 
L 277.721839 -33.8875 
L 278.530332 -33.8875 
L 279.338825 -33.8875 
L 280.147318 -33.8875 
L 280.955811 -33.8875 
L 281.764304 -33.8875 
L 282.572797 -33.8875 
L 283.38129 -33.8875 
L 284.189783 -33.8875 
L 284.998276 -33.8875 
L 285.806769 -33.8875 
L 286.615262 -33.8875 
L 287.423755 -33.8875 
L 288.232248 -33.8875 
L 289.040741 -33.8875 
L 289.849234 -33.8875 
L 290.657727 -33.8875 
L 291.46622 -33.8875 
L 292.274713 -33.8875 
L 293.083206 -33.8875 
L 293.891699 -33.8875 
L 294.700192 -33.8875 
L 295.508685 -33.8875 
L 296.317178 -33.8875 
L 297.125671 -33.8875 
L 297.934164 -33.8875 
L 298.742657 -33.8875 
L 299.55115 -33.8875 
L 300.359643 -33.8875 
L 301.168136 -33.8875 
L 301.976629 -33.8875 
L 302.785122 -33.8875 
L 303.593615 -33.8875 
L 304.402108 -33.8875 
L 305.210601 -33.8875 
L 306.019094 -33.8875 
L 306.827587 -33.8875 
L 307.63608 -33.8875 
L 308.444573 -33.8875 
L 309.253065 -33.8875 
L 310.061558 -33.8875 
L 310.870051 -33.8875 
L 311.678544 -33.8875 
L 312.487037 -33.8875 
L 313.29553 -33.8875 
L 314.104023 -33.8875 
L 314.912516 -33.8875 
L 315.721009 -33.8875 
L 316.529502 -33.8875 
L 317.337995 -33.8875 
L 318.146488 -33.8875 
L 318.954981 -33.8875 
L 319.763474 -33.8875 
L 320.571967 -33.8875 
L 321.38046 -33.8875 
L 322.188953 -33.8875 
L 322.997446 -33.8875 
L 323.805939 -33.8875 
L 324.614432 -33.8875 
L 325.422925 -33.8875 
L 326.231418 -33.8875 
L 327.039911 -33.8875 
L 327.848404 -33.8875 
L 328.656897 -33.8875 
L 329.46539 -33.8875 
L 330.273883 -33.8875 
L 331.082376 -33.8875 
L 331.082376 -33.909626 
L 331.082376 -33.909626 
L 330.273883 -33.918255 
L 329.46539 -33.929719 
L 328.656897 -33.944742 
L 327.848404 -33.964154 
L 327.039911 -33.988883 
L 326.231418 -34.019943 
L 325.422925 -34.058394 
L 324.614432 -34.105309 
L 323.805939 -34.161717 
L 322.997446 -34.228534 
L 322.188953 -34.306497 
L 321.38046 -34.396084 
L 320.571967 -34.497439 
L 319.763474 -34.610308 
L 318.954981 -34.733992 
L 318.146488 -34.867317 
L 317.337995 -35.008639 
L 316.529502 -35.155887 
L 315.721009 -35.306631 
L 314.912516 -35.458188 
L 314.104023 -35.607763 
L 313.29553 -35.752594 
L 312.487037 -35.890114 
L 311.678544 -36.018104 
L 310.870051 -36.134823 
L 310.061558 -36.239104 
L 309.253065 -36.330407 
L 308.444573 -36.408825 
L 307.63608 -36.475043 
L 306.827587 -36.530249 
L 306.019094 -36.57602 
L 305.210601 -36.614188 
L 304.402108 -36.64671 
L 303.593615 -36.675551 
L 302.785122 -36.702599 
L 301.976629 -36.729623 
L 301.168136 -36.758271 
L 300.359643 -36.790114 
L 299.55115 -36.826707 
L 298.742657 -36.86968 
L 297.934164 -36.92081 
L 297.125671 -36.982072 
L 296.317178 -37.055654 
L 295.508685 -37.143909 
L 294.700192 -37.249255 
L 293.891699 -37.374017 
L 293.083206 -37.520241 
L 292.274713 -37.689474 
L 291.46622 -37.882578 
L 290.657727 -38.099577 
L 289.849234 -38.339582 
L 289.040741 -38.600829 
L 288.232248 -38.880829 
L 287.423755 -39.176662 
L 286.615262 -39.485382 
L 285.806769 -39.80454 
L 284.998276 -40.132768 
L 284.189783 -40.470399 
L 283.38129 -40.820054 
L 282.572797 -41.187161 
L 281.764304 -41.580334 
L 280.955811 -42.011582 
L 280.147318 -42.496313 
L 279.338825 -43.053099 
L 278.530332 -43.703222 
L 277.721839 -44.470007 
L 276.913346 -45.377969 
L 276.104853 -46.451829 
L 275.29636 -47.715454 
L 274.487867 -49.190784 
L 273.679374 -50.8968 
L 272.870881 -52.848598 
L 272.062388 -55.056621 
L 271.253895 -57.526066 
L 270.445402 -60.256509 
L 269.636909 -63.241729 
L 268.828416 -66.469741 
L 268.019923 -69.923003 
L 267.21143 -73.578773 
L 266.402937 -77.409577 
L 265.594444 -81.383764 
L 264.785951 -85.466108 
L 263.977458 -89.618438 
L 263.168965 -93.800293 
L 262.360472 -97.96958 
L 261.551979 -102.083254 
L 260.743486 -106.098016 
L 259.934993 -109.97105 
L 259.1265 -113.660786 
L 258.318007 -117.127708 
L 257.509514 -120.335187 
L 256.701022 -123.25032 
L 255.892529 -125.84475 
L 255.084036 -128.095426 
L 254.275543 -129.985269 
L 253.46705 -131.503706 
L 252.658557 -132.647031 
L 251.850064 -133.418575 
L 251.041571 -133.828668 
L 250.233078 -133.8944 
L 249.424585 -133.639179 
L 248.616092 -133.092124 
L 247.807599 -132.287311 
L 246.999106 -131.262904 
L 246.190613 -130.060206 
L 245.38212 -128.72265 
L 244.573627 -127.294746 
L 243.765134 -125.821014 
L 242.956641 -124.344891 
L 242.148148 -122.90763 
L 241.339655 -121.547209 
L 240.531162 -120.297249 
L 239.722669 -119.185981 
L 238.914176 -118.235291 
L 238.105683 -117.459875 
L 237.29719 -116.866585 
L 236.488697 -116.453977 
L 235.680204 -116.212148 
L 234.871711 -116.122879 
L 234.063218 -116.160121 
L 233.254725 -116.290829 
L 232.446232 -116.476122 
L 231.637739 -116.672742 
L 230.829246 -116.83474 
L 230.020753 -116.915316 
L 229.21226 -116.868722 
L 228.403767 -116.652119 
L 227.595274 -116.22731 
L 226.786781 -115.562239 
L 225.978288 -114.632196 
L 225.169795 -113.420669 
L 224.361302 -111.919812 
L 223.552809 -110.130529 
L 222.744316 -108.062175 
L 221.935823 -105.731941 
L 221.12733 -103.16394 
L 220.318837 -100.3881 
L 219.510344 -97.438895 
L 218.701851 -94.354015 
L 217.893358 -91.173019 
L 217.084865 -87.936043 
L 216.276372 -84.682593 
L 215.467879 -81.45047 
L 214.659386 -78.27484 
L 213.850893 -75.187477 
L 213.0424 -72.21616 
L 212.233907 -69.384256 
L 211.425414 -66.710456 
L 210.616921 -64.208673 
L 209.808428 -61.888086 
L 208.999935 -59.75332 
L 208.191442 -57.804742 
L 207.382949 -56.038862 
L 206.574456 -54.448811 
L 205.765964 -53.024873 
L 204.957471 -51.755063 
L 204.148978 -50.625695 
L 203.340485 -49.621947 
L 202.531992 -48.728391 
L 201.723499 -47.929466 
L 200.915006 -47.209902 
L 200.106513 -46.555068 
L 199.29802 -45.951269 
L 198.489527 -45.385976 
L 197.681034 -44.848008 
L 196.872541 -44.327669 
L 196.064048 -43.816844 
L 195.255555 -43.309066 
L 194.447062 -42.799541 
L 193.638569 -42.285143 
L 192.830076 -41.76437 
L 192.021583 -41.237249 
L 191.21309 -40.705209 
L 190.404597 -40.170892 
L 189.596104 -39.637931 
L 188.787611 -39.110694 
L 187.979118 -38.593999 
L 187.170625 -38.092822 
L 186.362132 -37.612013 
L 185.553639 -37.156039 
L 184.745146 -36.72876 
L 183.936653 -36.333262 
L 183.12816 -35.971742 
L 182.319667 -35.645463 
L 181.511174 -35.354755 
L 180.702681 -35.099082 
L 179.894188 -34.877138 
L 179.085695 -34.686983 
L 178.277202 -34.526192 
L 177.468709 -34.392011 
L 176.660216 -34.281501 
L 175.851723 -34.19168 
L 175.04323 -34.11963 
L 174.234737 -34.062591 
L 173.426244 -34.018027 
L 172.617751 -33.983664 
L 171.809258 -33.957512 
L 171.000765 -33.937869 
L 170.192272 -33.923307 
z
" style="stroke: #858585; stroke-width: 0.01"/>
    </defs>
    <g clip-path="url(#pf4c58d2251)">
     <use xlink:href="#md54d22a974" x="0" y="204.785" style="fill: #858585; fill-opacity: 0.25; stroke: #858585; stroke-width: 0.01"/>
    </g>
   </g>
   <g id="line2d_17">
    <path d="M 98.221989 170.88318 
L 108.375742 170.739687 
L 115.14491 170.413615 
L 123.606371 169.712068 
L 130.37554 169.184767 
L 135.452417 168.972183 
L 140.529293 168.95666 
L 145.60617 169.139003 
L 152.375339 169.635595 
L 160.836799 170.293023 
L 165.913676 170.452175 
L 170.990553 170.319961 
L 174.375137 170.043996 
L 177.759721 169.593577 
L 181.144306 168.926681 
L 184.52889 167.96951 
L 187.913474 166.615788 
L 189.605767 165.752342 
L 191.298059 164.745536 
L 192.990351 163.584127 
L 194.682643 162.260558 
L 196.374935 160.771566 
L 198.067227 159.118183 
L 201.451812 155.339355 
L 204.836396 150.979697 
L 208.220981 146.074094 
L 211.605565 140.580703 
L 214.990149 134.35299 
L 216.682442 130.894134 
L 218.374734 127.164979 
L 220.067026 123.14068 
L 221.759318 118.807348 
L 225.143902 109.248981 
L 230.220779 93.49385 
L 233.605363 83.336673 
L 235.297656 78.827358 
L 236.989948 74.923129 
L 238.68224 71.78183 
L 240.374532 69.539345 
L 242.066824 68.300566 
L 243.759116 68.132732 
L 245.451409 69.0615 
L 247.143701 71.069865 
L 248.835993 74.099733 
L 250.528285 78.05583 
L 252.220577 82.811517 
L 253.91287 88.216054 
L 257.297454 100.298019 
L 262.37433 119.064725 
L 265.758915 130.334764 
L 267.451207 135.303965 
L 269.143499 139.762417 
L 270.835791 143.693295 
L 272.528084 147.103335 
L 274.220376 150.01904 
L 275.912668 152.48224 
L 277.60496 154.545357 
L 279.297252 156.266681 
L 280.989544 157.705935 
L 282.681837 158.92037 
L 286.066421 160.87312 
L 289.451005 162.434496 
L 292.83559 163.765523 
L 296.220174 164.906208 
L 299.604759 165.838745 
L 302.989343 166.553908 
L 308.066219 167.314226 
L 318.219973 168.673391 
L 326.681433 169.914939 
L 331.75831 170.43108 
L 336.835187 170.717147 
L 343.604355 170.860132 
L 357.142693 170.85189 
L 365.604154 170.641013 
L 372.373322 170.227923 
L 385.91166 169.241424 
L 392.680829 169.075774 
L 399.449997 169.153808 
L 406.219166 169.497114 
L 423.142088 170.683213 
L 431.603549 170.862492 
L 434.988133 170.883213 
L 434.988133 170.883213 
" clip-path="url(#pf4c58d2251)" style="fill: none; stroke: #af5a51; stroke-width: 1.2; stroke-linecap: square"/>
   </g>
   <g id="line2d_18">
    <path d="M 166.916168 170.873792 
L 172.079028 170.721561 
L 175.766785 170.381713 
L 179.454542 169.766189 
L 189.042711 167.773045 
L 190.517814 167.320261 
L 191.992916 166.687788 
L 193.468019 165.807956 
L 194.943122 164.631876 
L 196.418225 163.142681 
L 197.893328 161.362037 
L 200.105982 158.276503 
L 211.169254 141.659009 
L 214.119459 136.778097 
L 217.807217 130.195075 
L 220.757422 124.479136 
L 222.232525 121.253592 
L 223.707628 117.572247 
L 225.182731 113.249201 
L 226.657834 108.123834 
L 228.132937 102.109512 
L 229.608039 95.236908 
L 231.820694 83.734575 
L 234.770899 68.049984 
L 236.246002 61.039459 
L 237.721105 55.108449 
L 239.196208 50.520104 
L 239.933759 48.775425 
L 240.671311 47.405946 
L 241.408862 46.410267 
L 242.146414 45.782249 
L 242.883965 45.512574 
L 243.621517 45.590256 
L 244.359068 46.003963 
L 245.09662 46.743022 
L 245.834171 47.79804 
L 246.571722 49.161106 
L 247.309274 50.825578 
L 248.784377 55.034829 
L 250.25948 60.370599 
L 251.734582 66.743876 
L 253.209685 74.00663 
L 255.42234 86.081481 
L 260.5852 114.875833 
L 262.797854 125.55201 
L 264.272957 131.793515 
L 265.74806 137.301106 
L 267.223162 142.081944 
L 268.698265 146.157459 
L 270.173368 149.555735 
L 271.648471 152.311748 
L 273.123574 154.472265 
L 274.598677 156.100827 
L 276.07378 157.278988 
L 277.548883 158.102269 
L 279.023985 158.671848 
L 281.23664 159.259592 
L 285.661948 160.365769 
L 287.874603 161.174692 
L 290.087257 162.231242 
L 292.299911 163.517756 
L 299.675426 168.161662 
L 301.88808 169.180572 
L 304.100734 169.910858 
L 306.313388 170.38036 
L 309.263594 170.709074 
L 312.951351 170.855776 
L 313.688903 170.86765 
L 313.688903 170.86765 
" clip-path="url(#pf4c58d2251)" style="fill: none; stroke: #608eb4; stroke-width: 1.2; stroke-linecap: square"/>
   </g>
   <g id="patch_3">
    <path d="M 43.840937 170.8975 
L 43.840937 32.2975 
" style="fill: none; stroke: #aaaaaa; stroke-width: 0.75; stroke-linejoin: miter; stroke-linecap: square"/>
   </g>
   <g id="patch_4">
    <path d="M 48.840937 180.8975 
L 495.240937 180.8975 
" style="fill: none; stroke: #aaaaaa; stroke-width: 0.75; stroke-linejoin: miter; stroke-linecap: square"/>
   </g>
   <g id="legend_1">
    <g id="patch_5">
     <path d="M 56.040937 16.66375 
L 72.040937 16.66375 
L 72.040937 11.06375 
L 56.040937 11.06375 
z
" style="fill: #858585; fill-opacity: 0.25; stroke: #858585; stroke-width: 0.01; stroke-linejoin: miter"/>
    </g>
    <g id="text_19">
     <!-- Normal distribution -->
     <g style="fill: #4b4b4b" transform="translate(78.440937 16.66375) scale(0.08 -0.08)">
      <defs>
       <path id="Ubuntu-4e" d="M 3590 0 
Q 3450 237 3267 531 
Q 3085 826 2873 1142 
Q 2662 1459 2435 1785 
Q 2208 2112 1984 2416 
Q 1760 2720 1549 2989 
Q 1338 3258 1158 3462 
L 1158 0 
L 550 0 
L 550 4435 
L 1043 4435 
Q 1344 4115 1686 3689 
Q 2029 3264 2365 2813 
Q 2701 2362 2998 1926 
Q 3296 1491 3501 1152 
L 3501 4435 
L 4109 4435 
L 4109 0 
L 3590 0 
z
" transform="scale(0.015625)"/>
       <path id="Ubuntu-6f" d="M 3450 1664 
Q 3450 1267 3334 947 
Q 3219 627 3011 396 
Q 2803 166 2515 41 
Q 2227 -83 1888 -83 
Q 1549 -83 1261 41 
Q 973 166 765 396 
Q 557 627 441 947 
Q 326 1267 326 1664 
Q 326 2054 441 2377 
Q 557 2701 765 2931 
Q 973 3162 1261 3286 
Q 1549 3411 1888 3411 
Q 2227 3411 2515 3286 
Q 2803 3162 3011 2931 
Q 3219 2701 3334 2377 
Q 3450 2054 3450 1664 
z
M 2829 1664 
Q 2829 2227 2576 2556 
Q 2323 2886 1888 2886 
Q 1453 2886 1200 2556 
Q 947 2227 947 1664 
Q 947 1101 1200 771 
Q 1453 442 1888 442 
Q 2323 442 2576 771 
Q 2829 1101 2829 1664 
z
" transform="scale(0.015625)"/>
       <path id="Ubuntu-72" d="M 1741 3398 
Q 1818 3398 1917 3388 
Q 2016 3379 2112 3363 
Q 2208 3347 2288 3331 
Q 2368 3315 2406 3302 
L 2304 2784 
Q 2234 2810 2070 2845 
Q 1907 2880 1651 2880 
Q 1485 2880 1321 2845 
Q 1158 2810 1107 2797 
L 1107 0 
L 512 0 
L 512 3187 
Q 723 3264 1036 3331 
Q 1350 3398 1741 3398 
z
" transform="scale(0.015625)"/>
       <path id="Ubuntu-6d" d="M 512 3232 
Q 717 3283 1053 3340 
Q 1389 3398 1830 3398 
Q 2150 3398 2368 3312 
Q 2586 3226 2733 3059 
Q 2778 3091 2874 3148 
Q 2970 3206 3110 3260 
Q 3251 3315 3424 3356 
Q 3597 3398 3795 3398 
Q 4179 3398 4422 3286 
Q 4666 3174 4803 2969 
Q 4941 2765 4989 2483 
Q 5037 2202 5037 1869 
L 5037 0 
L 4442 0 
L 4442 1741 
Q 4442 2035 4413 2246 
Q 4384 2458 4304 2598 
Q 4224 2739 4086 2806 
Q 3949 2874 3731 2874 
Q 3430 2874 3235 2794 
Q 3040 2714 2970 2650 
Q 3021 2483 3046 2284 
Q 3072 2086 3072 1869 
L 3072 0 
L 2477 0 
L 2477 1741 
Q 2477 2035 2445 2246 
Q 2413 2458 2333 2598 
Q 2253 2739 2115 2806 
Q 1978 2874 1766 2874 
Q 1677 2874 1574 2867 
Q 1472 2861 1379 2851 
Q 1286 2842 1209 2829 
Q 1133 2816 1107 2810 
L 1107 0 
L 512 0 
L 512 3232 
z
" transform="scale(0.015625)"/>
       <path id="Ubuntu-61" d="M 1638 429 
Q 1850 429 2013 438 
Q 2176 448 2285 474 
L 2285 1466 
Q 2221 1498 2077 1520 
Q 1933 1542 1728 1542 
Q 1594 1542 1443 1523 
Q 1293 1504 1168 1443 
Q 1043 1382 960 1276 
Q 877 1171 877 998 
Q 877 678 1081 553 
Q 1286 429 1638 429 
z
M 1587 3411 
Q 1946 3411 2192 3318 
Q 2438 3226 2588 3056 
Q 2739 2886 2803 2652 
Q 2867 2419 2867 2138 
L 2867 58 
Q 2790 45 2652 22 
Q 2515 0 2342 -19 
Q 2170 -38 1968 -54 
Q 1766 -70 1568 -70 
Q 1286 -70 1049 -12 
Q 813 45 640 169 
Q 467 294 371 499 
Q 275 704 275 992 
Q 275 1267 387 1465 
Q 499 1664 691 1785 
Q 883 1907 1139 1964 
Q 1395 2022 1677 2022 
Q 1766 2022 1862 2012 
Q 1958 2003 2044 1987 
Q 2131 1971 2195 1958 
Q 2259 1946 2285 1939 
L 2285 2106 
Q 2285 2253 2253 2397 
Q 2221 2541 2137 2653 
Q 2054 2765 1910 2832 
Q 1766 2899 1536 2899 
Q 1242 2899 1021 2857 
Q 800 2816 691 2771 
L 621 3264 
Q 736 3315 1005 3363 
Q 1274 3411 1587 3411 
z
" transform="scale(0.015625)"/>
       <path id="Ubuntu-6c" d="M 1510 -64 
Q 960 -51 729 173 
Q 499 397 499 870 
L 499 4864 
L 1094 4966 
L 1094 966 
Q 1094 819 1120 723 
Q 1146 627 1203 569 
Q 1261 512 1357 483 
Q 1453 454 1594 435 
L 1510 -64 
z
" transform="scale(0.015625)"/>
       <path id="Ubuntu-20" transform="scale(0.015625)"/>
       <path id="Ubuntu-64" d="M 2662 2624 
Q 2554 2714 2349 2797 
Q 2144 2880 1901 2880 
Q 1645 2880 1462 2787 
Q 1280 2694 1165 2531 
Q 1050 2368 998 2144 
Q 947 1920 947 1664 
Q 947 1082 1235 765 
Q 1523 448 2003 448 
Q 2246 448 2409 470 
Q 2573 493 2662 518 
L 2662 2624 
z
M 2662 4864 
L 3258 4966 
L 3258 96 
Q 3053 38 2733 -19 
Q 2413 -77 1997 -77 
Q 1613 -77 1305 44 
Q 998 166 780 390 
Q 563 614 444 937 
Q 326 1261 326 1664 
Q 326 2048 425 2368 
Q 525 2688 717 2918 
Q 909 3149 1187 3277 
Q 1466 3405 1824 3405 
Q 2112 3405 2333 3328 
Q 2554 3251 2662 3181 
L 2662 4864 
z
" transform="scale(0.015625)"/>
       <path id="Ubuntu-69" d="M 1107 0 
L 512 0 
L 512 3328 
L 1107 3328 
L 1107 0 
z
M 806 3930 
Q 646 3930 534 4035 
Q 422 4141 422 4320 
Q 422 4499 534 4604 
Q 646 4710 806 4710 
Q 966 4710 1078 4604 
Q 1190 4499 1190 4320 
Q 1190 4141 1078 4035 
Q 966 3930 806 3930 
z
" transform="scale(0.015625)"/>
       <path id="Ubuntu-73" d="M 1286 429 
Q 1651 429 1827 525 
Q 2003 621 2003 832 
Q 2003 1050 1830 1178 
Q 1658 1306 1261 1466 
Q 1069 1542 893 1622 
Q 717 1702 589 1811 
Q 461 1920 384 2073 
Q 307 2227 307 2451 
Q 307 2893 633 3152 
Q 960 3411 1523 3411 
Q 1664 3411 1805 3395 
Q 1946 3379 2067 3356 
Q 2189 3334 2281 3308 
Q 2374 3283 2426 3264 
L 2317 2752 
Q 2221 2803 2016 2857 
Q 1811 2912 1523 2912 
Q 1274 2912 1088 2813 
Q 902 2714 902 2502 
Q 902 2394 944 2310 
Q 986 2227 1072 2160 
Q 1158 2093 1286 2035 
Q 1414 1978 1594 1914 
Q 1830 1824 2016 1737 
Q 2202 1651 2333 1536 
Q 2464 1421 2534 1257 
Q 2605 1094 2605 858 
Q 2605 397 2262 160 
Q 1920 -77 1286 -77 
Q 845 -77 595 -3 
Q 346 70 256 109 
L 365 621 
Q 467 582 691 505 
Q 915 429 1286 429 
z
" transform="scale(0.015625)"/>
       <path id="Ubuntu-74" d="M 1069 3328 
L 2330 3328 
L 2330 2829 
L 1069 2829 
L 1069 1293 
Q 1069 1043 1107 880 
Q 1146 717 1222 624 
Q 1299 531 1414 492 
Q 1530 454 1683 454 
Q 1952 454 2115 515 
Q 2278 576 2342 602 
L 2458 109 
Q 2368 64 2144 -3 
Q 1920 -70 1632 -70 
Q 1293 -70 1072 16 
Q 851 102 716 275 
Q 582 448 528 701 
Q 474 954 474 1286 
L 474 4256 
L 1069 4358 
L 1069 3328 
z
" transform="scale(0.015625)"/>
       <path id="Ubuntu-62" d="M 1107 3181 
Q 1216 3251 1437 3328 
Q 1658 3405 1946 3405 
Q 2304 3405 2582 3277 
Q 2861 3149 3053 2918 
Q 3245 2688 3344 2368 
Q 3443 2048 3443 1664 
Q 3443 1261 3324 937 
Q 3206 614 2988 390 
Q 2771 166 2464 44 
Q 2157 -77 1773 -77 
Q 1357 -77 1037 -19 
Q 717 38 512 96 
L 512 4864 
L 1107 4966 
L 1107 3181 
z
M 1107 518 
Q 1197 493 1360 470 
Q 1523 448 1766 448 
Q 2246 448 2534 765 
Q 2822 1082 2822 1664 
Q 2822 1920 2771 2144 
Q 2720 2368 2605 2531 
Q 2490 2694 2307 2787 
Q 2125 2880 1869 2880 
Q 1626 2880 1421 2797 
Q 1216 2714 1107 2624 
L 1107 518 
z
" transform="scale(0.015625)"/>
       <path id="Ubuntu-75" d="M 3162 96 
Q 2957 45 2621 -12 
Q 2285 -70 1843 -70 
Q 1459 -70 1196 42 
Q 934 154 774 358 
Q 614 563 544 841 
Q 474 1120 474 1459 
L 474 3328 
L 1069 3328 
L 1069 1587 
Q 1069 979 1261 716 
Q 1453 454 1907 454 
Q 2003 454 2105 460 
Q 2208 467 2297 476 
Q 2387 486 2460 496 
Q 2534 506 2566 518 
L 2566 3328 
L 3162 3328 
L 3162 96 
z
" transform="scale(0.015625)"/>
       <path id="Ubuntu-6e" d="M 512 3232 
Q 717 3283 1056 3340 
Q 1395 3398 1837 3398 
Q 2234 3398 2496 3286 
Q 2758 3174 2915 2972 
Q 3072 2771 3136 2489 
Q 3200 2208 3200 1869 
L 3200 0 
L 2605 0 
L 2605 1741 
Q 2605 2048 2563 2265 
Q 2522 2483 2426 2617 
Q 2330 2752 2170 2813 
Q 2010 2874 1773 2874 
Q 1677 2874 1574 2867 
Q 1472 2861 1379 2851 
Q 1286 2842 1212 2829 
Q 1139 2816 1107 2810 
L 1107 0 
L 512 0 
L 512 3232 
z
" transform="scale(0.015625)"/>
      </defs>
      <use xlink:href="#Ubuntu-4e"/>
      <use xlink:href="#Ubuntu-6f" x="72.799988"/>
      <use xlink:href="#Ubuntu-72" x="131.799973"/>
      <use xlink:href="#Ubuntu-6d" x="170.399963"/>
      <use xlink:href="#Ubuntu-61" x="256.499954"/>
      <use xlink:href="#Ubuntu-6c" x="308.699951"/>
      <use xlink:href="#Ubuntu-20" x="335.999939"/>
      <use xlink:href="#Ubuntu-64" x="359.09993"/>
      <use xlink:href="#Ubuntu-69" x="417.999924"/>
      <use xlink:href="#Ubuntu-73" x="443.299911"/>
      <use xlink:href="#Ubuntu-74" x="487.899902"/>
      <use xlink:href="#Ubuntu-72" x="528.099899"/>
      <use xlink:href="#Ubuntu-69" x="566.69989"/>
      <use xlink:href="#Ubuntu-62" x="591.999878"/>
      <use xlink:href="#Ubuntu-75" x="650.899872"/>
      <use xlink:href="#Ubuntu-74" x="708.299866"/>
      <use xlink:href="#Ubuntu-69" x="748.499863"/>
      <use xlink:href="#Ubuntu-6f" x="773.79985"/>
      <use xlink:href="#Ubuntu-6e" x="832.799835"/>
     </g>
    </g>
    <g id="line2d_19">
     <path d="M 165.655937 13.86375 
L 173.655937 13.86375 
L 181.655937 13.86375 
" style="fill: none; stroke: #af5a51; stroke-width: 1.2; stroke-linecap: square"/>
    </g>
    <g id="text_20">
     <!-- Residuals (original) -->
     <g style="fill: #4b4b4b" transform="translate(188.055937 16.66375) scale(0.08 -0.08)">
      <defs>
       <path id="Ubuntu-52" d="M 2720 1856 
Q 2822 1728 2979 1520 
Q 3136 1312 3302 1059 
Q 3469 806 3632 531 
Q 3795 256 3910 0 
L 3232 0 
Q 3104 243 2953 492 
Q 2803 742 2649 969 
Q 2496 1197 2345 1395 
Q 2195 1594 2074 1741 
Q 1990 1734 1904 1734 
Q 1818 1734 1728 1734 
L 1171 1734 
L 1171 0 
L 550 0 
L 550 4371 
Q 813 4435 1136 4457 
Q 1459 4480 1728 4480 
Q 2662 4480 3152 4128 
Q 3642 3776 3642 3078 
Q 3642 2637 3408 2323 
Q 3174 2010 2720 1856 
z
M 1779 3936 
Q 1382 3936 1171 3917 
L 1171 2246 
L 1613 2246 
Q 1933 2246 2189 2278 
Q 2445 2310 2621 2400 
Q 2797 2490 2893 2653 
Q 2989 2816 2989 3085 
Q 2989 3334 2893 3500 
Q 2797 3667 2633 3763 
Q 2470 3859 2249 3897 
Q 2029 3936 1779 3936 
z
" transform="scale(0.015625)"/>
       <path id="Ubuntu-28" d="M 1094 1914 
Q 1094 1094 1331 396 
Q 1568 -301 2029 -896 
L 1606 -1184 
Q 1107 -576 803 214 
Q 499 1005 499 1914 
Q 499 2822 803 3612 
Q 1107 4403 1606 5011 
L 2029 4723 
Q 1568 4128 1331 3430 
Q 1094 2733 1094 1914 
z
" transform="scale(0.015625)"/>
       <path id="Ubuntu-67" d="M 2598 333 
Q 2522 282 2301 202 
Q 2080 122 1786 122 
Q 1485 122 1219 218 
Q 954 314 755 515 
Q 557 717 441 1017 
Q 326 1318 326 1734 
Q 326 2099 435 2403 
Q 544 2707 752 2928 
Q 960 3149 1261 3273 
Q 1562 3398 1939 3398 
Q 2355 3398 2665 3337 
Q 2976 3277 3187 3226 
L 3187 256 
Q 3187 -512 2790 -857 
Q 2394 -1203 1587 -1203 
Q 1274 -1203 995 -1152 
Q 717 -1101 512 -1030 
L 621 -512 
Q 800 -582 1059 -636 
Q 1318 -691 1600 -691 
Q 2131 -691 2364 -480 
Q 2598 -269 2598 192 
L 2598 333 
z
M 2592 2803 
Q 2502 2829 2352 2851 
Q 2202 2874 1946 2874 
Q 1466 2874 1206 2560 
Q 947 2246 947 1728 
Q 947 1440 1020 1235 
Q 1094 1030 1219 896 
Q 1344 762 1507 698 
Q 1670 634 1843 634 
Q 2080 634 2278 701 
Q 2477 768 2592 858 
L 2592 2803 
z
" transform="scale(0.015625)"/>
       <path id="Ubuntu-29" d="M 979 1914 
Q 979 2733 742 3430 
Q 506 4128 45 4723 
L 467 5011 
Q 966 4403 1270 3612 
Q 1574 2822 1574 1914 
Q 1574 1005 1270 214 
Q 966 -576 467 -1184 
L 45 -896 
Q 506 -301 742 396 
Q 979 1094 979 1914 
z
" transform="scale(0.015625)"/>
      </defs>
      <use xlink:href="#Ubuntu-52"/>
      <use xlink:href="#Ubuntu-65" x="62.899994"/>
      <use xlink:href="#Ubuntu-73" x="118.799988"/>
      <use xlink:href="#Ubuntu-69" x="163.399979"/>
      <use xlink:href="#Ubuntu-64" x="188.699966"/>
      <use xlink:href="#Ubuntu-75" x="247.59996"/>
      <use xlink:href="#Ubuntu-61" x="304.999954"/>
      <use xlink:href="#Ubuntu-6c" x="357.199951"/>
      <use xlink:href="#Ubuntu-73" x="384.499939"/>
      <use xlink:href="#Ubuntu-20" x="429.09993"/>
      <use xlink:href="#Ubuntu-28" x="452.199921"/>
      <use xlink:href="#Ubuntu-6f" x="484.599915"/>
      <use xlink:href="#Ubuntu-72" x="543.599899"/>
      <use xlink:href="#Ubuntu-69" x="582.19989"/>
      <use xlink:href="#Ubuntu-67" x="607.499878"/>
      <use xlink:href="#Ubuntu-69" x="665.299866"/>
      <use xlink:href="#Ubuntu-6e" x="690.599854"/>
      <use xlink:href="#Ubuntu-61" x="747.999847"/>
      <use xlink:href="#Ubuntu-6c" x="800.199844"/>
      <use xlink:href="#Ubuntu-29" x="827.499832"/>
     </g>
    </g>
    <g id="line2d_20">
     <path d="M 272.848437 13.86375 
L 280.848437 13.86375 
L 288.848437 13.86375 
" style="fill: none; stroke: #608eb4; stroke-width: 1.2; stroke-linecap: square"/>
    </g>
    <g id="text_21">
     <!-- Residuals (trimmed) -->
     <g style="fill: #4b4b4b" transform="translate(295.248437 16.66375) scale(0.08 -0.08)">
      <use xlink:href="#Ubuntu-52"/>
      <use xlink:href="#Ubuntu-65" x="62.899994"/>
      <use xlink:href="#Ubuntu-73" x="118.799988"/>
      <use xlink:href="#Ubuntu-69" x="163.399979"/>
      <use xlink:href="#Ubuntu-64" x="188.699966"/>
      <use xlink:href="#Ubuntu-75" x="247.59996"/>
      <use xlink:href="#Ubuntu-61" x="304.999954"/>
      <use xlink:href="#Ubuntu-6c" x="357.199951"/>
      <use xlink:href="#Ubuntu-73" x="384.499939"/>
      <use xlink:href="#Ubuntu-20" x="429.09993"/>
      <use xlink:href="#Ubuntu-28" x="452.199921"/>
      <use xlink:href="#Ubuntu-74" x="484.599915"/>
      <use xlink:href="#Ubuntu-72" x="524.799911"/>
      <use xlink:href="#Ubuntu-69" x="563.399902"/>
      <use xlink:href="#Ubuntu-6d" x="588.69989"/>
      <use xlink:href="#Ubuntu-6d" x="674.799881"/>
      <use xlink:href="#Ubuntu-65" x="760.899872"/>
      <use xlink:href="#Ubuntu-64" x="816.799866"/>
      <use xlink:href="#Ubuntu-29" x="875.69986"/>
     </g>
    </g>
   </g>
  </g>
 </g>
 <defs>
  <clipPath id="pf4c58d2251">
   <rect x="48.840937" y="32.2975" width="446.4" height="138.6"/>
  </clipPath>
 </defs>
</svg>
