<?xml version="1.0" encoding="utf-8" standalone="no"?>
<!DOCTYPE svg PUBLIC "-//W3C//DTD SVG 1.1//EN"
  "http://www.w3.org/Graphics/SVG/1.1/DTD/svg11.dtd">
<svg xmlns:xlink="http://www.w3.org/1999/xlink" width="167.615202pt" height="175.283438pt" viewBox="0 0 167.615202 175.283438" xmlns="http://www.w3.org/2000/svg" version="1.1">
 <metadata>
  <rdf:RDF xmlns:dc="http://purl.org/dc/elements/1.1/" xmlns:cc="http://creativecommons.org/ns#" xmlns:rdf="http://www.w3.org/1999/02/22-rdf-syntax-ns#">
   <cc:Work>
    <dc:type rdf:resource="http://purl.org/dc/dcmitype/StillImage"/>
    <dc:date>2024-03-16T10:57:34.250159</dc:date>
    <dc:format>image/svg+xml</dc:format>
    <dc:creator>
     <cc:Agent>
      <dc:title>Matplotlib v3.8.0, https://matplotlib.org/</dc:title>
     </cc:Agent>
    </dc:creator>
   </cc:Work>
  </rdf:RDF>
 </metadata>
 <defs>
  <style type="text/css">*{stroke-linejoin: round; stroke-linecap: butt}</style>
 </defs>
 <g id="figure_1">
  <g id="patch_1">
   <path d="M 0 175.283438 
L 167.615202 175.283438 
L 167.615202 0 
L 0 0 
L 0 175.283438 
z
" style="fill: none"/>
  </g>
  <g id="axes_1">
   <g id="patch_2">
    <path d="M 50.205 148.90375 
L 147.855 148.90375 
L 147.855 10.30375 
L 50.205 10.30375 
L 50.205 148.90375 
z
" style="fill: none"/>
   </g>
   <g id="matplotlib.axis_1">
    <g id="xtick_1">
     <g id="text_1">
      <!-- Base -->
      <g style="fill: #4c4c4c" transform="translate(55.647923 166.163125) scale(0.1 -0.1)">
       <defs>
        <path id="Ubuntu-Bold-42" d="M 1990 -58 
Q 1626 -58 1264 -35 
Q 902 -13 512 70 
L 512 4371 
Q 819 4429 1184 4457 
Q 1549 4486 1862 4486 
Q 2285 4486 2640 4425 
Q 2995 4365 3251 4217 
Q 3507 4070 3651 3830 
Q 3795 3590 3795 3238 
Q 3795 2707 3283 2400 
Q 3706 2240 3859 1965 
Q 4013 1690 4013 1344 
Q 4013 646 3504 294 
Q 2995 -58 1990 -58 
z
M 1485 1933 
L 1485 787 
Q 1594 774 1722 768 
Q 1850 762 2003 762 
Q 2451 762 2726 890 
Q 3002 1018 3002 1363 
Q 3002 1670 2771 1801 
Q 2541 1933 2112 1933 
L 1485 1933 
z
M 1485 2694 
L 1971 2694 
Q 2432 2694 2630 2812 
Q 2829 2931 2829 3194 
Q 2829 3462 2624 3571 
Q 2419 3680 2022 3680 
Q 1894 3680 1747 3677 
Q 1600 3674 1485 3661 
L 1485 2694 
z
" transform="scale(0.015625)"/>
        <path id="Ubuntu-Bold-61" d="M 1734 666 
Q 1875 666 2003 672 
Q 2131 678 2208 691 
L 2208 1414 
Q 2150 1427 2035 1440 
Q 1920 1453 1824 1453 
Q 1690 1453 1571 1437 
Q 1453 1421 1363 1376 
Q 1274 1331 1222 1254 
Q 1171 1178 1171 1062 
Q 1171 838 1321 752 
Q 1472 666 1734 666 
z
M 1658 3456 
Q 2080 3456 2361 3360 
Q 2643 3264 2812 3085 
Q 2982 2906 3052 2650 
Q 3123 2394 3123 2080 
L 3123 96 
Q 2918 51 2553 -9 
Q 2189 -70 1670 -70 
Q 1344 -70 1078 -12 
Q 813 45 621 176 
Q 429 307 326 518 
Q 224 730 224 1037 
Q 224 1331 342 1536 
Q 461 1741 659 1862 
Q 858 1984 1114 2038 
Q 1370 2093 1645 2093 
Q 1830 2093 1974 2077 
Q 2118 2061 2208 2035 
L 2208 2125 
Q 2208 2368 2061 2515 
Q 1914 2662 1549 2662 
Q 1306 2662 1069 2627 
Q 832 2592 659 2528 
L 538 3296 
Q 621 3322 745 3350 
Q 870 3379 1017 3401 
Q 1165 3424 1328 3440 
Q 1491 3456 1658 3456 
z
" transform="scale(0.015625)"/>
        <path id="Ubuntu-Bold-73" d="M 1414 685 
Q 1677 685 1785 736 
Q 1894 787 1894 934 
Q 1894 1050 1753 1136 
Q 1613 1222 1325 1331 
Q 1101 1414 918 1504 
Q 736 1594 608 1718 
Q 480 1843 409 2016 
Q 339 2189 339 2432 
Q 339 2906 691 3181 
Q 1043 3456 1658 3456 
Q 1965 3456 2246 3401 
Q 2528 3347 2694 3283 
L 2528 2541 
Q 2362 2598 2166 2643 
Q 1971 2688 1728 2688 
Q 1280 2688 1280 2438 
Q 1280 2381 1299 2336 
Q 1318 2291 1376 2249 
Q 1434 2208 1533 2160 
Q 1632 2112 1786 2054 
Q 2099 1939 2304 1827 
Q 2509 1715 2627 1584 
Q 2746 1453 2794 1293 
Q 2842 1133 2842 922 
Q 2842 422 2467 166 
Q 2093 -90 1408 -90 
Q 960 -90 662 -13 
Q 365 64 250 115 
L 410 890 
Q 653 794 909 739 
Q 1165 685 1414 685 
z
" transform="scale(0.015625)"/>
        <path id="Ubuntu-Bold-65" d="M 288 1658 
Q 288 2106 425 2442 
Q 563 2778 787 3002 
Q 1011 3226 1302 3341 
Q 1594 3456 1901 3456 
Q 2618 3456 3034 3017 
Q 3450 2579 3450 1728 
Q 3450 1645 3443 1545 
Q 3437 1446 3430 1370 
L 1267 1370 
Q 1299 1075 1542 902 
Q 1786 730 2195 730 
Q 2458 730 2710 778 
Q 2963 826 3123 896 
L 3251 122 
Q 3174 83 3046 44 
Q 2918 6 2761 -22 
Q 2605 -51 2425 -70 
Q 2246 -90 2067 -90 
Q 1613 -90 1277 44 
Q 941 179 720 412 
Q 499 646 393 966 
Q 288 1286 288 1658 
z
M 2528 2022 
Q 2522 2144 2486 2259 
Q 2451 2374 2377 2464 
Q 2304 2554 2192 2611 
Q 2080 2669 1914 2669 
Q 1754 2669 1638 2614 
Q 1523 2560 1446 2470 
Q 1370 2381 1328 2262 
Q 1286 2144 1267 2022 
L 2528 2022 
z
" transform="scale(0.015625)"/>
       </defs>
       <use xlink:href="#Ubuntu-Bold-42"/>
       <use xlink:href="#Ubuntu-Bold-61" x="67.199997"/>
       <use xlink:href="#Ubuntu-Bold-73" x="122.499985"/>
       <use xlink:href="#Ubuntu-Bold-65" x="170.999969"/>
      </g>
     </g>
    </g>
    <g id="xtick_2">
     <g id="text_2">
      <!-- Base (Clean) -->
      <g style="fill: #4c4c4c" transform="translate(101.468327 166.233438) scale(0.1 -0.1)">
       <defs>
        <path id="Ubuntu-Bold-20" transform="scale(0.015625)"/>
        <path id="Ubuntu-Bold-28" d="M 1389 1914 
Q 1389 1158 1625 473 
Q 1862 -211 2246 -755 
L 1581 -1184 
Q 1037 -550 742 237 
Q 448 1024 448 1914 
Q 448 2803 742 3590 
Q 1037 4378 1581 5011 
L 2246 4582 
Q 1862 4038 1625 3353 
Q 1389 2669 1389 1914 
z
" transform="scale(0.015625)"/>
        <path id="Ubuntu-Bold-43" d="M 2534 -90 
Q 1453 -90 886 512 
Q 320 1114 320 2221 
Q 320 2771 493 3203 
Q 666 3635 966 3932 
Q 1267 4230 1683 4384 
Q 2099 4538 2586 4538 
Q 2867 4538 3097 4496 
Q 3328 4454 3501 4400 
Q 3674 4346 3789 4288 
Q 3904 4230 3955 4198 
L 3667 3392 
Q 3462 3501 3190 3577 
Q 2918 3654 2573 3654 
Q 2342 3654 2121 3577 
Q 1901 3501 1731 3331 
Q 1562 3162 1459 2893 
Q 1357 2624 1357 2240 
Q 1357 1933 1424 1667 
Q 1491 1402 1641 1210 
Q 1792 1018 2035 906 
Q 2278 794 2624 794 
Q 2842 794 3014 819 
Q 3187 845 3321 880 
Q 3456 915 3558 960 
Q 3661 1005 3744 1043 
L 4019 243 
Q 3808 115 3424 12 
Q 3040 -90 2534 -90 
z
" transform="scale(0.015625)"/>
        <path id="Ubuntu-Bold-6c" d="M 1792 -64 
Q 1376 -58 1117 25 
Q 858 109 707 259 
Q 557 410 502 624 
Q 448 838 448 1107 
L 448 4813 
L 1402 4966 
L 1402 1299 
Q 1402 1171 1421 1068 
Q 1440 966 1494 896 
Q 1549 826 1651 781 
Q 1754 736 1926 723 
L 1792 -64 
z
" transform="scale(0.015625)"/>
        <path id="Ubuntu-Bold-6e" d="M 448 3251 
Q 691 3322 1075 3382 
Q 1459 3443 1882 3443 
Q 2310 3443 2595 3331 
Q 2880 3219 3046 3014 
Q 3213 2810 3283 2528 
Q 3354 2246 3354 1901 
L 3354 0 
L 2400 0 
L 2400 1786 
Q 2400 2246 2278 2438 
Q 2157 2630 1824 2630 
Q 1722 2630 1606 2620 
Q 1491 2611 1402 2598 
L 1402 0 
L 448 0 
L 448 3251 
z
" transform="scale(0.015625)"/>
        <path id="Ubuntu-Bold-29" d="M 890 1914 
Q 890 2669 653 3353 
Q 416 4038 32 4582 
L 698 5011 
Q 1242 4378 1536 3590 
Q 1830 2803 1830 1914 
Q 1830 1024 1536 237 
Q 1242 -550 698 -1184 
L 32 -755 
Q 416 -211 653 473 
Q 890 1158 890 1914 
z
" transform="scale(0.015625)"/>
       </defs>
       <use xlink:href="#Ubuntu-Bold-42"/>
       <use xlink:href="#Ubuntu-Bold-61" x="67.199997"/>
       <use xlink:href="#Ubuntu-Bold-73" x="122.499985"/>
       <use xlink:href="#Ubuntu-Bold-65" x="170.999969"/>
       <use xlink:href="#Ubuntu-Bold-20" x="229.399963"/>
       <use xlink:href="#Ubuntu-Bold-28" x="253.399948"/>
       <use xlink:href="#Ubuntu-Bold-43" x="286.999939"/>
       <use xlink:href="#Ubuntu-Bold-6c" x="351.799927"/>
       <use xlink:href="#Ubuntu-Bold-65" x="383.399918"/>
       <use xlink:href="#Ubuntu-Bold-61" x="441.799911"/>
       <use xlink:href="#Ubuntu-Bold-6e" x="497.099899"/>
       <use xlink:href="#Ubuntu-Bold-29" x="553.874893"/>
      </g>
     </g>
    </g>
   </g>
   <g id="matplotlib.axis_2">
    <g id="ytick_1">
     <g id="line2d_1">
      <defs>
       <path id="mdb149c00ce" d="M 1.5 0 
L -1.5 -0 
" style="stroke: #aaaaaa; stroke-width: 0.75"/>
      </defs>
      <g>
       <use xlink:href="#mdb149c00ce" x="30.205" y="148.90375" style="fill: #aaaaaa; stroke: #aaaaaa; stroke-width: 0.75"/>
      </g>
     </g>
     <g id="text_3">
      <!-- 0.08 -->
      <g style="fill: #808080" transform="translate(7.2 152.0075) scale(0.08 -0.08)">
       <defs>
        <path id="Ubuntu-30" d="M 320 2221 
Q 320 3334 713 3936 
Q 1107 4538 1805 4538 
Q 2502 4538 2896 3936 
Q 3290 3334 3290 2221 
Q 3290 1107 2896 505 
Q 2502 -96 1805 -96 
Q 1107 -96 713 505 
Q 320 1107 320 2221 
z
M 2662 2221 
Q 2662 2586 2620 2912 
Q 2579 3238 2480 3481 
Q 2381 3725 2214 3869 
Q 2048 4013 1805 4013 
Q 1562 4013 1395 3869 
Q 1229 3725 1129 3481 
Q 1030 3238 988 2912 
Q 947 2586 947 2221 
Q 947 1856 988 1529 
Q 1030 1203 1129 960 
Q 1229 717 1395 573 
Q 1562 429 1805 429 
Q 2048 429 2214 573 
Q 2381 717 2480 960 
Q 2579 1203 2620 1529 
Q 2662 1856 2662 2221 
z
" transform="scale(0.015625)"/>
        <path id="Ubuntu-2e" d="M 1216 346 
Q 1216 173 1101 45 
Q 986 -83 787 -83 
Q 589 -83 473 45 
Q 358 173 358 346 
Q 358 518 473 646 
Q 589 774 787 774 
Q 986 774 1101 646 
Q 1216 518 1216 346 
z
" transform="scale(0.015625)"/>
        <path id="Ubuntu-38" d="M 3258 1152 
Q 3258 883 3165 656 
Q 3072 429 2889 259 
Q 2707 90 2432 -3 
Q 2157 -96 1798 -96 
Q 1382 -96 1104 22 
Q 826 141 659 320 
Q 493 499 422 713 
Q 352 928 352 1120 
Q 352 1306 413 1475 
Q 474 1645 573 1792 
Q 672 1939 803 2057 
Q 934 2176 1082 2266 
Q 454 2624 454 3322 
Q 454 3565 550 3785 
Q 646 4006 822 4172 
Q 998 4339 1248 4438 
Q 1498 4538 1805 4538 
Q 2163 4538 2419 4429 
Q 2675 4320 2838 4150 
Q 3002 3981 3075 3776 
Q 3149 3571 3149 3379 
Q 3149 3194 3094 3030 
Q 3040 2867 2947 2726 
Q 2854 2586 2736 2477 
Q 2618 2368 2490 2285 
Q 3245 1926 3258 1152 
z
M 954 1114 
Q 954 998 995 873 
Q 1037 749 1139 643 
Q 1242 538 1402 467 
Q 1562 397 1805 397 
Q 2022 397 2185 461 
Q 2349 525 2451 624 
Q 2554 723 2605 851 
Q 2656 979 2656 1114 
Q 2656 1318 2579 1472 
Q 2502 1626 2358 1741 
Q 2214 1856 2012 1936 
Q 1811 2016 1555 2074 
Q 1267 1914 1110 1677 
Q 954 1440 954 1114 
z
M 2554 3386 
Q 2554 3482 2512 3597 
Q 2470 3712 2380 3811 
Q 2291 3910 2150 3977 
Q 2010 4045 1805 4045 
Q 1600 4045 1456 3981 
Q 1312 3917 1222 3817 
Q 1133 3718 1091 3600 
Q 1050 3482 1050 3366 
Q 1050 3226 1101 3085 
Q 1152 2944 1261 2822 
Q 1370 2701 1546 2605 
Q 1722 2509 1965 2451 
Q 2234 2611 2394 2825 
Q 2554 3040 2554 3386 
z
" transform="scale(0.015625)"/>
       </defs>
       <use xlink:href="#Ubuntu-30"/>
       <use xlink:href="#Ubuntu-2e" x="56.399994"/>
       <use xlink:href="#Ubuntu-30" x="80.999985"/>
       <use xlink:href="#Ubuntu-38" x="137.399979"/>
      </g>
     </g>
    </g>
    <g id="ytick_2">
     <g id="line2d_2">
      <g>
       <use xlink:href="#mdb149c00ce" x="30.205" y="102.70375" style="fill: #aaaaaa; stroke: #aaaaaa; stroke-width: 0.75"/>
      </g>
     </g>
     <g id="text_4">
      <!-- 0.10 -->
      <g style="fill: #808080" transform="translate(7.2 105.8075) scale(0.08 -0.08)">
       <defs>
        <path id="Ubuntu-31" d="M 595 3520 
Q 960 3661 1305 3881 
Q 1651 4102 1939 4435 
L 2362 4435 
L 2362 0 
L 1766 0 
L 1766 3610 
Q 1690 3539 1578 3462 
Q 1466 3386 1334 3315 
Q 1203 3245 1059 3181 
Q 915 3117 781 3072 
L 595 3520 
z
" transform="scale(0.015625)"/>
       </defs>
       <use xlink:href="#Ubuntu-30"/>
       <use xlink:href="#Ubuntu-2e" x="56.399994"/>
       <use xlink:href="#Ubuntu-31" x="80.999985"/>
       <use xlink:href="#Ubuntu-30" x="137.399979"/>
      </g>
     </g>
    </g>
    <g id="ytick_3">
     <g id="line2d_3">
      <g>
       <use xlink:href="#mdb149c00ce" x="30.205" y="56.50375" style="fill: #aaaaaa; stroke: #aaaaaa; stroke-width: 0.75"/>
      </g>
     </g>
     <g id="text_5">
      <!-- 0.12 -->
      <g style="fill: #808080" transform="translate(7.2 59.6075) scale(0.08 -0.08)">
       <defs>
        <path id="Ubuntu-32" d="M 2989 3302 
Q 2989 3072 2896 2857 
Q 2803 2643 2649 2435 
Q 2496 2227 2304 2025 
Q 2112 1824 1920 1632 
Q 1811 1523 1667 1376 
Q 1523 1229 1395 1069 
Q 1267 909 1180 761 
Q 1094 614 1094 506 
L 3136 506 
L 3136 0 
L 448 0 
Q 442 38 442 76 
Q 442 115 442 147 
Q 442 448 541 707 
Q 640 966 800 1196 
Q 960 1427 1158 1632 
Q 1357 1837 1549 2029 
Q 1709 2182 1853 2332 
Q 1997 2483 2109 2633 
Q 2221 2784 2288 2944 
Q 2355 3104 2355 3283 
Q 2355 3475 2294 3609 
Q 2234 3744 2131 3833 
Q 2029 3923 1891 3964 
Q 1754 4006 1600 4006 
Q 1414 4006 1260 3955 
Q 1107 3904 985 3837 
Q 864 3770 781 3696 
Q 698 3622 653 3584 
L 358 4006 
Q 416 4070 531 4163 
Q 646 4256 806 4339 
Q 966 4422 1164 4480 
Q 1363 4538 1594 4538 
Q 2291 4538 2640 4214 
Q 2989 3891 2989 3302 
z
" transform="scale(0.015625)"/>
       </defs>
       <use xlink:href="#Ubuntu-30"/>
       <use xlink:href="#Ubuntu-2e" x="56.399994"/>
       <use xlink:href="#Ubuntu-31" x="80.999985"/>
       <use xlink:href="#Ubuntu-32" x="137.399979"/>
      </g>
     </g>
    </g>
    <g id="ytick_4">
     <g id="line2d_4">
      <g>
       <use xlink:href="#mdb149c00ce" x="30.205" y="10.30375" style="fill: #aaaaaa; stroke: #aaaaaa; stroke-width: 0.75"/>
      </g>
     </g>
     <g id="text_6">
      <!-- 0.14 -->
      <g style="fill: #808080" transform="translate(7.2 13.4075) scale(0.08 -0.08)">
       <defs>
        <path id="Ubuntu-34" d="M 256 1536 
Q 378 1818 589 2192 
Q 800 2566 1065 2963 
Q 1331 3360 1635 3744 
Q 1939 4128 2246 4435 
L 2816 4435 
L 2816 1619 
L 3341 1619 
L 3341 1133 
L 2816 1133 
L 2816 0 
L 2240 0 
L 2240 1133 
L 256 1133 
L 256 1536 
z
M 2240 3731 
Q 2048 3526 1853 3273 
Q 1658 3021 1472 2745 
Q 1286 2470 1123 2182 
Q 960 1894 832 1619 
L 2240 1619 
L 2240 3731 
z
" transform="scale(0.015625)"/>
       </defs>
       <use xlink:href="#Ubuntu-30"/>
       <use xlink:href="#Ubuntu-2e" x="56.399994"/>
       <use xlink:href="#Ubuntu-31" x="80.999985"/>
       <use xlink:href="#Ubuntu-34" x="137.399979"/>
      </g>
     </g>
    </g>
   </g>
   <g id="patch_3">
    <path d="M 51.162353 333.70375 
L 83.074118 333.70375 
L 83.074118 38.913593 
L 51.162353 38.913593 
z
" clip-path="url(#p8668f8ffe2)" style="fill: #5d5d5d; opacity: 0.98; stroke: #fefefe; stroke-linejoin: miter"/>
   </g>
   <g id="patch_4">
    <path d="M 114.985882 333.70375 
L 146.897647 333.70375 
L 146.897647 48.765686 
L 114.985882 48.765686 
z
" clip-path="url(#p8668f8ffe2)" style="fill: #5d5d5d; opacity: 0.98; stroke: #fefefe; stroke-linejoin: miter"/>
   </g>
   <g id="line2d_5">
    <path d="M 67.118235 64.32179 
L 67.118235 13.181663 
" clip-path="url(#p8668f8ffe2)" style="fill: none; stroke: #aeaeae; stroke-width: 1.8; stroke-linecap: square"/>
   </g>
   <g id="line2d_6">
    <path d="M 130.941765 70.171499 
L 130.941765 26.285239 
" clip-path="url(#p8668f8ffe2)" style="fill: none; stroke: #aeaeae; stroke-width: 1.8; stroke-linecap: square"/>
   </g>
   <g id="patch_5">
    <path d="M 30.205 148.90375 
L 30.205 10.30375 
" style="fill: none; stroke: #aaaaaa; stroke-width: 0.75; stroke-linejoin: miter; stroke-linecap: square"/>
   </g>
  </g>
 </g>
 <defs>
  <clipPath id="p8668f8ffe2">
   <rect x="50.205" y="10.30375" width="97.65" height="138.6"/>
  </clipPath>
 </defs>
</svg>
