<?xml version="1.0" encoding="utf-8" standalone="no"?>
<!DOCTYPE svg PUBLIC "-//W3C//DTD SVG 1.1//EN"
  "http://www.w3.org/Graphics/SVG/1.1/DTD/svg11.dtd">
<svg xmlns:xlink="http://www.w3.org/1999/xlink" width="240.271875pt" height="270.106875pt" viewBox="0 0 240.271875 270.106875" xmlns="http://www.w3.org/2000/svg" version="1.1">
 <metadata>
  <rdf:RDF xmlns:dc="http://purl.org/dc/elements/1.1/" xmlns:cc="http://creativecommons.org/ns#" xmlns:rdf="http://www.w3.org/1999/02/22-rdf-syntax-ns#">
   <cc:Work>
    <dc:type rdf:resource="http://purl.org/dc/dcmitype/StillImage"/>
    <dc:date>2024-03-16T10:11:40.626893</dc:date>
    <dc:format>image/svg+xml</dc:format>
    <dc:creator>
     <cc:Agent>
      <dc:title>Matplotlib v3.8.0, https://matplotlib.org/</dc:title>
     </cc:Agent>
    </dc:creator>
   </cc:Work>
  </rdf:RDF>
 </metadata>
 <defs>
  <style type="text/css">*{stroke-linejoin: round; stroke-linecap: butt}</style>
 </defs>
 <g id="figure_1">
  <g id="patch_1">
   <path d="M 0 270.106875 
L 240.271875 270.106875 
L 240.271875 0 
L 0 0 
L 0 270.106875 
z
" style="fill: none"/>
  </g>
  <g id="axes_1">
   <g id="patch_2">
    <path d="M 64.425 251.719375 
L 231.825 251.719375 
L 231.825 29.959375 
L 64.425 29.959375 
L 64.425 251.719375 
z
" style="fill: none"/>
   </g>
   <g id="matplotlib.axis_1">
    <g id="xtick_1">
     <g id="line2d_1">
      <defs>
       <path id="md5724fb6d2" d="M 0 0 
L 0 -3 
" style="stroke: #bbbbbb"/>
      </defs>
      <g>
       <use xlink:href="#md5724fb6d2" x="71.054802" y="251.719375" style="fill: #bbbbbb; stroke: #bbbbbb"/>
      </g>
     </g>
     <g id="text_1">
      <!-- −0.10 -->
      <g style="fill: #9f9f9f" transform="translate(61.046052 261.426875) scale(0.08 -0.08)">
       <defs>
        <path id="Ubuntu-2212" d="M 339 2138 
L 3270 2138 
L 3270 1632 
L 339 1632 
L 339 2138 
z
" transform="scale(0.015625)"/>
        <path id="Ubuntu-30" d="M 320 2221 
Q 320 3334 713 3936 
Q 1107 4538 1805 4538 
Q 2502 4538 2896 3936 
Q 3290 3334 3290 2221 
Q 3290 1107 2896 505 
Q 2502 -96 1805 -96 
Q 1107 -96 713 505 
Q 320 1107 320 2221 
z
M 2662 2221 
Q 2662 2586 2620 2912 
Q 2579 3238 2480 3481 
Q 2381 3725 2214 3869 
Q 2048 4013 1805 4013 
Q 1562 4013 1395 3869 
Q 1229 3725 1129 3481 
Q 1030 3238 988 2912 
Q 947 2586 947 2221 
Q 947 1856 988 1529 
Q 1030 1203 1129 960 
Q 1229 717 1395 573 
Q 1562 429 1805 429 
Q 2048 429 2214 573 
Q 2381 717 2480 960 
Q 2579 1203 2620 1529 
Q 2662 1856 2662 2221 
z
" transform="scale(0.015625)"/>
        <path id="Ubuntu-2e" d="M 1216 346 
Q 1216 173 1101 45 
Q 986 -83 787 -83 
Q 589 -83 473 45 
Q 358 173 358 346 
Q 358 518 473 646 
Q 589 774 787 774 
Q 986 774 1101 646 
Q 1216 518 1216 346 
z
" transform="scale(0.015625)"/>
        <path id="Ubuntu-31" d="M 595 3520 
Q 960 3661 1305 3881 
Q 1651 4102 1939 4435 
L 2362 4435 
L 2362 0 
L 1766 0 
L 1766 3610 
Q 1690 3539 1578 3462 
Q 1466 3386 1334 3315 
Q 1203 3245 1059 3181 
Q 915 3117 781 3072 
L 595 3520 
z
" transform="scale(0.015625)"/>
       </defs>
       <use xlink:href="#Ubuntu-2212"/>
       <use xlink:href="#Ubuntu-30" x="56.399994"/>
       <use xlink:href="#Ubuntu-2e" x="112.799988"/>
       <use xlink:href="#Ubuntu-31" x="137.399979"/>
       <use xlink:href="#Ubuntu-30" x="193.799973"/>
      </g>
     </g>
    </g>
    <g id="xtick_2">
     <g id="line2d_2">
      <g>
       <use xlink:href="#md5724fb6d2" x="101.062491" y="251.719375" style="fill: #bbbbbb; stroke: #bbbbbb"/>
      </g>
     </g>
     <g id="text_2">
      <!-- −0.05 -->
      <g style="fill: #9f9f9f" transform="translate(91.053741 261.426875) scale(0.08 -0.08)">
       <defs>
        <path id="Ubuntu-35" d="M 1274 2726 
Q 2240 2688 2691 2304 
Q 3142 1920 3142 1261 
Q 3142 966 3043 716 
Q 2944 467 2742 288 
Q 2541 109 2233 6 
Q 1926 -96 1504 -96 
Q 1338 -96 1165 -70 
Q 992 -45 845 -6 
Q 698 32 582 70 
Q 467 109 416 134 
L 531 653 
Q 640 602 886 518 
Q 1133 435 1491 435 
Q 1779 435 1974 499 
Q 2170 563 2291 672 
Q 2413 781 2467 925 
Q 2522 1069 2522 1229 
Q 2522 1472 2438 1661 
Q 2355 1850 2144 1978 
Q 1933 2106 1581 2173 
Q 1229 2240 691 2240 
Q 730 2554 752 2829 
Q 774 3104 793 3366 
Q 813 3629 825 3888 
Q 838 4147 851 4435 
L 2989 4435 
L 2989 3930 
L 1370 3930 
Q 1363 3834 1350 3670 
Q 1338 3507 1325 3331 
Q 1312 3155 1299 2988 
Q 1286 2822 1274 2726 
z
" transform="scale(0.015625)"/>
       </defs>
       <use xlink:href="#Ubuntu-2212"/>
       <use xlink:href="#Ubuntu-30" x="56.399994"/>
       <use xlink:href="#Ubuntu-2e" x="112.799988"/>
       <use xlink:href="#Ubuntu-30" x="137.399979"/>
       <use xlink:href="#Ubuntu-35" x="193.799973"/>
      </g>
     </g>
    </g>
    <g id="xtick_3">
     <g id="line2d_3">
      <g>
       <use xlink:href="#md5724fb6d2" x="131.070181" y="251.719375" style="fill: #bbbbbb; stroke: #bbbbbb"/>
      </g>
     </g>
     <g id="text_3">
      <!-- 0.00 -->
      <g style="fill: #9f9f9f" transform="translate(123.317681 261.426875) scale(0.08 -0.08)">
       <use xlink:href="#Ubuntu-30"/>
       <use xlink:href="#Ubuntu-2e" x="56.399994"/>
       <use xlink:href="#Ubuntu-30" x="80.999985"/>
       <use xlink:href="#Ubuntu-30" x="137.399979"/>
      </g>
     </g>
    </g>
    <g id="xtick_4">
     <g id="line2d_4">
      <g>
       <use xlink:href="#md5724fb6d2" x="161.077871" y="251.719375" style="fill: #bbbbbb; stroke: #bbbbbb"/>
      </g>
     </g>
     <g id="text_4">
      <!-- 0.05 -->
      <g style="fill: #9f9f9f" transform="translate(153.325371 261.426875) scale(0.08 -0.08)">
       <use xlink:href="#Ubuntu-30"/>
       <use xlink:href="#Ubuntu-2e" x="56.399994"/>
       <use xlink:href="#Ubuntu-30" x="80.999985"/>
       <use xlink:href="#Ubuntu-35" x="137.399979"/>
      </g>
     </g>
    </g>
    <g id="xtick_5">
     <g id="line2d_5">
      <g>
       <use xlink:href="#md5724fb6d2" x="191.085561" y="251.719375" style="fill: #bbbbbb; stroke: #bbbbbb"/>
      </g>
     </g>
     <g id="text_5">
      <!-- 0.10 -->
      <g style="fill: #9f9f9f" transform="translate(183.333061 261.426875) scale(0.08 -0.08)">
       <use xlink:href="#Ubuntu-30"/>
       <use xlink:href="#Ubuntu-2e" x="56.399994"/>
       <use xlink:href="#Ubuntu-31" x="80.999985"/>
       <use xlink:href="#Ubuntu-30" x="137.399979"/>
      </g>
     </g>
    </g>
    <g id="xtick_6">
     <g id="line2d_6">
      <g>
       <use xlink:href="#md5724fb6d2" x="221.093251" y="251.719375" style="fill: #bbbbbb; stroke: #bbbbbb"/>
      </g>
     </g>
     <g id="text_6">
      <!-- 0.15 -->
      <g style="fill: #9f9f9f" transform="translate(213.340751 261.426875) scale(0.08 -0.08)">
       <use xlink:href="#Ubuntu-30"/>
       <use xlink:href="#Ubuntu-2e" x="56.399994"/>
       <use xlink:href="#Ubuntu-31" x="80.999985"/>
       <use xlink:href="#Ubuntu-35" x="137.399979"/>
      </g>
     </g>
    </g>
   </g>
   <g id="matplotlib.axis_2">
    <g id="ytick_1">
     <g id="line2d_7">
      <defs>
       <path id="mb9623a7ebf" d="M 0 0 
L 3 0 
" style="stroke: #bbbbbb"/>
      </defs>
      <g>
       <use xlink:href="#mb9623a7ebf" x="64.425" y="43.09392" style="fill: #bbbbbb; stroke: #bbbbbb"/>
      </g>
     </g>
     <g id="text_7">
      <!-- LG_FLRSFMEAN -->
      <g style="fill: #9f9f9f" transform="translate(7.2 45.809702) scale(0.07 -0.07)">
       <defs>
        <path id="Ubuntu-Bold-4c" d="M 3475 858 
L 3475 0 
L 512 0 
L 512 4435 
L 1510 4435 
L 1510 858 
L 3475 858 
z
" transform="scale(0.015625)"/>
        <path id="Ubuntu-Bold-47" d="M 2675 3667 
Q 1978 3667 1667 3280 
Q 1357 2893 1357 2221 
Q 1357 1894 1433 1628 
Q 1510 1363 1664 1171 
Q 1818 979 2048 873 
Q 2278 768 2586 768 
Q 2752 768 2870 774 
Q 2989 781 3078 800 
L 3078 2342 
L 4077 2342 
L 4077 147 
Q 3898 77 3501 -3 
Q 3104 -83 2522 -83 
Q 2022 -83 1616 70 
Q 1210 224 922 518 
Q 634 813 477 1241 
Q 320 1670 320 2221 
Q 320 2778 493 3206 
Q 666 3635 966 3932 
Q 1267 4230 1673 4384 
Q 2080 4538 2541 4538 
Q 2854 4538 3107 4496 
Q 3360 4454 3542 4400 
Q 3725 4346 3843 4288 
Q 3962 4230 4013 4198 
L 3725 3398 
Q 3520 3507 3254 3587 
Q 2989 3667 2675 3667 
z
" transform="scale(0.015625)"/>
        <path id="Ubuntu-Bold-5f" d="M 0 -390 
L 3200 -390 
L 3200 -1184 
L 0 -1184 
L 0 -390 
z
" transform="scale(0.015625)"/>
        <path id="Ubuntu-Bold-46" d="M 512 0 
L 512 4435 
L 3482 4435 
L 3482 3597 
L 1510 3597 
L 1510 2669 
L 3264 2669 
L 3264 1830 
L 1510 1830 
L 1510 0 
L 512 0 
z
" transform="scale(0.015625)"/>
        <path id="Ubuntu-Bold-52" d="M 1811 4486 
Q 2810 4486 3341 4131 
Q 3872 3776 3872 3027 
Q 3872 2560 3657 2269 
Q 3443 1978 3040 1811 
Q 3174 1645 3321 1430 
Q 3469 1216 3613 982 
Q 3757 749 3891 496 
Q 4026 243 4141 0 
L 3021 0 
Q 2899 218 2774 442 
Q 2650 666 2518 877 
Q 2387 1088 2259 1277 
Q 2131 1466 2003 1619 
L 1510 1619 
L 1510 0 
L 512 0 
L 512 4371 
Q 838 4435 1187 4460 
Q 1536 4486 1811 4486 
z
M 1869 3635 
Q 1760 3635 1673 3628 
Q 1587 3622 1510 3616 
L 1510 2413 
L 1792 2413 
Q 2355 2413 2598 2553 
Q 2842 2694 2842 3034 
Q 2842 3360 2595 3497 
Q 2349 3635 1869 3635 
z
" transform="scale(0.015625)"/>
        <path id="Ubuntu-Bold-53" d="M 1722 762 
Q 1933 762 2070 797 
Q 2208 832 2291 893 
Q 2374 954 2406 1037 
Q 2438 1120 2438 1222 
Q 2438 1440 2233 1584 
Q 2029 1728 1530 1894 
Q 1312 1971 1094 2070 
Q 877 2170 704 2320 
Q 531 2470 422 2684 
Q 314 2899 314 3206 
Q 314 3514 429 3760 
Q 544 4006 755 4179 
Q 966 4352 1267 4445 
Q 1568 4538 1946 4538 
Q 2394 4538 2720 4442 
Q 3046 4346 3258 4230 
L 2970 3443 
Q 2784 3539 2557 3612 
Q 2330 3686 2010 3686 
Q 1651 3686 1494 3587 
Q 1338 3488 1338 3283 
Q 1338 3162 1395 3078 
Q 1453 2995 1558 2928 
Q 1664 2861 1801 2806 
Q 1939 2752 2106 2694 
Q 2451 2566 2707 2441 
Q 2963 2317 3132 2150 
Q 3302 1984 3385 1760 
Q 3469 1536 3469 1216 
Q 3469 595 3033 252 
Q 2598 -90 1722 -90 
Q 1427 -90 1190 -54 
Q 954 -19 771 32 
Q 589 83 457 140 
Q 326 198 237 250 
L 518 1043 
Q 717 934 1008 848 
Q 1299 762 1722 762 
z
" transform="scale(0.015625)"/>
        <path id="Ubuntu-Bold-4d" d="M 1690 4435 
Q 1805 4224 1955 3913 
Q 2106 3603 2269 3241 
Q 2432 2880 2592 2502 
Q 2752 2125 2893 1792 
Q 3034 2125 3194 2502 
Q 3354 2880 3517 3241 
Q 3680 3603 3830 3913 
Q 3981 4224 4096 4435 
L 5005 4435 
Q 5069 3994 5123 3446 
Q 5178 2899 5219 2307 
Q 5261 1715 5296 1120 
Q 5331 525 5357 0 
L 4384 0 
Q 4365 646 4333 1408 
Q 4301 2170 4237 2944 
Q 4122 2675 3981 2348 
Q 3840 2022 3702 1696 
Q 3565 1370 3437 1072 
Q 3309 774 3219 563 
L 2522 563 
Q 2432 774 2304 1072 
Q 2176 1370 2038 1696 
Q 1901 2022 1760 2348 
Q 1619 2675 1504 2944 
Q 1440 2170 1408 1408 
Q 1376 646 1357 0 
L 384 0 
Q 410 525 445 1120 
Q 480 1715 521 2307 
Q 563 2899 617 3446 
Q 672 3994 736 4435 
L 1690 4435 
z
" transform="scale(0.015625)"/>
        <path id="Ubuntu-Bold-45" d="M 512 0 
L 512 4435 
L 3507 4435 
L 3507 3597 
L 1510 3597 
L 1510 2726 
L 3283 2726 
L 3283 1907 
L 1510 1907 
L 1510 838 
L 3654 838 
L 3654 0 
L 512 0 
z
" transform="scale(0.015625)"/>
        <path id="Ubuntu-Bold-41" d="M 3482 0 
Q 3411 230 3324 473 
Q 3238 717 3155 960 
L 1427 960 
Q 1344 717 1257 473 
Q 1171 230 1101 0 
L 64 0 
Q 314 717 538 1325 
Q 762 1933 976 2470 
Q 1190 3008 1398 3491 
Q 1606 3974 1830 4435 
L 2784 4435 
Q 3002 3974 3213 3491 
Q 3424 3008 3638 2470 
Q 3853 1933 4077 1325 
Q 4301 717 4550 0 
L 3482 0 
z
M 2285 3430 
Q 2253 3334 2189 3168 
Q 2125 3002 2041 2784 
Q 1958 2566 1859 2304 
Q 1760 2042 1658 1754 
L 2918 1754 
Q 2816 2042 2720 2304 
Q 2624 2566 2537 2784 
Q 2451 3002 2387 3168 
Q 2323 3334 2285 3430 
z
" transform="scale(0.015625)"/>
        <path id="Ubuntu-Bold-4e" d="M 3488 0 
Q 3059 762 2560 1504 
Q 2061 2246 1498 2906 
L 1498 0 
L 512 0 
L 512 4435 
L 1325 4435 
Q 1536 4224 1792 3917 
Q 2048 3610 2313 3261 
Q 2579 2912 2841 2537 
Q 3104 2163 3334 1818 
L 3334 4435 
L 4326 4435 
L 4326 0 
L 3488 0 
z
" transform="scale(0.015625)"/>
       </defs>
       <use xlink:href="#Ubuntu-Bold-4c"/>
       <use xlink:href="#Ubuntu-Bold-47" x="54.299988"/>
       <use xlink:href="#Ubuntu-Bold-5f" x="124.499969"/>
       <use xlink:href="#Ubuntu-Bold-46" x="174.499954"/>
       <use xlink:href="#Ubuntu-Bold-4c" x="231.899948"/>
       <use xlink:href="#Ubuntu-Bold-52" x="288.199936"/>
       <use xlink:href="#Ubuntu-Bold-53" x="354.899933"/>
       <use xlink:href="#Ubuntu-Bold-46" x="413.09993"/>
       <use xlink:href="#Ubuntu-Bold-4d" x="469.499924"/>
       <use xlink:href="#Ubuntu-Bold-45" x="559.199905"/>
       <use xlink:href="#Ubuntu-Bold-41" x="619.799896"/>
       <use xlink:href="#Ubuntu-Bold-4e" x="691.899887"/>
      </g>
     </g>
    </g>
    <g id="ytick_2">
     <g id="line2d_8">
      <g>
       <use xlink:href="#mb9623a7ebf" x="64.425" y="67.530284" style="fill: #bbbbbb; stroke: #bbbbbb"/>
      </g>
     </g>
     <g id="text_8">
      <!-- OVERALLQUAL -->
      <g style="fill: #9f9f9f" transform="translate(9.271563 70.235675) scale(0.07 -0.07)">
       <defs>
        <path id="Ubuntu-Bold-4f" d="M 1350 2221 
Q 1350 1894 1430 1632 
Q 1510 1370 1660 1181 
Q 1811 992 2028 889 
Q 2246 787 2528 787 
Q 2803 787 3024 889 
Q 3245 992 3395 1181 
Q 3546 1370 3626 1632 
Q 3706 1894 3706 2221 
Q 3706 2547 3626 2812 
Q 3546 3078 3395 3267 
Q 3245 3456 3024 3558 
Q 2803 3661 2528 3661 
Q 2246 3661 2028 3555 
Q 1811 3450 1660 3261 
Q 1510 3072 1430 2806 
Q 1350 2541 1350 2221 
z
M 4736 2221 
Q 4736 1651 4566 1219 
Q 4397 787 4102 496 
Q 3808 205 3401 57 
Q 2995 -90 2528 -90 
Q 2074 -90 1670 57 
Q 1267 205 966 496 
Q 666 787 493 1219 
Q 320 1651 320 2221 
Q 320 2790 499 3222 
Q 678 3654 982 3948 
Q 1286 4243 1686 4390 
Q 2086 4538 2528 4538 
Q 2982 4538 3385 4390 
Q 3789 4243 4089 3948 
Q 4390 3654 4563 3222 
Q 4736 2790 4736 2221 
z
" transform="scale(0.015625)"/>
        <path id="Ubuntu-Bold-56" d="M 1830 0 
Q 1568 557 1312 1158 
Q 1056 1760 825 2349 
Q 595 2938 400 3475 
Q 205 4013 64 4435 
L 1165 4435 
Q 1293 4051 1443 3606 
Q 1594 3162 1750 2720 
Q 1907 2278 2054 1875 
Q 2202 1472 2330 1178 
Q 2451 1472 2601 1875 
Q 2752 2278 2909 2720 
Q 3066 3162 3216 3606 
Q 3366 4051 3494 4435 
L 4557 4435 
Q 4410 4013 4218 3475 
Q 4026 2938 3795 2349 
Q 3565 1760 3309 1158 
Q 3053 557 2790 0 
L 1830 0 
z
" transform="scale(0.015625)"/>
        <path id="Ubuntu-Bold-51" d="M 1350 2221 
Q 1350 1894 1430 1632 
Q 1510 1370 1660 1181 
Q 1811 992 2028 889 
Q 2246 787 2528 787 
Q 2803 787 3024 889 
Q 3245 992 3395 1181 
Q 3546 1370 3626 1632 
Q 3706 1894 3706 2221 
Q 3706 2547 3626 2812 
Q 3546 3078 3395 3267 
Q 3245 3456 3024 3558 
Q 2803 3661 2528 3661 
Q 2246 3661 2028 3555 
Q 1811 3450 1660 3261 
Q 1510 3072 1430 2806 
Q 1350 2541 1350 2221 
z
M 4736 2221 
Q 4736 1754 4621 1379 
Q 4506 1005 4298 723 
Q 4090 442 3802 256 
Q 3514 70 3168 -13 
Q 3200 -141 3309 -221 
Q 3418 -301 3584 -352 
Q 3750 -403 3971 -428 
Q 4192 -454 4448 -474 
L 4243 -1203 
Q 3744 -1184 3389 -1104 
Q 3034 -1024 2787 -883 
Q 2541 -742 2397 -537 
Q 2253 -333 2176 -64 
Q 1779 -13 1440 156 
Q 1101 326 851 614 
Q 602 902 461 1305 
Q 320 1709 320 2221 
Q 320 2790 499 3222 
Q 678 3654 982 3948 
Q 1286 4243 1686 4390 
Q 2086 4538 2528 4538 
Q 2982 4538 3385 4390 
Q 3789 4243 4089 3948 
Q 4390 3654 4563 3222 
Q 4736 2790 4736 2221 
z
" transform="scale(0.015625)"/>
        <path id="Ubuntu-Bold-55" d="M 2246 -90 
Q 1779 -90 1440 41 
Q 1101 173 880 406 
Q 659 640 553 963 
Q 448 1286 448 1677 
L 448 4435 
L 1446 4435 
L 1446 1760 
Q 1446 1491 1507 1302 
Q 1568 1114 1673 995 
Q 1779 877 1929 825 
Q 2080 774 2259 774 
Q 2624 774 2851 998 
Q 3078 1222 3078 1760 
L 3078 4435 
L 4077 4435 
L 4077 1677 
Q 4077 1286 3968 960 
Q 3859 634 3635 400 
Q 3411 166 3065 38 
Q 2720 -90 2246 -90 
z
" transform="scale(0.015625)"/>
       </defs>
       <use xlink:href="#Ubuntu-Bold-4f"/>
       <use xlink:href="#Ubuntu-Bold-56" x="76.499985"/>
       <use xlink:href="#Ubuntu-Bold-45" x="148.699966"/>
       <use xlink:href="#Ubuntu-Bold-52" x="209.299957"/>
       <use xlink:href="#Ubuntu-Bold-41" x="279.124954"/>
       <use xlink:href="#Ubuntu-Bold-4c" x="351.224945"/>
       <use xlink:href="#Ubuntu-Bold-4c" x="407.524933"/>
       <use xlink:href="#Ubuntu-Bold-51" x="461.824921"/>
       <use xlink:href="#Ubuntu-Bold-55" x="540.824905"/>
       <use xlink:href="#Ubuntu-Bold-41" x="609.524887"/>
       <use xlink:href="#Ubuntu-Bold-4c" x="681.624878"/>
      </g>
     </g>
    </g>
    <g id="ytick_3">
     <g id="line2d_9">
      <g>
       <use xlink:href="#mb9623a7ebf" x="64.425" y="91.966648" style="fill: #bbbbbb; stroke: #bbbbbb"/>
      </g>
     </g>
     <g id="text_9">
      <!-- HOUSEAGE -->
      <g style="fill: #9f9f9f" transform="translate(22.964219 94.682429) scale(0.07 -0.07)">
       <defs>
        <path id="Ubuntu-Bold-48" d="M 3187 4435 
L 4186 4435 
L 4186 0 
L 3187 0 
L 3187 1882 
L 1510 1882 
L 1510 0 
L 512 0 
L 512 4435 
L 1510 4435 
L 1510 2739 
L 3187 2739 
L 3187 4435 
z
" transform="scale(0.015625)"/>
       </defs>
       <use xlink:href="#Ubuntu-Bold-48"/>
       <use xlink:href="#Ubuntu-Bold-4f" x="73.399994"/>
       <use xlink:href="#Ubuntu-Bold-55" x="152.399979"/>
       <use xlink:href="#Ubuntu-Bold-53" x="223.09996"/>
       <use xlink:href="#Ubuntu-Bold-45" x="281.299957"/>
       <use xlink:href="#Ubuntu-Bold-41" x="341.899948"/>
       <use xlink:href="#Ubuntu-Bold-47" x="411.499939"/>
       <use xlink:href="#Ubuntu-Bold-45" x="481.699921"/>
      </g>
     </g>
    </g>
    <g id="ytick_4">
     <g id="line2d_10">
      <g>
       <use xlink:href="#mb9623a7ebf" x="64.425" y="116.403011" style="fill: #bbbbbb; stroke: #bbbbbb"/>
      </g>
     </g>
     <g id="text_10">
      <!-- LG_LOTAREA -->
      <g style="fill: #9f9f9f" transform="translate(16.811875 119.118793) scale(0.07 -0.07)">
       <defs>
        <path id="Ubuntu-Bold-54" d="M 3802 4435 
L 3802 3584 
L 2464 3584 
L 2464 0 
L 1466 0 
L 1466 3584 
L 128 3584 
L 128 4435 
L 3802 4435 
z
" transform="scale(0.015625)"/>
       </defs>
       <use xlink:href="#Ubuntu-Bold-4c"/>
       <use xlink:href="#Ubuntu-Bold-47" x="54.299988"/>
       <use xlink:href="#Ubuntu-Bold-5f" x="124.499969"/>
       <use xlink:href="#Ubuntu-Bold-4c" x="174.499954"/>
       <use xlink:href="#Ubuntu-Bold-4f" x="228.799942"/>
       <use xlink:href="#Ubuntu-Bold-54" x="305.549927"/>
       <use xlink:href="#Ubuntu-Bold-41" x="358.699921"/>
       <use xlink:href="#Ubuntu-Bold-52" x="430.799911"/>
       <use xlink:href="#Ubuntu-Bold-45" x="497.499908"/>
       <use xlink:href="#Ubuntu-Bold-41" x="558.099899"/>
      </g>
     </g>
    </g>
    <g id="ytick_5">
     <g id="line2d_11">
      <g>
       <use xlink:href="#mb9623a7ebf" x="64.425" y="140.839375" style="fill: #bbbbbb; stroke: #bbbbbb"/>
      </g>
     </g>
     <g id="text_11">
      <!-- OVERALLCOND -->
      <g style="fill: #9f9f9f" transform="translate(8.256563 143.555156) scale(0.07 -0.07)">
       <defs>
        <path id="Ubuntu-Bold-43" d="M 2534 -90 
Q 1453 -90 886 512 
Q 320 1114 320 2221 
Q 320 2771 493 3203 
Q 666 3635 966 3932 
Q 1267 4230 1683 4384 
Q 2099 4538 2586 4538 
Q 2867 4538 3097 4496 
Q 3328 4454 3501 4400 
Q 3674 4346 3789 4288 
Q 3904 4230 3955 4198 
L 3667 3392 
Q 3462 3501 3190 3577 
Q 2918 3654 2573 3654 
Q 2342 3654 2121 3577 
Q 1901 3501 1731 3331 
Q 1562 3162 1459 2893 
Q 1357 2624 1357 2240 
Q 1357 1933 1424 1667 
Q 1491 1402 1641 1210 
Q 1792 1018 2035 906 
Q 2278 794 2624 794 
Q 2842 794 3014 819 
Q 3187 845 3321 880 
Q 3456 915 3558 960 
Q 3661 1005 3744 1043 
L 4019 243 
Q 3808 115 3424 12 
Q 3040 -90 2534 -90 
z
" transform="scale(0.015625)"/>
        <path id="Ubuntu-Bold-44" d="M 1510 813 
Q 1581 806 1673 803 
Q 1766 800 1894 800 
Q 2643 800 3004 1177 
Q 3366 1555 3366 2221 
Q 3366 2918 3020 3276 
Q 2675 3635 1926 3635 
Q 1824 3635 1715 3632 
Q 1606 3629 1510 3616 
L 1510 813 
z
M 4397 2221 
Q 4397 1645 4217 1216 
Q 4038 787 3708 505 
Q 3379 224 2905 83 
Q 2432 -58 1843 -58 
Q 1574 -58 1216 -35 
Q 858 -13 512 58 
L 512 4378 
Q 858 4442 1232 4464 
Q 1606 4486 1875 4486 
Q 2445 4486 2909 4358 
Q 3373 4230 3705 3955 
Q 4038 3680 4217 3251 
Q 4397 2822 4397 2221 
z
" transform="scale(0.015625)"/>
       </defs>
       <use xlink:href="#Ubuntu-Bold-4f"/>
       <use xlink:href="#Ubuntu-Bold-56" x="76.499985"/>
       <use xlink:href="#Ubuntu-Bold-45" x="148.699966"/>
       <use xlink:href="#Ubuntu-Bold-52" x="209.299957"/>
       <use xlink:href="#Ubuntu-Bold-41" x="279.124954"/>
       <use xlink:href="#Ubuntu-Bold-4c" x="351.224945"/>
       <use xlink:href="#Ubuntu-Bold-4c" x="407.524933"/>
       <use xlink:href="#Ubuntu-Bold-43" x="461.824921"/>
       <use xlink:href="#Ubuntu-Bold-4f" x="524.124908"/>
       <use xlink:href="#Ubuntu-Bold-4e" x="603.124893"/>
       <use xlink:href="#Ubuntu-Bold-44" x="678.724884"/>
      </g>
     </g>
    </g>
    <g id="ytick_6">
     <g id="line2d_12">
      <g>
       <use xlink:href="#mb9623a7ebf" x="64.425" y="165.275739" style="fill: #bbbbbb; stroke: #bbbbbb"/>
      </g>
     </g>
     <g id="text_12">
      <!-- BSMTQUAL -->
      <g style="fill: #9f9f9f" transform="translate(22.469844 167.981129) scale(0.07 -0.07)">
       <defs>
        <path id="Ubuntu-Bold-42" d="M 1990 -58 
Q 1626 -58 1264 -35 
Q 902 -13 512 70 
L 512 4371 
Q 819 4429 1184 4457 
Q 1549 4486 1862 4486 
Q 2285 4486 2640 4425 
Q 2995 4365 3251 4217 
Q 3507 4070 3651 3830 
Q 3795 3590 3795 3238 
Q 3795 2707 3283 2400 
Q 3706 2240 3859 1965 
Q 4013 1690 4013 1344 
Q 4013 646 3504 294 
Q 2995 -58 1990 -58 
z
M 1485 1933 
L 1485 787 
Q 1594 774 1722 768 
Q 1850 762 2003 762 
Q 2451 762 2726 890 
Q 3002 1018 3002 1363 
Q 3002 1670 2771 1801 
Q 2541 1933 2112 1933 
L 1485 1933 
z
M 1485 2694 
L 1971 2694 
Q 2432 2694 2630 2812 
Q 2829 2931 2829 3194 
Q 2829 3462 2624 3571 
Q 2419 3680 2022 3680 
Q 1894 3680 1747 3677 
Q 1600 3674 1485 3661 
L 1485 2694 
z
" transform="scale(0.015625)"/>
       </defs>
       <use xlink:href="#Ubuntu-Bold-42"/>
       <use xlink:href="#Ubuntu-Bold-53" x="67.199997"/>
       <use xlink:href="#Ubuntu-Bold-4d" x="125.399994"/>
       <use xlink:href="#Ubuntu-Bold-54" x="214.099976"/>
       <use xlink:href="#Ubuntu-Bold-51" x="273.249969"/>
       <use xlink:href="#Ubuntu-Bold-55" x="352.249954"/>
       <use xlink:href="#Ubuntu-Bold-41" x="420.949936"/>
       <use xlink:href="#Ubuntu-Bold-4c" x="493.049927"/>
      </g>
     </g>
    </g>
    <g id="ytick_7">
     <g id="line2d_13">
      <g>
       <use xlink:href="#mb9623a7ebf" x="64.425" y="189.712102" style="fill: #bbbbbb; stroke: #bbbbbb"/>
      </g>
     </g>
     <g id="text_13">
      <!-- GARAGECARS -->
      <g style="fill: #9f9f9f" transform="translate(13.530625 192.427884) scale(0.07 -0.07)">
       <use xlink:href="#Ubuntu-Bold-47"/>
       <use xlink:href="#Ubuntu-Bold-41" x="70.199982"/>
       <use xlink:href="#Ubuntu-Bold-52" x="142.299973"/>
       <use xlink:href="#Ubuntu-Bold-41" x="212.124969"/>
       <use xlink:href="#Ubuntu-Bold-47" x="281.72496"/>
       <use xlink:href="#Ubuntu-Bold-45" x="351.924942"/>
       <use xlink:href="#Ubuntu-Bold-43" x="412.524933"/>
       <use xlink:href="#Ubuntu-Bold-41" x="480.074921"/>
       <use xlink:href="#Ubuntu-Bold-52" x="552.174911"/>
       <use xlink:href="#Ubuntu-Bold-53" x="618.874908"/>
      </g>
     </g>
    </g>
    <g id="ytick_8">
     <g id="line2d_14">
      <g>
       <use xlink:href="#mb9623a7ebf" x="64.425" y="214.148466" style="fill: #bbbbbb; stroke: #bbbbbb"/>
      </g>
     </g>
     <g id="text_14">
      <!-- KITCHENQUAL -->
      <g style="fill: #9f9f9f" transform="translate(11.250156 216.853857) scale(0.07 -0.07)">
       <defs>
        <path id="Ubuntu-Bold-4b" d="M 3130 0 
Q 2995 218 2812 470 
Q 2630 723 2416 976 
Q 2202 1229 1971 1462 
Q 1741 1696 1510 1875 
L 1510 0 
L 512 0 
L 512 4435 
L 1510 4435 
L 1510 2758 
Q 1901 3168 2294 3613 
Q 2688 4058 3027 4435 
L 4211 4435 
Q 3757 3898 3299 3398 
Q 2842 2899 2336 2394 
Q 2867 1952 3363 1344 
Q 3859 736 4314 0 
L 3130 0 
z
" transform="scale(0.015625)"/>
        <path id="Ubuntu-Bold-49" d="M 512 4435 
L 1510 4435 
L 1510 0 
L 512 0 
L 512 4435 
z
" transform="scale(0.015625)"/>
       </defs>
       <use xlink:href="#Ubuntu-Bold-4b"/>
       <use xlink:href="#Ubuntu-Bold-49" x="68.399994"/>
       <use xlink:href="#Ubuntu-Bold-54" x="99.999985"/>
       <use xlink:href="#Ubuntu-Bold-43" x="159.149979"/>
       <use xlink:href="#Ubuntu-Bold-48" x="223.949966"/>
       <use xlink:href="#Ubuntu-Bold-45" x="297.34996"/>
       <use xlink:href="#Ubuntu-Bold-4e" x="357.949951"/>
       <use xlink:href="#Ubuntu-Bold-51" x="433.549942"/>
       <use xlink:href="#Ubuntu-Bold-55" x="512.549927"/>
       <use xlink:href="#Ubuntu-Bold-41" x="581.249908"/>
       <use xlink:href="#Ubuntu-Bold-4c" x="653.349899"/>
      </g>
     </g>
    </g>
    <g id="ytick_9">
     <g id="line2d_15">
      <g>
       <use xlink:href="#mb9623a7ebf" x="64.425" y="238.58483" style="fill: #bbbbbb; stroke: #bbbbbb"/>
      </g>
     </g>
     <g id="text_15">
      <!-- EXTERQUAL -->
      <g style="fill: #9f9f9f" transform="translate(19.221406 241.29022) scale(0.07 -0.07)">
       <defs>
        <path id="Ubuntu-Bold-58" d="M 3059 0 
Q 2874 371 2653 752 
Q 2432 1133 2144 1530 
Q 2054 1414 1916 1209 
Q 1779 1005 1641 774 
Q 1504 544 1382 333 
Q 1261 122 1203 0 
L 64 0 
Q 346 518 720 1088 
Q 1094 1658 1555 2298 
L 128 4435 
L 1338 4435 
L 2202 3053 
L 3046 4435 
L 4186 4435 
L 2778 2285 
Q 3315 1587 3680 995 
Q 4045 403 4256 0 
L 3059 0 
z
" transform="scale(0.015625)"/>
       </defs>
       <use xlink:href="#Ubuntu-Bold-45"/>
       <use xlink:href="#Ubuntu-Bold-58" x="62.599991"/>
       <use xlink:href="#Ubuntu-Bold-54" x="132.724976"/>
       <use xlink:href="#Ubuntu-Bold-45" x="194.124969"/>
       <use xlink:href="#Ubuntu-Bold-52" x="254.72496"/>
       <use xlink:href="#Ubuntu-Bold-51" x="319.674957"/>
       <use xlink:href="#Ubuntu-Bold-55" x="398.674942"/>
       <use xlink:href="#Ubuntu-Bold-41" x="467.374924"/>
       <use xlink:href="#Ubuntu-Bold-4c" x="539.474915"/>
      </g>
     </g>
    </g>
   </g>
   <g id="PathCollection_1">
    <defs>
     <path id="m1daabba574" d="M 0 1.322876 
C 0.350831 1.322876 0.68734 1.183489 0.935414 0.935414 
C 1.183489 0.68734 1.322876 0.350831 1.322876 0 
C 1.322876 -0.350831 1.183489 -0.68734 0.935414 -0.935414 
C 0.68734 -1.183489 0.350831 -1.322876 0 -1.322876 
C -0.350831 -1.322876 -0.68734 -1.183489 -0.935414 -0.935414 
C -1.183489 -0.68734 -1.322876 -0.350831 -1.322876 0 
C -1.322876 0.350831 -1.183489 0.68734 -0.935414 0.935414 
C -0.68734 1.183489 -0.350831 1.322876 0 1.322876 
z
" style="stroke: #5d5d5d; stroke-opacity: 0.9"/>
    </defs>
    <g clip-path="url(#pd16d2986ec)">
     <use xlink:href="#m1daabba574" x="143.102043" y="235.530284" style="fill: #5d5d5d; fill-opacity: 0.9; stroke: #5d5d5d; stroke-opacity: 0.9"/>
     <use xlink:href="#m1daabba574" x="147.136585" y="211.09392" style="fill: #5d5d5d; fill-opacity: 0.9; stroke: #5d5d5d; stroke-opacity: 0.9"/>
     <use xlink:href="#m1daabba574" x="150.020359" y="186.657557" style="fill: #5d5d5d; fill-opacity: 0.9; stroke: #5d5d5d; stroke-opacity: 0.9"/>
     <use xlink:href="#m1daabba574" x="158.684353" y="162.221193" style="fill: #5d5d5d; fill-opacity: 0.9; stroke: #5d5d5d; stroke-opacity: 0.9"/>
     <use xlink:href="#m1daabba574" x="164.621277" y="137.78483" style="fill: #5d5d5d; fill-opacity: 0.9; stroke: #5d5d5d; stroke-opacity: 0.9"/>
     <use xlink:href="#m1daabba574" x="167.841534" y="113.348466" style="fill: #5d5d5d; fill-opacity: 0.9; stroke: #5d5d5d; stroke-opacity: 0.9"/>
     <use xlink:href="#m1daabba574" x="79.814528" y="88.912102" style="fill: #5d5d5d; fill-opacity: 0.9; stroke: #5d5d5d; stroke-opacity: 0.9"/>
     <use xlink:href="#m1daabba574" x="183.854521" y="64.475739" style="fill: #5d5d5d; fill-opacity: 0.9; stroke: #5d5d5d; stroke-opacity: 0.9"/>
     <use xlink:href="#m1daabba574" x="217.74692" y="40.039375" style="fill: #5d5d5d; fill-opacity: 0.9; stroke: #5d5d5d; stroke-opacity: 0.9"/>
    </g>
   </g>
   <g id="PathCollection_2">
    <defs>
     <path id="mb2b55dc903" d="M 0 1.322876 
C 0.350831 1.322876 0.68734 1.183489 0.935414 0.935414 
C 1.183489 0.68734 1.322876 0.350831 1.322876 0 
C 1.322876 -0.350831 1.183489 -0.68734 0.935414 -0.935414 
C 0.68734 -1.183489 0.350831 -1.322876 0 -1.322876 
C -0.350831 -1.322876 -0.68734 -1.183489 -0.935414 -0.935414 
C -1.183489 -0.68734 -1.322876 -0.350831 -1.322876 0 
C -1.322876 0.350831 -1.183489 0.68734 -0.935414 0.935414 
C -0.68734 1.183489 -0.350831 1.322876 0 1.322876 
z
" style="stroke: #af5a51; stroke-opacity: 0.9"/>
    </defs>
    <g clip-path="url(#pd16d2986ec)">
     <use xlink:href="#mb2b55dc903" x="142.328644" y="241.639375" style="fill: #af5a51; fill-opacity: 0.9; stroke: #af5a51; stroke-opacity: 0.9"/>
     <use xlink:href="#mb2b55dc903" x="148.452037" y="217.203011" style="fill: #af5a51; fill-opacity: 0.9; stroke: #af5a51; stroke-opacity: 0.9"/>
     <use xlink:href="#mb2b55dc903" x="152.248534" y="192.766648" style="fill: #af5a51; fill-opacity: 0.9; stroke: #af5a51; stroke-opacity: 0.9"/>
     <use xlink:href="#mb2b55dc903" x="156.685802" y="168.330284" style="fill: #af5a51; fill-opacity: 0.9; stroke: #af5a51; stroke-opacity: 0.9"/>
     <use xlink:href="#mb2b55dc903" x="166.243824" y="143.89392" style="fill: #af5a51; fill-opacity: 0.9; stroke: #af5a51; stroke-opacity: 0.9"/>
     <use xlink:href="#mb2b55dc903" x="168.556932" y="119.457557" style="fill: #af5a51; fill-opacity: 0.9; stroke: #af5a51; stroke-opacity: 0.9"/>
     <use xlink:href="#mb2b55dc903" x="78.748336" y="95.021193" style="fill: #af5a51; fill-opacity: 0.9; stroke: #af5a51; stroke-opacity: 0.9"/>
     <use xlink:href="#mb2b55dc903" x="187.568365" y="70.58483" style="fill: #af5a51; fill-opacity: 0.9; stroke: #af5a51; stroke-opacity: 0.9"/>
     <use xlink:href="#mb2b55dc903" x="218.834403" y="46.148466" style="fill: #af5a51; fill-opacity: 0.9; stroke: #af5a51; stroke-opacity: 0.9"/>
    </g>
   </g>
   <g id="LineCollection_1">
    <path d="M 136.729926 235.530284 
L 149.474159 235.530284 
" clip-path="url(#pd16d2986ec)" style="fill: none; stroke: #5d5d5d; stroke-opacity: 0.9"/>
    <path d="M 140.681783 211.09392 
L 153.591386 211.09392 
" clip-path="url(#pd16d2986ec)" style="fill: none; stroke: #5d5d5d; stroke-opacity: 0.9"/>
    <path d="M 143.346866 186.657557 
L 156.693852 186.657557 
" clip-path="url(#pd16d2986ec)" style="fill: none; stroke: #5d5d5d; stroke-opacity: 0.9"/>
    <path d="M 152.870929 162.221193 
L 164.497777 162.221193 
" clip-path="url(#pd16d2986ec)" style="fill: none; stroke: #5d5d5d; stroke-opacity: 0.9"/>
    <path d="M 159.435027 137.78483 
L 169.807527 137.78483 
" clip-path="url(#pd16d2986ec)" style="fill: none; stroke: #5d5d5d; stroke-opacity: 0.9"/>
    <path d="M 162.882863 113.348466 
L 172.800205 113.348466 
" clip-path="url(#pd16d2986ec)" style="fill: none; stroke: #5d5d5d; stroke-opacity: 0.9"/>
    <path d="M 72.034091 88.912102 
L 87.594965 88.912102 
" clip-path="url(#pd16d2986ec)" style="fill: none; stroke: #5d5d5d; stroke-opacity: 0.9"/>
    <path d="M 175.803711 64.475739 
L 191.905332 64.475739 
" clip-path="url(#pd16d2986ec)" style="fill: none; stroke: #5d5d5d; stroke-opacity: 0.9"/>
    <path d="M 211.277932 40.039375 
L 224.215909 40.039375 
" clip-path="url(#pd16d2986ec)" style="fill: none; stroke: #5d5d5d; stroke-opacity: 0.9"/>
   </g>
   <g id="line2d_16">
    <defs>
     <path id="m1534af5d2d" d="M 0 1.2 
L 0 -1.2 
" style="stroke: #5d5d5d; stroke-opacity: 0.9"/>
    </defs>
    <g clip-path="url(#pd16d2986ec)">
     <use xlink:href="#m1534af5d2d" x="136.729926" y="235.530284" style="fill: #5d5d5d; fill-opacity: 0.9; stroke: #5d5d5d; stroke-opacity: 0.9"/>
     <use xlink:href="#m1534af5d2d" x="140.681783" y="211.09392" style="fill: #5d5d5d; fill-opacity: 0.9; stroke: #5d5d5d; stroke-opacity: 0.9"/>
     <use xlink:href="#m1534af5d2d" x="143.346866" y="186.657557" style="fill: #5d5d5d; fill-opacity: 0.9; stroke: #5d5d5d; stroke-opacity: 0.9"/>
     <use xlink:href="#m1534af5d2d" x="152.870929" y="162.221193" style="fill: #5d5d5d; fill-opacity: 0.9; stroke: #5d5d5d; stroke-opacity: 0.9"/>
     <use xlink:href="#m1534af5d2d" x="159.435027" y="137.78483" style="fill: #5d5d5d; fill-opacity: 0.9; stroke: #5d5d5d; stroke-opacity: 0.9"/>
     <use xlink:href="#m1534af5d2d" x="162.882863" y="113.348466" style="fill: #5d5d5d; fill-opacity: 0.9; stroke: #5d5d5d; stroke-opacity: 0.9"/>
     <use xlink:href="#m1534af5d2d" x="72.034091" y="88.912102" style="fill: #5d5d5d; fill-opacity: 0.9; stroke: #5d5d5d; stroke-opacity: 0.9"/>
     <use xlink:href="#m1534af5d2d" x="175.803711" y="64.475739" style="fill: #5d5d5d; fill-opacity: 0.9; stroke: #5d5d5d; stroke-opacity: 0.9"/>
     <use xlink:href="#m1534af5d2d" x="211.277932" y="40.039375" style="fill: #5d5d5d; fill-opacity: 0.9; stroke: #5d5d5d; stroke-opacity: 0.9"/>
    </g>
   </g>
   <g id="line2d_17">
    <g clip-path="url(#pd16d2986ec)">
     <use xlink:href="#m1534af5d2d" x="149.474159" y="235.530284" style="fill: #5d5d5d; fill-opacity: 0.9; stroke: #5d5d5d; stroke-opacity: 0.9"/>
     <use xlink:href="#m1534af5d2d" x="153.591386" y="211.09392" style="fill: #5d5d5d; fill-opacity: 0.9; stroke: #5d5d5d; stroke-opacity: 0.9"/>
     <use xlink:href="#m1534af5d2d" x="156.693852" y="186.657557" style="fill: #5d5d5d; fill-opacity: 0.9; stroke: #5d5d5d; stroke-opacity: 0.9"/>
     <use xlink:href="#m1534af5d2d" x="164.497777" y="162.221193" style="fill: #5d5d5d; fill-opacity: 0.9; stroke: #5d5d5d; stroke-opacity: 0.9"/>
     <use xlink:href="#m1534af5d2d" x="169.807527" y="137.78483" style="fill: #5d5d5d; fill-opacity: 0.9; stroke: #5d5d5d; stroke-opacity: 0.9"/>
     <use xlink:href="#m1534af5d2d" x="172.800205" y="113.348466" style="fill: #5d5d5d; fill-opacity: 0.9; stroke: #5d5d5d; stroke-opacity: 0.9"/>
     <use xlink:href="#m1534af5d2d" x="87.594965" y="88.912102" style="fill: #5d5d5d; fill-opacity: 0.9; stroke: #5d5d5d; stroke-opacity: 0.9"/>
     <use xlink:href="#m1534af5d2d" x="191.905332" y="64.475739" style="fill: #5d5d5d; fill-opacity: 0.9; stroke: #5d5d5d; stroke-opacity: 0.9"/>
     <use xlink:href="#m1534af5d2d" x="224.215909" y="40.039375" style="fill: #5d5d5d; fill-opacity: 0.9; stroke: #5d5d5d; stroke-opacity: 0.9"/>
    </g>
   </g>
   <g id="line2d_18">
    <path d="M 131.070181 247.284175 
L 131.070181 34.394575 
" clip-path="url(#pd16d2986ec)" style="fill: none; stroke: #5d5d5d; stroke-opacity: 0.25; stroke-width: 0.75; stroke-linecap: square"/>
   </g>
   <g id="patch_3">
    <path d="M 64.425 251.719375 
L 64.425 29.959375 
" style="fill: none; stroke: #bbbbbb; stroke-linejoin: miter; stroke-linecap: square"/>
   </g>
   <g id="patch_4">
    <path d="M 231.825 251.719375 
L 231.825 29.959375 
" style="fill: none; stroke: #bbbbbb; stroke-linejoin: miter; stroke-linecap: square"/>
   </g>
   <g id="patch_5">
    <path d="M 64.425 251.719375 
L 231.825 251.719375 
" style="fill: none; stroke: #bbbbbb; stroke-linejoin: miter; stroke-linecap: square"/>
   </g>
   <g id="patch_6">
    <path d="M 64.425 29.959375 
L 231.825 29.959375 
" style="fill: none; stroke: #bbbbbb; stroke-linejoin: miter; stroke-linecap: square"/>
   </g>
   <g id="text_16">
    <!-- Comparing LR and ENET coefficients -->
    <g style="fill: #303030" transform="translate(64.425 14.959375) scale(0.1 -0.1)">
     <defs>
      <path id="Ubuntu-Medium-43" d="M 2502 -96 
Q 2003 -96 1606 57 
Q 1210 211 934 508 
Q 659 806 512 1235 
Q 365 1664 365 2221 
Q 365 2778 534 3206 
Q 704 3635 998 3932 
Q 1293 4230 1689 4384 
Q 2086 4538 2541 4538 
Q 2816 4538 3040 4496 
Q 3264 4454 3430 4403 
Q 3597 4352 3705 4294 
Q 3814 4237 3859 4211 
L 3622 3552 
Q 3469 3648 3184 3734 
Q 2899 3821 2566 3821 
Q 2278 3821 2028 3721 
Q 1779 3622 1596 3424 
Q 1414 3226 1312 2925 
Q 1210 2624 1210 2227 
Q 1210 1875 1290 1580 
Q 1370 1286 1536 1072 
Q 1702 858 1958 739 
Q 2214 621 2573 621 
Q 3002 621 3270 707 
Q 3539 794 3686 870 
L 3904 211 
Q 3827 160 3696 109 
Q 3565 58 3385 10 
Q 3206 -38 2982 -67 
Q 2758 -96 2502 -96 
z
" transform="scale(0.015625)"/>
      <path id="Ubuntu-Medium-6f" d="M 3520 1677 
Q 3520 1280 3405 953 
Q 3290 627 3078 396 
Q 2867 166 2569 38 
Q 2272 -90 1914 -90 
Q 1555 -90 1260 38 
Q 966 166 755 396 
Q 544 627 425 953 
Q 307 1280 307 1677 
Q 307 2074 425 2397 
Q 544 2720 758 2950 
Q 973 3181 1267 3305 
Q 1562 3430 1914 3430 
Q 2266 3430 2563 3305 
Q 2861 3181 3072 2950 
Q 3283 2720 3401 2397 
Q 3520 2074 3520 1677 
z
M 2726 1677 
Q 2726 2176 2512 2467 
Q 2298 2758 1914 2758 
Q 1530 2758 1315 2467 
Q 1101 2176 1101 1677 
Q 1101 1171 1315 876 
Q 1530 582 1914 582 
Q 2298 582 2512 876 
Q 2726 1171 2726 1677 
z
" transform="scale(0.015625)"/>
      <path id="Ubuntu-Medium-6d" d="M 2400 1760 
Q 2400 2285 2269 2518 
Q 2138 2752 1779 2752 
Q 1651 2752 1497 2733 
Q 1344 2714 1267 2701 
L 1267 0 
L 493 0 
L 493 3238 
Q 717 3302 1078 3360 
Q 1440 3418 1843 3418 
Q 2189 3418 2409 3328 
Q 2630 3238 2778 3091 
Q 2848 3142 2957 3200 
Q 3066 3258 3200 3306 
Q 3334 3354 3484 3386 
Q 3635 3418 3789 3418 
Q 4179 3418 4432 3306 
Q 4685 3194 4829 2992 
Q 4973 2790 5027 2505 
Q 5082 2221 5082 1882 
L 5082 0 
L 4307 0 
L 4307 1760 
Q 4307 2285 4179 2518 
Q 4051 2752 3686 2752 
Q 3501 2752 3334 2691 
Q 3168 2630 3085 2573 
Q 3136 2413 3155 2233 
Q 3174 2054 3174 1850 
L 3174 0 
L 2400 0 
L 2400 1760 
z
" transform="scale(0.015625)"/>
      <path id="Ubuntu-Medium-70" d="M 2714 1658 
Q 2714 2176 2480 2464 
Q 2246 2752 1728 2752 
Q 1619 2752 1500 2742 
Q 1382 2733 1267 2701 
L 1267 787 
Q 1370 717 1539 656 
Q 1709 595 1901 595 
Q 2323 595 2518 883 
Q 2714 1171 2714 1658 
z
M 3507 1670 
Q 3507 1286 3408 966 
Q 3309 646 3123 416 
Q 2938 186 2659 58 
Q 2381 -70 2029 -70 
Q 1792 -70 1593 -12 
Q 1395 45 1267 115 
L 1267 -1184 
L 493 -1184 
L 493 3238 
Q 730 3302 1075 3360 
Q 1421 3418 1805 3418 
Q 2202 3418 2515 3296 
Q 2829 3174 3049 2947 
Q 3270 2720 3388 2397 
Q 3507 2074 3507 1670 
z
" transform="scale(0.015625)"/>
      <path id="Ubuntu-Medium-61" d="M 1670 544 
Q 2029 544 2214 582 
L 2214 1440 
Q 2150 1459 2028 1478 
Q 1907 1498 1760 1498 
Q 1632 1498 1501 1478 
Q 1370 1459 1264 1408 
Q 1158 1357 1094 1264 
Q 1030 1171 1030 1030 
Q 1030 755 1203 649 
Q 1376 544 1670 544 
z
M 1606 3430 
Q 1990 3430 2252 3334 
Q 2515 3238 2672 3065 
Q 2829 2893 2896 2646 
Q 2963 2400 2963 2106 
L 2963 77 
Q 2784 38 2422 -16 
Q 2061 -70 1606 -70 
Q 1306 -70 1056 -12 
Q 806 45 630 173 
Q 454 301 355 505 
Q 256 710 256 1011 
Q 256 1299 368 1497 
Q 480 1696 672 1821 
Q 864 1946 1117 2000 
Q 1370 2054 1645 2054 
Q 1773 2054 1913 2038 
Q 2054 2022 2214 1984 
L 2214 2112 
Q 2214 2246 2182 2368 
Q 2150 2490 2070 2582 
Q 1990 2675 1859 2726 
Q 1728 2778 1530 2778 
Q 1261 2778 1037 2739 
Q 813 2701 672 2650 
L 576 3277 
Q 723 3328 1004 3379 
Q 1286 3430 1606 3430 
z
" transform="scale(0.015625)"/>
      <path id="Ubuntu-Medium-72" d="M 2400 2650 
Q 2304 2682 2134 2717 
Q 1965 2752 1741 2752 
Q 1613 2752 1469 2726 
Q 1325 2701 1267 2682 
L 1267 0 
L 493 0 
L 493 3187 
Q 717 3270 1053 3344 
Q 1389 3418 1798 3418 
Q 1875 3418 1977 3408 
Q 2080 3398 2182 3382 
Q 2285 3366 2381 3344 
Q 2477 3322 2534 3302 
L 2400 2650 
z
" transform="scale(0.015625)"/>
      <path id="Ubuntu-Medium-69" d="M 1274 0 
L 499 0 
L 499 3347 
L 1274 3347 
L 1274 0 
z
M 1357 4326 
Q 1357 4109 1216 3981 
Q 1075 3853 883 3853 
Q 685 3853 544 3981 
Q 403 4109 403 4326 
Q 403 4550 544 4678 
Q 685 4806 883 4806 
Q 1075 4806 1216 4678 
Q 1357 4550 1357 4326 
z
" transform="scale(0.015625)"/>
      <path id="Ubuntu-Medium-6e" d="M 493 3238 
Q 717 3302 1075 3360 
Q 1434 3418 1869 3418 
Q 2278 3418 2553 3306 
Q 2829 3194 2992 2992 
Q 3155 2790 3222 2505 
Q 3290 2221 3290 1882 
L 3290 0 
L 2515 0 
L 2515 1760 
Q 2515 2029 2480 2217 
Q 2445 2406 2365 2524 
Q 2285 2643 2147 2697 
Q 2010 2752 1811 2752 
Q 1664 2752 1504 2733 
Q 1344 2714 1267 2701 
L 1267 0 
L 493 0 
L 493 3238 
z
" transform="scale(0.015625)"/>
      <path id="Ubuntu-Medium-67" d="M 1101 1760 
Q 1101 1267 1315 1040 
Q 1530 813 1869 813 
Q 2054 813 2217 864 
Q 2381 915 2483 986 
L 2483 2720 
Q 2400 2739 2278 2755 
Q 2157 2771 1971 2771 
Q 1549 2771 1325 2492 
Q 1101 2214 1101 1760 
z
M 3258 339 
Q 3258 -461 2851 -832 
Q 2445 -1203 1606 -1203 
Q 1299 -1203 1008 -1152 
Q 717 -1101 480 -1018 
L 621 -358 
Q 819 -442 1072 -493 
Q 1325 -544 1619 -544 
Q 2086 -544 2284 -352 
Q 2483 -160 2483 218 
L 2483 346 
Q 2368 288 2179 230 
Q 1990 173 1747 173 
Q 1427 173 1161 275 
Q 896 378 707 576 
Q 518 774 412 1072 
Q 307 1370 307 1760 
Q 307 2125 419 2432 
Q 531 2739 745 2956 
Q 960 3174 1267 3296 
Q 1574 3418 1965 3418 
Q 2342 3418 2681 3360 
Q 3021 3302 3258 3238 
L 3258 339 
z
" transform="scale(0.015625)"/>
      <path id="Ubuntu-Medium-20" transform="scale(0.015625)"/>
      <path id="Ubuntu-Medium-4c" d="M 3334 698 
L 3334 0 
L 531 0 
L 531 4435 
L 1338 4435 
L 1338 698 
L 3334 698 
z
" transform="scale(0.015625)"/>
      <path id="Ubuntu-Medium-52" d="M 1754 4480 
Q 2714 4480 3222 4128 
Q 3731 3776 3731 3053 
Q 3731 2150 2842 1830 
Q 2963 1683 3116 1472 
Q 3270 1261 3430 1014 
Q 3590 768 3737 509 
Q 3885 250 4000 0 
L 3098 0 
Q 2976 230 2835 464 
Q 2694 698 2550 918 
Q 2406 1139 2265 1334 
Q 2125 1530 2003 1683 
Q 1914 1677 1850 1677 
Q 1786 1677 1728 1677 
L 1338 1677 
L 1338 0 
L 531 0 
L 531 4371 
Q 826 4435 1158 4457 
Q 1491 4480 1754 4480 
z
M 1811 3782 
Q 1555 3782 1338 3763 
L 1338 2330 
L 1690 2330 
Q 1984 2330 2208 2362 
Q 2432 2394 2582 2477 
Q 2733 2560 2809 2701 
Q 2886 2842 2886 3059 
Q 2886 3264 2809 3405 
Q 2733 3546 2589 3629 
Q 2445 3712 2246 3747 
Q 2048 3782 1811 3782 
z
" transform="scale(0.015625)"/>
      <path id="Ubuntu-Medium-64" d="M 1101 1683 
Q 1101 1171 1344 880 
Q 1587 589 2016 589 
Q 2202 589 2333 605 
Q 2464 621 2547 640 
L 2547 2560 
Q 2445 2630 2275 2691 
Q 2106 2752 1914 2752 
Q 1491 2752 1296 2464 
Q 1101 2176 1101 1683 
z
M 3322 102 
Q 3091 32 2742 -25 
Q 2394 -83 2010 -83 
Q 1613 -83 1299 38 
Q 986 160 765 387 
Q 544 614 425 937 
Q 307 1261 307 1664 
Q 307 2061 406 2384 
Q 506 2707 698 2937 
Q 890 3168 1165 3293 
Q 1440 3418 1798 3418 
Q 2042 3418 2227 3360 
Q 2413 3302 2547 3232 
L 2547 4838 
L 3322 4966 
L 3322 102 
z
" transform="scale(0.015625)"/>
      <path id="Ubuntu-Medium-45" d="M 531 0 
L 531 4435 
L 3379 4435 
L 3379 3750 
L 1338 3750 
L 1338 2656 
L 3155 2656 
L 3155 1984 
L 1338 1984 
L 1338 685 
L 3533 685 
L 3533 0 
L 531 0 
z
" transform="scale(0.015625)"/>
      <path id="Ubuntu-Medium-4e" d="M 3520 0 
Q 3302 365 3033 784 
Q 2765 1203 2477 1628 
Q 2189 2054 1891 2454 
Q 1594 2854 1325 3174 
L 1325 0 
L 531 0 
L 531 4435 
L 1190 4435 
Q 1446 4166 1740 3798 
Q 2035 3430 2332 3033 
Q 2630 2637 2908 2237 
Q 3187 1837 3405 1491 
L 3405 4435 
L 4205 4435 
L 4205 0 
L 3520 0 
z
" transform="scale(0.015625)"/>
      <path id="Ubuntu-Medium-54" d="M 3622 4435 
L 3622 3738 
L 2259 3738 
L 2259 0 
L 1446 0 
L 1446 3738 
L 83 3738 
L 83 4435 
L 3622 4435 
z
" transform="scale(0.015625)"/>
      <path id="Ubuntu-Medium-63" d="M 307 1670 
Q 307 2042 422 2365 
Q 538 2688 752 2925 
Q 966 3162 1273 3296 
Q 1581 3430 1965 3430 
Q 2438 3430 2861 3258 
L 2694 2624 
Q 2560 2682 2390 2720 
Q 2221 2758 2029 2758 
Q 1574 2758 1337 2473 
Q 1101 2189 1101 1670 
Q 1101 1171 1325 880 
Q 1549 589 2080 589 
Q 2278 589 2470 627 
Q 2662 666 2803 723 
L 2912 83 
Q 2784 19 2525 -32 
Q 2266 -83 1990 -83 
Q 1562 -83 1245 48 
Q 928 179 720 412 
Q 512 646 409 969 
Q 307 1293 307 1670 
z
" transform="scale(0.015625)"/>
      <path id="Ubuntu-Medium-65" d="M 307 1658 
Q 307 2099 438 2432 
Q 570 2765 787 2985 
Q 1005 3206 1286 3318 
Q 1568 3430 1862 3430 
Q 2554 3430 2941 3001 
Q 3328 2573 3328 1722 
Q 3328 1658 3325 1578 
Q 3322 1498 3315 1434 
L 1107 1434 
Q 1139 1030 1392 809 
Q 1645 589 2125 589 
Q 2406 589 2640 640 
Q 2874 691 3008 749 
L 3110 115 
Q 3046 83 2934 48 
Q 2822 13 2678 -16 
Q 2534 -45 2368 -64 
Q 2202 -83 2029 -83 
Q 1587 -83 1260 48 
Q 934 179 723 412 
Q 512 646 409 963 
Q 307 1280 307 1658 
z
M 2554 2003 
Q 2554 2163 2509 2307 
Q 2464 2451 2377 2556 
Q 2291 2662 2166 2723 
Q 2042 2784 1869 2784 
Q 1690 2784 1555 2717 
Q 1421 2650 1328 2541 
Q 1235 2432 1184 2291 
Q 1133 2150 1114 2003 
L 2554 2003 
z
" transform="scale(0.015625)"/>
      <path id="Ubuntu-Medium-66" d="M 1856 4966 
Q 2125 4966 2329 4918 
Q 2534 4870 2637 4832 
L 2490 4192 
Q 2381 4243 2237 4275 
Q 2093 4307 1926 4307 
Q 1741 4307 1613 4252 
Q 1485 4198 1408 4102 
Q 1331 4006 1299 3868 
Q 1267 3731 1267 3571 
L 1267 3347 
L 2483 3347 
L 2483 2701 
L 1267 2701 
L 1267 0 
L 493 0 
L 493 3584 
Q 493 4230 832 4598 
Q 1171 4966 1856 4966 
z
" transform="scale(0.015625)"/>
      <path id="Ubuntu-Medium-74" d="M 454 4230 
L 1229 4358 
L 1229 3347 
L 2419 3347 
L 2419 2701 
L 1229 2701 
L 1229 1338 
Q 1229 934 1357 761 
Q 1485 589 1792 589 
Q 2003 589 2166 633 
Q 2330 678 2426 717 
L 2554 102 
Q 2419 45 2201 -16 
Q 1984 -77 1690 -77 
Q 1331 -77 1091 19 
Q 851 115 710 297 
Q 570 480 512 739 
Q 454 998 454 1331 
L 454 4230 
z
" transform="scale(0.015625)"/>
      <path id="Ubuntu-Medium-73" d="M 1331 557 
Q 1638 557 1779 630 
Q 1920 704 1920 883 
Q 1920 1050 1769 1158 
Q 1619 1267 1274 1395 
Q 1062 1472 886 1558 
Q 710 1645 582 1760 
Q 454 1875 380 2038 
Q 307 2202 307 2438 
Q 307 2899 646 3164 
Q 986 3430 1568 3430 
Q 1862 3430 2131 3376 
Q 2400 3322 2534 3270 
L 2394 2643 
Q 2266 2701 2067 2749 
Q 1869 2797 1606 2797 
Q 1370 2797 1222 2717 
Q 1075 2637 1075 2470 
Q 1075 2387 1104 2323 
Q 1133 2259 1203 2204 
Q 1274 2150 1389 2096 
Q 1504 2042 1670 1984 
Q 1946 1882 2138 1782 
Q 2330 1683 2454 1558 
Q 2579 1434 2636 1274 
Q 2694 1114 2694 890 
Q 2694 410 2339 163 
Q 1984 -83 1325 -83 
Q 883 -83 614 -9 
Q 346 64 237 109 
L 371 755 
Q 544 685 784 621 
Q 1024 557 1331 557 
z
" transform="scale(0.015625)"/>
     </defs>
     <use xlink:href="#Ubuntu-Medium-43"/>
     <use xlink:href="#Ubuntu-Medium-6f" x="62.549988"/>
     <use xlink:href="#Ubuntu-Medium-6d" x="122.349976"/>
     <use xlink:href="#Ubuntu-Medium-70" x="208.84996"/>
     <use xlink:href="#Ubuntu-Medium-61" x="268.449951"/>
     <use xlink:href="#Ubuntu-Medium-72" x="321.849945"/>
     <use xlink:href="#Ubuntu-Medium-69" x="362.149933"/>
     <use xlink:href="#Ubuntu-Medium-6e" x="389.749924"/>
     <use xlink:href="#Ubuntu-Medium-67" x="448.249908"/>
     <use xlink:href="#Ubuntu-Medium-20" x="506.849899"/>
     <use xlink:href="#Ubuntu-Medium-4c" x="530.149887"/>
     <use xlink:href="#Ubuntu-Medium-52" x="583.549881"/>
     <use xlink:href="#Ubuntu-Medium-20" x="647.549866"/>
     <use xlink:href="#Ubuntu-Medium-61" x="670.849854"/>
     <use xlink:href="#Ubuntu-Medium-6e" x="724.249847"/>
     <use xlink:href="#Ubuntu-Medium-64" x="782.749832"/>
     <use xlink:href="#Ubuntu-Medium-20" x="842.349823"/>
     <use xlink:href="#Ubuntu-Medium-45" x="865.649811"/>
     <use xlink:href="#Ubuntu-Medium-4e" x="924.249802"/>
     <use xlink:href="#Ubuntu-Medium-45" x="998.249786"/>
     <use xlink:href="#Ubuntu-Medium-54" x="1056.849777"/>
     <use xlink:href="#Ubuntu-Medium-20" x="1114.749771"/>
     <use xlink:href="#Ubuntu-Medium-63" x="1138.049759"/>
     <use xlink:href="#Ubuntu-Medium-6f" x="1184.124756"/>
     <use xlink:href="#Ubuntu-Medium-65" x="1243.924744"/>
     <use xlink:href="#Ubuntu-Medium-66" x="1301.024734"/>
     <use xlink:href="#Ubuntu-Medium-66" x="1341.024719"/>
     <use xlink:href="#Ubuntu-Medium-69" x="1381.024704"/>
     <use xlink:href="#Ubuntu-Medium-63" x="1408.624695"/>
     <use xlink:href="#Ubuntu-Medium-69" x="1455.824692"/>
     <use xlink:href="#Ubuntu-Medium-65" x="1483.424683"/>
     <use xlink:href="#Ubuntu-Medium-6e" x="1540.524673"/>
     <use xlink:href="#Ubuntu-Medium-74" x="1599.024658"/>
     <use xlink:href="#Ubuntu-Medium-73" x="1640.824646"/>
    </g>
   </g>
   <g id="legend_1">
    <g id="PathCollection_3">
     <g>
      <use xlink:href="#m1daabba574" x="199.745" y="229.251875" style="fill: #5d5d5d; fill-opacity: 0.9; stroke: #5d5d5d; stroke-opacity: 0.9"/>
     </g>
    </g>
    <g id="text_17">
     <!-- LR -->
     <g style="fill: #4b4b4b" transform="translate(206.545 231.351875) scale(0.08 -0.08)">
      <defs>
       <path id="Ubuntu-4c" d="M 3219 538 
L 3219 0 
L 550 0 
L 550 4435 
L 1171 4435 
L 1171 538 
L 3219 538 
z
" transform="scale(0.015625)"/>
       <path id="Ubuntu-52" d="M 2720 1856 
Q 2822 1728 2979 1520 
Q 3136 1312 3302 1059 
Q 3469 806 3632 531 
Q 3795 256 3910 0 
L 3232 0 
Q 3104 243 2953 492 
Q 2803 742 2649 969 
Q 2496 1197 2345 1395 
Q 2195 1594 2074 1741 
Q 1990 1734 1904 1734 
Q 1818 1734 1728 1734 
L 1171 1734 
L 1171 0 
L 550 0 
L 550 4371 
Q 813 4435 1136 4457 
Q 1459 4480 1728 4480 
Q 2662 4480 3152 4128 
Q 3642 3776 3642 3078 
Q 3642 2637 3408 2323 
Q 3174 2010 2720 1856 
z
M 1779 3936 
Q 1382 3936 1171 3917 
L 1171 2246 
L 1613 2246 
Q 1933 2246 2189 2278 
Q 2445 2310 2621 2400 
Q 2797 2490 2893 2653 
Q 2989 2816 2989 3085 
Q 2989 3334 2893 3500 
Q 2797 3667 2633 3763 
Q 2470 3859 2249 3897 
Q 2029 3936 1779 3936 
z
" transform="scale(0.015625)"/>
      </defs>
      <use xlink:href="#Ubuntu-4c"/>
      <use xlink:href="#Ubuntu-52" x="51.899994"/>
     </g>
    </g>
    <g id="PathCollection_4">
     <g>
      <use xlink:href="#mb2b55dc903" x="199.745" y="240.939375" style="fill: #af5a51; fill-opacity: 0.9; stroke: #af5a51; stroke-opacity: 0.9"/>
     </g>
    </g>
    <g id="text_18">
     <!-- ENet -->
     <g style="fill: #4b4b4b" transform="translate(206.545 243.039375) scale(0.08 -0.08)">
      <defs>
       <path id="Ubuntu-45" d="M 550 0 
L 550 4435 
L 3258 4435 
L 3258 3904 
L 1171 3904 
L 1171 2586 
L 3027 2586 
L 3027 2067 
L 1171 2067 
L 1171 531 
L 3418 531 
L 3418 0 
L 550 0 
z
" transform="scale(0.015625)"/>
       <path id="Ubuntu-4e" d="M 3590 0 
Q 3450 237 3267 531 
Q 3085 826 2873 1142 
Q 2662 1459 2435 1785 
Q 2208 2112 1984 2416 
Q 1760 2720 1549 2989 
Q 1338 3258 1158 3462 
L 1158 0 
L 550 0 
L 550 4435 
L 1043 4435 
Q 1344 4115 1686 3689 
Q 2029 3264 2365 2813 
Q 2701 2362 2998 1926 
Q 3296 1491 3501 1152 
L 3501 4435 
L 4109 4435 
L 4109 0 
L 3590 0 
z
" transform="scale(0.015625)"/>
       <path id="Ubuntu-65" d="M 326 1658 
Q 326 2099 454 2428 
Q 582 2758 793 2976 
Q 1005 3194 1280 3302 
Q 1555 3411 1843 3411 
Q 2515 3411 2873 2992 
Q 3232 2573 3232 1715 
Q 3232 1677 3232 1616 
Q 3232 1555 3226 1504 
L 947 1504 
Q 986 986 1248 717 
Q 1510 448 2067 448 
Q 2381 448 2595 502 
Q 2810 557 2918 608 
L 3002 109 
Q 2893 51 2621 -13 
Q 2349 -77 2003 -77 
Q 1568 -77 1251 54 
Q 934 186 729 416 
Q 525 646 425 963 
Q 326 1280 326 1658 
z
M 2611 1984 
Q 2618 2387 2410 2646 
Q 2202 2906 1837 2906 
Q 1632 2906 1475 2826 
Q 1318 2746 1209 2618 
Q 1101 2490 1040 2323 
Q 979 2157 960 1984 
L 2611 1984 
z
" transform="scale(0.015625)"/>
       <path id="Ubuntu-74" d="M 1069 3328 
L 2330 3328 
L 2330 2829 
L 1069 2829 
L 1069 1293 
Q 1069 1043 1107 880 
Q 1146 717 1222 624 
Q 1299 531 1414 492 
Q 1530 454 1683 454 
Q 1952 454 2115 515 
Q 2278 576 2342 602 
L 2458 109 
Q 2368 64 2144 -3 
Q 1920 -70 1632 -70 
Q 1293 -70 1072 16 
Q 851 102 716 275 
Q 582 448 528 701 
Q 474 954 474 1286 
L 474 4256 
L 1069 4358 
L 1069 3328 
z
" transform="scale(0.015625)"/>
      </defs>
      <use xlink:href="#Ubuntu-45"/>
      <use xlink:href="#Ubuntu-4e" x="57.099991"/>
      <use xlink:href="#Ubuntu-65" x="129.899979"/>
      <use xlink:href="#Ubuntu-74" x="185.799973"/>
     </g>
    </g>
   </g>
  </g>
 </g>
 <defs>
  <clipPath id="pd16d2986ec">
   <rect x="64.425" y="29.959375" width="167.4" height="221.76"/>
  </clipPath>
 </defs>
</svg>
