<?xml version="1.0" encoding="utf-8" standalone="no"?>
<!DOCTYPE svg PUBLIC "-//W3C//DTD SVG 1.1//EN"
  "http://www.w3.org/Graphics/SVG/1.1/DTD/svg11.dtd">
<svg xmlns:xlink="http://www.w3.org/1999/xlink" width="501.457187pt" height="197.855pt" viewBox="0 0 501.457187 197.855" xmlns="http://www.w3.org/2000/svg" version="1.1">
 <metadata>
  <rdf:RDF xmlns:dc="http://purl.org/dc/elements/1.1/" xmlns:cc="http://creativecommons.org/ns#" xmlns:rdf="http://www.w3.org/1999/02/22-rdf-syntax-ns#">
   <cc:Work>
    <dc:type rdf:resource="http://purl.org/dc/dcmitype/StillImage"/>
    <dc:date>2024-03-16T10:09:57.321055</dc:date>
    <dc:format>image/svg+xml</dc:format>
    <dc:creator>
     <cc:Agent>
      <dc:title>Matplotlib v3.8.0, https://matplotlib.org/</dc:title>
     </cc:Agent>
    </dc:creator>
   </cc:Work>
  </rdf:RDF>
 </metadata>
 <defs>
  <style type="text/css">*{stroke-linejoin: round; stroke-linecap: butt}</style>
 </defs>
 <g id="figure_1">
  <g id="patch_1">
   <path d="M 0 197.855 
L 501.457187 197.855 
L 501.457187 0 
L 0 0 
L 0 197.855 
z
" style="fill: none"/>
  </g>
  <g id="axes_1">
   <g id="patch_2">
    <path d="M 42.360938 163.9675 
L 488.760937 163.9675 
L 488.760937 25.3675 
L 42.360938 25.3675 
L 42.360938 163.9675 
z
" style="fill: none"/>
   </g>
   <g id="matplotlib.axis_1">
    <g id="xtick_1">
     <g id="line2d_1">
      <defs>
       <path id="m568237eb8c" d="M 0 0 
L 0 3 
" style="stroke: #aaaaaa; stroke-width: 0.75"/>
      </defs>
      <g>
       <use xlink:href="#m568237eb8c" x="42.360938" y="173.9675" style="fill: #aaaaaa; stroke: #aaaaaa; stroke-width: 0.75"/>
      </g>
     </g>
     <g id="text_1">
      <!-- −1.0 -->
      <g style="fill: #808080" transform="translate(34.608438 189.175) scale(0.08 -0.08)">
       <defs>
        <path id="Ubuntu-2212" d="M 339 2138 
L 3270 2138 
L 3270 1632 
L 339 1632 
L 339 2138 
z
" transform="scale(0.015625)"/>
        <path id="Ubuntu-31" d="M 595 3520 
Q 960 3661 1305 3881 
Q 1651 4102 1939 4435 
L 2362 4435 
L 2362 0 
L 1766 0 
L 1766 3610 
Q 1690 3539 1578 3462 
Q 1466 3386 1334 3315 
Q 1203 3245 1059 3181 
Q 915 3117 781 3072 
L 595 3520 
z
" transform="scale(0.015625)"/>
        <path id="Ubuntu-2e" d="M 1216 346 
Q 1216 173 1101 45 
Q 986 -83 787 -83 
Q 589 -83 473 45 
Q 358 173 358 346 
Q 358 518 473 646 
Q 589 774 787 774 
Q 986 774 1101 646 
Q 1216 518 1216 346 
z
" transform="scale(0.015625)"/>
        <path id="Ubuntu-30" d="M 320 2221 
Q 320 3334 713 3936 
Q 1107 4538 1805 4538 
Q 2502 4538 2896 3936 
Q 3290 3334 3290 2221 
Q 3290 1107 2896 505 
Q 2502 -96 1805 -96 
Q 1107 -96 713 505 
Q 320 1107 320 2221 
z
M 2662 2221 
Q 2662 2586 2620 2912 
Q 2579 3238 2480 3481 
Q 2381 3725 2214 3869 
Q 2048 4013 1805 4013 
Q 1562 4013 1395 3869 
Q 1229 3725 1129 3481 
Q 1030 3238 988 2912 
Q 947 2586 947 2221 
Q 947 1856 988 1529 
Q 1030 1203 1129 960 
Q 1229 717 1395 573 
Q 1562 429 1805 429 
Q 2048 429 2214 573 
Q 2381 717 2480 960 
Q 2579 1203 2620 1529 
Q 2662 1856 2662 2221 
z
" transform="scale(0.015625)"/>
       </defs>
       <use xlink:href="#Ubuntu-2212"/>
       <use xlink:href="#Ubuntu-31" x="56.399994"/>
       <use xlink:href="#Ubuntu-2e" x="112.799988"/>
       <use xlink:href="#Ubuntu-30" x="137.399979"/>
      </g>
     </g>
    </g>
    <g id="xtick_2">
     <g id="line2d_2">
      <g>
       <use xlink:href="#m568237eb8c" x="153.960938" y="173.9675" style="fill: #aaaaaa; stroke: #aaaaaa; stroke-width: 0.75"/>
      </g>
     </g>
     <g id="text_2">
      <!-- −0.5 -->
      <g style="fill: #808080" transform="translate(146.208438 189.175) scale(0.08 -0.08)">
       <defs>
        <path id="Ubuntu-35" d="M 1274 2726 
Q 2240 2688 2691 2304 
Q 3142 1920 3142 1261 
Q 3142 966 3043 716 
Q 2944 467 2742 288 
Q 2541 109 2233 6 
Q 1926 -96 1504 -96 
Q 1338 -96 1165 -70 
Q 992 -45 845 -6 
Q 698 32 582 70 
Q 467 109 416 134 
L 531 653 
Q 640 602 886 518 
Q 1133 435 1491 435 
Q 1779 435 1974 499 
Q 2170 563 2291 672 
Q 2413 781 2467 925 
Q 2522 1069 2522 1229 
Q 2522 1472 2438 1661 
Q 2355 1850 2144 1978 
Q 1933 2106 1581 2173 
Q 1229 2240 691 2240 
Q 730 2554 752 2829 
Q 774 3104 793 3366 
Q 813 3629 825 3888 
Q 838 4147 851 4435 
L 2989 4435 
L 2989 3930 
L 1370 3930 
Q 1363 3834 1350 3670 
Q 1338 3507 1325 3331 
Q 1312 3155 1299 2988 
Q 1286 2822 1274 2726 
z
" transform="scale(0.015625)"/>
       </defs>
       <use xlink:href="#Ubuntu-2212"/>
       <use xlink:href="#Ubuntu-30" x="56.399994"/>
       <use xlink:href="#Ubuntu-2e" x="112.799988"/>
       <use xlink:href="#Ubuntu-35" x="137.399979"/>
      </g>
     </g>
    </g>
    <g id="xtick_3">
     <g id="line2d_3">
      <g>
       <use xlink:href="#m568237eb8c" x="265.560938" y="173.9675" style="fill: #aaaaaa; stroke: #aaaaaa; stroke-width: 0.75"/>
      </g>
     </g>
     <g id="text_3">
      <!-- 0.0 -->
      <g style="fill: #808080" transform="translate(260.064688 189.175) scale(0.08 -0.08)">
       <use xlink:href="#Ubuntu-30"/>
       <use xlink:href="#Ubuntu-2e" x="56.399994"/>
       <use xlink:href="#Ubuntu-30" x="80.999985"/>
      </g>
     </g>
    </g>
    <g id="xtick_4">
     <g id="line2d_4">
      <g>
       <use xlink:href="#m568237eb8c" x="377.160938" y="173.9675" style="fill: #aaaaaa; stroke: #aaaaaa; stroke-width: 0.75"/>
      </g>
     </g>
     <g id="text_4">
      <!-- 0.5 -->
      <g style="fill: #808080" transform="translate(371.664688 189.175) scale(0.08 -0.08)">
       <use xlink:href="#Ubuntu-30"/>
       <use xlink:href="#Ubuntu-2e" x="56.399994"/>
       <use xlink:href="#Ubuntu-35" x="80.999985"/>
      </g>
     </g>
    </g>
    <g id="xtick_5">
     <g id="line2d_5">
      <g>
       <use xlink:href="#m568237eb8c" x="488.760938" y="173.9675" style="fill: #aaaaaa; stroke: #aaaaaa; stroke-width: 0.75"/>
      </g>
     </g>
     <g id="text_5">
      <!-- 1.0 -->
      <g style="fill: #808080" transform="translate(483.264688 189.175) scale(0.08 -0.08)">
       <use xlink:href="#Ubuntu-31"/>
       <use xlink:href="#Ubuntu-2e" x="56.399994"/>
       <use xlink:href="#Ubuntu-30" x="80.999985"/>
      </g>
     </g>
    </g>
   </g>
   <g id="matplotlib.axis_2">
    <g id="ytick_1">
     <g id="line2d_6">
      <defs>
       <path id="m3dc06a0e6b" d="M 0 0 
L -3 0 
" style="stroke: #aaaaaa; stroke-width: 0.75"/>
      </defs>
      <g>
       <use xlink:href="#m3dc06a0e6b" x="37.360938" y="163.9675" style="fill: #aaaaaa; stroke: #aaaaaa; stroke-width: 0.75"/>
      </g>
     </g>
     <g id="text_6">
      <!-- 0 -->
      <g style="fill: #808080" transform="translate(23.848438 167.07125) scale(0.08 -0.08)">
       <use xlink:href="#Ubuntu-30"/>
      </g>
     </g>
    </g>
    <g id="ytick_2">
     <g id="line2d_7">
      <g>
       <use xlink:href="#m3dc06a0e6b" x="37.360938" y="129.3175" style="fill: #aaaaaa; stroke: #aaaaaa; stroke-width: 0.75"/>
      </g>
     </g>
     <g id="text_7">
      <!-- 1 -->
      <g style="fill: #808080" transform="translate(23.848438 132.42125) scale(0.08 -0.08)">
       <use xlink:href="#Ubuntu-31"/>
      </g>
     </g>
    </g>
    <g id="ytick_3">
     <g id="line2d_8">
      <g>
       <use xlink:href="#m3dc06a0e6b" x="37.360938" y="94.6675" style="fill: #aaaaaa; stroke: #aaaaaa; stroke-width: 0.75"/>
      </g>
     </g>
     <g id="text_8">
      <!-- 2 -->
      <g style="fill: #808080" transform="translate(23.848438 97.77125) scale(0.08 -0.08)">
       <defs>
        <path id="Ubuntu-32" d="M 2989 3302 
Q 2989 3072 2896 2857 
Q 2803 2643 2649 2435 
Q 2496 2227 2304 2025 
Q 2112 1824 1920 1632 
Q 1811 1523 1667 1376 
Q 1523 1229 1395 1069 
Q 1267 909 1180 761 
Q 1094 614 1094 506 
L 3136 506 
L 3136 0 
L 448 0 
Q 442 38 442 76 
Q 442 115 442 147 
Q 442 448 541 707 
Q 640 966 800 1196 
Q 960 1427 1158 1632 
Q 1357 1837 1549 2029 
Q 1709 2182 1853 2332 
Q 1997 2483 2109 2633 
Q 2221 2784 2288 2944 
Q 2355 3104 2355 3283 
Q 2355 3475 2294 3609 
Q 2234 3744 2131 3833 
Q 2029 3923 1891 3964 
Q 1754 4006 1600 4006 
Q 1414 4006 1260 3955 
Q 1107 3904 985 3837 
Q 864 3770 781 3696 
Q 698 3622 653 3584 
L 358 4006 
Q 416 4070 531 4163 
Q 646 4256 806 4339 
Q 966 4422 1164 4480 
Q 1363 4538 1594 4538 
Q 2291 4538 2640 4214 
Q 2989 3891 2989 3302 
z
" transform="scale(0.015625)"/>
       </defs>
       <use xlink:href="#Ubuntu-32"/>
      </g>
     </g>
    </g>
    <g id="ytick_4">
     <g id="line2d_9">
      <g>
       <use xlink:href="#m3dc06a0e6b" x="37.360938" y="60.0175" style="fill: #aaaaaa; stroke: #aaaaaa; stroke-width: 0.75"/>
      </g>
     </g>
     <g id="text_9">
      <!-- 3 -->
      <g style="fill: #808080" transform="translate(23.848438 63.12125) scale(0.08 -0.08)">
       <defs>
        <path id="Ubuntu-33" d="M 1446 435 
Q 2016 435 2262 659 
Q 2509 883 2509 1261 
Q 2509 1504 2406 1670 
Q 2304 1837 2137 1936 
Q 1971 2035 1750 2076 
Q 1530 2118 1299 2118 
L 1146 2118 
L 1146 2605 
L 1357 2605 
Q 1517 2605 1686 2637 
Q 1856 2669 1997 2752 
Q 2138 2835 2227 2979 
Q 2317 3123 2317 3341 
Q 2317 3520 2253 3648 
Q 2189 3776 2083 3859 
Q 1978 3942 1840 3977 
Q 1702 4013 1549 4013 
Q 1242 4013 1027 3923 
Q 813 3834 666 3738 
L 435 4192 
Q 512 4243 630 4304 
Q 749 4365 896 4416 
Q 1043 4467 1212 4502 
Q 1382 4538 1568 4538 
Q 1920 4538 2176 4451 
Q 2432 4365 2598 4208 
Q 2765 4051 2848 3836 
Q 2931 3622 2931 3373 
Q 2931 3027 2732 2780 
Q 2534 2534 2253 2406 
Q 2426 2355 2586 2259 
Q 2746 2163 2864 2016 
Q 2982 1869 3056 1677 
Q 3130 1485 3130 1248 
Q 3130 960 3030 713 
Q 2931 467 2723 288 
Q 2515 109 2201 6 
Q 1888 -96 1459 -96 
Q 1293 -96 1117 -70 
Q 941 -45 787 -6 
Q 634 32 518 70 
Q 403 109 352 134 
L 467 653 
Q 576 602 829 518 
Q 1082 435 1446 435 
z
" transform="scale(0.015625)"/>
       </defs>
       <use xlink:href="#Ubuntu-33"/>
      </g>
     </g>
    </g>
    <g id="ytick_5">
     <g id="line2d_10">
      <g>
       <use xlink:href="#m3dc06a0e6b" x="37.360938" y="25.3675" style="fill: #aaaaaa; stroke: #aaaaaa; stroke-width: 0.75"/>
      </g>
     </g>
     <g id="text_10">
      <!-- 4 -->
      <g style="fill: #808080" transform="translate(23.848438 28.47125) scale(0.08 -0.08)">
       <defs>
        <path id="Ubuntu-34" d="M 256 1536 
Q 378 1818 589 2192 
Q 800 2566 1065 2963 
Q 1331 3360 1635 3744 
Q 1939 4128 2246 4435 
L 2816 4435 
L 2816 1619 
L 3341 1619 
L 3341 1133 
L 2816 1133 
L 2816 0 
L 2240 0 
L 2240 1133 
L 256 1133 
L 256 1536 
z
M 2240 3731 
Q 2048 3526 1853 3273 
Q 1658 3021 1472 2745 
Q 1286 2470 1123 2182 
Q 960 1894 832 1619 
L 2240 1619 
L 2240 3731 
z
" transform="scale(0.015625)"/>
       </defs>
       <use xlink:href="#Ubuntu-34"/>
      </g>
     </g>
    </g>
    <g id="text_11">
     <!-- Density -->
     <g style="fill: #505050" transform="translate(14.183438 58.535313) rotate(-90) scale(0.09 -0.09)">
      <defs>
       <path id="Ubuntu-Bold-44" d="M 1510 813 
Q 1581 806 1673 803 
Q 1766 800 1894 800 
Q 2643 800 3004 1177 
Q 3366 1555 3366 2221 
Q 3366 2918 3020 3276 
Q 2675 3635 1926 3635 
Q 1824 3635 1715 3632 
Q 1606 3629 1510 3616 
L 1510 813 
z
M 4397 2221 
Q 4397 1645 4217 1216 
Q 4038 787 3708 505 
Q 3379 224 2905 83 
Q 2432 -58 1843 -58 
Q 1574 -58 1216 -35 
Q 858 -13 512 58 
L 512 4378 
Q 858 4442 1232 4464 
Q 1606 4486 1875 4486 
Q 2445 4486 2909 4358 
Q 3373 4230 3705 3955 
Q 4038 3680 4217 3251 
Q 4397 2822 4397 2221 
z
" transform="scale(0.015625)"/>
       <path id="Ubuntu-Bold-65" d="M 288 1658 
Q 288 2106 425 2442 
Q 563 2778 787 3002 
Q 1011 3226 1302 3341 
Q 1594 3456 1901 3456 
Q 2618 3456 3034 3017 
Q 3450 2579 3450 1728 
Q 3450 1645 3443 1545 
Q 3437 1446 3430 1370 
L 1267 1370 
Q 1299 1075 1542 902 
Q 1786 730 2195 730 
Q 2458 730 2710 778 
Q 2963 826 3123 896 
L 3251 122 
Q 3174 83 3046 44 
Q 2918 6 2761 -22 
Q 2605 -51 2425 -70 
Q 2246 -90 2067 -90 
Q 1613 -90 1277 44 
Q 941 179 720 412 
Q 499 646 393 966 
Q 288 1286 288 1658 
z
M 2528 2022 
Q 2522 2144 2486 2259 
Q 2451 2374 2377 2464 
Q 2304 2554 2192 2611 
Q 2080 2669 1914 2669 
Q 1754 2669 1638 2614 
Q 1523 2560 1446 2470 
Q 1370 2381 1328 2262 
Q 1286 2144 1267 2022 
L 2528 2022 
z
" transform="scale(0.015625)"/>
       <path id="Ubuntu-Bold-6e" d="M 448 3251 
Q 691 3322 1075 3382 
Q 1459 3443 1882 3443 
Q 2310 3443 2595 3331 
Q 2880 3219 3046 3014 
Q 3213 2810 3283 2528 
Q 3354 2246 3354 1901 
L 3354 0 
L 2400 0 
L 2400 1786 
Q 2400 2246 2278 2438 
Q 2157 2630 1824 2630 
Q 1722 2630 1606 2620 
Q 1491 2611 1402 2598 
L 1402 0 
L 448 0 
L 448 3251 
z
" transform="scale(0.015625)"/>
       <path id="Ubuntu-Bold-73" d="M 1414 685 
Q 1677 685 1785 736 
Q 1894 787 1894 934 
Q 1894 1050 1753 1136 
Q 1613 1222 1325 1331 
Q 1101 1414 918 1504 
Q 736 1594 608 1718 
Q 480 1843 409 2016 
Q 339 2189 339 2432 
Q 339 2906 691 3181 
Q 1043 3456 1658 3456 
Q 1965 3456 2246 3401 
Q 2528 3347 2694 3283 
L 2528 2541 
Q 2362 2598 2166 2643 
Q 1971 2688 1728 2688 
Q 1280 2688 1280 2438 
Q 1280 2381 1299 2336 
Q 1318 2291 1376 2249 
Q 1434 2208 1533 2160 
Q 1632 2112 1786 2054 
Q 2099 1939 2304 1827 
Q 2509 1715 2627 1584 
Q 2746 1453 2794 1293 
Q 2842 1133 2842 922 
Q 2842 422 2467 166 
Q 2093 -90 1408 -90 
Q 960 -90 662 -13 
Q 365 64 250 115 
L 410 890 
Q 653 794 909 739 
Q 1165 685 1414 685 
z
" transform="scale(0.015625)"/>
       <path id="Ubuntu-Bold-69" d="M 1402 0 
L 448 0 
L 448 3366 
L 1402 3366 
L 1402 0 
z
M 1491 4339 
Q 1491 4077 1321 3926 
Q 1152 3776 922 3776 
Q 691 3776 521 3926 
Q 352 4077 352 4339 
Q 352 4602 521 4752 
Q 691 4902 922 4902 
Q 1152 4902 1321 4752 
Q 1491 4602 1491 4339 
z
" transform="scale(0.015625)"/>
       <path id="Ubuntu-Bold-74" d="M 416 4205 
L 1370 4358 
L 1370 3366 
L 2515 3366 
L 2515 2573 
L 1370 2573 
L 1370 1389 
Q 1370 1088 1475 909 
Q 1581 730 1901 730 
Q 2054 730 2217 758 
Q 2381 787 2515 838 
L 2650 96 
Q 2477 26 2265 -25 
Q 2054 -77 1747 -77 
Q 1357 -77 1101 28 
Q 845 134 691 323 
Q 538 512 477 781 
Q 416 1050 416 1376 
L 416 4205 
z
" transform="scale(0.015625)"/>
       <path id="Ubuntu-Bold-79" d="M 3437 3366 
Q 3149 2394 2835 1542 
Q 2522 691 2150 -109 
Q 2016 -397 1881 -598 
Q 1747 -800 1587 -931 
Q 1427 -1062 1225 -1123 
Q 1024 -1184 755 -1184 
Q 531 -1184 342 -1142 
Q 154 -1101 32 -1050 
L 198 -288 
Q 346 -339 461 -358 
Q 576 -378 704 -378 
Q 960 -378 1097 -240 
Q 1235 -102 1331 141 
Q 1005 781 678 1577 
Q 352 2374 64 3366 
L 1075 3366 
Q 1139 3117 1225 2825 
Q 1312 2534 1408 2236 
Q 1504 1939 1603 1657 
Q 1702 1376 1792 1146 
Q 1875 1376 1964 1657 
Q 2054 1939 2140 2236 
Q 2227 2534 2307 2825 
Q 2387 3117 2451 3366 
L 3437 3366 
z
" transform="scale(0.015625)"/>
      </defs>
      <use xlink:href="#Ubuntu-Bold-44"/>
      <use xlink:href="#Ubuntu-Bold-65" x="73.699982"/>
      <use xlink:href="#Ubuntu-Bold-6e" x="132.099976"/>
      <use xlink:href="#Ubuntu-Bold-73" x="190.999969"/>
      <use xlink:href="#Ubuntu-Bold-69" x="239.499954"/>
      <use xlink:href="#Ubuntu-Bold-74" x="268.399948"/>
      <use xlink:href="#Ubuntu-Bold-79" x="313.799942"/>
     </g>
    </g>
   </g>
   <g id="PolyCollection_1">
    <defs>
     <path id="m78bf297add" d="M 154.278076 -33.894889 
L 154.278076 -33.8875 
L 155.340712 -33.8875 
L 156.403348 -33.8875 
L 157.465984 -33.8875 
L 158.52862 -33.8875 
L 159.591256 -33.8875 
L 160.653892 -33.8875 
L 161.716528 -33.8875 
L 162.779163 -33.8875 
L 163.841799 -33.8875 
L 164.904435 -33.8875 
L 165.967071 -33.8875 
L 167.029707 -33.8875 
L 168.092343 -33.8875 
L 169.154979 -33.8875 
L 170.217615 -33.8875 
L 171.280251 -33.8875 
L 172.342887 -33.8875 
L 173.405523 -33.8875 
L 174.468159 -33.8875 
L 175.530795 -33.8875 
L 176.593431 -33.8875 
L 177.656067 -33.8875 
L 178.718703 -33.8875 
L 179.781339 -33.8875 
L 180.843975 -33.8875 
L 181.90661 -33.8875 
L 182.969246 -33.8875 
L 184.031882 -33.8875 
L 185.094518 -33.8875 
L 186.157154 -33.8875 
L 187.21979 -33.8875 
L 188.282426 -33.8875 
L 189.345062 -33.8875 
L 190.407698 -33.8875 
L 191.470334 -33.8875 
L 192.53297 -33.8875 
L 193.595606 -33.8875 
L 194.658242 -33.8875 
L 195.720878 -33.8875 
L 196.783514 -33.8875 
L 197.84615 -33.8875 
L 198.908786 -33.8875 
L 199.971422 -33.8875 
L 201.034057 -33.8875 
L 202.096693 -33.8875 
L 203.159329 -33.8875 
L 204.221965 -33.8875 
L 205.284601 -33.8875 
L 206.347237 -33.8875 
L 207.409873 -33.8875 
L 208.472509 -33.8875 
L 209.535145 -33.8875 
L 210.597781 -33.8875 
L 211.660417 -33.8875 
L 212.723053 -33.8875 
L 213.785689 -33.8875 
L 214.848325 -33.8875 
L 215.910961 -33.8875 
L 216.973597 -33.8875 
L 218.036233 -33.8875 
L 219.098869 -33.8875 
L 220.161505 -33.8875 
L 221.22414 -33.8875 
L 222.286776 -33.8875 
L 223.349412 -33.8875 
L 224.412048 -33.8875 
L 225.474684 -33.8875 
L 226.53732 -33.8875 
L 227.599956 -33.8875 
L 228.662592 -33.8875 
L 229.725228 -33.8875 
L 230.787864 -33.8875 
L 231.8505 -33.8875 
L 232.913136 -33.8875 
L 233.975772 -33.8875 
L 235.038408 -33.8875 
L 236.101044 -33.8875 
L 237.16368 -33.8875 
L 238.226316 -33.8875 
L 239.288952 -33.8875 
L 240.351587 -33.8875 
L 241.414223 -33.8875 
L 242.476859 -33.8875 
L 243.539495 -33.8875 
L 244.602131 -33.8875 
L 245.664767 -33.8875 
L 246.727403 -33.8875 
L 247.790039 -33.8875 
L 248.852675 -33.8875 
L 249.915311 -33.8875 
L 250.977947 -33.8875 
L 252.040583 -33.8875 
L 253.103219 -33.8875 
L 254.165855 -33.8875 
L 255.228491 -33.8875 
L 256.291127 -33.8875 
L 257.353763 -33.8875 
L 258.416399 -33.8875 
L 259.479034 -33.8875 
L 260.54167 -33.8875 
L 261.604306 -33.8875 
L 262.666942 -33.8875 
L 263.729578 -33.8875 
L 264.792214 -33.8875 
L 265.85485 -33.8875 
L 266.917486 -33.8875 
L 267.980122 -33.8875 
L 269.042758 -33.8875 
L 270.105394 -33.8875 
L 271.16803 -33.8875 
L 272.230666 -33.8875 
L 273.293302 -33.8875 
L 274.355938 -33.8875 
L 275.418574 -33.8875 
L 276.48121 -33.8875 
L 277.543846 -33.8875 
L 278.606481 -33.8875 
L 279.669117 -33.8875 
L 280.731753 -33.8875 
L 281.794389 -33.8875 
L 282.857025 -33.8875 
L 283.919661 -33.8875 
L 284.982297 -33.8875 
L 286.044933 -33.8875 
L 287.107569 -33.8875 
L 288.170205 -33.8875 
L 289.232841 -33.8875 
L 290.295477 -33.8875 
L 291.358113 -33.8875 
L 292.420749 -33.8875 
L 293.483385 -33.8875 
L 294.546021 -33.8875 
L 295.608657 -33.8875 
L 296.671293 -33.8875 
L 297.733929 -33.8875 
L 298.796564 -33.8875 
L 299.8592 -33.8875 
L 300.921836 -33.8875 
L 301.984472 -33.8875 
L 303.047108 -33.8875 
L 304.109744 -33.8875 
L 305.17238 -33.8875 
L 306.235016 -33.8875 
L 307.297652 -33.8875 
L 308.360288 -33.8875 
L 309.422924 -33.8875 
L 310.48556 -33.8875 
L 311.548196 -33.8875 
L 312.610832 -33.8875 
L 313.673468 -33.8875 
L 314.736104 -33.8875 
L 315.79874 -33.8875 
L 316.861376 -33.8875 
L 317.924011 -33.8875 
L 318.986647 -33.8875 
L 320.049283 -33.8875 
L 321.111919 -33.8875 
L 322.174555 -33.8875 
L 323.237191 -33.8875 
L 324.299827 -33.8875 
L 325.362463 -33.8875 
L 326.425099 -33.8875 
L 327.487735 -33.8875 
L 328.550371 -33.8875 
L 329.613007 -33.8875 
L 330.675643 -33.8875 
L 331.738279 -33.8875 
L 332.800915 -33.8875 
L 333.863551 -33.8875 
L 334.926187 -33.8875 
L 335.988823 -33.8875 
L 337.051458 -33.8875 
L 338.114094 -33.8875 
L 339.17673 -33.8875 
L 340.239366 -33.8875 
L 341.302002 -33.8875 
L 342.364638 -33.8875 
L 343.427274 -33.8875 
L 344.48991 -33.8875 
L 345.552546 -33.8875 
L 346.615182 -33.8875 
L 347.677818 -33.8875 
L 348.740454 -33.8875 
L 349.80309 -33.8875 
L 350.865726 -33.8875 
L 351.928362 -33.8875 
L 352.990998 -33.8875 
L 354.053634 -33.8875 
L 355.11627 -33.8875 
L 356.178906 -33.8875 
L 357.241541 -33.8875 
L 358.304177 -33.8875 
L 359.366813 -33.8875 
L 360.429449 -33.8875 
L 361.492085 -33.8875 
L 362.554721 -33.8875 
L 363.617357 -33.8875 
L 364.679993 -33.8875 
L 365.742629 -33.8875 
L 365.742629 -33.896245 
L 365.742629 -33.896245 
L 364.679993 -33.901595 
L 363.617357 -33.909693 
L 362.554721 -33.921639 
L 361.492085 -33.938814 
L 360.429449 -33.962876 
L 359.366813 -33.995721 
L 358.304177 -34.039405 
L 357.241541 -34.096013 
L 356.178906 -34.16749 
L 355.11627 -34.255444 
L 354.053634 -34.360958 
L 352.990998 -34.484433 
L 351.928362 -34.625522 
L 350.865726 -34.78318 
L 349.80309 -34.955859 
L 348.740454 -35.141852 
L 347.677818 -35.339747 
L 346.615182 -35.54896 
L 345.552546 -35.770239 
L 344.48991 -36.006072 
L 343.427274 -36.26091 
L 342.364638 -36.541146 
L 341.302002 -36.85483 
L 340.239366 -37.211153 
L 339.17673 -37.619753 
L 338.114094 -38.089947 
L 337.051458 -38.629985 
L 335.988823 -39.24641 
L 334.926187 -39.943591 
L 333.863551 -40.723453 
L 332.800915 -41.585372 
L 331.738279 -42.526217 
L 330.675643 -43.540494 
L 329.613007 -44.620541 
L 328.550371 -45.756802 
L 327.487735 -46.938164 
L 326.425099 -48.152414 
L 325.362463 -49.386836 
L 324.299827 -50.628953 
L 323.237191 -51.867393 
L 322.174555 -53.092778 
L 321.111919 -54.298535 
L 320.049283 -55.481501 
L 318.986647 -56.642188 
L 317.924011 -57.784663 
L 316.861376 -58.91604 
L 315.79874 -60.045666 
L 314.736104 -61.184169 
L 313.673468 -62.342545 
L 312.610832 -63.531491 
L 311.548196 -64.761113 
L 310.48556 -66.041079 
L 309.422924 -67.38116 
L 308.360288 -68.79199 
L 307.297652 -70.285831 
L 306.235016 -71.877035 
L 305.17238 -73.581977 
L 304.109744 -75.418287 
L 303.047108 -77.403341 
L 301.984472 -79.552148 
L 300.921836 -81.874924 
L 299.8592 -84.374737 
L 298.796564 -87.045684 
L 297.733929 -89.871994 
L 296.671293 -92.82834 
L 295.608657 -95.881438 
L 294.546021 -98.992766 
L 293.483385 -102.122051 
L 292.420749 -105.230966 
L 291.358113 -108.286466 
L 290.295477 -111.263203 
L 289.232841 -114.144647 
L 288.170205 -116.922754 
L 287.107569 -119.596296 
L 286.044933 -122.16819 
L 284.982297 -124.642337 
L 283.919661 -127.020531 
L 282.857025 -129.299974 
L 281.794389 -131.471788 
L 280.731753 -133.520723 
L 279.669117 -135.426048 
L 278.606481 -137.163435 
L 277.543846 -138.70747 
L 276.48121 -140.034379 
L 275.418574 -141.124544 
L 274.355938 -141.96447 
L 273.293302 -142.547967 
L 272.230666 -142.876481 
L 271.16803 -142.958653 
L 270.105394 -142.809274 
L 269.042758 -142.447907 
L 267.980122 -141.897391 
L 266.917486 -141.182437 
L 265.85485 -140.328405 
L 264.792214 -139.360262 
L 263.729578 -138.301667 
L 262.666942 -137.174086 
L 261.604306 -135.995884 
L 260.54167 -134.781398 
L 259.479034 -133.540097 
L 258.416399 -132.275972 
L 257.353763 -130.987375 
L 256.291127 -129.667456 
L 255.228491 -128.305302 
L 254.165855 -126.887736 
L 253.103219 -125.401604 
L 252.040583 -123.836267 
L 250.977947 -122.185927 
L 249.915311 -120.451385 
L 248.852675 -118.640902 
L 247.790039 -116.769922 
L 246.727403 -114.859599 
L 245.664767 -112.934243 
L 244.602131 -111.017997 
L 243.539495 -109.131206 
L 242.476859 -107.287025 
L 241.414223 -105.48882 
L 240.351587 -103.728828 
L 239.288952 -101.988356 
L 238.226316 -100.239602 
L 237.16368 -98.448877 
L 236.101044 -96.580833 
L 235.038408 -94.603093 
L 233.975772 -92.490645 
L 232.913136 -90.229377 
L 231.8505 -87.818284 
L 230.787864 -85.27009 
L 229.725228 -82.610258 
L 228.662592 -79.874619 
L 227.599956 -77.106015 
L 226.53732 -74.350441 
L 225.474684 -71.653224 
L 224.412048 -69.055654 
L 223.349412 -66.592397 
L 222.286776 -64.289848 
L 221.22414 -62.165428 
L 220.161505 -60.227728 
L 219.098869 -58.477301 
L 218.036233 -56.907908 
L 216.973597 -55.508015 
L 215.910961 -54.262353 
L 214.848325 -53.15343 
L 213.785689 -52.16289 
L 212.723053 -51.272648 
L 211.660417 -50.465767 
L 210.597781 -49.727035 
L 209.535145 -49.043258 
L 208.472509 -48.403272 
L 207.409873 -47.797746 
L 206.347237 -47.218853 
L 205.284601 -46.659899 
L 204.221965 -46.115021 
L 203.159329 -45.579024 
L 202.096693 -45.047403 
L 201.034057 -44.516535 
L 199.971422 -43.983988 
L 198.908786 -43.448846 
L 197.84615 -42.911933 
L 196.783514 -42.375846 
L 195.720878 -41.844727 
L 194.658242 -41.323774 
L 193.595606 -40.818557 
L 192.53297 -40.334246 
L 191.470334 -39.874897 
L 190.407698 -39.442939 
L 189.345062 -39.038949 
L 188.282426 -38.661765 
L 187.21979 -38.308883 
L 186.157154 -37.977059 
L 185.094518 -37.66296 
L 184.031882 -37.363735 
L 182.969246 -37.077399 
L 181.90661 -36.802959 
L 180.843975 -36.540317 
L 179.781339 -36.289985 
L 178.718703 -36.052728 
L 177.656067 -35.829233 
L 176.593431 -35.619868 
L 175.530795 -35.424598 
L 174.468159 -35.243025 
L 173.405523 -35.074537 
L 172.342887 -34.918492 
L 171.280251 -34.774375 
L 170.217615 -34.641905 
L 169.154979 -34.52104 
L 168.092343 -34.411913 
L 167.029707 -34.314715 
L 165.967071 -34.229553 
L 164.904435 -34.156334 
L 163.841799 -34.094687 
L 162.779163 -34.043936 
L 161.716528 -34.003133 
L 160.653892 -33.971124 
L 159.591256 -33.946638 
L 158.52862 -33.928379 
L 157.465984 -33.915112 
L 156.403348 -33.90572 
L 155.340712 -33.899242 
L 154.278076 -33.894889 
z
" style="stroke: #858585; stroke-width: 0.01"/>
    </defs>
    <g clip-path="url(#p3159e8dbc7)">
     <use xlink:href="#m78bf297add" x="0" y="197.855" style="fill: #858585; fill-opacity: 0.25; stroke: #858585; stroke-width: 0.01"/>
    </g>
   </g>
   <g id="line2d_11">
    <path d="M 77.489888 163.963482 
L 87.222766 163.855537 
L 98.57779 163.610247 
L 113.177108 163.747104 
L 124.532132 163.479755 
L 135.887157 163.34076 
L 142.375742 162.983398 
L 148.864328 162.631467 
L 153.730767 162.635854 
L 163.463645 162.864864 
L 166.707938 162.659431 
L 171.574377 161.985214 
L 174.81867 161.550028 
L 178.062963 161.364752 
L 181.307255 161.44671 
L 186.173695 161.666267 
L 189.417987 161.592183 
L 192.66228 161.226962 
L 195.906573 160.523928 
L 199.150866 159.424647 
L 200.773012 158.699041 
L 202.395158 157.838001 
L 204.017305 156.829503 
L 205.639451 155.668073 
L 208.883744 152.924683 
L 213.750183 148.190152 
L 216.994476 144.865478 
L 220.238768 141.18095 
L 221.860915 139.08139 
L 223.483061 136.774427 
L 226.727354 131.583301 
L 229.971647 125.74691 
L 231.593793 122.555801 
L 233.215939 119.10906 
L 234.838086 115.340714 
L 236.460232 111.208081 
L 239.704525 101.908502 
L 249.437403 71.904495 
L 252.681696 63.03697 
L 255.925989 55.178251 
L 257.548135 51.688885 
L 259.170281 48.523458 
L 260.792428 45.706955 
L 262.414574 43.269017 
L 264.03672 41.243965 
L 265.658867 39.668375 
L 267.281013 38.578424 
L 268.90316 38.010081 
L 270.525306 38.003627 
L 272.147452 38.61053 
L 273.769599 39.897257 
L 275.391745 41.939591 
L 277.013891 44.804133 
L 278.636038 48.520059 
L 280.258184 53.050902 
L 281.880331 58.279118 
L 285.124623 70.015989 
L 288.368916 81.927159 
L 291.613209 92.779079 
L 294.857502 102.390163 
L 298.101794 111.100985 
L 301.346087 119.163627 
L 304.59038 126.683943 
L 307.834672 133.764639 
L 311.078965 140.388107 
L 312.701112 143.437179 
L 314.323258 146.229006 
L 315.945404 148.702939 
L 317.567551 150.818185 
L 319.189697 152.564791 
L 320.811843 153.966213 
L 322.43399 155.073255 
L 324.056136 155.952048 
L 327.300429 157.285275 
L 332.166868 158.825541 
L 335.411161 159.660749 
L 340.2776 160.625814 
L 345.144039 161.560295 
L 351.632625 162.936219 
L 354.876917 163.384554 
L 358.12121 163.578289 
L 364.609796 163.572116 
L 382.453406 163.609903 
L 400.297016 163.963481 
L 400.297016 163.963481 
" clip-path="url(#p3159e8dbc7)" style="fill: none; stroke: #af5a51; stroke-width: 1.2; stroke-linecap: square"/>
   </g>
   <g id="line2d_12">
    <path d="M 187.464564 163.953484 
L 192.153709 163.816 
L 194.498281 163.572013 
L 196.842854 163.07261 
L 198.405902 162.534931 
L 199.96895 161.79545 
L 201.531999 160.833648 
L 203.095047 159.642996 
L 204.658095 158.231195 
L 207.002667 155.750317 
L 210.128764 152.006808 
L 213.25486 148.290491 
L 215.599433 145.817863 
L 219.507053 141.919633 
L 221.070101 140.065868 
L 222.63315 137.880614 
L 224.196198 135.364738 
L 227.322294 129.744259 
L 232.792963 119.51772 
L 234.356011 116.124454 
L 235.91906 112.22665 
L 237.482108 107.762238 
L 239.82668 100.171141 
L 246.078873 78.945399 
L 249.20497 69.233984 
L 252.331066 60.18746 
L 254.675638 54.01426 
L 257.020211 48.505 
L 259.364783 43.677215 
L 260.927831 40.83949 
L 262.49088 38.336259 
L 264.053928 36.219366 
L 265.616976 34.549011 
L 267.180024 33.372915 
L 267.961548 32.977822 
L 268.743073 32.711836 
L 269.524597 32.573859 
L 270.306121 32.562728 
L 271.087645 32.678444 
L 271.869169 32.92346 
L 272.650693 33.303856 
L 273.432217 33.830148 
L 274.213741 34.517531 
L 274.995265 35.385386 
L 275.77679 36.455987 
L 276.558314 37.752454 
L 277.339838 39.296139 
L 278.902886 43.184421 
L 280.465934 48.15141 
L 282.028982 54.055223 
L 285.155079 67.347185 
L 287.499651 77.09381 
L 289.844224 85.726093 
L 292.188796 93.226878 
L 295.314892 102.212221 
L 299.222513 112.771862 
L 302.34861 120.589877 
L 305.474706 127.767702 
L 311.726899 141.463166 
L 314.071471 146.146754 
L 315.634519 148.862688 
L 317.197568 151.160548 
L 318.760616 153.030494 
L 320.323664 154.529827 
L 322.668237 156.317182 
L 328.138905 159.922761 
L 330.483478 161.340751 
L 332.82805 162.474411 
L 334.391098 163.022945 
L 336.735671 163.549769 
L 339.080243 163.810156 
L 342.987864 163.946106 
L 342.987864 163.946106 
" clip-path="url(#p3159e8dbc7)" style="fill: none; stroke: #489079; stroke-width: 1.2; stroke-linecap: square"/>
   </g>
   <g id="patch_3">
    <path d="M 37.360938 163.9675 
L 37.360938 25.3675 
" style="fill: none; stroke: #aaaaaa; stroke-width: 0.75; stroke-linejoin: miter; stroke-linecap: square"/>
   </g>
   <g id="patch_4">
    <path d="M 42.360938 173.9675 
L 488.760938 173.9675 
" style="fill: none; stroke: #aaaaaa; stroke-width: 0.75; stroke-linejoin: miter; stroke-linecap: square"/>
   </g>
   <g id="legend_1">
    <g id="patch_5">
     <path d="M 49.560938 16.66375 
L 65.560938 16.66375 
L 65.560938 11.06375 
L 49.560938 11.06375 
z
" style="fill: #858585; fill-opacity: 0.25; stroke: #858585; stroke-width: 0.01; stroke-linejoin: miter"/>
    </g>
    <g id="text_12">
     <!-- Normal distribution -->
     <g style="fill: #4b4b4b" transform="translate(71.960938 16.66375) scale(0.08 -0.08)">
      <defs>
       <path id="Ubuntu-4e" d="M 3590 0 
Q 3450 237 3267 531 
Q 3085 826 2873 1142 
Q 2662 1459 2435 1785 
Q 2208 2112 1984 2416 
Q 1760 2720 1549 2989 
Q 1338 3258 1158 3462 
L 1158 0 
L 550 0 
L 550 4435 
L 1043 4435 
Q 1344 4115 1686 3689 
Q 2029 3264 2365 2813 
Q 2701 2362 2998 1926 
Q 3296 1491 3501 1152 
L 3501 4435 
L 4109 4435 
L 4109 0 
L 3590 0 
z
" transform="scale(0.015625)"/>
       <path id="Ubuntu-6f" d="M 3450 1664 
Q 3450 1267 3334 947 
Q 3219 627 3011 396 
Q 2803 166 2515 41 
Q 2227 -83 1888 -83 
Q 1549 -83 1261 41 
Q 973 166 765 396 
Q 557 627 441 947 
Q 326 1267 326 1664 
Q 326 2054 441 2377 
Q 557 2701 765 2931 
Q 973 3162 1261 3286 
Q 1549 3411 1888 3411 
Q 2227 3411 2515 3286 
Q 2803 3162 3011 2931 
Q 3219 2701 3334 2377 
Q 3450 2054 3450 1664 
z
M 2829 1664 
Q 2829 2227 2576 2556 
Q 2323 2886 1888 2886 
Q 1453 2886 1200 2556 
Q 947 2227 947 1664 
Q 947 1101 1200 771 
Q 1453 442 1888 442 
Q 2323 442 2576 771 
Q 2829 1101 2829 1664 
z
" transform="scale(0.015625)"/>
       <path id="Ubuntu-72" d="M 1741 3398 
Q 1818 3398 1917 3388 
Q 2016 3379 2112 3363 
Q 2208 3347 2288 3331 
Q 2368 3315 2406 3302 
L 2304 2784 
Q 2234 2810 2070 2845 
Q 1907 2880 1651 2880 
Q 1485 2880 1321 2845 
Q 1158 2810 1107 2797 
L 1107 0 
L 512 0 
L 512 3187 
Q 723 3264 1036 3331 
Q 1350 3398 1741 3398 
z
" transform="scale(0.015625)"/>
       <path id="Ubuntu-6d" d="M 512 3232 
Q 717 3283 1053 3340 
Q 1389 3398 1830 3398 
Q 2150 3398 2368 3312 
Q 2586 3226 2733 3059 
Q 2778 3091 2874 3148 
Q 2970 3206 3110 3260 
Q 3251 3315 3424 3356 
Q 3597 3398 3795 3398 
Q 4179 3398 4422 3286 
Q 4666 3174 4803 2969 
Q 4941 2765 4989 2483 
Q 5037 2202 5037 1869 
L 5037 0 
L 4442 0 
L 4442 1741 
Q 4442 2035 4413 2246 
Q 4384 2458 4304 2598 
Q 4224 2739 4086 2806 
Q 3949 2874 3731 2874 
Q 3430 2874 3235 2794 
Q 3040 2714 2970 2650 
Q 3021 2483 3046 2284 
Q 3072 2086 3072 1869 
L 3072 0 
L 2477 0 
L 2477 1741 
Q 2477 2035 2445 2246 
Q 2413 2458 2333 2598 
Q 2253 2739 2115 2806 
Q 1978 2874 1766 2874 
Q 1677 2874 1574 2867 
Q 1472 2861 1379 2851 
Q 1286 2842 1209 2829 
Q 1133 2816 1107 2810 
L 1107 0 
L 512 0 
L 512 3232 
z
" transform="scale(0.015625)"/>
       <path id="Ubuntu-61" d="M 1638 429 
Q 1850 429 2013 438 
Q 2176 448 2285 474 
L 2285 1466 
Q 2221 1498 2077 1520 
Q 1933 1542 1728 1542 
Q 1594 1542 1443 1523 
Q 1293 1504 1168 1443 
Q 1043 1382 960 1276 
Q 877 1171 877 998 
Q 877 678 1081 553 
Q 1286 429 1638 429 
z
M 1587 3411 
Q 1946 3411 2192 3318 
Q 2438 3226 2588 3056 
Q 2739 2886 2803 2652 
Q 2867 2419 2867 2138 
L 2867 58 
Q 2790 45 2652 22 
Q 2515 0 2342 -19 
Q 2170 -38 1968 -54 
Q 1766 -70 1568 -70 
Q 1286 -70 1049 -12 
Q 813 45 640 169 
Q 467 294 371 499 
Q 275 704 275 992 
Q 275 1267 387 1465 
Q 499 1664 691 1785 
Q 883 1907 1139 1964 
Q 1395 2022 1677 2022 
Q 1766 2022 1862 2012 
Q 1958 2003 2044 1987 
Q 2131 1971 2195 1958 
Q 2259 1946 2285 1939 
L 2285 2106 
Q 2285 2253 2253 2397 
Q 2221 2541 2137 2653 
Q 2054 2765 1910 2832 
Q 1766 2899 1536 2899 
Q 1242 2899 1021 2857 
Q 800 2816 691 2771 
L 621 3264 
Q 736 3315 1005 3363 
Q 1274 3411 1587 3411 
z
" transform="scale(0.015625)"/>
       <path id="Ubuntu-6c" d="M 1510 -64 
Q 960 -51 729 173 
Q 499 397 499 870 
L 499 4864 
L 1094 4966 
L 1094 966 
Q 1094 819 1120 723 
Q 1146 627 1203 569 
Q 1261 512 1357 483 
Q 1453 454 1594 435 
L 1510 -64 
z
" transform="scale(0.015625)"/>
       <path id="Ubuntu-20" transform="scale(0.015625)"/>
       <path id="Ubuntu-64" d="M 2662 2624 
Q 2554 2714 2349 2797 
Q 2144 2880 1901 2880 
Q 1645 2880 1462 2787 
Q 1280 2694 1165 2531 
Q 1050 2368 998 2144 
Q 947 1920 947 1664 
Q 947 1082 1235 765 
Q 1523 448 2003 448 
Q 2246 448 2409 470 
Q 2573 493 2662 518 
L 2662 2624 
z
M 2662 4864 
L 3258 4966 
L 3258 96 
Q 3053 38 2733 -19 
Q 2413 -77 1997 -77 
Q 1613 -77 1305 44 
Q 998 166 780 390 
Q 563 614 444 937 
Q 326 1261 326 1664 
Q 326 2048 425 2368 
Q 525 2688 717 2918 
Q 909 3149 1187 3277 
Q 1466 3405 1824 3405 
Q 2112 3405 2333 3328 
Q 2554 3251 2662 3181 
L 2662 4864 
z
" transform="scale(0.015625)"/>
       <path id="Ubuntu-69" d="M 1107 0 
L 512 0 
L 512 3328 
L 1107 3328 
L 1107 0 
z
M 806 3930 
Q 646 3930 534 4035 
Q 422 4141 422 4320 
Q 422 4499 534 4604 
Q 646 4710 806 4710 
Q 966 4710 1078 4604 
Q 1190 4499 1190 4320 
Q 1190 4141 1078 4035 
Q 966 3930 806 3930 
z
" transform="scale(0.015625)"/>
       <path id="Ubuntu-73" d="M 1286 429 
Q 1651 429 1827 525 
Q 2003 621 2003 832 
Q 2003 1050 1830 1178 
Q 1658 1306 1261 1466 
Q 1069 1542 893 1622 
Q 717 1702 589 1811 
Q 461 1920 384 2073 
Q 307 2227 307 2451 
Q 307 2893 633 3152 
Q 960 3411 1523 3411 
Q 1664 3411 1805 3395 
Q 1946 3379 2067 3356 
Q 2189 3334 2281 3308 
Q 2374 3283 2426 3264 
L 2317 2752 
Q 2221 2803 2016 2857 
Q 1811 2912 1523 2912 
Q 1274 2912 1088 2813 
Q 902 2714 902 2502 
Q 902 2394 944 2310 
Q 986 2227 1072 2160 
Q 1158 2093 1286 2035 
Q 1414 1978 1594 1914 
Q 1830 1824 2016 1737 
Q 2202 1651 2333 1536 
Q 2464 1421 2534 1257 
Q 2605 1094 2605 858 
Q 2605 397 2262 160 
Q 1920 -77 1286 -77 
Q 845 -77 595 -3 
Q 346 70 256 109 
L 365 621 
Q 467 582 691 505 
Q 915 429 1286 429 
z
" transform="scale(0.015625)"/>
       <path id="Ubuntu-74" d="M 1069 3328 
L 2330 3328 
L 2330 2829 
L 1069 2829 
L 1069 1293 
Q 1069 1043 1107 880 
Q 1146 717 1222 624 
Q 1299 531 1414 492 
Q 1530 454 1683 454 
Q 1952 454 2115 515 
Q 2278 576 2342 602 
L 2458 109 
Q 2368 64 2144 -3 
Q 1920 -70 1632 -70 
Q 1293 -70 1072 16 
Q 851 102 716 275 
Q 582 448 528 701 
Q 474 954 474 1286 
L 474 4256 
L 1069 4358 
L 1069 3328 
z
" transform="scale(0.015625)"/>
       <path id="Ubuntu-62" d="M 1107 3181 
Q 1216 3251 1437 3328 
Q 1658 3405 1946 3405 
Q 2304 3405 2582 3277 
Q 2861 3149 3053 2918 
Q 3245 2688 3344 2368 
Q 3443 2048 3443 1664 
Q 3443 1261 3324 937 
Q 3206 614 2988 390 
Q 2771 166 2464 44 
Q 2157 -77 1773 -77 
Q 1357 -77 1037 -19 
Q 717 38 512 96 
L 512 4864 
L 1107 4966 
L 1107 3181 
z
M 1107 518 
Q 1197 493 1360 470 
Q 1523 448 1766 448 
Q 2246 448 2534 765 
Q 2822 1082 2822 1664 
Q 2822 1920 2771 2144 
Q 2720 2368 2605 2531 
Q 2490 2694 2307 2787 
Q 2125 2880 1869 2880 
Q 1626 2880 1421 2797 
Q 1216 2714 1107 2624 
L 1107 518 
z
" transform="scale(0.015625)"/>
       <path id="Ubuntu-75" d="M 3162 96 
Q 2957 45 2621 -12 
Q 2285 -70 1843 -70 
Q 1459 -70 1196 42 
Q 934 154 774 358 
Q 614 563 544 841 
Q 474 1120 474 1459 
L 474 3328 
L 1069 3328 
L 1069 1587 
Q 1069 979 1261 716 
Q 1453 454 1907 454 
Q 2003 454 2105 460 
Q 2208 467 2297 476 
Q 2387 486 2460 496 
Q 2534 506 2566 518 
L 2566 3328 
L 3162 3328 
L 3162 96 
z
" transform="scale(0.015625)"/>
       <path id="Ubuntu-6e" d="M 512 3232 
Q 717 3283 1056 3340 
Q 1395 3398 1837 3398 
Q 2234 3398 2496 3286 
Q 2758 3174 2915 2972 
Q 3072 2771 3136 2489 
Q 3200 2208 3200 1869 
L 3200 0 
L 2605 0 
L 2605 1741 
Q 2605 2048 2563 2265 
Q 2522 2483 2426 2617 
Q 2330 2752 2170 2813 
Q 2010 2874 1773 2874 
Q 1677 2874 1574 2867 
Q 1472 2861 1379 2851 
Q 1286 2842 1212 2829 
Q 1139 2816 1107 2810 
L 1107 0 
L 512 0 
L 512 3232 
z
" transform="scale(0.015625)"/>
      </defs>
      <use xlink:href="#Ubuntu-4e"/>
      <use xlink:href="#Ubuntu-6f" x="72.799988"/>
      <use xlink:href="#Ubuntu-72" x="131.799973"/>
      <use xlink:href="#Ubuntu-6d" x="170.399963"/>
      <use xlink:href="#Ubuntu-61" x="256.499954"/>
      <use xlink:href="#Ubuntu-6c" x="308.699951"/>
      <use xlink:href="#Ubuntu-20" x="335.999939"/>
      <use xlink:href="#Ubuntu-64" x="359.09993"/>
      <use xlink:href="#Ubuntu-69" x="417.999924"/>
      <use xlink:href="#Ubuntu-73" x="443.299911"/>
      <use xlink:href="#Ubuntu-74" x="487.899902"/>
      <use xlink:href="#Ubuntu-72" x="528.099899"/>
      <use xlink:href="#Ubuntu-69" x="566.69989"/>
      <use xlink:href="#Ubuntu-62" x="591.999878"/>
      <use xlink:href="#Ubuntu-75" x="650.899872"/>
      <use xlink:href="#Ubuntu-74" x="708.299866"/>
      <use xlink:href="#Ubuntu-69" x="748.499863"/>
      <use xlink:href="#Ubuntu-6f" x="773.79985"/>
      <use xlink:href="#Ubuntu-6e" x="832.799835"/>
     </g>
    </g>
    <g id="line2d_13">
     <path d="M 159.175938 13.86375 
L 167.175938 13.86375 
L 175.175938 13.86375 
" style="fill: none; stroke: #af5a51; stroke-width: 1.2; stroke-linecap: square"/>
    </g>
    <g id="text_13">
     <!-- Residuals (original) -->
     <g style="fill: #4b4b4b" transform="translate(181.575938 16.66375) scale(0.08 -0.08)">
      <defs>
       <path id="Ubuntu-52" d="M 2720 1856 
Q 2822 1728 2979 1520 
Q 3136 1312 3302 1059 
Q 3469 806 3632 531 
Q 3795 256 3910 0 
L 3232 0 
Q 3104 243 2953 492 
Q 2803 742 2649 969 
Q 2496 1197 2345 1395 
Q 2195 1594 2074 1741 
Q 1990 1734 1904 1734 
Q 1818 1734 1728 1734 
L 1171 1734 
L 1171 0 
L 550 0 
L 550 4371 
Q 813 4435 1136 4457 
Q 1459 4480 1728 4480 
Q 2662 4480 3152 4128 
Q 3642 3776 3642 3078 
Q 3642 2637 3408 2323 
Q 3174 2010 2720 1856 
z
M 1779 3936 
Q 1382 3936 1171 3917 
L 1171 2246 
L 1613 2246 
Q 1933 2246 2189 2278 
Q 2445 2310 2621 2400 
Q 2797 2490 2893 2653 
Q 2989 2816 2989 3085 
Q 2989 3334 2893 3500 
Q 2797 3667 2633 3763 
Q 2470 3859 2249 3897 
Q 2029 3936 1779 3936 
z
" transform="scale(0.015625)"/>
       <path id="Ubuntu-65" d="M 326 1658 
Q 326 2099 454 2428 
Q 582 2758 793 2976 
Q 1005 3194 1280 3302 
Q 1555 3411 1843 3411 
Q 2515 3411 2873 2992 
Q 3232 2573 3232 1715 
Q 3232 1677 3232 1616 
Q 3232 1555 3226 1504 
L 947 1504 
Q 986 986 1248 717 
Q 1510 448 2067 448 
Q 2381 448 2595 502 
Q 2810 557 2918 608 
L 3002 109 
Q 2893 51 2621 -13 
Q 2349 -77 2003 -77 
Q 1568 -77 1251 54 
Q 934 186 729 416 
Q 525 646 425 963 
Q 326 1280 326 1658 
z
M 2611 1984 
Q 2618 2387 2410 2646 
Q 2202 2906 1837 2906 
Q 1632 2906 1475 2826 
Q 1318 2746 1209 2618 
Q 1101 2490 1040 2323 
Q 979 2157 960 1984 
L 2611 1984 
z
" transform="scale(0.015625)"/>
       <path id="Ubuntu-28" d="M 1094 1914 
Q 1094 1094 1331 396 
Q 1568 -301 2029 -896 
L 1606 -1184 
Q 1107 -576 803 214 
Q 499 1005 499 1914 
Q 499 2822 803 3612 
Q 1107 4403 1606 5011 
L 2029 4723 
Q 1568 4128 1331 3430 
Q 1094 2733 1094 1914 
z
" transform="scale(0.015625)"/>
       <path id="Ubuntu-67" d="M 2598 333 
Q 2522 282 2301 202 
Q 2080 122 1786 122 
Q 1485 122 1219 218 
Q 954 314 755 515 
Q 557 717 441 1017 
Q 326 1318 326 1734 
Q 326 2099 435 2403 
Q 544 2707 752 2928 
Q 960 3149 1261 3273 
Q 1562 3398 1939 3398 
Q 2355 3398 2665 3337 
Q 2976 3277 3187 3226 
L 3187 256 
Q 3187 -512 2790 -857 
Q 2394 -1203 1587 -1203 
Q 1274 -1203 995 -1152 
Q 717 -1101 512 -1030 
L 621 -512 
Q 800 -582 1059 -636 
Q 1318 -691 1600 -691 
Q 2131 -691 2364 -480 
Q 2598 -269 2598 192 
L 2598 333 
z
M 2592 2803 
Q 2502 2829 2352 2851 
Q 2202 2874 1946 2874 
Q 1466 2874 1206 2560 
Q 947 2246 947 1728 
Q 947 1440 1020 1235 
Q 1094 1030 1219 896 
Q 1344 762 1507 698 
Q 1670 634 1843 634 
Q 2080 634 2278 701 
Q 2477 768 2592 858 
L 2592 2803 
z
" transform="scale(0.015625)"/>
       <path id="Ubuntu-29" d="M 979 1914 
Q 979 2733 742 3430 
Q 506 4128 45 4723 
L 467 5011 
Q 966 4403 1270 3612 
Q 1574 2822 1574 1914 
Q 1574 1005 1270 214 
Q 966 -576 467 -1184 
L 45 -896 
Q 506 -301 742 396 
Q 979 1094 979 1914 
z
" transform="scale(0.015625)"/>
      </defs>
      <use xlink:href="#Ubuntu-52"/>
      <use xlink:href="#Ubuntu-65" x="62.899994"/>
      <use xlink:href="#Ubuntu-73" x="118.799988"/>
      <use xlink:href="#Ubuntu-69" x="163.399979"/>
      <use xlink:href="#Ubuntu-64" x="188.699966"/>
      <use xlink:href="#Ubuntu-75" x="247.59996"/>
      <use xlink:href="#Ubuntu-61" x="304.999954"/>
      <use xlink:href="#Ubuntu-6c" x="357.199951"/>
      <use xlink:href="#Ubuntu-73" x="384.499939"/>
      <use xlink:href="#Ubuntu-20" x="429.09993"/>
      <use xlink:href="#Ubuntu-28" x="452.199921"/>
      <use xlink:href="#Ubuntu-6f" x="484.599915"/>
      <use xlink:href="#Ubuntu-72" x="543.599899"/>
      <use xlink:href="#Ubuntu-69" x="582.19989"/>
      <use xlink:href="#Ubuntu-67" x="607.499878"/>
      <use xlink:href="#Ubuntu-69" x="665.299866"/>
      <use xlink:href="#Ubuntu-6e" x="690.599854"/>
      <use xlink:href="#Ubuntu-61" x="747.999847"/>
      <use xlink:href="#Ubuntu-6c" x="800.199844"/>
      <use xlink:href="#Ubuntu-29" x="827.499832"/>
     </g>
    </g>
    <g id="line2d_14">
     <path d="M 266.368438 13.86375 
L 274.368438 13.86375 
L 282.368438 13.86375 
" style="fill: none; stroke: #489079; stroke-width: 1.2; stroke-linecap: square"/>
    </g>
    <g id="text_14">
     <!-- Residuals (trimmed) -->
     <g style="fill: #4b4b4b" transform="translate(288.768438 16.66375) scale(0.08 -0.08)">
      <use xlink:href="#Ubuntu-52"/>
      <use xlink:href="#Ubuntu-65" x="62.899994"/>
      <use xlink:href="#Ubuntu-73" x="118.799988"/>
      <use xlink:href="#Ubuntu-69" x="163.399979"/>
      <use xlink:href="#Ubuntu-64" x="188.699966"/>
      <use xlink:href="#Ubuntu-75" x="247.59996"/>
      <use xlink:href="#Ubuntu-61" x="304.999954"/>
      <use xlink:href="#Ubuntu-6c" x="357.199951"/>
      <use xlink:href="#Ubuntu-73" x="384.499939"/>
      <use xlink:href="#Ubuntu-20" x="429.09993"/>
      <use xlink:href="#Ubuntu-28" x="452.199921"/>
      <use xlink:href="#Ubuntu-74" x="484.599915"/>
      <use xlink:href="#Ubuntu-72" x="524.799911"/>
      <use xlink:href="#Ubuntu-69" x="563.399902"/>
      <use xlink:href="#Ubuntu-6d" x="588.69989"/>
      <use xlink:href="#Ubuntu-6d" x="674.799881"/>
      <use xlink:href="#Ubuntu-65" x="760.899872"/>
      <use xlink:href="#Ubuntu-64" x="816.799866"/>
      <use xlink:href="#Ubuntu-29" x="875.69986"/>
     </g>
    </g>
   </g>
  </g>
 </g>
 <defs>
  <clipPath id="p3159e8dbc7">
   <rect x="42.360938" y="25.3675" width="446.4" height="138.6"/>
  </clipPath>
 </defs>
</svg>
