<?xml version="1.0" encoding="utf-8" standalone="no"?>
<!DOCTYPE svg PUBLIC "-//W3C//DTD SVG 1.1//EN"
  "http://www.w3.org/Graphics/SVG/1.1/DTD/svg11.dtd">
<svg xmlns:xlink="http://www.w3.org/1999/xlink" width="448.653437pt" height="212.113438pt" viewBox="0 0 448.653437 212.113438" xmlns="http://www.w3.org/2000/svg" version="1.1">
 <metadata>
  <rdf:RDF xmlns:dc="http://purl.org/dc/elements/1.1/" xmlns:cc="http://creativecommons.org/ns#" xmlns:rdf="http://www.w3.org/1999/02/22-rdf-syntax-ns#">
   <cc:Work>
    <dc:type rdf:resource="http://purl.org/dc/dcmitype/StillImage"/>
    <dc:date>2024-02-20T10:39:06.510592</dc:date>
    <dc:format>image/svg+xml</dc:format>
    <dc:creator>
     <cc:Agent>
      <dc:title>Matplotlib v3.8.0, https://matplotlib.org/</dc:title>
     </cc:Agent>
    </dc:creator>
   </cc:Work>
  </rdf:RDF>
 </metadata>
 <defs>
  <style type="text/css">*{stroke-linejoin: round; stroke-linecap: butt}</style>
 </defs>
 <g id="figure_1">
  <g id="patch_1">
   <path d="M 0 212.113438 
L 448.653437 212.113438 
L 448.653437 0 
L 0 0 
L 0 212.113438 
z
" style="fill: none"/>
  </g>
  <g id="axes_1">
   <g id="patch_2">
    <path d="M 50.853438 161.9875 
L 441.453438 161.9875 
L 441.453438 23.3875 
L 50.853438 23.3875 
L 50.853438 161.9875 
z
" style="fill: none"/>
   </g>
   <g id="matplotlib.axis_1">
    <g id="xtick_1">
     <g id="line2d_1">
      <defs>
       <path id="m6855502b93" d="M 0 0 
L 0 3 
" style="stroke: #bbbbbb; stroke-width: 0.75"/>
      </defs>
      <g>
       <use xlink:href="#m6855502b93" x="57.58792" y="173.9875" style="fill: #bbbbbb; stroke: #bbbbbb; stroke-width: 0.75"/>
      </g>
     </g>
     <g id="text_1">
      <!-- -7 -->
      <g style="fill: #9f9f9f" transform="translate(54.13542 186.695) scale(0.08 -0.08)">
       <defs>
        <path id="Ubuntu-2d" d="M 166 2195 
L 1747 2195 
L 1747 1638 
L 166 1638 
L 166 2195 
z
" transform="scale(0.015625)"/>
        <path id="Ubuntu-37" d="M 1043 0 
Q 1082 512 1226 1078 
Q 1370 1645 1581 2179 
Q 1792 2714 2045 3171 
Q 2298 3629 2541 3917 
L 384 3917 
L 384 4435 
L 3206 4435 
L 3206 3942 
Q 2995 3699 2739 3273 
Q 2483 2848 2256 2320 
Q 2029 1792 1865 1193 
Q 1702 595 1664 0 
L 1043 0 
z
" transform="scale(0.015625)"/>
       </defs>
       <use xlink:href="#Ubuntu-2d"/>
       <use xlink:href="#Ubuntu-37" x="29.899994"/>
      </g>
     </g>
    </g>
    <g id="xtick_2">
     <g id="line2d_2">
      <g>
       <use xlink:href="#m6855502b93" x="84.525851" y="173.9875" style="fill: #bbbbbb; stroke: #bbbbbb; stroke-width: 0.75"/>
      </g>
     </g>
     <g id="text_2">
      <!-- -6 -->
      <g style="fill: #9f9f9f" transform="translate(81.073351 186.695) scale(0.08 -0.08)">
       <defs>
        <path id="Ubuntu-36" d="M 403 1779 
Q 403 2426 582 2922 
Q 762 3418 1091 3757 
Q 1421 4096 1891 4272 
Q 2362 4448 2950 4454 
L 2995 3955 
Q 2618 3949 2307 3872 
Q 1997 3795 1753 3628 
Q 1510 3462 1344 3196 
Q 1178 2931 1094 2541 
Q 1261 2618 1469 2669 
Q 1677 2720 1901 2720 
Q 2278 2720 2540 2605 
Q 2803 2490 2969 2301 
Q 3136 2112 3209 1865 
Q 3283 1619 3283 1350 
Q 3283 1107 3200 851 
Q 3117 595 2947 384 
Q 2778 173 2515 38 
Q 2253 -96 1894 -96 
Q 1165 -96 784 403 
Q 403 902 403 1779 
z
M 1837 2234 
Q 1613 2234 1421 2192 
Q 1229 2150 1037 2067 
Q 1030 1997 1027 1923 
Q 1024 1850 1024 1779 
Q 1024 1498 1062 1248 
Q 1101 998 1200 809 
Q 1299 621 1465 509 
Q 1632 397 1888 397 
Q 2099 397 2246 486 
Q 2394 576 2490 717 
Q 2586 858 2627 1021 
Q 2669 1184 2669 1338 
Q 2669 1773 2461 2003 
Q 2253 2234 1837 2234 
z
" transform="scale(0.015625)"/>
       </defs>
       <use xlink:href="#Ubuntu-2d"/>
       <use xlink:href="#Ubuntu-36" x="29.899994"/>
      </g>
     </g>
    </g>
    <g id="xtick_3">
     <g id="line2d_3">
      <g>
       <use xlink:href="#m6855502b93" x="111.463782" y="173.9875" style="fill: #bbbbbb; stroke: #bbbbbb; stroke-width: 0.75"/>
      </g>
     </g>
     <g id="text_3">
      <!-- -5 -->
      <g style="fill: #9f9f9f" transform="translate(108.011282 186.695) scale(0.08 -0.08)">
       <defs>
        <path id="Ubuntu-35" d="M 1274 2726 
Q 2240 2688 2691 2304 
Q 3142 1920 3142 1261 
Q 3142 966 3043 716 
Q 2944 467 2742 288 
Q 2541 109 2233 6 
Q 1926 -96 1504 -96 
Q 1338 -96 1165 -70 
Q 992 -45 845 -6 
Q 698 32 582 70 
Q 467 109 416 134 
L 531 653 
Q 640 602 886 518 
Q 1133 435 1491 435 
Q 1779 435 1974 499 
Q 2170 563 2291 672 
Q 2413 781 2467 925 
Q 2522 1069 2522 1229 
Q 2522 1472 2438 1661 
Q 2355 1850 2144 1978 
Q 1933 2106 1581 2173 
Q 1229 2240 691 2240 
Q 730 2554 752 2829 
Q 774 3104 793 3366 
Q 813 3629 825 3888 
Q 838 4147 851 4435 
L 2989 4435 
L 2989 3930 
L 1370 3930 
Q 1363 3834 1350 3670 
Q 1338 3507 1325 3331 
Q 1312 3155 1299 2988 
Q 1286 2822 1274 2726 
z
" transform="scale(0.015625)"/>
       </defs>
       <use xlink:href="#Ubuntu-2d"/>
       <use xlink:href="#Ubuntu-35" x="29.899994"/>
      </g>
     </g>
    </g>
    <g id="xtick_4">
     <g id="line2d_4">
      <g>
       <use xlink:href="#m6855502b93" x="138.401713" y="173.9875" style="fill: #bbbbbb; stroke: #bbbbbb; stroke-width: 0.75"/>
      </g>
     </g>
     <g id="text_4">
      <!-- -4 -->
      <g style="fill: #9f9f9f" transform="translate(134.949213 186.695) scale(0.08 -0.08)">
       <defs>
        <path id="Ubuntu-34" d="M 256 1536 
Q 378 1818 589 2192 
Q 800 2566 1065 2963 
Q 1331 3360 1635 3744 
Q 1939 4128 2246 4435 
L 2816 4435 
L 2816 1619 
L 3341 1619 
L 3341 1133 
L 2816 1133 
L 2816 0 
L 2240 0 
L 2240 1133 
L 256 1133 
L 256 1536 
z
M 2240 3731 
Q 2048 3526 1853 3273 
Q 1658 3021 1472 2745 
Q 1286 2470 1123 2182 
Q 960 1894 832 1619 
L 2240 1619 
L 2240 3731 
z
" transform="scale(0.015625)"/>
       </defs>
       <use xlink:href="#Ubuntu-2d"/>
       <use xlink:href="#Ubuntu-34" x="29.899994"/>
      </g>
     </g>
    </g>
    <g id="xtick_5">
     <g id="line2d_5">
      <g>
       <use xlink:href="#m6855502b93" x="165.339644" y="173.9875" style="fill: #bbbbbb; stroke: #bbbbbb; stroke-width: 0.75"/>
      </g>
     </g>
     <g id="text_5">
      <!-- -3 -->
      <g style="fill: #9f9f9f" transform="translate(161.887144 186.695) scale(0.08 -0.08)">
       <defs>
        <path id="Ubuntu-33" d="M 1446 435 
Q 2016 435 2262 659 
Q 2509 883 2509 1261 
Q 2509 1504 2406 1670 
Q 2304 1837 2137 1936 
Q 1971 2035 1750 2076 
Q 1530 2118 1299 2118 
L 1146 2118 
L 1146 2605 
L 1357 2605 
Q 1517 2605 1686 2637 
Q 1856 2669 1997 2752 
Q 2138 2835 2227 2979 
Q 2317 3123 2317 3341 
Q 2317 3520 2253 3648 
Q 2189 3776 2083 3859 
Q 1978 3942 1840 3977 
Q 1702 4013 1549 4013 
Q 1242 4013 1027 3923 
Q 813 3834 666 3738 
L 435 4192 
Q 512 4243 630 4304 
Q 749 4365 896 4416 
Q 1043 4467 1212 4502 
Q 1382 4538 1568 4538 
Q 1920 4538 2176 4451 
Q 2432 4365 2598 4208 
Q 2765 4051 2848 3836 
Q 2931 3622 2931 3373 
Q 2931 3027 2732 2780 
Q 2534 2534 2253 2406 
Q 2426 2355 2586 2259 
Q 2746 2163 2864 2016 
Q 2982 1869 3056 1677 
Q 3130 1485 3130 1248 
Q 3130 960 3030 713 
Q 2931 467 2723 288 
Q 2515 109 2201 6 
Q 1888 -96 1459 -96 
Q 1293 -96 1117 -70 
Q 941 -45 787 -6 
Q 634 32 518 70 
Q 403 109 352 134 
L 467 653 
Q 576 602 829 518 
Q 1082 435 1446 435 
z
" transform="scale(0.015625)"/>
       </defs>
       <use xlink:href="#Ubuntu-2d"/>
       <use xlink:href="#Ubuntu-33" x="29.899994"/>
      </g>
     </g>
    </g>
    <g id="xtick_6">
     <g id="line2d_6">
      <g>
       <use xlink:href="#m6855502b93" x="192.277575" y="173.9875" style="fill: #bbbbbb; stroke: #bbbbbb; stroke-width: 0.75"/>
      </g>
     </g>
     <g id="text_6">
      <!-- -2 -->
      <g style="fill: #9f9f9f" transform="translate(188.825075 186.695) scale(0.08 -0.08)">
       <defs>
        <path id="Ubuntu-32" d="M 2989 3302 
Q 2989 3072 2896 2857 
Q 2803 2643 2649 2435 
Q 2496 2227 2304 2025 
Q 2112 1824 1920 1632 
Q 1811 1523 1667 1376 
Q 1523 1229 1395 1069 
Q 1267 909 1180 761 
Q 1094 614 1094 506 
L 3136 506 
L 3136 0 
L 448 0 
Q 442 38 442 76 
Q 442 115 442 147 
Q 442 448 541 707 
Q 640 966 800 1196 
Q 960 1427 1158 1632 
Q 1357 1837 1549 2029 
Q 1709 2182 1853 2332 
Q 1997 2483 2109 2633 
Q 2221 2784 2288 2944 
Q 2355 3104 2355 3283 
Q 2355 3475 2294 3609 
Q 2234 3744 2131 3833 
Q 2029 3923 1891 3964 
Q 1754 4006 1600 4006 
Q 1414 4006 1260 3955 
Q 1107 3904 985 3837 
Q 864 3770 781 3696 
Q 698 3622 653 3584 
L 358 4006 
Q 416 4070 531 4163 
Q 646 4256 806 4339 
Q 966 4422 1164 4480 
Q 1363 4538 1594 4538 
Q 2291 4538 2640 4214 
Q 2989 3891 2989 3302 
z
" transform="scale(0.015625)"/>
       </defs>
       <use xlink:href="#Ubuntu-2d"/>
       <use xlink:href="#Ubuntu-32" x="29.899994"/>
      </g>
     </g>
    </g>
    <g id="xtick_7">
     <g id="line2d_7">
      <g>
       <use xlink:href="#m6855502b93" x="219.215506" y="173.9875" style="fill: #bbbbbb; stroke: #bbbbbb; stroke-width: 0.75"/>
      </g>
     </g>
     <g id="text_7">
      <!-- -1 -->
      <g style="fill: #9f9f9f" transform="translate(215.763006 186.695) scale(0.08 -0.08)">
       <defs>
        <path id="Ubuntu-31" d="M 595 3520 
Q 960 3661 1305 3881 
Q 1651 4102 1939 4435 
L 2362 4435 
L 2362 0 
L 1766 0 
L 1766 3610 
Q 1690 3539 1578 3462 
Q 1466 3386 1334 3315 
Q 1203 3245 1059 3181 
Q 915 3117 781 3072 
L 595 3520 
z
" transform="scale(0.015625)"/>
       </defs>
       <use xlink:href="#Ubuntu-2d"/>
       <use xlink:href="#Ubuntu-31" x="29.899994"/>
      </g>
     </g>
    </g>
    <g id="xtick_8">
     <g id="line2d_8">
      <g>
       <use xlink:href="#m6855502b93" x="246.153438" y="173.9875" style="fill: #bbbbbb; stroke: #bbbbbb; stroke-width: 0.75"/>
      </g>
     </g>
     <g id="text_8">
      <!-- 0 -->
      <g style="fill: #9f9f9f" transform="translate(243.897188 186.695) scale(0.08 -0.08)">
       <defs>
        <path id="Ubuntu-30" d="M 320 2221 
Q 320 3334 713 3936 
Q 1107 4538 1805 4538 
Q 2502 4538 2896 3936 
Q 3290 3334 3290 2221 
Q 3290 1107 2896 505 
Q 2502 -96 1805 -96 
Q 1107 -96 713 505 
Q 320 1107 320 2221 
z
M 2662 2221 
Q 2662 2586 2620 2912 
Q 2579 3238 2480 3481 
Q 2381 3725 2214 3869 
Q 2048 4013 1805 4013 
Q 1562 4013 1395 3869 
Q 1229 3725 1129 3481 
Q 1030 3238 988 2912 
Q 947 2586 947 2221 
Q 947 1856 988 1529 
Q 1030 1203 1129 960 
Q 1229 717 1395 573 
Q 1562 429 1805 429 
Q 2048 429 2214 573 
Q 2381 717 2480 960 
Q 2579 1203 2620 1529 
Q 2662 1856 2662 2221 
z
" transform="scale(0.015625)"/>
       </defs>
       <use xlink:href="#Ubuntu-30"/>
      </g>
     </g>
    </g>
    <g id="xtick_9">
     <g id="line2d_9">
      <g>
       <use xlink:href="#m6855502b93" x="273.091369" y="173.9875" style="fill: #bbbbbb; stroke: #bbbbbb; stroke-width: 0.75"/>
      </g>
     </g>
     <g id="text_9">
      <!-- 1 -->
      <g style="fill: #9f9f9f" transform="translate(270.835119 186.695) scale(0.08 -0.08)">
       <use xlink:href="#Ubuntu-31"/>
      </g>
     </g>
    </g>
    <g id="xtick_10">
     <g id="line2d_10">
      <g>
       <use xlink:href="#m6855502b93" x="300.0293" y="173.9875" style="fill: #bbbbbb; stroke: #bbbbbb; stroke-width: 0.75"/>
      </g>
     </g>
     <g id="text_10">
      <!-- 2 -->
      <g style="fill: #9f9f9f" transform="translate(297.77305 186.695) scale(0.08 -0.08)">
       <use xlink:href="#Ubuntu-32"/>
      </g>
     </g>
    </g>
    <g id="xtick_11">
     <g id="line2d_11">
      <g>
       <use xlink:href="#m6855502b93" x="326.967231" y="173.9875" style="fill: #bbbbbb; stroke: #bbbbbb; stroke-width: 0.75"/>
      </g>
     </g>
     <g id="text_11">
      <!-- 3 -->
      <g style="fill: #9f9f9f" transform="translate(324.710981 186.695) scale(0.08 -0.08)">
       <use xlink:href="#Ubuntu-33"/>
      </g>
     </g>
    </g>
    <g id="xtick_12">
     <g id="line2d_12">
      <g>
       <use xlink:href="#m6855502b93" x="353.905162" y="173.9875" style="fill: #bbbbbb; stroke: #bbbbbb; stroke-width: 0.75"/>
      </g>
     </g>
     <g id="text_12">
      <!-- 4 -->
      <g style="fill: #9f9f9f" transform="translate(351.648912 186.695) scale(0.08 -0.08)">
       <use xlink:href="#Ubuntu-34"/>
      </g>
     </g>
    </g>
    <g id="xtick_13">
     <g id="line2d_13">
      <g>
       <use xlink:href="#m6855502b93" x="380.843093" y="173.9875" style="fill: #bbbbbb; stroke: #bbbbbb; stroke-width: 0.75"/>
      </g>
     </g>
     <g id="text_13">
      <!-- 5 -->
      <g style="fill: #9f9f9f" transform="translate(378.586843 186.695) scale(0.08 -0.08)">
       <use xlink:href="#Ubuntu-35"/>
      </g>
     </g>
    </g>
    <g id="xtick_14">
     <g id="line2d_14">
      <g>
       <use xlink:href="#m6855502b93" x="407.781024" y="173.9875" style="fill: #bbbbbb; stroke: #bbbbbb; stroke-width: 0.75"/>
      </g>
     </g>
     <g id="text_14">
      <!-- 6 -->
      <g style="fill: #9f9f9f" transform="translate(405.524774 186.695) scale(0.08 -0.08)">
       <use xlink:href="#Ubuntu-36"/>
      </g>
     </g>
    </g>
    <g id="xtick_15">
     <g id="line2d_15">
      <g>
       <use xlink:href="#m6855502b93" x="434.718955" y="173.9875" style="fill: #bbbbbb; stroke: #bbbbbb; stroke-width: 0.75"/>
      </g>
     </g>
     <g id="text_15">
      <!-- 7 -->
      <g style="fill: #9f9f9f" transform="translate(432.462705 186.695) scale(0.08 -0.08)">
       <use xlink:href="#Ubuntu-37"/>
      </g>
     </g>
    </g>
    <g id="text_16">
     <!-- log(ALPHA) -->
     <g style="fill: #505050" transform="translate(50.853438 203.221719) scale(0.09 -0.09)">
      <defs>
       <path id="Ubuntu-Bold-6c" d="M 1792 -64 
Q 1376 -58 1117 25 
Q 858 109 707 259 
Q 557 410 502 624 
Q 448 838 448 1107 
L 448 4813 
L 1402 4966 
L 1402 1299 
Q 1402 1171 1421 1068 
Q 1440 966 1494 896 
Q 1549 826 1651 781 
Q 1754 736 1926 723 
L 1792 -64 
z
" transform="scale(0.015625)"/>
       <path id="Ubuntu-Bold-6f" d="M 3597 1690 
Q 3597 1293 3481 963 
Q 3366 634 3148 400 
Q 2931 166 2627 38 
Q 2323 -90 1946 -90 
Q 1574 -90 1270 38 
Q 966 166 748 400 
Q 531 634 409 963 
Q 288 1293 288 1690 
Q 288 2086 413 2412 
Q 538 2739 758 2969 
Q 979 3200 1283 3328 
Q 1587 3456 1946 3456 
Q 2310 3456 2614 3328 
Q 2918 3200 3136 2969 
Q 3354 2739 3475 2412 
Q 3597 2086 3597 1690 
z
M 2624 1690 
Q 2624 2131 2448 2384 
Q 2272 2637 1946 2637 
Q 1619 2637 1440 2384 
Q 1261 2131 1261 1690 
Q 1261 1248 1440 989 
Q 1619 730 1946 730 
Q 2272 730 2448 989 
Q 2624 1248 2624 1690 
z
" transform="scale(0.015625)"/>
       <path id="Ubuntu-Bold-67" d="M 1261 1792 
Q 1261 992 1907 992 
Q 2054 992 2182 1030 
Q 2310 1069 2400 1120 
L 2400 2643 
Q 2330 2656 2234 2665 
Q 2138 2675 2010 2675 
Q 1632 2675 1446 2425 
Q 1261 2176 1261 1792 
z
M 3354 422 
Q 3354 -403 2934 -803 
Q 2515 -1203 1638 -1203 
Q 1331 -1203 1024 -1148 
Q 717 -1094 454 -1005 
L 621 -205 
Q 845 -294 1091 -345 
Q 1338 -397 1651 -397 
Q 2061 -397 2230 -217 
Q 2400 -38 2400 243 
L 2400 365 
Q 2246 294 2083 259 
Q 1920 224 1728 224 
Q 1030 224 659 637 
Q 288 1050 288 1792 
Q 288 2163 403 2467 
Q 518 2771 739 2988 
Q 960 3206 1280 3324 
Q 1600 3443 2003 3443 
Q 2176 3443 2358 3427 
Q 2541 3411 2720 3385 
Q 2899 3360 3062 3325 
Q 3226 3290 3354 3251 
L 3354 422 
z
" transform="scale(0.015625)"/>
       <path id="Ubuntu-Bold-28" d="M 1389 1914 
Q 1389 1158 1625 473 
Q 1862 -211 2246 -755 
L 1581 -1184 
Q 1037 -550 742 237 
Q 448 1024 448 1914 
Q 448 2803 742 3590 
Q 1037 4378 1581 5011 
L 2246 4582 
Q 1862 4038 1625 3353 
Q 1389 2669 1389 1914 
z
" transform="scale(0.015625)"/>
       <path id="Ubuntu-Bold-41" d="M 3482 0 
Q 3411 230 3324 473 
Q 3238 717 3155 960 
L 1427 960 
Q 1344 717 1257 473 
Q 1171 230 1101 0 
L 64 0 
Q 314 717 538 1325 
Q 762 1933 976 2470 
Q 1190 3008 1398 3491 
Q 1606 3974 1830 4435 
L 2784 4435 
Q 3002 3974 3213 3491 
Q 3424 3008 3638 2470 
Q 3853 1933 4077 1325 
Q 4301 717 4550 0 
L 3482 0 
z
M 2285 3430 
Q 2253 3334 2189 3168 
Q 2125 3002 2041 2784 
Q 1958 2566 1859 2304 
Q 1760 2042 1658 1754 
L 2918 1754 
Q 2816 2042 2720 2304 
Q 2624 2566 2537 2784 
Q 2451 3002 2387 3168 
Q 2323 3334 2285 3430 
z
" transform="scale(0.015625)"/>
       <path id="Ubuntu-Bold-4c" d="M 3475 858 
L 3475 0 
L 512 0 
L 512 4435 
L 1510 4435 
L 1510 858 
L 3475 858 
z
" transform="scale(0.015625)"/>
       <path id="Ubuntu-Bold-50" d="M 1843 4486 
Q 2835 4486 3366 4137 
Q 3898 3789 3898 2995 
Q 3898 2195 3360 1840 
Q 2822 1485 1824 1485 
L 1510 1485 
L 1510 0 
L 512 0 
L 512 4371 
Q 838 4435 1203 4460 
Q 1568 4486 1843 4486 
z
M 1907 3635 
Q 1798 3635 1692 3628 
Q 1587 3622 1510 3616 
L 1510 2336 
L 1824 2336 
Q 2342 2336 2604 2477 
Q 2867 2618 2867 3002 
Q 2867 3187 2800 3308 
Q 2733 3430 2608 3504 
Q 2483 3578 2304 3606 
Q 2125 3635 1907 3635 
z
" transform="scale(0.015625)"/>
       <path id="Ubuntu-Bold-48" d="M 3187 4435 
L 4186 4435 
L 4186 0 
L 3187 0 
L 3187 1882 
L 1510 1882 
L 1510 0 
L 512 0 
L 512 4435 
L 1510 4435 
L 1510 2739 
L 3187 2739 
L 3187 4435 
z
" transform="scale(0.015625)"/>
       <path id="Ubuntu-Bold-29" d="M 890 1914 
Q 890 2669 653 3353 
Q 416 4038 32 4582 
L 698 5011 
Q 1242 4378 1536 3590 
Q 1830 2803 1830 1914 
Q 1830 1024 1536 237 
Q 1242 -550 698 -1184 
L 32 -755 
Q 416 -211 653 473 
Q 890 1158 890 1914 
z
" transform="scale(0.015625)"/>
      </defs>
      <use xlink:href="#Ubuntu-Bold-6c"/>
      <use xlink:href="#Ubuntu-Bold-6f" x="31.599991"/>
      <use xlink:href="#Ubuntu-Bold-67" x="92.299988"/>
      <use xlink:href="#Ubuntu-Bold-28" x="151.699982"/>
      <use xlink:href="#Ubuntu-Bold-41" x="187.299973"/>
      <use xlink:href="#Ubuntu-Bold-4c" x="259.399963"/>
      <use xlink:href="#Ubuntu-Bold-50" x="315.699951"/>
      <use xlink:href="#Ubuntu-Bold-48" x="380.099945"/>
      <use xlink:href="#Ubuntu-Bold-41" x="453.499939"/>
      <use xlink:href="#Ubuntu-Bold-29" x="525.59993"/>
     </g>
    </g>
   </g>
   <g id="matplotlib.axis_2">
    <g id="ytick_1">
     <g id="line2d_16">
      <defs>
       <path id="m8349107034" d="M 0 0 
L -3 0 
" style="stroke: #bbbbbb; stroke-width: 0.75"/>
      </defs>
      <g>
       <use xlink:href="#m8349107034" x="45.853438" y="161.9875" style="fill: #bbbbbb; stroke: #bbbbbb; stroke-width: 0.75"/>
      </g>
     </g>
     <g id="text_17">
      <!-- 0.05 -->
      <g style="fill: #9f9f9f" transform="translate(23.848438 165.09125) scale(0.08 -0.08)">
       <defs>
        <path id="Ubuntu-2e" d="M 1216 346 
Q 1216 173 1101 45 
Q 986 -83 787 -83 
Q 589 -83 473 45 
Q 358 173 358 346 
Q 358 518 473 646 
Q 589 774 787 774 
Q 986 774 1101 646 
Q 1216 518 1216 346 
z
" transform="scale(0.015625)"/>
       </defs>
       <use xlink:href="#Ubuntu-30"/>
       <use xlink:href="#Ubuntu-2e" x="56.399994"/>
       <use xlink:href="#Ubuntu-30" x="80.999985"/>
       <use xlink:href="#Ubuntu-35" x="137.399979"/>
      </g>
     </g>
    </g>
    <g id="ytick_2">
     <g id="line2d_17">
      <g>
       <use xlink:href="#m8349107034" x="45.853438" y="142.1875" style="fill: #bbbbbb; stroke: #bbbbbb; stroke-width: 0.75"/>
      </g>
     </g>
     <g id="text_18">
      <!-- 0.10 -->
      <g style="fill: #9f9f9f" transform="translate(23.848438 145.29125) scale(0.08 -0.08)">
       <use xlink:href="#Ubuntu-30"/>
       <use xlink:href="#Ubuntu-2e" x="56.399994"/>
       <use xlink:href="#Ubuntu-31" x="80.999985"/>
       <use xlink:href="#Ubuntu-30" x="137.399979"/>
      </g>
     </g>
    </g>
    <g id="ytick_3">
     <g id="line2d_18">
      <g>
       <use xlink:href="#m8349107034" x="45.853438" y="122.3875" style="fill: #bbbbbb; stroke: #bbbbbb; stroke-width: 0.75"/>
      </g>
     </g>
     <g id="text_19">
      <!-- 0.15 -->
      <g style="fill: #9f9f9f" transform="translate(23.848438 125.49125) scale(0.08 -0.08)">
       <use xlink:href="#Ubuntu-30"/>
       <use xlink:href="#Ubuntu-2e" x="56.399994"/>
       <use xlink:href="#Ubuntu-31" x="80.999985"/>
       <use xlink:href="#Ubuntu-35" x="137.399979"/>
      </g>
     </g>
    </g>
    <g id="ytick_4">
     <g id="line2d_19">
      <g>
       <use xlink:href="#m8349107034" x="45.853438" y="102.5875" style="fill: #bbbbbb; stroke: #bbbbbb; stroke-width: 0.75"/>
      </g>
     </g>
     <g id="text_20">
      <!-- 0.20 -->
      <g style="fill: #9f9f9f" transform="translate(23.848438 105.69125) scale(0.08 -0.08)">
       <use xlink:href="#Ubuntu-30"/>
       <use xlink:href="#Ubuntu-2e" x="56.399994"/>
       <use xlink:href="#Ubuntu-32" x="80.999985"/>
       <use xlink:href="#Ubuntu-30" x="137.399979"/>
      </g>
     </g>
    </g>
    <g id="ytick_5">
     <g id="line2d_20">
      <g>
       <use xlink:href="#m8349107034" x="45.853438" y="82.7875" style="fill: #bbbbbb; stroke: #bbbbbb; stroke-width: 0.75"/>
      </g>
     </g>
     <g id="text_21">
      <!-- 0.25 -->
      <g style="fill: #9f9f9f" transform="translate(23.848438 85.89125) scale(0.08 -0.08)">
       <use xlink:href="#Ubuntu-30"/>
       <use xlink:href="#Ubuntu-2e" x="56.399994"/>
       <use xlink:href="#Ubuntu-32" x="80.999985"/>
       <use xlink:href="#Ubuntu-35" x="137.399979"/>
      </g>
     </g>
    </g>
    <g id="ytick_6">
     <g id="line2d_21">
      <g>
       <use xlink:href="#m8349107034" x="45.853438" y="62.9875" style="fill: #bbbbbb; stroke: #bbbbbb; stroke-width: 0.75"/>
      </g>
     </g>
     <g id="text_22">
      <!-- 0.30 -->
      <g style="fill: #9f9f9f" transform="translate(23.848438 66.09125) scale(0.08 -0.08)">
       <use xlink:href="#Ubuntu-30"/>
       <use xlink:href="#Ubuntu-2e" x="56.399994"/>
       <use xlink:href="#Ubuntu-33" x="80.999985"/>
       <use xlink:href="#Ubuntu-30" x="137.399979"/>
      </g>
     </g>
    </g>
    <g id="ytick_7">
     <g id="line2d_22">
      <g>
       <use xlink:href="#m8349107034" x="45.853438" y="43.1875" style="fill: #bbbbbb; stroke: #bbbbbb; stroke-width: 0.75"/>
      </g>
     </g>
     <g id="text_23">
      <!-- 0.35 -->
      <g style="fill: #9f9f9f" transform="translate(23.848438 46.29125) scale(0.08 -0.08)">
       <use xlink:href="#Ubuntu-30"/>
       <use xlink:href="#Ubuntu-2e" x="56.399994"/>
       <use xlink:href="#Ubuntu-33" x="80.999985"/>
       <use xlink:href="#Ubuntu-35" x="137.399979"/>
      </g>
     </g>
    </g>
    <g id="ytick_8">
     <g id="line2d_23">
      <g>
       <use xlink:href="#m8349107034" x="45.853438" y="23.3875" style="fill: #bbbbbb; stroke: #bbbbbb; stroke-width: 0.75"/>
      </g>
     </g>
     <g id="text_24">
      <!-- 0.40 -->
      <g style="fill: #9f9f9f" transform="translate(23.848438 26.49125) scale(0.08 -0.08)">
       <use xlink:href="#Ubuntu-30"/>
       <use xlink:href="#Ubuntu-2e" x="56.399994"/>
       <use xlink:href="#Ubuntu-34" x="80.999985"/>
       <use xlink:href="#Ubuntu-30" x="137.399979"/>
      </g>
     </g>
    </g>
    <g id="text_25">
     <!-- RMSE -->
     <g style="fill: #505050" transform="translate(14.183438 48.155781) rotate(-90) scale(0.09 -0.09)">
      <defs>
       <path id="Ubuntu-Bold-52" d="M 1811 4486 
Q 2810 4486 3341 4131 
Q 3872 3776 3872 3027 
Q 3872 2560 3657 2269 
Q 3443 1978 3040 1811 
Q 3174 1645 3321 1430 
Q 3469 1216 3613 982 
Q 3757 749 3891 496 
Q 4026 243 4141 0 
L 3021 0 
Q 2899 218 2774 442 
Q 2650 666 2518 877 
Q 2387 1088 2259 1277 
Q 2131 1466 2003 1619 
L 1510 1619 
L 1510 0 
L 512 0 
L 512 4371 
Q 838 4435 1187 4460 
Q 1536 4486 1811 4486 
z
M 1869 3635 
Q 1760 3635 1673 3628 
Q 1587 3622 1510 3616 
L 1510 2413 
L 1792 2413 
Q 2355 2413 2598 2553 
Q 2842 2694 2842 3034 
Q 2842 3360 2595 3497 
Q 2349 3635 1869 3635 
z
" transform="scale(0.015625)"/>
       <path id="Ubuntu-Bold-4d" d="M 1690 4435 
Q 1805 4224 1955 3913 
Q 2106 3603 2269 3241 
Q 2432 2880 2592 2502 
Q 2752 2125 2893 1792 
Q 3034 2125 3194 2502 
Q 3354 2880 3517 3241 
Q 3680 3603 3830 3913 
Q 3981 4224 4096 4435 
L 5005 4435 
Q 5069 3994 5123 3446 
Q 5178 2899 5219 2307 
Q 5261 1715 5296 1120 
Q 5331 525 5357 0 
L 4384 0 
Q 4365 646 4333 1408 
Q 4301 2170 4237 2944 
Q 4122 2675 3981 2348 
Q 3840 2022 3702 1696 
Q 3565 1370 3437 1072 
Q 3309 774 3219 563 
L 2522 563 
Q 2432 774 2304 1072 
Q 2176 1370 2038 1696 
Q 1901 2022 1760 2348 
Q 1619 2675 1504 2944 
Q 1440 2170 1408 1408 
Q 1376 646 1357 0 
L 384 0 
Q 410 525 445 1120 
Q 480 1715 521 2307 
Q 563 2899 617 3446 
Q 672 3994 736 4435 
L 1690 4435 
z
" transform="scale(0.015625)"/>
       <path id="Ubuntu-Bold-53" d="M 1722 762 
Q 1933 762 2070 797 
Q 2208 832 2291 893 
Q 2374 954 2406 1037 
Q 2438 1120 2438 1222 
Q 2438 1440 2233 1584 
Q 2029 1728 1530 1894 
Q 1312 1971 1094 2070 
Q 877 2170 704 2320 
Q 531 2470 422 2684 
Q 314 2899 314 3206 
Q 314 3514 429 3760 
Q 544 4006 755 4179 
Q 966 4352 1267 4445 
Q 1568 4538 1946 4538 
Q 2394 4538 2720 4442 
Q 3046 4346 3258 4230 
L 2970 3443 
Q 2784 3539 2557 3612 
Q 2330 3686 2010 3686 
Q 1651 3686 1494 3587 
Q 1338 3488 1338 3283 
Q 1338 3162 1395 3078 
Q 1453 2995 1558 2928 
Q 1664 2861 1801 2806 
Q 1939 2752 2106 2694 
Q 2451 2566 2707 2441 
Q 2963 2317 3132 2150 
Q 3302 1984 3385 1760 
Q 3469 1536 3469 1216 
Q 3469 595 3033 252 
Q 2598 -90 1722 -90 
Q 1427 -90 1190 -54 
Q 954 -19 771 32 
Q 589 83 457 140 
Q 326 198 237 250 
L 518 1043 
Q 717 934 1008 848 
Q 1299 762 1722 762 
z
" transform="scale(0.015625)"/>
       <path id="Ubuntu-Bold-45" d="M 512 0 
L 512 4435 
L 3507 4435 
L 3507 3597 
L 1510 3597 
L 1510 2726 
L 3283 2726 
L 3283 1907 
L 1510 1907 
L 1510 838 
L 3654 838 
L 3654 0 
L 512 0 
z
" transform="scale(0.015625)"/>
      </defs>
      <use xlink:href="#Ubuntu-Bold-52"/>
      <use xlink:href="#Ubuntu-Bold-4d" x="66.699997"/>
      <use xlink:href="#Ubuntu-Bold-53" x="156.399979"/>
      <use xlink:href="#Ubuntu-Bold-45" x="214.599976"/>
     </g>
    </g>
   </g>
   <g id="PathCollection_1">
    <defs>
     <path id="mc66f499bd4" d="M 0 1.581139 
C 0.419323 1.581139 0.821528 1.41454 1.118034 1.118034 
C 1.41454 0.821528 1.581139 0.419323 1.581139 0 
C 1.581139 -0.419323 1.41454 -0.821528 1.118034 -1.118034 
C 0.821528 -1.41454 0.419323 -1.581139 0 -1.581139 
C -0.419323 -1.581139 -0.821528 -1.41454 -1.118034 -1.118034 
C -1.41454 -0.821528 -1.581139 -0.419323 -1.581139 0 
C -1.581139 0.419323 -1.41454 0.821528 -1.118034 1.118034 
C -0.821528 1.41454 -0.419323 1.581139 0 1.581139 
z
"/>
    </defs>
    <g clip-path="url(#p15fbde7d1d)">
     <use xlink:href="#mc66f499bd4" x="60.072802" y="139.697442" style="fill: #5d5d5d; fill-opacity: 0.95"/>
     <use xlink:href="#mc66f499bd4" x="72.905949" y="139.198562" style="fill: #5d5d5d; fill-opacity: 0.95"/>
     <use xlink:href="#mc66f499bd4" x="85.739097" y="138.523085" style="fill: #5d5d5d; fill-opacity: 0.95"/>
     <use xlink:href="#mc66f499bd4" x="98.572244" y="137.911292" style="fill: #5d5d5d; fill-opacity: 0.95"/>
     <use xlink:href="#mc66f499bd4" x="111.405391" y="137.358821" style="fill: #5d5d5d; fill-opacity: 0.95"/>
     <use xlink:href="#mc66f499bd4" x="124.238539" y="136.757132" style="fill: #5d5d5d; fill-opacity: 0.95"/>
     <use xlink:href="#mc66f499bd4" x="137.071686" y="135.675284" style="fill: #5d5d5d; fill-opacity: 0.95"/>
     <use xlink:href="#mc66f499bd4" x="149.904833" y="133.676966" style="fill: #5d5d5d; fill-opacity: 0.95"/>
     <use xlink:href="#mc66f499bd4" x="162.73798" y="130.171417" style="fill: #5d5d5d; fill-opacity: 0.95"/>
     <use xlink:href="#mc66f499bd4" x="175.571128" y="124.303841" style="fill: #5d5d5d; fill-opacity: 0.95"/>
     <use xlink:href="#mc66f499bd4" x="188.404275" y="115.822857" style="fill: #5d5d5d; fill-opacity: 0.95"/>
     <use xlink:href="#mc66f499bd4" x="201.237422" y="103.599072" style="fill: #5d5d5d; fill-opacity: 0.95"/>
     <use xlink:href="#mc66f499bd4" x="214.070569" y="82.821088" style="fill: #5d5d5d; fill-opacity: 0.95"/>
     <use xlink:href="#mc66f499bd4" x="226.903717" y="48.579431" style="fill: #5d5d5d; fill-opacity: 0.95"/>
     <use xlink:href="#mc66f499bd4" x="239.736864" y="25.570765" style="fill: #5d5d5d; fill-opacity: 0.95"/>
     <use xlink:href="#mc66f499bd4" x="252.570011" y="25.570765" style="fill: #5d5d5d; fill-opacity: 0.95"/>
     <use xlink:href="#mc66f499bd4" x="265.403158" y="25.570765" style="fill: #5d5d5d; fill-opacity: 0.95"/>
     <use xlink:href="#mc66f499bd4" x="278.236306" y="25.570765" style="fill: #5d5d5d; fill-opacity: 0.95"/>
     <use xlink:href="#mc66f499bd4" x="291.069453" y="25.570765" style="fill: #5d5d5d; fill-opacity: 0.95"/>
     <use xlink:href="#mc66f499bd4" x="303.9026" y="25.570765" style="fill: #5d5d5d; fill-opacity: 0.95"/>
     <use xlink:href="#mc66f499bd4" x="316.735747" y="25.570765" style="fill: #5d5d5d; fill-opacity: 0.95"/>
     <use xlink:href="#mc66f499bd4" x="329.568895" y="25.570765" style="fill: #5d5d5d; fill-opacity: 0.95"/>
     <use xlink:href="#mc66f499bd4" x="342.402042" y="25.570765" style="fill: #5d5d5d; fill-opacity: 0.95"/>
     <use xlink:href="#mc66f499bd4" x="355.235189" y="25.570765" style="fill: #5d5d5d; fill-opacity: 0.95"/>
     <use xlink:href="#mc66f499bd4" x="368.068336" y="25.570765" style="fill: #5d5d5d; fill-opacity: 0.95"/>
     <use xlink:href="#mc66f499bd4" x="380.901484" y="25.570765" style="fill: #5d5d5d; fill-opacity: 0.95"/>
     <use xlink:href="#mc66f499bd4" x="393.734631" y="25.570765" style="fill: #5d5d5d; fill-opacity: 0.95"/>
     <use xlink:href="#mc66f499bd4" x="406.567778" y="25.570765" style="fill: #5d5d5d; fill-opacity: 0.95"/>
     <use xlink:href="#mc66f499bd4" x="419.400926" y="25.570765" style="fill: #5d5d5d; fill-opacity: 0.95"/>
     <use xlink:href="#mc66f499bd4" x="432.234073" y="25.570765" style="fill: #5d5d5d; fill-opacity: 0.95"/>
    </g>
   </g>
   <g id="patch_3">
    <path d="M 45.853438 161.9875 
L 45.853438 23.3875 
" style="fill: none; stroke: #bbbbbb; stroke-width: 0.75; stroke-linejoin: miter; stroke-linecap: square"/>
   </g>
   <g id="patch_4">
    <path d="M 57.58792 173.9875 
L 434.718955 173.9875 
" style="fill: none; stroke: #bbbbbb; stroke-width: 0.75; stroke-linejoin: miter; stroke-linecap: square"/>
   </g>
  </g>
  <g id="axes_2">
   <g id="matplotlib.axis_3">
    <g id="xtick_16">
     <g id="text_26">
      <!-- 88 -->
      <g style="fill: #9f9f9f" transform="translate(55.560302 13.4075) scale(0.08 -0.08)">
       <defs>
        <path id="Ubuntu-38" d="M 3258 1152 
Q 3258 883 3165 656 
Q 3072 429 2889 259 
Q 2707 90 2432 -3 
Q 2157 -96 1798 -96 
Q 1382 -96 1104 22 
Q 826 141 659 320 
Q 493 499 422 713 
Q 352 928 352 1120 
Q 352 1306 413 1475 
Q 474 1645 573 1792 
Q 672 1939 803 2057 
Q 934 2176 1082 2266 
Q 454 2624 454 3322 
Q 454 3565 550 3785 
Q 646 4006 822 4172 
Q 998 4339 1248 4438 
Q 1498 4538 1805 4538 
Q 2163 4538 2419 4429 
Q 2675 4320 2838 4150 
Q 3002 3981 3075 3776 
Q 3149 3571 3149 3379 
Q 3149 3194 3094 3030 
Q 3040 2867 2947 2726 
Q 2854 2586 2736 2477 
Q 2618 2368 2490 2285 
Q 3245 1926 3258 1152 
z
M 954 1114 
Q 954 998 995 873 
Q 1037 749 1139 643 
Q 1242 538 1402 467 
Q 1562 397 1805 397 
Q 2022 397 2185 461 
Q 2349 525 2451 624 
Q 2554 723 2605 851 
Q 2656 979 2656 1114 
Q 2656 1318 2579 1472 
Q 2502 1626 2358 1741 
Q 2214 1856 2012 1936 
Q 1811 2016 1555 2074 
Q 1267 1914 1110 1677 
Q 954 1440 954 1114 
z
M 2554 3386 
Q 2554 3482 2512 3597 
Q 2470 3712 2380 3811 
Q 2291 3910 2150 3977 
Q 2010 4045 1805 4045 
Q 1600 4045 1456 3981 
Q 1312 3917 1222 3817 
Q 1133 3718 1091 3600 
Q 1050 3482 1050 3366 
Q 1050 3226 1101 3085 
Q 1152 2944 1261 2822 
Q 1370 2701 1546 2605 
Q 1722 2509 1965 2451 
Q 2234 2611 2394 2825 
Q 2554 3040 2554 3386 
z
" transform="scale(0.015625)"/>
       </defs>
       <use xlink:href="#Ubuntu-38"/>
       <use xlink:href="#Ubuntu-38" x="56.399994"/>
      </g>
     </g>
    </g>
    <g id="xtick_17">
     <g id="text_27">
      <!-- 79 -->
      <g style="fill: #9f9f9f" transform="translate(68.393449 13.4075) scale(0.08 -0.08)">
       <defs>
        <path id="Ubuntu-39" d="M 3206 2662 
Q 3206 1344 2550 669 
Q 1894 -6 602 -13 
L 582 486 
Q 986 486 1309 563 
Q 1632 640 1875 809 
Q 2118 979 2281 1248 
Q 2445 1517 2522 1907 
Q 2355 1830 2144 1782 
Q 1933 1734 1709 1734 
Q 1331 1734 1068 1846 
Q 806 1958 640 2147 
Q 474 2336 400 2582 
Q 326 2829 326 3098 
Q 326 3334 409 3590 
Q 493 3846 662 4057 
Q 832 4269 1094 4403 
Q 1357 4538 1715 4538 
Q 2080 4538 2358 4410 
Q 2637 4282 2825 4038 
Q 3014 3795 3110 3446 
Q 3206 3098 3206 2662 
z
M 1773 2221 
Q 1997 2221 2195 2262 
Q 2394 2304 2579 2387 
Q 2586 2458 2586 2525 
Q 2586 2592 2586 2662 
Q 2586 2938 2547 3190 
Q 2509 3443 2409 3632 
Q 2310 3821 2144 3933 
Q 1978 4045 1722 4045 
Q 1510 4045 1363 3955 
Q 1216 3866 1120 3728 
Q 1024 3590 982 3427 
Q 941 3264 941 3110 
Q 941 2675 1149 2448 
Q 1357 2221 1773 2221 
z
" transform="scale(0.015625)"/>
       </defs>
       <use xlink:href="#Ubuntu-37"/>
       <use xlink:href="#Ubuntu-39" x="56.399994"/>
      </g>
     </g>
    </g>
    <g id="xtick_18">
     <g id="text_28">
      <!-- 68 -->
      <g style="fill: #9f9f9f" transform="translate(81.226597 13.4075) scale(0.08 -0.08)">
       <use xlink:href="#Ubuntu-36"/>
       <use xlink:href="#Ubuntu-38" x="56.399994"/>
      </g>
     </g>
    </g>
    <g id="xtick_19">
     <g id="text_29">
      <!-- 59 -->
      <g style="fill: #9f9f9f" transform="translate(94.059744 13.4075) scale(0.08 -0.08)">
       <use xlink:href="#Ubuntu-35"/>
       <use xlink:href="#Ubuntu-39" x="56.399994"/>
      </g>
     </g>
    </g>
    <g id="xtick_20">
     <g id="text_30">
      <!-- 55 -->
      <g style="fill: #9f9f9f" transform="translate(106.892891 13.4075) scale(0.08 -0.08)">
       <use xlink:href="#Ubuntu-35"/>
       <use xlink:href="#Ubuntu-35" x="56.399994"/>
      </g>
     </g>
    </g>
    <g id="xtick_21">
     <g id="text_31">
      <!-- 44 -->
      <g style="fill: #9f9f9f" transform="translate(119.726039 13.4075) scale(0.08 -0.08)">
       <use xlink:href="#Ubuntu-34"/>
       <use xlink:href="#Ubuntu-34" x="56.399994"/>
      </g>
     </g>
    </g>
    <g id="xtick_22">
     <g id="text_32">
      <!-- 38 -->
      <g style="fill: #9f9f9f" transform="translate(132.559186 13.4075) scale(0.08 -0.08)">
       <use xlink:href="#Ubuntu-33"/>
       <use xlink:href="#Ubuntu-38" x="56.399994"/>
      </g>
     </g>
    </g>
    <g id="xtick_23">
     <g id="text_33">
      <!-- 33 -->
      <g style="fill: #9f9f9f" transform="translate(145.392333 13.4075) scale(0.08 -0.08)">
       <use xlink:href="#Ubuntu-33"/>
       <use xlink:href="#Ubuntu-33" x="56.399994"/>
      </g>
     </g>
    </g>
    <g id="xtick_24">
     <g id="text_34">
      <!-- 28 -->
      <g style="fill: #9f9f9f" transform="translate(158.22548 13.4075) scale(0.08 -0.08)">
       <use xlink:href="#Ubuntu-32"/>
       <use xlink:href="#Ubuntu-38" x="56.399994"/>
      </g>
     </g>
    </g>
    <g id="xtick_25">
     <g id="text_35">
      <!-- 24 -->
      <g style="fill: #9f9f9f" transform="translate(171.058628 13.4075) scale(0.08 -0.08)">
       <use xlink:href="#Ubuntu-32"/>
       <use xlink:href="#Ubuntu-34" x="56.399994"/>
      </g>
     </g>
    </g>
    <g id="xtick_26">
     <g id="text_36">
      <!-- 14 -->
      <g style="fill: #9f9f9f" transform="translate(183.891775 13.4075) scale(0.08 -0.08)">
       <use xlink:href="#Ubuntu-31"/>
       <use xlink:href="#Ubuntu-34" x="56.399994"/>
      </g>
     </g>
    </g>
    <g id="xtick_27">
     <g id="text_37">
      <!-- 8 -->
      <g style="fill: #9f9f9f" transform="translate(198.981172 13.4075) scale(0.08 -0.08)">
       <use xlink:href="#Ubuntu-38"/>
      </g>
     </g>
    </g>
    <g id="xtick_28">
     <g id="text_38">
      <!-- 5 -->
      <g style="fill: #9f9f9f" transform="translate(211.814319 13.4075) scale(0.08 -0.08)">
       <use xlink:href="#Ubuntu-35"/>
      </g>
     </g>
    </g>
    <g id="xtick_29">
     <g id="text_39">
      <!-- 3 -->
      <g style="fill: #9f9f9f" transform="translate(224.647467 13.4075) scale(0.08 -0.08)">
       <use xlink:href="#Ubuntu-33"/>
      </g>
     </g>
    </g>
    <g id="xtick_30">
     <g id="text_40">
      <!-- 0 -->
      <g style="fill: #9f9f9f" transform="translate(237.480614 13.4075) scale(0.08 -0.08)">
       <use xlink:href="#Ubuntu-30"/>
      </g>
     </g>
    </g>
    <g id="xtick_31">
     <g id="text_41">
      <!-- 0 -->
      <g style="fill: #9f9f9f" transform="translate(250.313761 13.4075) scale(0.08 -0.08)">
       <use xlink:href="#Ubuntu-30"/>
      </g>
     </g>
    </g>
    <g id="xtick_32">
     <g id="text_42">
      <!-- 0 -->
      <g style="fill: #9f9f9f" transform="translate(263.146908 13.4075) scale(0.08 -0.08)">
       <use xlink:href="#Ubuntu-30"/>
      </g>
     </g>
    </g>
    <g id="xtick_33">
     <g id="text_43">
      <!-- 0 -->
      <g style="fill: #9f9f9f" transform="translate(275.980056 13.4075) scale(0.08 -0.08)">
       <use xlink:href="#Ubuntu-30"/>
      </g>
     </g>
    </g>
    <g id="xtick_34">
     <g id="text_44">
      <!-- 0 -->
      <g style="fill: #9f9f9f" transform="translate(288.813203 13.4075) scale(0.08 -0.08)">
       <use xlink:href="#Ubuntu-30"/>
      </g>
     </g>
    </g>
    <g id="xtick_35">
     <g id="text_45">
      <!-- 0 -->
      <g style="fill: #9f9f9f" transform="translate(301.64635 13.4075) scale(0.08 -0.08)">
       <use xlink:href="#Ubuntu-30"/>
      </g>
     </g>
    </g>
    <g id="xtick_36">
     <g id="text_46">
      <!-- 0 -->
      <g style="fill: #9f9f9f" transform="translate(314.479497 13.4075) scale(0.08 -0.08)">
       <use xlink:href="#Ubuntu-30"/>
      </g>
     </g>
    </g>
    <g id="xtick_37">
     <g id="text_47">
      <!-- 0 -->
      <g style="fill: #9f9f9f" transform="translate(327.312645 13.4075) scale(0.08 -0.08)">
       <use xlink:href="#Ubuntu-30"/>
      </g>
     </g>
    </g>
    <g id="xtick_38">
     <g id="text_48">
      <!-- 0 -->
      <g style="fill: #9f9f9f" transform="translate(340.145792 13.4075) scale(0.08 -0.08)">
       <use xlink:href="#Ubuntu-30"/>
      </g>
     </g>
    </g>
    <g id="xtick_39">
     <g id="text_49">
      <!-- 0 -->
      <g style="fill: #9f9f9f" transform="translate(352.978939 13.4075) scale(0.08 -0.08)">
       <use xlink:href="#Ubuntu-30"/>
      </g>
     </g>
    </g>
    <g id="xtick_40">
     <g id="text_50">
      <!-- 0 -->
      <g style="fill: #9f9f9f" transform="translate(365.812086 13.4075) scale(0.08 -0.08)">
       <use xlink:href="#Ubuntu-30"/>
      </g>
     </g>
    </g>
    <g id="xtick_41">
     <g id="text_51">
      <!-- 0 -->
      <g style="fill: #9f9f9f" transform="translate(378.645234 13.4075) scale(0.08 -0.08)">
       <use xlink:href="#Ubuntu-30"/>
      </g>
     </g>
    </g>
    <g id="xtick_42">
     <g id="text_52">
      <!-- 0 -->
      <g style="fill: #9f9f9f" transform="translate(391.478381 13.4075) scale(0.08 -0.08)">
       <use xlink:href="#Ubuntu-30"/>
      </g>
     </g>
    </g>
    <g id="xtick_43">
     <g id="text_53">
      <!-- 0 -->
      <g style="fill: #9f9f9f" transform="translate(404.311528 13.4075) scale(0.08 -0.08)">
       <use xlink:href="#Ubuntu-30"/>
      </g>
     </g>
    </g>
    <g id="xtick_44">
     <g id="text_54">
      <!-- 0 -->
      <g style="fill: #9f9f9f" transform="translate(417.144676 13.4075) scale(0.08 -0.08)">
       <use xlink:href="#Ubuntu-30"/>
      </g>
     </g>
    </g>
    <g id="xtick_45">
     <g id="text_55">
      <!-- 0 -->
      <g style="fill: #9f9f9f" transform="translate(429.977823 13.4075) scale(0.08 -0.08)">
       <use xlink:href="#Ubuntu-30"/>
      </g>
     </g>
    </g>
   </g>
   <g id="line2d_24">
    <path d="M 201.705851 159.2155 
L 201.705851 26.1595 
" clip-path="url(#p15fbde7d1d)" style="fill: none; stroke-dasharray: 3.7,1.6; stroke-dashoffset: 0; stroke: #af5a51; stroke-opacity: 0.95"/>
   </g>
   <g id="line2d_25">
    <path d="M 150.523782 159.2155 
L 150.523782 26.1595 
" clip-path="url(#p15fbde7d1d)" style="fill: none; stroke-dasharray: 3.7,1.6; stroke-dashoffset: 0; stroke: #af5a51; stroke-opacity: 0.95"/>
   </g>
  </g>
 </g>
 <defs>
  <clipPath id="p15fbde7d1d">
   <rect x="50.853438" y="23.3875" width="390.6" height="138.6"/>
  </clipPath>
 </defs>
</svg>
