<?xml version="1.0" encoding="utf-8" standalone="no"?>
<!DOCTYPE svg PUBLIC "-//W3C//DTD SVG 1.1//EN"
  "http://www.w3.org/Graphics/SVG/1.1/DTD/svg11.dtd">
<svg xmlns:xlink="http://www.w3.org/1999/xlink" width="610.557187pt" height="190.355pt" viewBox="0 0 610.557187 190.355" xmlns="http://www.w3.org/2000/svg" version="1.1">
 <metadata>
  <rdf:RDF xmlns:dc="http://purl.org/dc/elements/1.1/" xmlns:cc="http://creativecommons.org/ns#" xmlns:rdf="http://www.w3.org/1999/02/22-rdf-syntax-ns#">
   <cc:Work>
    <dc:type rdf:resource="http://purl.org/dc/dcmitype/StillImage"/>
    <dc:date>2024-02-20T09:31:36.313073</dc:date>
    <dc:format>image/svg+xml</dc:format>
    <dc:creator>
     <cc:Agent>
      <dc:title>Matplotlib v3.8.0, https://matplotlib.org/</dc:title>
     </cc:Agent>
    </dc:creator>
   </cc:Work>
  </rdf:RDF>
 </metadata>
 <defs>
  <style type="text/css">*{stroke-linejoin: round; stroke-linecap: butt}</style>
 </defs>
 <g id="figure_1">
  <g id="patch_1">
   <path d="M 0 190.355 
L 610.557187 190.355 
L 610.557187 0 
L 0 0 
L 0 190.355 
z
" style="fill: none"/>
  </g>
  <g id="axes_1">
   <g id="patch_2">
    <path d="M 39.860938 163.9675 
L 597.860937 163.9675 
L 597.860937 25.3675 
L 39.860938 25.3675 
L 39.860938 163.9675 
z
" style="fill: none"/>
   </g>
   <g id="matplotlib.axis_1">
    <g id="xtick_1">
     <g id="line2d_1">
      <defs>
       <path id="m23a76d701f" d="M 0 0 
L 0 3 
" style="stroke: #bbbbbb; stroke-width: 0.75"/>
      </defs>
      <g>
       <use xlink:href="#m23a76d701f" x="39.860937" y="168.9675" style="fill: #bbbbbb; stroke: #bbbbbb; stroke-width: 0.75"/>
      </g>
     </g>
     <g id="text_1">
      <!-- −1.0 -->
      <g style="fill: #9f9f9f" transform="translate(32.108437 181.675) scale(0.08 -0.08)">
       <defs>
        <path id="Ubuntu-2212" d="M 339 2138 
L 3270 2138 
L 3270 1632 
L 339 1632 
L 339 2138 
z
" transform="scale(0.015625)"/>
        <path id="Ubuntu-31" d="M 595 3520 
Q 960 3661 1305 3881 
Q 1651 4102 1939 4435 
L 2362 4435 
L 2362 0 
L 1766 0 
L 1766 3610 
Q 1690 3539 1578 3462 
Q 1466 3386 1334 3315 
Q 1203 3245 1059 3181 
Q 915 3117 781 3072 
L 595 3520 
z
" transform="scale(0.015625)"/>
        <path id="Ubuntu-2e" d="M 1216 346 
Q 1216 173 1101 45 
Q 986 -83 787 -83 
Q 589 -83 473 45 
Q 358 173 358 346 
Q 358 518 473 646 
Q 589 774 787 774 
Q 986 774 1101 646 
Q 1216 518 1216 346 
z
" transform="scale(0.015625)"/>
        <path id="Ubuntu-30" d="M 320 2221 
Q 320 3334 713 3936 
Q 1107 4538 1805 4538 
Q 2502 4538 2896 3936 
Q 3290 3334 3290 2221 
Q 3290 1107 2896 505 
Q 2502 -96 1805 -96 
Q 1107 -96 713 505 
Q 320 1107 320 2221 
z
M 2662 2221 
Q 2662 2586 2620 2912 
Q 2579 3238 2480 3481 
Q 2381 3725 2214 3869 
Q 2048 4013 1805 4013 
Q 1562 4013 1395 3869 
Q 1229 3725 1129 3481 
Q 1030 3238 988 2912 
Q 947 2586 947 2221 
Q 947 1856 988 1529 
Q 1030 1203 1129 960 
Q 1229 717 1395 573 
Q 1562 429 1805 429 
Q 2048 429 2214 573 
Q 2381 717 2480 960 
Q 2579 1203 2620 1529 
Q 2662 1856 2662 2221 
z
" transform="scale(0.015625)"/>
       </defs>
       <use xlink:href="#Ubuntu-2212"/>
       <use xlink:href="#Ubuntu-31" x="56.399994"/>
       <use xlink:href="#Ubuntu-2e" x="112.799988"/>
       <use xlink:href="#Ubuntu-30" x="137.399979"/>
      </g>
     </g>
    </g>
    <g id="xtick_2">
     <g id="line2d_2">
      <g>
       <use xlink:href="#m23a76d701f" x="179.360937" y="168.9675" style="fill: #bbbbbb; stroke: #bbbbbb; stroke-width: 0.75"/>
      </g>
     </g>
     <g id="text_2">
      <!-- −0.5 -->
      <g style="fill: #9f9f9f" transform="translate(171.608437 181.675) scale(0.08 -0.08)">
       <defs>
        <path id="Ubuntu-35" d="M 1274 2726 
Q 2240 2688 2691 2304 
Q 3142 1920 3142 1261 
Q 3142 966 3043 716 
Q 2944 467 2742 288 
Q 2541 109 2233 6 
Q 1926 -96 1504 -96 
Q 1338 -96 1165 -70 
Q 992 -45 845 -6 
Q 698 32 582 70 
Q 467 109 416 134 
L 531 653 
Q 640 602 886 518 
Q 1133 435 1491 435 
Q 1779 435 1974 499 
Q 2170 563 2291 672 
Q 2413 781 2467 925 
Q 2522 1069 2522 1229 
Q 2522 1472 2438 1661 
Q 2355 1850 2144 1978 
Q 1933 2106 1581 2173 
Q 1229 2240 691 2240 
Q 730 2554 752 2829 
Q 774 3104 793 3366 
Q 813 3629 825 3888 
Q 838 4147 851 4435 
L 2989 4435 
L 2989 3930 
L 1370 3930 
Q 1363 3834 1350 3670 
Q 1338 3507 1325 3331 
Q 1312 3155 1299 2988 
Q 1286 2822 1274 2726 
z
" transform="scale(0.015625)"/>
       </defs>
       <use xlink:href="#Ubuntu-2212"/>
       <use xlink:href="#Ubuntu-30" x="56.399994"/>
       <use xlink:href="#Ubuntu-2e" x="112.799988"/>
       <use xlink:href="#Ubuntu-35" x="137.399979"/>
      </g>
     </g>
    </g>
    <g id="xtick_3">
     <g id="line2d_3">
      <g>
       <use xlink:href="#m23a76d701f" x="318.860937" y="168.9675" style="fill: #bbbbbb; stroke: #bbbbbb; stroke-width: 0.75"/>
      </g>
     </g>
     <g id="text_3">
      <!-- 0.0 -->
      <g style="fill: #9f9f9f" transform="translate(313.364688 181.675) scale(0.08 -0.08)">
       <use xlink:href="#Ubuntu-30"/>
       <use xlink:href="#Ubuntu-2e" x="56.399994"/>
       <use xlink:href="#Ubuntu-30" x="80.999985"/>
      </g>
     </g>
    </g>
    <g id="xtick_4">
     <g id="line2d_4">
      <g>
       <use xlink:href="#m23a76d701f" x="458.360937" y="168.9675" style="fill: #bbbbbb; stroke: #bbbbbb; stroke-width: 0.75"/>
      </g>
     </g>
     <g id="text_4">
      <!-- 0.5 -->
      <g style="fill: #9f9f9f" transform="translate(452.864688 181.675) scale(0.08 -0.08)">
       <use xlink:href="#Ubuntu-30"/>
       <use xlink:href="#Ubuntu-2e" x="56.399994"/>
       <use xlink:href="#Ubuntu-35" x="80.999985"/>
      </g>
     </g>
    </g>
    <g id="xtick_5">
     <g id="line2d_5">
      <g>
       <use xlink:href="#m23a76d701f" x="597.860937" y="168.9675" style="fill: #bbbbbb; stroke: #bbbbbb; stroke-width: 0.75"/>
      </g>
     </g>
     <g id="text_5">
      <!-- 1.0 -->
      <g style="fill: #9f9f9f" transform="translate(592.364687 181.675) scale(0.08 -0.08)">
       <use xlink:href="#Ubuntu-31"/>
       <use xlink:href="#Ubuntu-2e" x="56.399994"/>
       <use xlink:href="#Ubuntu-30" x="80.999985"/>
      </g>
     </g>
    </g>
   </g>
   <g id="matplotlib.axis_2">
    <g id="ytick_1">
     <g id="line2d_6">
      <defs>
       <path id="m2059e7fef0" d="M 0 0 
L -3 0 
" style="stroke: #bbbbbb; stroke-width: 0.75"/>
      </defs>
      <g>
       <use xlink:href="#m2059e7fef0" x="34.860938" y="163.9675" style="fill: #bbbbbb; stroke: #bbbbbb; stroke-width: 0.75"/>
      </g>
     </g>
     <g id="text_6">
      <!-- 0 -->
      <g style="fill: #9f9f9f" transform="translate(23.848438 167.07125) scale(0.08 -0.08)">
       <use xlink:href="#Ubuntu-30"/>
      </g>
     </g>
    </g>
    <g id="ytick_2">
     <g id="line2d_7">
      <g>
       <use xlink:href="#m2059e7fef0" x="34.860938" y="129.3175" style="fill: #bbbbbb; stroke: #bbbbbb; stroke-width: 0.75"/>
      </g>
     </g>
     <g id="text_7">
      <!-- 1 -->
      <g style="fill: #9f9f9f" transform="translate(23.848438 132.42125) scale(0.08 -0.08)">
       <use xlink:href="#Ubuntu-31"/>
      </g>
     </g>
    </g>
    <g id="ytick_3">
     <g id="line2d_8">
      <g>
       <use xlink:href="#m2059e7fef0" x="34.860938" y="94.6675" style="fill: #bbbbbb; stroke: #bbbbbb; stroke-width: 0.75"/>
      </g>
     </g>
     <g id="text_8">
      <!-- 2 -->
      <g style="fill: #9f9f9f" transform="translate(23.848438 97.77125) scale(0.08 -0.08)">
       <defs>
        <path id="Ubuntu-32" d="M 2989 3302 
Q 2989 3072 2896 2857 
Q 2803 2643 2649 2435 
Q 2496 2227 2304 2025 
Q 2112 1824 1920 1632 
Q 1811 1523 1667 1376 
Q 1523 1229 1395 1069 
Q 1267 909 1180 761 
Q 1094 614 1094 506 
L 3136 506 
L 3136 0 
L 448 0 
Q 442 38 442 76 
Q 442 115 442 147 
Q 442 448 541 707 
Q 640 966 800 1196 
Q 960 1427 1158 1632 
Q 1357 1837 1549 2029 
Q 1709 2182 1853 2332 
Q 1997 2483 2109 2633 
Q 2221 2784 2288 2944 
Q 2355 3104 2355 3283 
Q 2355 3475 2294 3609 
Q 2234 3744 2131 3833 
Q 2029 3923 1891 3964 
Q 1754 4006 1600 4006 
Q 1414 4006 1260 3955 
Q 1107 3904 985 3837 
Q 864 3770 781 3696 
Q 698 3622 653 3584 
L 358 4006 
Q 416 4070 531 4163 
Q 646 4256 806 4339 
Q 966 4422 1164 4480 
Q 1363 4538 1594 4538 
Q 2291 4538 2640 4214 
Q 2989 3891 2989 3302 
z
" transform="scale(0.015625)"/>
       </defs>
       <use xlink:href="#Ubuntu-32"/>
      </g>
     </g>
    </g>
    <g id="ytick_4">
     <g id="line2d_9">
      <g>
       <use xlink:href="#m2059e7fef0" x="34.860938" y="60.0175" style="fill: #bbbbbb; stroke: #bbbbbb; stroke-width: 0.75"/>
      </g>
     </g>
     <g id="text_9">
      <!-- 3 -->
      <g style="fill: #9f9f9f" transform="translate(23.848438 63.12125) scale(0.08 -0.08)">
       <defs>
        <path id="Ubuntu-33" d="M 1446 435 
Q 2016 435 2262 659 
Q 2509 883 2509 1261 
Q 2509 1504 2406 1670 
Q 2304 1837 2137 1936 
Q 1971 2035 1750 2076 
Q 1530 2118 1299 2118 
L 1146 2118 
L 1146 2605 
L 1357 2605 
Q 1517 2605 1686 2637 
Q 1856 2669 1997 2752 
Q 2138 2835 2227 2979 
Q 2317 3123 2317 3341 
Q 2317 3520 2253 3648 
Q 2189 3776 2083 3859 
Q 1978 3942 1840 3977 
Q 1702 4013 1549 4013 
Q 1242 4013 1027 3923 
Q 813 3834 666 3738 
L 435 4192 
Q 512 4243 630 4304 
Q 749 4365 896 4416 
Q 1043 4467 1212 4502 
Q 1382 4538 1568 4538 
Q 1920 4538 2176 4451 
Q 2432 4365 2598 4208 
Q 2765 4051 2848 3836 
Q 2931 3622 2931 3373 
Q 2931 3027 2732 2780 
Q 2534 2534 2253 2406 
Q 2426 2355 2586 2259 
Q 2746 2163 2864 2016 
Q 2982 1869 3056 1677 
Q 3130 1485 3130 1248 
Q 3130 960 3030 713 
Q 2931 467 2723 288 
Q 2515 109 2201 6 
Q 1888 -96 1459 -96 
Q 1293 -96 1117 -70 
Q 941 -45 787 -6 
Q 634 32 518 70 
Q 403 109 352 134 
L 467 653 
Q 576 602 829 518 
Q 1082 435 1446 435 
z
" transform="scale(0.015625)"/>
       </defs>
       <use xlink:href="#Ubuntu-33"/>
      </g>
     </g>
    </g>
    <g id="ytick_5">
     <g id="line2d_10">
      <g>
       <use xlink:href="#m2059e7fef0" x="34.860938" y="25.3675" style="fill: #bbbbbb; stroke: #bbbbbb; stroke-width: 0.75"/>
      </g>
     </g>
     <g id="text_10">
      <!-- 4 -->
      <g style="fill: #9f9f9f" transform="translate(23.848438 28.47125) scale(0.08 -0.08)">
       <defs>
        <path id="Ubuntu-34" d="M 256 1536 
Q 378 1818 589 2192 
Q 800 2566 1065 2963 
Q 1331 3360 1635 3744 
Q 1939 4128 2246 4435 
L 2816 4435 
L 2816 1619 
L 3341 1619 
L 3341 1133 
L 2816 1133 
L 2816 0 
L 2240 0 
L 2240 1133 
L 256 1133 
L 256 1536 
z
M 2240 3731 
Q 2048 3526 1853 3273 
Q 1658 3021 1472 2745 
Q 1286 2470 1123 2182 
Q 960 1894 832 1619 
L 2240 1619 
L 2240 3731 
z
" transform="scale(0.015625)"/>
       </defs>
       <use xlink:href="#Ubuntu-34"/>
      </g>
     </g>
    </g>
    <g id="text_11">
     <!-- Density -->
     <g style="fill: #505050" transform="translate(14.183438 58.535313) rotate(-90) scale(0.09 -0.09)">
      <defs>
       <path id="Ubuntu-Bold-44" d="M 1510 813 
Q 1581 806 1673 803 
Q 1766 800 1894 800 
Q 2643 800 3004 1177 
Q 3366 1555 3366 2221 
Q 3366 2918 3020 3276 
Q 2675 3635 1926 3635 
Q 1824 3635 1715 3632 
Q 1606 3629 1510 3616 
L 1510 813 
z
M 4397 2221 
Q 4397 1645 4217 1216 
Q 4038 787 3708 505 
Q 3379 224 2905 83 
Q 2432 -58 1843 -58 
Q 1574 -58 1216 -35 
Q 858 -13 512 58 
L 512 4378 
Q 858 4442 1232 4464 
Q 1606 4486 1875 4486 
Q 2445 4486 2909 4358 
Q 3373 4230 3705 3955 
Q 4038 3680 4217 3251 
Q 4397 2822 4397 2221 
z
" transform="scale(0.015625)"/>
       <path id="Ubuntu-Bold-65" d="M 288 1658 
Q 288 2106 425 2442 
Q 563 2778 787 3002 
Q 1011 3226 1302 3341 
Q 1594 3456 1901 3456 
Q 2618 3456 3034 3017 
Q 3450 2579 3450 1728 
Q 3450 1645 3443 1545 
Q 3437 1446 3430 1370 
L 1267 1370 
Q 1299 1075 1542 902 
Q 1786 730 2195 730 
Q 2458 730 2710 778 
Q 2963 826 3123 896 
L 3251 122 
Q 3174 83 3046 44 
Q 2918 6 2761 -22 
Q 2605 -51 2425 -70 
Q 2246 -90 2067 -90 
Q 1613 -90 1277 44 
Q 941 179 720 412 
Q 499 646 393 966 
Q 288 1286 288 1658 
z
M 2528 2022 
Q 2522 2144 2486 2259 
Q 2451 2374 2377 2464 
Q 2304 2554 2192 2611 
Q 2080 2669 1914 2669 
Q 1754 2669 1638 2614 
Q 1523 2560 1446 2470 
Q 1370 2381 1328 2262 
Q 1286 2144 1267 2022 
L 2528 2022 
z
" transform="scale(0.015625)"/>
       <path id="Ubuntu-Bold-6e" d="M 448 3251 
Q 691 3322 1075 3382 
Q 1459 3443 1882 3443 
Q 2310 3443 2595 3331 
Q 2880 3219 3046 3014 
Q 3213 2810 3283 2528 
Q 3354 2246 3354 1901 
L 3354 0 
L 2400 0 
L 2400 1786 
Q 2400 2246 2278 2438 
Q 2157 2630 1824 2630 
Q 1722 2630 1606 2620 
Q 1491 2611 1402 2598 
L 1402 0 
L 448 0 
L 448 3251 
z
" transform="scale(0.015625)"/>
       <path id="Ubuntu-Bold-73" d="M 1414 685 
Q 1677 685 1785 736 
Q 1894 787 1894 934 
Q 1894 1050 1753 1136 
Q 1613 1222 1325 1331 
Q 1101 1414 918 1504 
Q 736 1594 608 1718 
Q 480 1843 409 2016 
Q 339 2189 339 2432 
Q 339 2906 691 3181 
Q 1043 3456 1658 3456 
Q 1965 3456 2246 3401 
Q 2528 3347 2694 3283 
L 2528 2541 
Q 2362 2598 2166 2643 
Q 1971 2688 1728 2688 
Q 1280 2688 1280 2438 
Q 1280 2381 1299 2336 
Q 1318 2291 1376 2249 
Q 1434 2208 1533 2160 
Q 1632 2112 1786 2054 
Q 2099 1939 2304 1827 
Q 2509 1715 2627 1584 
Q 2746 1453 2794 1293 
Q 2842 1133 2842 922 
Q 2842 422 2467 166 
Q 2093 -90 1408 -90 
Q 960 -90 662 -13 
Q 365 64 250 115 
L 410 890 
Q 653 794 909 739 
Q 1165 685 1414 685 
z
" transform="scale(0.015625)"/>
       <path id="Ubuntu-Bold-69" d="M 1402 0 
L 448 0 
L 448 3366 
L 1402 3366 
L 1402 0 
z
M 1491 4339 
Q 1491 4077 1321 3926 
Q 1152 3776 922 3776 
Q 691 3776 521 3926 
Q 352 4077 352 4339 
Q 352 4602 521 4752 
Q 691 4902 922 4902 
Q 1152 4902 1321 4752 
Q 1491 4602 1491 4339 
z
" transform="scale(0.015625)"/>
       <path id="Ubuntu-Bold-74" d="M 416 4205 
L 1370 4358 
L 1370 3366 
L 2515 3366 
L 2515 2573 
L 1370 2573 
L 1370 1389 
Q 1370 1088 1475 909 
Q 1581 730 1901 730 
Q 2054 730 2217 758 
Q 2381 787 2515 838 
L 2650 96 
Q 2477 26 2265 -25 
Q 2054 -77 1747 -77 
Q 1357 -77 1101 28 
Q 845 134 691 323 
Q 538 512 477 781 
Q 416 1050 416 1376 
L 416 4205 
z
" transform="scale(0.015625)"/>
       <path id="Ubuntu-Bold-79" d="M 3437 3366 
Q 3149 2394 2835 1542 
Q 2522 691 2150 -109 
Q 2016 -397 1881 -598 
Q 1747 -800 1587 -931 
Q 1427 -1062 1225 -1123 
Q 1024 -1184 755 -1184 
Q 531 -1184 342 -1142 
Q 154 -1101 32 -1050 
L 198 -288 
Q 346 -339 461 -358 
Q 576 -378 704 -378 
Q 960 -378 1097 -240 
Q 1235 -102 1331 141 
Q 1005 781 678 1577 
Q 352 2374 64 3366 
L 1075 3366 
Q 1139 3117 1225 2825 
Q 1312 2534 1408 2236 
Q 1504 1939 1603 1657 
Q 1702 1376 1792 1146 
Q 1875 1376 1964 1657 
Q 2054 1939 2140 2236 
Q 2227 2534 2307 2825 
Q 2387 3117 2451 3366 
L 3437 3366 
z
" transform="scale(0.015625)"/>
      </defs>
      <use xlink:href="#Ubuntu-Bold-44"/>
      <use xlink:href="#Ubuntu-Bold-65" x="73.699982"/>
      <use xlink:href="#Ubuntu-Bold-6e" x="132.099976"/>
      <use xlink:href="#Ubuntu-Bold-73" x="190.999969"/>
      <use xlink:href="#Ubuntu-Bold-69" x="239.499954"/>
      <use xlink:href="#Ubuntu-Bold-74" x="268.399948"/>
      <use xlink:href="#Ubuntu-Bold-79" x="313.799942"/>
     </g>
    </g>
   </g>
   <g id="PolyCollection_1">
    <defs>
     <path id="m87f739ef22" d="M 186.014805 -26.392799 
L 186.014805 -26.3875 
L 187.334541 -26.3875 
L 188.654277 -26.3875 
L 189.974013 -26.3875 
L 191.293748 -26.3875 
L 192.613484 -26.3875 
L 193.93322 -26.3875 
L 195.252956 -26.3875 
L 196.572692 -26.3875 
L 197.892427 -26.3875 
L 199.212163 -26.3875 
L 200.531899 -26.3875 
L 201.851635 -26.3875 
L 203.171371 -26.3875 
L 204.491106 -26.3875 
L 205.810842 -26.3875 
L 207.130578 -26.3875 
L 208.450314 -26.3875 
L 209.77005 -26.3875 
L 211.089786 -26.3875 
L 212.409521 -26.3875 
L 213.729257 -26.3875 
L 215.048993 -26.3875 
L 216.368729 -26.3875 
L 217.688465 -26.3875 
L 219.0082 -26.3875 
L 220.327936 -26.3875 
L 221.647672 -26.3875 
L 222.967408 -26.3875 
L 224.287144 -26.3875 
L 225.606879 -26.3875 
L 226.926615 -26.3875 
L 228.246351 -26.3875 
L 229.566087 -26.3875 
L 230.885823 -26.3875 
L 232.205558 -26.3875 
L 233.525294 -26.3875 
L 234.84503 -26.3875 
L 236.164766 -26.3875 
L 237.484502 -26.3875 
L 238.804238 -26.3875 
L 240.123973 -26.3875 
L 241.443709 -26.3875 
L 242.763445 -26.3875 
L 244.083181 -26.3875 
L 245.402917 -26.3875 
L 246.722652 -26.3875 
L 248.042388 -26.3875 
L 249.362124 -26.3875 
L 250.68186 -26.3875 
L 252.001596 -26.3875 
L 253.321331 -26.3875 
L 254.641067 -26.3875 
L 255.960803 -26.3875 
L 257.280539 -26.3875 
L 258.600275 -26.3875 
L 259.92001 -26.3875 
L 261.239746 -26.3875 
L 262.559482 -26.3875 
L 263.879218 -26.3875 
L 265.198954 -26.3875 
L 266.518689 -26.3875 
L 267.838425 -26.3875 
L 269.158161 -26.3875 
L 270.477897 -26.3875 
L 271.797633 -26.3875 
L 273.117369 -26.3875 
L 274.437104 -26.3875 
L 275.75684 -26.3875 
L 277.076576 -26.3875 
L 278.396312 -26.3875 
L 279.716048 -26.3875 
L 281.035783 -26.3875 
L 282.355519 -26.3875 
L 283.675255 -26.3875 
L 284.994991 -26.3875 
L 286.314727 -26.3875 
L 287.634462 -26.3875 
L 288.954198 -26.3875 
L 290.273934 -26.3875 
L 291.59367 -26.3875 
L 292.913406 -26.3875 
L 294.233141 -26.3875 
L 295.552877 -26.3875 
L 296.872613 -26.3875 
L 298.192349 -26.3875 
L 299.512085 -26.3875 
L 300.83182 -26.3875 
L 302.151556 -26.3875 
L 303.471292 -26.3875 
L 304.791028 -26.3875 
L 306.110764 -26.3875 
L 307.4305 -26.3875 
L 308.750235 -26.3875 
L 310.069971 -26.3875 
L 311.389707 -26.3875 
L 312.709443 -26.3875 
L 314.029179 -26.3875 
L 315.348914 -26.3875 
L 316.66865 -26.3875 
L 317.988386 -26.3875 
L 319.308122 -26.3875 
L 320.627858 -26.3875 
L 321.947593 -26.3875 
L 323.267329 -26.3875 
L 324.587065 -26.3875 
L 325.906801 -26.3875 
L 327.226537 -26.3875 
L 328.546272 -26.3875 
L 329.866008 -26.3875 
L 331.185744 -26.3875 
L 332.50548 -26.3875 
L 333.825216 -26.3875 
L 335.144952 -26.3875 
L 336.464687 -26.3875 
L 337.784423 -26.3875 
L 339.104159 -26.3875 
L 340.423895 -26.3875 
L 341.743631 -26.3875 
L 343.063366 -26.3875 
L 344.383102 -26.3875 
L 345.702838 -26.3875 
L 347.022574 -26.3875 
L 348.34231 -26.3875 
L 349.662045 -26.3875 
L 350.981781 -26.3875 
L 352.301517 -26.3875 
L 353.621253 -26.3875 
L 354.940989 -26.3875 
L 356.260724 -26.3875 
L 357.58046 -26.3875 
L 358.900196 -26.3875 
L 360.219932 -26.3875 
L 361.539668 -26.3875 
L 362.859403 -26.3875 
L 364.179139 -26.3875 
L 365.498875 -26.3875 
L 366.818611 -26.3875 
L 368.138347 -26.3875 
L 369.458083 -26.3875 
L 370.777818 -26.3875 
L 372.097554 -26.3875 
L 373.41729 -26.3875 
L 374.737026 -26.3875 
L 376.056762 -26.3875 
L 377.376497 -26.3875 
L 378.696233 -26.3875 
L 380.015969 -26.3875 
L 381.335705 -26.3875 
L 382.655441 -26.3875 
L 383.975176 -26.3875 
L 385.294912 -26.3875 
L 386.614648 -26.3875 
L 387.934384 -26.3875 
L 389.25412 -26.3875 
L 390.573855 -26.3875 
L 391.893591 -26.3875 
L 393.213327 -26.3875 
L 394.533063 -26.3875 
L 395.852799 -26.3875 
L 397.172534 -26.3875 
L 398.49227 -26.3875 
L 399.812006 -26.3875 
L 401.131742 -26.3875 
L 402.451478 -26.3875 
L 403.771214 -26.3875 
L 405.090949 -26.3875 
L 406.410685 -26.3875 
L 407.730421 -26.3875 
L 409.050157 -26.3875 
L 410.369893 -26.3875 
L 411.689628 -26.3875 
L 413.009364 -26.3875 
L 414.3291 -26.3875 
L 415.648836 -26.3875 
L 416.968572 -26.3875 
L 418.288307 -26.3875 
L 419.608043 -26.3875 
L 420.927779 -26.3875 
L 422.247515 -26.3875 
L 423.567251 -26.3875 
L 424.886986 -26.3875 
L 426.206722 -26.3875 
L 427.526458 -26.3875 
L 428.846194 -26.3875 
L 430.16593 -26.3875 
L 431.485666 -26.3875 
L 432.805401 -26.3875 
L 434.125137 -26.3875 
L 435.444873 -26.3875 
L 436.764609 -26.3875 
L 438.084345 -26.3875 
L 439.40408 -26.3875 
L 440.723816 -26.3875 
L 442.043552 -26.3875 
L 443.363288 -26.3875 
L 444.683024 -26.3875 
L 446.002759 -26.3875 
L 447.322495 -26.3875 
L 448.642231 -26.3875 
L 448.642231 -26.397053 
L 448.642231 -26.397053 
L 447.322495 -26.402873 
L 446.002759 -26.411659 
L 444.683024 -26.424578 
L 443.363288 -26.443085 
L 442.043552 -26.468906 
L 440.723816 -26.503986 
L 439.40408 -26.550395 
L 438.084345 -26.610169 
L 436.764609 -26.68512 
L 435.444873 -26.776615 
L 434.125137 -26.885362 
L 432.805401 -27.011246 
L 431.485666 -27.153259 
L 430.16593 -27.309562 
L 428.846194 -27.477707 
L 427.526458 -27.655026 
L 426.206722 -27.839144 
L 424.886986 -28.028579 
L 423.567251 -28.223328 
L 422.247515 -28.425355 
L 420.927779 -28.63889 
L 419.608043 -28.870452 
L 418.288307 -29.12858 
L 416.968572 -29.423253 
L 415.648836 -29.765055 
L 414.3291 -30.164168 
L 413.009364 -30.629291 
L 411.689628 -31.166613 
L 410.369893 -31.778951 
L 409.050157 -32.465166 
L 407.730421 -33.219925 
L 406.410685 -34.033852 
L 405.090949 -34.894078 
L 403.771214 -35.78515 
L 402.451478 -36.690217 
L 401.131742 -37.592371 
L 399.812006 -38.476025 
L 398.49227 -39.328176 
L 397.172534 -40.139422 
L 395.852799 -40.904658 
L 394.533063 -41.623382 
L 393.213327 -42.29964 
L 391.893591 -42.941637 
L 390.573855 -43.56111 
L 389.25412 -44.172543 
L 387.934384 -44.792333 
L 386.614648 -45.437945 
L 385.294912 -46.127127 
L 383.975176 -46.877186 
L 382.655441 -47.704319 
L 381.335705 -48.62301 
L 380.015969 -49.645479 
L 378.696233 -50.781204 
L 377.376497 -52.036553 
L 376.056762 -53.414555 
L 374.737026 -54.914876 
L 373.41729 -56.53402 
L 372.097554 -58.265774 
L 370.777818 -60.101865 
L 369.458083 -62.032779 
L 368.138347 -64.048644 
L 366.818611 -66.140079 
L 365.498875 -68.298902 
L 364.179139 -70.518612 
L 362.859403 -72.794591 
L 361.539668 -75.124012 
L 360.219932 -77.505484 
L 358.900196 -79.938477 
L 357.58046 -82.422621 
L 356.260724 -84.956948 
L 354.940989 -87.539166 
L 353.621253 -90.165038 
L 352.301517 -92.827914 
L 350.981781 -95.518444 
L 349.662045 -98.2245 
L 348.34231 -100.931292 
L 347.022574 -103.621663 
L 345.702838 -106.276557 
L 344.383102 -108.87562 
L 343.063366 -111.397923 
L 341.743631 -113.822792 
L 340.423895 -116.130717 
L 339.104159 -118.304316 
L 337.784423 -120.329306 
L 336.464687 -122.195407 
L 335.144952 -123.897094 
L 333.825216 -125.434064 
L 332.50548 -126.811315 
L 331.185744 -128.038744 
L 329.866008 -129.13019 
L 328.546272 -130.101979 
L 327.226537 -130.971047 
L 325.906801 -131.752845 
L 324.587065 -132.459262 
L 323.267329 -133.09685 
L 321.947593 -133.665598 
L 320.627858 -134.158443 
L 319.308122 -134.561644 
L 317.988386 -134.855987 
L 316.66865 -135.018705 
L 315.348914 -135.025891 
L 314.029179 -134.855116 
L 312.709443 -134.487893 
L 311.389707 -133.911707 
L 310.069971 -133.121313 
L 308.750235 -132.119175 
L 307.4305 -130.915008 
L 306.110764 -129.524543 
L 304.791028 -127.96776 
L 303.471292 -126.266903 
L 302.151556 -124.444609 
L 300.83182 -122.52242 
L 299.512085 -120.519841 
L 298.192349 -118.453975 
L 296.872613 -116.339614 
L 295.552877 -114.189623 
L 294.233141 -112.015357 
L 292.913406 -109.826955 
L 291.59367 -107.633359 
L 290.273934 -105.442058 
L 288.954198 -103.258603 
L 287.634462 -101.086022 
L 286.314727 -98.924288 
L 284.994991 -96.76998 
L 283.675255 -94.616253 
L 282.355519 -92.453191 
L 281.035783 -90.268571 
L 279.716048 -88.048999 
L 278.396312 -85.781377 
L 277.076576 -83.454554 
L 275.75684 -81.061029 
L 274.437104 -78.5985 
L 273.117369 -76.071065 
L 271.797633 -73.489875 
L 270.477897 -70.873094 
L 269.158161 -68.245097 
L 267.838425 -65.634919 
L 266.518689 -63.074105 
L 265.198954 -60.594178 
L 263.879218 -58.224036 
L 262.559482 -55.987596 
L 261.239746 -53.901994 
L 259.92001 -51.976549 
L 258.600275 -50.212624 
L 257.280539 -48.604336 
L 255.960803 -47.139986 
L 254.641067 -45.803954 
L 253.321331 -44.57877 
L 252.001596 -43.447061 
L 250.68186 -42.393132 
L 249.362124 -41.404022 
L 248.042388 -40.469977 
L 246.722652 -39.584376 
L 245.402917 -38.743239 
L 244.083181 -37.944481 
L 242.763445 -37.187088 
L 241.443709 -36.470382 
L 240.123973 -35.793489 
L 238.804238 -35.155068 
L 237.484502 -34.553292 
L 236.164766 -33.986036 
L 234.84503 -33.451173 
L 233.525294 -32.946877 
L 232.205558 -32.471845 
L 230.885823 -32.025361 
L 229.566087 -31.607199 
L 228.246351 -31.217362 
L 226.926615 -30.855745 
L 225.606879 -30.521776 
L 224.287144 -30.214142 
L 222.967408 -29.930644 
L 221.647672 -29.668246 
L 220.327936 -29.423279 
L 219.0082 -29.191805 
L 217.688465 -28.970026 
L 216.368729 -28.754718 
L 215.048993 -28.543561 
L 213.729257 -28.335364 
L 212.409521 -28.13011 
L 211.089786 -27.928865 
L 209.77005 -27.733536 
L 208.450314 -27.546556 
L 207.130578 -27.370533 
L 205.810842 -27.207904 
L 204.491106 -27.06066 
L 203.171371 -26.930154 
L 201.851635 -26.817001 
L 200.531899 -26.721077 
L 199.212163 -26.641598 
L 197.892427 -26.577251 
L 196.572692 -26.526357 
L 195.252956 -26.487039 
L 193.93322 -26.457374 
L 192.613484 -26.435517 
L 191.293748 -26.419793 
L 189.974013 -26.40875 
L 188.654277 -26.401177 
L 187.334541 -26.39611 
L 186.014805 -26.392799 
z
" style="stroke: #858585; stroke-width: 0.01"/>
    </defs>
    <g clip-path="url(#pb230f12424)">
     <use xlink:href="#m87f739ef22" x="0" y="190.355" style="fill: #858585; fill-opacity: 0.25; stroke: #858585; stroke-width: 0.01"/>
    </g>
   </g>
   <g id="line2d_11">
    <path d="M 83.772125 163.963482 
L 95.938223 163.855537 
L 110.132004 163.610247 
L 128.38115 163.747104 
L 142.574931 163.479755 
L 156.768712 163.34076 
L 164.879444 162.983398 
L 172.990176 162.631467 
L 179.073224 162.635854 
L 191.239322 162.864864 
L 195.294688 162.659431 
L 201.377737 161.985214 
L 205.433103 161.550028 
L 209.488469 161.364752 
L 213.543835 161.44671 
L 219.626884 161.666267 
L 223.68225 161.592183 
L 227.737616 161.226962 
L 231.792982 160.523928 
L 235.848348 159.424647 
L 237.87603 158.699041 
L 239.903713 157.838001 
L 241.931396 156.829503 
L 243.959079 155.668073 
L 248.014445 152.924683 
L 252.069811 149.807759 
L 258.15286 144.865478 
L 262.208226 141.18095 
L 264.235909 139.08139 
L 266.263592 136.774427 
L 270.318958 131.583301 
L 274.374324 125.74691 
L 276.402007 122.555801 
L 278.42969 119.10906 
L 280.457373 115.340714 
L 282.485056 111.208081 
L 284.512739 106.713101 
L 288.568105 96.886807 
L 296.678836 76.651764 
L 300.734202 67.357578 
L 304.789568 58.968768 
L 306.817251 55.178251 
L 308.844934 51.688885 
L 310.872617 48.523458 
L 312.9003 45.706955 
L 314.927983 43.269017 
L 316.955666 41.243965 
L 318.983349 39.668375 
L 321.011032 38.578424 
L 323.038715 38.010081 
L 325.066398 38.003627 
L 327.094081 38.61053 
L 329.121764 39.897257 
L 331.149447 41.939591 
L 333.17713 44.804133 
L 335.204813 48.520059 
L 337.232496 53.050902 
L 339.260179 58.279118 
L 343.315545 70.015989 
L 347.370911 81.927159 
L 349.398594 87.518612 
L 351.426277 92.779079 
L 355.481643 102.390163 
L 359.537008 111.100985 
L 363.592374 119.163627 
L 367.64774 126.683943 
L 371.703106 133.764639 
L 375.758472 140.388107 
L 377.786155 143.437179 
L 379.813838 146.229006 
L 381.841521 148.702939 
L 383.869204 150.818185 
L 385.896887 152.564791 
L 387.92457 153.966213 
L 389.952253 155.073255 
L 391.979936 155.952048 
L 396.035302 157.285275 
L 400.090668 158.348906 
L 404.146034 159.264492 
L 408.2014 160.013603 
L 428.478229 163.193011 
L 432.533595 163.510286 
L 436.588961 163.602596 
L 467.004206 163.650489 
L 483.225669 163.952016 
L 487.281035 163.963481 
L 487.281035 163.963481 
" clip-path="url(#pb230f12424)" style="fill: none; stroke: #af5a51; stroke-width: 1.2; stroke-linecap: square"/>
   </g>
   <g id="line2d_12">
    <path d="M 221.240471 163.953484 
L 227.101902 163.816 
L 230.032617 163.572013 
L 232.963333 163.07261 
L 234.917143 162.534931 
L 236.870953 161.79545 
L 238.824764 160.833648 
L 240.778574 159.642996 
L 242.732384 158.231195 
L 245.6631 155.750317 
L 249.57072 152.006808 
L 253.478341 148.290491 
L 256.409056 145.817863 
L 261.293582 141.919633 
L 263.247392 140.065868 
L 265.201203 137.880614 
L 267.155013 135.364738 
L 270.085728 131.181986 
L 277.90097 119.51772 
L 279.85478 116.124454 
L 281.80859 112.22665 
L 283.7624 107.762238 
L 285.716211 102.794207 
L 289.623831 92.061179 
L 293.531452 81.479352 
L 297.439072 71.60327 
L 301.346693 62.374383 
L 304.277409 56.001903 
L 307.208124 50.265021 
L 310.138839 45.211517 
L 312.09265 42.218963 
L 314.04646 39.543248 
L 316.00027 37.225711 
L 317.954081 35.324864 
L 319.907891 33.897181 
L 320.884796 33.372915 
L 321.861701 32.977822 
L 322.838606 32.711836 
L 323.815511 32.573859 
L 324.792417 32.562728 
L 325.769322 32.678444 
L 326.746227 32.92346 
L 327.723132 33.303856 
L 328.700037 33.830148 
L 329.676942 34.517531 
L 330.653847 35.385386 
L 331.630753 36.455987 
L 332.607658 37.752454 
L 333.584563 39.296139 
L 334.561468 41.103726 
L 335.538373 43.184421 
L 337.492183 48.15141 
L 339.445994 54.055223 
L 342.376709 63.964964 
L 346.28433 77.09381 
L 348.23814 82.987579 
L 350.19195 88.335013 
L 353.122666 95.547362 
L 357.030286 104.372806 
L 360.937907 112.771862 
L 363.868622 118.702019 
L 367.776243 126.016502 
L 374.614579 138.10275 
L 377.545294 143.086994 
L 379.499105 146.146754 
L 381.452915 148.862688 
L 383.406725 151.160548 
L 385.360536 153.030494 
L 387.314346 154.529827 
L 389.268156 155.76309 
L 393.175777 157.878868 
L 399.037208 160.891806 
L 401.967923 162.136316 
L 403.921733 162.769918 
L 405.875544 163.235163 
L 408.806259 163.660312 
L 412.71388 163.892605 
L 415.644595 163.946106 
L 415.644595 163.946106 
" clip-path="url(#pb230f12424)" style="fill: none; stroke: #489079; stroke-width: 1.2; stroke-linecap: square"/>
   </g>
   <g id="patch_3">
    <path d="M 34.860938 163.9675 
L 34.860938 25.3675 
" style="fill: none; stroke: #bbbbbb; stroke-width: 0.75; stroke-linejoin: miter; stroke-linecap: square"/>
   </g>
   <g id="patch_4">
    <path d="M 39.860937 168.9675 
L 597.860937 168.9675 
" style="fill: none; stroke: #bbbbbb; stroke-width: 0.75; stroke-linejoin: miter; stroke-linecap: square"/>
   </g>
   <g id="legend_1">
    <g id="patch_5">
     <path d="M 47.060938 16.66375 
L 63.060938 16.66375 
L 63.060938 11.06375 
L 47.060938 11.06375 
z
" style="fill: #858585; fill-opacity: 0.25; stroke: #858585; stroke-width: 0.01; stroke-linejoin: miter"/>
    </g>
    <g id="text_12">
     <!-- Normal distribution -->
     <g style="fill: #4b4b4b" transform="translate(63.060938 16.66375) scale(0.08 -0.08)">
      <defs>
       <path id="Ubuntu-4e" d="M 3590 0 
Q 3450 237 3267 531 
Q 3085 826 2873 1142 
Q 2662 1459 2435 1785 
Q 2208 2112 1984 2416 
Q 1760 2720 1549 2989 
Q 1338 3258 1158 3462 
L 1158 0 
L 550 0 
L 550 4435 
L 1043 4435 
Q 1344 4115 1686 3689 
Q 2029 3264 2365 2813 
Q 2701 2362 2998 1926 
Q 3296 1491 3501 1152 
L 3501 4435 
L 4109 4435 
L 4109 0 
L 3590 0 
z
" transform="scale(0.015625)"/>
       <path id="Ubuntu-6f" d="M 3450 1664 
Q 3450 1267 3334 947 
Q 3219 627 3011 396 
Q 2803 166 2515 41 
Q 2227 -83 1888 -83 
Q 1549 -83 1261 41 
Q 973 166 765 396 
Q 557 627 441 947 
Q 326 1267 326 1664 
Q 326 2054 441 2377 
Q 557 2701 765 2931 
Q 973 3162 1261 3286 
Q 1549 3411 1888 3411 
Q 2227 3411 2515 3286 
Q 2803 3162 3011 2931 
Q 3219 2701 3334 2377 
Q 3450 2054 3450 1664 
z
M 2829 1664 
Q 2829 2227 2576 2556 
Q 2323 2886 1888 2886 
Q 1453 2886 1200 2556 
Q 947 2227 947 1664 
Q 947 1101 1200 771 
Q 1453 442 1888 442 
Q 2323 442 2576 771 
Q 2829 1101 2829 1664 
z
" transform="scale(0.015625)"/>
       <path id="Ubuntu-72" d="M 1741 3398 
Q 1818 3398 1917 3388 
Q 2016 3379 2112 3363 
Q 2208 3347 2288 3331 
Q 2368 3315 2406 3302 
L 2304 2784 
Q 2234 2810 2070 2845 
Q 1907 2880 1651 2880 
Q 1485 2880 1321 2845 
Q 1158 2810 1107 2797 
L 1107 0 
L 512 0 
L 512 3187 
Q 723 3264 1036 3331 
Q 1350 3398 1741 3398 
z
" transform="scale(0.015625)"/>
       <path id="Ubuntu-6d" d="M 512 3232 
Q 717 3283 1053 3340 
Q 1389 3398 1830 3398 
Q 2150 3398 2368 3312 
Q 2586 3226 2733 3059 
Q 2778 3091 2874 3148 
Q 2970 3206 3110 3260 
Q 3251 3315 3424 3356 
Q 3597 3398 3795 3398 
Q 4179 3398 4422 3286 
Q 4666 3174 4803 2969 
Q 4941 2765 4989 2483 
Q 5037 2202 5037 1869 
L 5037 0 
L 4442 0 
L 4442 1741 
Q 4442 2035 4413 2246 
Q 4384 2458 4304 2598 
Q 4224 2739 4086 2806 
Q 3949 2874 3731 2874 
Q 3430 2874 3235 2794 
Q 3040 2714 2970 2650 
Q 3021 2483 3046 2284 
Q 3072 2086 3072 1869 
L 3072 0 
L 2477 0 
L 2477 1741 
Q 2477 2035 2445 2246 
Q 2413 2458 2333 2598 
Q 2253 2739 2115 2806 
Q 1978 2874 1766 2874 
Q 1677 2874 1574 2867 
Q 1472 2861 1379 2851 
Q 1286 2842 1209 2829 
Q 1133 2816 1107 2810 
L 1107 0 
L 512 0 
L 512 3232 
z
" transform="scale(0.015625)"/>
       <path id="Ubuntu-61" d="M 1638 429 
Q 1850 429 2013 438 
Q 2176 448 2285 474 
L 2285 1466 
Q 2221 1498 2077 1520 
Q 1933 1542 1728 1542 
Q 1594 1542 1443 1523 
Q 1293 1504 1168 1443 
Q 1043 1382 960 1276 
Q 877 1171 877 998 
Q 877 678 1081 553 
Q 1286 429 1638 429 
z
M 1587 3411 
Q 1946 3411 2192 3318 
Q 2438 3226 2588 3056 
Q 2739 2886 2803 2652 
Q 2867 2419 2867 2138 
L 2867 58 
Q 2790 45 2652 22 
Q 2515 0 2342 -19 
Q 2170 -38 1968 -54 
Q 1766 -70 1568 -70 
Q 1286 -70 1049 -12 
Q 813 45 640 169 
Q 467 294 371 499 
Q 275 704 275 992 
Q 275 1267 387 1465 
Q 499 1664 691 1785 
Q 883 1907 1139 1964 
Q 1395 2022 1677 2022 
Q 1766 2022 1862 2012 
Q 1958 2003 2044 1987 
Q 2131 1971 2195 1958 
Q 2259 1946 2285 1939 
L 2285 2106 
Q 2285 2253 2253 2397 
Q 2221 2541 2137 2653 
Q 2054 2765 1910 2832 
Q 1766 2899 1536 2899 
Q 1242 2899 1021 2857 
Q 800 2816 691 2771 
L 621 3264 
Q 736 3315 1005 3363 
Q 1274 3411 1587 3411 
z
" transform="scale(0.015625)"/>
       <path id="Ubuntu-6c" d="M 1510 -64 
Q 960 -51 729 173 
Q 499 397 499 870 
L 499 4864 
L 1094 4966 
L 1094 966 
Q 1094 819 1120 723 
Q 1146 627 1203 569 
Q 1261 512 1357 483 
Q 1453 454 1594 435 
L 1510 -64 
z
" transform="scale(0.015625)"/>
       <path id="Ubuntu-20" transform="scale(0.015625)"/>
       <path id="Ubuntu-64" d="M 2662 2624 
Q 2554 2714 2349 2797 
Q 2144 2880 1901 2880 
Q 1645 2880 1462 2787 
Q 1280 2694 1165 2531 
Q 1050 2368 998 2144 
Q 947 1920 947 1664 
Q 947 1082 1235 765 
Q 1523 448 2003 448 
Q 2246 448 2409 470 
Q 2573 493 2662 518 
L 2662 2624 
z
M 2662 4864 
L 3258 4966 
L 3258 96 
Q 3053 38 2733 -19 
Q 2413 -77 1997 -77 
Q 1613 -77 1305 44 
Q 998 166 780 390 
Q 563 614 444 937 
Q 326 1261 326 1664 
Q 326 2048 425 2368 
Q 525 2688 717 2918 
Q 909 3149 1187 3277 
Q 1466 3405 1824 3405 
Q 2112 3405 2333 3328 
Q 2554 3251 2662 3181 
L 2662 4864 
z
" transform="scale(0.015625)"/>
       <path id="Ubuntu-69" d="M 1107 0 
L 512 0 
L 512 3328 
L 1107 3328 
L 1107 0 
z
M 806 3930 
Q 646 3930 534 4035 
Q 422 4141 422 4320 
Q 422 4499 534 4604 
Q 646 4710 806 4710 
Q 966 4710 1078 4604 
Q 1190 4499 1190 4320 
Q 1190 4141 1078 4035 
Q 966 3930 806 3930 
z
" transform="scale(0.015625)"/>
       <path id="Ubuntu-73" d="M 1286 429 
Q 1651 429 1827 525 
Q 2003 621 2003 832 
Q 2003 1050 1830 1178 
Q 1658 1306 1261 1466 
Q 1069 1542 893 1622 
Q 717 1702 589 1811 
Q 461 1920 384 2073 
Q 307 2227 307 2451 
Q 307 2893 633 3152 
Q 960 3411 1523 3411 
Q 1664 3411 1805 3395 
Q 1946 3379 2067 3356 
Q 2189 3334 2281 3308 
Q 2374 3283 2426 3264 
L 2317 2752 
Q 2221 2803 2016 2857 
Q 1811 2912 1523 2912 
Q 1274 2912 1088 2813 
Q 902 2714 902 2502 
Q 902 2394 944 2310 
Q 986 2227 1072 2160 
Q 1158 2093 1286 2035 
Q 1414 1978 1594 1914 
Q 1830 1824 2016 1737 
Q 2202 1651 2333 1536 
Q 2464 1421 2534 1257 
Q 2605 1094 2605 858 
Q 2605 397 2262 160 
Q 1920 -77 1286 -77 
Q 845 -77 595 -3 
Q 346 70 256 109 
L 365 621 
Q 467 582 691 505 
Q 915 429 1286 429 
z
" transform="scale(0.015625)"/>
       <path id="Ubuntu-74" d="M 1069 3328 
L 2330 3328 
L 2330 2829 
L 1069 2829 
L 1069 1293 
Q 1069 1043 1107 880 
Q 1146 717 1222 624 
Q 1299 531 1414 492 
Q 1530 454 1683 454 
Q 1952 454 2115 515 
Q 2278 576 2342 602 
L 2458 109 
Q 2368 64 2144 -3 
Q 1920 -70 1632 -70 
Q 1293 -70 1072 16 
Q 851 102 716 275 
Q 582 448 528 701 
Q 474 954 474 1286 
L 474 4256 
L 1069 4358 
L 1069 3328 
z
" transform="scale(0.015625)"/>
       <path id="Ubuntu-62" d="M 1107 3181 
Q 1216 3251 1437 3328 
Q 1658 3405 1946 3405 
Q 2304 3405 2582 3277 
Q 2861 3149 3053 2918 
Q 3245 2688 3344 2368 
Q 3443 2048 3443 1664 
Q 3443 1261 3324 937 
Q 3206 614 2988 390 
Q 2771 166 2464 44 
Q 2157 -77 1773 -77 
Q 1357 -77 1037 -19 
Q 717 38 512 96 
L 512 4864 
L 1107 4966 
L 1107 3181 
z
M 1107 518 
Q 1197 493 1360 470 
Q 1523 448 1766 448 
Q 2246 448 2534 765 
Q 2822 1082 2822 1664 
Q 2822 1920 2771 2144 
Q 2720 2368 2605 2531 
Q 2490 2694 2307 2787 
Q 2125 2880 1869 2880 
Q 1626 2880 1421 2797 
Q 1216 2714 1107 2624 
L 1107 518 
z
" transform="scale(0.015625)"/>
       <path id="Ubuntu-75" d="M 3162 96 
Q 2957 45 2621 -12 
Q 2285 -70 1843 -70 
Q 1459 -70 1196 42 
Q 934 154 774 358 
Q 614 563 544 841 
Q 474 1120 474 1459 
L 474 3328 
L 1069 3328 
L 1069 1587 
Q 1069 979 1261 716 
Q 1453 454 1907 454 
Q 2003 454 2105 460 
Q 2208 467 2297 476 
Q 2387 486 2460 496 
Q 2534 506 2566 518 
L 2566 3328 
L 3162 3328 
L 3162 96 
z
" transform="scale(0.015625)"/>
       <path id="Ubuntu-6e" d="M 512 3232 
Q 717 3283 1056 3340 
Q 1395 3398 1837 3398 
Q 2234 3398 2496 3286 
Q 2758 3174 2915 2972 
Q 3072 2771 3136 2489 
Q 3200 2208 3200 1869 
L 3200 0 
L 2605 0 
L 2605 1741 
Q 2605 2048 2563 2265 
Q 2522 2483 2426 2617 
Q 2330 2752 2170 2813 
Q 2010 2874 1773 2874 
Q 1677 2874 1574 2867 
Q 1472 2861 1379 2851 
Q 1286 2842 1212 2829 
Q 1139 2816 1107 2810 
L 1107 0 
L 512 0 
L 512 3232 
z
" transform="scale(0.015625)"/>
      </defs>
      <use xlink:href="#Ubuntu-4e"/>
      <use xlink:href="#Ubuntu-6f" x="72.799988"/>
      <use xlink:href="#Ubuntu-72" x="131.799973"/>
      <use xlink:href="#Ubuntu-6d" x="170.399963"/>
      <use xlink:href="#Ubuntu-61" x="256.499954"/>
      <use xlink:href="#Ubuntu-6c" x="308.699951"/>
      <use xlink:href="#Ubuntu-20" x="335.999939"/>
      <use xlink:href="#Ubuntu-64" x="359.09993"/>
      <use xlink:href="#Ubuntu-69" x="417.999924"/>
      <use xlink:href="#Ubuntu-73" x="443.299911"/>
      <use xlink:href="#Ubuntu-74" x="487.899902"/>
      <use xlink:href="#Ubuntu-72" x="528.099899"/>
      <use xlink:href="#Ubuntu-69" x="566.69989"/>
      <use xlink:href="#Ubuntu-62" x="591.999878"/>
      <use xlink:href="#Ubuntu-75" x="650.899872"/>
      <use xlink:href="#Ubuntu-74" x="708.299866"/>
      <use xlink:href="#Ubuntu-69" x="748.499863"/>
      <use xlink:href="#Ubuntu-6f" x="773.79985"/>
      <use xlink:href="#Ubuntu-6e" x="832.799835"/>
     </g>
    </g>
    <g id="line2d_13">
     <path d="M 138.275937 13.86375 
L 146.275937 13.86375 
L 154.275937 13.86375 
" style="fill: none; stroke: #af5a51; stroke-width: 1.2; stroke-linecap: square"/>
    </g>
    <g id="text_13">
     <!-- Residuals (original) -->
     <g style="fill: #4b4b4b" transform="translate(154.275937 16.66375) scale(0.08 -0.08)">
      <defs>
       <path id="Ubuntu-52" d="M 2720 1856 
Q 2822 1728 2979 1520 
Q 3136 1312 3302 1059 
Q 3469 806 3632 531 
Q 3795 256 3910 0 
L 3232 0 
Q 3104 243 2953 492 
Q 2803 742 2649 969 
Q 2496 1197 2345 1395 
Q 2195 1594 2074 1741 
Q 1990 1734 1904 1734 
Q 1818 1734 1728 1734 
L 1171 1734 
L 1171 0 
L 550 0 
L 550 4371 
Q 813 4435 1136 4457 
Q 1459 4480 1728 4480 
Q 2662 4480 3152 4128 
Q 3642 3776 3642 3078 
Q 3642 2637 3408 2323 
Q 3174 2010 2720 1856 
z
M 1779 3936 
Q 1382 3936 1171 3917 
L 1171 2246 
L 1613 2246 
Q 1933 2246 2189 2278 
Q 2445 2310 2621 2400 
Q 2797 2490 2893 2653 
Q 2989 2816 2989 3085 
Q 2989 3334 2893 3500 
Q 2797 3667 2633 3763 
Q 2470 3859 2249 3897 
Q 2029 3936 1779 3936 
z
" transform="scale(0.015625)"/>
       <path id="Ubuntu-65" d="M 326 1658 
Q 326 2099 454 2428 
Q 582 2758 793 2976 
Q 1005 3194 1280 3302 
Q 1555 3411 1843 3411 
Q 2515 3411 2873 2992 
Q 3232 2573 3232 1715 
Q 3232 1677 3232 1616 
Q 3232 1555 3226 1504 
L 947 1504 
Q 986 986 1248 717 
Q 1510 448 2067 448 
Q 2381 448 2595 502 
Q 2810 557 2918 608 
L 3002 109 
Q 2893 51 2621 -13 
Q 2349 -77 2003 -77 
Q 1568 -77 1251 54 
Q 934 186 729 416 
Q 525 646 425 963 
Q 326 1280 326 1658 
z
M 2611 1984 
Q 2618 2387 2410 2646 
Q 2202 2906 1837 2906 
Q 1632 2906 1475 2826 
Q 1318 2746 1209 2618 
Q 1101 2490 1040 2323 
Q 979 2157 960 1984 
L 2611 1984 
z
" transform="scale(0.015625)"/>
       <path id="Ubuntu-28" d="M 1094 1914 
Q 1094 1094 1331 396 
Q 1568 -301 2029 -896 
L 1606 -1184 
Q 1107 -576 803 214 
Q 499 1005 499 1914 
Q 499 2822 803 3612 
Q 1107 4403 1606 5011 
L 2029 4723 
Q 1568 4128 1331 3430 
Q 1094 2733 1094 1914 
z
" transform="scale(0.015625)"/>
       <path id="Ubuntu-67" d="M 2598 333 
Q 2522 282 2301 202 
Q 2080 122 1786 122 
Q 1485 122 1219 218 
Q 954 314 755 515 
Q 557 717 441 1017 
Q 326 1318 326 1734 
Q 326 2099 435 2403 
Q 544 2707 752 2928 
Q 960 3149 1261 3273 
Q 1562 3398 1939 3398 
Q 2355 3398 2665 3337 
Q 2976 3277 3187 3226 
L 3187 256 
Q 3187 -512 2790 -857 
Q 2394 -1203 1587 -1203 
Q 1274 -1203 995 -1152 
Q 717 -1101 512 -1030 
L 621 -512 
Q 800 -582 1059 -636 
Q 1318 -691 1600 -691 
Q 2131 -691 2364 -480 
Q 2598 -269 2598 192 
L 2598 333 
z
M 2592 2803 
Q 2502 2829 2352 2851 
Q 2202 2874 1946 2874 
Q 1466 2874 1206 2560 
Q 947 2246 947 1728 
Q 947 1440 1020 1235 
Q 1094 1030 1219 896 
Q 1344 762 1507 698 
Q 1670 634 1843 634 
Q 2080 634 2278 701 
Q 2477 768 2592 858 
L 2592 2803 
z
" transform="scale(0.015625)"/>
       <path id="Ubuntu-29" d="M 979 1914 
Q 979 2733 742 3430 
Q 506 4128 45 4723 
L 467 5011 
Q 966 4403 1270 3612 
Q 1574 2822 1574 1914 
Q 1574 1005 1270 214 
Q 966 -576 467 -1184 
L 45 -896 
Q 506 -301 742 396 
Q 979 1094 979 1914 
z
" transform="scale(0.015625)"/>
      </defs>
      <use xlink:href="#Ubuntu-52"/>
      <use xlink:href="#Ubuntu-65" x="62.899994"/>
      <use xlink:href="#Ubuntu-73" x="118.799988"/>
      <use xlink:href="#Ubuntu-69" x="163.399979"/>
      <use xlink:href="#Ubuntu-64" x="188.699966"/>
      <use xlink:href="#Ubuntu-75" x="247.59996"/>
      <use xlink:href="#Ubuntu-61" x="304.999954"/>
      <use xlink:href="#Ubuntu-6c" x="357.199951"/>
      <use xlink:href="#Ubuntu-73" x="384.499939"/>
      <use xlink:href="#Ubuntu-20" x="429.09993"/>
      <use xlink:href="#Ubuntu-28" x="452.199921"/>
      <use xlink:href="#Ubuntu-6f" x="484.599915"/>
      <use xlink:href="#Ubuntu-72" x="543.599899"/>
      <use xlink:href="#Ubuntu-69" x="582.19989"/>
      <use xlink:href="#Ubuntu-67" x="607.499878"/>
      <use xlink:href="#Ubuntu-69" x="665.299866"/>
      <use xlink:href="#Ubuntu-6e" x="690.599854"/>
      <use xlink:href="#Ubuntu-61" x="747.999847"/>
      <use xlink:href="#Ubuntu-6c" x="800.199844"/>
      <use xlink:href="#Ubuntu-29" x="827.499832"/>
     </g>
    </g>
    <g id="line2d_14">
     <path d="M 227.068438 13.86375 
L 235.068438 13.86375 
L 243.068438 13.86375 
" style="fill: none; stroke: #489079; stroke-width: 1.2; stroke-linecap: square"/>
    </g>
    <g id="text_14">
     <!-- Residuals (trimmed) -->
     <g style="fill: #4b4b4b" transform="translate(243.068438 16.66375) scale(0.08 -0.08)">
      <use xlink:href="#Ubuntu-52"/>
      <use xlink:href="#Ubuntu-65" x="62.899994"/>
      <use xlink:href="#Ubuntu-73" x="118.799988"/>
      <use xlink:href="#Ubuntu-69" x="163.399979"/>
      <use xlink:href="#Ubuntu-64" x="188.699966"/>
      <use xlink:href="#Ubuntu-75" x="247.59996"/>
      <use xlink:href="#Ubuntu-61" x="304.999954"/>
      <use xlink:href="#Ubuntu-6c" x="357.199951"/>
      <use xlink:href="#Ubuntu-73" x="384.499939"/>
      <use xlink:href="#Ubuntu-20" x="429.09993"/>
      <use xlink:href="#Ubuntu-28" x="452.199921"/>
      <use xlink:href="#Ubuntu-74" x="484.599915"/>
      <use xlink:href="#Ubuntu-72" x="524.799911"/>
      <use xlink:href="#Ubuntu-69" x="563.399902"/>
      <use xlink:href="#Ubuntu-6d" x="588.69989"/>
      <use xlink:href="#Ubuntu-6d" x="674.799881"/>
      <use xlink:href="#Ubuntu-65" x="760.899872"/>
      <use xlink:href="#Ubuntu-64" x="816.799866"/>
      <use xlink:href="#Ubuntu-29" x="875.69986"/>
     </g>
    </g>
   </g>
  </g>
 </g>
 <defs>
  <clipPath id="pb230f12424">
   <rect x="39.860938" y="25.3675" width="558" height="138.6"/>
  </clipPath>
 </defs>
</svg>
