<?xml version="1.0" encoding="utf-8" standalone="no"?>
<!DOCTYPE svg PUBLIC "-//W3C//DTD SVG 1.1//EN"
  "http://www.w3.org/Graphics/SVG/1.1/DTD/svg11.dtd">
<svg xmlns:xlink="http://www.w3.org/1999/xlink" width="554.757187pt" height="190.355pt" viewBox="0 0 554.757187 190.355" xmlns="http://www.w3.org/2000/svg" version="1.1">
 <metadata>
  <rdf:RDF xmlns:dc="http://purl.org/dc/elements/1.1/" xmlns:cc="http://creativecommons.org/ns#" xmlns:rdf="http://www.w3.org/1999/02/22-rdf-syntax-ns#">
   <cc:Work>
    <dc:type rdf:resource="http://purl.org/dc/dcmitype/StillImage"/>
    <dc:date>2024-02-20T11:32:17.084771</dc:date>
    <dc:format>image/svg+xml</dc:format>
    <dc:creator>
     <cc:Agent>
      <dc:title>Matplotlib v3.8.0, https://matplotlib.org/</dc:title>
     </cc:Agent>
    </dc:creator>
   </cc:Work>
  </rdf:RDF>
 </metadata>
 <defs>
  <style type="text/css">*{stroke-linejoin: round; stroke-linecap: butt}</style>
 </defs>
 <g id="figure_1">
  <g id="patch_1">
   <path d="M 0 190.355 
L 554.757187 190.355 
L 554.757187 0 
L 0 0 
L 0 190.355 
z
" style="fill: none"/>
  </g>
  <g id="axes_1">
   <g id="patch_2">
    <path d="M 39.860938 163.9675 
L 542.060938 163.9675 
L 542.060938 25.3675 
L 39.860938 25.3675 
L 39.860938 163.9675 
z
" style="fill: none"/>
   </g>
   <g id="matplotlib.axis_1">
    <g id="xtick_1">
     <g id="line2d_1">
      <defs>
       <path id="m08f802e8a3" d="M 0 0 
L 0 3 
" style="stroke: #bbbbbb; stroke-width: 0.75"/>
      </defs>
      <g>
       <use xlink:href="#m08f802e8a3" x="39.860937" y="168.9675" style="fill: #bbbbbb; stroke: #bbbbbb; stroke-width: 0.75"/>
      </g>
     </g>
     <g id="text_1">
      <!-- −1.0 -->
      <g style="fill: #9f9f9f" transform="translate(32.108437 181.675) scale(0.08 -0.08)">
       <defs>
        <path id="Ubuntu-2212" d="M 339 2138 
L 3270 2138 
L 3270 1632 
L 339 1632 
L 339 2138 
z
" transform="scale(0.015625)"/>
        <path id="Ubuntu-31" d="M 595 3520 
Q 960 3661 1305 3881 
Q 1651 4102 1939 4435 
L 2362 4435 
L 2362 0 
L 1766 0 
L 1766 3610 
Q 1690 3539 1578 3462 
Q 1466 3386 1334 3315 
Q 1203 3245 1059 3181 
Q 915 3117 781 3072 
L 595 3520 
z
" transform="scale(0.015625)"/>
        <path id="Ubuntu-2e" d="M 1216 346 
Q 1216 173 1101 45 
Q 986 -83 787 -83 
Q 589 -83 473 45 
Q 358 173 358 346 
Q 358 518 473 646 
Q 589 774 787 774 
Q 986 774 1101 646 
Q 1216 518 1216 346 
z
" transform="scale(0.015625)"/>
        <path id="Ubuntu-30" d="M 320 2221 
Q 320 3334 713 3936 
Q 1107 4538 1805 4538 
Q 2502 4538 2896 3936 
Q 3290 3334 3290 2221 
Q 3290 1107 2896 505 
Q 2502 -96 1805 -96 
Q 1107 -96 713 505 
Q 320 1107 320 2221 
z
M 2662 2221 
Q 2662 2586 2620 2912 
Q 2579 3238 2480 3481 
Q 2381 3725 2214 3869 
Q 2048 4013 1805 4013 
Q 1562 4013 1395 3869 
Q 1229 3725 1129 3481 
Q 1030 3238 988 2912 
Q 947 2586 947 2221 
Q 947 1856 988 1529 
Q 1030 1203 1129 960 
Q 1229 717 1395 573 
Q 1562 429 1805 429 
Q 2048 429 2214 573 
Q 2381 717 2480 960 
Q 2579 1203 2620 1529 
Q 2662 1856 2662 2221 
z
" transform="scale(0.015625)"/>
       </defs>
       <use xlink:href="#Ubuntu-2212"/>
       <use xlink:href="#Ubuntu-31" x="56.399994"/>
       <use xlink:href="#Ubuntu-2e" x="112.799988"/>
       <use xlink:href="#Ubuntu-30" x="137.399979"/>
      </g>
     </g>
    </g>
    <g id="xtick_2">
     <g id="line2d_2">
      <g>
       <use xlink:href="#m08f802e8a3" x="165.410937" y="168.9675" style="fill: #bbbbbb; stroke: #bbbbbb; stroke-width: 0.75"/>
      </g>
     </g>
     <g id="text_2">
      <!-- −0.5 -->
      <g style="fill: #9f9f9f" transform="translate(157.658437 181.675) scale(0.08 -0.08)">
       <defs>
        <path id="Ubuntu-35" d="M 1274 2726 
Q 2240 2688 2691 2304 
Q 3142 1920 3142 1261 
Q 3142 966 3043 716 
Q 2944 467 2742 288 
Q 2541 109 2233 6 
Q 1926 -96 1504 -96 
Q 1338 -96 1165 -70 
Q 992 -45 845 -6 
Q 698 32 582 70 
Q 467 109 416 134 
L 531 653 
Q 640 602 886 518 
Q 1133 435 1491 435 
Q 1779 435 1974 499 
Q 2170 563 2291 672 
Q 2413 781 2467 925 
Q 2522 1069 2522 1229 
Q 2522 1472 2438 1661 
Q 2355 1850 2144 1978 
Q 1933 2106 1581 2173 
Q 1229 2240 691 2240 
Q 730 2554 752 2829 
Q 774 3104 793 3366 
Q 813 3629 825 3888 
Q 838 4147 851 4435 
L 2989 4435 
L 2989 3930 
L 1370 3930 
Q 1363 3834 1350 3670 
Q 1338 3507 1325 3331 
Q 1312 3155 1299 2988 
Q 1286 2822 1274 2726 
z
" transform="scale(0.015625)"/>
       </defs>
       <use xlink:href="#Ubuntu-2212"/>
       <use xlink:href="#Ubuntu-30" x="56.399994"/>
       <use xlink:href="#Ubuntu-2e" x="112.799988"/>
       <use xlink:href="#Ubuntu-35" x="137.399979"/>
      </g>
     </g>
    </g>
    <g id="xtick_3">
     <g id="line2d_3">
      <g>
       <use xlink:href="#m08f802e8a3" x="290.960938" y="168.9675" style="fill: #bbbbbb; stroke: #bbbbbb; stroke-width: 0.75"/>
      </g>
     </g>
     <g id="text_3">
      <!-- 0.0 -->
      <g style="fill: #9f9f9f" transform="translate(285.464688 181.675) scale(0.08 -0.08)">
       <use xlink:href="#Ubuntu-30"/>
       <use xlink:href="#Ubuntu-2e" x="56.399994"/>
       <use xlink:href="#Ubuntu-30" x="80.999985"/>
      </g>
     </g>
    </g>
    <g id="xtick_4">
     <g id="line2d_4">
      <g>
       <use xlink:href="#m08f802e8a3" x="416.510938" y="168.9675" style="fill: #bbbbbb; stroke: #bbbbbb; stroke-width: 0.75"/>
      </g>
     </g>
     <g id="text_4">
      <!-- 0.5 -->
      <g style="fill: #9f9f9f" transform="translate(411.014688 181.675) scale(0.08 -0.08)">
       <use xlink:href="#Ubuntu-30"/>
       <use xlink:href="#Ubuntu-2e" x="56.399994"/>
       <use xlink:href="#Ubuntu-35" x="80.999985"/>
      </g>
     </g>
    </g>
    <g id="xtick_5">
     <g id="line2d_5">
      <g>
       <use xlink:href="#m08f802e8a3" x="542.060938" y="168.9675" style="fill: #bbbbbb; stroke: #bbbbbb; stroke-width: 0.75"/>
      </g>
     </g>
     <g id="text_5">
      <!-- 1.0 -->
      <g style="fill: #9f9f9f" transform="translate(536.564687 181.675) scale(0.08 -0.08)">
       <use xlink:href="#Ubuntu-31"/>
       <use xlink:href="#Ubuntu-2e" x="56.399994"/>
       <use xlink:href="#Ubuntu-30" x="80.999985"/>
      </g>
     </g>
    </g>
   </g>
   <g id="matplotlib.axis_2">
    <g id="ytick_1">
     <g id="line2d_6">
      <defs>
       <path id="mb4ef6a848f" d="M 0 0 
L -3 0 
" style="stroke: #bbbbbb; stroke-width: 0.75"/>
      </defs>
      <g>
       <use xlink:href="#mb4ef6a848f" x="34.860938" y="163.9675" style="fill: #bbbbbb; stroke: #bbbbbb; stroke-width: 0.75"/>
      </g>
     </g>
     <g id="text_6">
      <!-- 0 -->
      <g style="fill: #9f9f9f" transform="translate(23.848438 167.07125) scale(0.08 -0.08)">
       <use xlink:href="#Ubuntu-30"/>
      </g>
     </g>
    </g>
    <g id="ytick_2">
     <g id="line2d_7">
      <g>
       <use xlink:href="#mb4ef6a848f" x="34.860938" y="129.3175" style="fill: #bbbbbb; stroke: #bbbbbb; stroke-width: 0.75"/>
      </g>
     </g>
     <g id="text_7">
      <!-- 1 -->
      <g style="fill: #9f9f9f" transform="translate(23.848438 132.42125) scale(0.08 -0.08)">
       <use xlink:href="#Ubuntu-31"/>
      </g>
     </g>
    </g>
    <g id="ytick_3">
     <g id="line2d_8">
      <g>
       <use xlink:href="#mb4ef6a848f" x="34.860938" y="94.6675" style="fill: #bbbbbb; stroke: #bbbbbb; stroke-width: 0.75"/>
      </g>
     </g>
     <g id="text_8">
      <!-- 2 -->
      <g style="fill: #9f9f9f" transform="translate(23.848438 97.77125) scale(0.08 -0.08)">
       <defs>
        <path id="Ubuntu-32" d="M 2989 3302 
Q 2989 3072 2896 2857 
Q 2803 2643 2649 2435 
Q 2496 2227 2304 2025 
Q 2112 1824 1920 1632 
Q 1811 1523 1667 1376 
Q 1523 1229 1395 1069 
Q 1267 909 1180 761 
Q 1094 614 1094 506 
L 3136 506 
L 3136 0 
L 448 0 
Q 442 38 442 76 
Q 442 115 442 147 
Q 442 448 541 707 
Q 640 966 800 1196 
Q 960 1427 1158 1632 
Q 1357 1837 1549 2029 
Q 1709 2182 1853 2332 
Q 1997 2483 2109 2633 
Q 2221 2784 2288 2944 
Q 2355 3104 2355 3283 
Q 2355 3475 2294 3609 
Q 2234 3744 2131 3833 
Q 2029 3923 1891 3964 
Q 1754 4006 1600 4006 
Q 1414 4006 1260 3955 
Q 1107 3904 985 3837 
Q 864 3770 781 3696 
Q 698 3622 653 3584 
L 358 4006 
Q 416 4070 531 4163 
Q 646 4256 806 4339 
Q 966 4422 1164 4480 
Q 1363 4538 1594 4538 
Q 2291 4538 2640 4214 
Q 2989 3891 2989 3302 
z
" transform="scale(0.015625)"/>
       </defs>
       <use xlink:href="#Ubuntu-32"/>
      </g>
     </g>
    </g>
    <g id="ytick_4">
     <g id="line2d_9">
      <g>
       <use xlink:href="#mb4ef6a848f" x="34.860938" y="60.0175" style="fill: #bbbbbb; stroke: #bbbbbb; stroke-width: 0.75"/>
      </g>
     </g>
     <g id="text_9">
      <!-- 3 -->
      <g style="fill: #9f9f9f" transform="translate(23.848438 63.12125) scale(0.08 -0.08)">
       <defs>
        <path id="Ubuntu-33" d="M 1446 435 
Q 2016 435 2262 659 
Q 2509 883 2509 1261 
Q 2509 1504 2406 1670 
Q 2304 1837 2137 1936 
Q 1971 2035 1750 2076 
Q 1530 2118 1299 2118 
L 1146 2118 
L 1146 2605 
L 1357 2605 
Q 1517 2605 1686 2637 
Q 1856 2669 1997 2752 
Q 2138 2835 2227 2979 
Q 2317 3123 2317 3341 
Q 2317 3520 2253 3648 
Q 2189 3776 2083 3859 
Q 1978 3942 1840 3977 
Q 1702 4013 1549 4013 
Q 1242 4013 1027 3923 
Q 813 3834 666 3738 
L 435 4192 
Q 512 4243 630 4304 
Q 749 4365 896 4416 
Q 1043 4467 1212 4502 
Q 1382 4538 1568 4538 
Q 1920 4538 2176 4451 
Q 2432 4365 2598 4208 
Q 2765 4051 2848 3836 
Q 2931 3622 2931 3373 
Q 2931 3027 2732 2780 
Q 2534 2534 2253 2406 
Q 2426 2355 2586 2259 
Q 2746 2163 2864 2016 
Q 2982 1869 3056 1677 
Q 3130 1485 3130 1248 
Q 3130 960 3030 713 
Q 2931 467 2723 288 
Q 2515 109 2201 6 
Q 1888 -96 1459 -96 
Q 1293 -96 1117 -70 
Q 941 -45 787 -6 
Q 634 32 518 70 
Q 403 109 352 134 
L 467 653 
Q 576 602 829 518 
Q 1082 435 1446 435 
z
" transform="scale(0.015625)"/>
       </defs>
       <use xlink:href="#Ubuntu-33"/>
      </g>
     </g>
    </g>
    <g id="ytick_5">
     <g id="line2d_10">
      <g>
       <use xlink:href="#mb4ef6a848f" x="34.860938" y="25.3675" style="fill: #bbbbbb; stroke: #bbbbbb; stroke-width: 0.75"/>
      </g>
     </g>
     <g id="text_10">
      <!-- 4 -->
      <g style="fill: #9f9f9f" transform="translate(23.848438 28.47125) scale(0.08 -0.08)">
       <defs>
        <path id="Ubuntu-34" d="M 256 1536 
Q 378 1818 589 2192 
Q 800 2566 1065 2963 
Q 1331 3360 1635 3744 
Q 1939 4128 2246 4435 
L 2816 4435 
L 2816 1619 
L 3341 1619 
L 3341 1133 
L 2816 1133 
L 2816 0 
L 2240 0 
L 2240 1133 
L 256 1133 
L 256 1536 
z
M 2240 3731 
Q 2048 3526 1853 3273 
Q 1658 3021 1472 2745 
Q 1286 2470 1123 2182 
Q 960 1894 832 1619 
L 2240 1619 
L 2240 3731 
z
" transform="scale(0.015625)"/>
       </defs>
       <use xlink:href="#Ubuntu-34"/>
      </g>
     </g>
    </g>
    <g id="text_11">
     <!-- Density -->
     <g style="fill: #505050" transform="translate(14.183438 58.535313) rotate(-90) scale(0.09 -0.09)">
      <defs>
       <path id="Ubuntu-Bold-44" d="M 1510 813 
Q 1581 806 1673 803 
Q 1766 800 1894 800 
Q 2643 800 3004 1177 
Q 3366 1555 3366 2221 
Q 3366 2918 3020 3276 
Q 2675 3635 1926 3635 
Q 1824 3635 1715 3632 
Q 1606 3629 1510 3616 
L 1510 813 
z
M 4397 2221 
Q 4397 1645 4217 1216 
Q 4038 787 3708 505 
Q 3379 224 2905 83 
Q 2432 -58 1843 -58 
Q 1574 -58 1216 -35 
Q 858 -13 512 58 
L 512 4378 
Q 858 4442 1232 4464 
Q 1606 4486 1875 4486 
Q 2445 4486 2909 4358 
Q 3373 4230 3705 3955 
Q 4038 3680 4217 3251 
Q 4397 2822 4397 2221 
z
" transform="scale(0.015625)"/>
       <path id="Ubuntu-Bold-65" d="M 288 1658 
Q 288 2106 425 2442 
Q 563 2778 787 3002 
Q 1011 3226 1302 3341 
Q 1594 3456 1901 3456 
Q 2618 3456 3034 3017 
Q 3450 2579 3450 1728 
Q 3450 1645 3443 1545 
Q 3437 1446 3430 1370 
L 1267 1370 
Q 1299 1075 1542 902 
Q 1786 730 2195 730 
Q 2458 730 2710 778 
Q 2963 826 3123 896 
L 3251 122 
Q 3174 83 3046 44 
Q 2918 6 2761 -22 
Q 2605 -51 2425 -70 
Q 2246 -90 2067 -90 
Q 1613 -90 1277 44 
Q 941 179 720 412 
Q 499 646 393 966 
Q 288 1286 288 1658 
z
M 2528 2022 
Q 2522 2144 2486 2259 
Q 2451 2374 2377 2464 
Q 2304 2554 2192 2611 
Q 2080 2669 1914 2669 
Q 1754 2669 1638 2614 
Q 1523 2560 1446 2470 
Q 1370 2381 1328 2262 
Q 1286 2144 1267 2022 
L 2528 2022 
z
" transform="scale(0.015625)"/>
       <path id="Ubuntu-Bold-6e" d="M 448 3251 
Q 691 3322 1075 3382 
Q 1459 3443 1882 3443 
Q 2310 3443 2595 3331 
Q 2880 3219 3046 3014 
Q 3213 2810 3283 2528 
Q 3354 2246 3354 1901 
L 3354 0 
L 2400 0 
L 2400 1786 
Q 2400 2246 2278 2438 
Q 2157 2630 1824 2630 
Q 1722 2630 1606 2620 
Q 1491 2611 1402 2598 
L 1402 0 
L 448 0 
L 448 3251 
z
" transform="scale(0.015625)"/>
       <path id="Ubuntu-Bold-73" d="M 1414 685 
Q 1677 685 1785 736 
Q 1894 787 1894 934 
Q 1894 1050 1753 1136 
Q 1613 1222 1325 1331 
Q 1101 1414 918 1504 
Q 736 1594 608 1718 
Q 480 1843 409 2016 
Q 339 2189 339 2432 
Q 339 2906 691 3181 
Q 1043 3456 1658 3456 
Q 1965 3456 2246 3401 
Q 2528 3347 2694 3283 
L 2528 2541 
Q 2362 2598 2166 2643 
Q 1971 2688 1728 2688 
Q 1280 2688 1280 2438 
Q 1280 2381 1299 2336 
Q 1318 2291 1376 2249 
Q 1434 2208 1533 2160 
Q 1632 2112 1786 2054 
Q 2099 1939 2304 1827 
Q 2509 1715 2627 1584 
Q 2746 1453 2794 1293 
Q 2842 1133 2842 922 
Q 2842 422 2467 166 
Q 2093 -90 1408 -90 
Q 960 -90 662 -13 
Q 365 64 250 115 
L 410 890 
Q 653 794 909 739 
Q 1165 685 1414 685 
z
" transform="scale(0.015625)"/>
       <path id="Ubuntu-Bold-69" d="M 1402 0 
L 448 0 
L 448 3366 
L 1402 3366 
L 1402 0 
z
M 1491 4339 
Q 1491 4077 1321 3926 
Q 1152 3776 922 3776 
Q 691 3776 521 3926 
Q 352 4077 352 4339 
Q 352 4602 521 4752 
Q 691 4902 922 4902 
Q 1152 4902 1321 4752 
Q 1491 4602 1491 4339 
z
" transform="scale(0.015625)"/>
       <path id="Ubuntu-Bold-74" d="M 416 4205 
L 1370 4358 
L 1370 3366 
L 2515 3366 
L 2515 2573 
L 1370 2573 
L 1370 1389 
Q 1370 1088 1475 909 
Q 1581 730 1901 730 
Q 2054 730 2217 758 
Q 2381 787 2515 838 
L 2650 96 
Q 2477 26 2265 -25 
Q 2054 -77 1747 -77 
Q 1357 -77 1101 28 
Q 845 134 691 323 
Q 538 512 477 781 
Q 416 1050 416 1376 
L 416 4205 
z
" transform="scale(0.015625)"/>
       <path id="Ubuntu-Bold-79" d="M 3437 3366 
Q 3149 2394 2835 1542 
Q 2522 691 2150 -109 
Q 2016 -397 1881 -598 
Q 1747 -800 1587 -931 
Q 1427 -1062 1225 -1123 
Q 1024 -1184 755 -1184 
Q 531 -1184 342 -1142 
Q 154 -1101 32 -1050 
L 198 -288 
Q 346 -339 461 -358 
Q 576 -378 704 -378 
Q 960 -378 1097 -240 
Q 1235 -102 1331 141 
Q 1005 781 678 1577 
Q 352 2374 64 3366 
L 1075 3366 
Q 1139 3117 1225 2825 
Q 1312 2534 1408 2236 
Q 1504 1939 1603 1657 
Q 1702 1376 1792 1146 
Q 1875 1376 1964 1657 
Q 2054 1939 2140 2236 
Q 2227 2534 2307 2825 
Q 2387 3117 2451 3366 
L 3437 3366 
z
" transform="scale(0.015625)"/>
      </defs>
      <use xlink:href="#Ubuntu-Bold-44"/>
      <use xlink:href="#Ubuntu-Bold-65" x="73.699982"/>
      <use xlink:href="#Ubuntu-Bold-6e" x="132.099976"/>
      <use xlink:href="#Ubuntu-Bold-73" x="190.999969"/>
      <use xlink:href="#Ubuntu-Bold-69" x="239.499954"/>
      <use xlink:href="#Ubuntu-Bold-74" x="268.399948"/>
      <use xlink:href="#Ubuntu-Bold-79" x="313.799942"/>
     </g>
    </g>
   </g>
   <g id="PolyCollection_1">
    <defs>
     <path id="m79239d8963" d="M 156.608209 -26.391437 
L 156.608209 -26.3875 
L 157.908194 -26.3875 
L 159.208178 -26.3875 
L 160.508163 -26.3875 
L 161.808147 -26.3875 
L 163.108132 -26.3875 
L 164.408116 -26.3875 
L 165.708101 -26.3875 
L 167.008085 -26.3875 
L 168.30807 -26.3875 
L 169.608054 -26.3875 
L 170.908039 -26.3875 
L 172.208023 -26.3875 
L 173.508008 -26.3875 
L 174.807992 -26.3875 
L 176.107977 -26.3875 
L 177.407961 -26.3875 
L 178.707946 -26.3875 
L 180.00793 -26.3875 
L 181.307915 -26.3875 
L 182.607899 -26.3875 
L 183.907884 -26.3875 
L 185.207868 -26.3875 
L 186.507853 -26.3875 
L 187.807837 -26.3875 
L 189.107822 -26.3875 
L 190.407806 -26.3875 
L 191.707791 -26.3875 
L 193.007775 -26.3875 
L 194.30776 -26.3875 
L 195.607744 -26.3875 
L 196.907729 -26.3875 
L 198.207713 -26.3875 
L 199.507698 -26.3875 
L 200.807682 -26.3875 
L 202.107667 -26.3875 
L 203.407651 -26.3875 
L 204.707636 -26.3875 
L 206.00762 -26.3875 
L 207.307605 -26.3875 
L 208.607589 -26.3875 
L 209.907574 -26.3875 
L 211.207558 -26.3875 
L 212.507543 -26.3875 
L 213.807527 -26.3875 
L 215.107512 -26.3875 
L 216.407496 -26.3875 
L 217.707481 -26.3875 
L 219.007465 -26.3875 
L 220.30745 -26.3875 
L 221.607434 -26.3875 
L 222.907419 -26.3875 
L 224.207403 -26.3875 
L 225.507388 -26.3875 
L 226.807372 -26.3875 
L 228.107357 -26.3875 
L 229.407341 -26.3875 
L 230.707326 -26.3875 
L 232.00731 -26.3875 
L 233.307295 -26.3875 
L 234.607279 -26.3875 
L 235.907264 -26.3875 
L 237.207248 -26.3875 
L 238.507233 -26.3875 
L 239.807217 -26.3875 
L 241.107201 -26.3875 
L 242.407186 -26.3875 
L 243.70717 -26.3875 
L 245.007155 -26.3875 
L 246.307139 -26.3875 
L 247.607124 -26.3875 
L 248.907108 -26.3875 
L 250.207093 -26.3875 
L 251.507077 -26.3875 
L 252.807062 -26.3875 
L 254.107046 -26.3875 
L 255.407031 -26.3875 
L 256.707015 -26.3875 
L 258.007 -26.3875 
L 259.306984 -26.3875 
L 260.606969 -26.3875 
L 261.906953 -26.3875 
L 263.206938 -26.3875 
L 264.506922 -26.3875 
L 265.806907 -26.3875 
L 267.106891 -26.3875 
L 268.406876 -26.3875 
L 269.70686 -26.3875 
L 271.006845 -26.3875 
L 272.306829 -26.3875 
L 273.606814 -26.3875 
L 274.906798 -26.3875 
L 276.206783 -26.3875 
L 277.506767 -26.3875 
L 278.806752 -26.3875 
L 280.106736 -26.3875 
L 281.406721 -26.3875 
L 282.706705 -26.3875 
L 284.00669 -26.3875 
L 285.306674 -26.3875 
L 286.606659 -26.3875 
L 287.906643 -26.3875 
L 289.206628 -26.3875 
L 290.506612 -26.3875 
L 291.806597 -26.3875 
L 293.106581 -26.3875 
L 294.406566 -26.3875 
L 295.70655 -26.3875 
L 297.006535 -26.3875 
L 298.306519 -26.3875 
L 299.606504 -26.3875 
L 300.906488 -26.3875 
L 302.206473 -26.3875 
L 303.506457 -26.3875 
L 304.806442 -26.3875 
L 306.106426 -26.3875 
L 307.406411 -26.3875 
L 308.706395 -26.3875 
L 310.00638 -26.3875 
L 311.306364 -26.3875 
L 312.606349 -26.3875 
L 313.906333 -26.3875 
L 315.206318 -26.3875 
L 316.506302 -26.3875 
L 317.806287 -26.3875 
L 319.106271 -26.3875 
L 320.406256 -26.3875 
L 321.70624 -26.3875 
L 323.006225 -26.3875 
L 324.306209 -26.3875 
L 325.606194 -26.3875 
L 326.906178 -26.3875 
L 328.206163 -26.3875 
L 329.506147 -26.3875 
L 330.806132 -26.3875 
L 332.106116 -26.3875 
L 333.406101 -26.3875 
L 334.706085 -26.3875 
L 336.00607 -26.3875 
L 337.306054 -26.3875 
L 338.606039 -26.3875 
L 339.906023 -26.3875 
L 341.206008 -26.3875 
L 342.505992 -26.3875 
L 343.805977 -26.3875 
L 345.105961 -26.3875 
L 346.405946 -26.3875 
L 347.70593 -26.3875 
L 349.005915 -26.3875 
L 350.305899 -26.3875 
L 351.605884 -26.3875 
L 352.905868 -26.3875 
L 354.205853 -26.3875 
L 355.505837 -26.3875 
L 356.805822 -26.3875 
L 358.105806 -26.3875 
L 359.405791 -26.3875 
L 360.705775 -26.3875 
L 362.00576 -26.3875 
L 363.305744 -26.3875 
L 364.605729 -26.3875 
L 365.905713 -26.3875 
L 367.205698 -26.3875 
L 368.505682 -26.3875 
L 369.805667 -26.3875 
L 371.105651 -26.3875 
L 372.405636 -26.3875 
L 373.70562 -26.3875 
L 375.005605 -26.3875 
L 376.305589 -26.3875 
L 377.605574 -26.3875 
L 378.905558 -26.3875 
L 380.205543 -26.3875 
L 381.505527 -26.3875 
L 382.805512 -26.3875 
L 384.105496 -26.3875 
L 385.405481 -26.3875 
L 386.705465 -26.3875 
L 388.00545 -26.3875 
L 389.305434 -26.3875 
L 390.605419 -26.3875 
L 391.905403 -26.3875 
L 393.205388 -26.3875 
L 394.505372 -26.3875 
L 395.805357 -26.3875 
L 397.105341 -26.3875 
L 398.405326 -26.3875 
L 399.70531 -26.3875 
L 401.005295 -26.3875 
L 402.305279 -26.3875 
L 403.605264 -26.3875 
L 404.905248 -26.3875 
L 406.205233 -26.3875 
L 407.505217 -26.3875 
L 408.805202 -26.3875 
L 410.105186 -26.3875 
L 411.405171 -26.3875 
L 412.705155 -26.3875 
L 414.00514 -26.3875 
L 415.305124 -26.3875 
L 415.305124 -26.391488 
L 415.305124 -26.391488 
L 414.00514 -26.394066 
L 412.705155 -26.398019 
L 411.405171 -26.403902 
L 410.105186 -26.4124 
L 408.805202 -26.424323 
L 407.505217 -26.440573 
L 406.205233 -26.462106 
L 404.905248 -26.489873 
L 403.605264 -26.524761 
L 402.305279 -26.567547 
L 401.005295 -26.618875 
L 399.70531 -26.679276 
L 398.405326 -26.749229 
L 397.105341 -26.829266 
L 395.805357 -26.920098 
L 394.505372 -27.022736 
L 393.205388 -27.138591 
L 391.905403 -27.269513 
L 390.605419 -27.417756 
L 389.305434 -27.585871 
L 388.00545 -27.776525 
L 386.705465 -27.992249 
L 385.405481 -28.235139 
L 384.105496 -28.50651 
L 382.805512 -28.806517 
L 381.505527 -29.133789 
L 380.205543 -29.485127 
L 378.905558 -29.855356 
L 377.605574 -30.237445 
L 376.305589 -30.622991 
L 375.005605 -31.003136 
L 373.70562 -31.369883 
L 372.405636 -31.71768 
L 371.105651 -32.045051 
L 369.805667 -32.355947 
L 368.505682 -32.660516 
L 367.205698 -32.975046 
L 365.905713 -33.32095 
L 364.605729 -33.722856 
L 363.305744 -34.206036 
L 362.00576 -34.793525 
L 360.705775 -35.50338 
L 359.405791 -36.346502 
L 358.105806 -37.325373 
L 356.805822 -38.433942 
L 355.505837 -39.658703 
L 354.205853 -40.980866 
L 352.905868 -42.379337 
L 351.605884 -43.834115 
L 350.305899 -45.329618 
L 349.005915 -46.857429 
L 347.70593 -48.418029 
L 346.405946 -50.021198 
L 345.105961 -51.684976 
L 343.805977 -53.433302 
L 342.505992 -55.292697 
L 341.206008 -57.28847 
L 339.906023 -59.44107 
L 338.606039 -61.763106 
L 337.306054 -64.257448 
L 336.00607 -66.916618 
L 334.706085 -69.72344 
L 333.406101 -72.652732 
L 332.106116 -75.673715 
L 330.806132 -78.752728 
L 329.506147 -81.855905 
L 328.206163 -84.951504 
L 326.906178 -88.011704 
L 325.606194 -91.013764 
L 324.306209 -93.94053 
L 323.006225 -96.780357 
L 321.70624 -99.526529 
L 320.406256 -102.176316 
L 319.106271 -104.729792 
L 317.806287 -107.188523 
L 316.506302 -109.554203 
L 315.206318 -111.827312 
L 313.906333 -114.005859 
L 312.606349 -116.084299 
L 311.306364 -118.052778 
L 310.00638 -119.896893 
L 308.706395 -121.59814 
L 307.406411 -123.135193 
L 306.106426 -124.48597 
L 304.806442 -125.63029 
L 303.506457 -126.552717 
L 302.206473 -127.24508 
L 300.906488 -127.708144 
L 299.606504 -127.952059 
L 298.306519 -127.995426 
L 297.006535 -127.863164 
L 295.70655 -127.583614 
L 294.406566 -127.185479 
L 293.106581 -126.695251 
L 291.806597 -126.135597 
L 290.506612 -125.524931 
L 289.206628 -124.878037 
L 287.906643 -124.207334 
L 286.606659 -123.524178 
L 285.306674 -122.83957 
L 284.00669 -122.163852 
L 282.706705 -121.505237 
L 281.406721 -120.867439 
L 280.106736 -120.246975 
L 278.806752 -119.630922 
L 277.506767 -118.995858 
L 276.206783 -118.308538 
L 274.906798 -117.528415 
L 273.606814 -116.611715 
L 272.306829 -115.516371 
L 271.006845 -114.206964 
L 269.70686 -112.658775 
L 268.406876 -110.860349 
L 267.106891 -108.814295 
L 265.806907 -106.536449 
L 264.506922 -104.053822 
L 263.206938 -101.401911 
L 261.906953 -98.621892 
L 260.606969 -95.758058 
L 259.306984 -92.855637 
L 258.007 -89.958917 
L 256.707015 -87.109502 
L 255.407031 -84.344565 
L 254.107046 -81.695041 
L 252.807062 -79.1839 
L 251.507077 -76.824732 
L 250.207093 -74.620979 
L 248.907108 -72.566067 
L 247.607124 -70.644557 
L 246.307139 -68.834267 
L 245.007155 -67.109077 
L 243.70717 -65.44203 
L 242.407186 -63.808248 
L 241.107201 -62.187265 
L 239.807217 -60.564496 
L 238.507233 -58.931763 
L 237.207248 -57.286955 
L 235.907264 -55.633075 
L 234.607279 -53.976942 
L 233.307295 -52.327847 
L 232.00731 -50.696339 
L 230.707326 -49.09324 
L 229.407341 -47.528903 
L 228.107357 -46.012649 
L 226.807372 -44.552339 
L 225.507388 -43.154052 
L 224.207403 -41.821878 
L 222.907419 -40.557877 
L 221.607434 -39.362249 
L 220.30745 -38.233717 
L 219.007465 -37.170095 
L 217.707481 -36.168939 
L 216.407496 -35.228154 
L 215.107512 -34.346428 
L 213.807527 -33.523419 
L 212.507543 -32.759641 
L 211.207558 -32.056113 
L 209.907574 -31.413852 
L 208.607589 -30.833346 
L 207.307605 -30.314105 
L 206.00762 -29.854403 
L 204.707636 -29.451218 
L 203.407651 -29.100389 
L 202.107667 -28.796917 
L 200.807682 -28.535348 
L 199.507698 -28.310172 
L 198.207713 -28.11616 
L 196.907729 -27.948609 
L 195.607744 -27.803479 
L 194.30776 -27.677413 
L 193.007775 -27.567669 
L 191.707791 -27.471993 
L 190.407806 -27.388455 
L 189.107822 -27.315294 
L 187.807837 -27.25079 
L 186.507853 -27.193187 
L 185.207868 -27.140679 
L 183.907884 -27.091458 
L 182.607899 -27.043821 
L 181.307915 -26.996297 
L 180.00793 -26.947794 
L 178.707946 -26.897708 
L 177.407961 -26.845984 
L 176.107977 -26.793099 
L 174.807992 -26.739977 
L 173.508008 -26.68784 
L 172.208023 -26.638025 
L 170.908039 -26.591798 
L 169.608054 -26.550192 
L 168.30807 -26.513904 
L 167.008085 -26.483245 
L 165.708101 -26.458159 
L 164.408116 -26.438281 
L 163.108132 -26.423025 
L 161.808147 -26.411684 
L 160.508163 -26.403517 
L 159.208178 -26.397818 
L 157.908194 -26.393963 
L 156.608209 -26.391437 
z
" style="stroke: #858585; stroke-width: 0.01"/>
    </defs>
    <g clip-path="url(#pbe37980a8c)">
     <use xlink:href="#m79239d8963" x="0" y="190.355" style="fill: #858585; fill-opacity: 0.25; stroke: #858585; stroke-width: 0.01"/>
    </g>
   </g>
   <g id="line2d_11">
    <path d="M 79.381006 163.963482 
L 90.330494 163.855537 
L 103.104897 163.610247 
L 119.529129 163.747104 
L 132.303532 163.479755 
L 145.077934 163.34076 
L 152.377593 162.983398 
L 159.677252 162.631467 
L 165.151996 162.635854 
L 176.101484 162.864864 
L 179.751313 162.659431 
L 185.226057 161.985214 
L 188.875886 161.550028 
L 192.525716 161.364752 
L 196.175545 161.44671 
L 201.650289 161.666267 
L 205.300118 161.592183 
L 208.949948 161.226962 
L 212.599777 160.523928 
L 216.249607 159.424647 
L 218.074521 158.699041 
L 219.899436 157.838001 
L 221.724351 156.829503 
L 223.549265 155.668073 
L 227.199095 152.924683 
L 230.848924 149.807759 
L 236.323668 144.865478 
L 239.973497 141.18095 
L 241.798412 139.08139 
L 243.623327 136.774427 
L 247.273156 131.583301 
L 250.922985 125.74691 
L 252.7479 122.555801 
L 254.572815 119.10906 
L 256.397729 115.340714 
L 258.222644 111.208081 
L 260.047559 106.713101 
L 263.697388 96.886807 
L 270.997047 76.651764 
L 274.646876 67.357578 
L 278.296705 58.968768 
L 280.12162 55.178251 
L 281.946535 51.688885 
L 283.771449 48.523458 
L 285.596364 45.706955 
L 287.421279 43.269017 
L 289.246193 41.243965 
L 291.071108 39.668375 
L 292.896023 38.578424 
L 294.720937 38.010081 
L 296.545852 38.003627 
L 298.370767 38.61053 
L 300.195681 39.897257 
L 302.020596 41.939591 
L 303.845511 44.804133 
L 305.670425 48.520059 
L 307.49534 53.050902 
L 309.320255 58.279118 
L 312.970084 70.015989 
L 316.619913 81.927159 
L 320.269743 92.779079 
L 323.919572 102.390163 
L 327.569401 111.100985 
L 331.219231 119.163627 
L 334.86906 126.683943 
L 338.518889 133.764639 
L 342.168719 140.388107 
L 343.993633 143.437179 
L 345.818548 146.229006 
L 347.643463 148.702939 
L 349.468377 150.818185 
L 351.293292 152.564791 
L 353.118207 153.966213 
L 354.943121 155.073255 
L 356.768036 155.952048 
L 360.417865 157.285275 
L 364.067695 158.348906 
L 367.717524 159.264492 
L 371.367353 160.013603 
L 391.441415 163.384554 
L 395.091244 163.578289 
L 402.390903 163.572116 
L 422.464964 163.609903 
L 442.539026 163.963481 
L 442.539026 163.963481 
" clip-path="url(#pbe37980a8c)" style="fill: none; stroke: #af5a51; stroke-width: 1.2; stroke-linecap: square"/>
   </g>
   <g id="line2d_12">
    <path d="M 203.102518 163.953484 
L 208.377806 163.816 
L 211.015449 163.572013 
L 213.653093 163.07261 
L 215.411523 162.534931 
L 217.169952 161.79545 
L 218.928381 160.833648 
L 220.68681 159.642996 
L 222.44524 158.231195 
L 225.082884 155.750317 
L 228.599742 152.006808 
L 232.116601 148.290491 
L 234.754245 145.817863 
L 239.150318 141.919633 
L 240.908747 140.065868 
L 242.667176 137.880614 
L 244.425605 135.364738 
L 247.942464 129.744259 
L 254.096966 119.51772 
L 255.855396 116.124454 
L 257.613825 112.22665 
L 259.372254 107.762238 
L 262.009898 100.171141 
L 269.043615 78.945399 
L 272.560474 69.233984 
L 276.077332 60.18746 
L 278.714976 54.01426 
L 281.35262 48.505 
L 283.990264 43.677215 
L 285.748693 40.83949 
L 287.507122 38.336259 
L 289.265552 36.219366 
L 291.023981 34.549011 
L 292.78241 33.372915 
L 293.661625 32.977822 
L 294.540839 32.711836 
L 295.420054 32.573859 
L 296.299269 32.562728 
L 297.178483 32.678444 
L 298.057698 32.92346 
L 298.936913 33.303856 
L 299.816127 33.830148 
L 300.695342 34.517531 
L 301.574556 35.385386 
L 302.453771 36.455987 
L 303.332986 37.752454 
L 304.2122 39.296139 
L 305.091415 41.103726 
L 306.849844 45.537621 
L 308.608273 51.002143 
L 310.366703 57.267024 
L 316.521205 80.110472 
L 318.279634 85.726093 
L 320.917278 93.226878 
L 324.434137 102.212221 
L 328.83021 112.771862 
L 332.347069 120.589877 
L 335.863927 127.767702 
L 342.897644 141.463166 
L 345.535288 146.146754 
L 347.293717 148.862688 
L 349.052147 151.160548 
L 350.810576 153.030494 
L 352.569005 154.529827 
L 354.327434 155.76309 
L 357.844293 157.878868 
L 363.998795 161.340751 
L 366.636439 162.474411 
L 368.394868 163.022945 
L 371.032512 163.549769 
L 373.670156 163.810156 
L 378.066229 163.946106 
L 378.066229 163.946106 
" clip-path="url(#pbe37980a8c)" style="fill: none; stroke: #489079; stroke-width: 1.2; stroke-linecap: square"/>
   </g>
   <g id="patch_3">
    <path d="M 34.860938 163.9675 
L 34.860938 25.3675 
" style="fill: none; stroke: #bbbbbb; stroke-width: 0.75; stroke-linejoin: miter; stroke-linecap: square"/>
   </g>
   <g id="patch_4">
    <path d="M 39.860937 168.9675 
L 542.060938 168.9675 
" style="fill: none; stroke: #bbbbbb; stroke-width: 0.75; stroke-linejoin: miter; stroke-linecap: square"/>
   </g>
   <g id="legend_1">
    <g id="patch_5">
     <path d="M 47.060938 16.66375 
L 63.060938 16.66375 
L 63.060938 11.06375 
L 47.060938 11.06375 
z
" style="fill: #858585; fill-opacity: 0.25; stroke: #858585; stroke-width: 0.01; stroke-linejoin: miter"/>
    </g>
    <g id="text_12">
     <!-- Normal distribution -->
     <g style="fill: #4b4b4b" transform="translate(69.460938 16.66375) scale(0.08 -0.08)">
      <defs>
       <path id="Ubuntu-4e" d="M 3590 0 
Q 3450 237 3267 531 
Q 3085 826 2873 1142 
Q 2662 1459 2435 1785 
Q 2208 2112 1984 2416 
Q 1760 2720 1549 2989 
Q 1338 3258 1158 3462 
L 1158 0 
L 550 0 
L 550 4435 
L 1043 4435 
Q 1344 4115 1686 3689 
Q 2029 3264 2365 2813 
Q 2701 2362 2998 1926 
Q 3296 1491 3501 1152 
L 3501 4435 
L 4109 4435 
L 4109 0 
L 3590 0 
z
" transform="scale(0.015625)"/>
       <path id="Ubuntu-6f" d="M 3450 1664 
Q 3450 1267 3334 947 
Q 3219 627 3011 396 
Q 2803 166 2515 41 
Q 2227 -83 1888 -83 
Q 1549 -83 1261 41 
Q 973 166 765 396 
Q 557 627 441 947 
Q 326 1267 326 1664 
Q 326 2054 441 2377 
Q 557 2701 765 2931 
Q 973 3162 1261 3286 
Q 1549 3411 1888 3411 
Q 2227 3411 2515 3286 
Q 2803 3162 3011 2931 
Q 3219 2701 3334 2377 
Q 3450 2054 3450 1664 
z
M 2829 1664 
Q 2829 2227 2576 2556 
Q 2323 2886 1888 2886 
Q 1453 2886 1200 2556 
Q 947 2227 947 1664 
Q 947 1101 1200 771 
Q 1453 442 1888 442 
Q 2323 442 2576 771 
Q 2829 1101 2829 1664 
z
" transform="scale(0.015625)"/>
       <path id="Ubuntu-72" d="M 1741 3398 
Q 1818 3398 1917 3388 
Q 2016 3379 2112 3363 
Q 2208 3347 2288 3331 
Q 2368 3315 2406 3302 
L 2304 2784 
Q 2234 2810 2070 2845 
Q 1907 2880 1651 2880 
Q 1485 2880 1321 2845 
Q 1158 2810 1107 2797 
L 1107 0 
L 512 0 
L 512 3187 
Q 723 3264 1036 3331 
Q 1350 3398 1741 3398 
z
" transform="scale(0.015625)"/>
       <path id="Ubuntu-6d" d="M 512 3232 
Q 717 3283 1053 3340 
Q 1389 3398 1830 3398 
Q 2150 3398 2368 3312 
Q 2586 3226 2733 3059 
Q 2778 3091 2874 3148 
Q 2970 3206 3110 3260 
Q 3251 3315 3424 3356 
Q 3597 3398 3795 3398 
Q 4179 3398 4422 3286 
Q 4666 3174 4803 2969 
Q 4941 2765 4989 2483 
Q 5037 2202 5037 1869 
L 5037 0 
L 4442 0 
L 4442 1741 
Q 4442 2035 4413 2246 
Q 4384 2458 4304 2598 
Q 4224 2739 4086 2806 
Q 3949 2874 3731 2874 
Q 3430 2874 3235 2794 
Q 3040 2714 2970 2650 
Q 3021 2483 3046 2284 
Q 3072 2086 3072 1869 
L 3072 0 
L 2477 0 
L 2477 1741 
Q 2477 2035 2445 2246 
Q 2413 2458 2333 2598 
Q 2253 2739 2115 2806 
Q 1978 2874 1766 2874 
Q 1677 2874 1574 2867 
Q 1472 2861 1379 2851 
Q 1286 2842 1209 2829 
Q 1133 2816 1107 2810 
L 1107 0 
L 512 0 
L 512 3232 
z
" transform="scale(0.015625)"/>
       <path id="Ubuntu-61" d="M 1638 429 
Q 1850 429 2013 438 
Q 2176 448 2285 474 
L 2285 1466 
Q 2221 1498 2077 1520 
Q 1933 1542 1728 1542 
Q 1594 1542 1443 1523 
Q 1293 1504 1168 1443 
Q 1043 1382 960 1276 
Q 877 1171 877 998 
Q 877 678 1081 553 
Q 1286 429 1638 429 
z
M 1587 3411 
Q 1946 3411 2192 3318 
Q 2438 3226 2588 3056 
Q 2739 2886 2803 2652 
Q 2867 2419 2867 2138 
L 2867 58 
Q 2790 45 2652 22 
Q 2515 0 2342 -19 
Q 2170 -38 1968 -54 
Q 1766 -70 1568 -70 
Q 1286 -70 1049 -12 
Q 813 45 640 169 
Q 467 294 371 499 
Q 275 704 275 992 
Q 275 1267 387 1465 
Q 499 1664 691 1785 
Q 883 1907 1139 1964 
Q 1395 2022 1677 2022 
Q 1766 2022 1862 2012 
Q 1958 2003 2044 1987 
Q 2131 1971 2195 1958 
Q 2259 1946 2285 1939 
L 2285 2106 
Q 2285 2253 2253 2397 
Q 2221 2541 2137 2653 
Q 2054 2765 1910 2832 
Q 1766 2899 1536 2899 
Q 1242 2899 1021 2857 
Q 800 2816 691 2771 
L 621 3264 
Q 736 3315 1005 3363 
Q 1274 3411 1587 3411 
z
" transform="scale(0.015625)"/>
       <path id="Ubuntu-6c" d="M 1510 -64 
Q 960 -51 729 173 
Q 499 397 499 870 
L 499 4864 
L 1094 4966 
L 1094 966 
Q 1094 819 1120 723 
Q 1146 627 1203 569 
Q 1261 512 1357 483 
Q 1453 454 1594 435 
L 1510 -64 
z
" transform="scale(0.015625)"/>
       <path id="Ubuntu-20" transform="scale(0.015625)"/>
       <path id="Ubuntu-64" d="M 2662 2624 
Q 2554 2714 2349 2797 
Q 2144 2880 1901 2880 
Q 1645 2880 1462 2787 
Q 1280 2694 1165 2531 
Q 1050 2368 998 2144 
Q 947 1920 947 1664 
Q 947 1082 1235 765 
Q 1523 448 2003 448 
Q 2246 448 2409 470 
Q 2573 493 2662 518 
L 2662 2624 
z
M 2662 4864 
L 3258 4966 
L 3258 96 
Q 3053 38 2733 -19 
Q 2413 -77 1997 -77 
Q 1613 -77 1305 44 
Q 998 166 780 390 
Q 563 614 444 937 
Q 326 1261 326 1664 
Q 326 2048 425 2368 
Q 525 2688 717 2918 
Q 909 3149 1187 3277 
Q 1466 3405 1824 3405 
Q 2112 3405 2333 3328 
Q 2554 3251 2662 3181 
L 2662 4864 
z
" transform="scale(0.015625)"/>
       <path id="Ubuntu-69" d="M 1107 0 
L 512 0 
L 512 3328 
L 1107 3328 
L 1107 0 
z
M 806 3930 
Q 646 3930 534 4035 
Q 422 4141 422 4320 
Q 422 4499 534 4604 
Q 646 4710 806 4710 
Q 966 4710 1078 4604 
Q 1190 4499 1190 4320 
Q 1190 4141 1078 4035 
Q 966 3930 806 3930 
z
" transform="scale(0.015625)"/>
       <path id="Ubuntu-73" d="M 1286 429 
Q 1651 429 1827 525 
Q 2003 621 2003 832 
Q 2003 1050 1830 1178 
Q 1658 1306 1261 1466 
Q 1069 1542 893 1622 
Q 717 1702 589 1811 
Q 461 1920 384 2073 
Q 307 2227 307 2451 
Q 307 2893 633 3152 
Q 960 3411 1523 3411 
Q 1664 3411 1805 3395 
Q 1946 3379 2067 3356 
Q 2189 3334 2281 3308 
Q 2374 3283 2426 3264 
L 2317 2752 
Q 2221 2803 2016 2857 
Q 1811 2912 1523 2912 
Q 1274 2912 1088 2813 
Q 902 2714 902 2502 
Q 902 2394 944 2310 
Q 986 2227 1072 2160 
Q 1158 2093 1286 2035 
Q 1414 1978 1594 1914 
Q 1830 1824 2016 1737 
Q 2202 1651 2333 1536 
Q 2464 1421 2534 1257 
Q 2605 1094 2605 858 
Q 2605 397 2262 160 
Q 1920 -77 1286 -77 
Q 845 -77 595 -3 
Q 346 70 256 109 
L 365 621 
Q 467 582 691 505 
Q 915 429 1286 429 
z
" transform="scale(0.015625)"/>
       <path id="Ubuntu-74" d="M 1069 3328 
L 2330 3328 
L 2330 2829 
L 1069 2829 
L 1069 1293 
Q 1069 1043 1107 880 
Q 1146 717 1222 624 
Q 1299 531 1414 492 
Q 1530 454 1683 454 
Q 1952 454 2115 515 
Q 2278 576 2342 602 
L 2458 109 
Q 2368 64 2144 -3 
Q 1920 -70 1632 -70 
Q 1293 -70 1072 16 
Q 851 102 716 275 
Q 582 448 528 701 
Q 474 954 474 1286 
L 474 4256 
L 1069 4358 
L 1069 3328 
z
" transform="scale(0.015625)"/>
       <path id="Ubuntu-62" d="M 1107 3181 
Q 1216 3251 1437 3328 
Q 1658 3405 1946 3405 
Q 2304 3405 2582 3277 
Q 2861 3149 3053 2918 
Q 3245 2688 3344 2368 
Q 3443 2048 3443 1664 
Q 3443 1261 3324 937 
Q 3206 614 2988 390 
Q 2771 166 2464 44 
Q 2157 -77 1773 -77 
Q 1357 -77 1037 -19 
Q 717 38 512 96 
L 512 4864 
L 1107 4966 
L 1107 3181 
z
M 1107 518 
Q 1197 493 1360 470 
Q 1523 448 1766 448 
Q 2246 448 2534 765 
Q 2822 1082 2822 1664 
Q 2822 1920 2771 2144 
Q 2720 2368 2605 2531 
Q 2490 2694 2307 2787 
Q 2125 2880 1869 2880 
Q 1626 2880 1421 2797 
Q 1216 2714 1107 2624 
L 1107 518 
z
" transform="scale(0.015625)"/>
       <path id="Ubuntu-75" d="M 3162 96 
Q 2957 45 2621 -12 
Q 2285 -70 1843 -70 
Q 1459 -70 1196 42 
Q 934 154 774 358 
Q 614 563 544 841 
Q 474 1120 474 1459 
L 474 3328 
L 1069 3328 
L 1069 1587 
Q 1069 979 1261 716 
Q 1453 454 1907 454 
Q 2003 454 2105 460 
Q 2208 467 2297 476 
Q 2387 486 2460 496 
Q 2534 506 2566 518 
L 2566 3328 
L 3162 3328 
L 3162 96 
z
" transform="scale(0.015625)"/>
       <path id="Ubuntu-6e" d="M 512 3232 
Q 717 3283 1056 3340 
Q 1395 3398 1837 3398 
Q 2234 3398 2496 3286 
Q 2758 3174 2915 2972 
Q 3072 2771 3136 2489 
Q 3200 2208 3200 1869 
L 3200 0 
L 2605 0 
L 2605 1741 
Q 2605 2048 2563 2265 
Q 2522 2483 2426 2617 
Q 2330 2752 2170 2813 
Q 2010 2874 1773 2874 
Q 1677 2874 1574 2867 
Q 1472 2861 1379 2851 
Q 1286 2842 1212 2829 
Q 1139 2816 1107 2810 
L 1107 0 
L 512 0 
L 512 3232 
z
" transform="scale(0.015625)"/>
      </defs>
      <use xlink:href="#Ubuntu-4e"/>
      <use xlink:href="#Ubuntu-6f" x="72.799988"/>
      <use xlink:href="#Ubuntu-72" x="131.799973"/>
      <use xlink:href="#Ubuntu-6d" x="170.399963"/>
      <use xlink:href="#Ubuntu-61" x="256.499954"/>
      <use xlink:href="#Ubuntu-6c" x="308.699951"/>
      <use xlink:href="#Ubuntu-20" x="335.999939"/>
      <use xlink:href="#Ubuntu-64" x="359.09993"/>
      <use xlink:href="#Ubuntu-69" x="417.999924"/>
      <use xlink:href="#Ubuntu-73" x="443.299911"/>
      <use xlink:href="#Ubuntu-74" x="487.899902"/>
      <use xlink:href="#Ubuntu-72" x="528.099899"/>
      <use xlink:href="#Ubuntu-69" x="566.69989"/>
      <use xlink:href="#Ubuntu-62" x="591.999878"/>
      <use xlink:href="#Ubuntu-75" x="650.899872"/>
      <use xlink:href="#Ubuntu-74" x="708.299866"/>
      <use xlink:href="#Ubuntu-69" x="748.499863"/>
      <use xlink:href="#Ubuntu-6f" x="773.79985"/>
      <use xlink:href="#Ubuntu-6e" x="832.799835"/>
     </g>
    </g>
    <g id="line2d_13">
     <path d="M 156.675938 13.86375 
L 164.675938 13.86375 
L 172.675938 13.86375 
" style="fill: none; stroke: #af5a51; stroke-width: 1.2; stroke-linecap: square"/>
    </g>
    <g id="text_13">
     <!-- Residuals (original) -->
     <g style="fill: #4b4b4b" transform="translate(179.075938 16.66375) scale(0.08 -0.08)">
      <defs>
       <path id="Ubuntu-52" d="M 2720 1856 
Q 2822 1728 2979 1520 
Q 3136 1312 3302 1059 
Q 3469 806 3632 531 
Q 3795 256 3910 0 
L 3232 0 
Q 3104 243 2953 492 
Q 2803 742 2649 969 
Q 2496 1197 2345 1395 
Q 2195 1594 2074 1741 
Q 1990 1734 1904 1734 
Q 1818 1734 1728 1734 
L 1171 1734 
L 1171 0 
L 550 0 
L 550 4371 
Q 813 4435 1136 4457 
Q 1459 4480 1728 4480 
Q 2662 4480 3152 4128 
Q 3642 3776 3642 3078 
Q 3642 2637 3408 2323 
Q 3174 2010 2720 1856 
z
M 1779 3936 
Q 1382 3936 1171 3917 
L 1171 2246 
L 1613 2246 
Q 1933 2246 2189 2278 
Q 2445 2310 2621 2400 
Q 2797 2490 2893 2653 
Q 2989 2816 2989 3085 
Q 2989 3334 2893 3500 
Q 2797 3667 2633 3763 
Q 2470 3859 2249 3897 
Q 2029 3936 1779 3936 
z
" transform="scale(0.015625)"/>
       <path id="Ubuntu-65" d="M 326 1658 
Q 326 2099 454 2428 
Q 582 2758 793 2976 
Q 1005 3194 1280 3302 
Q 1555 3411 1843 3411 
Q 2515 3411 2873 2992 
Q 3232 2573 3232 1715 
Q 3232 1677 3232 1616 
Q 3232 1555 3226 1504 
L 947 1504 
Q 986 986 1248 717 
Q 1510 448 2067 448 
Q 2381 448 2595 502 
Q 2810 557 2918 608 
L 3002 109 
Q 2893 51 2621 -13 
Q 2349 -77 2003 -77 
Q 1568 -77 1251 54 
Q 934 186 729 416 
Q 525 646 425 963 
Q 326 1280 326 1658 
z
M 2611 1984 
Q 2618 2387 2410 2646 
Q 2202 2906 1837 2906 
Q 1632 2906 1475 2826 
Q 1318 2746 1209 2618 
Q 1101 2490 1040 2323 
Q 979 2157 960 1984 
L 2611 1984 
z
" transform="scale(0.015625)"/>
       <path id="Ubuntu-28" d="M 1094 1914 
Q 1094 1094 1331 396 
Q 1568 -301 2029 -896 
L 1606 -1184 
Q 1107 -576 803 214 
Q 499 1005 499 1914 
Q 499 2822 803 3612 
Q 1107 4403 1606 5011 
L 2029 4723 
Q 1568 4128 1331 3430 
Q 1094 2733 1094 1914 
z
" transform="scale(0.015625)"/>
       <path id="Ubuntu-67" d="M 2598 333 
Q 2522 282 2301 202 
Q 2080 122 1786 122 
Q 1485 122 1219 218 
Q 954 314 755 515 
Q 557 717 441 1017 
Q 326 1318 326 1734 
Q 326 2099 435 2403 
Q 544 2707 752 2928 
Q 960 3149 1261 3273 
Q 1562 3398 1939 3398 
Q 2355 3398 2665 3337 
Q 2976 3277 3187 3226 
L 3187 256 
Q 3187 -512 2790 -857 
Q 2394 -1203 1587 -1203 
Q 1274 -1203 995 -1152 
Q 717 -1101 512 -1030 
L 621 -512 
Q 800 -582 1059 -636 
Q 1318 -691 1600 -691 
Q 2131 -691 2364 -480 
Q 2598 -269 2598 192 
L 2598 333 
z
M 2592 2803 
Q 2502 2829 2352 2851 
Q 2202 2874 1946 2874 
Q 1466 2874 1206 2560 
Q 947 2246 947 1728 
Q 947 1440 1020 1235 
Q 1094 1030 1219 896 
Q 1344 762 1507 698 
Q 1670 634 1843 634 
Q 2080 634 2278 701 
Q 2477 768 2592 858 
L 2592 2803 
z
" transform="scale(0.015625)"/>
       <path id="Ubuntu-29" d="M 979 1914 
Q 979 2733 742 3430 
Q 506 4128 45 4723 
L 467 5011 
Q 966 4403 1270 3612 
Q 1574 2822 1574 1914 
Q 1574 1005 1270 214 
Q 966 -576 467 -1184 
L 45 -896 
Q 506 -301 742 396 
Q 979 1094 979 1914 
z
" transform="scale(0.015625)"/>
      </defs>
      <use xlink:href="#Ubuntu-52"/>
      <use xlink:href="#Ubuntu-65" x="62.899994"/>
      <use xlink:href="#Ubuntu-73" x="118.799988"/>
      <use xlink:href="#Ubuntu-69" x="163.399979"/>
      <use xlink:href="#Ubuntu-64" x="188.699966"/>
      <use xlink:href="#Ubuntu-75" x="247.59996"/>
      <use xlink:href="#Ubuntu-61" x="304.999954"/>
      <use xlink:href="#Ubuntu-6c" x="357.199951"/>
      <use xlink:href="#Ubuntu-73" x="384.499939"/>
      <use xlink:href="#Ubuntu-20" x="429.09993"/>
      <use xlink:href="#Ubuntu-28" x="452.199921"/>
      <use xlink:href="#Ubuntu-6f" x="484.599915"/>
      <use xlink:href="#Ubuntu-72" x="543.599899"/>
      <use xlink:href="#Ubuntu-69" x="582.19989"/>
      <use xlink:href="#Ubuntu-67" x="607.499878"/>
      <use xlink:href="#Ubuntu-69" x="665.299866"/>
      <use xlink:href="#Ubuntu-6e" x="690.599854"/>
      <use xlink:href="#Ubuntu-61" x="747.999847"/>
      <use xlink:href="#Ubuntu-6c" x="800.199844"/>
      <use xlink:href="#Ubuntu-29" x="827.499832"/>
     </g>
    </g>
    <g id="line2d_14">
     <path d="M 263.868438 13.86375 
L 271.868438 13.86375 
L 279.868438 13.86375 
" style="fill: none; stroke: #489079; stroke-width: 1.2; stroke-linecap: square"/>
    </g>
    <g id="text_14">
     <!-- Residuals (trimmed) -->
     <g style="fill: #4b4b4b" transform="translate(286.268438 16.66375) scale(0.08 -0.08)">
      <use xlink:href="#Ubuntu-52"/>
      <use xlink:href="#Ubuntu-65" x="62.899994"/>
      <use xlink:href="#Ubuntu-73" x="118.799988"/>
      <use xlink:href="#Ubuntu-69" x="163.399979"/>
      <use xlink:href="#Ubuntu-64" x="188.699966"/>
      <use xlink:href="#Ubuntu-75" x="247.59996"/>
      <use xlink:href="#Ubuntu-61" x="304.999954"/>
      <use xlink:href="#Ubuntu-6c" x="357.199951"/>
      <use xlink:href="#Ubuntu-73" x="384.499939"/>
      <use xlink:href="#Ubuntu-20" x="429.09993"/>
      <use xlink:href="#Ubuntu-28" x="452.199921"/>
      <use xlink:href="#Ubuntu-74" x="484.599915"/>
      <use xlink:href="#Ubuntu-72" x="524.799911"/>
      <use xlink:href="#Ubuntu-69" x="563.399902"/>
      <use xlink:href="#Ubuntu-6d" x="588.69989"/>
      <use xlink:href="#Ubuntu-6d" x="674.799881"/>
      <use xlink:href="#Ubuntu-65" x="760.899872"/>
      <use xlink:href="#Ubuntu-64" x="816.799866"/>
      <use xlink:href="#Ubuntu-29" x="875.69986"/>
     </g>
    </g>
   </g>
  </g>
 </g>
 <defs>
  <clipPath id="pbe37980a8c">
   <rect x="39.860938" y="25.3675" width="502.2" height="138.6"/>
  </clipPath>
 </defs>
</svg>
