<?xml version="1.0" encoding="utf-8" standalone="no"?>
<!DOCTYPE svg PUBLIC "-//W3C//DTD SVG 1.1//EN"
  "http://www.w3.org/Graphics/SVG/1.1/DTD/svg11.dtd">
<svg xmlns:xlink="http://www.w3.org/1999/xlink" width="610.557187pt" height="190.355pt" viewBox="0 0 610.557187 190.355" xmlns="http://www.w3.org/2000/svg" version="1.1">
 <metadata>
  <rdf:RDF xmlns:dc="http://purl.org/dc/elements/1.1/" xmlns:cc="http://creativecommons.org/ns#" xmlns:rdf="http://www.w3.org/1999/02/22-rdf-syntax-ns#">
   <cc:Work>
    <dc:type rdf:resource="http://purl.org/dc/dcmitype/StillImage"/>
    <dc:date>2024-02-20T09:36:20.680442</dc:date>
    <dc:format>image/svg+xml</dc:format>
    <dc:creator>
     <cc:Agent>
      <dc:title>Matplotlib v3.8.0, https://matplotlib.org/</dc:title>
     </cc:Agent>
    </dc:creator>
   </cc:Work>
  </rdf:RDF>
 </metadata>
 <defs>
  <style type="text/css">*{stroke-linejoin: round; stroke-linecap: butt}</style>
 </defs>
 <g id="figure_1">
  <g id="patch_1">
   <path d="M 0 190.355 
L 610.557187 190.355 
L 610.557187 0 
L 0 0 
L 0 190.355 
z
" style="fill: none"/>
  </g>
  <g id="axes_1">
   <g id="patch_2">
    <path d="M 39.860938 163.9675 
L 597.860937 163.9675 
L 597.860937 25.3675 
L 39.860938 25.3675 
L 39.860938 163.9675 
z
" style="fill: none"/>
   </g>
   <g id="matplotlib.axis_1">
    <g id="xtick_1">
     <g id="line2d_1">
      <defs>
       <path id="mf67a04b806" d="M 0 0 
L 0 3 
" style="stroke: #bbbbbb; stroke-width: 0.75"/>
      </defs>
      <g>
       <use xlink:href="#mf67a04b806" x="39.860937" y="168.9675" style="fill: #bbbbbb; stroke: #bbbbbb; stroke-width: 0.75"/>
      </g>
     </g>
     <g id="text_1">
      <!-- −1.0 -->
      <g style="fill: #9f9f9f" transform="translate(32.108437 181.675) scale(0.08 -0.08)">
       <defs>
        <path id="Ubuntu-2212" d="M 339 2138 
L 3270 2138 
L 3270 1632 
L 339 1632 
L 339 2138 
z
" transform="scale(0.015625)"/>
        <path id="Ubuntu-31" d="M 595 3520 
Q 960 3661 1305 3881 
Q 1651 4102 1939 4435 
L 2362 4435 
L 2362 0 
L 1766 0 
L 1766 3610 
Q 1690 3539 1578 3462 
Q 1466 3386 1334 3315 
Q 1203 3245 1059 3181 
Q 915 3117 781 3072 
L 595 3520 
z
" transform="scale(0.015625)"/>
        <path id="Ubuntu-2e" d="M 1216 346 
Q 1216 173 1101 45 
Q 986 -83 787 -83 
Q 589 -83 473 45 
Q 358 173 358 346 
Q 358 518 473 646 
Q 589 774 787 774 
Q 986 774 1101 646 
Q 1216 518 1216 346 
z
" transform="scale(0.015625)"/>
        <path id="Ubuntu-30" d="M 320 2221 
Q 320 3334 713 3936 
Q 1107 4538 1805 4538 
Q 2502 4538 2896 3936 
Q 3290 3334 3290 2221 
Q 3290 1107 2896 505 
Q 2502 -96 1805 -96 
Q 1107 -96 713 505 
Q 320 1107 320 2221 
z
M 2662 2221 
Q 2662 2586 2620 2912 
Q 2579 3238 2480 3481 
Q 2381 3725 2214 3869 
Q 2048 4013 1805 4013 
Q 1562 4013 1395 3869 
Q 1229 3725 1129 3481 
Q 1030 3238 988 2912 
Q 947 2586 947 2221 
Q 947 1856 988 1529 
Q 1030 1203 1129 960 
Q 1229 717 1395 573 
Q 1562 429 1805 429 
Q 2048 429 2214 573 
Q 2381 717 2480 960 
Q 2579 1203 2620 1529 
Q 2662 1856 2662 2221 
z
" transform="scale(0.015625)"/>
       </defs>
       <use xlink:href="#Ubuntu-2212"/>
       <use xlink:href="#Ubuntu-31" x="56.399994"/>
       <use xlink:href="#Ubuntu-2e" x="112.799988"/>
       <use xlink:href="#Ubuntu-30" x="137.399979"/>
      </g>
     </g>
    </g>
    <g id="xtick_2">
     <g id="line2d_2">
      <g>
       <use xlink:href="#mf67a04b806" x="179.360937" y="168.9675" style="fill: #bbbbbb; stroke: #bbbbbb; stroke-width: 0.75"/>
      </g>
     </g>
     <g id="text_2">
      <!-- −0.5 -->
      <g style="fill: #9f9f9f" transform="translate(171.608437 181.675) scale(0.08 -0.08)">
       <defs>
        <path id="Ubuntu-35" d="M 1274 2726 
Q 2240 2688 2691 2304 
Q 3142 1920 3142 1261 
Q 3142 966 3043 716 
Q 2944 467 2742 288 
Q 2541 109 2233 6 
Q 1926 -96 1504 -96 
Q 1338 -96 1165 -70 
Q 992 -45 845 -6 
Q 698 32 582 70 
Q 467 109 416 134 
L 531 653 
Q 640 602 886 518 
Q 1133 435 1491 435 
Q 1779 435 1974 499 
Q 2170 563 2291 672 
Q 2413 781 2467 925 
Q 2522 1069 2522 1229 
Q 2522 1472 2438 1661 
Q 2355 1850 2144 1978 
Q 1933 2106 1581 2173 
Q 1229 2240 691 2240 
Q 730 2554 752 2829 
Q 774 3104 793 3366 
Q 813 3629 825 3888 
Q 838 4147 851 4435 
L 2989 4435 
L 2989 3930 
L 1370 3930 
Q 1363 3834 1350 3670 
Q 1338 3507 1325 3331 
Q 1312 3155 1299 2988 
Q 1286 2822 1274 2726 
z
" transform="scale(0.015625)"/>
       </defs>
       <use xlink:href="#Ubuntu-2212"/>
       <use xlink:href="#Ubuntu-30" x="56.399994"/>
       <use xlink:href="#Ubuntu-2e" x="112.799988"/>
       <use xlink:href="#Ubuntu-35" x="137.399979"/>
      </g>
     </g>
    </g>
    <g id="xtick_3">
     <g id="line2d_3">
      <g>
       <use xlink:href="#mf67a04b806" x="318.860937" y="168.9675" style="fill: #bbbbbb; stroke: #bbbbbb; stroke-width: 0.75"/>
      </g>
     </g>
     <g id="text_3">
      <!-- 0.0 -->
      <g style="fill: #9f9f9f" transform="translate(313.364688 181.675) scale(0.08 -0.08)">
       <use xlink:href="#Ubuntu-30"/>
       <use xlink:href="#Ubuntu-2e" x="56.399994"/>
       <use xlink:href="#Ubuntu-30" x="80.999985"/>
      </g>
     </g>
    </g>
    <g id="xtick_4">
     <g id="line2d_4">
      <g>
       <use xlink:href="#mf67a04b806" x="458.360937" y="168.9675" style="fill: #bbbbbb; stroke: #bbbbbb; stroke-width: 0.75"/>
      </g>
     </g>
     <g id="text_4">
      <!-- 0.5 -->
      <g style="fill: #9f9f9f" transform="translate(452.864688 181.675) scale(0.08 -0.08)">
       <use xlink:href="#Ubuntu-30"/>
       <use xlink:href="#Ubuntu-2e" x="56.399994"/>
       <use xlink:href="#Ubuntu-35" x="80.999985"/>
      </g>
     </g>
    </g>
    <g id="xtick_5">
     <g id="line2d_5">
      <g>
       <use xlink:href="#mf67a04b806" x="597.860937" y="168.9675" style="fill: #bbbbbb; stroke: #bbbbbb; stroke-width: 0.75"/>
      </g>
     </g>
     <g id="text_5">
      <!-- 1.0 -->
      <g style="fill: #9f9f9f" transform="translate(592.364687 181.675) scale(0.08 -0.08)">
       <use xlink:href="#Ubuntu-31"/>
       <use xlink:href="#Ubuntu-2e" x="56.399994"/>
       <use xlink:href="#Ubuntu-30" x="80.999985"/>
      </g>
     </g>
    </g>
   </g>
   <g id="matplotlib.axis_2">
    <g id="ytick_1">
     <g id="line2d_6">
      <defs>
       <path id="m9bec6ba88b" d="M 0 0 
L -3 0 
" style="stroke: #bbbbbb; stroke-width: 0.75"/>
      </defs>
      <g>
       <use xlink:href="#m9bec6ba88b" x="34.860938" y="163.9675" style="fill: #bbbbbb; stroke: #bbbbbb; stroke-width: 0.75"/>
      </g>
     </g>
     <g id="text_6">
      <!-- 0 -->
      <g style="fill: #9f9f9f" transform="translate(23.848438 167.07125) scale(0.08 -0.08)">
       <use xlink:href="#Ubuntu-30"/>
      </g>
     </g>
    </g>
    <g id="ytick_2">
     <g id="line2d_7">
      <g>
       <use xlink:href="#m9bec6ba88b" x="34.860938" y="129.3175" style="fill: #bbbbbb; stroke: #bbbbbb; stroke-width: 0.75"/>
      </g>
     </g>
     <g id="text_7">
      <!-- 1 -->
      <g style="fill: #9f9f9f" transform="translate(23.848438 132.42125) scale(0.08 -0.08)">
       <use xlink:href="#Ubuntu-31"/>
      </g>
     </g>
    </g>
    <g id="ytick_3">
     <g id="line2d_8">
      <g>
       <use xlink:href="#m9bec6ba88b" x="34.860938" y="94.6675" style="fill: #bbbbbb; stroke: #bbbbbb; stroke-width: 0.75"/>
      </g>
     </g>
     <g id="text_8">
      <!-- 2 -->
      <g style="fill: #9f9f9f" transform="translate(23.848438 97.77125) scale(0.08 -0.08)">
       <defs>
        <path id="Ubuntu-32" d="M 2989 3302 
Q 2989 3072 2896 2857 
Q 2803 2643 2649 2435 
Q 2496 2227 2304 2025 
Q 2112 1824 1920 1632 
Q 1811 1523 1667 1376 
Q 1523 1229 1395 1069 
Q 1267 909 1180 761 
Q 1094 614 1094 506 
L 3136 506 
L 3136 0 
L 448 0 
Q 442 38 442 76 
Q 442 115 442 147 
Q 442 448 541 707 
Q 640 966 800 1196 
Q 960 1427 1158 1632 
Q 1357 1837 1549 2029 
Q 1709 2182 1853 2332 
Q 1997 2483 2109 2633 
Q 2221 2784 2288 2944 
Q 2355 3104 2355 3283 
Q 2355 3475 2294 3609 
Q 2234 3744 2131 3833 
Q 2029 3923 1891 3964 
Q 1754 4006 1600 4006 
Q 1414 4006 1260 3955 
Q 1107 3904 985 3837 
Q 864 3770 781 3696 
Q 698 3622 653 3584 
L 358 4006 
Q 416 4070 531 4163 
Q 646 4256 806 4339 
Q 966 4422 1164 4480 
Q 1363 4538 1594 4538 
Q 2291 4538 2640 4214 
Q 2989 3891 2989 3302 
z
" transform="scale(0.015625)"/>
       </defs>
       <use xlink:href="#Ubuntu-32"/>
      </g>
     </g>
    </g>
    <g id="ytick_4">
     <g id="line2d_9">
      <g>
       <use xlink:href="#m9bec6ba88b" x="34.860938" y="60.0175" style="fill: #bbbbbb; stroke: #bbbbbb; stroke-width: 0.75"/>
      </g>
     </g>
     <g id="text_9">
      <!-- 3 -->
      <g style="fill: #9f9f9f" transform="translate(23.848438 63.12125) scale(0.08 -0.08)">
       <defs>
        <path id="Ubuntu-33" d="M 1446 435 
Q 2016 435 2262 659 
Q 2509 883 2509 1261 
Q 2509 1504 2406 1670 
Q 2304 1837 2137 1936 
Q 1971 2035 1750 2076 
Q 1530 2118 1299 2118 
L 1146 2118 
L 1146 2605 
L 1357 2605 
Q 1517 2605 1686 2637 
Q 1856 2669 1997 2752 
Q 2138 2835 2227 2979 
Q 2317 3123 2317 3341 
Q 2317 3520 2253 3648 
Q 2189 3776 2083 3859 
Q 1978 3942 1840 3977 
Q 1702 4013 1549 4013 
Q 1242 4013 1027 3923 
Q 813 3834 666 3738 
L 435 4192 
Q 512 4243 630 4304 
Q 749 4365 896 4416 
Q 1043 4467 1212 4502 
Q 1382 4538 1568 4538 
Q 1920 4538 2176 4451 
Q 2432 4365 2598 4208 
Q 2765 4051 2848 3836 
Q 2931 3622 2931 3373 
Q 2931 3027 2732 2780 
Q 2534 2534 2253 2406 
Q 2426 2355 2586 2259 
Q 2746 2163 2864 2016 
Q 2982 1869 3056 1677 
Q 3130 1485 3130 1248 
Q 3130 960 3030 713 
Q 2931 467 2723 288 
Q 2515 109 2201 6 
Q 1888 -96 1459 -96 
Q 1293 -96 1117 -70 
Q 941 -45 787 -6 
Q 634 32 518 70 
Q 403 109 352 134 
L 467 653 
Q 576 602 829 518 
Q 1082 435 1446 435 
z
" transform="scale(0.015625)"/>
       </defs>
       <use xlink:href="#Ubuntu-33"/>
      </g>
     </g>
    </g>
    <g id="ytick_5">
     <g id="line2d_10">
      <g>
       <use xlink:href="#m9bec6ba88b" x="34.860938" y="25.3675" style="fill: #bbbbbb; stroke: #bbbbbb; stroke-width: 0.75"/>
      </g>
     </g>
     <g id="text_10">
      <!-- 4 -->
      <g style="fill: #9f9f9f" transform="translate(23.848438 28.47125) scale(0.08 -0.08)">
       <defs>
        <path id="Ubuntu-34" d="M 256 1536 
Q 378 1818 589 2192 
Q 800 2566 1065 2963 
Q 1331 3360 1635 3744 
Q 1939 4128 2246 4435 
L 2816 4435 
L 2816 1619 
L 3341 1619 
L 3341 1133 
L 2816 1133 
L 2816 0 
L 2240 0 
L 2240 1133 
L 256 1133 
L 256 1536 
z
M 2240 3731 
Q 2048 3526 1853 3273 
Q 1658 3021 1472 2745 
Q 1286 2470 1123 2182 
Q 960 1894 832 1619 
L 2240 1619 
L 2240 3731 
z
" transform="scale(0.015625)"/>
       </defs>
       <use xlink:href="#Ubuntu-34"/>
      </g>
     </g>
    </g>
    <g id="text_11">
     <!-- Density -->
     <g style="fill: #505050" transform="translate(14.183438 58.535313) rotate(-90) scale(0.09 -0.09)">
      <defs>
       <path id="Ubuntu-Bold-44" d="M 1510 813 
Q 1581 806 1673 803 
Q 1766 800 1894 800 
Q 2643 800 3004 1177 
Q 3366 1555 3366 2221 
Q 3366 2918 3020 3276 
Q 2675 3635 1926 3635 
Q 1824 3635 1715 3632 
Q 1606 3629 1510 3616 
L 1510 813 
z
M 4397 2221 
Q 4397 1645 4217 1216 
Q 4038 787 3708 505 
Q 3379 224 2905 83 
Q 2432 -58 1843 -58 
Q 1574 -58 1216 -35 
Q 858 -13 512 58 
L 512 4378 
Q 858 4442 1232 4464 
Q 1606 4486 1875 4486 
Q 2445 4486 2909 4358 
Q 3373 4230 3705 3955 
Q 4038 3680 4217 3251 
Q 4397 2822 4397 2221 
z
" transform="scale(0.015625)"/>
       <path id="Ubuntu-Bold-65" d="M 288 1658 
Q 288 2106 425 2442 
Q 563 2778 787 3002 
Q 1011 3226 1302 3341 
Q 1594 3456 1901 3456 
Q 2618 3456 3034 3017 
Q 3450 2579 3450 1728 
Q 3450 1645 3443 1545 
Q 3437 1446 3430 1370 
L 1267 1370 
Q 1299 1075 1542 902 
Q 1786 730 2195 730 
Q 2458 730 2710 778 
Q 2963 826 3123 896 
L 3251 122 
Q 3174 83 3046 44 
Q 2918 6 2761 -22 
Q 2605 -51 2425 -70 
Q 2246 -90 2067 -90 
Q 1613 -90 1277 44 
Q 941 179 720 412 
Q 499 646 393 966 
Q 288 1286 288 1658 
z
M 2528 2022 
Q 2522 2144 2486 2259 
Q 2451 2374 2377 2464 
Q 2304 2554 2192 2611 
Q 2080 2669 1914 2669 
Q 1754 2669 1638 2614 
Q 1523 2560 1446 2470 
Q 1370 2381 1328 2262 
Q 1286 2144 1267 2022 
L 2528 2022 
z
" transform="scale(0.015625)"/>
       <path id="Ubuntu-Bold-6e" d="M 448 3251 
Q 691 3322 1075 3382 
Q 1459 3443 1882 3443 
Q 2310 3443 2595 3331 
Q 2880 3219 3046 3014 
Q 3213 2810 3283 2528 
Q 3354 2246 3354 1901 
L 3354 0 
L 2400 0 
L 2400 1786 
Q 2400 2246 2278 2438 
Q 2157 2630 1824 2630 
Q 1722 2630 1606 2620 
Q 1491 2611 1402 2598 
L 1402 0 
L 448 0 
L 448 3251 
z
" transform="scale(0.015625)"/>
       <path id="Ubuntu-Bold-73" d="M 1414 685 
Q 1677 685 1785 736 
Q 1894 787 1894 934 
Q 1894 1050 1753 1136 
Q 1613 1222 1325 1331 
Q 1101 1414 918 1504 
Q 736 1594 608 1718 
Q 480 1843 409 2016 
Q 339 2189 339 2432 
Q 339 2906 691 3181 
Q 1043 3456 1658 3456 
Q 1965 3456 2246 3401 
Q 2528 3347 2694 3283 
L 2528 2541 
Q 2362 2598 2166 2643 
Q 1971 2688 1728 2688 
Q 1280 2688 1280 2438 
Q 1280 2381 1299 2336 
Q 1318 2291 1376 2249 
Q 1434 2208 1533 2160 
Q 1632 2112 1786 2054 
Q 2099 1939 2304 1827 
Q 2509 1715 2627 1584 
Q 2746 1453 2794 1293 
Q 2842 1133 2842 922 
Q 2842 422 2467 166 
Q 2093 -90 1408 -90 
Q 960 -90 662 -13 
Q 365 64 250 115 
L 410 890 
Q 653 794 909 739 
Q 1165 685 1414 685 
z
" transform="scale(0.015625)"/>
       <path id="Ubuntu-Bold-69" d="M 1402 0 
L 448 0 
L 448 3366 
L 1402 3366 
L 1402 0 
z
M 1491 4339 
Q 1491 4077 1321 3926 
Q 1152 3776 922 3776 
Q 691 3776 521 3926 
Q 352 4077 352 4339 
Q 352 4602 521 4752 
Q 691 4902 922 4902 
Q 1152 4902 1321 4752 
Q 1491 4602 1491 4339 
z
" transform="scale(0.015625)"/>
       <path id="Ubuntu-Bold-74" d="M 416 4205 
L 1370 4358 
L 1370 3366 
L 2515 3366 
L 2515 2573 
L 1370 2573 
L 1370 1389 
Q 1370 1088 1475 909 
Q 1581 730 1901 730 
Q 2054 730 2217 758 
Q 2381 787 2515 838 
L 2650 96 
Q 2477 26 2265 -25 
Q 2054 -77 1747 -77 
Q 1357 -77 1101 28 
Q 845 134 691 323 
Q 538 512 477 781 
Q 416 1050 416 1376 
L 416 4205 
z
" transform="scale(0.015625)"/>
       <path id="Ubuntu-Bold-79" d="M 3437 3366 
Q 3149 2394 2835 1542 
Q 2522 691 2150 -109 
Q 2016 -397 1881 -598 
Q 1747 -800 1587 -931 
Q 1427 -1062 1225 -1123 
Q 1024 -1184 755 -1184 
Q 531 -1184 342 -1142 
Q 154 -1101 32 -1050 
L 198 -288 
Q 346 -339 461 -358 
Q 576 -378 704 -378 
Q 960 -378 1097 -240 
Q 1235 -102 1331 141 
Q 1005 781 678 1577 
Q 352 2374 64 3366 
L 1075 3366 
Q 1139 3117 1225 2825 
Q 1312 2534 1408 2236 
Q 1504 1939 1603 1657 
Q 1702 1376 1792 1146 
Q 1875 1376 1964 1657 
Q 2054 1939 2140 2236 
Q 2227 2534 2307 2825 
Q 2387 3117 2451 3366 
L 3437 3366 
z
" transform="scale(0.015625)"/>
      </defs>
      <use xlink:href="#Ubuntu-Bold-44"/>
      <use xlink:href="#Ubuntu-Bold-65" x="73.699982"/>
      <use xlink:href="#Ubuntu-Bold-6e" x="132.099976"/>
      <use xlink:href="#Ubuntu-Bold-73" x="190.999969"/>
      <use xlink:href="#Ubuntu-Bold-69" x="239.499954"/>
      <use xlink:href="#Ubuntu-Bold-74" x="268.399948"/>
      <use xlink:href="#Ubuntu-Bold-79" x="313.799942"/>
     </g>
    </g>
   </g>
   <g id="PolyCollection_1">
    <defs>
     <path id="md1051d0054" d="M 165.436798 -26.391576 
L 165.436798 -26.3875 
L 166.846388 -26.3875 
L 168.255977 -26.3875 
L 169.665566 -26.3875 
L 171.075156 -26.3875 
L 172.484745 -26.3875 
L 173.894334 -26.3875 
L 175.303923 -26.3875 
L 176.713513 -26.3875 
L 178.123102 -26.3875 
L 179.532691 -26.3875 
L 180.942281 -26.3875 
L 182.35187 -26.3875 
L 183.761459 -26.3875 
L 185.171048 -26.3875 
L 186.580638 -26.3875 
L 187.990227 -26.3875 
L 189.399816 -26.3875 
L 190.809406 -26.3875 
L 192.218995 -26.3875 
L 193.628584 -26.3875 
L 195.038173 -26.3875 
L 196.447763 -26.3875 
L 197.857352 -26.3875 
L 199.266941 -26.3875 
L 200.676531 -26.3875 
L 202.08612 -26.3875 
L 203.495709 -26.3875 
L 204.905299 -26.3875 
L 206.314888 -26.3875 
L 207.724477 -26.3875 
L 209.134066 -26.3875 
L 210.543656 -26.3875 
L 211.953245 -26.3875 
L 213.362834 -26.3875 
L 214.772424 -26.3875 
L 216.182013 -26.3875 
L 217.591602 -26.3875 
L 219.001191 -26.3875 
L 220.410781 -26.3875 
L 221.82037 -26.3875 
L 223.229959 -26.3875 
L 224.639549 -26.3875 
L 226.049138 -26.3875 
L 227.458727 -26.3875 
L 228.868316 -26.3875 
L 230.277906 -26.3875 
L 231.687495 -26.3875 
L 233.097084 -26.3875 
L 234.506674 -26.3875 
L 235.916263 -26.3875 
L 237.325852 -26.3875 
L 238.735441 -26.3875 
L 240.145031 -26.3875 
L 241.55462 -26.3875 
L 242.964209 -26.3875 
L 244.373799 -26.3875 
L 245.783388 -26.3875 
L 247.192977 -26.3875 
L 248.602566 -26.3875 
L 250.012156 -26.3875 
L 251.421745 -26.3875 
L 252.831334 -26.3875 
L 254.240924 -26.3875 
L 255.650513 -26.3875 
L 257.060102 -26.3875 
L 258.469692 -26.3875 
L 259.879281 -26.3875 
L 261.28887 -26.3875 
L 262.698459 -26.3875 
L 264.108049 -26.3875 
L 265.517638 -26.3875 
L 266.927227 -26.3875 
L 268.336817 -26.3875 
L 269.746406 -26.3875 
L 271.155995 -26.3875 
L 272.565584 -26.3875 
L 273.975174 -26.3875 
L 275.384763 -26.3875 
L 276.794352 -26.3875 
L 278.203942 -26.3875 
L 279.613531 -26.3875 
L 281.02312 -26.3875 
L 282.432709 -26.3875 
L 283.842299 -26.3875 
L 285.251888 -26.3875 
L 286.661477 -26.3875 
L 288.071067 -26.3875 
L 289.480656 -26.3875 
L 290.890245 -26.3875 
L 292.299834 -26.3875 
L 293.709424 -26.3875 
L 295.119013 -26.3875 
L 296.528602 -26.3875 
L 297.938192 -26.3875 
L 299.347781 -26.3875 
L 300.75737 -26.3875 
L 302.166959 -26.3875 
L 303.576549 -26.3875 
L 304.986138 -26.3875 
L 306.395727 -26.3875 
L 307.805317 -26.3875 
L 309.214906 -26.3875 
L 310.624495 -26.3875 
L 312.034084 -26.3875 
L 313.443674 -26.3875 
L 314.853263 -26.3875 
L 316.262852 -26.3875 
L 317.672442 -26.3875 
L 319.082031 -26.3875 
L 320.49162 -26.3875 
L 321.90121 -26.3875 
L 323.310799 -26.3875 
L 324.720388 -26.3875 
L 326.129977 -26.3875 
L 327.539567 -26.3875 
L 328.949156 -26.3875 
L 330.358745 -26.3875 
L 331.768335 -26.3875 
L 333.177924 -26.3875 
L 334.587513 -26.3875 
L 335.997102 -26.3875 
L 337.406692 -26.3875 
L 338.816281 -26.3875 
L 340.22587 -26.3875 
L 341.63546 -26.3875 
L 343.045049 -26.3875 
L 344.454638 -26.3875 
L 345.864227 -26.3875 
L 347.273817 -26.3875 
L 348.683406 -26.3875 
L 350.092995 -26.3875 
L 351.502585 -26.3875 
L 352.912174 -26.3875 
L 354.321763 -26.3875 
L 355.731352 -26.3875 
L 357.140942 -26.3875 
L 358.550531 -26.3875 
L 359.96012 -26.3875 
L 361.36971 -26.3875 
L 362.779299 -26.3875 
L 364.188888 -26.3875 
L 365.598477 -26.3875 
L 367.008067 -26.3875 
L 368.417656 -26.3875 
L 369.827245 -26.3875 
L 371.236835 -26.3875 
L 372.646424 -26.3875 
L 374.056013 -26.3875 
L 375.465603 -26.3875 
L 376.875192 -26.3875 
L 378.284781 -26.3875 
L 379.69437 -26.3875 
L 381.10396 -26.3875 
L 382.513549 -26.3875 
L 383.923138 -26.3875 
L 385.332728 -26.3875 
L 386.742317 -26.3875 
L 388.151906 -26.3875 
L 389.561495 -26.3875 
L 390.971085 -26.3875 
L 392.380674 -26.3875 
L 393.790263 -26.3875 
L 395.199853 -26.3875 
L 396.609442 -26.3875 
L 398.019031 -26.3875 
L 399.42862 -26.3875 
L 400.83821 -26.3875 
L 402.247799 -26.3875 
L 403.657388 -26.3875 
L 405.066978 -26.3875 
L 406.476567 -26.3875 
L 407.886156 -26.3875 
L 409.295745 -26.3875 
L 410.705335 -26.3875 
L 412.114924 -26.3875 
L 413.524513 -26.3875 
L 414.934103 -26.3875 
L 416.343692 -26.3875 
L 417.753281 -26.3875 
L 419.16287 -26.3875 
L 420.57246 -26.3875 
L 421.982049 -26.3875 
L 423.391638 -26.3875 
L 424.801228 -26.3875 
L 426.210817 -26.3875 
L 427.620406 -26.3875 
L 429.029995 -26.3875 
L 430.439585 -26.3875 
L 431.849174 -26.3875 
L 433.258763 -26.3875 
L 434.668353 -26.3875 
L 436.077942 -26.3875 
L 437.487531 -26.3875 
L 438.897121 -26.3875 
L 440.30671 -26.3875 
L 441.716299 -26.3875 
L 443.125888 -26.3875 
L 444.535478 -26.3875 
L 445.945067 -26.3875 
L 445.945067 -26.3936 
L 445.945067 -26.3936 
L 444.535478 -26.397801 
L 443.125888 -26.404414 
L 441.716299 -26.414507 
L 440.30671 -26.429452 
L 438.897121 -26.450916 
L 437.487531 -26.480822 
L 436.077942 -26.521252 
L 434.668353 -26.574304 
L 433.258763 -26.641889 
L 431.849174 -26.725519 
L 430.439585 -26.82609 
L 429.029995 -26.943714 
L 427.620406 -27.077631 
L 426.210817 -27.226241 
L 424.801228 -27.38725 
L 423.391638 -27.557957 
L 421.982049 -27.73564 
L 420.57246 -27.918022 
L 419.16287 -28.103777 
L 417.753281 -28.293022 
L 416.343692 -28.487757 
L 414.934103 -28.692183 
L 413.524513 -28.912836 
L 412.114924 -29.158488 
L 410.705335 -29.43974 
L 409.295745 -29.768313 
L 407.886156 -30.156051 
L 406.476567 -30.613743 
L 405.066978 -31.149911 
L 403.657388 -31.769766 
L 402.247799 -32.474517 
L 400.83821 -33.261177 
L 399.42862 -34.122933 
L 398.019031 -35.050004 
L 396.609442 -36.030845 
L 395.199853 -37.053467 
L 393.790263 -38.106649 
L 392.380674 -39.180892 
L 390.971085 -40.269081 
L 389.561495 -41.366944 
L 388.151906 -42.473482 
L 386.742317 -43.591547 
L 385.332728 -44.728661 
L 383.923138 -45.897991 
L 382.513549 -47.119195 
L 381.10396 -48.418728 
L 379.69437 -49.829147 
L 378.284781 -51.387087 
L 376.875192 -53.129864 
L 375.465603 -55.090976 
L 374.056013 -57.295148 
L 372.646424 -59.753767 
L 371.236835 -62.461612 
L 369.827245 -65.395593 
L 368.417656 -68.515899 
L 367.008067 -71.769491 
L 365.598477 -75.095489 
L 364.188888 -78.431627 
L 362.779299 -81.720838 
L 361.36971 -84.916979 
L 359.96012 -87.988905 
L 358.550531 -90.922327 
L 357.140942 -93.719245 
L 355.731352 -96.39506 
L 354.321763 -98.973831 
L 352.912174 -101.482391 
L 351.502585 -103.944255 
L 350.092995 -106.374285 
L 348.683406 -108.775033 
L 347.273817 -111.135383 
L 345.864227 -113.431794 
L 344.454638 -115.631944 
L 343.045049 -117.700177 
L 341.63546 -119.6038 
L 340.22587 -121.319076 
L 338.816281 -122.835805 
L 337.406692 -124.159586 
L 335.997102 -125.311226 
L 334.587513 -126.323296 
L 333.177924 -127.234338 
L 331.768335 -128.08173 
L 330.358745 -128.894529 
L 328.949156 -129.687722 
L 327.539567 -130.459065 
L 326.129977 -131.189241 
L 324.720388 -131.845308 
L 323.310799 -132.386685 
L 321.90121 -132.772327 
L 320.49162 -132.967436 
L 319.082031 -132.948268 
L 317.672442 -132.704121 
L 316.262852 -132.23644 
L 314.853263 -131.555732 
L 313.443674 -130.677597 
L 312.034084 -129.619218 
L 310.624495 -128.397392 
L 309.214906 -127.028466 
L 307.805317 -125.529837 
L 306.395727 -123.922048 
L 304.986138 -122.230331 
L 303.576549 -120.484608 
L 302.166959 -118.717487 
L 300.75737 -116.960439 
L 299.347781 -115.238956 
L 297.938192 -113.567816 
L 296.528602 -111.947611 
L 295.119013 -110.363425 
L 293.709424 -108.786077 
L 292.299834 -107.175786 
L 290.890245 -105.487687 
L 289.480656 -103.678253 
L 288.071067 -101.711606 
L 286.661477 -99.564707 
L 285.251888 -97.230672 
L 283.842299 -94.719746 
L 282.432709 -92.057871 
L 281.02312 -89.28315 
L 279.613531 -86.440857 
L 278.203942 -83.577829 
L 276.794352 -80.737163 
L 275.384763 -77.954036 
L 273.975174 -75.253201 
L 272.565584 -72.648393 
L 271.155995 -70.143517 
L 269.746406 -67.735167 
L 268.336817 -65.41588 
L 266.927227 -63.177416 
L 265.517638 -61.013489 
L 264.108049 -58.921507 
L 262.698459 -56.903111 
L 261.28887 -54.963582 
L 259.879281 -53.110319 
L 258.469692 -51.350828 
L 257.060102 -49.690663 
L 255.650513 -48.131782 
L 254.240924 -46.671665 
L 252.831334 -45.303374 
L 251.421745 -44.016503 
L 250.012156 -42.798816 
L 248.602566 -41.638179 
L 247.192977 -40.524388 
L 245.783388 -39.450509 
L 244.373799 -38.413497 
L 242.964209 -37.414027 
L 241.55462 -36.45565 
L 240.145031 -35.543522 
L 238.735441 -34.683013 
L 237.325852 -33.878494 
L 235.916263 -33.132501 
L 234.506674 -32.445403 
L 233.097084 -31.815529 
L 231.687495 -31.239651 
L 230.277906 -30.713664 
L 228.868316 -30.233281 
L 227.458727 -29.7946 
L 226.049138 -29.394467 
L 224.639549 -29.030583 
L 223.229959 -28.701402 
L 221.82037 -28.405857 
L 220.410781 -28.143019 
L 219.001191 -27.911746 
L 217.591602 -27.710432 
L 216.182013 -27.536873 
L 214.772424 -27.388304 
L 213.362834 -27.26158 
L 211.953245 -27.153468 
L 210.543656 -27.060979 
L 209.134066 -26.981666 
L 207.724477 -26.913824 
L 206.314888 -26.85653 
L 204.905299 -26.809524 
L 203.495709 -26.77295 
L 202.08612 -26.747 
L 200.676531 -26.731559 
L 199.266941 -26.725899 
L 197.857352 -26.72852 
L 196.447763 -26.737135 
L 195.038173 -26.748843 
L 193.628584 -26.760434 
L 192.218995 -26.768772 
L 190.809406 -26.771198 
L 189.399816 -26.765853 
L 187.990227 -26.751894 
L 186.580638 -26.729536 
L 185.171048 -26.699947 
L 183.761459 -26.665009 
L 182.35187 -26.627001 
L 180.942281 -26.588269 
L 179.532691 -26.550931 
L 178.123102 -26.516665 
L 176.713513 -26.486603 
L 175.303923 -26.461312 
L 173.894334 -26.440864 
L 172.484745 -26.424949 
L 171.075156 -26.413009 
L 169.665566 -26.404365 
L 168.255977 -26.398323 
L 166.846388 -26.394241 
L 165.436798 -26.391576 
z
" style="stroke: #858585; stroke-width: 0.01"/>
    </defs>
    <g clip-path="url(#pa95f7e4db9)">
     <use xlink:href="#md1051d0054" x="0" y="190.355" style="fill: #858585; fill-opacity: 0.25; stroke: #858585; stroke-width: 0.01"/>
    </g>
   </g>
   <g id="line2d_11">
    <path d="M 83.772125 163.963482 
L 95.938223 163.855537 
L 110.132004 163.610247 
L 128.38115 163.747104 
L 142.574931 163.479755 
L 156.768712 163.34076 
L 164.879444 162.983398 
L 172.990176 162.631467 
L 179.073224 162.635854 
L 191.239322 162.864864 
L 195.294688 162.659431 
L 201.377737 161.985214 
L 205.433103 161.550028 
L 209.488469 161.364752 
L 213.543835 161.44671 
L 219.626884 161.666267 
L 223.68225 161.592183 
L 227.737616 161.226962 
L 231.792982 160.523928 
L 235.848348 159.424647 
L 237.87603 158.699041 
L 239.903713 157.838001 
L 241.931396 156.829503 
L 243.959079 155.668073 
L 248.014445 152.924683 
L 252.069811 149.807759 
L 258.15286 144.865478 
L 262.208226 141.18095 
L 264.235909 139.08139 
L 266.263592 136.774427 
L 270.318958 131.583301 
L 274.374324 125.74691 
L 276.402007 122.555801 
L 278.42969 119.10906 
L 280.457373 115.340714 
L 282.485056 111.208081 
L 284.512739 106.713101 
L 288.568105 96.886807 
L 296.678836 76.651764 
L 300.734202 67.357578 
L 304.789568 58.968768 
L 306.817251 55.178251 
L 308.844934 51.688885 
L 310.872617 48.523458 
L 312.9003 45.706955 
L 314.927983 43.269017 
L 316.955666 41.243965 
L 318.983349 39.668375 
L 321.011032 38.578424 
L 323.038715 38.010081 
L 325.066398 38.003627 
L 327.094081 38.61053 
L 329.121764 39.897257 
L 331.149447 41.939591 
L 333.17713 44.804133 
L 335.204813 48.520059 
L 337.232496 53.050902 
L 339.260179 58.279118 
L 343.315545 70.015989 
L 347.370911 81.927159 
L 349.398594 87.518612 
L 351.426277 92.779079 
L 355.481643 102.390163 
L 359.537008 111.100985 
L 363.592374 119.163627 
L 367.64774 126.683943 
L 371.703106 133.764639 
L 375.758472 140.388107 
L 377.786155 143.437179 
L 379.813838 146.229006 
L 381.841521 148.702939 
L 383.869204 150.818185 
L 385.896887 152.564791 
L 387.92457 153.966213 
L 389.952253 155.073255 
L 391.979936 155.952048 
L 396.035302 157.285275 
L 400.090668 158.348906 
L 404.146034 159.264492 
L 408.2014 160.013603 
L 428.478229 163.193011 
L 432.533595 163.510286 
L 436.588961 163.602596 
L 467.004206 163.650489 
L 483.225669 163.952016 
L 487.281035 163.963481 
L 487.281035 163.963481 
" clip-path="url(#pa95f7e4db9)" style="fill: none; stroke: #af5a51; stroke-width: 1.2; stroke-linecap: square"/>
   </g>
   <g id="line2d_12">
    <path d="M 221.240471 163.953484 
L 227.101902 163.816 
L 230.032617 163.572013 
L 232.963333 163.07261 
L 234.917143 162.534931 
L 236.870953 161.79545 
L 238.824764 160.833648 
L 240.778574 159.642996 
L 242.732384 158.231195 
L 245.6631 155.750317 
L 249.57072 152.006808 
L 253.478341 148.290491 
L 256.409056 145.817863 
L 261.293582 141.919633 
L 263.247392 140.065868 
L 265.201203 137.880614 
L 267.155013 135.364738 
L 270.085728 131.181986 
L 277.90097 119.51772 
L 279.85478 116.124454 
L 281.80859 112.22665 
L 283.7624 107.762238 
L 285.716211 102.794207 
L 289.623831 92.061179 
L 293.531452 81.479352 
L 297.439072 71.60327 
L 301.346693 62.374383 
L 304.277409 56.001903 
L 307.208124 50.265021 
L 310.138839 45.211517 
L 312.09265 42.218963 
L 314.04646 39.543248 
L 316.00027 37.225711 
L 317.954081 35.324864 
L 319.907891 33.897181 
L 320.884796 33.372915 
L 321.861701 32.977822 
L 322.838606 32.711836 
L 323.815511 32.573859 
L 324.792417 32.562728 
L 325.769322 32.678444 
L 326.746227 32.92346 
L 327.723132 33.303856 
L 328.700037 33.830148 
L 329.676942 34.517531 
L 330.653847 35.385386 
L 331.630753 36.455987 
L 332.607658 37.752454 
L 333.584563 39.296139 
L 334.561468 41.103726 
L 335.538373 43.184421 
L 337.492183 48.15141 
L 339.445994 54.055223 
L 342.376709 63.964964 
L 346.28433 77.09381 
L 348.23814 82.987579 
L 350.19195 88.335013 
L 353.122666 95.547362 
L 357.030286 104.372806 
L 360.937907 112.771862 
L 363.868622 118.702019 
L 367.776243 126.016502 
L 374.614579 138.10275 
L 377.545294 143.086994 
L 379.499105 146.146754 
L 381.452915 148.862688 
L 383.406725 151.160548 
L 385.360536 153.030494 
L 387.314346 154.529827 
L 389.268156 155.76309 
L 393.175777 157.878868 
L 399.037208 160.891806 
L 401.967923 162.136316 
L 403.921733 162.769918 
L 405.875544 163.235163 
L 408.806259 163.660312 
L 412.71388 163.892605 
L 415.644595 163.946106 
L 415.644595 163.946106 
" clip-path="url(#pa95f7e4db9)" style="fill: none; stroke: #489079; stroke-width: 1.2; stroke-linecap: square"/>
   </g>
   <g id="patch_3">
    <path d="M 34.860938 163.9675 
L 34.860938 25.3675 
" style="fill: none; stroke: #bbbbbb; stroke-width: 0.75; stroke-linejoin: miter; stroke-linecap: square"/>
   </g>
   <g id="patch_4">
    <path d="M 39.860937 168.9675 
L 597.860937 168.9675 
" style="fill: none; stroke: #bbbbbb; stroke-width: 0.75; stroke-linejoin: miter; stroke-linecap: square"/>
   </g>
   <g id="legend_1">
    <g id="patch_5">
     <path d="M 47.060938 16.66375 
L 63.060938 16.66375 
L 63.060938 11.06375 
L 47.060938 11.06375 
z
" style="fill: #858585; fill-opacity: 0.25; stroke: #858585; stroke-width: 0.01; stroke-linejoin: miter"/>
    </g>
    <g id="text_12">
     <!-- Normal distribution -->
     <g style="fill: #4b4b4b" transform="translate(69.460938 16.66375) scale(0.08 -0.08)">
      <defs>
       <path id="Ubuntu-4e" d="M 3590 0 
Q 3450 237 3267 531 
Q 3085 826 2873 1142 
Q 2662 1459 2435 1785 
Q 2208 2112 1984 2416 
Q 1760 2720 1549 2989 
Q 1338 3258 1158 3462 
L 1158 0 
L 550 0 
L 550 4435 
L 1043 4435 
Q 1344 4115 1686 3689 
Q 2029 3264 2365 2813 
Q 2701 2362 2998 1926 
Q 3296 1491 3501 1152 
L 3501 4435 
L 4109 4435 
L 4109 0 
L 3590 0 
z
" transform="scale(0.015625)"/>
       <path id="Ubuntu-6f" d="M 3450 1664 
Q 3450 1267 3334 947 
Q 3219 627 3011 396 
Q 2803 166 2515 41 
Q 2227 -83 1888 -83 
Q 1549 -83 1261 41 
Q 973 166 765 396 
Q 557 627 441 947 
Q 326 1267 326 1664 
Q 326 2054 441 2377 
Q 557 2701 765 2931 
Q 973 3162 1261 3286 
Q 1549 3411 1888 3411 
Q 2227 3411 2515 3286 
Q 2803 3162 3011 2931 
Q 3219 2701 3334 2377 
Q 3450 2054 3450 1664 
z
M 2829 1664 
Q 2829 2227 2576 2556 
Q 2323 2886 1888 2886 
Q 1453 2886 1200 2556 
Q 947 2227 947 1664 
Q 947 1101 1200 771 
Q 1453 442 1888 442 
Q 2323 442 2576 771 
Q 2829 1101 2829 1664 
z
" transform="scale(0.015625)"/>
       <path id="Ubuntu-72" d="M 1741 3398 
Q 1818 3398 1917 3388 
Q 2016 3379 2112 3363 
Q 2208 3347 2288 3331 
Q 2368 3315 2406 3302 
L 2304 2784 
Q 2234 2810 2070 2845 
Q 1907 2880 1651 2880 
Q 1485 2880 1321 2845 
Q 1158 2810 1107 2797 
L 1107 0 
L 512 0 
L 512 3187 
Q 723 3264 1036 3331 
Q 1350 3398 1741 3398 
z
" transform="scale(0.015625)"/>
       <path id="Ubuntu-6d" d="M 512 3232 
Q 717 3283 1053 3340 
Q 1389 3398 1830 3398 
Q 2150 3398 2368 3312 
Q 2586 3226 2733 3059 
Q 2778 3091 2874 3148 
Q 2970 3206 3110 3260 
Q 3251 3315 3424 3356 
Q 3597 3398 3795 3398 
Q 4179 3398 4422 3286 
Q 4666 3174 4803 2969 
Q 4941 2765 4989 2483 
Q 5037 2202 5037 1869 
L 5037 0 
L 4442 0 
L 4442 1741 
Q 4442 2035 4413 2246 
Q 4384 2458 4304 2598 
Q 4224 2739 4086 2806 
Q 3949 2874 3731 2874 
Q 3430 2874 3235 2794 
Q 3040 2714 2970 2650 
Q 3021 2483 3046 2284 
Q 3072 2086 3072 1869 
L 3072 0 
L 2477 0 
L 2477 1741 
Q 2477 2035 2445 2246 
Q 2413 2458 2333 2598 
Q 2253 2739 2115 2806 
Q 1978 2874 1766 2874 
Q 1677 2874 1574 2867 
Q 1472 2861 1379 2851 
Q 1286 2842 1209 2829 
Q 1133 2816 1107 2810 
L 1107 0 
L 512 0 
L 512 3232 
z
" transform="scale(0.015625)"/>
       <path id="Ubuntu-61" d="M 1638 429 
Q 1850 429 2013 438 
Q 2176 448 2285 474 
L 2285 1466 
Q 2221 1498 2077 1520 
Q 1933 1542 1728 1542 
Q 1594 1542 1443 1523 
Q 1293 1504 1168 1443 
Q 1043 1382 960 1276 
Q 877 1171 877 998 
Q 877 678 1081 553 
Q 1286 429 1638 429 
z
M 1587 3411 
Q 1946 3411 2192 3318 
Q 2438 3226 2588 3056 
Q 2739 2886 2803 2652 
Q 2867 2419 2867 2138 
L 2867 58 
Q 2790 45 2652 22 
Q 2515 0 2342 -19 
Q 2170 -38 1968 -54 
Q 1766 -70 1568 -70 
Q 1286 -70 1049 -12 
Q 813 45 640 169 
Q 467 294 371 499 
Q 275 704 275 992 
Q 275 1267 387 1465 
Q 499 1664 691 1785 
Q 883 1907 1139 1964 
Q 1395 2022 1677 2022 
Q 1766 2022 1862 2012 
Q 1958 2003 2044 1987 
Q 2131 1971 2195 1958 
Q 2259 1946 2285 1939 
L 2285 2106 
Q 2285 2253 2253 2397 
Q 2221 2541 2137 2653 
Q 2054 2765 1910 2832 
Q 1766 2899 1536 2899 
Q 1242 2899 1021 2857 
Q 800 2816 691 2771 
L 621 3264 
Q 736 3315 1005 3363 
Q 1274 3411 1587 3411 
z
" transform="scale(0.015625)"/>
       <path id="Ubuntu-6c" d="M 1510 -64 
Q 960 -51 729 173 
Q 499 397 499 870 
L 499 4864 
L 1094 4966 
L 1094 966 
Q 1094 819 1120 723 
Q 1146 627 1203 569 
Q 1261 512 1357 483 
Q 1453 454 1594 435 
L 1510 -64 
z
" transform="scale(0.015625)"/>
       <path id="Ubuntu-20" transform="scale(0.015625)"/>
       <path id="Ubuntu-64" d="M 2662 2624 
Q 2554 2714 2349 2797 
Q 2144 2880 1901 2880 
Q 1645 2880 1462 2787 
Q 1280 2694 1165 2531 
Q 1050 2368 998 2144 
Q 947 1920 947 1664 
Q 947 1082 1235 765 
Q 1523 448 2003 448 
Q 2246 448 2409 470 
Q 2573 493 2662 518 
L 2662 2624 
z
M 2662 4864 
L 3258 4966 
L 3258 96 
Q 3053 38 2733 -19 
Q 2413 -77 1997 -77 
Q 1613 -77 1305 44 
Q 998 166 780 390 
Q 563 614 444 937 
Q 326 1261 326 1664 
Q 326 2048 425 2368 
Q 525 2688 717 2918 
Q 909 3149 1187 3277 
Q 1466 3405 1824 3405 
Q 2112 3405 2333 3328 
Q 2554 3251 2662 3181 
L 2662 4864 
z
" transform="scale(0.015625)"/>
       <path id="Ubuntu-69" d="M 1107 0 
L 512 0 
L 512 3328 
L 1107 3328 
L 1107 0 
z
M 806 3930 
Q 646 3930 534 4035 
Q 422 4141 422 4320 
Q 422 4499 534 4604 
Q 646 4710 806 4710 
Q 966 4710 1078 4604 
Q 1190 4499 1190 4320 
Q 1190 4141 1078 4035 
Q 966 3930 806 3930 
z
" transform="scale(0.015625)"/>
       <path id="Ubuntu-73" d="M 1286 429 
Q 1651 429 1827 525 
Q 2003 621 2003 832 
Q 2003 1050 1830 1178 
Q 1658 1306 1261 1466 
Q 1069 1542 893 1622 
Q 717 1702 589 1811 
Q 461 1920 384 2073 
Q 307 2227 307 2451 
Q 307 2893 633 3152 
Q 960 3411 1523 3411 
Q 1664 3411 1805 3395 
Q 1946 3379 2067 3356 
Q 2189 3334 2281 3308 
Q 2374 3283 2426 3264 
L 2317 2752 
Q 2221 2803 2016 2857 
Q 1811 2912 1523 2912 
Q 1274 2912 1088 2813 
Q 902 2714 902 2502 
Q 902 2394 944 2310 
Q 986 2227 1072 2160 
Q 1158 2093 1286 2035 
Q 1414 1978 1594 1914 
Q 1830 1824 2016 1737 
Q 2202 1651 2333 1536 
Q 2464 1421 2534 1257 
Q 2605 1094 2605 858 
Q 2605 397 2262 160 
Q 1920 -77 1286 -77 
Q 845 -77 595 -3 
Q 346 70 256 109 
L 365 621 
Q 467 582 691 505 
Q 915 429 1286 429 
z
" transform="scale(0.015625)"/>
       <path id="Ubuntu-74" d="M 1069 3328 
L 2330 3328 
L 2330 2829 
L 1069 2829 
L 1069 1293 
Q 1069 1043 1107 880 
Q 1146 717 1222 624 
Q 1299 531 1414 492 
Q 1530 454 1683 454 
Q 1952 454 2115 515 
Q 2278 576 2342 602 
L 2458 109 
Q 2368 64 2144 -3 
Q 1920 -70 1632 -70 
Q 1293 -70 1072 16 
Q 851 102 716 275 
Q 582 448 528 701 
Q 474 954 474 1286 
L 474 4256 
L 1069 4358 
L 1069 3328 
z
" transform="scale(0.015625)"/>
       <path id="Ubuntu-62" d="M 1107 3181 
Q 1216 3251 1437 3328 
Q 1658 3405 1946 3405 
Q 2304 3405 2582 3277 
Q 2861 3149 3053 2918 
Q 3245 2688 3344 2368 
Q 3443 2048 3443 1664 
Q 3443 1261 3324 937 
Q 3206 614 2988 390 
Q 2771 166 2464 44 
Q 2157 -77 1773 -77 
Q 1357 -77 1037 -19 
Q 717 38 512 96 
L 512 4864 
L 1107 4966 
L 1107 3181 
z
M 1107 518 
Q 1197 493 1360 470 
Q 1523 448 1766 448 
Q 2246 448 2534 765 
Q 2822 1082 2822 1664 
Q 2822 1920 2771 2144 
Q 2720 2368 2605 2531 
Q 2490 2694 2307 2787 
Q 2125 2880 1869 2880 
Q 1626 2880 1421 2797 
Q 1216 2714 1107 2624 
L 1107 518 
z
" transform="scale(0.015625)"/>
       <path id="Ubuntu-75" d="M 3162 96 
Q 2957 45 2621 -12 
Q 2285 -70 1843 -70 
Q 1459 -70 1196 42 
Q 934 154 774 358 
Q 614 563 544 841 
Q 474 1120 474 1459 
L 474 3328 
L 1069 3328 
L 1069 1587 
Q 1069 979 1261 716 
Q 1453 454 1907 454 
Q 2003 454 2105 460 
Q 2208 467 2297 476 
Q 2387 486 2460 496 
Q 2534 506 2566 518 
L 2566 3328 
L 3162 3328 
L 3162 96 
z
" transform="scale(0.015625)"/>
       <path id="Ubuntu-6e" d="M 512 3232 
Q 717 3283 1056 3340 
Q 1395 3398 1837 3398 
Q 2234 3398 2496 3286 
Q 2758 3174 2915 2972 
Q 3072 2771 3136 2489 
Q 3200 2208 3200 1869 
L 3200 0 
L 2605 0 
L 2605 1741 
Q 2605 2048 2563 2265 
Q 2522 2483 2426 2617 
Q 2330 2752 2170 2813 
Q 2010 2874 1773 2874 
Q 1677 2874 1574 2867 
Q 1472 2861 1379 2851 
Q 1286 2842 1212 2829 
Q 1139 2816 1107 2810 
L 1107 0 
L 512 0 
L 512 3232 
z
" transform="scale(0.015625)"/>
      </defs>
      <use xlink:href="#Ubuntu-4e"/>
      <use xlink:href="#Ubuntu-6f" x="72.799988"/>
      <use xlink:href="#Ubuntu-72" x="131.799973"/>
      <use xlink:href="#Ubuntu-6d" x="170.399963"/>
      <use xlink:href="#Ubuntu-61" x="256.499954"/>
      <use xlink:href="#Ubuntu-6c" x="308.699951"/>
      <use xlink:href="#Ubuntu-20" x="335.999939"/>
      <use xlink:href="#Ubuntu-64" x="359.09993"/>
      <use xlink:href="#Ubuntu-69" x="417.999924"/>
      <use xlink:href="#Ubuntu-73" x="443.299911"/>
      <use xlink:href="#Ubuntu-74" x="487.899902"/>
      <use xlink:href="#Ubuntu-72" x="528.099899"/>
      <use xlink:href="#Ubuntu-69" x="566.69989"/>
      <use xlink:href="#Ubuntu-62" x="591.999878"/>
      <use xlink:href="#Ubuntu-75" x="650.899872"/>
      <use xlink:href="#Ubuntu-74" x="708.299866"/>
      <use xlink:href="#Ubuntu-69" x="748.499863"/>
      <use xlink:href="#Ubuntu-6f" x="773.79985"/>
      <use xlink:href="#Ubuntu-6e" x="832.799835"/>
     </g>
    </g>
    <g id="line2d_13">
     <path d="M 156.675938 13.86375 
L 164.675938 13.86375 
L 172.675938 13.86375 
" style="fill: none; stroke: #af5a51; stroke-width: 1.2; stroke-linecap: square"/>
    </g>
    <g id="text_13">
     <!-- Residuals (original) -->
     <g style="fill: #4b4b4b" transform="translate(179.075938 16.66375) scale(0.08 -0.08)">
      <defs>
       <path id="Ubuntu-52" d="M 2720 1856 
Q 2822 1728 2979 1520 
Q 3136 1312 3302 1059 
Q 3469 806 3632 531 
Q 3795 256 3910 0 
L 3232 0 
Q 3104 243 2953 492 
Q 2803 742 2649 969 
Q 2496 1197 2345 1395 
Q 2195 1594 2074 1741 
Q 1990 1734 1904 1734 
Q 1818 1734 1728 1734 
L 1171 1734 
L 1171 0 
L 550 0 
L 550 4371 
Q 813 4435 1136 4457 
Q 1459 4480 1728 4480 
Q 2662 4480 3152 4128 
Q 3642 3776 3642 3078 
Q 3642 2637 3408 2323 
Q 3174 2010 2720 1856 
z
M 1779 3936 
Q 1382 3936 1171 3917 
L 1171 2246 
L 1613 2246 
Q 1933 2246 2189 2278 
Q 2445 2310 2621 2400 
Q 2797 2490 2893 2653 
Q 2989 2816 2989 3085 
Q 2989 3334 2893 3500 
Q 2797 3667 2633 3763 
Q 2470 3859 2249 3897 
Q 2029 3936 1779 3936 
z
" transform="scale(0.015625)"/>
       <path id="Ubuntu-65" d="M 326 1658 
Q 326 2099 454 2428 
Q 582 2758 793 2976 
Q 1005 3194 1280 3302 
Q 1555 3411 1843 3411 
Q 2515 3411 2873 2992 
Q 3232 2573 3232 1715 
Q 3232 1677 3232 1616 
Q 3232 1555 3226 1504 
L 947 1504 
Q 986 986 1248 717 
Q 1510 448 2067 448 
Q 2381 448 2595 502 
Q 2810 557 2918 608 
L 3002 109 
Q 2893 51 2621 -13 
Q 2349 -77 2003 -77 
Q 1568 -77 1251 54 
Q 934 186 729 416 
Q 525 646 425 963 
Q 326 1280 326 1658 
z
M 2611 1984 
Q 2618 2387 2410 2646 
Q 2202 2906 1837 2906 
Q 1632 2906 1475 2826 
Q 1318 2746 1209 2618 
Q 1101 2490 1040 2323 
Q 979 2157 960 1984 
L 2611 1984 
z
" transform="scale(0.015625)"/>
       <path id="Ubuntu-28" d="M 1094 1914 
Q 1094 1094 1331 396 
Q 1568 -301 2029 -896 
L 1606 -1184 
Q 1107 -576 803 214 
Q 499 1005 499 1914 
Q 499 2822 803 3612 
Q 1107 4403 1606 5011 
L 2029 4723 
Q 1568 4128 1331 3430 
Q 1094 2733 1094 1914 
z
" transform="scale(0.015625)"/>
       <path id="Ubuntu-67" d="M 2598 333 
Q 2522 282 2301 202 
Q 2080 122 1786 122 
Q 1485 122 1219 218 
Q 954 314 755 515 
Q 557 717 441 1017 
Q 326 1318 326 1734 
Q 326 2099 435 2403 
Q 544 2707 752 2928 
Q 960 3149 1261 3273 
Q 1562 3398 1939 3398 
Q 2355 3398 2665 3337 
Q 2976 3277 3187 3226 
L 3187 256 
Q 3187 -512 2790 -857 
Q 2394 -1203 1587 -1203 
Q 1274 -1203 995 -1152 
Q 717 -1101 512 -1030 
L 621 -512 
Q 800 -582 1059 -636 
Q 1318 -691 1600 -691 
Q 2131 -691 2364 -480 
Q 2598 -269 2598 192 
L 2598 333 
z
M 2592 2803 
Q 2502 2829 2352 2851 
Q 2202 2874 1946 2874 
Q 1466 2874 1206 2560 
Q 947 2246 947 1728 
Q 947 1440 1020 1235 
Q 1094 1030 1219 896 
Q 1344 762 1507 698 
Q 1670 634 1843 634 
Q 2080 634 2278 701 
Q 2477 768 2592 858 
L 2592 2803 
z
" transform="scale(0.015625)"/>
       <path id="Ubuntu-29" d="M 979 1914 
Q 979 2733 742 3430 
Q 506 4128 45 4723 
L 467 5011 
Q 966 4403 1270 3612 
Q 1574 2822 1574 1914 
Q 1574 1005 1270 214 
Q 966 -576 467 -1184 
L 45 -896 
Q 506 -301 742 396 
Q 979 1094 979 1914 
z
" transform="scale(0.015625)"/>
      </defs>
      <use xlink:href="#Ubuntu-52"/>
      <use xlink:href="#Ubuntu-65" x="62.899994"/>
      <use xlink:href="#Ubuntu-73" x="118.799988"/>
      <use xlink:href="#Ubuntu-69" x="163.399979"/>
      <use xlink:href="#Ubuntu-64" x="188.699966"/>
      <use xlink:href="#Ubuntu-75" x="247.59996"/>
      <use xlink:href="#Ubuntu-61" x="304.999954"/>
      <use xlink:href="#Ubuntu-6c" x="357.199951"/>
      <use xlink:href="#Ubuntu-73" x="384.499939"/>
      <use xlink:href="#Ubuntu-20" x="429.09993"/>
      <use xlink:href="#Ubuntu-28" x="452.199921"/>
      <use xlink:href="#Ubuntu-6f" x="484.599915"/>
      <use xlink:href="#Ubuntu-72" x="543.599899"/>
      <use xlink:href="#Ubuntu-69" x="582.19989"/>
      <use xlink:href="#Ubuntu-67" x="607.499878"/>
      <use xlink:href="#Ubuntu-69" x="665.299866"/>
      <use xlink:href="#Ubuntu-6e" x="690.599854"/>
      <use xlink:href="#Ubuntu-61" x="747.999847"/>
      <use xlink:href="#Ubuntu-6c" x="800.199844"/>
      <use xlink:href="#Ubuntu-29" x="827.499832"/>
     </g>
    </g>
    <g id="line2d_14">
     <path d="M 263.868438 13.86375 
L 271.868438 13.86375 
L 279.868438 13.86375 
" style="fill: none; stroke: #489079; stroke-width: 1.2; stroke-linecap: square"/>
    </g>
    <g id="text_14">
     <!-- Residuals (trimmed) -->
     <g style="fill: #4b4b4b" transform="translate(286.268438 16.66375) scale(0.08 -0.08)">
      <use xlink:href="#Ubuntu-52"/>
      <use xlink:href="#Ubuntu-65" x="62.899994"/>
      <use xlink:href="#Ubuntu-73" x="118.799988"/>
      <use xlink:href="#Ubuntu-69" x="163.399979"/>
      <use xlink:href="#Ubuntu-64" x="188.699966"/>
      <use xlink:href="#Ubuntu-75" x="247.59996"/>
      <use xlink:href="#Ubuntu-61" x="304.999954"/>
      <use xlink:href="#Ubuntu-6c" x="357.199951"/>
      <use xlink:href="#Ubuntu-73" x="384.499939"/>
      <use xlink:href="#Ubuntu-20" x="429.09993"/>
      <use xlink:href="#Ubuntu-28" x="452.199921"/>
      <use xlink:href="#Ubuntu-74" x="484.599915"/>
      <use xlink:href="#Ubuntu-72" x="524.799911"/>
      <use xlink:href="#Ubuntu-69" x="563.399902"/>
      <use xlink:href="#Ubuntu-6d" x="588.69989"/>
      <use xlink:href="#Ubuntu-6d" x="674.799881"/>
      <use xlink:href="#Ubuntu-65" x="760.899872"/>
      <use xlink:href="#Ubuntu-64" x="816.799866"/>
      <use xlink:href="#Ubuntu-29" x="875.69986"/>
     </g>
    </g>
   </g>
  </g>
 </g>
 <defs>
  <clipPath id="pa95f7e4db9">
   <rect x="39.860938" y="25.3675" width="558" height="138.6"/>
  </clipPath>
 </defs>
</svg>
