<?xml version="1.0" encoding="utf-8" standalone="no"?>
<!DOCTYPE svg PUBLIC "-//W3C//DTD SVG 1.1//EN"
  "http://www.w3.org/Graphics/SVG/1.1/DTD/svg11.dtd">
<svg xmlns:xlink="http://www.w3.org/1999/xlink" width="610.557187pt" height="206.946875pt" viewBox="0 0 610.557187 206.946875" xmlns="http://www.w3.org/2000/svg" version="1.1">
 <metadata>
  <rdf:RDF xmlns:dc="http://purl.org/dc/elements/1.1/" xmlns:cc="http://creativecommons.org/ns#" xmlns:rdf="http://www.w3.org/1999/02/22-rdf-syntax-ns#">
   <cc:Work>
    <dc:type rdf:resource="http://purl.org/dc/dcmitype/StillImage"/>
    <dc:date>2024-02-19T21:39:30.630976</dc:date>
    <dc:format>image/svg+xml</dc:format>
    <dc:creator>
     <cc:Agent>
      <dc:title>Matplotlib v3.8.0, https://matplotlib.org/</dc:title>
     </cc:Agent>
    </dc:creator>
   </cc:Work>
  </rdf:RDF>
 </metadata>
 <defs>
  <style type="text/css">*{stroke-linejoin: round; stroke-linecap: butt}</style>
 </defs>
 <g id="figure_1">
  <g id="patch_1">
   <path d="M 0 206.946875 
L 610.557187 206.946875 
L 610.557187 0 
L 0 0 
L 0 206.946875 
z
" style="fill: none"/>
  </g>
  <g id="axes_1">
   <g id="patch_2">
    <path d="M 39.860938 180.559375 
L 597.860937 180.559375 
L 597.860937 41.959375 
L 39.860938 41.959375 
L 39.860938 180.559375 
z
" style="fill: none"/>
   </g>
   <g id="matplotlib.axis_1">
    <g id="xtick_1">
     <g id="line2d_1">
      <defs>
       <path id="m231db869cc" d="M 0 0 
L 0 3 
" style="stroke: #bbbbbb; stroke-width: 0.75"/>
      </defs>
      <g>
       <use xlink:href="#m231db869cc" x="39.860937" y="185.559375" style="fill: #bbbbbb; stroke: #bbbbbb; stroke-width: 0.75"/>
      </g>
     </g>
     <g id="text_1">
      <!-- −1.0 -->
      <g style="fill: #9f9f9f" transform="translate(32.108437 198.266875) scale(0.08 -0.08)">
       <defs>
        <path id="Ubuntu-2212" d="M 339 2138 
L 3270 2138 
L 3270 1632 
L 339 1632 
L 339 2138 
z
" transform="scale(0.015625)"/>
        <path id="Ubuntu-31" d="M 595 3520 
Q 960 3661 1305 3881 
Q 1651 4102 1939 4435 
L 2362 4435 
L 2362 0 
L 1766 0 
L 1766 3610 
Q 1690 3539 1578 3462 
Q 1466 3386 1334 3315 
Q 1203 3245 1059 3181 
Q 915 3117 781 3072 
L 595 3520 
z
" transform="scale(0.015625)"/>
        <path id="Ubuntu-2e" d="M 1216 346 
Q 1216 173 1101 45 
Q 986 -83 787 -83 
Q 589 -83 473 45 
Q 358 173 358 346 
Q 358 518 473 646 
Q 589 774 787 774 
Q 986 774 1101 646 
Q 1216 518 1216 346 
z
" transform="scale(0.015625)"/>
        <path id="Ubuntu-30" d="M 320 2221 
Q 320 3334 713 3936 
Q 1107 4538 1805 4538 
Q 2502 4538 2896 3936 
Q 3290 3334 3290 2221 
Q 3290 1107 2896 505 
Q 2502 -96 1805 -96 
Q 1107 -96 713 505 
Q 320 1107 320 2221 
z
M 2662 2221 
Q 2662 2586 2620 2912 
Q 2579 3238 2480 3481 
Q 2381 3725 2214 3869 
Q 2048 4013 1805 4013 
Q 1562 4013 1395 3869 
Q 1229 3725 1129 3481 
Q 1030 3238 988 2912 
Q 947 2586 947 2221 
Q 947 1856 988 1529 
Q 1030 1203 1129 960 
Q 1229 717 1395 573 
Q 1562 429 1805 429 
Q 2048 429 2214 573 
Q 2381 717 2480 960 
Q 2579 1203 2620 1529 
Q 2662 1856 2662 2221 
z
" transform="scale(0.015625)"/>
       </defs>
       <use xlink:href="#Ubuntu-2212"/>
       <use xlink:href="#Ubuntu-31" x="56.399994"/>
       <use xlink:href="#Ubuntu-2e" x="112.799988"/>
       <use xlink:href="#Ubuntu-30" x="137.399979"/>
      </g>
     </g>
    </g>
    <g id="xtick_2">
     <g id="line2d_2">
      <g>
       <use xlink:href="#m231db869cc" x="179.360937" y="185.559375" style="fill: #bbbbbb; stroke: #bbbbbb; stroke-width: 0.75"/>
      </g>
     </g>
     <g id="text_2">
      <!-- −0.5 -->
      <g style="fill: #9f9f9f" transform="translate(171.608437 198.266875) scale(0.08 -0.08)">
       <defs>
        <path id="Ubuntu-35" d="M 1274 2726 
Q 2240 2688 2691 2304 
Q 3142 1920 3142 1261 
Q 3142 966 3043 716 
Q 2944 467 2742 288 
Q 2541 109 2233 6 
Q 1926 -96 1504 -96 
Q 1338 -96 1165 -70 
Q 992 -45 845 -6 
Q 698 32 582 70 
Q 467 109 416 134 
L 531 653 
Q 640 602 886 518 
Q 1133 435 1491 435 
Q 1779 435 1974 499 
Q 2170 563 2291 672 
Q 2413 781 2467 925 
Q 2522 1069 2522 1229 
Q 2522 1472 2438 1661 
Q 2355 1850 2144 1978 
Q 1933 2106 1581 2173 
Q 1229 2240 691 2240 
Q 730 2554 752 2829 
Q 774 3104 793 3366 
Q 813 3629 825 3888 
Q 838 4147 851 4435 
L 2989 4435 
L 2989 3930 
L 1370 3930 
Q 1363 3834 1350 3670 
Q 1338 3507 1325 3331 
Q 1312 3155 1299 2988 
Q 1286 2822 1274 2726 
z
" transform="scale(0.015625)"/>
       </defs>
       <use xlink:href="#Ubuntu-2212"/>
       <use xlink:href="#Ubuntu-30" x="56.399994"/>
       <use xlink:href="#Ubuntu-2e" x="112.799988"/>
       <use xlink:href="#Ubuntu-35" x="137.399979"/>
      </g>
     </g>
    </g>
    <g id="xtick_3">
     <g id="line2d_3">
      <g>
       <use xlink:href="#m231db869cc" x="318.860937" y="185.559375" style="fill: #bbbbbb; stroke: #bbbbbb; stroke-width: 0.75"/>
      </g>
     </g>
     <g id="text_3">
      <!-- 0.0 -->
      <g style="fill: #9f9f9f" transform="translate(313.364688 198.266875) scale(0.08 -0.08)">
       <use xlink:href="#Ubuntu-30"/>
       <use xlink:href="#Ubuntu-2e" x="56.399994"/>
       <use xlink:href="#Ubuntu-30" x="80.999985"/>
      </g>
     </g>
    </g>
    <g id="xtick_4">
     <g id="line2d_4">
      <g>
       <use xlink:href="#m231db869cc" x="458.360937" y="185.559375" style="fill: #bbbbbb; stroke: #bbbbbb; stroke-width: 0.75"/>
      </g>
     </g>
     <g id="text_4">
      <!-- 0.5 -->
      <g style="fill: #9f9f9f" transform="translate(452.864688 198.266875) scale(0.08 -0.08)">
       <use xlink:href="#Ubuntu-30"/>
       <use xlink:href="#Ubuntu-2e" x="56.399994"/>
       <use xlink:href="#Ubuntu-35" x="80.999985"/>
      </g>
     </g>
    </g>
    <g id="xtick_5">
     <g id="line2d_5">
      <g>
       <use xlink:href="#m231db869cc" x="597.860937" y="185.559375" style="fill: #bbbbbb; stroke: #bbbbbb; stroke-width: 0.75"/>
      </g>
     </g>
     <g id="text_5">
      <!-- 1.0 -->
      <g style="fill: #9f9f9f" transform="translate(592.364687 198.266875) scale(0.08 -0.08)">
       <use xlink:href="#Ubuntu-31"/>
       <use xlink:href="#Ubuntu-2e" x="56.399994"/>
       <use xlink:href="#Ubuntu-30" x="80.999985"/>
      </g>
     </g>
    </g>
   </g>
   <g id="matplotlib.axis_2">
    <g id="ytick_1">
     <g id="line2d_6">
      <defs>
       <path id="m479a10b990" d="M 0 0 
L -3 0 
" style="stroke: #bbbbbb; stroke-width: 0.75"/>
      </defs>
      <g>
       <use xlink:href="#m479a10b990" x="34.860938" y="180.559375" style="fill: #bbbbbb; stroke: #bbbbbb; stroke-width: 0.75"/>
      </g>
     </g>
     <g id="text_6">
      <!-- 0 -->
      <g style="fill: #9f9f9f" transform="translate(23.848438 183.663125) scale(0.08 -0.08)">
       <use xlink:href="#Ubuntu-30"/>
      </g>
     </g>
    </g>
    <g id="ytick_2">
     <g id="line2d_7">
      <g>
       <use xlink:href="#m479a10b990" x="34.860938" y="145.909375" style="fill: #bbbbbb; stroke: #bbbbbb; stroke-width: 0.75"/>
      </g>
     </g>
     <g id="text_7">
      <!-- 1 -->
      <g style="fill: #9f9f9f" transform="translate(23.848438 149.013125) scale(0.08 -0.08)">
       <use xlink:href="#Ubuntu-31"/>
      </g>
     </g>
    </g>
    <g id="ytick_3">
     <g id="line2d_8">
      <g>
       <use xlink:href="#m479a10b990" x="34.860938" y="111.259375" style="fill: #bbbbbb; stroke: #bbbbbb; stroke-width: 0.75"/>
      </g>
     </g>
     <g id="text_8">
      <!-- 2 -->
      <g style="fill: #9f9f9f" transform="translate(23.848438 114.363125) scale(0.08 -0.08)">
       <defs>
        <path id="Ubuntu-32" d="M 2989 3302 
Q 2989 3072 2896 2857 
Q 2803 2643 2649 2435 
Q 2496 2227 2304 2025 
Q 2112 1824 1920 1632 
Q 1811 1523 1667 1376 
Q 1523 1229 1395 1069 
Q 1267 909 1180 761 
Q 1094 614 1094 506 
L 3136 506 
L 3136 0 
L 448 0 
Q 442 38 442 76 
Q 442 115 442 147 
Q 442 448 541 707 
Q 640 966 800 1196 
Q 960 1427 1158 1632 
Q 1357 1837 1549 2029 
Q 1709 2182 1853 2332 
Q 1997 2483 2109 2633 
Q 2221 2784 2288 2944 
Q 2355 3104 2355 3283 
Q 2355 3475 2294 3609 
Q 2234 3744 2131 3833 
Q 2029 3923 1891 3964 
Q 1754 4006 1600 4006 
Q 1414 4006 1260 3955 
Q 1107 3904 985 3837 
Q 864 3770 781 3696 
Q 698 3622 653 3584 
L 358 4006 
Q 416 4070 531 4163 
Q 646 4256 806 4339 
Q 966 4422 1164 4480 
Q 1363 4538 1594 4538 
Q 2291 4538 2640 4214 
Q 2989 3891 2989 3302 
z
" transform="scale(0.015625)"/>
       </defs>
       <use xlink:href="#Ubuntu-32"/>
      </g>
     </g>
    </g>
    <g id="ytick_4">
     <g id="line2d_9">
      <g>
       <use xlink:href="#m479a10b990" x="34.860938" y="76.609375" style="fill: #bbbbbb; stroke: #bbbbbb; stroke-width: 0.75"/>
      </g>
     </g>
     <g id="text_9">
      <!-- 3 -->
      <g style="fill: #9f9f9f" transform="translate(23.848438 79.713125) scale(0.08 -0.08)">
       <defs>
        <path id="Ubuntu-33" d="M 1446 435 
Q 2016 435 2262 659 
Q 2509 883 2509 1261 
Q 2509 1504 2406 1670 
Q 2304 1837 2137 1936 
Q 1971 2035 1750 2076 
Q 1530 2118 1299 2118 
L 1146 2118 
L 1146 2605 
L 1357 2605 
Q 1517 2605 1686 2637 
Q 1856 2669 1997 2752 
Q 2138 2835 2227 2979 
Q 2317 3123 2317 3341 
Q 2317 3520 2253 3648 
Q 2189 3776 2083 3859 
Q 1978 3942 1840 3977 
Q 1702 4013 1549 4013 
Q 1242 4013 1027 3923 
Q 813 3834 666 3738 
L 435 4192 
Q 512 4243 630 4304 
Q 749 4365 896 4416 
Q 1043 4467 1212 4502 
Q 1382 4538 1568 4538 
Q 1920 4538 2176 4451 
Q 2432 4365 2598 4208 
Q 2765 4051 2848 3836 
Q 2931 3622 2931 3373 
Q 2931 3027 2732 2780 
Q 2534 2534 2253 2406 
Q 2426 2355 2586 2259 
Q 2746 2163 2864 2016 
Q 2982 1869 3056 1677 
Q 3130 1485 3130 1248 
Q 3130 960 3030 713 
Q 2931 467 2723 288 
Q 2515 109 2201 6 
Q 1888 -96 1459 -96 
Q 1293 -96 1117 -70 
Q 941 -45 787 -6 
Q 634 32 518 70 
Q 403 109 352 134 
L 467 653 
Q 576 602 829 518 
Q 1082 435 1446 435 
z
" transform="scale(0.015625)"/>
       </defs>
       <use xlink:href="#Ubuntu-33"/>
      </g>
     </g>
    </g>
    <g id="ytick_5">
     <g id="line2d_10">
      <g>
       <use xlink:href="#m479a10b990" x="34.860938" y="41.959375" style="fill: #bbbbbb; stroke: #bbbbbb; stroke-width: 0.75"/>
      </g>
     </g>
     <g id="text_10">
      <!-- 4 -->
      <g style="fill: #9f9f9f" transform="translate(23.848438 45.063125) scale(0.08 -0.08)">
       <defs>
        <path id="Ubuntu-34" d="M 256 1536 
Q 378 1818 589 2192 
Q 800 2566 1065 2963 
Q 1331 3360 1635 3744 
Q 1939 4128 2246 4435 
L 2816 4435 
L 2816 1619 
L 3341 1619 
L 3341 1133 
L 2816 1133 
L 2816 0 
L 2240 0 
L 2240 1133 
L 256 1133 
L 256 1536 
z
M 2240 3731 
Q 2048 3526 1853 3273 
Q 1658 3021 1472 2745 
Q 1286 2470 1123 2182 
Q 960 1894 832 1619 
L 2240 1619 
L 2240 3731 
z
" transform="scale(0.015625)"/>
       </defs>
       <use xlink:href="#Ubuntu-34"/>
      </g>
     </g>
    </g>
    <g id="text_11">
     <!-- Density -->
     <g style="fill: #505050" transform="translate(14.183438 75.127188) rotate(-90) scale(0.09 -0.09)">
      <defs>
       <path id="Ubuntu-Bold-44" d="M 1510 813 
Q 1581 806 1673 803 
Q 1766 800 1894 800 
Q 2643 800 3004 1177 
Q 3366 1555 3366 2221 
Q 3366 2918 3020 3276 
Q 2675 3635 1926 3635 
Q 1824 3635 1715 3632 
Q 1606 3629 1510 3616 
L 1510 813 
z
M 4397 2221 
Q 4397 1645 4217 1216 
Q 4038 787 3708 505 
Q 3379 224 2905 83 
Q 2432 -58 1843 -58 
Q 1574 -58 1216 -35 
Q 858 -13 512 58 
L 512 4378 
Q 858 4442 1232 4464 
Q 1606 4486 1875 4486 
Q 2445 4486 2909 4358 
Q 3373 4230 3705 3955 
Q 4038 3680 4217 3251 
Q 4397 2822 4397 2221 
z
" transform="scale(0.015625)"/>
       <path id="Ubuntu-Bold-65" d="M 288 1658 
Q 288 2106 425 2442 
Q 563 2778 787 3002 
Q 1011 3226 1302 3341 
Q 1594 3456 1901 3456 
Q 2618 3456 3034 3017 
Q 3450 2579 3450 1728 
Q 3450 1645 3443 1545 
Q 3437 1446 3430 1370 
L 1267 1370 
Q 1299 1075 1542 902 
Q 1786 730 2195 730 
Q 2458 730 2710 778 
Q 2963 826 3123 896 
L 3251 122 
Q 3174 83 3046 44 
Q 2918 6 2761 -22 
Q 2605 -51 2425 -70 
Q 2246 -90 2067 -90 
Q 1613 -90 1277 44 
Q 941 179 720 412 
Q 499 646 393 966 
Q 288 1286 288 1658 
z
M 2528 2022 
Q 2522 2144 2486 2259 
Q 2451 2374 2377 2464 
Q 2304 2554 2192 2611 
Q 2080 2669 1914 2669 
Q 1754 2669 1638 2614 
Q 1523 2560 1446 2470 
Q 1370 2381 1328 2262 
Q 1286 2144 1267 2022 
L 2528 2022 
z
" transform="scale(0.015625)"/>
       <path id="Ubuntu-Bold-6e" d="M 448 3251 
Q 691 3322 1075 3382 
Q 1459 3443 1882 3443 
Q 2310 3443 2595 3331 
Q 2880 3219 3046 3014 
Q 3213 2810 3283 2528 
Q 3354 2246 3354 1901 
L 3354 0 
L 2400 0 
L 2400 1786 
Q 2400 2246 2278 2438 
Q 2157 2630 1824 2630 
Q 1722 2630 1606 2620 
Q 1491 2611 1402 2598 
L 1402 0 
L 448 0 
L 448 3251 
z
" transform="scale(0.015625)"/>
       <path id="Ubuntu-Bold-73" d="M 1414 685 
Q 1677 685 1785 736 
Q 1894 787 1894 934 
Q 1894 1050 1753 1136 
Q 1613 1222 1325 1331 
Q 1101 1414 918 1504 
Q 736 1594 608 1718 
Q 480 1843 409 2016 
Q 339 2189 339 2432 
Q 339 2906 691 3181 
Q 1043 3456 1658 3456 
Q 1965 3456 2246 3401 
Q 2528 3347 2694 3283 
L 2528 2541 
Q 2362 2598 2166 2643 
Q 1971 2688 1728 2688 
Q 1280 2688 1280 2438 
Q 1280 2381 1299 2336 
Q 1318 2291 1376 2249 
Q 1434 2208 1533 2160 
Q 1632 2112 1786 2054 
Q 2099 1939 2304 1827 
Q 2509 1715 2627 1584 
Q 2746 1453 2794 1293 
Q 2842 1133 2842 922 
Q 2842 422 2467 166 
Q 2093 -90 1408 -90 
Q 960 -90 662 -13 
Q 365 64 250 115 
L 410 890 
Q 653 794 909 739 
Q 1165 685 1414 685 
z
" transform="scale(0.015625)"/>
       <path id="Ubuntu-Bold-69" d="M 1402 0 
L 448 0 
L 448 3366 
L 1402 3366 
L 1402 0 
z
M 1491 4339 
Q 1491 4077 1321 3926 
Q 1152 3776 922 3776 
Q 691 3776 521 3926 
Q 352 4077 352 4339 
Q 352 4602 521 4752 
Q 691 4902 922 4902 
Q 1152 4902 1321 4752 
Q 1491 4602 1491 4339 
z
" transform="scale(0.015625)"/>
       <path id="Ubuntu-Bold-74" d="M 416 4205 
L 1370 4358 
L 1370 3366 
L 2515 3366 
L 2515 2573 
L 1370 2573 
L 1370 1389 
Q 1370 1088 1475 909 
Q 1581 730 1901 730 
Q 2054 730 2217 758 
Q 2381 787 2515 838 
L 2650 96 
Q 2477 26 2265 -25 
Q 2054 -77 1747 -77 
Q 1357 -77 1101 28 
Q 845 134 691 323 
Q 538 512 477 781 
Q 416 1050 416 1376 
L 416 4205 
z
" transform="scale(0.015625)"/>
       <path id="Ubuntu-Bold-79" d="M 3437 3366 
Q 3149 2394 2835 1542 
Q 2522 691 2150 -109 
Q 2016 -397 1881 -598 
Q 1747 -800 1587 -931 
Q 1427 -1062 1225 -1123 
Q 1024 -1184 755 -1184 
Q 531 -1184 342 -1142 
Q 154 -1101 32 -1050 
L 198 -288 
Q 346 -339 461 -358 
Q 576 -378 704 -378 
Q 960 -378 1097 -240 
Q 1235 -102 1331 141 
Q 1005 781 678 1577 
Q 352 2374 64 3366 
L 1075 3366 
Q 1139 3117 1225 2825 
Q 1312 2534 1408 2236 
Q 1504 1939 1603 1657 
Q 1702 1376 1792 1146 
Q 1875 1376 1964 1657 
Q 2054 1939 2140 2236 
Q 2227 2534 2307 2825 
Q 2387 3117 2451 3366 
L 3437 3366 
z
" transform="scale(0.015625)"/>
      </defs>
      <use xlink:href="#Ubuntu-Bold-44"/>
      <use xlink:href="#Ubuntu-Bold-65" x="73.699982"/>
      <use xlink:href="#Ubuntu-Bold-6e" x="132.099976"/>
      <use xlink:href="#Ubuntu-Bold-73" x="190.999969"/>
      <use xlink:href="#Ubuntu-Bold-69" x="239.499954"/>
      <use xlink:href="#Ubuntu-Bold-74" x="268.399948"/>
      <use xlink:href="#Ubuntu-Bold-79" x="313.799942"/>
     </g>
    </g>
   </g>
   <g id="PolyCollection_1">
    <defs>
     <path id="m0b93b378c5" d="M 185.678724 -26.39226 
L 185.678724 -26.3875 
L 187.01245 -26.3875 
L 188.346177 -26.3875 
L 189.679903 -26.3875 
L 191.013629 -26.3875 
L 192.347355 -26.3875 
L 193.681082 -26.3875 
L 195.014808 -26.3875 
L 196.348534 -26.3875 
L 197.68226 -26.3875 
L 199.015987 -26.3875 
L 200.349713 -26.3875 
L 201.683439 -26.3875 
L 203.017165 -26.3875 
L 204.350892 -26.3875 
L 205.684618 -26.3875 
L 207.018344 -26.3875 
L 208.35207 -26.3875 
L 209.685796 -26.3875 
L 211.019523 -26.3875 
L 212.353249 -26.3875 
L 213.686975 -26.3875 
L 215.020701 -26.3875 
L 216.354428 -26.3875 
L 217.688154 -26.3875 
L 219.02188 -26.3875 
L 220.355606 -26.3875 
L 221.689333 -26.3875 
L 223.023059 -26.3875 
L 224.356785 -26.3875 
L 225.690511 -26.3875 
L 227.024238 -26.3875 
L 228.357964 -26.3875 
L 229.69169 -26.3875 
L 231.025416 -26.3875 
L 232.359143 -26.3875 
L 233.692869 -26.3875 
L 235.026595 -26.3875 
L 236.360321 -26.3875 
L 237.694048 -26.3875 
L 239.027774 -26.3875 
L 240.3615 -26.3875 
L 241.695226 -26.3875 
L 243.028953 -26.3875 
L 244.362679 -26.3875 
L 245.696405 -26.3875 
L 247.030131 -26.3875 
L 248.363858 -26.3875 
L 249.697584 -26.3875 
L 251.03131 -26.3875 
L 252.365036 -26.3875 
L 253.698763 -26.3875 
L 255.032489 -26.3875 
L 256.366215 -26.3875 
L 257.699941 -26.3875 
L 259.033668 -26.3875 
L 260.367394 -26.3875 
L 261.70112 -26.3875 
L 263.034846 -26.3875 
L 264.368573 -26.3875 
L 265.702299 -26.3875 
L 267.036025 -26.3875 
L 268.369751 -26.3875 
L 269.703477 -26.3875 
L 271.037204 -26.3875 
L 272.37093 -26.3875 
L 273.704656 -26.3875 
L 275.038382 -26.3875 
L 276.372109 -26.3875 
L 277.705835 -26.3875 
L 279.039561 -26.3875 
L 280.373287 -26.3875 
L 281.707014 -26.3875 
L 283.04074 -26.3875 
L 284.374466 -26.3875 
L 285.708192 -26.3875 
L 287.041919 -26.3875 
L 288.375645 -26.3875 
L 289.709371 -26.3875 
L 291.043097 -26.3875 
L 292.376824 -26.3875 
L 293.71055 -26.3875 
L 295.044276 -26.3875 
L 296.378002 -26.3875 
L 297.711729 -26.3875 
L 299.045455 -26.3875 
L 300.379181 -26.3875 
L 301.712907 -26.3875 
L 303.046634 -26.3875 
L 304.38036 -26.3875 
L 305.714086 -26.3875 
L 307.047812 -26.3875 
L 308.381539 -26.3875 
L 309.715265 -26.3875 
L 311.048991 -26.3875 
L 312.382717 -26.3875 
L 313.716444 -26.3875 
L 315.05017 -26.3875 
L 316.383896 -26.3875 
L 317.717622 -26.3875 
L 319.051349 -26.3875 
L 320.385075 -26.3875 
L 321.718801 -26.3875 
L 323.052527 -26.3875 
L 324.386254 -26.3875 
L 325.71998 -26.3875 
L 327.053706 -26.3875 
L 328.387432 -26.3875 
L 329.721158 -26.3875 
L 331.054885 -26.3875 
L 332.388611 -26.3875 
L 333.722337 -26.3875 
L 335.056063 -26.3875 
L 336.38979 -26.3875 
L 337.723516 -26.3875 
L 339.057242 -26.3875 
L 340.390968 -26.3875 
L 341.724695 -26.3875 
L 343.058421 -26.3875 
L 344.392147 -26.3875 
L 345.725873 -26.3875 
L 347.0596 -26.3875 
L 348.393326 -26.3875 
L 349.727052 -26.3875 
L 351.060778 -26.3875 
L 352.394505 -26.3875 
L 353.728231 -26.3875 
L 355.061957 -26.3875 
L 356.395683 -26.3875 
L 357.72941 -26.3875 
L 359.063136 -26.3875 
L 360.396862 -26.3875 
L 361.730588 -26.3875 
L 363.064315 -26.3875 
L 364.398041 -26.3875 
L 365.731767 -26.3875 
L 367.065493 -26.3875 
L 368.39922 -26.3875 
L 369.732946 -26.3875 
L 371.066672 -26.3875 
L 372.400398 -26.3875 
L 373.734125 -26.3875 
L 375.067851 -26.3875 
L 376.401577 -26.3875 
L 377.735303 -26.3875 
L 379.06903 -26.3875 
L 380.402756 -26.3875 
L 381.736482 -26.3875 
L 383.070208 -26.3875 
L 384.403935 -26.3875 
L 385.737661 -26.3875 
L 387.071387 -26.3875 
L 388.405113 -26.3875 
L 389.738839 -26.3875 
L 391.072566 -26.3875 
L 392.406292 -26.3875 
L 393.740018 -26.3875 
L 395.073744 -26.3875 
L 396.407471 -26.3875 
L 397.741197 -26.3875 
L 399.074923 -26.3875 
L 400.408649 -26.3875 
L 401.742376 -26.3875 
L 403.076102 -26.3875 
L 404.409828 -26.3875 
L 405.743554 -26.3875 
L 407.077281 -26.3875 
L 408.411007 -26.3875 
L 409.744733 -26.3875 
L 411.078459 -26.3875 
L 412.412186 -26.3875 
L 413.745912 -26.3875 
L 415.079638 -26.3875 
L 416.413364 -26.3875 
L 417.747091 -26.3875 
L 419.080817 -26.3875 
L 420.414543 -26.3875 
L 421.748269 -26.3875 
L 423.081996 -26.3875 
L 424.415722 -26.3875 
L 425.749448 -26.3875 
L 427.083174 -26.3875 
L 428.416901 -26.3875 
L 429.750627 -26.3875 
L 431.084353 -26.3875 
L 432.418079 -26.3875 
L 433.751806 -26.3875 
L 435.085532 -26.3875 
L 436.419258 -26.3875 
L 437.752984 -26.3875 
L 439.086711 -26.3875 
L 440.420437 -26.3875 
L 441.754163 -26.3875 
L 443.087889 -26.3875 
L 444.421615 -26.3875 
L 445.755342 -26.3875 
L 447.089068 -26.3875 
L 448.422794 -26.3875 
L 449.75652 -26.3875 
L 451.090247 -26.3875 
L 451.090247 -26.391556 
L 451.090247 -26.391556 
L 449.75652 -26.394011 
L 448.422794 -26.397691 
L 447.089068 -26.403057 
L 445.755342 -26.410665 
L 444.421615 -26.421162 
L 443.087889 -26.435258 
L 441.754163 -26.453694 
L 440.420437 -26.477205 
L 439.086711 -26.50648 
L 437.752984 -26.542148 
L 436.419258 -26.584793 
L 435.085532 -26.635012 
L 433.751806 -26.693521 
L 432.418079 -26.76131 
L 431.084353 -26.839804 
L 429.750627 -26.931018 
L 428.416901 -27.037644 
L 427.083174 -27.163033 
L 425.749448 -27.311038 
L 424.415722 -27.485714 
L 423.081996 -27.690888 
L 421.748269 -27.929672 
L 420.414543 -28.203977 
L 419.080817 -28.514148 
L 417.747091 -28.858775 
L 416.413364 -29.234768 
L 415.079638 -29.637674 
L 413.745912 -30.062237 
L 412.412186 -30.503102 
L 411.078459 -30.95557 
L 409.744733 -31.416308 
L 408.411007 -31.88392 
L 407.077281 -32.359321 
L 405.743554 -32.84592 
L 404.409828 -33.349601 
L 403.076102 -33.878557 
L 401.742376 -34.442993 
L 400.408649 -35.054715 
L 399.074923 -35.726595 
L 397.741197 -36.471895 
L 396.407471 -37.30343 
L 395.073744 -38.232598 
L 393.740018 -39.268332 
L 392.406292 -40.416097 
L 391.072566 -41.677096 
L 389.738839 -43.047826 
L 388.405113 -44.520144 
L 387.071387 -46.081871 
L 385.737661 -47.717926 
L 384.403935 -49.41184 
L 383.070208 -51.147464 
L 381.736482 -52.91063 
L 380.402756 -54.690553 
L 379.06903 -56.480804 
L 377.735303 -58.27978 
L 376.401577 -60.090634 
L 375.067851 -61.920736 
L 373.734125 -63.780734 
L 372.400398 -65.683335 
L 371.066672 -67.641921 
L 369.732946 -69.66911 
L 368.39922 -71.775415 
L 367.065493 -73.968118 
L 365.731767 -76.250509 
L 364.398041 -78.621582 
L 363.064315 -81.076226 
L 361.730588 -83.605886 
L 360.396862 -86.199554 
L 359.063136 -88.844876 
L 357.72941 -91.529156 
L 356.395683 -94.24002 
L 355.061957 -96.965577 
L 353.728231 -99.694047 
L 352.394505 -102.412896 
L 351.060778 -105.107669 
L 349.727052 -107.760749 
L 348.393326 -110.350338 
L 347.0596 -112.849899 
L 345.725873 -115.228302 
L 344.392147 -117.450798 
L 343.058421 -119.480861 
L 341.724695 -121.282825 
L 340.390968 -122.825107 
L 339.057242 -124.083696 
L 337.723516 -125.045493 
L 336.38979 -125.711034 
L 335.056063 -126.096156 
L 333.722337 -126.232237 
L 332.388611 -126.164806 
L 331.054885 -125.950532 
L 329.721158 -125.652811 
L 328.387432 -125.336382 
L 327.053706 -125.061573 
L 325.71998 -124.878834 
L 324.386254 -124.82421 
L 323.052527 -124.916297 
L 321.718801 -125.155022 
L 320.385075 -125.522365 
L 319.051349 -125.98488 
L 317.717622 -126.497644 
L 316.383896 -127.009121 
L 315.05017 -127.466317 
L 313.716444 -127.819642 
L 312.382717 -128.026958 
L 311.048991 -128.056423 
L 309.715265 -127.88791 
L 308.381539 -127.512965 
L 307.047812 -126.933392 
L 305.714086 -126.158738 
L 304.38036 -125.203048 
L 303.046634 -124.081363 
L 301.712907 -122.806468 
L 300.379181 -121.386389 
L 299.045455 -119.823026 
L 297.711729 -118.112153 
L 296.378002 -116.244802 
L 295.044276 -114.209787 
L 293.71055 -111.996958 
L 292.376824 -109.600633 
L 291.043097 -107.022606 
L 289.709371 -104.274274 
L 288.375645 -101.377516 
L 287.041919 -98.36422 
L 285.708192 -95.27454 
L 284.374466 -92.154135 
L 283.04074 -89.050769 
L 281.707014 -86.010683 
L 280.373287 -83.075162 
L 279.039561 -80.277645 
L 277.705835 -77.641662 
L 276.372109 -75.17977 
L 275.038382 -72.893533 
L 273.704656 -70.774493 
L 272.37093 -68.805931 
L 271.037204 -66.965151 
L 269.703477 -65.225969 
L 268.369751 -63.561077 
L 267.036025 -61.944064 
L 265.702299 -60.350917 
L 264.368573 -58.761025 
L 263.034846 -57.157768 
L 261.70112 -55.528854 
L 260.367394 -53.866583 
L 259.033668 -52.168141 
L 257.699941 -50.435933 
L 256.366215 -48.67787 
L 255.032489 -46.907441 
L 253.698763 -45.143386 
L 252.365036 -43.408834 
L 251.03131 -41.72986 
L 249.697584 -40.133544 
L 248.363858 -38.645734 
L 247.030131 -37.288787 
L 245.696405 -36.079585 
L 244.362679 -35.02808 
L 243.028953 -34.136558 
L 241.695226 -33.399669 
L 240.3615 -32.805187 
L 239.027774 -32.335353 
L 237.694048 -31.968615 
L 236.360321 -31.681538 
L 235.026595 -31.450681 
L 233.692869 -31.254275 
L 232.359143 -31.073559 
L 231.025416 -30.89371 
L 229.69169 -30.704319 
L 228.357964 -30.499425 
L 227.024238 -30.27715 
L 225.690511 -30.039003 
L 224.356785 -29.788966 
L 223.023059 -29.532468 
L 221.689333 -29.275387 
L 220.355606 -29.023196 
L 219.02188 -28.780328 
L 217.688154 -28.549834 
L 216.354428 -28.333316 
L 215.020701 -28.131112 
L 213.686975 -27.942641 
L 212.353249 -27.766829 
L 211.019523 -27.602515 
L 209.685796 -27.448775 
L 208.35207 -27.305103 
L 207.018344 -27.17146 
L 205.684618 -27.048197 
L 204.350892 -26.935889 
L 203.017165 -26.835144 
L 201.683439 -26.746413 
L 200.349713 -26.669847 
L 199.015987 -26.605228 
L 197.68226 -26.551952 
L 196.348534 -26.509081 
L 195.014808 -26.475432 
L 193.681082 -26.449684 
L 192.347355 -26.430481 
L 191.013629 -26.416526 
L 189.679903 -26.406646 
L 188.346177 -26.399833 
L 187.01245 -26.395255 
L 185.678724 -26.39226 
z
" style="stroke: #858585; stroke-width: 0.01"/>
    </defs>
    <g clip-path="url(#pf69c904523)">
     <use xlink:href="#m0b93b378c5" x="0" y="206.946875" style="fill: #858585; fill-opacity: 0.25; stroke: #858585; stroke-width: 0.01"/>
    </g>
   </g>
   <g id="line2d_11">
    <path d="M 83.772125 180.555357 
L 95.938223 180.447412 
L 110.132004 180.202122 
L 128.38115 180.338979 
L 142.574931 180.07163 
L 156.768712 179.932635 
L 164.879444 179.575273 
L 172.990176 179.223342 
L 179.073224 179.227729 
L 191.239322 179.456739 
L 195.294688 179.251306 
L 201.377737 178.577089 
L 205.433103 178.141903 
L 209.488469 177.956627 
L 213.543835 178.038585 
L 219.626884 178.258142 
L 223.68225 178.184058 
L 227.737616 177.818837 
L 231.792982 177.115803 
L 235.848348 176.016522 
L 237.87603 175.290916 
L 239.903713 174.429876 
L 241.931396 173.421378 
L 243.959079 172.259948 
L 248.014445 169.516558 
L 252.069811 166.399634 
L 258.15286 161.457353 
L 262.208226 157.772825 
L 264.235909 155.673265 
L 266.263592 153.366302 
L 270.318958 148.175176 
L 274.374324 142.338785 
L 276.402007 139.147676 
L 278.42969 135.700935 
L 280.457373 131.932589 
L 282.485056 127.799956 
L 284.512739 123.304976 
L 288.568105 113.478682 
L 296.678836 93.243639 
L 300.734202 83.949453 
L 304.789568 75.560643 
L 306.817251 71.770126 
L 308.844934 68.28076 
L 310.872617 65.115333 
L 312.9003 62.29883 
L 314.927983 59.860892 
L 316.955666 57.83584 
L 318.983349 56.26025 
L 321.011032 55.170299 
L 323.038715 54.601956 
L 325.066398 54.595502 
L 327.094081 55.202405 
L 329.121764 56.489132 
L 331.149447 58.531466 
L 333.17713 61.396008 
L 335.204813 65.111934 
L 337.232496 69.642777 
L 339.260179 74.870993 
L 343.315545 86.607864 
L 347.370911 98.519034 
L 349.398594 104.110487 
L 351.426277 109.370954 
L 355.481643 118.982038 
L 359.537008 127.69286 
L 363.592374 135.755502 
L 367.64774 143.275818 
L 371.703106 150.356514 
L 375.758472 156.979982 
L 377.786155 160.029054 
L 379.813838 162.820881 
L 381.841521 165.294814 
L 383.869204 167.41006 
L 385.896887 169.156666 
L 387.92457 170.558088 
L 389.952253 171.66513 
L 391.979936 172.543923 
L 396.035302 173.87715 
L 400.090668 174.940781 
L 404.146034 175.856367 
L 408.2014 176.605478 
L 428.478229 179.784886 
L 432.533595 180.102161 
L 436.588961 180.194471 
L 467.004206 180.242364 
L 483.225669 180.543891 
L 487.281035 180.555356 
L 487.281035 180.555356 
" clip-path="url(#pf69c904523)" style="fill: none; stroke: #af5a51; stroke-width: 1.2; stroke-linecap: square"/>
   </g>
   <g id="line2d_12">
    <path d="M 221.240471 180.545359 
L 227.101902 180.407875 
L 230.032617 180.163888 
L 232.963333 179.664485 
L 234.917143 179.126806 
L 236.870953 178.387325 
L 238.824764 177.425523 
L 240.778574 176.234871 
L 242.732384 174.82307 
L 245.6631 172.342192 
L 249.57072 168.598683 
L 253.478341 164.882366 
L 256.409056 162.409738 
L 261.293582 158.511508 
L 263.247392 156.657743 
L 265.201203 154.472489 
L 267.155013 151.956613 
L 270.085728 147.773861 
L 277.90097 136.109595 
L 279.85478 132.716329 
L 281.80859 128.818525 
L 283.7624 124.354113 
L 285.716211 119.386082 
L 289.623831 108.653054 
L 293.531452 98.071227 
L 297.439072 88.195145 
L 301.346693 78.966258 
L 304.277409 72.593778 
L 307.208124 66.856896 
L 310.138839 61.803392 
L 312.09265 58.810838 
L 314.04646 56.135123 
L 316.00027 53.817586 
L 317.954081 51.916739 
L 319.907891 50.489056 
L 320.884796 49.96479 
L 321.861701 49.569697 
L 322.838606 49.303711 
L 323.815511 49.165734 
L 324.792417 49.154603 
L 325.769322 49.270319 
L 326.746227 49.515335 
L 327.723132 49.895731 
L 328.700037 50.422023 
L 329.676942 51.109406 
L 330.653847 51.977261 
L 331.630753 53.047862 
L 332.607658 54.344329 
L 333.584563 55.888014 
L 334.561468 57.695601 
L 335.538373 59.776296 
L 337.492183 64.743285 
L 339.445994 70.647098 
L 342.376709 80.556839 
L 346.28433 93.685685 
L 348.23814 99.579454 
L 350.19195 104.926888 
L 353.122666 112.139237 
L 357.030286 120.964681 
L 360.937907 129.363737 
L 363.868622 135.293894 
L 367.776243 142.608377 
L 374.614579 154.694625 
L 377.545294 159.678869 
L 379.499105 162.738629 
L 381.452915 165.454563 
L 383.406725 167.752423 
L 385.360536 169.622369 
L 387.314346 171.121702 
L 389.268156 172.354965 
L 393.175777 174.470743 
L 399.037208 177.483681 
L 401.967923 178.728191 
L 403.921733 179.361793 
L 405.875544 179.827038 
L 408.806259 180.252187 
L 412.71388 180.48448 
L 415.644595 180.537981 
L 415.644595 180.537981 
" clip-path="url(#pf69c904523)" style="fill: none; stroke: #489079; stroke-width: 1.2; stroke-linecap: square"/>
   </g>
   <g id="patch_3">
    <path d="M 34.860938 180.559375 
L 34.860938 41.959375 
" style="fill: none; stroke: #bbbbbb; stroke-width: 0.75; stroke-linejoin: miter; stroke-linecap: square"/>
   </g>
   <g id="patch_4">
    <path d="M 39.860937 185.559375 
L 597.860937 185.559375 
" style="fill: none; stroke: #bbbbbb; stroke-width: 0.75; stroke-linejoin: miter; stroke-linecap: square"/>
   </g>
   <g id="text_12">
    <!-- Comparison of Residual distributions with and without outliers -->
    <g style="fill: #303030" transform="translate(39.860938 14.959375) scale(0.1 -0.1)">
     <defs>
      <path id="Ubuntu-Medium-43" d="M 2502 -96 
Q 2003 -96 1606 57 
Q 1210 211 934 508 
Q 659 806 512 1235 
Q 365 1664 365 2221 
Q 365 2778 534 3206 
Q 704 3635 998 3932 
Q 1293 4230 1689 4384 
Q 2086 4538 2541 4538 
Q 2816 4538 3040 4496 
Q 3264 4454 3430 4403 
Q 3597 4352 3705 4294 
Q 3814 4237 3859 4211 
L 3622 3552 
Q 3469 3648 3184 3734 
Q 2899 3821 2566 3821 
Q 2278 3821 2028 3721 
Q 1779 3622 1596 3424 
Q 1414 3226 1312 2925 
Q 1210 2624 1210 2227 
Q 1210 1875 1290 1580 
Q 1370 1286 1536 1072 
Q 1702 858 1958 739 
Q 2214 621 2573 621 
Q 3002 621 3270 707 
Q 3539 794 3686 870 
L 3904 211 
Q 3827 160 3696 109 
Q 3565 58 3385 10 
Q 3206 -38 2982 -67 
Q 2758 -96 2502 -96 
z
" transform="scale(0.015625)"/>
      <path id="Ubuntu-Medium-6f" d="M 3520 1677 
Q 3520 1280 3405 953 
Q 3290 627 3078 396 
Q 2867 166 2569 38 
Q 2272 -90 1914 -90 
Q 1555 -90 1260 38 
Q 966 166 755 396 
Q 544 627 425 953 
Q 307 1280 307 1677 
Q 307 2074 425 2397 
Q 544 2720 758 2950 
Q 973 3181 1267 3305 
Q 1562 3430 1914 3430 
Q 2266 3430 2563 3305 
Q 2861 3181 3072 2950 
Q 3283 2720 3401 2397 
Q 3520 2074 3520 1677 
z
M 2726 1677 
Q 2726 2176 2512 2467 
Q 2298 2758 1914 2758 
Q 1530 2758 1315 2467 
Q 1101 2176 1101 1677 
Q 1101 1171 1315 876 
Q 1530 582 1914 582 
Q 2298 582 2512 876 
Q 2726 1171 2726 1677 
z
" transform="scale(0.015625)"/>
      <path id="Ubuntu-Medium-6d" d="M 2400 1760 
Q 2400 2285 2269 2518 
Q 2138 2752 1779 2752 
Q 1651 2752 1497 2733 
Q 1344 2714 1267 2701 
L 1267 0 
L 493 0 
L 493 3238 
Q 717 3302 1078 3360 
Q 1440 3418 1843 3418 
Q 2189 3418 2409 3328 
Q 2630 3238 2778 3091 
Q 2848 3142 2957 3200 
Q 3066 3258 3200 3306 
Q 3334 3354 3484 3386 
Q 3635 3418 3789 3418 
Q 4179 3418 4432 3306 
Q 4685 3194 4829 2992 
Q 4973 2790 5027 2505 
Q 5082 2221 5082 1882 
L 5082 0 
L 4307 0 
L 4307 1760 
Q 4307 2285 4179 2518 
Q 4051 2752 3686 2752 
Q 3501 2752 3334 2691 
Q 3168 2630 3085 2573 
Q 3136 2413 3155 2233 
Q 3174 2054 3174 1850 
L 3174 0 
L 2400 0 
L 2400 1760 
z
" transform="scale(0.015625)"/>
      <path id="Ubuntu-Medium-70" d="M 2714 1658 
Q 2714 2176 2480 2464 
Q 2246 2752 1728 2752 
Q 1619 2752 1500 2742 
Q 1382 2733 1267 2701 
L 1267 787 
Q 1370 717 1539 656 
Q 1709 595 1901 595 
Q 2323 595 2518 883 
Q 2714 1171 2714 1658 
z
M 3507 1670 
Q 3507 1286 3408 966 
Q 3309 646 3123 416 
Q 2938 186 2659 58 
Q 2381 -70 2029 -70 
Q 1792 -70 1593 -12 
Q 1395 45 1267 115 
L 1267 -1184 
L 493 -1184 
L 493 3238 
Q 730 3302 1075 3360 
Q 1421 3418 1805 3418 
Q 2202 3418 2515 3296 
Q 2829 3174 3049 2947 
Q 3270 2720 3388 2397 
Q 3507 2074 3507 1670 
z
" transform="scale(0.015625)"/>
      <path id="Ubuntu-Medium-61" d="M 1670 544 
Q 2029 544 2214 582 
L 2214 1440 
Q 2150 1459 2028 1478 
Q 1907 1498 1760 1498 
Q 1632 1498 1501 1478 
Q 1370 1459 1264 1408 
Q 1158 1357 1094 1264 
Q 1030 1171 1030 1030 
Q 1030 755 1203 649 
Q 1376 544 1670 544 
z
M 1606 3430 
Q 1990 3430 2252 3334 
Q 2515 3238 2672 3065 
Q 2829 2893 2896 2646 
Q 2963 2400 2963 2106 
L 2963 77 
Q 2784 38 2422 -16 
Q 2061 -70 1606 -70 
Q 1306 -70 1056 -12 
Q 806 45 630 173 
Q 454 301 355 505 
Q 256 710 256 1011 
Q 256 1299 368 1497 
Q 480 1696 672 1821 
Q 864 1946 1117 2000 
Q 1370 2054 1645 2054 
Q 1773 2054 1913 2038 
Q 2054 2022 2214 1984 
L 2214 2112 
Q 2214 2246 2182 2368 
Q 2150 2490 2070 2582 
Q 1990 2675 1859 2726 
Q 1728 2778 1530 2778 
Q 1261 2778 1037 2739 
Q 813 2701 672 2650 
L 576 3277 
Q 723 3328 1004 3379 
Q 1286 3430 1606 3430 
z
" transform="scale(0.015625)"/>
      <path id="Ubuntu-Medium-72" d="M 2400 2650 
Q 2304 2682 2134 2717 
Q 1965 2752 1741 2752 
Q 1613 2752 1469 2726 
Q 1325 2701 1267 2682 
L 1267 0 
L 493 0 
L 493 3187 
Q 717 3270 1053 3344 
Q 1389 3418 1798 3418 
Q 1875 3418 1977 3408 
Q 2080 3398 2182 3382 
Q 2285 3366 2381 3344 
Q 2477 3322 2534 3302 
L 2400 2650 
z
" transform="scale(0.015625)"/>
      <path id="Ubuntu-Medium-69" d="M 1274 0 
L 499 0 
L 499 3347 
L 1274 3347 
L 1274 0 
z
M 1357 4326 
Q 1357 4109 1216 3981 
Q 1075 3853 883 3853 
Q 685 3853 544 3981 
Q 403 4109 403 4326 
Q 403 4550 544 4678 
Q 685 4806 883 4806 
Q 1075 4806 1216 4678 
Q 1357 4550 1357 4326 
z
" transform="scale(0.015625)"/>
      <path id="Ubuntu-Medium-73" d="M 1331 557 
Q 1638 557 1779 630 
Q 1920 704 1920 883 
Q 1920 1050 1769 1158 
Q 1619 1267 1274 1395 
Q 1062 1472 886 1558 
Q 710 1645 582 1760 
Q 454 1875 380 2038 
Q 307 2202 307 2438 
Q 307 2899 646 3164 
Q 986 3430 1568 3430 
Q 1862 3430 2131 3376 
Q 2400 3322 2534 3270 
L 2394 2643 
Q 2266 2701 2067 2749 
Q 1869 2797 1606 2797 
Q 1370 2797 1222 2717 
Q 1075 2637 1075 2470 
Q 1075 2387 1104 2323 
Q 1133 2259 1203 2204 
Q 1274 2150 1389 2096 
Q 1504 2042 1670 1984 
Q 1946 1882 2138 1782 
Q 2330 1683 2454 1558 
Q 2579 1434 2636 1274 
Q 2694 1114 2694 890 
Q 2694 410 2339 163 
Q 1984 -83 1325 -83 
Q 883 -83 614 -9 
Q 346 64 237 109 
L 371 755 
Q 544 685 784 621 
Q 1024 557 1331 557 
z
" transform="scale(0.015625)"/>
      <path id="Ubuntu-Medium-6e" d="M 493 3238 
Q 717 3302 1075 3360 
Q 1434 3418 1869 3418 
Q 2278 3418 2553 3306 
Q 2829 3194 2992 2992 
Q 3155 2790 3222 2505 
Q 3290 2221 3290 1882 
L 3290 0 
L 2515 0 
L 2515 1760 
Q 2515 2029 2480 2217 
Q 2445 2406 2365 2524 
Q 2285 2643 2147 2697 
Q 2010 2752 1811 2752 
Q 1664 2752 1504 2733 
Q 1344 2714 1267 2701 
L 1267 0 
L 493 0 
L 493 3238 
z
" transform="scale(0.015625)"/>
      <path id="Ubuntu-Medium-20" transform="scale(0.015625)"/>
      <path id="Ubuntu-Medium-66" d="M 1856 4966 
Q 2125 4966 2329 4918 
Q 2534 4870 2637 4832 
L 2490 4192 
Q 2381 4243 2237 4275 
Q 2093 4307 1926 4307 
Q 1741 4307 1613 4252 
Q 1485 4198 1408 4102 
Q 1331 4006 1299 3868 
Q 1267 3731 1267 3571 
L 1267 3347 
L 2483 3347 
L 2483 2701 
L 1267 2701 
L 1267 0 
L 493 0 
L 493 3584 
Q 493 4230 832 4598 
Q 1171 4966 1856 4966 
z
" transform="scale(0.015625)"/>
      <path id="Ubuntu-Medium-52" d="M 1754 4480 
Q 2714 4480 3222 4128 
Q 3731 3776 3731 3053 
Q 3731 2150 2842 1830 
Q 2963 1683 3116 1472 
Q 3270 1261 3430 1014 
Q 3590 768 3737 509 
Q 3885 250 4000 0 
L 3098 0 
Q 2976 230 2835 464 
Q 2694 698 2550 918 
Q 2406 1139 2265 1334 
Q 2125 1530 2003 1683 
Q 1914 1677 1850 1677 
Q 1786 1677 1728 1677 
L 1338 1677 
L 1338 0 
L 531 0 
L 531 4371 
Q 826 4435 1158 4457 
Q 1491 4480 1754 4480 
z
M 1811 3782 
Q 1555 3782 1338 3763 
L 1338 2330 
L 1690 2330 
Q 1984 2330 2208 2362 
Q 2432 2394 2582 2477 
Q 2733 2560 2809 2701 
Q 2886 2842 2886 3059 
Q 2886 3264 2809 3405 
Q 2733 3546 2589 3629 
Q 2445 3712 2246 3747 
Q 2048 3782 1811 3782 
z
" transform="scale(0.015625)"/>
      <path id="Ubuntu-Medium-65" d="M 307 1658 
Q 307 2099 438 2432 
Q 570 2765 787 2985 
Q 1005 3206 1286 3318 
Q 1568 3430 1862 3430 
Q 2554 3430 2941 3001 
Q 3328 2573 3328 1722 
Q 3328 1658 3325 1578 
Q 3322 1498 3315 1434 
L 1107 1434 
Q 1139 1030 1392 809 
Q 1645 589 2125 589 
Q 2406 589 2640 640 
Q 2874 691 3008 749 
L 3110 115 
Q 3046 83 2934 48 
Q 2822 13 2678 -16 
Q 2534 -45 2368 -64 
Q 2202 -83 2029 -83 
Q 1587 -83 1260 48 
Q 934 179 723 412 
Q 512 646 409 963 
Q 307 1280 307 1658 
z
M 2554 2003 
Q 2554 2163 2509 2307 
Q 2464 2451 2377 2556 
Q 2291 2662 2166 2723 
Q 2042 2784 1869 2784 
Q 1690 2784 1555 2717 
Q 1421 2650 1328 2541 
Q 1235 2432 1184 2291 
Q 1133 2150 1114 2003 
L 2554 2003 
z
" transform="scale(0.015625)"/>
      <path id="Ubuntu-Medium-64" d="M 1101 1683 
Q 1101 1171 1344 880 
Q 1587 589 2016 589 
Q 2202 589 2333 605 
Q 2464 621 2547 640 
L 2547 2560 
Q 2445 2630 2275 2691 
Q 2106 2752 1914 2752 
Q 1491 2752 1296 2464 
Q 1101 2176 1101 1683 
z
M 3322 102 
Q 3091 32 2742 -25 
Q 2394 -83 2010 -83 
Q 1613 -83 1299 38 
Q 986 160 765 387 
Q 544 614 425 937 
Q 307 1261 307 1664 
Q 307 2061 406 2384 
Q 506 2707 698 2937 
Q 890 3168 1165 3293 
Q 1440 3418 1798 3418 
Q 2042 3418 2227 3360 
Q 2413 3302 2547 3232 
L 2547 4838 
L 3322 4966 
L 3322 102 
z
" transform="scale(0.015625)"/>
      <path id="Ubuntu-Medium-75" d="M 3238 102 
Q 3014 45 2656 -16 
Q 2298 -77 1869 -77 
Q 1466 -77 1194 38 
Q 922 154 758 358 
Q 595 563 524 848 
Q 454 1133 454 1472 
L 454 3347 
L 1229 3347 
L 1229 1594 
Q 1229 1056 1385 825 
Q 1542 595 1933 595 
Q 2074 595 2230 608 
Q 2387 621 2464 640 
L 2464 3347 
L 3238 3347 
L 3238 102 
z
" transform="scale(0.015625)"/>
      <path id="Ubuntu-Medium-6c" d="M 1658 -64 
Q 1312 -58 1085 12 
Q 858 83 723 214 
Q 589 346 534 541 
Q 480 736 480 986 
L 480 4838 
L 1254 4966 
L 1254 1133 
Q 1254 992 1276 896 
Q 1299 800 1356 733 
Q 1414 666 1513 630 
Q 1613 595 1766 576 
L 1658 -64 
z
" transform="scale(0.015625)"/>
      <path id="Ubuntu-Medium-74" d="M 454 4230 
L 1229 4358 
L 1229 3347 
L 2419 3347 
L 2419 2701 
L 1229 2701 
L 1229 1338 
Q 1229 934 1357 761 
Q 1485 589 1792 589 
Q 2003 589 2166 633 
Q 2330 678 2426 717 
L 2554 102 
Q 2419 45 2201 -16 
Q 1984 -77 1690 -77 
Q 1331 -77 1091 19 
Q 851 115 710 297 
Q 570 480 512 739 
Q 454 998 454 1331 
L 454 4230 
z
" transform="scale(0.015625)"/>
      <path id="Ubuntu-Medium-62" d="M 2714 1683 
Q 2714 2176 2518 2464 
Q 2323 2752 1901 2752 
Q 1709 2752 1539 2694 
Q 1370 2637 1267 2566 
L 1267 640 
Q 1350 621 1481 605 
Q 1613 589 1798 589 
Q 2227 589 2470 880 
Q 2714 1171 2714 1683 
z
M 3507 1670 
Q 3507 1267 3388 944 
Q 3270 621 3049 390 
Q 2829 160 2515 38 
Q 2202 -83 1805 -83 
Q 1421 -83 1072 -25 
Q 723 32 493 102 
L 493 4838 
L 1267 4966 
L 1267 3232 
Q 1402 3302 1597 3360 
Q 1792 3418 2029 3418 
Q 2381 3418 2659 3293 
Q 2938 3168 3123 2937 
Q 3309 2707 3408 2384 
Q 3507 2061 3507 1670 
z
" transform="scale(0.015625)"/>
      <path id="Ubuntu-Medium-77" d="M 2490 2106 
Q 2342 1542 2172 1008 
Q 2003 474 1837 0 
L 1203 0 
Q 1075 294 934 672 
Q 794 1050 653 1478 
Q 512 1907 371 2380 
Q 230 2854 96 3347 
L 915 3347 
Q 973 3078 1049 2768 
Q 1126 2458 1209 2134 
Q 1293 1811 1382 1504 
Q 1472 1197 1562 941 
Q 1658 1235 1750 1548 
Q 1843 1862 1926 2176 
Q 2010 2490 2083 2787 
Q 2157 3085 2214 3347 
L 2810 3347 
Q 2867 3085 2937 2787 
Q 3008 2490 3088 2176 
Q 3168 1862 3261 1548 
Q 3354 1235 3450 941 
Q 3533 1197 3622 1504 
Q 3712 1811 3798 2134 
Q 3885 2458 3961 2768 
Q 4038 3078 4096 3347 
L 4896 3347 
Q 4762 2854 4621 2380 
Q 4480 1907 4339 1478 
Q 4198 1050 4057 672 
Q 3917 294 3782 0 
L 3155 0 
Q 2989 474 2813 1008 
Q 2637 1542 2490 2106 
z
" transform="scale(0.015625)"/>
      <path id="Ubuntu-Medium-68" d="M 493 0 
L 493 4838 
L 1267 4966 
L 1267 3309 
Q 1395 3354 1564 3386 
Q 1734 3418 1901 3418 
Q 2304 3418 2569 3306 
Q 2835 3194 2995 2992 
Q 3155 2790 3222 2508 
Q 3290 2227 3290 1882 
L 3290 0 
L 2515 0 
L 2515 1760 
Q 2515 2029 2480 2217 
Q 2445 2406 2365 2524 
Q 2285 2643 2150 2697 
Q 2016 2752 1818 2752 
Q 1664 2752 1504 2720 
Q 1344 2688 1267 2662 
L 1267 0 
L 493 0 
z
" transform="scale(0.015625)"/>
     </defs>
     <use xlink:href="#Ubuntu-Medium-43"/>
     <use xlink:href="#Ubuntu-Medium-6f" x="62.549988"/>
     <use xlink:href="#Ubuntu-Medium-6d" x="122.349976"/>
     <use xlink:href="#Ubuntu-Medium-70" x="208.84996"/>
     <use xlink:href="#Ubuntu-Medium-61" x="268.449951"/>
     <use xlink:href="#Ubuntu-Medium-72" x="321.849945"/>
     <use xlink:href="#Ubuntu-Medium-69" x="362.149933"/>
     <use xlink:href="#Ubuntu-Medium-73" x="389.749924"/>
     <use xlink:href="#Ubuntu-Medium-6f" x="435.449921"/>
     <use xlink:href="#Ubuntu-Medium-6e" x="495.249908"/>
     <use xlink:href="#Ubuntu-Medium-20" x="553.749893"/>
     <use xlink:href="#Ubuntu-Medium-6f" x="577.049881"/>
     <use xlink:href="#Ubuntu-Medium-66" x="636.849869"/>
     <use xlink:href="#Ubuntu-Medium-20" x="676.849854"/>
     <use xlink:href="#Ubuntu-Medium-52" x="700.149841"/>
     <use xlink:href="#Ubuntu-Medium-65" x="764.149826"/>
     <use xlink:href="#Ubuntu-Medium-73" x="821.249817"/>
     <use xlink:href="#Ubuntu-Medium-69" x="866.949814"/>
     <use xlink:href="#Ubuntu-Medium-64" x="894.549805"/>
     <use xlink:href="#Ubuntu-Medium-75" x="954.149796"/>
     <use xlink:href="#Ubuntu-Medium-61" x="1012.449783"/>
     <use xlink:href="#Ubuntu-Medium-6c" x="1065.849777"/>
     <use xlink:href="#Ubuntu-Medium-20" x="1095.549774"/>
     <use xlink:href="#Ubuntu-Medium-64" x="1118.849762"/>
     <use xlink:href="#Ubuntu-Medium-69" x="1178.449753"/>
     <use xlink:href="#Ubuntu-Medium-73" x="1206.049744"/>
     <use xlink:href="#Ubuntu-Medium-74" x="1251.749741"/>
     <use xlink:href="#Ubuntu-Medium-72" x="1293.549728"/>
     <use xlink:href="#Ubuntu-Medium-69" x="1333.849716"/>
     <use xlink:href="#Ubuntu-Medium-62" x="1361.449707"/>
     <use xlink:href="#Ubuntu-Medium-75" x="1421.049698"/>
     <use xlink:href="#Ubuntu-Medium-74" x="1479.349686"/>
     <use xlink:href="#Ubuntu-Medium-69" x="1521.149673"/>
     <use xlink:href="#Ubuntu-Medium-6f" x="1548.749664"/>
     <use xlink:href="#Ubuntu-Medium-6e" x="1608.549652"/>
     <use xlink:href="#Ubuntu-Medium-73" x="1667.049637"/>
     <use xlink:href="#Ubuntu-Medium-20" x="1712.749634"/>
     <use xlink:href="#Ubuntu-Medium-77" x="1736.049622"/>
     <use xlink:href="#Ubuntu-Medium-69" x="1814.049606"/>
     <use xlink:href="#Ubuntu-Medium-74" x="1841.649597"/>
     <use xlink:href="#Ubuntu-Medium-68" x="1883.449585"/>
     <use xlink:href="#Ubuntu-Medium-20" x="1941.649582"/>
     <use xlink:href="#Ubuntu-Medium-61" x="1964.94957"/>
     <use xlink:href="#Ubuntu-Medium-6e" x="2018.349564"/>
     <use xlink:href="#Ubuntu-Medium-64" x="2076.849548"/>
     <use xlink:href="#Ubuntu-Medium-20" x="2136.449539"/>
     <use xlink:href="#Ubuntu-Medium-77" x="2159.749527"/>
     <use xlink:href="#Ubuntu-Medium-69" x="2237.749512"/>
     <use xlink:href="#Ubuntu-Medium-74" x="2265.349503"/>
     <use xlink:href="#Ubuntu-Medium-68" x="2307.14949"/>
     <use xlink:href="#Ubuntu-Medium-6f" x="2365.349487"/>
     <use xlink:href="#Ubuntu-Medium-75" x="2425.149475"/>
     <use xlink:href="#Ubuntu-Medium-74" x="2483.449463"/>
     <use xlink:href="#Ubuntu-Medium-20" x="2525.249451"/>
     <use xlink:href="#Ubuntu-Medium-6f" x="2548.549438"/>
     <use xlink:href="#Ubuntu-Medium-75" x="2608.349426"/>
     <use xlink:href="#Ubuntu-Medium-74" x="2666.649414"/>
     <use xlink:href="#Ubuntu-Medium-6c" x="2708.449402"/>
     <use xlink:href="#Ubuntu-Medium-69" x="2738.149399"/>
     <use xlink:href="#Ubuntu-Medium-65" x="2765.74939"/>
     <use xlink:href="#Ubuntu-Medium-72" x="2822.84938"/>
     <use xlink:href="#Ubuntu-Medium-73" x="2863.149368"/>
    </g>
   </g>
   <g id="legend_1">
    <g id="patch_5">
     <path d="M 47.060938 33.255625 
L 63.060938 33.255625 
L 63.060938 27.655625 
L 47.060938 27.655625 
z
" style="fill: #858585; fill-opacity: 0.25; stroke: #858585; stroke-width: 0.01; stroke-linejoin: miter"/>
    </g>
    <g id="text_13">
     <!-- Normal distribution -->
     <g style="fill: #4b4b4b" transform="translate(63.060938 33.255625) scale(0.08 -0.08)">
      <defs>
       <path id="Ubuntu-4e" d="M 3590 0 
Q 3450 237 3267 531 
Q 3085 826 2873 1142 
Q 2662 1459 2435 1785 
Q 2208 2112 1984 2416 
Q 1760 2720 1549 2989 
Q 1338 3258 1158 3462 
L 1158 0 
L 550 0 
L 550 4435 
L 1043 4435 
Q 1344 4115 1686 3689 
Q 2029 3264 2365 2813 
Q 2701 2362 2998 1926 
Q 3296 1491 3501 1152 
L 3501 4435 
L 4109 4435 
L 4109 0 
L 3590 0 
z
" transform="scale(0.015625)"/>
       <path id="Ubuntu-6f" d="M 3450 1664 
Q 3450 1267 3334 947 
Q 3219 627 3011 396 
Q 2803 166 2515 41 
Q 2227 -83 1888 -83 
Q 1549 -83 1261 41 
Q 973 166 765 396 
Q 557 627 441 947 
Q 326 1267 326 1664 
Q 326 2054 441 2377 
Q 557 2701 765 2931 
Q 973 3162 1261 3286 
Q 1549 3411 1888 3411 
Q 2227 3411 2515 3286 
Q 2803 3162 3011 2931 
Q 3219 2701 3334 2377 
Q 3450 2054 3450 1664 
z
M 2829 1664 
Q 2829 2227 2576 2556 
Q 2323 2886 1888 2886 
Q 1453 2886 1200 2556 
Q 947 2227 947 1664 
Q 947 1101 1200 771 
Q 1453 442 1888 442 
Q 2323 442 2576 771 
Q 2829 1101 2829 1664 
z
" transform="scale(0.015625)"/>
       <path id="Ubuntu-72" d="M 1741 3398 
Q 1818 3398 1917 3388 
Q 2016 3379 2112 3363 
Q 2208 3347 2288 3331 
Q 2368 3315 2406 3302 
L 2304 2784 
Q 2234 2810 2070 2845 
Q 1907 2880 1651 2880 
Q 1485 2880 1321 2845 
Q 1158 2810 1107 2797 
L 1107 0 
L 512 0 
L 512 3187 
Q 723 3264 1036 3331 
Q 1350 3398 1741 3398 
z
" transform="scale(0.015625)"/>
       <path id="Ubuntu-6d" d="M 512 3232 
Q 717 3283 1053 3340 
Q 1389 3398 1830 3398 
Q 2150 3398 2368 3312 
Q 2586 3226 2733 3059 
Q 2778 3091 2874 3148 
Q 2970 3206 3110 3260 
Q 3251 3315 3424 3356 
Q 3597 3398 3795 3398 
Q 4179 3398 4422 3286 
Q 4666 3174 4803 2969 
Q 4941 2765 4989 2483 
Q 5037 2202 5037 1869 
L 5037 0 
L 4442 0 
L 4442 1741 
Q 4442 2035 4413 2246 
Q 4384 2458 4304 2598 
Q 4224 2739 4086 2806 
Q 3949 2874 3731 2874 
Q 3430 2874 3235 2794 
Q 3040 2714 2970 2650 
Q 3021 2483 3046 2284 
Q 3072 2086 3072 1869 
L 3072 0 
L 2477 0 
L 2477 1741 
Q 2477 2035 2445 2246 
Q 2413 2458 2333 2598 
Q 2253 2739 2115 2806 
Q 1978 2874 1766 2874 
Q 1677 2874 1574 2867 
Q 1472 2861 1379 2851 
Q 1286 2842 1209 2829 
Q 1133 2816 1107 2810 
L 1107 0 
L 512 0 
L 512 3232 
z
" transform="scale(0.015625)"/>
       <path id="Ubuntu-61" d="M 1638 429 
Q 1850 429 2013 438 
Q 2176 448 2285 474 
L 2285 1466 
Q 2221 1498 2077 1520 
Q 1933 1542 1728 1542 
Q 1594 1542 1443 1523 
Q 1293 1504 1168 1443 
Q 1043 1382 960 1276 
Q 877 1171 877 998 
Q 877 678 1081 553 
Q 1286 429 1638 429 
z
M 1587 3411 
Q 1946 3411 2192 3318 
Q 2438 3226 2588 3056 
Q 2739 2886 2803 2652 
Q 2867 2419 2867 2138 
L 2867 58 
Q 2790 45 2652 22 
Q 2515 0 2342 -19 
Q 2170 -38 1968 -54 
Q 1766 -70 1568 -70 
Q 1286 -70 1049 -12 
Q 813 45 640 169 
Q 467 294 371 499 
Q 275 704 275 992 
Q 275 1267 387 1465 
Q 499 1664 691 1785 
Q 883 1907 1139 1964 
Q 1395 2022 1677 2022 
Q 1766 2022 1862 2012 
Q 1958 2003 2044 1987 
Q 2131 1971 2195 1958 
Q 2259 1946 2285 1939 
L 2285 2106 
Q 2285 2253 2253 2397 
Q 2221 2541 2137 2653 
Q 2054 2765 1910 2832 
Q 1766 2899 1536 2899 
Q 1242 2899 1021 2857 
Q 800 2816 691 2771 
L 621 3264 
Q 736 3315 1005 3363 
Q 1274 3411 1587 3411 
z
" transform="scale(0.015625)"/>
       <path id="Ubuntu-6c" d="M 1510 -64 
Q 960 -51 729 173 
Q 499 397 499 870 
L 499 4864 
L 1094 4966 
L 1094 966 
Q 1094 819 1120 723 
Q 1146 627 1203 569 
Q 1261 512 1357 483 
Q 1453 454 1594 435 
L 1510 -64 
z
" transform="scale(0.015625)"/>
       <path id="Ubuntu-20" transform="scale(0.015625)"/>
       <path id="Ubuntu-64" d="M 2662 2624 
Q 2554 2714 2349 2797 
Q 2144 2880 1901 2880 
Q 1645 2880 1462 2787 
Q 1280 2694 1165 2531 
Q 1050 2368 998 2144 
Q 947 1920 947 1664 
Q 947 1082 1235 765 
Q 1523 448 2003 448 
Q 2246 448 2409 470 
Q 2573 493 2662 518 
L 2662 2624 
z
M 2662 4864 
L 3258 4966 
L 3258 96 
Q 3053 38 2733 -19 
Q 2413 -77 1997 -77 
Q 1613 -77 1305 44 
Q 998 166 780 390 
Q 563 614 444 937 
Q 326 1261 326 1664 
Q 326 2048 425 2368 
Q 525 2688 717 2918 
Q 909 3149 1187 3277 
Q 1466 3405 1824 3405 
Q 2112 3405 2333 3328 
Q 2554 3251 2662 3181 
L 2662 4864 
z
" transform="scale(0.015625)"/>
       <path id="Ubuntu-69" d="M 1107 0 
L 512 0 
L 512 3328 
L 1107 3328 
L 1107 0 
z
M 806 3930 
Q 646 3930 534 4035 
Q 422 4141 422 4320 
Q 422 4499 534 4604 
Q 646 4710 806 4710 
Q 966 4710 1078 4604 
Q 1190 4499 1190 4320 
Q 1190 4141 1078 4035 
Q 966 3930 806 3930 
z
" transform="scale(0.015625)"/>
       <path id="Ubuntu-73" d="M 1286 429 
Q 1651 429 1827 525 
Q 2003 621 2003 832 
Q 2003 1050 1830 1178 
Q 1658 1306 1261 1466 
Q 1069 1542 893 1622 
Q 717 1702 589 1811 
Q 461 1920 384 2073 
Q 307 2227 307 2451 
Q 307 2893 633 3152 
Q 960 3411 1523 3411 
Q 1664 3411 1805 3395 
Q 1946 3379 2067 3356 
Q 2189 3334 2281 3308 
Q 2374 3283 2426 3264 
L 2317 2752 
Q 2221 2803 2016 2857 
Q 1811 2912 1523 2912 
Q 1274 2912 1088 2813 
Q 902 2714 902 2502 
Q 902 2394 944 2310 
Q 986 2227 1072 2160 
Q 1158 2093 1286 2035 
Q 1414 1978 1594 1914 
Q 1830 1824 2016 1737 
Q 2202 1651 2333 1536 
Q 2464 1421 2534 1257 
Q 2605 1094 2605 858 
Q 2605 397 2262 160 
Q 1920 -77 1286 -77 
Q 845 -77 595 -3 
Q 346 70 256 109 
L 365 621 
Q 467 582 691 505 
Q 915 429 1286 429 
z
" transform="scale(0.015625)"/>
       <path id="Ubuntu-74" d="M 1069 3328 
L 2330 3328 
L 2330 2829 
L 1069 2829 
L 1069 1293 
Q 1069 1043 1107 880 
Q 1146 717 1222 624 
Q 1299 531 1414 492 
Q 1530 454 1683 454 
Q 1952 454 2115 515 
Q 2278 576 2342 602 
L 2458 109 
Q 2368 64 2144 -3 
Q 1920 -70 1632 -70 
Q 1293 -70 1072 16 
Q 851 102 716 275 
Q 582 448 528 701 
Q 474 954 474 1286 
L 474 4256 
L 1069 4358 
L 1069 3328 
z
" transform="scale(0.015625)"/>
       <path id="Ubuntu-62" d="M 1107 3181 
Q 1216 3251 1437 3328 
Q 1658 3405 1946 3405 
Q 2304 3405 2582 3277 
Q 2861 3149 3053 2918 
Q 3245 2688 3344 2368 
Q 3443 2048 3443 1664 
Q 3443 1261 3324 937 
Q 3206 614 2988 390 
Q 2771 166 2464 44 
Q 2157 -77 1773 -77 
Q 1357 -77 1037 -19 
Q 717 38 512 96 
L 512 4864 
L 1107 4966 
L 1107 3181 
z
M 1107 518 
Q 1197 493 1360 470 
Q 1523 448 1766 448 
Q 2246 448 2534 765 
Q 2822 1082 2822 1664 
Q 2822 1920 2771 2144 
Q 2720 2368 2605 2531 
Q 2490 2694 2307 2787 
Q 2125 2880 1869 2880 
Q 1626 2880 1421 2797 
Q 1216 2714 1107 2624 
L 1107 518 
z
" transform="scale(0.015625)"/>
       <path id="Ubuntu-75" d="M 3162 96 
Q 2957 45 2621 -12 
Q 2285 -70 1843 -70 
Q 1459 -70 1196 42 
Q 934 154 774 358 
Q 614 563 544 841 
Q 474 1120 474 1459 
L 474 3328 
L 1069 3328 
L 1069 1587 
Q 1069 979 1261 716 
Q 1453 454 1907 454 
Q 2003 454 2105 460 
Q 2208 467 2297 476 
Q 2387 486 2460 496 
Q 2534 506 2566 518 
L 2566 3328 
L 3162 3328 
L 3162 96 
z
" transform="scale(0.015625)"/>
       <path id="Ubuntu-6e" d="M 512 3232 
Q 717 3283 1056 3340 
Q 1395 3398 1837 3398 
Q 2234 3398 2496 3286 
Q 2758 3174 2915 2972 
Q 3072 2771 3136 2489 
Q 3200 2208 3200 1869 
L 3200 0 
L 2605 0 
L 2605 1741 
Q 2605 2048 2563 2265 
Q 2522 2483 2426 2617 
Q 2330 2752 2170 2813 
Q 2010 2874 1773 2874 
Q 1677 2874 1574 2867 
Q 1472 2861 1379 2851 
Q 1286 2842 1212 2829 
Q 1139 2816 1107 2810 
L 1107 0 
L 512 0 
L 512 3232 
z
" transform="scale(0.015625)"/>
      </defs>
      <use xlink:href="#Ubuntu-4e"/>
      <use xlink:href="#Ubuntu-6f" x="72.799988"/>
      <use xlink:href="#Ubuntu-72" x="131.799973"/>
      <use xlink:href="#Ubuntu-6d" x="170.399963"/>
      <use xlink:href="#Ubuntu-61" x="256.499954"/>
      <use xlink:href="#Ubuntu-6c" x="308.699951"/>
      <use xlink:href="#Ubuntu-20" x="335.999939"/>
      <use xlink:href="#Ubuntu-64" x="359.09993"/>
      <use xlink:href="#Ubuntu-69" x="417.999924"/>
      <use xlink:href="#Ubuntu-73" x="443.299911"/>
      <use xlink:href="#Ubuntu-74" x="487.899902"/>
      <use xlink:href="#Ubuntu-72" x="528.099899"/>
      <use xlink:href="#Ubuntu-69" x="566.69989"/>
      <use xlink:href="#Ubuntu-62" x="591.999878"/>
      <use xlink:href="#Ubuntu-75" x="650.899872"/>
      <use xlink:href="#Ubuntu-74" x="708.299866"/>
      <use xlink:href="#Ubuntu-69" x="748.499863"/>
      <use xlink:href="#Ubuntu-6f" x="773.79985"/>
      <use xlink:href="#Ubuntu-6e" x="832.799835"/>
     </g>
    </g>
    <g id="line2d_13">
     <path d="M 138.275937 30.455625 
L 146.275937 30.455625 
L 154.275937 30.455625 
" style="fill: none; stroke: #af5a51; stroke-width: 1.2; stroke-linecap: square"/>
    </g>
    <g id="text_14">
     <!-- Residuals (original) -->
     <g style="fill: #4b4b4b" transform="translate(154.275937 33.255625) scale(0.08 -0.08)">
      <defs>
       <path id="Ubuntu-52" d="M 2720 1856 
Q 2822 1728 2979 1520 
Q 3136 1312 3302 1059 
Q 3469 806 3632 531 
Q 3795 256 3910 0 
L 3232 0 
Q 3104 243 2953 492 
Q 2803 742 2649 969 
Q 2496 1197 2345 1395 
Q 2195 1594 2074 1741 
Q 1990 1734 1904 1734 
Q 1818 1734 1728 1734 
L 1171 1734 
L 1171 0 
L 550 0 
L 550 4371 
Q 813 4435 1136 4457 
Q 1459 4480 1728 4480 
Q 2662 4480 3152 4128 
Q 3642 3776 3642 3078 
Q 3642 2637 3408 2323 
Q 3174 2010 2720 1856 
z
M 1779 3936 
Q 1382 3936 1171 3917 
L 1171 2246 
L 1613 2246 
Q 1933 2246 2189 2278 
Q 2445 2310 2621 2400 
Q 2797 2490 2893 2653 
Q 2989 2816 2989 3085 
Q 2989 3334 2893 3500 
Q 2797 3667 2633 3763 
Q 2470 3859 2249 3897 
Q 2029 3936 1779 3936 
z
" transform="scale(0.015625)"/>
       <path id="Ubuntu-65" d="M 326 1658 
Q 326 2099 454 2428 
Q 582 2758 793 2976 
Q 1005 3194 1280 3302 
Q 1555 3411 1843 3411 
Q 2515 3411 2873 2992 
Q 3232 2573 3232 1715 
Q 3232 1677 3232 1616 
Q 3232 1555 3226 1504 
L 947 1504 
Q 986 986 1248 717 
Q 1510 448 2067 448 
Q 2381 448 2595 502 
Q 2810 557 2918 608 
L 3002 109 
Q 2893 51 2621 -13 
Q 2349 -77 2003 -77 
Q 1568 -77 1251 54 
Q 934 186 729 416 
Q 525 646 425 963 
Q 326 1280 326 1658 
z
M 2611 1984 
Q 2618 2387 2410 2646 
Q 2202 2906 1837 2906 
Q 1632 2906 1475 2826 
Q 1318 2746 1209 2618 
Q 1101 2490 1040 2323 
Q 979 2157 960 1984 
L 2611 1984 
z
" transform="scale(0.015625)"/>
       <path id="Ubuntu-28" d="M 1094 1914 
Q 1094 1094 1331 396 
Q 1568 -301 2029 -896 
L 1606 -1184 
Q 1107 -576 803 214 
Q 499 1005 499 1914 
Q 499 2822 803 3612 
Q 1107 4403 1606 5011 
L 2029 4723 
Q 1568 4128 1331 3430 
Q 1094 2733 1094 1914 
z
" transform="scale(0.015625)"/>
       <path id="Ubuntu-67" d="M 2598 333 
Q 2522 282 2301 202 
Q 2080 122 1786 122 
Q 1485 122 1219 218 
Q 954 314 755 515 
Q 557 717 441 1017 
Q 326 1318 326 1734 
Q 326 2099 435 2403 
Q 544 2707 752 2928 
Q 960 3149 1261 3273 
Q 1562 3398 1939 3398 
Q 2355 3398 2665 3337 
Q 2976 3277 3187 3226 
L 3187 256 
Q 3187 -512 2790 -857 
Q 2394 -1203 1587 -1203 
Q 1274 -1203 995 -1152 
Q 717 -1101 512 -1030 
L 621 -512 
Q 800 -582 1059 -636 
Q 1318 -691 1600 -691 
Q 2131 -691 2364 -480 
Q 2598 -269 2598 192 
L 2598 333 
z
M 2592 2803 
Q 2502 2829 2352 2851 
Q 2202 2874 1946 2874 
Q 1466 2874 1206 2560 
Q 947 2246 947 1728 
Q 947 1440 1020 1235 
Q 1094 1030 1219 896 
Q 1344 762 1507 698 
Q 1670 634 1843 634 
Q 2080 634 2278 701 
Q 2477 768 2592 858 
L 2592 2803 
z
" transform="scale(0.015625)"/>
       <path id="Ubuntu-29" d="M 979 1914 
Q 979 2733 742 3430 
Q 506 4128 45 4723 
L 467 5011 
Q 966 4403 1270 3612 
Q 1574 2822 1574 1914 
Q 1574 1005 1270 214 
Q 966 -576 467 -1184 
L 45 -896 
Q 506 -301 742 396 
Q 979 1094 979 1914 
z
" transform="scale(0.015625)"/>
      </defs>
      <use xlink:href="#Ubuntu-52"/>
      <use xlink:href="#Ubuntu-65" x="62.899994"/>
      <use xlink:href="#Ubuntu-73" x="118.799988"/>
      <use xlink:href="#Ubuntu-69" x="163.399979"/>
      <use xlink:href="#Ubuntu-64" x="188.699966"/>
      <use xlink:href="#Ubuntu-75" x="247.59996"/>
      <use xlink:href="#Ubuntu-61" x="304.999954"/>
      <use xlink:href="#Ubuntu-6c" x="357.199951"/>
      <use xlink:href="#Ubuntu-73" x="384.499939"/>
      <use xlink:href="#Ubuntu-20" x="429.09993"/>
      <use xlink:href="#Ubuntu-28" x="452.199921"/>
      <use xlink:href="#Ubuntu-6f" x="484.599915"/>
      <use xlink:href="#Ubuntu-72" x="543.599899"/>
      <use xlink:href="#Ubuntu-69" x="582.19989"/>
      <use xlink:href="#Ubuntu-67" x="607.499878"/>
      <use xlink:href="#Ubuntu-69" x="665.299866"/>
      <use xlink:href="#Ubuntu-6e" x="690.599854"/>
      <use xlink:href="#Ubuntu-61" x="747.999847"/>
      <use xlink:href="#Ubuntu-6c" x="800.199844"/>
      <use xlink:href="#Ubuntu-29" x="827.499832"/>
     </g>
    </g>
    <g id="line2d_14">
     <path d="M 227.068438 30.455625 
L 235.068438 30.455625 
L 243.068438 30.455625 
" style="fill: none; stroke: #489079; stroke-width: 1.2; stroke-linecap: square"/>
    </g>
    <g id="text_15">
     <!-- Residuals (trimmed) -->
     <g style="fill: #4b4b4b" transform="translate(243.068438 33.255625) scale(0.08 -0.08)">
      <use xlink:href="#Ubuntu-52"/>
      <use xlink:href="#Ubuntu-65" x="62.899994"/>
      <use xlink:href="#Ubuntu-73" x="118.799988"/>
      <use xlink:href="#Ubuntu-69" x="163.399979"/>
      <use xlink:href="#Ubuntu-64" x="188.699966"/>
      <use xlink:href="#Ubuntu-75" x="247.59996"/>
      <use xlink:href="#Ubuntu-61" x="304.999954"/>
      <use xlink:href="#Ubuntu-6c" x="357.199951"/>
      <use xlink:href="#Ubuntu-73" x="384.499939"/>
      <use xlink:href="#Ubuntu-20" x="429.09993"/>
      <use xlink:href="#Ubuntu-28" x="452.199921"/>
      <use xlink:href="#Ubuntu-74" x="484.599915"/>
      <use xlink:href="#Ubuntu-72" x="524.799911"/>
      <use xlink:href="#Ubuntu-69" x="563.399902"/>
      <use xlink:href="#Ubuntu-6d" x="588.69989"/>
      <use xlink:href="#Ubuntu-6d" x="674.799881"/>
      <use xlink:href="#Ubuntu-65" x="760.899872"/>
      <use xlink:href="#Ubuntu-64" x="816.799866"/>
      <use xlink:href="#Ubuntu-29" x="875.69986"/>
     </g>
    </g>
   </g>
  </g>
 </g>
 <defs>
  <clipPath id="pf69c904523">
   <rect x="39.860938" y="41.959375" width="558" height="138.6"/>
  </clipPath>
 </defs>
</svg>
